<svg xmlns="http://www.w3.org/2000/svg" width="20" height="20" fill="none"><path style="line-height:normal;font-variant-ligatures:normal;font-variant-position:normal;font-variant-caps:normal;font-variant-numeric:normal;font-variant-alternates:normal;font-variant-east-asian:normal;font-feature-settings:normal;font-variation-settings:normal;text-indent:0;text-align:start;text-decoration-line:none;text-decoration-style:solid;text-decoration-color:#000;text-transform:none;text-orientation:mixed;white-space:normal;shape-padding:0;shape-margin:0;inline-size:0;isolation:auto;mix-blend-mode:normal;solid-color:#000;solid-opacity:1" d="M18.34 2.584a.75.75 0 00-.537.219L10 10.605 8.031 8.637a.75.75 0 00-1.062 0 .75.75 0 000 1.06l2.5 2.5a.75.75 0 001.062 0l8.332-8.334a.75.75 0 000-1.06.75.75 0 00-.523-.219z" color="#000" font-weight="400" font-family="sans-serif" overflow="visible" fill="#000"/><path style="line-height:normal;font-variant-ligatures:normal;font-variant-position:normal;font-variant-caps:normal;font-variant-numeric:normal;font-variant-alternates:normal;font-variant-east-asian:normal;font-feature-settings:normal;font-variation-settings:normal;text-indent:0;text-align:start;text-decoration-line:none;text-decoration-style:solid;text-decoration-color:#000;text-transform:none;text-orientation:mixed;white-space:normal;shape-padding:0;shape-margin:0;inline-size:0;isolation:auto;mix-blend-mode:normal;solid-color:#000;solid-opacity:1" d="M4.166 1.75A2.417 2.417 0 001.75 4.166v11.668a2.417 2.417 0 002.416 2.416h11.668a2.417 2.417 0 002.416-2.416V10a.75.75 0 00-.75-.75.75.75 0 00-.75.75v5.834a.91.91 0 01-.268.646.75.75 0 00-.002.002.91.91 0 01-.646.268H4.166a.915.915 0 01-.648-.268.75.75 0 000-.002.91.91 0 01-.268-.646V4.166a.915.915 0 01.916-.916h9.168a.75.75 0 00.75-.75.75.75 0 00-.75-.75H4.166z" color="#000" font-weight="400" font-family="sans-serif" overflow="visible" fill="#000"/></svg>