<svg xmlns="http://www.w3.org/2000/svg" width="20" height="20" fill="none"><path style="line-height:normal;font-variant-ligatures:normal;font-variant-position:normal;font-variant-caps:normal;font-variant-numeric:normal;font-variant-alternates:normal;font-variant-east-asian:normal;font-feature-settings:normal;font-variation-settings:normal;text-indent:0;text-align:start;text-decoration-line:none;text-decoration-style:solid;text-decoration-color:#000;text-transform:none;text-orientation:mixed;white-space:normal;shape-padding:0;shape-margin:0;inline-size:0;isolation:auto;mix-blend-mode:normal;solid-color:#000;solid-opacity:1" d="M4.166 1.75A2.427 2.427 0 001.75 4.166v11.668a2.427 2.427 0 002.416 2.416h11.668a2.427 2.427 0 002.416-2.416V4.166a2.427 2.427 0 00-2.416-2.416H4.166zm0 1.5h11.668c.515 0 .916.4.916.916v11.668c0 .515-.4.916-.916.916H4.166a.904.904 0 01-.916-.916V4.166c0-.515.4-.916.916-.916z" color="#000" font-weight="400" font-family="sans-serif" overflow="visible" fill="#000"/><path style="line-height:normal;font-variant-ligatures:normal;font-variant-position:normal;font-variant-caps:normal;font-variant-numeric:normal;font-variant-alternates:normal;font-variant-east-asian:normal;font-feature-settings:normal;font-variation-settings:normal;text-indent:0;text-align:start;text-decoration-line:none;text-decoration-style:solid;text-decoration-color:#000;text-transform:none;text-orientation:mixed;white-space:normal;shape-padding:0;shape-margin:0;inline-size:0;isolation:auto;mix-blend-mode:normal;solid-color:#000;solid-opacity:1" d="M7.506 6.75a.75.75 0 00-.537.219.75.75 0 000 1.062l5 5a.75.75 0 001.062 0 .75.75 0 000-1.062l-5-5a.75.75 0 00-.525-.219z" color="#000" font-weight="400" font-family="sans-serif" overflow="visible" fill="#000"/><path style="line-height:normal;font-variant-ligatures:normal;font-variant-position:normal;font-variant-caps:normal;font-variant-numeric:normal;font-variant-alternates:normal;font-variant-east-asian:normal;font-feature-settings:normal;font-variation-settings:normal;text-indent:0;text-align:start;text-decoration-line:none;text-decoration-style:solid;text-decoration-color:#000;text-transform:none;text-orientation:mixed;white-space:normal;shape-padding:0;shape-margin:0;inline-size:0;isolation:auto;mix-blend-mode:normal;solid-color:#000;solid-opacity:1" d="M12.506 6.75a.75.75 0 00-.537.219l-5 5a.75.75 0 000 1.062.75.75 0 001.062 0l5-5a.75.75 0 000-1.062.75.75 0 00-.525-.219z" color="#000" font-weight="400" font-family="sans-serif" overflow="visible" fill="#000"/></svg>