<svg xmlns="http://www.w3.org/2000/svg" width="24" height="24" fill="none"><path style="line-height:normal;font-variant-ligatures:normal;font-variant-position:normal;font-variant-caps:normal;font-variant-numeric:normal;font-variant-alternates:normal;font-variant-east-asian:normal;font-feature-settings:normal;font-variation-settings:normal;text-indent:0;text-align:start;text-decoration-line:none;text-decoration-style:solid;text-decoration-color:#000;text-transform:none;text-orientation:mixed;white-space:normal;shape-padding:0;shape-margin:0;inline-size:0;isolation:auto;mix-blend-mode:normal;solid-color:#000;solid-opacity:1" d="M4 3.25C2.49 3.25 1.25 4.49 1.25 6v12c0 1.51 1.24 2.75 2.75 2.75h16c1.51 0 2.75-1.24 2.75-2.75V6c0-1.51-1.24-2.75-2.75-2.75H4zm0 1.5h16c.69 0 1.25.56 1.25 1.25v12c0 .69-.56 1.25-1.25 1.25H4c-.69 0-1.25-.56-1.25-1.25V6c0-.69.56-1.25 1.25-1.25z" color="#000" font-weight="400" font-family="sans-serif" overflow="visible" fill="#000"/><path style="line-height:normal;font-variant-ligatures:normal;font-variant-position:normal;font-variant-caps:normal;font-variant-numeric:normal;font-variant-alternates:normal;font-variant-east-asian:normal;font-feature-settings:normal;font-variation-settings:normal;text-indent:0;text-align:start;text-decoration-line:none;text-decoration-style:solid;text-decoration-color:#000;text-transform:none;text-orientation:mixed;white-space:normal;shape-padding:0;shape-margin:0;inline-size:0;isolation:auto;mix-blend-mode:normal;solid-color:#000;solid-opacity:1" d="M2.021 5.25a.75.75 0 00-.636.32.75.75 0 00.185 1.045l10 7a.75.75 0 00.86 0l10-7a.75.75 0 00.185-1.045.75.75 0 00-1.045-.185L12 12.084l-9.57-6.7a.75.75 0 00-.409-.134z" color="#000" font-weight="400" font-family="sans-serif" overflow="visible" fill="#000"/></svg>