<svg width="1440" height="525" fill="none" xmlns="http://www.w3.org/2000/svg"><path opacity=".15" fill-rule="evenodd" clip-rule="evenodd" d="M134.031 194.524c46.585 73.693 102.273 141.413 193.452 168.97 88.167 26.647 164.429-18.049 246.544-77.261 9.144-6.594 18.373-13.373 27.678-20.208 31.394-23.062 63.651-46.757 96.431-66.093 42.792-25.241 88.589-44.423 138.396-46.12 52.256-1.781 95.947 23.29 133.243 57.891 37.115 34.431 69.945 80.228 100.445 123.558 1.78 2.527 3.55 5.044 5.31 7.55 29.04 41.305 55.93 79.558 83.8 106.914 29.52 28.978 56.28 41.909 84.06 37.066 17.7-3.085 40.09-17.382 65.87-41.109 25.16-23.157 51-52.843 75.72-82.627 7.68-9.249 15.3-18.567 22.74-27.676 16.14-19.746 31.48-38.51 44.89-53.457 9.83-10.954 19.34-20.683 28.05-27.655 4.35-3.488 9.04-6.721 13.91-9.042 4.72-2.247 11.09-4.346 18.24-3.576l-3.97 36.787c1.25.135 2.06-.025 2.31-.091-.11.038-.33.124-.68.288-1.34.642-3.55 2.001-6.69 4.514-6.28 5.031-14.17 12.938-23.63 23.486-12.84 14.303-27.25 31.946-43.05 51.277-7.58 9.265-15.46 18.918-23.65 28.777-24.86 29.946-52.02 61.268-79.13 86.219-26.49 24.38-55.63 45.29-84.58 50.336-45.43 7.92-83.75-15.132-116.33-47.112-30.39-29.833-59.15-70.76-87.45-111.042-2-2.848-4-5.693-6-8.531-30.84-43.814-61.545-86.369-95.349-117.729-33.621-31.191-68.226-49.353-106.819-48.037-41.043 1.398-80.604 17.266-120.857 41.01-31.017 18.295-61.197 40.459-92.29 63.293-9.556 7.018-19.198 14.099-28.977 21.151-81.083 58.467-171.488 115.126-278.89 82.667-104.39-31.55-166.21-108.983-214.022-184.617-11.846-18.739-22.951-37.571-33.603-55.632l-.356-.605c-10.817-18.342-21.14-35.828-31.557-52.129-20.998-32.854-41.299-59.09-64.208-75.93L-5.054.188C23.6 21.25 46.902 52.341 68.416 86.003c10.838 16.958 21.499 35.027 32.251 53.26l.227.385c10.735 18.203 21.597 36.621 33.137 54.876zM1511.23 278.32c0 .002-.02.011-.08.025l.08-.025z" fill="#FFEE92"/></svg>