<svg width="523" height="415" fill="none" xmlns="http://www.w3.org/2000/svg"><path opacity=".2" d="M274.101 377.588c-19.386-25.392-14.516-61.692 10.876-81.077L614.29 45.101c25.393-19.386 61.692-14.516 81.078 10.876 19.385 25.393 14.516 61.692-10.877 81.078l-329.313 251.41c-25.392 19.385-61.692 14.516-81.077-10.877z" fill="#FFCAAC"/><path opacity=".2" d="M36.495 387.115c-20.155-26.402-15.092-64.144 11.31-84.3l348.842-266.32c26.401-20.155 64.144-15.092 84.299 11.31 20.156 26.4 15.093 64.143-11.308 84.299L120.795 398.423c-26.401 20.156-64.144 15.093-84.3-11.308z" fill="#B6F1FF"/></svg>