<svg width="409" height="427" fill="none" xmlns="http://www.w3.org/2000/svg"><path opacity=".2" d="M225.641 366.67c-18.58-24.336-13.913-59.126 10.424-77.705l333.138-254.33c24.336-18.58 59.126-13.912 77.705 10.424s13.912 59.126-10.424 77.705l-333.138 254.33c-24.336 18.579-59.126 13.912-77.705-10.424z" fill="#FFCAAC"/><path opacity=".2" d="M42.666 398.602c-23.248-30.452-17.408-73.983 13.044-97.231L389.885 46.248C420.337 23 463.869 28.84 487.117 59.292c23.248 30.45 17.408 73.983-13.043 97.23L139.897 411.645c-30.451 23.248-73.983 17.408-97.23-13.043z" fill="#B6F1FF"/></svg>