<svg width="483" height="197" fill="none" xmlns="http://www.w3.org/2000/svg"><path opacity=".2" d="M49.845 130.915C22.317 94.856 29.232 43.308 65.291 15.779l219.971-167.934c36.059-27.529 87.607-20.613 115.136 15.446 27.528 36.059 20.613 87.607-15.446 115.136L164.981 146.36c-36.059 27.529-87.607 20.614-115.136-15.445z" fill="#B6F1FF"/><path opacity=".2" d="M199.394 113.43c-21.205-27.775-15.878-67.48 11.896-88.684l169.434-129.352c27.775-21.205 67.48-15.878 88.684 11.896 21.204 27.775 15.878 67.48-11.897 88.684L288.078 125.326c-27.775 21.205-67.48 15.878-88.684-11.896z" fill="#FFEE92"/></svg>