<svg width="1440" height="328" fill="none" xmlns="http://www.w3.org/2000/svg"><path opacity=".3" fill-rule="evenodd" clip-rule="evenodd" d="M167.5 66.996c6.904 0 12.5-5.596 12.5-12.5s-5.596-12.5-12.5-12.5-12.5 5.596-12.5 12.5 5.596 12.5 12.5 12.5zm0 12c13.531 0 24.5-10.969 24.5-24.5 0-13.53-10.969-24.5-24.5-24.5s-24.5 10.97-24.5 24.5c0 13.531 10.969 24.5 24.5 24.5z" fill="#B6F1FF"/><path opacity=".2" fill-rule="evenodd" clip-rule="evenodd" d="M101.5 220.996c9.665 0 17.5-7.835 17.5-17.5s-7.835-17.5-17.5-17.5-17.5 7.835-17.5 17.5 7.835 17.5 17.5 17.5zm0 15c17.949 0 32.5-14.551 32.5-32.5 0-17.949-14.551-32.5-32.5-32.5-17.95 0-32.5 14.551-32.5 32.5 0 17.949 14.55 32.5 32.5 32.5z" fill="#FFCAAC"/><path opacity=".3" fill-rule="evenodd" clip-rule="evenodd" d="M1322.5 158.996c9.66 0 17.5-7.835 17.5-17.5s-7.84-17.5-17.5-17.5-17.5 7.835-17.5 17.5 7.84 17.5 17.5 17.5zm0 15c17.95 0 32.5-14.551 32.5-32.5 0-17.949-14.55-32.5-32.5-32.5s-32.5 14.551-32.5 32.5c0 17.949 14.55 32.5 32.5 32.5z" fill="#FFEE92"/></svg>