<svg width="419" height="253" fill="none" xmlns="http://www.w3.org/2000/svg"><path opacity=".2" d="M179.503 199.135c-15.742-20.619-11.788-50.095 8.832-65.837l135.964-103.8c20.619-15.742 50.096-11.788 65.837 8.832 15.742 20.619 11.788 50.095-8.832 65.837l-135.964 103.8c-20.62 15.742-50.096 11.787-65.837-8.832z" fill="#FFEE92"/><path opacity=".3" d="M33.505 229.693c-18.504-24.238-17.816-55.865 1.537-70.64l98.096-74.89c19.353-14.775 50.043-7.103 68.548 17.135 18.504 24.238 17.816 55.865-1.537 70.64l-98.096 74.89c-19.353 14.775-50.043 7.104-68.547-17.135z" fill="#B6F1FF"/></svg>