<svg width="72" height="72" viewBox="0 0 72 72" fill="none" xmlns="http://www.w3.org/2000/svg">
<g clip-path="url(#clip0_691_7515)">
<g filter="url(#filter0_d_691_7515)">
<circle cx="36" cy="36" r="36" fill="white"/>
</g>
<g clip-path="url(#clip1_691_7515)">
<path d="M66.0824 35.5068C66.0824 35.1474 66.0759 34.7893 66.0633 34.433C65.498 18.5888 52.4755 5.91779 36.4933 5.91779C20.5112 5.91779 7.48868 18.5888 6.92348 34.433C6.91077 34.7893 6.9043 35.1474 6.9043 35.5068C6.9043 51.8484 22.1036 64.0221 36.4933 64.0221C51.1438 64.0221 66.0824 51.8484 66.0824 35.5068Z" fill="#C1C5CB"/>
<path d="M36.4933 62.9483C20.5114 62.9483 7.49122 50.2769 6.9258 34.433C6.91297 34.7897 6.9043 35.1472 6.9043 35.5069C6.9043 51.8484 20.1518 65.0959 36.4933 65.0959C52.8349 65.0959 66.0824 51.8484 66.0824 35.5069C66.0824 35.1472 66.0737 34.7897 66.061 34.4331C65.4955 50.277 52.4752 62.9483 36.4933 62.9483Z" fill="#999EA5"/>
<path d="M61.1608 34.4329C60.5986 21.295 49.7697 10.8163 36.4933 10.8163C23.217 10.8163 12.3881 21.295 11.8259 34.4329C11.8106 34.789 11.8258 58.6267 36.4933 58.6267C61.1609 58.6267 61.176 34.789 61.1608 34.4329V34.4329Z" fill="#DFE2E6"/>
<path d="M36.5664 10.8202C39.5776 10.8202 42.5456 11.2976 45.3087 12.4515L36.5665 35.3158L36.5664 10.8202Z" fill="#F66819"/>
<path d="M36.4932 58.0496C23.2169 58.0496 12.3898 47.5707 11.8274 34.433C11.8121 34.7892 11.8027 35.1468 11.8027 35.5067C11.8027 49.1429 22.857 60.1972 36.4932 60.1972C50.1293 60.1972 61.1836 49.143 61.1836 35.5069C61.1836 35.1469 61.1741 34.7892 61.159 34.4331C60.5966 47.5709 49.7694 58.0496 36.4932 58.0496V58.0496Z" fill="#E4E8ED"/>
<path d="M39.3581 34.4329C38.9233 33.2736 37.8048 32.4484 36.4937 32.4484C35.1825 32.4484 34.064 33.2736 33.6292 34.4329C33.5039 34.767 33.6209 37.4914 36.4937 37.4914C39.3665 37.4914 39.4834 34.767 39.3581 34.4329V34.4329Z" fill="#F66819"/>
<path d="M36.493 36.4176C35.1818 36.4176 34.0638 35.5923 33.629 34.433C33.5036 34.7672 33.4346 35.1288 33.4346 35.5068C33.4346 37.1959 34.8039 38.5651 36.4929 38.5651C38.182 38.5651 39.5512 37.1958 39.5512 35.5068C39.5512 35.1288 39.4822 34.7672 39.3569 34.433C38.9222 35.5922 37.8042 36.4176 36.493 36.4176Z" fill="#D15C1B"/>
</g>
</g>
<defs>
<filter id="filter0_d_691_7515" x="-150" y="-135" width="372" height="372" filterUnits="userSpaceOnUse" color-interpolation-filters="sRGB">
<feFlood flood-opacity="0" result="BackgroundImageFix"/>
<feColorMatrix in="SourceAlpha" type="matrix" values="0 0 0 0 0 0 0 0 0 0 0 0 0 0 0 0 0 0 127 0" result="hardAlpha"/>
<feOffset dy="15"/>
<feGaussianBlur stdDeviation="75"/>
<feComposite in2="hardAlpha" operator="out"/>
<feColorMatrix type="matrix" values="0 0 0 0 0.321126 0 0 0 0 0.247597 0 0 0 0 0.179724 0 0 0 0.08 0"/>
<feBlend mode="normal" in2="BackgroundImageFix" result="effect1_dropShadow_691_7515"/>
<feBlend mode="normal" in="SourceGraphic" in2="effect1_dropShadow_691_7515" result="shape"/>
</filter>
<clipPath id="clip0_691_7515">
<rect width="72" height="72" fill="white"/>
</clipPath>
<clipPath id="clip1_691_7515">
<rect width="59.1781" height="59.1781" fill="white" transform="translate(6.9043 5.91779)"/>
</clipPath>
</defs>
</svg>
