<svg width="72" height="72" viewBox="0 0 72 72" fill="none" xmlns="http://www.w3.org/2000/svg">
<g clip-path="url(#clip0_692_7518)">
<g filter="url(#filter0_d_692_7518)">
<circle cx="36" cy="36" r="36" fill="white"/>
</g>
<g clip-path="url(#clip1_692_7518)">
<path d="M65.0961 35.5068C65.0961 35.1474 65.0896 34.7893 65.077 34.433C64.5117 18.5888 51.4891 5.91779 35.507 5.91779C19.5249 5.91779 6.50235 18.5888 5.93716 34.433C5.92444 34.7893 5.91797 35.1474 5.91797 35.5068C5.91797 51.8484 21.1173 64.0221 35.507 64.0221C50.1575 64.0221 65.0961 51.8484 65.0961 35.5068Z" fill="#C1C5CB"/>
<path d="M35.507 62.9483C19.5251 62.9483 6.5049 50.2769 5.93947 34.433C5.92664 34.7897 5.91797 35.1472 5.91797 35.5069C5.91797 51.8484 19.1654 65.0959 35.507 65.0959C51.8486 65.0959 65.0961 51.8484 65.0961 35.5069C65.0961 35.1472 65.0874 34.7897 65.0747 34.4331C64.5091 50.277 51.4889 62.9483 35.507 62.9483Z" fill="#999EA5"/>
<path d="M60.1745 34.4329C59.6123 21.295 48.7834 10.8163 35.507 10.8163C22.2307 10.8163 11.4018 21.295 10.8396 34.4329C10.8243 34.789 10.8395 58.6267 35.507 58.6267C60.1746 58.6267 60.1897 34.789 60.1745 34.4329Z" fill="#DFE2E6"/>
<path d="M35.5801 10.8202C38.5913 10.8202 41.5593 11.2976 44.3224 12.4515L35.5802 35.3158L35.5801 10.8202Z" fill="#F66819"/>
<path d="M35.5068 58.0496C22.2306 58.0496 11.4034 47.5707 10.841 34.433C10.8258 34.7892 10.8164 35.1468 10.8164 35.5067C10.8164 49.1429 21.8707 60.1972 35.5068 60.1972C49.143 60.1972 60.1973 49.143 60.1973 35.5069C60.1973 35.1469 60.1878 34.7892 60.1727 34.4331C59.6102 47.5709 48.7831 58.0496 35.5068 58.0496Z" fill="#E4E8ED"/>
<path d="M35.5068 10.8493C40.026 10.8493 44.4649 12.0436 48.374 14.3111C52.2831 16.5787 54.9619 19.7483 57.2055 23.6712C59.4491 27.5941 60.192 31.9741 60.1644 36.4931C60.1367 41.0122 58.5106 45.9131 56.2192 49.8082L35.5068 36.4931V10.8493Z" fill="#F56819"/>
<path d="M38.3718 34.4329C37.937 33.2736 36.8185 32.4484 35.5074 32.4484C34.1962 32.4484 33.0777 33.2736 32.6429 34.4329C32.5176 34.767 32.6346 37.4914 35.5074 37.4914C38.3801 37.4914 38.4971 34.767 38.3718 34.4329Z" fill="#F66819"/>
<path d="M35.5067 36.4176C34.1955 36.4176 33.0775 35.5923 32.6427 34.433C32.5172 34.7672 32.4482 35.1288 32.4482 35.5068C32.4482 37.1959 33.8175 38.5651 35.5065 38.5651C37.1957 38.5651 38.5649 37.1958 38.5649 35.5068C38.5649 35.1288 38.4959 34.7672 38.3706 34.433C37.9359 35.5922 36.8178 36.4176 35.5067 36.4176Z" fill="#D15C1B"/>
</g>
</g>
<defs>
<filter id="filter0_d_692_7518" x="-150" y="-135" width="372" height="372" filterUnits="userSpaceOnUse" color-interpolation-filters="sRGB">
<feFlood flood-opacity="0" result="BackgroundImageFix"/>
<feColorMatrix in="SourceAlpha" type="matrix" values="0 0 0 0 0 0 0 0 0 0 0 0 0 0 0 0 0 0 127 0" result="hardAlpha"/>
<feOffset dy="15"/>
<feGaussianBlur stdDeviation="75"/>
<feComposite in2="hardAlpha" operator="out"/>
<feColorMatrix type="matrix" values="0 0 0 0 0.321126 0 0 0 0 0.247597 0 0 0 0 0.179724 0 0 0 0.08 0"/>
<feBlend mode="normal" in2="BackgroundImageFix" result="effect1_dropShadow_692_7518"/>
<feBlend mode="normal" in="SourceGraphic" in2="effect1_dropShadow_692_7518" result="shape"/>
</filter>
<clipPath id="clip0_692_7518">
<rect width="72" height="72" fill="white"/>
</clipPath>
<clipPath id="clip1_692_7518">
<rect width="59.1781" height="59.1781" fill="white" transform="translate(5.91797 5.91779)"/>
</clipPath>
</defs>
</svg>
