<svg width="71" height="71" viewBox="0 0 71 71" fill="none" xmlns="http://www.w3.org/2000/svg">
<g clip-path="url(#clip0_693_7556)">
<g filter="url(#filter0_d_693_7556)">
<circle cx="35.5" cy="35.5" r="35.5" fill="white"/>
</g>
<g clip-path="url(#clip1_693_7556)">
<path d="M64.1921 35.0138C64.1921 34.6593 64.1857 34.3062 64.1733 33.9548C63.6158 18.3308 50.7742 5.83569 35.014 5.83569C19.2539 5.83569 6.4122 18.3308 5.85486 33.9548C5.84232 34.3062 5.83594 34.6593 5.83594 35.0138C5.83594 51.1284 20.8241 63.133 35.014 63.133C49.461 63.133 64.1921 51.1284 64.1921 35.0138Z" fill="#C1C5CB"/>
<path d="M35.014 62.0741C19.2541 62.0741 6.41471 49.5787 5.85714 33.9548C5.84449 34.3066 5.83594 34.6591 5.83594 35.0138C5.83594 51.1284 18.8994 64.1919 35.014 64.1919C51.1286 64.1919 64.1921 51.1284 64.1921 35.0138C64.1921 34.6591 64.1836 34.3066 64.171 33.9549C63.6133 49.5788 50.7739 62.0741 35.014 62.0741Z" fill="#999EA5"/>
<path d="M59.3388 33.9548C58.7845 20.9994 48.106 10.6663 35.014 10.6663C21.9221 10.6663 11.2436 20.9994 10.6892 33.9548C10.6741 34.306 10.6891 57.8126 35.014 57.8126C59.339 57.8126 59.3539 34.306 59.3388 33.9548Z" fill="#DFE2E6"/>
<path d="M35.0859 10.6699C38.0553 10.6699 40.9821 11.1407 43.7068 12.2786L35.086 34.8253L35.0859 10.6699Z" fill="#F66819"/>
<path d="M35.0145 57.2435C21.9227 57.2435 11.2459 46.9101 10.6913 33.9548C10.6762 34.3061 10.667 34.6588 10.667 35.0137C10.667 48.4604 21.5677 59.3612 35.0145 59.3612C48.4613 59.3612 59.362 48.4605 59.362 35.0138C59.362 34.6589 59.3527 34.3061 59.3377 33.9549C58.7831 46.9102 48.1063 57.2435 35.0145 57.2435Z" fill="#E4E8ED"/>
<path d="M35.0143 10.6987C41.6561 10.6987 47.0586 12.3392 51.7897 17.0007C56.5209 21.6621 59.2281 27.9978 59.3266 34.6389C59.4251 41.2799 57.8795 46.7205 53.2886 51.5202C48.6978 56.3199 42.4029 59.1208 35.7641 59.3178C29.1252 59.5147 22.6754 57.0918 17.8081 52.5726C12.9409 48.0534 11.0196 42.7734 10.7243 36.1382C10.4289 29.503 12.7559 23.018 17.2024 18.0843C21.6489 13.1505 26.8854 11.1369 33.5155 10.7432L35.0143 35.9864V10.6987Z" fill="#F56819"/>
<path d="M37.8387 33.9547C37.4099 32.8115 36.307 31.9978 35.014 31.9978C33.7211 31.9978 32.6181 32.8115 32.1893 33.9547C32.0658 34.2842 32.1811 36.9707 35.014 36.9707C37.8469 36.9707 37.9622 34.2842 37.8387 33.9547Z" fill="#F66819"/>
<path d="M35.014 35.9118C33.721 35.9118 32.6185 35.098 32.1898 33.9548C32.0661 34.2843 31.998 34.641 31.998 35.0137C31.998 36.6793 33.3483 38.0295 35.0139 38.0295C36.6795 38.0295 38.0297 36.6792 38.0297 35.0137C38.0297 34.641 37.9617 34.2843 37.8381 33.9548C37.4094 35.0979 36.3069 35.9118 35.014 35.9118Z" fill="#D15C1B"/>
</g>
</g>
<defs>
<filter id="filter0_d_693_7556" x="-150" y="-135" width="371" height="371" filterUnits="userSpaceOnUse" color-interpolation-filters="sRGB">
<feFlood flood-opacity="0" result="BackgroundImageFix"/>
<feColorMatrix in="SourceAlpha" type="matrix" values="0 0 0 0 0 0 0 0 0 0 0 0 0 0 0 0 0 0 127 0" result="hardAlpha"/>
<feOffset dy="15"/>
<feGaussianBlur stdDeviation="75"/>
<feComposite in2="hardAlpha" operator="out"/>
<feColorMatrix type="matrix" values="0 0 0 0 0.321126 0 0 0 0 0.247597 0 0 0 0 0.179724 0 0 0 0.08 0"/>
<feBlend mode="normal" in2="BackgroundImageFix" result="effect1_dropShadow_693_7556"/>
<feBlend mode="normal" in="SourceGraphic" in2="effect1_dropShadow_693_7556" result="shape"/>
</filter>
<clipPath id="clip0_693_7556">
<rect width="71" height="71" fill="white"/>
</clipPath>
<clipPath id="clip1_693_7556">
<rect width="58.3562" height="58.3562" fill="white" transform="translate(5.83594 5.83569)"/>
</clipPath>
</defs>
</svg>
