<svg width="64" height="64" viewBox="0 0 64 64" fill="none" xmlns="http://www.w3.org/2000/svg">
<g clip-path="url(#clip0_898_27185)">
<path d="M55.3762 0H8.6251C3.86222 0 0.000976562 3.86109 0.000976562 8.62413V55.3756C0.000976562 60.1386 3.86207 63.9997 8.6251 63.9997H31.6825L31.7218 41.1297H25.7802C25.008 41.1297 24.3813 40.5053 24.3784 39.7331L24.3499 32.3612C24.3469 31.5848 24.9755 30.9539 25.7519 30.9539H31.6827V23.8307C31.6827 15.5643 36.7313 11.0632 44.1054 11.0632H50.1565C50.9307 11.0632 51.5585 11.6908 51.5585 12.4652V18.6813C51.5585 19.4553 50.9312 20.0828 50.1573 20.0833L46.4438 20.085C42.4335 20.085 41.657 21.9906 41.657 24.7873V30.954H50.469C51.3086 30.954 51.9601 31.6872 51.8611 32.521L50.9874 39.893C50.9038 40.5985 50.3055 41.13 49.5952 41.13H41.6963L41.657 64H55.3765C60.1394 64 64.0005 60.1389 64.0005 55.376V8.62413C64.0003 3.86109 60.1392 0 55.3762 0Z" fill="#475993"/>
</g>
<defs>
<clipPath id="clip0_898_27185">
<rect width="64" height="64" fill="white"/>
</clipPath>
</defs>
</svg>
