<svg xmlns="http://www.w3.org/2000/svg" width="22" height="22" fill="none"><path style="line-height:normal;font-variant-ligatures:normal;font-variant-position:normal;font-variant-caps:normal;font-variant-numeric:normal;font-variant-alternates:normal;font-variant-east-asian:normal;font-feature-settings:normal;font-variation-settings:normal;text-indent:0;text-align:start;text-decoration-line:none;text-decoration-style:solid;text-decoration-color:#000;text-transform:none;text-orientation:mixed;white-space:normal;shape-padding:0;shape-margin:0;inline-size:0;isolation:auto;mix-blend-mode:normal;solid-color:#000;solid-opacity:1" d="M3.11.25a2.754 2.754 0 00-2.03.896 2.75 2.75 0 00-.707 2.102.75.75 0 00.002.012 20.537 20.537 0 003.182 8.992c0 .001 0 .003.002.004l.002.002a20.248 20.248 0 006.22 6.22l.002.002.004.002a20.543 20.543 0 008.951 3.184.75.75 0 00.014.002 2.752 2.752 0 002.998-2.752v-2.977a2.75 2.75 0 00-.65-1.845.75.75 0 000-.002 2.753 2.753 0 00-1.715-.946.75.75 0 00-.006 0c-.903-.119-1.79-.34-2.645-.658h-.002a2.75 2.75 0 00-2.9.62.75.75 0 00-.002.001l-.812.81A15.181 15.181 0 018.08 8.983l.81-.812a.75.75 0 00.003-.002 2.755 2.755 0 00.619-2.9v-.002a12.094 12.094 0 01-.658-2.645.75.75 0 000-.006A2.756 2.756 0 006.104.25H3.109zm0 1.5h3a.75.75 0 00.007 0 1.252 1.252 0 011.25 1.074v-.006c.134 1.016.382 2.015.74 2.975a.75.75 0 000 .002 1.245 1.245 0 01-.28 1.318L6.56 8.38a.75.75 0 00-.123.902 16.748 16.748 0 006.28 6.281.75.75 0 00.903-.12l1.266-1.268a1.253 1.253 0 011.32-.281c.96.358 1.959.606 2.975.74h-.006a1.25 1.25 0 011.074 1.27.75.75 0 000 .017v3a.75.75 0 000 .004 1.25 1.25 0 01-1.354 1.248 19.039 19.039 0 01-8.298-2.951.75.75 0 00-.006-.004 18.752 18.752 0 01-5.77-5.77.75.75 0 00-.002-.006 19.035 19.035 0 01-2.953-8.328v-.002A1.251 1.251 0 013.11 1.75z" color="#000" font-weight="400" font-family="sans-serif" overflow="visible" fill="#000"/></svg>