<svg width="86" height="86" viewBox="0 0 86 86" fill="none" xmlns="http://www.w3.org/2000/svg">
<path d="M51.0625 0C31.7985 0 16.125 15.6722 16.125 34.9375C16.125 36.7126 16.2674 38.5146 16.5496 40.3125H48.375C50.5976 40.3125 52.4062 42.1212 52.4062 44.3438V69.8495C71.0508 69.14 86 53.7513 86 34.9375C86 15.6722 70.3265 0 51.0625 0Z" fill="#FF9C65"/>
<path d="M51.0625 5.375C34.7615 5.375 21.5 18.6365 21.5 34.9375C21.5 36.7207 21.6733 38.5213 22.0093 40.3125H48.375C50.5976 40.3125 52.4062 42.1212 52.4062 44.3438V64.4664C68.0851 63.7596 80.625 50.7884 80.625 34.9375C80.625 18.6365 67.3635 5.375 51.0625 5.375Z" fill="#F56819"/>
<path d="M48.375 40.3125H4.03125C1.80869 40.3125 0 42.1212 0 44.3438V76.5938C0 78.8163 1.80869 80.625 4.03125 80.625H32.9219L36.55 85.4625C36.804 85.8011 37.2017 86 37.625 86C38.0483 86 38.446 85.8011 38.7 85.4625L42.3281 80.625H48.375C50.5976 80.625 52.4062 78.8163 52.4062 76.5938V44.3438C52.4062 42.1212 50.5976 40.3125 48.375 40.3125Z" fill="#FFC09E"/>
<path d="M51.0625 16.125C50.3207 16.125 49.7188 15.5243 49.7188 14.7812V12.0938C49.7188 11.3507 50.3207 10.75 51.0625 10.75C51.8043 10.75 52.4062 11.3507 52.4062 12.0938V14.7812C52.4062 15.5243 51.8043 16.125 51.0625 16.125Z" fill="#FFEE92"/>
<path d="M30.9062 36.2812H28.2188C27.477 36.2812 26.875 35.6806 26.875 34.9375C26.875 34.1944 27.477 33.5938 28.2188 33.5938H30.9062C31.648 33.5938 32.25 34.1944 32.25 34.9375C32.25 35.6806 31.648 36.2812 30.9062 36.2812Z" fill="#FFEE92"/>
<path d="M73.9062 36.2812H71.2188C70.477 36.2812 69.875 35.6806 69.875 34.9375C69.875 34.1944 70.477 33.5938 71.2188 33.5938H73.9062C74.648 33.5938 75.25 34.1944 75.25 34.9375C75.25 35.6806 74.648 36.2812 73.9062 36.2812Z" fill="#FFEE92"/>
<path d="M40.9857 18.8261C40.5208 18.8261 40.0693 18.5842 39.8207 18.1542L38.477 15.8255C38.1061 15.1832 38.3265 14.3608 38.9688 13.99C39.6124 13.6177 40.4335 13.8408 40.8043 14.4818L42.1481 16.8105C42.519 17.4542 42.2986 18.2752 41.6563 18.6461C41.444 18.7683 41.2128 18.8261 40.9857 18.8261Z" fill="#FFEE92"/>
<path d="M61.142 56.0654C60.6771 56.0654 60.2256 55.8235 59.977 55.3935L58.6332 53.0661C58.2623 52.4225 58.4827 51.6015 59.125 51.2306C59.7687 50.8597 60.5884 51.0814 60.9606 51.7224L62.3043 54.0498C62.6752 54.6934 62.4548 55.5145 61.8125 55.8853C61.6002 56.0076 61.3691 56.0654 61.142 56.0654Z" fill="#FFEE92"/>
<path d="M68.5205 26.203C68.0555 26.203 67.604 25.9624 67.3554 25.5311C66.9846 24.8874 67.2036 24.0664 67.8472 23.6955L70.1733 22.3518C70.8156 21.9809 71.6366 22.1999 72.0088 22.8436C72.3797 23.4872 72.1607 24.3083 71.517 24.6791L69.191 26.0229C68.98 26.1452 68.7489 26.203 68.5205 26.203Z" fill="#FFEE92"/>
<path d="M33.6057 26.2033C33.3786 26.2033 33.1475 26.1455 32.9352 26.0232L30.6065 24.6794C29.9642 24.3086 29.7438 23.4862 30.1147 22.8439C30.4855 22.2016 31.3052 21.9799 31.9502 22.3521L34.2789 23.6958C34.9213 24.0667 35.1416 24.8891 34.7708 25.5314C34.5208 25.9614 34.0693 26.2033 33.6057 26.2033Z" fill="#FFEE92"/>
<path d="M69.5016 47.7034C69.2745 47.7034 69.0434 47.6456 68.8311 47.5233L66.5037 46.1796C65.8614 45.8087 65.641 44.9863 66.0119 44.344C66.3828 43.7017 67.2024 43.4786 67.8474 43.8522L70.1748 45.1959C70.8171 45.5668 71.0375 46.3892 70.6666 47.0315C70.4167 47.4615 69.9652 47.7034 69.5016 47.7034Z" fill="#FFEE92"/>
<path d="M61.142 18.8257C60.9149 18.8257 60.6837 18.768 60.4714 18.6457C59.8278 18.2761 59.6087 17.4524 59.9783 16.8101L61.3207 14.4814C61.6916 13.8404 62.5126 13.616 63.1562 13.9896C63.7999 14.3591 64.0203 15.1828 63.6494 15.8251L62.307 18.1539C62.0584 18.5839 61.6069 18.8257 61.142 18.8257Z" fill="#FFEE92"/>
<path d="M51.0625 38.9688C53.2889 38.9688 55.0938 37.1639 55.0938 34.9375C55.0938 32.7111 53.2889 30.9062 51.0625 30.9062C48.8361 30.9062 47.0312 32.7111 47.0312 34.9375C47.0312 37.1639 48.8361 38.9688 51.0625 38.9688Z" fill="#FFCAAC"/>
<path d="M41.6562 48.375C40.1728 48.375 38.9688 49.579 38.9688 51.0625V57.7812H33.5938V51.0625C33.5938 49.579 32.3898 48.375 30.9062 48.375C29.4227 48.375 28.2188 49.579 28.2188 51.0625V60.4688C28.2188 61.9522 29.4227 63.1562 30.9062 63.1562H38.9688V69.875C38.9688 71.3585 40.1728 72.5625 41.6562 72.5625C43.1397 72.5625 44.3438 71.3585 44.3438 69.875V51.0625C44.3438 49.579 43.1397 48.375 41.6562 48.375Z" fill="#FF9C65"/>
<path d="M20.1562 72.5625H10.75C9.2665 72.5625 8.0625 71.3585 8.0625 69.875V60.4688C8.0625 58.9853 9.2665 57.7812 10.75 57.7812H17.4688V53.75H10.75C9.2665 53.75 8.0625 52.546 8.0625 51.0625C8.0625 49.579 9.2665 48.375 10.75 48.375H20.1562C21.6397 48.375 22.8438 49.579 22.8438 51.0625V60.4688C22.8438 61.9522 21.6397 63.1562 20.1562 63.1562H13.4375V67.1875H20.1562C21.6397 67.1875 22.8438 68.3915 22.8438 69.875C22.8438 71.3585 21.6397 72.5625 20.1562 72.5625Z" fill="#FF9C65"/>
<path d="M61.8124 33.5938H54.8464C54.9969 34.017 55.0937 34.4632 55.0937 34.9375C55.0937 35.4118 54.9969 35.858 54.8464 36.2812H61.8124C62.5542 36.2812 63.1562 35.6806 63.1562 34.9375C63.1562 34.1944 62.5542 33.5938 61.8124 33.5938Z" fill="#3891B0"/>
<path d="M51.0625 30.9062C51.5368 30.9062 51.9843 31.003 52.4062 31.1548V20.1562C52.4062 19.4132 51.8043 18.8125 51.0625 18.8125C50.3207 18.8125 49.7188 19.4132 49.7188 20.1562V31.1548C50.1407 31.003 50.5882 30.9062 51.0625 30.9062Z" fill="#3891B0"/>
</svg>
