<svg width="86" height="86" viewBox="0 0 86 86" fill="none" xmlns="http://www.w3.org/2000/svg">
<g clip-path="url(#clip0_850_22136)">
<path d="M36.4314 84.386C34.2795 86.5378 30.7905 86.538 28.6386 84.386L1.61395 57.3613C-0.538067 55.2093 -0.537899 51.7204 1.61395 49.5686L46.1789 5.00361C47.5905 3.59201 49.6554 3.05417 51.5764 3.59805L72.638 9.56111C74.4788 10.0823 75.9176 11.5211 76.4388 13.3619L82.4019 34.4235C82.9458 36.3444 82.4081 38.4092 80.9963 39.821L36.4314 84.386Z" fill="#FF9C65"/>
<path d="M82.4019 34.4235L76.4387 13.3619C75.9175 11.5211 74.4787 10.0823 72.6379 9.56111L51.5765 3.59805C49.6556 3.05416 47.5907 3.59183 46.179 5.00361L45.0398 6.14277C56.779 15.4091 61.1806 36.4044 54.7457 57.8677C53.2069 63.0002 51.1646 67.7683 48.745 72.0724L80.9964 39.821C82.408 38.4094 82.9458 36.3446 82.4019 34.4235Z" fill="#FF9C65"/>
<path d="M76.3854 36.6392L33.2655 79.7591C32.862 80.1626 32.2078 80.1626 31.8043 79.7591L6.24083 54.1956C5.83737 53.7922 5.83737 53.1379 6.24083 52.7345L49.3608 9.61454C49.8018 9.17346 50.4472 9.00532 51.0475 9.1753L70.2112 14.601C70.7865 14.764 71.2362 15.2134 71.3989 15.7887L76.8247 34.9525C76.9946 35.5528 76.8265 36.1979 76.3854 36.6392Z" fill="#F56819"/>
<path d="M49.2547 54.8131L44.8344 54.5312C45.8308 52.8979 45.6603 50.7745 44.2978 49.4121C43.5107 48.625 42.4436 48.2111 41.3004 48.2469C40.1891 48.2816 39.1416 48.7362 38.351 49.5266L36.2801 51.5975C35.7883 52.0893 35.7881 52.8865 36.2796 53.3785L44.0703 61.1744C44.3162 61.4205 44.6387 61.5434 44.9611 61.5434C45.2834 61.5434 45.6059 61.4205 45.8518 61.1744C46.3438 60.6824 46.3438 59.8847 45.8518 59.3929L43.4252 56.9663L49.0941 57.3277C49.1213 57.3294 49.1485 57.3304 49.1754 57.3304C49.8345 57.3304 50.3888 56.8178 50.4315 56.1508C50.4762 55.4561 49.9491 54.8573 49.2547 54.8131ZM40.1328 51.3081C40.4635 50.9774 40.9177 50.7795 41.379 50.765C41.8231 50.7518 42.2262 50.9035 42.5163 51.1935C43.1312 51.8085 43.0788 52.9001 42.4017 53.577C42.1291 53.8496 41.6516 54.3312 41.2238 54.7632L38.9522 52.4887L40.1328 51.3081Z" fill="#FFEE92"/>
<path d="M33.1288 58.3122L34.3985 57.0425C34.8905 56.5506 34.8905 55.7529 34.3985 55.2611C33.9065 54.7691 33.1088 54.7691 32.617 55.2611L28.3133 59.5648C27.8213 60.0568 27.8213 60.8544 28.3133 61.3462C28.5592 61.5922 28.8817 61.7153 29.2041 61.7153C29.5264 61.7153 29.8489 61.5923 30.0948 61.3462L31.3472 60.0939L38.2492 66.9959C38.4951 67.2418 38.8176 67.3649 39.1399 67.3649C39.4623 67.3649 39.7848 67.242 40.0307 66.9959C40.5226 66.5039 40.5226 65.7062 40.0307 65.2144L33.1288 58.3122Z" fill="#FFEE92"/>
<path d="M45.9254 43.734C45.4336 43.2419 44.6359 43.2421 44.1439 43.734C43.6519 44.226 43.6519 45.0237 44.1439 45.5155L51.9366 53.3084C52.1825 53.5545 52.505 53.6775 52.8274 53.6775C53.1497 53.6775 53.4722 53.5545 53.7181 53.3084C54.2101 52.8165 54.2101 52.0188 53.7181 51.527L45.9254 43.734Z" fill="#FFEE92"/>
<path d="M63.1519 41.4642L52.569 36.6804C52.5578 36.6752 52.5463 36.6704 52.5349 36.6657C51.9672 36.4288 51.3197 36.5572 50.8853 36.9927C50.4509 37.4282 50.3241 38.0759 50.5621 38.6432C50.566 38.6526 50.57 38.6618 50.5742 38.671L55.3311 49.2803C55.5407 49.7477 56.0001 50.0251 56.4813 50.0251C56.6535 50.0251 56.8287 49.9896 56.996 49.9145C57.6309 49.6298 57.9148 48.8844 57.6301 48.2496L56.8007 46.3996L60.2724 42.9279L62.1142 43.7605C62.7483 44.0476 63.4945 43.7655 63.7809 43.1315C64.0675 42.497 63.786 41.7507 63.1519 41.4642ZM55.6974 43.939L53.9657 40.0766L57.8184 41.8181L55.6974 43.939Z" fill="#FFEE92"/>
<path d="M69.8987 35.3331C69.4067 34.8411 68.6091 34.8411 68.1172 35.3331L66.2793 37.171L59.3839 30.2755C58.8919 29.7835 58.0942 29.7835 57.6024 30.2755C57.1104 30.7675 57.1104 31.5652 57.6024 32.057L65.3886 39.8432C65.6345 40.0891 65.957 40.2122 66.2793 40.2122C66.6017 40.2122 66.9242 40.0893 67.1701 39.8432L69.8989 37.1144C70.3907 36.6227 70.3907 35.825 69.8987 35.3331Z" fill="#FFEE92"/>
<path d="M18.9072 57.2877L20.924 55.2709C21.416 54.779 21.416 53.9813 20.924 53.4895C20.432 52.9975 19.6344 52.9975 19.1425 53.4895L17.1257 55.5063L15.0847 53.4653L17.3523 51.1977C17.8443 50.7057 17.8443 49.908 17.3523 49.4162C16.8603 48.9242 16.0627 48.9242 15.5708 49.4162L12.4122 52.5744C11.9202 53.0664 11.9202 53.864 12.4122 54.3558L20.2051 62.1488C20.451 62.3947 20.7735 62.5178 21.0958 62.5178C21.4182 62.5178 21.7407 62.3948 21.9866 62.1488C22.4786 61.6568 22.4786 60.8591 21.9866 60.3673L18.9072 57.2877Z" fill="#FFEE92"/>
<path d="M31.176 43.3843C31.1762 43.3844 31.1764 43.3846 31.1764 43.3848C31.1764 43.3849 31.1767 43.3851 31.1769 43.3851L35.0729 47.281C35.3188 47.5269 35.6413 47.65 35.9636 47.65C36.286 47.65 36.6085 47.527 36.8544 47.281L40.1378 43.9975C40.6298 43.5055 40.6298 42.7079 40.1378 42.216C39.6459 41.7241 38.8482 41.7241 38.3564 42.216L35.9636 44.6088L33.8487 42.4939L35.9994 40.3432C36.4914 39.8512 36.4914 39.0535 35.9994 38.5617C35.5074 38.0697 34.7098 38.0697 34.2179 38.5617L32.0673 40.7124L29.9524 38.5975L32.3453 36.2046C32.8372 35.7126 32.8372 34.9149 32.3453 34.4231C31.8533 33.9311 31.0556 33.9311 30.5638 34.4231L27.2802 37.7067C27.0438 37.9429 26.9111 38.2634 26.9111 38.5975C26.9111 38.9316 27.0438 39.2521 27.2802 39.4882L31.176 43.3843Z" fill="#FFEE92"/>
<path d="M38.1125 36.4478C38.1127 36.448 38.1129 36.4481 38.1129 36.4483C38.1129 36.4485 38.1132 36.4486 38.1134 36.4486L42.0094 40.3445C42.2553 40.5904 42.5778 40.7135 42.9002 40.7135C43.2225 40.7135 43.545 40.5906 43.7909 40.3445L47.0744 37.061C47.5663 36.5691 47.5663 35.7714 47.0744 35.2796C46.5824 34.7876 45.7847 34.7876 45.2929 35.2796L42.9002 37.6723L40.7853 35.5574L42.9359 33.4067C43.4279 32.9147 43.4279 32.1171 42.9359 31.6252C42.444 31.1333 41.6463 31.1333 41.1545 31.6252L39.0038 33.7759L36.8889 31.661L39.2818 29.2681C39.7738 28.7762 39.7738 27.9785 39.2818 27.4867C38.7898 26.9947 37.9921 26.9947 37.5003 27.4867L34.2167 30.7703C33.9804 31.0064 33.8477 31.3269 33.8477 31.661C33.8477 31.9951 33.9804 32.3156 34.2167 32.5518L38.1125 36.4478Z" fill="#FFEE92"/>
<path d="M28.988 55.1472C29.4799 54.6552 29.4799 53.8575 28.988 53.3657L26.5613 50.939L32.2303 51.3005C32.2575 51.3022 32.2847 51.3032 32.3116 51.3032C32.9707 51.3032 33.525 50.7906 33.5676 50.1235C33.612 49.4292 33.0849 48.8305 32.3905 48.7862L27.9691 48.5043C28.3562 47.8674 28.5751 47.1399 28.5988 46.3826C28.6344 45.2368 28.2207 44.1722 27.4336 43.3851C26.6465 42.598 25.5802 42.1847 24.4364 42.2199C23.3251 42.2546 22.2776 42.7091 21.487 43.4997L19.4161 45.5706C18.9243 46.0624 18.9241 46.8596 19.4156 47.3516L27.2065 55.1475C27.4524 55.3934 27.7749 55.5165 28.0972 55.5165C28.4196 55.5165 28.7421 55.3932 28.988 55.1472ZM23.2685 45.2812C23.5992 44.9504 24.0534 44.7526 24.5146 44.7381C24.9572 44.7237 25.3619 44.8765 25.6519 45.1666C25.942 45.4567 26.0942 45.8607 26.0804 46.3039C26.0662 46.7652 25.8681 47.2194 25.5374 47.5501C25.2648 47.8227 24.7872 48.3041 24.3594 48.7363L22.0878 46.4618L23.2685 45.2812Z" fill="#FFEE92"/>
<path d="M86 9.54432C86 12.0944 85.0079 14.4913 83.2044 16.2931C82.018 17.4778 80.3848 18.5382 78.3477 19.4417C78.2915 19.4672 78.2369 19.4911 78.1806 19.5149C72.3234 22.0719 65.007 22.6533 64.6951 22.6771C64.6626 22.6788 64.6285 22.6805 64.5961 22.6805C63.9347 22.6805 63.3738 22.169 63.3228 21.4992C63.2698 20.7952 63.7966 20.1798 64.5007 20.1269C64.574 20.1218 71.8359 19.5405 77.3095 17.1044C77.3658 17.0789 77.4221 17.055 77.4766 17.0293C79.1456 16.2725 80.465 15.4167 81.3957 14.4843C82.7168 13.1649 83.4431 11.4108 83.4431 9.54415C83.4431 7.67752 82.7169 5.92342 81.3957 4.60402C80.0763 3.28295 78.3222 2.55665 76.4556 2.55665C74.5889 2.55665 72.8348 3.28278 71.5154 4.60402C70.583 5.53474 69.7272 6.85413 68.9704 8.52307L66.4833 7.81911L66.5617 7.64359C67.4618 5.61503 68.5221 3.98204 69.7067 2.7955C71.5087 0.992191 73.9055 0 76.4557 0C79.0058 0 81.4027 0.992191 83.2045 2.79567C85.0079 4.59747 86 6.99422 86 9.54432Z" fill="#3891B0"/>
<path d="M64.5983 27.8844C62.8682 27.8844 61.2408 27.2097 60.0156 25.9847C58.7905 24.7594 58.1157 23.1319 58.1157 21.4018C58.1157 20.7061 58.6798 20.1421 59.3755 20.1421C60.0712 20.1421 60.6353 20.7061 60.6353 21.4018C60.6353 22.4589 61.048 23.4537 61.7971 24.203C62.5462 24.9522 63.5411 25.3649 64.5981 25.3649C65.2939 25.3649 65.8579 25.9289 65.8579 26.6247C65.8579 27.3204 65.294 27.8844 64.5983 27.8844Z" fill="#FFCAAC"/>
</g>
<defs>
<clipPath id="clip0_850_22136">
<rect width="86" height="86" fill="white"/>
</clipPath>
</defs>
</svg>
