<svg width="86" height="86" viewBox="0 0 86 86" fill="none" xmlns="http://www.w3.org/2000/svg">
<g clip-path="url(#clip0_850_22115)">
<path d="M51.6295 57.0347L59.21 52.9142L72.3991 77.1783C72.7958 77.9081 72.2803 78.7994 71.4499 78.8195L64.1439 78.9964C63.7865 79.0051 63.4551 79.1852 63.2533 79.4805L59.1315 85.5154C58.6631 86.2014 57.6348 86.1493 57.238 85.4194L44.049 61.1553L51.6295 57.0347Z" fill="#FFEE92"/>
<path d="M34.3704 57.0347L26.79 52.9142L13.6009 77.1783C13.2042 77.9081 13.7197 78.7994 14.5501 78.8195L21.8561 78.9964C22.2135 79.0051 22.5449 79.1852 22.7467 79.4805L26.8684 85.5154C27.3369 86.2014 28.3652 86.1493 28.7619 85.4194L41.951 61.1553L34.3704 57.0347Z" fill="#FFEE92"/>
<path d="M71.4497 78.8199L68.8757 78.882L55.7747 54.7823L59.2101 52.9144L72.3994 77.178C72.7963 77.9083 72.2801 78.7992 71.4497 78.8199Z" fill="#FFDD76"/>
<path d="M41.9503 61.1543L28.7612 85.4198C28.3658 86.1499 27.337 86.2018 26.8692 85.5147L25.2827 83.191C25.3655 83.1132 25.4364 83.0202 25.495 82.913L38.3769 59.2123L41.9503 61.1543Z" fill="#FFDD76"/>
<path d="M76.7384 33.7385C76.7384 36.6355 73.6424 39.087 72.9282 41.7591C72.1893 44.5236 73.6231 48.1906 72.2226 50.6112C70.8021 53.0665 66.8961 53.6496 64.9035 55.6423C62.9109 57.635 62.3277 61.5409 59.8723 62.9614C57.4519 64.3618 53.785 62.928 51.0204 63.6669C48.3485 64.3811 45.897 67.4771 42.9999 67.4771C40.1029 67.4771 37.6514 64.3811 34.9794 63.6669C32.2148 62.928 28.5479 64.3618 26.1273 62.9612C23.6719 61.5407 23.0889 57.6348 21.0961 55.642C19.1035 53.6494 15.1975 53.0662 13.777 50.6108C12.3767 48.1904 13.8104 44.5235 13.0716 41.7589C12.3574 39.087 9.26135 36.6355 9.26135 33.7384C9.26135 30.8414 12.3574 28.3899 13.0716 25.7179C13.8104 22.9533 12.3767 19.2863 13.7772 16.8657C15.1977 14.4104 19.1036 13.8274 21.0964 11.8346C23.089 9.84196 23.6722 5.93602 26.1276 4.5155C28.548 3.11515 32.215 4.54893 34.9796 3.81004C37.6513 3.096 40.1028 0 42.9999 0C45.8968 0 48.3484 3.096 51.0204 3.8102C53.785 4.5491 57.4519 3.11532 59.8725 4.51584C62.3279 5.93635 62.9109 9.8423 64.9037 11.8351C66.8963 13.8277 70.8022 14.4109 72.2228 16.8662C73.6231 19.2867 72.1893 22.9536 72.9284 25.7182C73.6423 28.3899 76.7384 30.8414 76.7384 33.7385Z" fill="#F56819"/>
<path d="M72.9275 41.7591C72.1887 44.523 73.6233 48.1915 72.2232 50.6117C70.8026 53.0666 66.8958 53.6501 64.9037 55.6422C62.9116 57.6343 62.328 61.5411 59.8732 62.9618C57.4511 64.3618 53.7845 62.9272 51.0206 63.6661C48.3482 64.3808 45.8969 67.4761 43.0001 67.4761C41.5811 67.4761 40.2691 66.7339 38.9865 65.893C39.6652 66.338 41.9657 65.2032 42.6015 64.9065C44.3232 64.1031 45.8365 62.9457 47.461 61.9741C49.1027 60.9925 51.0071 60.413 52.9166 60.3255C54.7431 60.2419 56.6447 60.3663 58.2921 59.4129C59.4837 58.7233 60.0158 57.528 60.4765 56.2936C61.1681 54.4416 62.155 53.1544 63.7272 51.9813C65.1225 50.9401 67.0817 50.652 68.0195 49.0318C68.9237 47.4697 68.8365 45.2624 68.7604 43.5181C68.7191 42.5706 68.6249 41.6173 68.7517 40.6774C69.1316 37.86 71.8384 36.068 72.2891 33.297C72.6042 31.3565 71.1911 30.0686 70.2128 28.6354C68.967 26.8102 68.5237 24.2008 68.4774 22.0512C68.4303 19.8781 68.0835 17.5839 66.0744 16.3464C65.1728 15.7911 64.1005 15.7375 63.3056 14.9513C60.2163 11.8958 59.6508 7.09202 56.7898 3.87089C57.9153 3.86736 58.9788 3.99871 59.873 4.51488C62.3279 5.93573 62.9114 9.84235 64.9035 11.8345C66.8956 13.8266 70.8024 14.4101 72.2231 16.8649C73.6231 19.2852 72.1885 22.9536 72.9274 25.7176C73.6421 28.39 76.7374 30.8413 76.7374 33.7381C76.7376 36.6354 73.6423 39.0867 72.9275 41.7591Z" fill="#F56819"/>
<path d="M42.9996 59.2939C57.1134 59.2939 68.5549 47.8524 68.5549 33.7387C68.5549 19.6249 57.1134 8.18338 42.9996 8.18338C28.8858 8.18338 17.4443 19.6249 17.4443 33.7387C17.4443 47.8524 28.8858 59.2939 42.9996 59.2939Z" fill="white"/>
<path d="M68.5548 33.7385C68.5548 47.853 57.1145 59.2935 42.9999 59.2935C37.9659 59.2935 33.272 57.8382 29.317 55.3264C32.6057 56.8663 36.2741 57.726 40.1446 57.726C54.259 57.726 65.6995 46.2856 65.6995 32.1711C65.6995 23.0905 60.9642 15.1167 53.8275 10.5834C62.5281 14.6591 68.5548 23.4945 68.5548 33.7385Z" fill="#E4E8ED"/>
<path d="M28.4498 20.4975C29.0662 20.1392 29.661 19.96 30.2343 19.96C30.8077 19.96 31.2663 20.132 31.6103 20.476C31.9687 20.82 32.1478 21.2859 32.1478 21.8735V33.376C32.1478 34.0067 31.9615 34.494 31.5888 34.838C31.2162 35.1677 30.736 35.3325 30.1483 35.3325C29.575 35.3325 29.102 35.1677 28.7293 34.838C28.371 34.494 28.1918 34.0067 28.1918 33.376V24.303L26.4503 25.3135C26.2067 25.4569 25.9558 25.5285 25.6978 25.5285C25.2965 25.5285 24.9525 25.3565 24.6658 25.0125C24.3792 24.6685 24.2358 24.2744 24.2358 23.83C24.2358 23.572 24.3003 23.3284 24.4293 23.099C24.5583 22.8554 24.7518 22.6547 25.0098 22.497L28.4498 20.4975Z" fill="#7C6D61"/>
<path d="M43.5774 25.2275C44.4374 25.2275 45.2114 25.4425 45.8994 25.8725C46.5874 26.2882 47.1249 26.8759 47.5119 27.6355C47.9133 28.3809 48.1139 29.2265 48.1139 30.1725C48.1139 31.1759 47.8846 32.0789 47.4259 32.8815C46.9816 33.6699 46.3581 34.2862 45.5554 34.7305C44.7528 35.1749 43.8426 35.397 42.8249 35.397C40.8039 35.397 39.2416 34.7377 38.1379 33.419C37.0343 32.1004 36.4824 30.2227 36.4824 27.786C36.4824 26.1807 36.7404 24.7832 37.2564 23.5935C37.7868 22.3895 38.5249 21.465 39.4709 20.82C40.4313 20.175 41.5493 19.8525 42.8249 19.8525C43.6276 19.8525 44.4446 19.9815 45.2759 20.2395C46.1216 20.4975 46.8454 20.8559 47.4474 21.3145C47.6911 21.5009 47.8631 21.6944 47.9634 21.895C48.0781 22.0957 48.1354 22.3465 48.1354 22.6475C48.1354 23.0919 48.0064 23.4717 47.7484 23.787C47.5048 24.088 47.2038 24.2385 46.8454 24.2385C46.6448 24.2385 46.4656 24.2099 46.3079 24.1525C46.1503 24.0809 45.9353 23.9734 45.6629 23.83L45.1899 23.5935C44.7169 23.3642 44.3228 23.1922 44.0074 23.0775C43.6921 22.9629 43.3624 22.9055 43.0184 22.9055C42.2874 22.9055 41.6926 23.2424 41.2339 23.916C40.7896 24.5754 40.5244 25.507 40.4384 26.711C40.7681 26.2524 41.2053 25.894 41.7499 25.636C42.3089 25.3637 42.9181 25.2275 43.5774 25.2275ZM42.5884 32.3655C43.1474 32.3655 43.5918 32.1792 43.9214 31.8065C44.2511 31.4339 44.4159 30.9394 44.4159 30.323C44.4159 29.6924 44.2511 29.1979 43.9214 28.8395C43.6061 28.4669 43.1618 28.2805 42.5884 28.2805C42.0294 28.2805 41.5779 28.4669 41.2339 28.8395C40.9043 29.2122 40.7394 29.7067 40.7394 30.323C40.7394 30.925 40.9114 31.4195 41.2554 31.8065C41.5994 32.1792 42.0438 32.3655 42.5884 32.3655Z" fill="#7C6D61"/>
<path d="M55.179 35.397C53.3014 35.397 51.868 34.7305 50.879 33.3975C49.89 32.0645 49.3955 30.1367 49.3955 27.614C49.3955 25.1057 49.89 23.185 50.879 21.852C51.868 20.519 53.3014 19.8525 55.179 19.8525C57.0424 19.8525 58.4685 20.519 59.4575 21.852C60.4609 23.185 60.9625 25.1057 60.9625 27.614C60.9625 30.1367 60.468 32.0645 59.479 33.3975C58.49 34.7305 57.0567 35.397 55.179 35.397ZM55.179 32.4085C55.867 32.4085 56.3615 32.0359 56.6625 31.2905C56.9635 30.5452 57.114 29.3197 57.114 27.614C57.114 25.9227 56.9635 24.7044 56.6625 23.959C56.3615 23.2137 55.867 22.841 55.179 22.841C54.491 22.841 53.9965 23.2137 53.6955 23.959C53.3945 24.69 53.244 25.9084 53.244 27.614C53.244 29.3197 53.3945 30.5452 53.6955 31.2905C53.9965 32.0359 54.491 32.4085 55.179 32.4085Z" fill="#7C6D61"/>
<path d="M46.2649 43.5097C46.6233 43.5097 46.9243 43.6315 47.1679 43.8752C47.4116 44.1189 47.5334 44.4199 47.5334 44.7782C47.5334 45.1365 47.4116 45.4447 47.1679 45.7027C46.9243 45.9464 46.6233 46.0682 46.2649 46.0682H43.5559V48.7557C43.5559 49.114 43.4341 49.415 43.1904 49.6587C42.9611 49.9024 42.6601 50.0242 42.2874 50.0242C41.9291 50.0242 41.6281 49.9024 41.3844 49.6587C41.1408 49.415 41.0189 49.114 41.0189 48.7557V46.0682H38.3099C37.9516 46.0682 37.6506 45.9464 37.4069 45.7027C37.1633 45.4447 37.0414 45.1365 37.0414 44.7782C37.0414 44.4199 37.1633 44.1189 37.4069 43.8752C37.6506 43.6315 37.9516 43.5097 38.3099 43.5097H41.0189V40.8007C41.0189 40.4424 41.1408 40.1414 41.3844 39.8977C41.6281 39.654 41.9291 39.5322 42.2874 39.5322C42.6458 39.5322 42.9468 39.654 43.1904 39.8977C43.4341 40.1414 43.5559 40.4424 43.5559 40.8007V43.5097H46.2649Z" fill="#7C6D61"/>
</g>
<defs>
<clipPath id="clip0_850_22115">
<rect width="86" height="86" fill="white"/>
</clipPath>
</defs>
</svg>
