<svg width="86" height="86" viewBox="0 0 86 86" fill="none" xmlns="http://www.w3.org/2000/svg">
<path d="M85 76H46V74.4175C46 74.4175 46 73.3573 46 70.7304C46 68.0876 47.365 67.0923 50.0625 66.1096C51.3934 65.6174 58.8521 63 58.8521 63L63.9075 64.9211L65.5309 63.3545L68.7809 66.5052L72.2746 63C72.2746 63 79.6034 65.6174 80.9359 66.1096C83.6496 67.0923 84.9984 68.0876 84.9984 70.7304C84.9984 73.3573 84.9984 74.4175 84.9984 74.4175V76H85Z" fill="#F56819"/>
<path d="M68 76H63L63.8986 67H67.0996L68 76Z" fill="#FFEDE3"/>
<path d="M67.1014 67H63.9004L63 65H68L67.1014 67Z" fill="#FFCAAC"/>
<path d="M82.3114 55.767C82.3114 56.506 81.7067 57.1107 80.9677 57.1107H4.3739C3.63484 57.1107 3.03015 56.506 3.03015 55.767V11.4219C3.03015 10.6828 3.63484 10.0781 4.3739 10.0781H80.9677C81.7067 10.0781 82.3114 10.6828 82.3114 11.4219V55.767Z" fill="#3B4857"/>
<path d="M26.5431 45.6821C19.135 45.6821 13.1083 39.6554 13.1083 32.2473C13.1083 24.8392 19.135 18.8125 26.5431 18.8125C33.9512 18.8125 39.9766 24.8392 39.9766 32.2473C39.9766 39.6554 33.9512 45.6821 26.5431 45.6821ZM26.5431 20.1562C19.8754 20.1562 14.452 25.5796 14.452 32.2473C14.452 38.915 19.8754 44.3384 26.5431 44.3384C33.2094 44.3384 38.6328 38.915 38.6328 32.2473C38.6328 25.5796 33.2094 20.1562 26.5431 20.1562Z" fill="#E6E9ED"/>
<path d="M14.6079 44.8624C14.4359 44.8624 14.2639 44.7966 14.1322 44.6662C13.8702 44.4042 13.8702 43.9782 14.1322 43.7162L16.0323 41.8161C16.2943 41.5541 16.7203 41.5541 16.9823 41.8161C17.2443 42.0782 17.2443 42.5041 16.9823 42.7662L15.0822 44.6662C14.9519 44.7966 14.7799 44.8624 14.6079 44.8624ZM18.408 41.0623C18.236 41.0623 18.064 40.9964 17.9323 40.8661C17.6703 40.6041 17.6703 40.1781 17.9323 39.9161L19.8324 38.0147C20.0944 37.7526 20.5204 37.7526 20.7824 38.0147C21.0444 38.2767 21.0444 38.7027 20.7824 38.9647L18.8823 40.8661C18.752 40.9964 18.58 41.0623 18.408 41.0623ZM22.2081 37.2608C22.0361 37.2608 21.8641 37.195 21.7324 37.0646C21.4704 36.8026 21.4704 36.3766 21.7324 36.1146L23.6325 34.2145C23.8945 33.9525 24.3205 33.9525 24.5825 34.2145C24.8446 34.4766 24.8446 34.9025 24.5825 35.1646L22.6825 37.0646C22.5521 37.195 22.3801 37.2608 22.2081 37.2608ZM26.0083 33.4593C25.8363 33.4593 25.6643 33.3935 25.5326 33.2632C25.2705 33.0011 25.2705 32.5752 25.5326 32.3131L27.434 30.4117C27.696 30.1497 28.122 30.1497 28.384 30.4117C28.646 30.6737 28.646 31.0997 28.384 31.3617L26.4826 33.2632C26.3523 33.3948 26.1803 33.4593 26.0083 33.4593ZM29.8111 29.6579C29.6391 29.6579 29.4671 29.592 29.3354 29.4617C29.0733 29.1997 29.0733 28.7737 29.3354 28.5117L31.2354 26.6116C31.4975 26.3496 31.9234 26.3496 32.1855 26.6116C32.4475 26.8736 32.4475 27.2996 32.1855 27.5616L30.2854 29.4617C30.1537 29.592 29.9831 29.6579 29.8111 29.6579ZM33.6112 25.8577C33.4392 25.8577 33.2672 25.7919 33.1355 25.6616C32.8735 25.3995 32.8735 24.9736 33.1355 24.7115L35.0356 22.8101C35.2976 22.5481 35.7236 22.5481 35.9856 22.8101C36.2476 23.0722 36.2476 23.4981 35.9856 23.7602L34.0855 25.6616C33.9552 25.7919 33.7832 25.8577 33.6112 25.8577ZM37.4113 22.0563C37.2393 22.0563 37.0673 21.9904 36.9356 21.8601C36.6736 21.5981 36.6736 21.1721 36.9356 20.9101L38.8357 19.01C39.0977 18.748 39.5237 18.748 39.7857 19.01C40.0478 19.272 40.0478 19.698 39.7857 19.96L37.8857 21.8601C37.7553 21.9904 37.5833 22.0563 37.4113 22.0563Z" fill="#F5F7FA"/>
<path d="M71.5614 24.1875H47.3739C47.003 24.1875 46.702 23.8865 46.702 23.5156C46.702 23.1447 47.003 22.8438 47.3739 22.8438H71.5614C71.9323 22.8438 72.2333 23.1447 72.2333 23.5156C72.2333 23.8865 71.9323 24.1875 71.5614 24.1875ZM71.5614 29.5625H47.3739C47.003 29.5625 46.702 29.2615 46.702 28.8906C46.702 28.5198 47.003 28.2188 47.3739 28.2188H71.5614C71.9323 28.2188 72.2333 28.5198 72.2333 28.8906C72.2333 29.2615 71.9323 29.5625 71.5614 29.5625ZM71.5614 34.9375H47.3739C47.003 34.9375 46.702 34.6365 46.702 34.2656C46.702 33.8947 47.003 33.5938 47.3739 33.5938H71.5614C71.9323 33.5938 72.2333 33.8947 72.2333 34.2656C72.2333 34.6365 71.9323 34.9375 71.5614 34.9375ZM59.3897 40.3125H47.3739C47.003 40.3125 46.702 40.0115 46.702 39.6406C46.702 39.2698 47.003 38.9688 47.3739 38.9688H59.3897C59.7606 38.9688 60.0616 39.2698 60.0616 39.6406C60.0616 40.0115 59.7619 40.3125 59.3897 40.3125Z" fill="#E6E9ED"/>
<path d="M82.3114 55.7656H3.03015L1.01453 57.108H84.327L82.3114 55.7656Z" fill="#FF9C65"/>
<path d="M84.327 57.108H1.01453V59.7955H84.327V57.108Z" fill="#F08347"/>
<path d="M66 65.3723L69.4063 67L73 63.5L72.5 59L66 63.0009V65.3723Z" fill="#FF9C65"/>
<path d="M66 65.3723L62.0684 67L58 63.5L58.5 59L66 62.798V65.3723Z" fill="#FF9C65"/>
<path d="M77 48.4082C77 55.9989 69.8982 63 65.5164 63C61.1543 63 54.0328 55.9989 54.0328 48.4082V46.7942L54 46.7782L57.2646 42C57.2646 42 61.2658 43.5981 65.5148 43.5981C69.7817 43.5981 73.6698 42 73.6698 42L76.9508 46.7942H76.9984V48.4082H77Z" fill="#FFCCAA"/>
<path d="M55.5 44C54.5 44 54.0031 45.762 54 46.5L54.5 52C57 60 62.5 62.5 65 63C60.5 60 55.9369 56.5 55.5 50.5L55.643 46.0302C55.6441 45.7165 55.643 45.5603 55.643 45L55.5 44Z" fill="#FFB889"/>
<path d="M71.8336 37.0355C71.8336 37.0355 78 36 77 47L73.4993 41.9936C73.4993 41.9936 69.6667 43.6624 65.4605 43.6624C61.2721 43.6624 57.3279 41.9936 57.3279 41.9936L54.1099 46.9833L54 47C53 28.5 73.5155 32.2961 73.5155 32.2961C70.3766 33.6161 71.8336 37.0355 71.8336 37.0355Z" fill="#656D78"/>
<path d="M79 49.4981C79 50.8469 77.9256 52 76.5609 52C76.3709 52 76.1839 51.9688 76 51.923C76.0001 51.9182 76.0025 51.9141 76.0025 51.9093V47.0683C76.1852 47.0242 76.3726 47 76.5609 47C77.9256 47 79 48.1493 79 49.4981Z" fill="#FFCCAA"/>
<path d="M52 49.5019C52 48.1531 53.0744 47 54.4391 47C54.6291 47 54.8161 47.0312 55 47.077C54.9999 47.0818 54.9975 47.0859 54.9975 47.0907L54.9975 51.9317C54.8148 51.9758 54.6274 52 54.4391 52C53.0744 52 52 50.8507 52 49.5019Z" fill="#FFB889"/>
</svg>
