<svg width="80" height="80" viewBox="0 0 80 80" fill="none" xmlns="http://www.w3.org/2000/svg">
<path d="M21.5628 79.9997H0.000488281V71.0934C0.000488281 70.4894 0.490176 69.9997 1.09424 69.9997H21.5628V79.9997Z" fill="#FF9C65"/>
<path d="M3.2195 69.9992V80H0.00012207V71.093C0.00012207 70.4889 0.48981 69.9992 1.09387 69.9992H3.2195Z" fill="#F56819"/>
<path d="M41.5626 79.9997H20.0002V61.0936C20.0002 60.4895 20.4899 59.9998 21.094 59.9998H41.5626V79.9997Z" fill="#FFEE92"/>
<path d="M23.2195 60V80H20.0001V61.0938C20.0001 60.4897 20.4898 60 21.0939 60H23.2195Z" fill="#FEDB75"/>
<path d="M61.5625 79.9997H40.0001V51.0936C40.0001 50.4895 40.4898 49.9998 41.0939 49.9998H61.5625V79.9997Z" fill="#FF9C65"/>
<path d="M43.2195 49.9992V80H40.0001V51.093C40.0001 50.4889 40.4898 49.9992 41.0939 49.9992H43.2195Z" fill="#F56819"/>
<path d="M37.044 25.0001H53.851C54.4551 25.0001 54.9447 24.5105 54.9447 23.9064V10.0003H37.044C36.1704 10.0003 35.6493 10.9739 36.134 11.7008L40.0002 17.5003L36.134 23.2998C35.6493 24.0266 36.1704 25.0001 37.044 25.0001Z" fill="#F26674"/>
<path d="M43.2195 17.5002L38.22 24.9995H37.0443C36.1707 24.9995 35.6496 24.0259 36.1343 23.2991L40.0003 17.5002L36.1343 11.7013C35.6498 10.9744 36.1707 10.0008 37.0443 10.0008H38.22L43.2195 17.5002Z" fill="#DB5669"/>
<path d="M51.0939 20.0001H69.0625V5.00031H51.0939C50.4898 5.00031 50.0001 5.48999 50.0001 6.09406V18.9064C50.0001 19.5105 50.4898 20.0001 51.0939 20.0001Z" fill="#F26674"/>
<path d="M53.2188 4.99951V20H51.0931C50.4891 20 49.9994 19.5103 49.9994 18.9062V6.09326C49.9994 5.4892 50.4891 4.99951 51.0931 4.99951H53.2188Z" fill="#DB5669"/>
<path d="M72.4998 41.5753H67.4998V1.09406C67.4998 0.489993 67.9894 0.000305176 68.5935 0.000305176H71.406C72.0101 0.000305176 72.4998 0.489993 72.4998 1.09406V41.5753Z" fill="#C1C5CB"/>
<path d="M69.914 0V41.5753H67.4995V1.09375C67.4995 0.489688 67.9892 0 68.5933 0H69.914Z" fill="#999EA5"/>
<path d="M79.9998 79.9997H60V41.0938C60 40.4897 60.4897 40 61.0937 40H78.9061C79.5102 40 79.9998 40.4897 79.9998 41.0938V79.9997Z" fill="#FFEE92"/>
<path d="M63.2195 40V80H60.0001V41.0938C60.0001 40.4897 60.4898 40 61.0939 40H63.2195Z" fill="#FEDB75"/>
</svg>
