<svg width="565" height="443" viewBox="0 0 565 443" fill="none" xmlns="http://www.w3.org/2000/svg">
<path d="M90.4076 336.06C79.1367 319.461 76.408 299.031 76.1033 284.817C75.7728 269.384 78.1474 257.736 78.1709 257.62L77.3903 257.37C77.3668 257.488 74.971 269.22 75.3016 284.754C75.6063 299.11 78.3655 319.75 89.7771 336.553L90.4076 336.06Z" fill="#3C8F7C"/>
<path d="M80.6921 254.707C80.5561 258.206 79.1473 261.189 77.0281 263.062C75.0754 260.698 73.908 257.407 74.0439 253.908C74.1799 250.409 75.5887 247.426 77.7079 245.553C79.663 247.915 80.8281 251.208 80.6921 254.707Z" fill="#3C8F7C"/>
<path d="M73.7789 263.018C75.6964 265.976 76.381 269.394 75.9098 272.399C73.1178 271.825 70.3657 269.945 68.4481 266.988C66.5306 264.03 65.8461 260.612 66.3173 257.606C69.1116 258.183 71.8637 260.063 73.7789 263.018Z" fill="#3C8F7C"/>
<path d="M70.0425 272.645C72.9165 274.41 74.9231 277.216 75.7647 280.22C73.1251 281.088 69.9792 280.734 67.1028 278.972C64.2288 277.207 62.2222 274.403 61.3806 271.397C64.0202 270.528 67.1661 270.883 70.0425 272.645Z" fill="#3C8F7C"/>
<path d="M71.7764 285.803C74.0526 287.204 75.5224 289.684 75.9983 292.47C73.7174 293.559 71.1083 293.528 68.832 292.127C66.5558 290.726 65.086 288.246 64.6101 285.46C66.8887 284.372 69.5001 284.402 71.7764 285.803Z" fill="#3C8F7C"/>
<path d="M80.3974 269.834C82.8471 268.384 85.6414 268.208 88.07 269.106C87.5331 271.763 85.9367 274.187 83.487 275.637C81.0373 277.087 78.2431 277.263 75.8145 276.364C76.3513 273.71 77.9477 271.286 80.3974 269.834Z" fill="#3C8F7C"/>
<path d="M80.4516 278.962C82.9013 277.51 85.6956 277.337 88.1242 278.235C87.5873 280.891 85.9909 283.316 83.5412 284.766C81.0915 286.215 78.2973 286.391 75.8687 285.493C76.4055 282.839 78.0019 280.414 80.4516 278.962Z" fill="#3C8F7C"/>
<path d="M78.7939 417.577C55.1667 409.078 38.64 388.808 28.9373 373.302C18.4025 356.466 13.4093 341.449 13.3601 341.3L12.3169 341.71C12.3661 341.861 17.3944 356.99 27.9949 373.939C37.7914 389.6 54.4892 410.076 78.4095 418.682L78.7939 417.577Z" fill="#96D9C9"/>
<path d="M14.2836 335.842C16.4356 339.846 16.8083 344.394 15.6573 348.338C11.9019 347.432 8.4184 344.809 6.26875 340.805C4.11676 336.801 3.74403 332.253 4.89504 328.309C8.65047 329.214 12.1316 331.84 14.2836 335.842Z" fill="#96D9C9"/>
<path d="M11.9695 351.154C16.0766 352.747 19.0983 355.938 20.547 359.69C17.0213 361.51 12.6845 361.846 8.57746 360.253C4.4704 358.659 1.44872 355.468 0 351.717C3.52569 349.896 7.86248 349.561 11.9695 351.154Z" fill="#96D9C9"/>
<path d="M14.096 365.127C18.4961 364.553 22.6055 365.901 25.5311 368.497C23.1283 371.785 19.3517 374.161 14.9517 374.735C10.5516 375.31 6.44218 373.962 3.5166 371.366C5.91942 368.078 9.69594 365.702 14.096 365.127Z" fill="#96D9C9"/>
<path d="M22.4254 378.515C26.8255 377.94 30.9349 379.288 33.8604 381.884C31.4576 385.173 27.6811 387.549 23.281 388.123C18.8809 388.697 14.7715 387.349 11.8459 384.753C14.2488 381.465 18.0253 379.089 22.4254 378.515Z" fill="#96D9C9"/>
<path d="M21.7591 357.664C21.9982 353.437 23.7821 349.621 26.41 347.016C28.7448 349.533 30.1021 353.294 29.863 357.52C29.6239 361.746 27.8399 365.563 25.2121 368.168C22.8772 365.653 21.52 361.892 21.7591 357.664Z" fill="#96D9C9"/>
<path d="M30.4579 371.521C30.6338 367.292 32.3638 363.444 34.9518 360.792C37.3265 363.263 38.7377 366.996 38.5619 371.225C38.3861 375.453 36.656 379.302 34.068 381.954C31.6933 379.483 30.2798 375.75 30.4579 371.521Z" fill="#96D9C9"/>
<path d="M36.6304 392.361C38.3089 391.485 40.1537 391.457 41.7103 392.124C41.2344 393.852 40.0717 395.394 38.3956 396.27C36.7171 397.145 34.8722 397.173 33.3157 396.506C33.7915 394.778 34.9519 393.236 36.6304 392.361Z" fill="#96D9C9"/>
<path d="M132.248 396.867C132.248 396.867 153.944 359.521 147.802 350.58C139.316 338.225 125.438 373.42 124.923 370.088C120.063 338.621 121.08 298.936 98.3487 292.922C85.4274 289.504 99.202 322.561 97.5985 331.079C95.9951 339.596 74.4987 309.188 61.2609 293.098C48.0232 277.01 39.9169 285.886 47.5895 305.404C55.0089 324.277 81.8923 346.393 75.8747 348.285C69.8572 350.177 36.1146 323.886 31.03 333.575C24.7944 345.455 76.7726 366.426 71.5567 368.793C66.3408 371.16 41.5813 360.037 41.5813 369.499C41.5813 378.964 75.7974 381.328 74.9066 385.42C73.4649 392.046 51.9732 375.083 50.2947 384.276C48.5788 393.678 79.4707 394.392 78.3924 401.746C77.7712 405.973 69.9908 401.55 68.5842 407.36C65.375 420.608 114.057 439.176 114.057 439.176L132.248 396.867Z" fill="#3C8F7C"/>
<path d="M168.657 403.923C176.048 407.344 174.053 415.838 174.053 415.838C174.053 415.838 194.091 400.38 201.584 409.402C209.076 418.425 205.137 436.108 196.351 438.984C187.565 441.858 111.142 439.843 111.142 439.843C111.142 439.843 162.009 400.846 168.657 403.923Z" fill="#50BFA5"/>
<path d="M116.293 425.714L117.001 425.117C100.946 405.794 94.0888 381.576 91.1655 364.659C87.9915 346.302 88.6338 332.343 88.6408 332.204L87.6656 332.03C87.6586 332.169 87.0116 346.221 90.1997 364.689C93.1487 381.752 100.066 406.186 116.293 425.714Z" fill="#50BFA5"/>
<path d="M90.7879 329.138C91.2638 333.309 90.1714 336.912 88.0616 339.225C85.3751 336.49 83.4294 332.619 82.9536 328.45C82.4777 324.279 83.5701 320.676 85.6799 318.363C88.3687 321.098 90.312 324.967 90.7879 329.138Z" fill="#50BFA5"/>
<path d="M84.5238 338.85C87.2759 342.291 88.6871 346.332 88.6848 349.929C85.349 349.354 81.8257 347.226 79.0736 343.785C76.3215 340.344 74.9103 336.303 74.9126 332.706C78.2484 333.281 81.7717 335.409 84.5238 338.85Z" fill="#50BFA5"/>
<path d="M81.9387 350.452C85.5839 352.437 88.4134 355.697 89.9301 359.241C87.0326 360.38 83.3288 360.084 79.6836 358.099C76.0383 356.114 73.2088 352.854 71.6921 349.311C74.5919 348.171 78.2958 348.468 81.9387 350.452Z" fill="#50BFA5"/>
<path d="M88.456 369.553C90.029 370.273 91.3042 371.56 92.0427 373.008C90.8752 373.584 89.3281 373.58 87.7551 372.859C86.1821 372.139 84.9069 370.852 84.1685 369.404C85.3359 368.828 86.8831 368.832 88.456 369.553Z" fill="#50BFA5"/>
<path d="M90.4323 376.676C92.0053 377.396 93.2806 378.684 94.019 380.131C92.8516 380.708 91.3044 380.703 89.7314 379.983C88.1585 379.263 86.8832 377.975 86.1448 376.528C87.3122 375.949 88.8594 375.953 90.4323 376.676Z" fill="#50BFA5"/>
<path d="M93.4116 346.698C95.9832 344.876 99.1831 344.556 102.158 345.529C102.017 348.711 100.608 351.659 98.0368 353.484C95.4652 355.306 92.2653 355.626 89.2905 354.653C89.4335 351.471 90.84 348.521 93.4116 346.698Z" fill="#50BFA5"/>
<path d="M95.125 357.559C97.6966 355.737 100.896 355.417 103.871 356.39C103.731 359.572 102.322 362.52 99.7501 364.342C97.1785 366.165 93.9787 366.484 91.0039 365.512C91.1446 362.33 92.5511 359.382 95.125 357.559Z" fill="#50BFA5"/>
<path d="M96.2499 373.242C97.9237 372.056 100.008 371.848 101.942 372.48C101.85 374.55 100.934 376.47 99.2599 377.655C97.5861 378.841 95.5021 379.05 93.5681 378.417C93.6572 376.347 94.5738 374.427 96.2499 373.242Z" fill="#50BFA5"/>
<path d="M128.401 440.214C128.401 440.214 104.929 410.444 95.118 405.882C84.6628 401.022 93.7279 417.864 93.7279 417.864C93.7279 417.864 71.3735 396.17 66.1225 401.587C60.8715 407.003 66.4788 412.072 66.4788 412.072C66.4788 412.072 47.7603 408.636 45.0293 415.565C40.8355 426.21 71.6243 431.504 71.6243 431.504C71.6243 431.504 56.8746 428.306 59.8259 434.897C64.2753 444.836 128.401 440.214 128.401 440.214Z" fill="#50BFA5"/>
<path d="M45.0303 415.565C47.7589 408.638 66.4798 412.072 66.4798 412.072C66.4798 412.072 60.8724 407.003 66.1235 401.587C71.3745 396.17 88.874 408.962 88.874 408.962C88.874 408.962 86.1617 397.205 99.3081 406.454C108.697 413.061 126.82 437.701 126.82 437.701L45.0303 415.565Z" fill="#96D9C9"/>
<path d="M111.144 439.767C111.144 439.767 148.545 442.379 155.829 435.763C163.115 429.147 155.887 417.16 155.887 417.16C155.887 417.16 168.722 407.138 168.523 400.593C168.321 394.049 159.962 397.37 159.962 397.37C159.962 397.37 174.132 379.344 170.773 375.914C164.512 369.53 148.128 388.266 148.128 388.266C148.128 388.266 152.99 379.353 147.861 377.938C140.125 375.803 134.433 397.787 134.433 397.787C134.433 397.787 135.877 389.105 130.544 390.258C120.97 392.328 111.144 439.767 111.144 439.767Z" fill="#50BFA5"/>
<path d="M441.98 337.905L444.999 330.673C447.341 325.354 453.335 322.814 458.389 325C471.121 330.509 476.655 345.842 470.75 359.247L466.435 369.048C464.543 373.341 465.202 378.065 467.752 381.395C470.068 384.42 470.446 388.625 468.84 392.273L466.564 397.439C464.1 403.034 459.306 407.177 453.621 408.884C450.297 409.884 447.36 412.357 445.808 415.882L442.587 423.197C439.026 431.286 429.912 435.149 422.23 431.824L417.846 429.927C410.164 426.604 406.826 417.352 410.387 409.263C416.147 399.593 415.687 392.374 413.645 387.479C410.645 380.279 410.68 371.998 413.927 364.625L414.382 363.592C417.809 355.811 424.426 350.001 432.305 347.514C435.786 346.416 439.413 343.734 441.98 337.905Z" fill="#50BFA5"/>
<path d="M387.105 439.505C393.285 431.564 427.613 389.394 449.705 382.306C474.09 374.481 451.107 405.558 451.107 405.558C451.107 405.558 494.365 358.673 510.237 362.899C524.788 366.774 510.237 395.834 510.237 395.834C510.237 395.834 526.626 379.742 546.5 379.742C565.842 379.742 533.07 438.254 531.298 441.309L387.105 439.505Z" fill="#96D9C9"/>
<path d="M369 397.902C369 397.902 350.633 357.84 356.773 348.901C365.259 336.546 375.81 374.455 376.326 371.123C381.186 339.656 380.168 299.971 402.9 293.957C415.821 290.539 402.047 323.596 403.65 332.114C405.254 340.631 426.75 310.223 439.988 294.133C453.225 278.045 461.332 286.922 453.659 306.439C446.24 325.312 419.356 347.428 425.374 349.32C431.391 351.212 460.314 327.156 465.401 336.847C471.637 348.727 428.384 365.597 433.597 367.964C438.813 370.331 463.32 354.473 463.32 367.758C463.32 377.223 426.614 381.926 427.502 386.018C428.944 392.643 449.275 376.118 450.954 385.312C452.67 394.714 423.923 396.108 425.001 403.463C425.622 407.689 432.824 402.481 434.69 408.161C438.909 420.998 397.651 439.896 397.651 439.896L369 397.902Z" fill="#3C8F7C"/>
<path d="M517.432 349.26C499.759 376.62 486.882 408.367 479.508 440.656L477.759 440.637C485.103 409.025 498.43 377.028 516.075 349.697C520.175 343.345 524.603 335.81 532.28 333.332C532.428 333.283 532.484 333.508 532.344 333.561C525.332 336.18 521.27 343.32 517.432 349.26Z" fill="#3C8F7C"/>
<path d="M483.526 440.716C503.276 414.094 527.505 389.209 556.055 367.814C556.339 367.6 556.726 368.091 556.438 368.311C529.36 388.943 505.491 413.2 485.333 440.732L483.526 440.716Z" fill="#3C8F7C"/>
<path d="M519.047 332.292C519.502 332.955 521.244 334.684 521.755 336.958C522.442 339.114 521.9 341.812 521.842 341.72C521.71 341.773 523.858 339.974 524.528 337.114C525.396 334.369 524.788 330.562 523.708 329.303C521.842 326.452 518.586 326.162 517.953 327.545C517.282 328.916 518.133 330.785 519.047 332.292Z" fill="#3C8F7C"/>
<path d="M523.276 356.714C522.618 356.251 520.906 354.491 518.623 353.937C516.462 353.215 513.728 353.699 513.824 353.759C513.768 353.889 515.625 351.795 518.522 351.189C521.307 350.383 525.135 351.059 526.385 352.154C529.224 354.058 529.451 357.293 528.045 357.893C526.647 358.532 524.779 357.652 523.276 356.714Z" fill="#3C8F7C"/>
<path d="M516.895 367.418C516.236 366.954 514.525 365.194 512.241 364.641C510.08 363.918 507.347 364.402 507.443 364.463C507.387 364.592 509.243 362.501 512.141 361.892C514.926 361.086 518.754 361.762 520.006 362.858C522.844 364.761 523.072 367.997 521.665 368.596C520.266 369.235 518.397 368.355 516.895 367.418Z" fill="#3C8F7C"/>
<path d="M539.656 392.245C538.995 391.782 537.286 390.022 535.003 389.468C532.842 388.746 530.108 389.23 530.204 389.29C530.148 389.42 532.005 387.326 534.902 386.719C537.687 385.914 541.515 386.59 542.765 387.685C545.603 389.589 545.831 392.824 544.424 393.424C543.027 394.063 541.159 393.181 539.656 392.245Z" fill="#3C8F7C"/>
<path d="M551.282 382.09C550.621 381.627 548.912 379.867 546.629 379.314C544.468 378.591 541.734 379.075 541.831 379.135C541.774 379.265 543.631 377.171 546.531 376.565C549.316 375.759 553.144 376.435 554.393 377.53C557.232 379.434 557.459 382.669 556.053 383.269C554.653 383.908 552.785 383.028 551.282 382.09Z" fill="#3C8F7C"/>
<path d="M510.12 344.403C510.676 344.987 512.671 346.423 513.536 348.588C514.558 350.61 514.45 353.359 514.377 353.275C514.255 353.349 516.088 351.237 516.297 348.306C516.717 345.459 515.512 341.796 514.246 340.719C511.951 338.195 508.688 338.42 508.282 339.883C507.837 341.344 508.976 343.058 510.12 344.403Z" fill="#3C8F7C"/>
<path d="M500.737 356.543C501.527 356.957 504.286 357.71 505.674 359.757C507.245 361.577 507.444 364.692 507.341 364.629C507.193 364.764 509.308 361.626 509.216 358.266C509.411 354.91 507.402 351.335 505.63 350.672C502.35 348.833 498.152 350.473 497.807 352.279C497.409 354.102 499.092 355.526 500.737 356.543Z" fill="#3C8F7C"/>
<path d="M490.86 374.928C491.709 375.205 494.557 375.488 496.271 377.273C498.127 378.806 498.852 381.842 498.739 381.798C498.617 381.954 500.169 378.51 499.508 375.215C499.13 371.875 496.542 368.684 494.683 368.328C491.137 367.061 487.278 369.379 487.245 371.215C487.166 373.075 489.067 374.2 490.86 374.928Z" fill="#3C8F7C"/>
<path d="M520.083 387.736C520.702 388.118 522.903 388.887 523.913 390.628C525.086 392.198 525.069 394.743 524.987 394.686C524.86 394.785 526.759 392.354 526.879 389.616C527.23 386.898 525.801 383.876 524.399 383.239C521.836 381.558 518.327 382.655 517.943 384.105C517.516 385.561 518.803 386.817 520.083 387.736Z" fill="#3C8F7C"/>
<path d="M535.298 336.597C534.928 336.294 533.995 335.18 532.668 334.754C531.421 334.233 529.785 334.399 529.836 334.439C529.796 334.513 530.987 333.355 532.729 333.121C534.412 332.764 536.646 333.332 537.338 334.033C538.934 335.284 538.925 337.206 538.067 337.5C537.211 337.818 536.147 337.215 535.298 336.597Z" fill="#3C8F7C"/>
<path d="M531.753 328.784C531.77 329.258 532.091 330.673 531.622 331.975C531.278 333.272 530.143 334.455 530.145 334.39C530.063 334.376 531.714 334.147 532.963 332.922C534.276 331.817 535.185 329.717 535.047 328.747C535.023 326.732 533.481 325.565 532.722 326.058C531.946 326.535 531.777 327.739 531.753 328.784Z" fill="#3C8F7C"/>
<path d="M559.656 371.748C559.285 371.445 558.352 370.331 557.026 369.905C555.778 369.384 554.14 369.55 554.194 369.59C554.154 369.664 555.345 368.506 557.086 368.272C558.77 367.915 561.004 368.483 561.695 369.184C563.289 370.435 563.282 372.357 562.424 372.651C561.571 372.968 560.504 372.366 559.656 371.748Z" fill="#3C8F7C"/>
<path d="M555.383 363.867C555.439 364.34 555.875 365.722 555.514 367.059C555.28 368.379 554.246 369.65 554.241 369.585C554.157 369.578 555.784 369.217 556.93 367.895C558.147 366.688 558.88 364.52 558.662 363.564C558.47 361.559 556.839 360.519 556.121 361.075C555.387 361.612 555.319 362.825 555.383 363.867Z" fill="#3C8F7C"/>
<path d="M536.141 409.245C536.258 409.979 537.029 412.109 536.553 414.214C536.272 416.289 534.741 418.339 534.732 418.237C534.601 418.23 537.116 417.563 538.816 415.426C540.635 413.464 541.64 410.037 541.237 408.557C540.808 405.438 538.192 403.921 537.111 404.833C536.005 405.723 535.974 407.621 536.141 409.245Z" fill="#3C8F7C"/>
<path d="M520.244 414.886C520.361 415.62 521.133 417.751 520.657 419.856C520.375 421.931 518.845 423.982 518.835 423.878C518.704 423.871 521.219 423.204 522.919 421.067C524.738 419.105 525.744 415.678 525.34 414.198C524.911 411.079 522.295 409.562 521.215 410.475C520.108 411.366 520.078 413.265 520.244 414.886Z" fill="#3C8F7C"/>
<path d="M504.089 422.023C504.206 422.757 504.977 424.888 504.501 426.993C504.22 429.068 502.689 431.117 502.68 431.015C502.549 431.008 505.064 430.342 506.764 428.204C508.583 426.243 509.588 422.815 509.185 421.336C508.756 418.216 506.14 416.699 505.059 417.612C503.953 418.503 503.922 420.402 504.089 422.023Z" fill="#3C8F7C"/>
<path d="M540.889 423.969C540.563 423.362 539.93 421.366 538.394 420.078C537.018 418.705 534.738 418.04 534.787 418.121C534.693 418.198 536.925 417.299 539.379 417.934C541.824 418.371 544.494 420.342 545.031 421.655C546.47 424.191 545.397 426.755 544.089 426.683C542.771 426.639 541.679 425.256 540.889 423.969Z" fill="#3C8F7C"/>
<path d="M524.351 429.77C524.025 429.163 523.392 427.167 521.856 425.879C520.48 424.506 518.199 423.841 518.249 423.922C518.155 423.999 520.384 423.1 522.841 423.735C525.286 424.172 527.958 426.143 528.493 427.456C529.932 429.992 528.859 432.555 527.551 432.481C526.233 432.44 525.143 431.057 524.351 429.77Z" fill="#3C8F7C"/>
<path d="M553.482 417.996C553.196 417.658 552.533 416.486 551.398 415.88C550.35 415.196 548.829 415.078 548.871 415.122C548.822 415.183 550.104 414.328 551.731 414.402C553.325 414.358 555.264 415.245 555.775 415.998C557.017 417.401 556.684 419.152 555.852 419.277C555.02 419.425 554.15 418.7 553.482 417.996Z" fill="#3C8F7C"/>
<path d="M551.574 410.289C551.508 410.725 551.562 412.068 550.915 413.175C550.383 414.3 549.15 415.189 549.162 415.129C549.089 415.101 550.631 415.169 551.977 414.261C553.358 413.473 554.544 411.711 554.581 410.803C554.9 408.962 553.693 407.642 552.917 407.969C552.129 408.272 551.771 409.342 551.574 410.289Z" fill="#3C8F7C"/>
<path d="M552.396 414.645C547.302 415.099 542.269 416.026 537.323 417.311C528.3 419.652 519.622 423.112 511.082 426.791C506.884 428.6 502.657 430.383 498.54 432.366C496.616 433.292 494.677 434.22 492.903 435.408C490.512 437.009 486.78 440.216 486.327 440.723L488.287 440.781C489.625 439.702 494.546 435.598 501.375 432.349C517.554 424.649 534.362 416.753 552.408 414.794C552.502 414.78 552.49 414.636 552.396 414.645Z" fill="#3C8F7C"/>
<path opacity="0.5" d="M505.856 199.522L501.421 197.887L489.544 213.421C488.518 214.763 489.076 216.755 490.638 217.332C491.622 217.695 492.719 217.364 493.359 216.514L496.122 212.833L500.776 214.548L500.72 219.247C500.706 220.318 501.356 221.281 502.333 221.641L502.417 221.673C503.981 222.25 505.626 221.069 505.644 219.352L505.856 199.522ZM498.831 209.047L501.011 206.19L500.969 209.835L498.831 209.047Z" fill="#F66819"/>
<path opacity="0.5" d="M373.235 73.3484L364.395 77.5124L362.434 74.8842L366.992 58.2358L370.352 56.6528L375.527 68.1951L377.956 67.0506L379.464 70.4135L377.035 71.5581L378.857 75.6209L375.057 77.4107L373.235 73.3484ZM371.727 69.9854L369.097 64.1204L366.919 72.2502L371.727 69.9854Z" fill="#3C8F7C"/>
<path d="M440.116 122.78C440.116 122.78 440.792 116.229 447.263 116.02C453.733 115.809 465.912 117.41 465.912 117.41L465.597 121.192C465.597 121.192 451.739 119.779 447.107 119.479C445.181 119.355 442.84 119.321 440.116 122.78Z" fill="#F7CC7F"/>
<path d="M450.828 119.121C450.828 119.121 448.674 138.749 445.651 140.098C442.63 141.447 438.942 139.111 441.442 135.542C443.943 131.972 445.27 131.914 446.423 127.585C447.575 123.256 447.94 118.853 447.94 118.853L450.828 119.122L450.828 119.121Z" fill="#F7CC7F"/>
<path d="M456.534 119.62C456.534 119.62 453.406 132.908 453.801 136.656C454.196 140.405 457.277 142.592 460.677 140.917C464.078 139.241 463.353 136.277 463.353 136.277C463.353 136.277 460.537 138.188 458.578 136.376C456.62 134.564 458.956 119.12 458.956 119.12L456.534 119.62Z" fill="#F7CC7F"/>
<path d="M132.304 168.799L123.864 171.016L122.226 164.38L130.665 162.163L128.527 153.506L135.149 151.766L137.287 160.423L145.726 158.206L147.365 164.843L138.925 167.06L141.063 175.717L134.442 177.456L132.304 168.799Z" fill="#96D9C9"/>
<path d="M221.35 75.6225C221.913 76.6696 221.52 77.9771 220.456 78.546C219.465 79.0764 218.173 79.6261 216.638 80.0863C208.655 82.4791 203.043 78.8353 201.056 72.3803C198.676 64.6445 202.97 58.6566 209.96 56.5614C211.348 56.1456 212.606 55.9231 213.648 55.829C214.903 55.7171 215.991 56.6612 216.046 57.8972L216.049 57.973C216.1 59.1307 215.216 60.1375 214.039 60.2371C213.266 60.304 212.414 60.4494 211.502 60.7231C207.357 61.9656 204.891 65.3866 206.443 70.4314C207.839 74.9718 211.461 77.0077 216.12 75.6103C216.895 75.3782 217.686 75.0513 218.398 74.6962C219.476 74.1591 220.79 74.5772 221.35 75.6225Z" fill="#F7CC7F"/>
<path d="M181.312 103.411H400.109C407.043 103.411 412.665 108.964 412.665 115.814V429.23C412.665 436.08 407.043 441.633 400.109 441.633H181.312C174.378 441.633 168.757 436.08 168.757 429.23V115.814C168.757 108.964 174.378 103.411 181.312 103.411Z" fill="#EDC553"/>
<path d="M118.248 348.087C118.248 348.087 143.967 359.314 148.634 359.109C153.303 358.904 182.068 350.331 182.068 350.331L181.336 355.288C181.336 355.288 159.137 368.081 151.375 368.805C143.733 369.52 117.606 361.934 115.082 360.333C112.561 358.734 110.916 349.708 118.248 348.087Z" fill="#ED985F"/>
<path d="M114.384 306.79C114.384 306.79 104.895 304.984 100.172 308.441C91.6127 314.704 91.1525 336.295 87.9447 339.511C84.7368 342.727 77.0033 341.355 76.3142 357.998C75.625 374.641 79.3918 376.031 74.9067 383.459C70.4192 390.888 76.8058 398.323 76.8058 398.323C76.8058 398.323 74.1906 394.223 75.3107 391.261C75.3107 391.261 76.3995 397.795 80.5412 399.326C84.6829 400.858 85.2958 401.98 85.958 404.227C85.958 404.227 121.298 386.084 121.337 373.217C121.375 360.351 128.291 347.603 124.895 342.025C124.895 342.025 126.408 344.412 126.592 347.066C126.592 347.066 128.63 343.154 125.097 339.513C121.566 335.872 129.241 328.336 128.102 319.609C127.324 313.616 123.128 307.051 114.384 306.79Z" fill="#F66819"/>
<path d="M121.372 360.348C119.114 361.918 116.281 363.214 112.725 364.035C99.3977 367.12 94.2907 355.835 92.3713 348.087C94.1897 347.045 95.898 346.816 96.8857 346.697C97.8487 346.582 98.8612 346.508 99.7007 346.465C101.198 345.316 103.427 340.618 103.921 333.319L104.547 333.488L115.051 336.369C115.051 336.369 114.57 339.713 114.335 342.876C114.153 345.35 114.124 347.713 114.591 348.293C115.41 348.471 115.902 348.588 115.902 348.588C115.902 348.588 115.902 348.593 115.906 348.597C116.052 348.829 119.098 353.851 121.372 360.348Z" fill="#FFCAAC"/>
<path d="M115.055 336.371C115.055 336.371 114.573 339.713 114.339 342.878C108.388 342.282 105.627 336.605 104.552 333.49L115.055 336.371Z" fill="#EEAE8A"/>
<path d="M116.831 339.511C116.831 339.511 102.707 338.73 103.326 329.925C103.948 321.12 102.543 315.089 111.587 315.217C120.632 315.343 122.145 318.826 122.652 321.815C123.159 324.804 120.522 339.486 116.831 339.511Z" fill="#FFCAAC"/>
<path d="M122.582 316.89C120.591 314.086 118.901 314.549 117.922 315.277C110.514 310.476 105.097 316.398 105.097 316.398C103.701 322.648 98.895 325.94 98.895 325.94C98.895 325.94 101.353 327.717 107.389 326.615C109.235 326.278 110.943 325.106 112.429 323.639C109.742 327.497 106.269 330.164 106.269 330.164C113.585 327.393 117.134 317.731 117.493 316.708C118.299 317.545 119.877 319.351 120.275 321.037C120.818 323.329 123.159 326.914 124.513 326.853C124.513 326.853 125.57 321.096 122.582 316.89Z" fill="#F66819"/>
<path d="M88.351 389.12C87.0759 382.587 82.9162 356.487 87.0759 348.089C88.5687 345.071 94.43 344.798 100.861 345.064C102.862 346.357 110.487 351.249 113.619 350.639C113.652 350.632 113.713 350.619 113.794 350.599C115.269 350.23 115.825 349.191 114.595 348.296C114.593 348.293 117.781 347.988 121.736 348.734C123.97 349.155 129.995 352.279 129.995 352.279C129.995 352.279 126.96 357.771 122.486 359.667C123.247 366.486 122.116 369.493 115.056 385.243C109.089 398.555 115.861 410.54 115.861 410.54C115.861 410.54 80.7387 438.831 80.5434 424.426C80.3953 413.581 89.9807 397.469 88.351 389.12Z" fill="#0069AF"/>
<path d="M117.601 441.303C119.511 441.087 121.231 440.039 122.299 438.437C122.468 438.183 122.65 437.911 122.843 437.619C126.841 431.555 128.396 412.987 137.389 393.205C139.58 388.389 147.442 387.523 149.585 382.078C149.585 382.078 154.863 364.433 139.486 363.911C124.109 363.391 98.3045 413.01 97.8982 418.214C97.5008 423.254 87.7291 444.678 117.601 441.303Z" fill="#2A2C33"/>
<path d="M178.714 440.895H156.829C156.829 440.895 156.01 437.398 157.449 435.019C158.722 432.914 158.232 431.713 157.292 429.972C158.284 430.379 159.566 430.748 160.978 430.667C162.069 430.604 163.221 430.109 164.233 429.52C165.176 430.595 169.207 435.176 170.469 436.082C171.897 437.113 178.274 436.746 178.714 440.895Z" fill="#F8E633"/>
<path d="M150.084 369.012C151.402 378.91 156.549 410.151 165.627 425.393C168.554 430.307 158.253 433.062 158.197 433.046C156.816 432.684 154.513 430.478 153.453 429.52C146.084 422.865 131.122 404.022 131.122 388.916C131.122 381.55 130.992 367.482 136.339 363.906C139.63 361.704 149.561 365.078 150.084 369.012Z" fill="#2A2C33"/>
<path d="M104.55 440.895C104.55 440.895 105.36 439.764 106.774 437.616C108.458 435.061 110.319 430.037 112.579 423.594C114.954 416.831 117.769 408.509 121.289 399.85C122.376 397.179 123.53 394.473 124.755 391.772C126.946 386.957 132.971 387.622 135.115 382.178C135.115 382.178 143.48 363.304 128.105 362.784C112.728 362.265 83.5088 413.273 81.8297 418.214C79.9912 423.621 71.023 446.077 104.55 440.895Z" fill="#464E57"/>
<path d="M162.65 440.895H140.766C140.766 440.895 139.948 437.398 141.385 435.019C142.658 432.914 142.169 431.713 141.228 429.972C142.22 430.379 143.502 430.748 144.914 430.667C146.005 430.604 147.157 430.109 148.169 429.52C149.112 430.595 153.144 435.176 154.405 436.082C155.831 437.113 162.208 436.746 162.65 440.895Z" fill="#F8E633"/>
<path d="M112.579 423.594C114.954 416.831 117.769 408.509 121.289 399.85C120.371 393.29 118.387 387.553 115.053 385.238C115.053 385.241 106.967 410.342 112.579 423.594Z" fill="#343B43"/>
<path d="M137.308 368.31C138.626 378.208 140.483 410.151 149.561 425.393C152.488 430.307 142.186 433.062 142.13 433.046C140.75 432.684 138.447 430.478 137.387 429.52C130.017 422.865 115.055 404.022 115.055 388.916C115.055 381.55 123.685 368.072 129.03 364.496C132.323 362.294 136.785 364.376 137.308 368.31Z" fill="#464E57"/>
<path d="M184.814 339.958L180.277 331.756L170.462 359.199L176.252 365.427L184.814 339.958Z" fill="#163560"/>
<path d="M161.124 344.762L151.999 370.878L176.252 365.427L184.814 339.958L161.124 344.762Z" fill="#1C468A"/>
<path d="M152.484 369.56L152.057 368.816L160.691 344.101L161.124 344.762L152.484 369.56Z" fill="#EFDECE"/>
<path d="M160.691 344.101L183.684 339.619L184.814 339.958L161.124 344.762L160.691 344.101Z" fill="#FCECDB"/>
<path d="M184.814 339.959L179.909 332.157L176.78 340.966L183.685 339.619L184.814 339.959Z" fill="#EFDECE"/>
<path d="M168.126 348.545C167.338 348.392 165.645 347.754 163.932 347.281C164.444 346.883 165.012 346.395 165.171 345.894C165.477 344.927 165.681 344.616 164.662 344.922C163.643 345.228 160.078 346.868 160.078 346.868C160.078 346.868 160.085 346.872 160.087 346.872C158.062 347.466 156.194 350.333 156.194 350.333C156.194 350.333 131.12 359.165 128.102 359.316C123.435 359.55 92.3714 348.089 92.3714 348.089C85.0398 349.71 86.6853 358.734 89.2085 360.335C91.7317 361.936 114.083 370.082 127.33 370.235C134.04 370.314 158.446 354.598 158.446 354.598C158.446 354.598 161.299 353.291 163.539 353.7C165.78 354.109 170.977 353.7 172.097 351.863C173.219 350.025 169.45 348.799 168.126 348.545Z" fill="#FFCAAC"/>
<path d="M108.377 353.738C108.377 353.738 105.598 362.55 96.0574 364.554C96.0574 364.554 80.3009 359.692 88.1466 348.937C88.1466 348.939 95.9025 343.163 108.377 353.738Z" fill="#0069AF"/>
<path d="M184.407 349.209C184.412 348.966 184.387 348.725 184.322 348.494C184.322 348.494 182.075 344.931 181.339 344.787C179.096 344.344 179.096 347.302 179.572 349.209C179.904 350.538 180.746 351.813 181.428 352.501L181.339 355.288C185.126 353.203 184.407 349.209 184.407 349.209Z" fill="#FFCAAC"/>
<path d="M393.004 131.23H190.719V182.826H393.004V131.23Z" fill="#D0ECFF"/>
<path opacity="0.5" d="M196.085 138.657H393.004V131.23H190.719V182.826H196.085V138.657Z" fill="#90D2FF"/>
<path d="M247.796 216.133H191.685C191.153 216.133 190.719 215.707 190.719 215.179V198.499C190.719 197.973 191.151 197.545 191.685 197.545H247.796C248.331 197.545 248.762 197.971 248.762 198.499V215.179C248.762 215.705 248.331 216.133 247.796 216.133Z" fill="#F99A65"/>
<path d="M319.918 216.133H263.807C263.275 216.133 262.841 215.707 262.841 215.179V198.499C262.841 197.973 263.272 197.545 263.807 197.545H319.918C320.45 197.545 320.884 197.971 320.884 198.499V215.179C320.881 215.705 320.45 216.133 319.918 216.133Z" fill="#F99A65"/>
<path d="M392.038 216.133H335.927C335.395 216.133 334.961 215.707 334.961 215.179V198.499C334.961 197.973 335.393 197.545 335.927 197.545H392.038C392.57 197.545 393.004 197.971 393.004 198.499V215.179C393.004 215.705 392.573 216.133 392.038 216.133Z" fill="#F99A65"/>
<path d="M233.473 272.522H192.883C191.688 272.522 190.719 271.566 190.719 270.385V232.99C190.719 231.809 191.688 230.852 192.883 230.852H233.473C234.669 230.852 235.637 231.809 235.637 232.99V270.385C235.637 271.566 234.669 272.522 233.473 272.522Z" fill="#F99A65"/>
<path d="M285.929 272.522H245.339C244.144 272.522 243.176 271.566 243.176 270.385V232.99C243.176 231.809 244.144 230.852 245.339 230.852H285.929C287.125 230.852 288.093 231.809 288.093 232.99V270.385C288.093 271.566 287.125 272.522 285.929 272.522Z" fill="#FAE0B2"/>
<path d="M338.384 272.522H297.794C296.599 272.522 295.631 271.566 295.631 270.385V232.99C295.631 231.809 296.599 230.852 297.794 230.852H338.384C339.58 230.852 340.548 231.809 340.548 232.99V270.385C340.548 271.566 339.58 272.522 338.384 272.522Z" fill="#FAE0B2"/>
<path d="M233.473 323.895H192.883C191.688 323.895 190.719 322.939 190.719 321.758V284.363C190.719 283.182 191.688 282.225 192.883 282.225H233.473C234.669 282.225 235.637 283.182 235.637 284.363V321.758C235.637 322.936 234.669 323.895 233.473 323.895Z" fill="#F99A65"/>
<path d="M285.929 323.895H245.339C244.144 323.895 243.176 322.939 243.176 321.758V284.363C243.176 283.182 244.144 282.225 245.339 282.225H285.929C287.125 282.225 288.093 283.182 288.093 284.363V321.758C288.093 322.936 287.125 323.895 285.929 323.895Z" fill="#FAE0B2"/>
<path d="M338.384 323.895H297.794C296.599 323.895 295.631 322.939 295.631 321.758V284.363C295.631 283.182 296.599 282.225 297.794 282.225H338.384C339.58 282.225 340.548 283.182 340.548 284.363V321.758C340.548 322.936 339.58 323.895 338.384 323.895Z" fill="#FAE0B2"/>
<path d="M383.853 230.85H357.236C352.182 230.85 348.085 234.912 348.085 239.921V252.82V263.451V314.824C348.085 319.833 352.182 323.895 357.236 323.895H383.853C388.907 323.895 393.004 319.833 393.004 314.824V263.451V252.82V239.921C393.004 234.912 388.907 230.85 383.853 230.85Z" fill="#FAE0B2"/>
<path d="M233.473 375.268H192.883C191.688 375.268 190.719 374.312 190.719 373.131V335.736C190.719 334.555 191.688 333.598 192.883 333.598H233.473C234.669 333.598 235.637 334.555 235.637 335.736V373.131C235.637 374.309 234.669 375.268 233.473 375.268Z" fill="#F99A65"/>
<path d="M285.929 375.268H245.339C244.144 375.268 243.176 374.312 243.176 373.131V335.736C243.176 334.555 244.144 333.598 245.339 333.598H285.929C287.125 333.598 288.093 334.555 288.093 335.736V373.131C288.093 374.309 287.125 375.268 285.929 375.268Z" fill="#FAE0B2"/>
<path d="M338.384 375.268H297.794C296.599 375.268 295.631 374.312 295.631 373.131V335.736C295.631 334.555 296.599 333.598 297.794 333.598H338.384C339.58 333.598 340.548 334.555 340.548 335.736V373.131C340.548 374.309 339.58 375.268 338.384 375.268Z" fill="#FAE0B2"/>
<path d="M390.841 375.268H350.251C349.055 375.268 348.087 374.312 348.087 373.131V335.736C348.087 334.555 349.055 333.598 350.251 333.598H390.841C392.036 333.598 393.004 334.555 393.004 335.736V373.131C393.004 374.309 392.036 375.268 390.841 375.268Z" fill="#FAE0B2"/>
<path d="M233.473 426.639H192.883C191.688 426.639 190.719 425.682 190.719 424.501V387.106C190.719 385.925 191.688 384.969 192.883 384.969H233.473C234.669 384.969 235.637 385.925 235.637 387.106V424.501C235.637 425.682 234.669 426.639 233.473 426.639Z" fill="#F99A65"/>
<path d="M285.929 426.639H245.339C244.144 426.639 243.176 425.682 243.176 424.501V387.106C243.176 385.925 244.144 384.969 245.339 384.969H285.929C287.125 384.969 288.093 385.925 288.093 387.106V424.501C288.093 425.682 287.125 426.639 285.929 426.639Z" fill="#FAE0B2"/>
<path d="M338.384 426.639H297.794C296.599 426.639 295.631 425.682 295.631 424.501V387.106C295.631 385.925 296.599 384.969 297.794 384.969H338.384C339.58 384.969 340.548 385.925 340.548 387.106V424.501C340.548 425.682 339.58 426.639 338.384 426.639Z" fill="#FAE0B2"/>
<path d="M390.841 426.639H350.251C349.055 426.639 348.087 425.682 348.087 424.501V387.106C348.087 385.925 349.055 384.969 350.251 384.969H390.841C392.036 384.969 393.004 385.925 393.004 387.106V424.501C393.004 425.682 392.036 426.639 390.841 426.639Z" fill="#F99A65"/>
<path d="M220.868 343.482V345.589L210.497 367.091H207.164L217.497 346.207V346.136H205.844V343.484H220.868V343.482Z" fill="white"/>
<path d="M257.771 361.098C257.771 358.12 259.567 356.012 262.497 354.778L262.46 354.669C259.822 353.435 258.685 351.399 258.685 349.366C258.685 345.624 261.874 343.084 266.051 343.084C270.669 343.084 272.976 345.953 272.976 348.894C272.976 350.892 271.987 353.034 269.056 354.415V354.523C272.024 355.686 273.857 357.756 273.857 360.625C273.857 364.729 270.303 367.489 265.76 367.489C260.774 367.492 257.771 364.548 257.771 361.098ZM270.596 360.952C270.596 358.083 268.58 356.703 265.357 355.795C262.572 356.594 261.07 358.409 261.07 360.663C260.959 363.059 262.793 365.167 265.833 365.167C268.726 365.167 270.596 363.386 270.596 360.952ZM261.728 349.149C261.728 351.511 263.524 352.78 266.271 353.507C268.323 352.817 269.9 351.365 269.9 349.22C269.9 347.331 268.763 345.369 265.87 345.369C263.193 345.372 261.728 347.115 261.728 349.149Z" fill="white"/>
<path d="M273.892 405.774C273.892 413.8 270.887 418.232 265.613 418.232C260.959 418.232 257.809 413.911 257.734 406.1C257.734 398.183 261.177 393.824 266.013 393.824C271.035 393.824 273.892 398.254 273.892 405.774ZM260.959 406.137C260.959 412.276 262.865 415.761 265.795 415.761C269.094 415.761 270.669 411.947 270.669 405.92C270.669 400.109 269.166 396.295 265.833 396.295C263.01 396.295 260.959 399.709 260.959 406.137Z" fill="white"/>
<path d="M313.141 364.84C313.837 364.912 314.643 364.84 315.743 364.731C317.611 364.477 319.371 363.715 320.726 362.443C322.302 361.026 323.439 358.956 323.877 356.161H323.767C322.447 357.759 320.544 358.703 318.159 358.703C313.872 358.703 311.125 355.508 311.125 351.476C311.125 347.009 314.385 343.086 319.259 343.086C324.132 343.086 327.138 347.009 327.138 353.037C327.138 358.231 325.38 361.862 323.033 364.115C321.2 365.894 318.673 366.985 316.108 367.274C314.936 367.457 313.909 367.492 313.141 367.457V364.84V364.84ZM314.313 351.256C314.313 354.197 316.108 356.267 318.893 356.267C321.055 356.267 322.74 355.214 323.584 353.796C323.767 353.507 323.877 353.143 323.877 352.634C323.877 348.602 322.374 345.515 319.003 345.515C316.254 345.517 314.313 347.914 314.313 351.256Z" fill="white"/>
<path d="M215.371 314.713V308.285H204.304V306.177L214.93 291.104H218.411V305.777H221.745V308.282H218.411V314.711H215.371V314.713ZM215.371 305.779V297.898C215.371 296.664 215.408 295.427 215.481 294.193H215.371C214.637 295.573 214.051 296.59 213.392 297.681L207.567 305.707V305.779H215.371Z" fill="white"/>
<path d="M272.281 293.792H263.193L262.276 299.857C262.825 299.786 263.338 299.714 264.217 299.714C266.048 299.714 267.881 300.112 269.346 300.985C271.214 302.039 272.755 304.072 272.755 307.05C272.755 311.663 269.053 315.114 263.886 315.114C261.284 315.114 259.086 314.387 257.951 313.662L258.757 311.228C259.747 311.809 261.688 312.536 263.851 312.536C266.894 312.536 269.494 310.575 269.494 307.414C269.456 304.364 267.405 302.185 262.642 302.185C261.287 302.185 260.222 302.331 259.343 302.44L260.881 291.106H272.276V293.792H272.281Z" fill="white"/>
<path d="M324.866 293.357C324.208 293.32 323.364 293.357 322.447 293.503C317.391 294.339 314.716 298.007 314.165 301.893H314.275C315.412 300.404 317.391 299.17 320.028 299.17C324.243 299.17 327.211 302.185 327.211 306.798C327.211 311.119 324.243 315.116 319.297 315.116C314.203 315.116 310.869 311.193 310.869 305.054C310.869 300.404 312.555 296.736 314.901 294.413C316.88 292.489 319.519 291.289 322.522 290.926C323.474 290.78 324.28 290.743 324.866 290.743V293.357V293.357ZM323.95 306.976C323.95 303.597 322.006 301.564 319.039 301.564C317.098 301.564 315.302 302.764 314.423 304.471C314.203 304.834 314.057 305.307 314.057 305.888C314.13 309.774 315.926 312.643 319.297 312.643C322.081 312.643 323.95 310.355 323.95 306.976Z" fill="white"/>
<path d="M212.403 243.888H212.331L208.191 246.104L207.567 243.67L212.769 240.91H215.517V264.519H212.401V243.888H212.403Z" fill="white"/>
<path d="M258.064 264.519V262.558L260.591 260.124C266.674 254.385 269.422 251.333 269.459 247.774C269.459 245.377 268.287 243.161 264.733 243.161C262.572 243.161 260.776 244.251 259.677 245.157L258.65 242.906C260.298 241.526 262.645 240.509 265.392 240.509C270.521 240.509 272.685 243.997 272.685 247.373C272.685 251.731 269.497 255.254 264.478 260.05L262.572 261.793V261.865H273.271V264.517H258.064V264.519Z" fill="white"/>
<path d="M312.042 260.848C312.958 261.43 315.082 262.337 317.319 262.337C321.461 262.337 322.743 259.723 322.706 257.762C322.668 254.457 319.665 253.04 316.55 253.04H314.754V250.643H316.55C318.894 250.643 321.864 249.446 321.864 246.648C321.864 244.761 320.654 243.089 317.687 243.089C315.781 243.089 313.95 243.925 312.923 244.65L312.079 242.325C313.324 241.417 315.743 240.509 318.308 240.509C322.999 240.509 325.123 243.269 325.123 246.139C325.123 248.573 323.657 250.643 320.727 251.697V251.768C323.657 252.35 326.039 254.529 326.039 257.833C326.039 261.61 323.071 264.917 317.354 264.917C314.679 264.917 312.335 264.081 311.16 263.319L312.042 260.848Z" fill="white"/>
<path d="M213.18 417.568C214.766 417.568 216.052 416.292 216.052 414.719C216.052 413.146 214.766 411.871 213.18 411.871C211.595 411.871 210.309 413.146 210.309 414.719C210.309 416.292 211.595 417.568 213.18 417.568Z" fill="white"/>
<path d="M387.607 278.877H372.487V263.889H368.6V278.877H353.48V282.73H368.6V297.715H372.487V282.73H387.607V278.877Z" fill="white"/>
<path d="M328.152 414.675L320.149 406.739L328.152 398.805L326.094 396.765L318.091 404.699L310.085 396.765L308.027 398.805L316.032 406.739L308.027 414.675L310.085 416.716L318.091 408.779L326.094 416.716L328.152 414.675Z" fill="white"/>
<path d="M382.27 353.613H356.95V357.458H382.27V353.613Z" fill="white"/>
<path d="M383.204 398.034H357.884V401.879H383.204V398.034Z" fill="white"/>
<path d="M383.204 407.71H357.884V411.554H383.204V407.71Z" fill="white"/>
<path d="M459.472 414.358C459.472 414.358 460.788 423.415 463.047 426.338C463.807 427.319 465.192 428.558 466.102 430.332C467.518 433.093 466.735 437.201 465.692 439.463C465.155 440.626 465.729 440.621 464.508 440.996C460.891 442.106 457.044 440.239 455.504 436.798C454.643 434.876 453.889 432.312 453.736 429.082C453.349 420.858 450.775 416.678 450.775 416.678L459.472 414.358Z" fill="#B46E3F"/>
<path d="M419.918 418.501C419.918 418.501 419.107 428.714 419.766 432.032C420.12 433.808 422.082 437.467 421.182 439.139C420.282 440.811 419.25 441.23 419.25 441.23L395.902 441.603C394.629 441.624 395.471 440.811 396.495 440.061C398.174 438.833 399.529 438.023 404.89 435.448C405.239 435.281 406.512 434.475 406.971 434.197C408.136 433.491 409.304 432.379 410.312 431.266C411.988 429.411 412.136 420.419 412.136 420.419L419.918 418.501Z" fill="#B46E3F"/>
<path d="M401.668 282.758C401.668 282.758 398.729 299.339 400.658 310.209C402.589 321.079 411.854 421.836 411.854 421.836L422.15 422.412C422.15 422.412 424.309 380.323 423.922 374.471C423.535 368.62 420.48 358.824 420.48 358.824L421.505 324.842L408.511 280.201L401.668 282.758Z" fill="#13375B"/>
<path d="M431.931 279.27C431.931 279.27 440.04 291.396 441.969 301.428C443.899 311.462 440.553 342.298 444.267 355.447C446.278 362.566 453.897 373.557 455.055 382.755C456.213 391.953 460.756 416.046 460.756 416.046L450.462 418.073L426.544 357.902L407.781 303.516L402.976 275.507L431.931 279.27Z" fill="#004F84"/>
<path d="M454.802 434.985C460.411 436.001 464.143 432.741 466.084 430.3C467.51 433.065 468.206 437.189 467.156 439.461C466.232 441.462 463.534 441.404 461.408 441.483C459.16 441.566 457.423 440.325 456.307 438.382C455.789 437.474 455.252 436.344 454.802 434.985Z" fill="#355389"/>
<path d="M406.975 434.195C413.15 435.77 417.714 434.7 420.269 433.676C420.928 435.531 421.8 437.856 421.338 439.197C420.771 440.839 419.965 441.21 419.252 441.228C413.612 441.376 398.592 441.575 394.291 441.631C393.691 441.638 393.358 440.941 393.745 440.485C394.809 439.22 406.516 434.475 406.975 434.195Z" fill="#355389"/>
<path d="M399.607 193.854C399.307 186.73 400.369 179.695 403.597 173.063C406.373 167.357 413.241 164.119 419.505 164.11C439.395 164.084 441.925 190.046 454.586 200.06C458.454 203.119 462.779 205.611 466.441 208.911C479.957 221.096 473.869 243.652 461.457 254.334C452.844 261.747 439.306 265.959 428.689 260.163C423.148 257.139 418.94 252.109 415.944 246.6C411.692 238.779 408.949 229.759 405.922 221.425C402.704 212.556 400.006 203.323 399.607 193.854Z" fill="#2A2C33"/>
<path d="M409.24 216.263C409.24 216.263 412.283 220.51 411.017 226.86C409.751 233.21 390.493 252.834 388.081 254.096C385.453 255.469 383.843 254.932 382.666 254.269C372.518 248.563 358.181 218.174 356.516 216.008C355.056 214.109 355.056 214.109 355.056 214.109L356.469 209.001L384.52 239.465C384.516 239.46 407.437 214.149 409.24 216.263Z" fill="#B46E3F"/>
<path d="M412.626 211.023C412.626 211.023 410.448 211.889 409.787 212.296C405.319 215.061 390.672 230.815 390.672 230.815C390.672 230.815 398.38 238.997 401.791 242.496L421.28 228.011L412.626 211.023Z" fill="#6E9DE0"/>
<path d="M426.444 208.308C426.444 208.308 437.89 207.591 442.419 212.456C446.948 217.321 432.374 255.816 431.549 262.011C430.726 268.203 435.748 284.671 435.748 284.671C435.748 284.671 408.857 290.006 401.173 284.99C401.173 284.99 400.35 240.456 401.173 236.03C401.996 231.607 408.857 213.616 410.505 211.845C412.151 210.078 426.444 208.308 426.444 208.308Z" fill="#0069AF"/>
<path d="M422.633 193.23C422.633 193.23 422.692 193.564 422.8 194.129C423.311 196.843 425.275 205.842 426.602 208.318C428.205 211.307 421.109 220.844 414.278 219.681C412.246 219.334 415.997 210.918 415.816 210.027C415.472 208.32 415.003 205.993 414.525 203.605C414.255 202.26 413.981 200.893 413.723 199.61C412.991 195.963 412.396 192.98 412.396 192.98L422.633 193.23Z" fill="#B46E3F"/>
<path d="M422.8 194.127C422.694 193.562 422.633 193.228 422.633 193.228L412.396 192.976C412.396 192.976 412.991 195.958 413.723 199.606C413.978 200.882 414.25 202.239 414.52 203.58C416.1 203.35 417.753 202.593 419.408 201.164C421.213 199.606 422.396 197.735 423.109 195.736C422.985 195.097 422.879 194.548 422.8 194.127Z" fill="#8F532A"/>
<path d="M415.743 170.291C415.743 170.291 420.567 169.742 423.591 173.598C426.615 177.453 429.876 189.38 422.363 195.864C414.85 202.348 407.426 195.009 406.326 187.226C405.227 179.445 404.798 170.011 415.743 170.291Z" fill="#B46E3F"/>
<path d="M404.104 187.11C405.002 188.828 406.507 189.78 407.466 189.236C408.425 188.692 408.476 186.855 407.581 185.137C406.683 183.419 405.178 182.467 404.219 183.011C403.26 183.557 403.209 185.392 404.104 187.11Z" fill="#B46E3F"/>
<path d="M415.203 169.014C415.203 169.014 421.65 180.355 426.261 180.88C430.872 181.404 431.477 187.429 431.477 187.429C431.477 187.429 429.829 173.544 425.262 170.867C420.698 168.188 415.203 169.014 415.203 169.014Z" fill="#0E2E35"/>
<path d="M425.051 183.729C424.676 185.744 425.419 187.68 426.725 187.944C428.03 188.208 429.404 186.7 429.779 184.688C430.154 182.673 429.399 180.827 428.094 180.563C426.788 180.297 425.426 181.716 425.051 183.729Z" fill="#B46E3F"/>
<path d="M393.615 279.657L423.907 280.414L425.469 238.902L393.397 239.004L393.615 279.657Z" fill="#EDA67E"/>
<path d="M393.532 256.659C393.609 256.497 395.913 257.623 397.728 257.227C398.091 257.148 396.753 256.06 396.574 255.738C396.551 255.694 393.865 254.019 394.087 252.873C394.31 251.729 396.619 252.466 396.619 252.466C396.619 252.466 403.148 255.439 404.071 256.358C404.992 257.275 405.382 257.963 405.44 258.049C405.841 258.172 406.188 258.262 406.446 258.294C412.452 259.056 422.26 257.704 437.204 255.383L437.221 247.637C440.385 247.822 445.911 247.278 448.459 246.996C448.325 252.903 448.4 263.148 447.123 265.103C446.225 266.474 438.336 267.395 429.56 268.058C418.376 268.905 415.443 268.273 405.731 267.604C402.789 267.388 398.748 268.278 397.212 268.287C394.931 268.301 394.129 268.553 392.976 267.368C392.003 266.369 392.118 263.91 392.28 262.386C392.585 259.505 392.681 258.401 393.532 256.659Z" fill="#B46E3F"/>
<path d="M436.832 209.374C436.832 209.374 443.292 210.543 446.429 216.226C448.499 219.973 450.705 237.323 450.025 250.219C445.653 249.302 438.313 249.135 433.817 249.119C433.986 237.561 434.633 208.987 436.832 209.374Z" fill="#6E9DE0"/>
<path d="M377.973 233.511C377.973 233.511 362.565 214.67 359.541 211.708C356.517 208.746 344.188 200.106 343.832 201.018C343.476 201.931 350.525 208.732 350.426 208.985C350.328 209.237 349.191 211.189 348.785 212.227C348.38 213.264 348.274 215.761 348.619 216.532C348.966 217.305 351.467 218.618 352.876 219.158C354.285 219.697 356.31 219.408 357.996 220.897C359.681 222.386 373.111 242.054 373.111 242.054L377.973 233.511Z" fill="#B46E3F"/>
<path opacity="0.3" fill-rule="evenodd" clip-rule="evenodd" d="M447.5 68C454.404 68 460 62.4036 460 55.5C460 48.5964 454.404 43 447.5 43C440.596 43 435 48.5964 435 55.5C435 62.4036 440.596 68 447.5 68ZM447.5 80C461.031 80 472 69.031 472 55.5C472 41.969 461.031 31 447.5 31C433.969 31 423 41.969 423 55.5C423 69.031 433.969 80 447.5 80Z" fill="#B6F1FF"/>
<path opacity="0.2" fill-rule="evenodd" clip-rule="evenodd" d="M33.5 137C43.165 137 51 129.165 51 119.5C51 109.835 43.165 102 33.5 102C23.835 102 16 109.835 16 119.5C16 129.165 23.835 137 33.5 137ZM33.5 152C51.4493 152 66 137.449 66 119.5C66 101.551 51.4493 87 33.5 87C15.5507 87 1 101.551 1 119.5C1 137.449 15.5507 152 33.5 152Z" fill="#FFCAAC"/>
<path opacity="0.2" fill-rule="evenodd" clip-rule="evenodd" d="M532.5 50C542.165 50 550 42.165 550 32.5C550 22.835 542.165 15 532.5 15C522.835 15 515 22.835 515 32.5C515 42.165 522.835 50 532.5 50ZM532.5 65C550.449 65 565 50.4493 565 32.5C565 14.5507 550.449 0 532.5 0C514.551 0 500 14.5507 500 32.5C500 50.4493 514.551 65 532.5 65Z" fill="#FFCAAC"/>
</svg>
