<svg width="573" height="503" viewBox="0 0 573 503" fill="none" xmlns="http://www.w3.org/2000/svg">
<path d="M158.931 138.362L153.446 140.014L149.765 131.641L141.444 133.09L137.645 127.265L134.645 129.155L139.723 136.944L147.609 135.572L151.439 144.283L159.693 141.793L158.931 138.362Z" fill="#50BFA5"/>
<path d="M175.394 495.734C175.394 495.734 146.132 398.322 143.785 376.832C141.438 355.345 157.798 362.004 157.798 362.004C157.798 362.004 144.032 321.059 153.988 311.342C163.94 301.625 172.918 319.738 172.918 319.738C172.918 319.738 175.93 270.032 186.544 270.013C206.311 269.979 205.92 324.222 205.92 324.222C205.92 324.222 210.966 302.985 221.548 308.806C237.509 317.586 214.62 360.144 214.62 360.144C214.62 360.144 234.959 360.159 242.102 370.23C254.926 388.305 175.394 495.734 175.394 495.734Z" fill="#50BFA5"/>
<path d="M184.956 482.843C184.956 482.843 100.601 468.987 82.2537 454.305C63.9063 439.624 82.0659 433.003 82.0659 433.003C82.0659 433.003 39.6908 411.666 40.1798 397.158C40.6688 382.649 61.7234 390.026 61.7234 390.026C61.7234 390.026 26.0183 350.035 34.4722 342.442C50.2181 328.294 91.4939 369.865 91.4939 369.865C91.4939 369.865 79.2375 350.096 92.1472 346.968C111.613 342.25 125.982 390.998 125.982 390.998C125.982 390.998 122.332 371.748 135.755 374.311C159.837 378.914 184.956 482.843 184.956 482.843Z" fill="#50BFA5"/>
<path d="M135.751 374.315C122.294 371.925 125.979 391.002 125.979 391.002C125.979 391.002 111.61 342.254 92.1438 346.972C79.2341 350.1 91.4905 369.869 91.4905 369.869C91.4905 369.869 50.2107 328.298 34.4688 342.446L184.671 482.87C181.999 469.452 158.312 378.318 135.751 374.315Z" fill="#3C8F7C"/>
<path d="M208.959 494.269C208.959 494.269 164.534 449.897 142.165 445.275C119.792 440.653 123.818 456.287 123.818 456.287C123.818 456.287 79.4318 418.163 69.1471 427.4C58.8624 436.637 69.9882 445.556 69.9882 445.556C69.9882 445.556 33.0156 439.12 27.7227 451.039C19.5895 469.351 80.3942 479.315 80.3942 479.315C80.3942 479.315 54.9151 481.048 60.8223 492.529C69.7339 509.846 208.959 494.269 208.959 494.269Z" fill="#004F84"/>
<path d="M27.7224 451.04C33.0154 439.124 69.9879 445.556 69.9879 445.556C69.9879 445.556 58.8621 436.638 69.1468 427.401C79.4316 418.164 122.44 451.105 122.44 451.105C122.44 451.105 112.3 432.07 134.673 436.688C157.046 441.311 208.967 494.27 208.967 494.27L27.7224 451.04Z" fill="#0069AF"/>
<path d="M279.683 36.6305C264.732 39.0473 260.288 58.3246 272.72 66.9469C274.954 68.4954 276.499 70.8239 277.156 73.429L279.421 82.3971C280.043 84.8678 282.496 86.4547 285.055 86.0397L290.719 85.1252C293.278 84.7102 295.081 82.4394 294.866 79.8996C294.08 70.6433 293.11 67.285 296.173 63.1545C305.131 51.0779 294.639 34.2098 279.683 36.6305Z" fill="#FEDB76"/>
<path d="M281.209 75.8191C280.235 67.8884 278.87 59.5158 278.404 57.1412C269.833 57.6061 273.092 48.7302 277.047 52.3382C278.173 53.368 278.705 54.7628 279.057 56.2882C281.905 56.0346 284.687 55.2392 287.226 53.952C287.089 51.9963 286.893 50.5131 287.449 49.2605C288.29 47.3701 290.727 46.8552 291.721 48.6957C292.092 49.3873 292.159 50.271 291.889 51.0049C291.314 52.5688 289.585 53.6024 288.075 54.4131C288.524 60.7185 289.15 67.0738 289.937 73.3292L289.127 73.4291C288.352 67.2736 287.734 61.022 287.284 54.8166C284.765 56.0461 282.027 56.8146 279.222 57.0759C279.808 60.1114 281.103 68.2726 282.019 75.7192L281.209 75.8191ZM274.332 55.27C275.094 56.0769 276.37 56.4304 278.232 56.3458C277.911 54.9972 277.434 53.7868 276.487 52.9261C274.363 50.9819 273.056 53.9175 274.332 55.27ZM288.192 49.5833C287.723 50.6361 287.902 51.9848 288.008 53.5332C289.233 52.8493 290.657 51.9924 291.114 50.7398C291.439 49.8599 291.075 48.6188 290.164 48.3883C290.066 48.3614 288.521 48.8455 288.192 49.5833Z" fill="#FCEED5"/>
<path d="M277.09 73.2062C277.109 73.2792 277.137 73.3522 277.156 73.429L279.421 82.3972C280.043 84.8678 282.496 86.4547 285.055 86.0397L290.719 85.1252C293.278 84.7103 295.081 82.4394 294.866 79.8996C294.518 75.7806 294.131 72.8335 294.08 70.4627L277.09 73.2062Z" fill="#96D9C9"/>
<path d="M268.597 29.9332L264.125 21.9179C263.691 21.1418 263.98 20.1697 264.771 19.7432C265.561 19.3166 266.551 19.601 266.985 20.3771L271.456 28.3924C271.891 29.1685 271.601 30.1406 270.811 30.5672C270.017 30.9975 269.031 30.7055 268.597 29.9332Z" fill="#FEDB76"/>
<path d="M258.825 49.3257L249.076 48.4881C248.18 48.4113 247.515 47.6351 247.593 46.7513C247.671 45.8714 248.462 45.2182 249.361 45.2951L259.106 46.1327C260.002 46.2096 260.667 46.9857 260.589 47.8695C260.515 48.7494 259.724 49.4026 258.825 49.3257Z" fill="#FEDB76"/>
<path d="M249.162 78.6739C248.528 78.0437 248.536 77.0293 249.178 76.4068C251.572 74.0822 254.208 71.9689 257.009 70.1322C257.757 69.6404 258.77 69.8402 259.27 70.5741C259.771 71.308 259.568 72.3032 258.821 72.795C256.192 74.5202 253.719 76.5029 251.47 78.6854C250.828 79.3078 249.796 79.3078 249.162 78.6739Z" fill="#FEDB76"/>
<path d="M292.679 29.499C291.807 29.2723 291.291 28.3924 291.525 27.5394C292.629 23.4819 293.305 19.2975 293.536 15.1016C293.583 14.2179 294.354 13.5378 295.253 13.5877C296.153 13.6338 296.842 14.3908 296.795 15.2745C296.552 19.6894 295.84 24.0967 294.678 28.3694C294.444 29.2262 293.544 29.7257 292.679 29.499Z" fill="#FEDB76"/>
<path d="M302.718 41.8062C302.459 40.9571 302.944 40.0656 303.809 39.8082L313.941 36.8073C314.806 36.5537 315.713 37.0301 315.975 37.8793C316.233 38.7246 315.748 39.6199 314.884 39.8735L304.752 42.8744C303.891 43.1318 302.98 42.6554 302.718 41.8062Z" fill="#FEDB76"/>
<path d="M319.363 68.2879C319.218 68.2879 319.07 68.2687 318.921 68.2264C315.412 67.2582 311.997 65.9133 308.773 64.2303C307.979 63.8154 307.678 62.8471 308.1 62.0632C308.523 61.2832 309.513 60.9835 310.307 61.3985C313.323 62.9739 316.519 64.2303 319.805 65.1371C320.674 65.3754 321.178 66.2591 320.932 67.1121C320.728 67.8268 320.075 68.2879 319.363 68.2879Z" fill="#FEDB76"/>
<path d="M493.337 174.094L488.224 162.221L475.365 159.627C473.902 159.331 473.417 157.514 474.548 156.553L484.464 148.107L483.005 135.297C482.837 133.837 484.449 132.826 485.728 133.583L496.967 140.238L508.922 134.917C510.284 134.309 511.763 135.501 511.426 136.93L508.457 149.487L517.306 159.008C518.315 160.092 517.619 161.84 516.128 161.967L503.051 163.074L496.564 174.282C495.829 175.554 493.92 175.446 493.337 174.094Z" fill="#F7CC7F"/>
<path d="M549.675 207.26L547.574 215.571L533.581 213.727L528.984 225.508L518.284 225.811L518.441 231.129L532.751 230.726L537.109 219.564L551.662 221.481L554.823 208.97L549.675 207.26Z" fill="#F48C7F"/>
<path d="M424.514 496.825H178.585C169.192 496.825 161.575 489.068 161.575 479.5V469.199C161.575 459.627 169.192 451.873 178.585 451.873H424.514C413.263 464.399 413.072 483.546 424.06 496.307L424.514 496.825Z" fill="#B75742"/>
<path d="M420.721 457.022H284.316C274.924 457.022 267.307 464.78 267.307 474.351C267.307 483.919 274.92 491.676 284.316 491.676H420.733C414.356 481.045 414.372 467.623 420.721 457.022Z" fill="#FFF4E1"/>
<path d="M338.117 420.646C338.473 419.989 337.929 419.224 337.104 419.224H206.974C196.776 419.224 188.506 426.533 188.506 435.551C188.506 444.565 196.776 451.877 206.974 451.877H337.139C337.968 451.877 338.516 451.109 338.152 450.448C333 441.011 333.016 430.041 338.117 420.646Z" fill="#86B1F2"/>
<path d="M337.297 422.264H272.804C260.833 422.264 251.127 428.389 251.127 435.943C251.127 443.497 260.833 449.622 272.804 449.622H337.72C333.284 440.919 333.162 431.005 337.297 422.264Z" fill="#FFF4E1"/>
<path d="M320.639 428.751H312.24C310.432 428.751 308.969 429.347 308.969 430.08V430.2H320.639V428.751Z" fill="#B75742"/>
<path d="M327.806 432.085C327.806 430.241 325.611 428.75 322.908 428.75H312.13C314.184 428.75 315.847 429.883 315.847 431.282L315.796 467.051L321.75 462.451L327.821 467.051L327.806 432.085Z" fill="#F66819"/>
<path d="M314.191 418.049H238.474C231.761 418.049 226.315 411.705 226.315 403.878C226.315 396.051 231.757 389.707 238.474 389.707H314.191C308.405 397.565 308.179 409.088 313.651 417.246L314.191 418.049Z" fill="#FFF4E1"/>
<path d="M226.327 403.874C226.327 396.047 231.898 389.703 238.771 389.703H315.635C315.995 389.703 316.284 389.369 316.28 388.962C316.276 388.558 315.991 388.236 315.635 388.236H193.701C186.115 388.236 179.966 395.236 179.966 403.878C179.966 412.516 186.115 419.52 193.701 419.52H315.635C315.987 419.52 316.276 419.194 316.28 418.794C316.284 418.387 315.995 418.052 315.635 418.052H238.771C231.898 418.049 226.327 411.701 226.327 403.874Z" fill="#0069AF"/>
<path d="M300.972 396.666H292.573C290.766 396.666 289.303 397.25 289.303 397.972V398.087H300.972V396.666Z" fill="#184655"/>
<path d="M308.135 399.94C308.135 398.134 305.941 396.666 303.237 396.666H292.46C294.514 396.666 296.176 397.776 296.176 399.148L296.125 434.225L302.079 429.714L308.151 434.225L308.135 399.94Z" fill="#3C8F7C"/>
<path d="M434.829 180.005L446.006 177.116L438.428 276.364L425.018 276.802L431.781 183.609C431.911 181.892 433.135 180.443 434.829 180.005Z" fill="#184655"/>
<path d="M439.433 279.192C439.183 279.216 438.929 279.212 438.667 279.181C436.449 278.924 434.802 276.756 434.997 274.336L442.438 181.012C442.63 178.595 444.586 176.843 446.808 177.1C449.03 177.358 450.673 179.525 450.477 181.946L443.036 275.269C442.864 277.406 441.319 279.023 439.433 279.192Z" fill="#F7CC7F"/>
<path d="M336.559 284.165C336.563 284.234 336.567 284.303 336.574 284.372C336.927 288.168 339.919 291.008 343.264 290.716L437.661 282.416C441.006 282.124 443.431 278.804 443.083 275.008C443.068 274.847 443.048 274.689 443.025 274.532L336.559 284.165Z" fill="#F7CC7F"/>
<path d="M402.293 384.405C396.112 387.771 377.217 381.869 377.217 381.335C376.947 386.407 356.06 436.05 356.06 436.05L356.076 451.324C356.076 451.324 399.112 453.337 398.494 449.602C397.876 445.867 395.56 448.296 386.977 441.241C386.214 440.615 374.161 437.868 377.424 430.859C383.992 416.746 397.942 393.215 402.293 384.405Z" fill="#FFCAAC"/>
<path d="M354.664 451.869L401.772 451.881C403.474 451.712 403.869 450.352 403.271 449.525C402.034 447.823 393.006 443.816 386.938 441.153C376.368 442.367 357.786 438.375 356.084 436.004C351.605 441.894 353.713 451.677 354.664 451.869Z" fill="#3C8F7C"/>
<path d="M344.328 348.763C343.691 346.884 384.888 329.712 386.731 331.676C389.993 335.145 364.44 400.289 364.44 400.289L393.796 409.1C393.796 409.1 424.314 333.839 423.042 320.072C421.767 306.304 406.479 290.662 373.352 300.675C340.225 310.689 344.328 348.763 344.328 348.763Z" fill="#004F84"/>
<path d="M429.626 392.966C422.671 391.721 413.657 391.367 406.443 391.244C407.292 397.553 411.423 429.914 410.668 431.9C407.609 439.954 400.826 443.723 400.826 443.723C400.826 443.723 432.814 472.073 434.747 468.799C436.679 465.525 433.319 465.963 431.23 455.162C431.046 454.202 426.418 439.128 426.133 430.994C425.585 415.49 429.387 401.58 429.626 392.966Z" fill="#FFCAAC"/>
<path d="M419.361 287.108C414.897 284.768 403.314 284.687 390.572 285.498C365.735 287.077 341.222 291.88 317.597 299.565L301.789 304.71L301.84 288.791C301.84 288.791 251.547 280.526 249.798 292.768C247.161 311.204 250.432 348.636 267.191 356.989C319.24 382.941 392.18 315.649 392.442 324.452C392.798 336.275 402.946 380.274 405.54 399.536C412.757 399.659 425.155 399.655 430.53 398.441C431.574 360.705 432.067 293.767 419.361 287.108Z" fill="#0069AF"/>
<path d="M399.848 444.392L435.807 472.607C437.231 473.533 438.416 472.73 438.483 471.719C438.624 469.633 434.227 460.91 431.25 455.078C422.291 449.437 410.473 434.721 410.684 431.831C406.901 434.971 399.241 443.651 399.848 444.392Z" fill="#3C8F7C"/>
<path d="M318.454 133.224C317.245 122.377 315.974 111.492 306.82 103.542C299.41 97.1096 289.994 96.0184 280.68 99.4612C254.293 109.213 267.887 132.229 234.244 155.437C223.787 162.649 212.266 167.583 204.395 177.293C193.379 190.883 197.537 207.232 207.58 218.149C255.623 270.374 309.265 199.843 313.114 182.91C315.982 170.315 319.233 140.206 318.454 133.224Z" fill="#2A2C33"/>
<path d="M308.698 194.211C304.774 187.106 300.729 181.465 300.729 181.465C296.656 174.357 286.141 170.764 286.141 170.764C286.141 170.764 282.624 170.833 278.583 171.029C278.332 171.686 278.078 172.159 277.82 172.347C276.302 173.465 267.602 172.021 261.984 175.771C243.148 191.628 248.359 268.495 249.841 292.772L307.203 293.306C307.203 293.306 299.97 241.068 311.628 227.647C319.745 218.298 314.523 204.754 308.698 194.211Z" fill="#50BFA5"/>
<path d="M282.843 144.759C282.843 144.759 279.69 166.876 277.487 172.251C275.285 177.627 289.595 189.119 301.503 192.608C313.411 196.097 297.865 180.735 298.358 174.991C298.851 169.247 301.014 142.042 301.014 142.042L282.843 144.759Z" fill="#FFCAAC"/>
<path d="M300.416 149.842C300.764 145.343 301.018 142.042 301.018 142.042L282.843 144.759C282.843 144.759 282.385 147.356 281.877 151.034C289.247 155.23 295.87 153.904 300.416 149.842Z" fill="#EEAE8A"/>
<path d="M288.543 104.36C288.543 104.36 281.38 105.947 276.955 112.575C272.531 119.203 269.499 138.723 284.063 147.833C298.632 156.943 309.961 144.056 310.149 131.487C310.336 118.915 307.594 102.143 288.543 104.36Z" fill="#FFCAAC"/>
<path d="M313.486 127.553C312.242 130.584 309.777 132.467 307.978 131.756C306.178 131.046 305.728 128.01 306.972 124.978C308.216 121.947 310.681 120.064 312.481 120.775C314.276 121.486 314.726 124.521 313.486 127.553Z" fill="#FFCAAC"/>
<path d="M290.69 103.949C290.69 103.949 281.56 124.068 273.536 125.866C265.513 127.664 265.63 137.785 265.63 137.785C265.63 137.785 265.81 114.408 273.329 109.044C280.848 103.68 290.69 103.949 290.69 103.949Z" fill="#2A2C33"/>
<path d="M276.725 130.047C277.781 133.313 276.815 136.532 274.565 137.232C272.316 137.931 269.636 135.852 268.58 132.586C267.524 129.32 268.49 126.1 270.739 125.401C272.989 124.698 275.668 126.777 276.725 130.047Z" fill="#FFCAAC"/>
<path d="M379.325 275.296C375.883 274.074 370.762 273.921 370.848 273.475C371.192 271.669 386.398 277.463 384.345 274.828C383.202 273.36 371.822 268.161 369.056 269.022C366.373 269.856 348.749 274.712 348.749 274.712L300.588 263.627C300.588 263.627 288.433 236.496 287.244 213.184C277.194 214.518 270.356 216.957 261.62 221.718C265.834 244.012 276.067 280.145 287.385 286.923C292.146 289.774 348.984 283.511 348.984 283.511C348.984 283.511 361.51 282.643 363.556 281.871C365.109 281.283 369.103 279.073 371.278 278.47C376.219 277.095 385.025 280.545 385.053 279.596C385.076 278.897 382.842 276.545 379.325 275.296Z" fill="#FFCAAC"/>
<path d="M287.541 188.274C287.08 181.1 284.314 174.176 276.541 171.944C271.725 170.561 266.322 171.882 262.473 174.972C257.896 178.645 256.617 184.535 256.636 190.111C256.683 202.771 257.563 215.901 259.918 228.365C268.65 223.605 278.845 220.742 288.895 219.409C288.895 219.34 288.155 197.753 287.541 188.274Z" fill="#96D9C9"/>
<path d="M110.577 215.253L35.9123 201.597C34.414 201.324 33.4242 199.906 33.702 198.435L43.0556 149.102C43.3334 147.631 44.7769 146.658 46.2752 146.931L120.94 160.587C122.438 160.86 123.428 162.278 123.15 163.749L113.797 213.082C113.519 214.553 112.075 215.526 110.577 215.253Z" fill="#F7CC7F"/>
<path d="M75.0364 158.854L52.3075 154.697C50.8092 154.424 49.8195 153.006 50.0972 151.534L51.5212 144.026C51.799 142.555 53.2425 141.583 54.7408 141.856L77.4697 146.013C78.968 146.286 79.9577 147.704 79.68 149.175L78.256 156.683C77.9782 158.155 76.5347 159.127 75.0364 158.854Z" fill="#F7CC7F"/>
<path d="M113.977 213.366C113.589 214.715 112.216 215.552 110.812 215.295L35.6618 201.551C34.2652 201.293 33.2912 200.041 33.4163 198.646L37.3479 154.424C37.4144 153.663 37.8096 152.964 38.4277 152.499C39.0497 152.038 39.8399 151.853 40.6027 151.992L124.093 167.261C124.856 167.4 125.525 167.849 125.936 168.499C126.347 169.148 126.46 169.932 126.249 170.666L113.977 213.366Z" fill="#FAE0B2"/>
<path d="M493.085 75.545L480.3 78.9762L477.546 63.7566L481.728 63.0265L483.669 73.7467L491.966 71.5182L493.085 75.545Z" fill="#50BFA5"/>
<path d="M49.4136 259.914C52.6136 259.657 57.531 261.044 59.7334 262.511C60.066 262.815 62.601 263.806 65.2338 268.094L64.6391 268.498C61.8577 265.639 59.9878 264.997 57.7618 264.344C54.0923 263.418 50.3916 264.11 50.0864 264.271L49.4136 259.914Z" fill="#355389"/>
<path d="M64.9403 268.294C64.9403 268.294 45.431 271.491 47.2501 286.461C49.0692 301.431 69.6504 313.073 88.0173 303.817C112.73 291.364 102.969 259.699 85.3806 257.251C67.7961 254.804 64.9403 268.294 64.9403 268.294Z" fill="#F47458"/>
<path d="M73.2183 261.704C73.2183 261.704 78.3079 256.571 89.461 261.239C100.614 265.908 101.42 287.683 91.4757 286.419C81.5235 285.154 65.2651 264.844 73.2183 261.704Z" fill="#F48C7F"/>
<path d="M215.659 70.8681L135.423 98.979C132.838 99.8858 129.994 98.5602 129.07 96.0204L114.259 55.2411C113.336 52.7013 114.686 49.9079 117.272 49.0011L197.507 20.8902C200.093 19.9834 202.937 21.3091 203.86 23.8489L218.671 64.6243C219.595 67.1679 218.249 69.9613 215.659 70.8681Z" fill="#86B1F2"/>
<path d="M162.479 60.3861C165.429 68.5089 161.117 77.4463 152.844 80.3435C144.57 83.2406 135.474 79.0063 132.524 70.8797C129.575 62.7569 133.886 53.8195 142.16 50.9223C150.43 48.0252 159.529 52.2633 162.479 60.3861Z" fill="white"/>
<path d="M149.781 58.1998C150.649 60.5936 149.378 63.2295 146.94 64.0863C144.503 64.9393 141.82 63.6906 140.947 61.2968C140.079 58.9029 141.35 56.2671 143.787 55.4102C146.228 54.5572 148.912 55.806 149.781 58.1998Z" fill="#86B1F2"/>
<path d="M157.42 71.0448L143.306 75.99L142.743 74.4338C141.714 71.5943 143.22 68.4743 146.107 67.4599L149.757 66.1804C152.648 65.166 155.824 66.6491 156.857 69.4848L157.42 71.0448Z" fill="#86B1F2"/>
<path d="M164.458 51.8637C163.602 51.8637 162.835 51.3335 162.549 50.542C162.174 49.5084 162.725 48.3672 163.778 47.9983L198.853 35.7104C199.072 35.6335 199.303 35.5951 199.534 35.5951C200.39 35.5951 201.157 36.1253 201.443 36.9169C201.818 37.9505 201.267 39.0917 200.214 39.4605L165.139 51.7485C164.916 51.8215 164.689 51.8637 164.458 51.8637Z" fill="white"/>
<path d="M173.925 60.4514C173.069 60.4514 172.302 59.9212 172.016 59.1297C171.641 58.096 172.192 56.9548 173.245 56.586L200.641 46.9877C200.86 46.9109 201.09 46.8724 201.321 46.8724C202.178 46.8724 202.945 47.4027 203.23 48.1942C203.41 48.6937 203.383 49.2355 203.152 49.7158C202.921 50.1961 202.511 50.5611 202.002 50.7379L174.606 60.3361C174.387 60.4091 174.156 60.4514 173.925 60.4514Z" fill="white"/>
<path d="M359.53 357.839H165.791C159.774 357.839 154.896 362.63 154.896 368.54V377.539C154.896 383.448 159.774 388.24 165.791 388.24H359.53L359.428 388.136C351.142 379.663 351.186 366.261 359.53 357.839Z" fill="#F66819"/>
<path d="M356.101 362.338H252.53C246.513 362.338 241.635 367.13 241.635 373.039C241.635 378.949 246.513 383.74 252.53 383.74H356.097C352.291 377.112 352.294 368.958 356.101 362.338Z" fill="#FFF4E1"/>
<path d="M367.751 98.1007L353.065 61.9131C352.326 60.0918 353.23 58.0285 355.084 57.3023L407.927 36.6149C409.782 35.8887 411.883 36.7763 412.622 38.5976L427.308 74.7851C428.047 76.6064 427.143 78.6698 425.289 79.396L372.445 100.083C370.591 100.81 368.49 99.922 367.751 98.1007Z" fill="#FAE0B2"/>
<path d="M417.602 77.1751L404.407 44.657C404.195 44.1344 404.454 43.5427 404.986 43.3352C405.518 43.1277 406.12 43.3813 406.331 43.9039L419.527 76.422C419.738 76.9445 419.48 77.5363 418.948 77.7438C418.416 77.9513 417.813 77.6976 417.602 77.1751Z" fill="#466EB6"/>
<path d="M411.315 72.8908L400.479 46.19C400.268 45.6675 400.526 45.0757 401.058 44.8682C401.59 44.6607 402.192 44.9143 402.404 45.4369L413.24 72.1376C413.451 72.6602 413.193 73.252 412.661 73.4594C412.129 73.6708 411.527 73.4172 411.315 72.8908Z" fill="#466EB6"/>
<path d="M409.751 80.249L396.556 47.7309C396.344 47.2084 396.603 46.6166 397.135 46.4091C397.667 46.2016 398.269 46.4552 398.48 46.9778L411.676 79.4959C411.887 80.0184 411.629 80.6102 411.097 80.8177C410.565 81.0252 409.962 80.7715 409.751 80.249Z" fill="#466EB6"/>
<path d="M402.815 74.3662L392.628 49.2678C392.417 48.7453 392.675 48.1535 393.207 47.946C393.739 47.7386 394.341 47.9921 394.553 48.5147L404.74 73.6131C404.951 74.1357 404.693 74.7274 404.161 74.9349C403.629 75.1424 403.026 74.8888 402.815 74.3662Z" fill="#466EB6"/>
<path d="M417.246 41.1873L416.98 40.534C416.882 40.292 416.616 40.169 416.385 40.2613L411.37 42.2247C411.139 42.3131 411.03 42.5821 411.128 42.8241L411.394 43.4773C411.491 43.7194 411.757 43.8423 411.988 43.7501L417.004 41.7867C417.234 41.6983 417.344 41.4294 417.246 41.1873Z" fill="#355389"/>
<path d="M418.385 43.9883L418.119 43.3351C418.021 43.093 417.755 42.9701 417.524 43.0623L412.509 45.0257C412.278 45.1141 412.168 45.383 412.266 45.6251L412.532 46.2783C412.63 46.5204 412.896 46.6434 413.127 46.5511L418.142 44.5877C418.373 44.4993 418.482 44.2303 418.385 43.9883Z" fill="#355389"/>
<path d="M419.519 46.7894L419.253 46.1363C419.155 45.8942 418.889 45.7712 418.658 45.8634L413.643 47.8269C413.412 47.9153 413.303 48.1842 413.4 48.4263L413.666 49.0795C413.764 49.3215 414.03 49.4445 414.261 49.3523L419.276 47.3889C419.511 47.3005 419.617 47.0315 419.519 46.7894Z" fill="#355389"/>
<path d="M420.657 49.5906L420.391 48.9374C420.294 48.6953 420.027 48.5724 419.797 48.6646L414.781 50.628C414.551 50.7202 414.441 50.9854 414.539 51.2274L414.805 51.8845C414.903 52.1265 415.169 52.2495 415.4 52.1572L420.415 50.1938C420.646 50.1016 420.755 49.8327 420.657 49.5906Z" fill="#355389"/>
<path d="M421.792 52.3917L421.526 51.7385C421.428 51.4964 421.162 51.3735 420.931 51.4657L415.916 53.4291C415.686 53.5214 415.576 53.7903 415.674 54.0285L415.94 54.6818C416.038 54.9238 416.304 55.0468 416.534 54.9545L421.55 52.9911C421.784 52.9027 421.89 52.6338 421.792 52.3917Z" fill="#355389"/>
<path d="M422.93 55.1927L422.664 54.5395C422.566 54.2975 422.3 54.1745 422.07 54.2667L417.054 56.2302C416.823 56.3224 416.714 56.5875 416.812 56.8295L417.078 57.4827C417.176 57.7248 417.442 57.8478 417.672 57.7555L422.688 55.7921C422.918 55.7037 423.028 55.4348 422.93 55.1927Z" fill="#355389"/>
<path d="M424.065 57.9938L423.799 57.3405C423.701 57.0984 423.435 56.9755 423.204 57.0677L418.189 59.0312C417.958 59.1234 417.849 59.3886 417.946 59.6306L418.212 60.2838C418.31 60.5259 418.576 60.6489 418.807 60.5566L423.822 58.5932C424.057 58.5048 424.163 58.2358 424.065 57.9938Z" fill="#355389"/>
<path d="M425.203 60.7949L424.937 60.1417C424.839 59.8996 424.573 59.7767 424.342 59.8689L419.327 61.8323C419.096 61.9246 418.987 62.1897 419.085 62.4317L419.351 63.0849C419.449 63.327 419.714 63.45 419.945 63.3577L424.961 61.3943C425.191 61.3059 425.301 61.037 425.203 60.7949Z" fill="#355389"/>
<path d="M426.338 63.5959L426.072 62.9427C425.974 62.7006 425.708 62.5777 425.477 62.6699L420.462 64.6334C420.231 64.7256 420.122 64.9907 420.22 65.2328L420.486 65.886C420.583 66.1281 420.849 66.251 421.08 66.1588L426.095 64.1953C426.33 64.107 426.436 63.838 426.338 63.5959Z" fill="#355389"/>
<path d="M427.476 66.3971L427.21 65.7438C427.112 65.5018 426.846 65.3788 426.616 65.471L421.6 67.4345C421.369 67.5267 421.26 67.7918 421.358 68.0339L421.624 68.6871C421.721 68.9292 421.987 69.0521 422.218 68.9599L427.234 66.9964C427.465 66.9081 427.574 66.6391 427.476 66.3971Z" fill="#355389"/>
<path d="M428.611 69.1983L428.345 68.5412C428.247 68.2991 427.981 68.1762 427.75 68.2684L422.735 70.2319C422.504 70.3241 422.395 70.5892 422.492 70.8313L422.758 71.4845C422.856 71.7266 423.122 71.8495 423.353 71.7573L428.368 69.7938C428.603 69.7093 428.709 69.4403 428.611 69.1983Z" fill="#355389"/>
<path d="M429.749 71.9992L429.483 71.3461C429.385 71.104 429.119 70.981 428.889 71.0733L423.873 73.0367C423.642 73.1251 423.533 73.394 423.631 73.6361L423.897 74.2893C423.995 74.5314 424.261 74.6543 424.491 74.5621L429.507 72.5987C429.737 72.5065 429.847 72.2413 429.749 71.9992Z" fill="#355389"/>
<path d="M443.605 69.1175L422.633 98.4503C422.586 98.5156 422.551 98.5886 422.523 98.6654L420.388 105.109C420.137 105.858 421.021 106.477 421.663 106.004L427.277 101.847C427.347 101.797 427.406 101.736 427.457 101.666L448.484 72.2568C448.754 71.8802 448.648 71.3615 448.253 71.1118L444.724 68.8985C444.349 68.668 443.86 68.764 443.605 69.1175Z" fill="#B75742"/>
<path d="M427.429 101.697L427.378 101.77L421.96 105.782L420.482 104.809L422.508 98.7C424.096 99.553 425.998 100.429 427.429 101.697Z" fill="#F7CC7F"/>
<path d="M535.797 320.502L500.589 289.644C498.3 287.638 499.255 283.512 502.412 281.756L530.512 266.129C532.312 265.13 534.338 265.222 535.641 266.363L570.849 297.221C573.137 299.227 572.183 303.354 569.026 305.11L540.926 320.737C539.126 321.74 537.1 321.647 535.797 320.502Z" fill="#9BC1F9"/>
<path d="M534.127 295.957L531.193 272.249C531.079 271.343 531.752 270.371 532.695 270.082C533.638 269.794 534.494 270.298 534.604 271.204L537.307 293.021L564.007 299.361C564.875 299.569 565.278 300.491 564.903 301.421C564.527 302.351 563.514 302.939 562.641 302.731L534.127 295.957Z" fill="white"/>
<path d="M2.76244 497.059C1.23549 497.059 0 498.657 0 500.625C0 502.594 1.2355 504.191 3.09192 501.798H564.649C565.369 501.798 565.951 500.745 565.958 499.445C565.961 498.13 565.375 497.059 564.649 497.059H2.76244Z" fill="#184655"/>
<path d="M41.9476 81.2072L45.5858 88.2811L53.8089 88.0198L57.318 96.2271L65.987 93.2992L70.3724 102.409L78.6933 100.68L84.3696 108.769L81.2557 110.878L77.0072 104.83L68.2247 106.659L64.0114 97.8985L55.1977 100.876L51.3247 91.8199L43.2973 92.0735L39.9212 85.5184L34.6869 86.771L33.791 83.1553L41.9476 81.2072Z" fill="#F7CC7F"/>
</svg>
