<svg width="86" height="86" viewBox="0 0 86 86" fill="none" xmlns="http://www.w3.org/2000/svg">
<path d="M64.8359 12.5313V6.15268L21.1643 6.15234V12.531C21.1643 22.6056 26.0151 32.1495 34.3635 38.277C35.8703 39.3831 36.7705 41.132 36.7705 43.0012C36.7705 44.8666 35.8759 46.6155 34.3717 47.7189C25.8444 53.9744 21.1638 63.601 21.1638 73.4692V79.848L64.8354 79.8483V73.4697C64.8354 63.6166 60.1678 53.9848 51.627 47.7189C50.1231 46.6157 49.2292 44.867 49.2292 43.0018V43.0017C49.2292 41.132 50.1299 39.3831 51.6371 38.2769C59.9666 32.1626 64.8359 22.6281 64.8359 12.5313Z" fill="#F8F9FB"/>
<path d="M51.6373 38.2765C59.9668 32.1626 64.8359 22.6281 64.8361 12.5311V6.15251L21.1646 6.15234L57.6942 6.15251V12.5311C57.6942 22.6281 52.825 32.1626 44.4954 38.2765C42.9882 39.3828 42.0876 41.1317 42.0876 43.0013V43.0015C42.0876 44.8666 42.9817 46.6153 44.4853 47.7186C53.0264 53.9845 57.6939 63.6163 57.6937 73.4694V79.848H64.8357V73.4694C64.8357 63.6163 60.1682 53.9845 51.6274 47.7186C50.1235 46.6153 49.2294 44.8666 49.2296 43.0015V43.0013C49.2294 41.1317 50.1301 39.3828 51.6373 38.2765Z" fill="#E4E8ED"/>
<path d="M26.2029 74.7209V73.8725C26.2029 69.6543 28.3845 65.6622 32.2728 62.4622C35.3011 59.9699 39.1042 58.6572 42.9994 58.6572C46.8946 58.6572 50.6978 59.9701 53.7262 62.4624C57.6147 65.6627 59.7963 69.6546 59.7963 73.8727V74.7211L26.2029 74.7209Z" fill="#F66819"/>
<path d="M19.9885 6.153H66.0118C67.6816 6.153 69.0352 4.77582 69.0352 3.07699C69.0352 1.37815 67.6816 0.000976562 66.0118 0.000976562H19.9885C18.3186 0.000976562 16.9649 1.37832 16.9651 3.07732C16.9653 4.77599 18.3187 6.153 19.9885 6.153Z" fill="#C1C5CB"/>
<path d="M19.9885 86.0002H66.0118C67.6816 86.0002 69.0352 84.623 69.0352 82.9242C69.0352 81.2253 67.6816 79.8481 66.0118 79.8481H19.9885C18.3186 79.8481 16.9649 81.2255 16.9651 82.9245C16.9653 84.6232 18.3187 86.0002 19.9885 86.0002Z" fill="#C1C5CB"/>
<path d="M42.9999 55.4586C42.2832 55.4586 41.7021 54.8776 41.7021 54.1609V52.4304C41.7021 51.7135 42.2832 51.1327 42.9999 51.1327C43.7166 51.1327 44.2976 51.7137 44.2976 52.4304V54.1609C44.2976 54.8776 43.7166 55.4586 42.9999 55.4586ZM42.9999 48.7101C42.2832 48.7101 41.7021 48.1291 41.7021 47.4124V45.682C41.7021 44.9651 42.2832 44.3842 42.9999 44.3842C43.7166 44.3842 44.2976 44.9652 44.2976 45.682V47.4124C44.2976 48.1291 43.7166 48.7101 42.9999 48.7101ZM42.9999 41.9616C42.2832 41.9616 41.7021 41.3806 41.7021 40.6639V38.9335C41.7021 38.2166 42.2832 37.6357 42.9999 37.6357C43.7166 37.6357 44.2976 38.2167 44.2976 38.9335V40.6639C44.2976 41.3806 43.7166 41.9616 42.9999 41.9616Z" fill="#FF9C65"/>
<path d="M26.4958 16.4536C27.3286 22.0001 29.9132 27.1161 33.8831 31.1566C36.2985 33.615 39.584 34.9834 43.0005 34.9834C46.4169 34.9834 49.7022 33.615 52.1176 31.1568C56.0874 27.1166 58.6719 22.0004 59.5047 16.4536H26.4958Z" fill="#FF9C65"/>
<path d="M66.0115 0H57.1824C58.8521 0 60.2058 1.37718 60.2058 3.07601C60.2058 4.77485 58.8521 6.15202 57.1824 6.15202H66.0115C67.6813 6.15202 69.0349 4.77485 69.0349 3.07601C69.0349 1.37718 67.6813 0 66.0115 0Z" fill="#999EA5"/>
<path d="M66.0115 79.8477H57.1824C58.8521 79.8477 60.2058 81.2248 60.2058 82.9237C60.2058 84.6225 58.8521 85.9997 57.1824 85.9997H66.0115C67.6813 85.9997 69.0349 84.6225 69.0349 82.9237C69.0349 81.2248 67.6813 79.8477 66.0115 79.8477Z" fill="#999EA5"/>
<path d="M56.6326 65.3916C57.3333 68.0227 57.6936 70.7372 57.6936 73.4694V74.7212H59.7966V73.8727C59.7964 70.8617 58.6833 67.9664 56.6326 65.3916Z" fill="#CF5A19"/>
<path d="M57.4455 16.4536C56.7041 22.3327 54.3113 27.8812 50.5613 32.502C51.1107 32.0986 51.6322 31.6506 52.1173 31.1569C56.0871 27.1168 58.6716 22.0006 59.5044 16.4538H57.4455V16.4536Z" fill="#FB8E51"/>
</svg>
