<svg width="86" height="86" viewBox="0 0 86 86" fill="none" xmlns="http://www.w3.org/2000/svg">
<g clip-path="url(#clip0_854_23279)">
<path d="M72.4488 72.4287C88.7056 56.1719 88.7056 29.8144 72.4488 13.5576C56.192 -2.6992 29.8345 -2.6992 13.5777 13.5576C-2.67916 29.8144 -2.67916 56.1719 13.5777 72.4287C29.8345 88.6855 56.192 88.6855 72.4488 72.4287Z" fill="#FF9C65"/>
<path d="M43.0227 1.3584V84.6273C66.0169 84.6273 84.6572 65.9872 84.6572 42.993C84.6572 19.9987 66.0169 1.3584 43.0227 1.3584Z" fill="#F56819"/>
<path d="M43.2806 0.0187083C43.1944 0.0158543 43.1087 0.0158543 43.0227 0.0136719V85.9861C54.0226 85.9846 65.0178 81.7774 73.4125 73.3828C81.5299 65.2653 86.0002 54.4727 86.0002 42.993C86.0002 19.3438 66.9361 0.157042 43.2806 0.0187083ZM80.8781 40.475H68.2308C67.8984 34.2543 66.3439 28.1545 63.7464 22.498C66.3237 21.0757 68.7634 19.3784 71.0306 17.4258C76.6667 23.5947 80.2954 31.6253 80.8781 40.475ZM67.3768 13.9246C65.512 15.4898 63.5179 16.8598 61.4211 18.0256C58.8636 13.6412 55.6494 9.60739 51.8752 6.09734C57.6703 7.48773 62.9518 10.2111 67.3768 13.9246ZM45.5409 7.29483C50.1115 10.8959 53.9375 15.2897 56.851 20.1763C53.2623 21.5803 49.4559 22.4332 45.5409 22.6895V7.29483ZM45.5409 27.7348C50.282 27.4612 54.8877 26.4185 59.2052 24.664C61.483 29.6477 62.8607 35.0084 63.1867 40.475H45.5409V27.7348ZM45.5409 45.5114H63.1865C62.8607 50.9778 61.483 56.3385 59.2051 61.3224C54.8875 59.5679 50.282 58.5252 45.5407 58.2515V45.5114H45.5409ZM45.5409 78.6914V63.2967C49.4559 63.5529 53.2623 64.4057 56.851 65.8099C53.9375 70.6965 50.1115 75.0903 45.5409 78.6914ZM51.8752 79.8889C55.6494 76.3788 58.8636 72.345 61.4211 67.9606C63.5178 69.1262 65.5118 70.4963 67.3768 72.0616C62.9518 75.7751 57.6703 78.4985 51.8752 79.8889ZM71.0306 68.5604C68.7634 66.6078 66.3237 64.9105 63.7464 63.4882C66.3439 57.8317 67.8983 51.7319 68.2308 45.5112H80.8781C80.2954 54.3609 76.6667 62.3915 71.0306 68.5604Z" fill="#F99157"/>
<path d="M0 43.0008C0 54.4805 4.4705 65.2731 12.5877 73.3905C20.9979 81.8006 31.99 85.9955 42.9775 85.994L43.2354 0.0263687C21.1322 -0.71046 0 18.0287 0 43.0008ZM34.5761 5.99873C30.7121 9.5709 27.4302 13.6899 24.8339 18.1729C22.6441 16.9775 20.5636 15.5609 18.6234 13.9323C23.1632 10.1226 28.6039 7.3542 34.5761 5.99873ZM14.9696 17.4334C17.3161 19.4542 19.8482 21.1992 22.5251 22.6512C19.9678 28.267 18.4363 34.3154 18.1066 40.4826H5.12205C5.70476 31.6328 9.33351 23.6022 14.9696 17.4334ZM5.12205 45.5191H18.1066C18.4363 51.6863 19.9678 57.7346 22.5251 63.3505C19.8482 64.8025 17.3161 66.5475 14.9696 68.5683C9.33351 62.3992 5.70476 54.3686 5.12205 45.5191ZM18.6234 72.0693C20.5637 70.4408 22.6441 69.0241 24.8339 67.8286C27.4302 72.3117 30.7123 76.4306 34.5761 80.0028C28.6039 78.6473 23.1632 75.8788 18.6234 72.0693ZM40.4593 78.4308C36.0047 74.8539 32.2726 70.5192 29.423 65.7104C32.9313 64.3696 36.6439 63.554 40.4593 63.3044V78.4308ZM40.4593 58.259C35.8224 58.5266 31.3155 59.5311 27.0809 61.2166C24.8338 56.2649 23.4744 50.944 23.1511 45.5189H40.4593V58.259ZM40.4593 40.4826H23.1509C23.4743 35.0574 24.8336 29.7366 27.0807 24.7849C31.3155 26.4705 35.8223 27.4749 40.4591 27.7425V40.4826H40.4593ZM40.4593 22.6972C36.6437 22.4475 32.9313 21.632 29.423 20.2911C32.2727 15.4825 36.0047 11.1476 40.4593 7.57077V22.6972Z" fill="#FFC09E"/>
</g>
<defs>
<clipPath id="clip0_854_23279">
<rect width="86" height="86" fill="white"/>
</clipPath>
</defs>
</svg>
