<svg width="86" height="86" viewBox="0 0 86 86" fill="none" xmlns="http://www.w3.org/2000/svg">
<path d="M42.3256 2.8548L7.38862 21.4497C6.46557 21.9413 6.50445 23.1773 7.45686 23.6192L27.7429 32.919L58.2469 32.9191L78.5434 23.6192C79.4965 23.1784 79.5368 21.9423 78.6143 21.4498L43.6747 2.85485C43.4805 2.75136 43.2826 2.68249 43.0008 2.68785C42.7191 2.69322 42.5013 2.76095 42.3256 2.8548Z" fill="#F56819"/>
<path d="M43.0008 14.7842C38.8238 14.7842 35.0545 15.1647 32.2375 15.8078C30.8289 16.1293 29.6632 16.5053 28.7363 17.0072C28.2729 17.2581 27.8609 17.5412 27.5133 17.931C27.1656 18.3208 26.8702 18.8797 26.8702 19.5084V30.0618L26.76 31.3347C31.1675 27.7068 36.8207 25.5318 43.0008 25.5318C49.1796 25.5318 54.8319 27.7056 59.239 31.3321L59.1288 30.0618V19.5084C59.1288 18.8797 58.8334 18.3208 58.4857 17.931C58.1382 17.5412 57.7287 17.2581 57.2653 17.0072C56.3386 16.5053 55.1727 16.1293 53.7641 15.8078C50.9471 15.1647 47.1778 14.7842 43.0008 14.7842Z" fill="#FF9C65"/>
<path d="M32.2375 15.8077C30.8289 16.1292 29.6632 16.5053 28.7363 17.0072C28.2729 17.2581 27.8609 17.5412 27.5133 17.931C27.1656 18.3208 26.8702 18.8797 26.8702 19.5084V30.0617L26.76 31.3346C27.641 30.6095 28.583 29.959 29.5578 29.3557V19.5084C29.5578 18.8797 29.8531 18.3208 30.2008 17.931C30.5485 17.5412 30.9604 17.2581 31.4239 17.0072C32.3507 16.5053 33.5165 16.1292 34.925 15.8077C37.4315 15.2356 40.714 14.8864 44.3446 14.813C43.8947 14.8039 43.4613 14.7841 43.0008 14.7841C38.8238 14.7841 35.0545 15.1647 32.2375 15.8077V15.8077Z" fill="#F08347"/>
<path d="M41.6571 22.8442H44.3447C55.5115 22.8442 64.5013 31.834 64.5013 43.0008V64.4341H21.5005V43.0008C21.5005 31.834 30.4904 22.8442 41.6571 22.8442Z" fill="#3B4857"/>
<path d="M41.6571 22.8442C30.4904 22.8442 21.5005 31.834 21.5005 43.0008V64.433H24.188V43.0008C24.188 31.834 33.1779 22.8442 44.3447 22.8442H41.6571Z" fill="#28384A"/>
<path d="M29.5697 59.1596C19.0245 59.8126 10.7509 68.8637 10.7509 79.8959V81.965C10.748 82.7072 11.3473 83.3112 12.0894 83.3142H73.9109C74.6531 83.3112 75.2523 82.7072 75.2495 81.965V79.8959C75.2495 68.8637 66.9785 59.8126 56.4333 59.1596C56.4033 59.1586 56.3737 59.1586 56.344 59.1596H29.659C29.6292 59.1586 29.5995 59.1586 29.5697 59.1596H29.5697Z" fill="#F56819"/>
<path d="M36.2863 50.39C35.5431 50.3857 34.9375 50.9854 34.9346 51.7286C34.9346 56.4349 34.9346 60.466 34.9346 64.4299C34.9375 65.1731 35.5431 65.7729 36.2863 65.7686H49.7167C50.4589 65.7714 51.0628 65.1721 51.0658 64.4299C51.0658 60.466 51.0658 56.4349 51.0658 51.7286C51.0628 50.9865 50.4589 50.3871 49.7167 50.39H36.2863Z" fill="#FFCCAA"/>
<path d="M36.2872 50.391C36.1105 50.39 35.9354 50.4238 35.7718 50.4906C35.6082 50.5573 35.4594 50.6557 35.3339 50.78C35.2083 50.9043 35.1085 51.0521 35.0402 51.215C34.9718 51.378 34.9363 51.5528 34.9355 51.7294V55.6109C37.2017 57.256 39.9835 58.2379 43.0008 58.2379C46.0182 58.2379 48.7994 57.256 51.0661 55.6109V51.7294C51.0646 51.3731 50.9217 51.0319 50.6687 50.7809C50.4157 50.5299 50.0734 50.3897 49.7171 50.391H36.2872Z" fill="#FFB889"/>
<path d="M29.571 59.1591C19.0257 59.8121 10.7503 68.8648 10.7503 79.897V81.9652C10.7476 82.7073 11.3467 83.3111 12.0888 83.3141H14.7763C14.0343 83.3111 13.4351 82.7073 13.4378 81.9652V79.897C13.4378 68.8648 21.7133 59.8121 32.2585 59.1591H29.6602C29.6305 59.1581 29.6007 59.1581 29.571 59.1591H29.571Z" fill="#F08347"/>
<path d="M32.6431 55.49L28.6064 59.5166C28.0853 60.0408 28.0853 60.8875 28.6064 61.4117L38.0211 70.8165C38.5453 71.3377 39.3919 71.3377 39.9161 70.8165L43.0001 67.7402L46.0867 70.8165C46.6109 71.3377 47.4575 71.3377 47.9817 70.8165L57.3859 61.4117C57.907 60.8875 57.907 60.0408 57.3859 59.5166L53.357 55.49C53.1004 55.2318 52.7499 55.0889 52.3859 55.0937C52.0346 55.0986 51.6992 55.2409 51.4515 55.49L43.0001 63.9421L34.5382 55.49C34.284 55.2345 33.9379 55.0917 33.5775 55.0937C33.2262 55.0986 32.8908 55.2409 32.6431 55.49V55.49Z" fill="#FF9C65"/>
<path d="M29.7587 35.9954C26.9552 35.9954 24.7482 38.4239 24.7482 41.2739C24.7482 44.1239 26.9552 46.5604 29.7587 46.5604C30.1491 46.5604 30.5331 46.4945 30.9109 46.3976C30.9107 46.3875 30.9057 46.3789 30.9057 46.3687V36.1397C30.5302 36.0465 30.1453 35.9954 29.7587 35.9954Z" fill="#FFB889"/>
<path d="M61.2573 41.2739C61.2573 44.1239 59.0503 46.5604 56.2468 46.5604C55.8564 46.5604 55.4724 46.4945 55.0946 46.3976C55.0948 46.3875 55.0997 46.3789 55.0997 46.3688V36.1397C55.4751 36.0465 55.86 35.9954 56.2468 35.9954C59.0503 35.9954 61.2573 38.4239 61.2573 41.2739Z" fill="#FFCCAA"/>
<path d="M39.6773 26.9974C39.5006 26.9953 39.3252 27.0281 39.1612 27.0939C38.9972 27.1597 38.8478 27.2572 38.7215 27.3808C38.5952 27.5044 38.4946 27.6517 38.4253 27.8143C38.356 27.9769 38.3194 28.1515 38.3177 28.3282C38.2858 31.3434 35.8633 33.7538 32.8531 33.7538H30.6012C30.2466 33.7552 29.9069 33.8967 29.6562 34.1474C29.4055 34.3982 29.264 34.7378 29.2626 35.0924V41.8383C29.2626 49.4153 35.4119 55.5505 43.0001 55.5505C50.5883 55.5505 56.7402 49.4153 56.7402 41.8383V35.0924C56.7388 34.7378 56.5973 34.3982 56.3466 34.1474C56.0959 33.8967 55.7562 33.7552 55.4017 33.7538H47.504C44.2343 33.7538 41.4817 31.367 40.987 28.1392C40.9391 27.8247 40.7813 27.5373 40.5414 27.3282C40.3016 27.1191 39.9954 27.0019 39.6773 26.9974Z" fill="#FFCCAA"/>
<path d="M17.4674 16.0852L14.7771 17.5171V36.2797H17.4674V16.0852Z" fill="#EEEEEE"/>
<path d="M14.7868 33.5923C14.0447 33.5895 13.4407 34.1888 13.4378 34.931V47.0647C13.4349 47.811 14.0406 48.4167 14.7868 48.4138H17.4691C18.2112 48.4109 18.8105 47.8069 18.8077 47.0647V34.931C18.8047 34.1929 18.2071 33.5952 17.4691 33.5923H14.7868Z" fill="#FFEE92"/>
<path d="M14.7868 33.5923C14.0446 33.5895 13.4407 34.1885 13.4378 34.9307V47.0659C13.4349 47.8122 14.0405 48.4177 14.7868 48.4148H17.4691C16.7253 48.4147 16.1225 47.8104 16.1253 47.0659V34.9307C16.1283 34.1903 16.7294 33.5924 17.4691 33.5923H14.7868Z" fill="#FFDD76"/>
<path d="M30.6024 33.755C29.8645 33.758 29.267 34.3555 29.2639 35.0934V41.8381C29.2639 47.8645 33.158 52.9669 38.568 54.8078C34.0023 52.2985 30.9069 47.4537 30.9069 41.8801V34.6237C30.908 34.3099 31.0112 34.005 31.2008 33.755H30.6024Z" fill="#FFB889"/>
<path d="M24.2483 75.2564C23.438 75.2204 22.7806 75.9048 22.8494 76.713V83.3002H25.5265V76.713C25.5913 75.9526 25.0107 75.291 24.2483 75.2564ZM61.8741 75.2564C61.0637 75.2204 60.4063 75.9048 60.4752 76.713V83.3002H63.1522V76.713C63.217 75.9526 62.6364 75.291 61.8741 75.2564Z" fill="#F08347"/>
</svg>
