<svg width="86" height="86" viewBox="0 0 86 86" fill="none" xmlns="http://www.w3.org/2000/svg">
<path d="M43 80.625C63.7797 80.625 80.625 63.7797 80.625 43C80.625 22.2203 63.7797 5.375 43 5.375C22.2203 5.375 5.375 22.2203 5.375 43C5.375 63.7797 22.2203 80.625 43 80.625Z" fill="#DFE2E6"/>
<path d="M42.9994 75.2492C60.8105 75.2492 75.2493 60.8104 75.2493 42.9993C75.2493 25.1882 60.8105 10.7494 42.9994 10.7494C25.1883 10.7494 10.7495 25.1882 10.7495 42.9993C10.7495 60.8104 25.1883 75.2492 42.9994 75.2492Z" fill="#F8F9FB"/>
<path fill-rule="evenodd" clip-rule="evenodd" d="M51.0585 32.25H45.6875C44.204 32.25 43 33.454 43 34.9375C43 36.421 44.204 37.625 45.6875 37.625H56.4375C57.9223 37.625 59.125 36.4223 59.125 34.9375V24.1875C59.125 22.704 57.921 21.5 56.4375 21.5C54.954 21.5 53.75 22.704 53.75 24.1875V27.563C50.7024 25.4358 46.995 24.1875 43 24.1875C32.6168 24.1875 24.1875 32.6168 24.1875 43C24.1875 53.3832 32.6168 61.8125 43 61.8125C52.3149 61.8125 60.0576 55.0266 61.5518 46.1323C61.7977 44.6703 60.81 43.2836 59.3467 43.0376C57.8847 42.7917 56.4966 43.7794 56.2507 45.2427C55.1838 51.5933 49.6529 56.4375 43 56.4375C35.5838 56.4375 29.5625 50.4162 29.5625 43C29.5625 35.5838 35.5838 29.5625 43 29.5625C46.0221 29.5625 48.813 30.5623 51.0585 32.25Z" fill="#F56819"/>
</svg>
