<svg width="80" height="80" viewBox="0 0 80 80" fill="none" xmlns="http://www.w3.org/2000/svg">
<g clip-path="url(#clip0_853_22434)">
<path d="M23.9839 68.008C23.9839 61.3851 18.6149 56.0161 11.992 56.0161C9.41006 56.0161 7.01891 56.8326 5.06205 58.2208C5.06205 58.2208 4.48209 58.7428 4.16982 59.0171C1.6668 61.2149 0.583984 64.3639 0.583984 67.9567C0.583984 74.5796 5.37674 79.1352 11.9997 79.1352C15.1047 79.1352 17.806 78.5918 19.9358 76.6557C20.5777 76.0721 21.7792 74.9381 21.7792 74.9381C23.1673 72.981 23.9839 70.5899 23.9839 68.008Z" fill="#FFEE92"/>
<path d="M21.7792 74.9379C19.6093 78.0011 16.0338 80 11.992 80C5.36821 80 0 74.6318 0 68.008C0 63.9662 1.99887 60.3906 5.06205 58.2208C3.67292 60.1782 2.85714 62.569 2.85714 65.1509C2.85714 71.7746 8.22535 77.1428 14.8491 77.1428C17.431 77.1428 19.8218 76.3271 21.7792 74.9379Z" fill="#FEDB75"/>
<path d="M79.9839 67.992C79.9839 61.369 74.6149 56 67.992 56C65.4101 56 63.0189 56.8166 61.0621 58.2047C61.0621 58.2047 60.4821 58.7268 60.1698 59.001C57.6668 61.1989 56.584 64.3478 56.584 67.9406C56.584 74.5635 61.3767 79.1192 67.9997 79.1192C71.1047 79.1192 73.806 78.5758 75.9358 76.6397C76.5777 76.056 77.7792 74.922 77.7792 74.922C79.1673 72.965 79.9839 70.5738 79.9839 67.992Z" fill="#33A8F8"/>
<path d="M77.7792 74.9219C75.6093 77.9851 72.0338 79.9839 67.992 79.9839C61.3682 79.9839 56 74.6157 56 67.992C56 63.9501 57.9989 60.3746 61.0621 58.2048C59.6729 60.1621 58.8571 62.5529 58.8571 65.1348C58.8571 71.7586 64.2254 77.1268 70.8491 77.1268C73.431 77.1268 75.8218 76.311 77.7792 74.9219Z" fill="#0069AF"/>
<path d="M80 11.992C80 5.36901 74.631 0 68.0081 0C65.4262 0 63.035 0.816579 61.0782 2.20475C61.0782 2.20475 60.4982 2.72676 60.1859 3.00105C57.6829 5.19887 56.6001 8.34801 56.6001 11.9406C56.6001 18.5635 61.3929 23.1192 68.0158 23.1192C71.1208 23.1192 73.8222 22.5758 75.9519 20.6397C76.5938 20.056 77.7953 18.922 77.7953 18.922C79.1834 16.965 80 14.5738 80 11.992Z" fill="#FF9C65"/>
<path d="M77.7953 18.9218C75.6255 21.985 72.0499 23.9839 68.0081 23.9839C61.3843 23.9839 56.0161 18.6157 56.0161 11.9919C56.0161 7.95006 58.015 4.37453 61.0782 2.20471C59.689 4.16206 58.8733 6.55288 58.8733 9.13477C58.8733 15.7585 64.2415 21.1267 70.8652 21.1267C73.4471 21.1267 75.8379 20.311 77.7953 18.9218Z" fill="#F66819"/>
<path d="M17.666 72.5705L13.3823 61.2198C13.3782 61.2089 13.3738 61.1979 13.3693 61.1872C13.142 60.6342 12.6092 60.2772 12.0114 60.2772C12.0111 60.2772 12.0106 60.2772 12.0101 60.2772C11.412 60.2779 10.879 60.636 10.6525 61.1897C10.6488 61.1988 10.6453 61.2078 10.6417 61.2171L6.319 72.5673C6.08174 73.1902 6.39433 73.8877 7.01743 74.1251C7.15892 74.179 7.30411 74.2045 7.44689 74.2045C7.93333 74.2045 8.39192 73.9083 8.57526 73.4265L9.35578 71.3774H14.635L15.4071 73.4233C15.6425 74.0469 16.339 74.3619 16.9629 74.1264C17.5866 73.8909 17.9015 73.1944 17.666 72.5705ZM10.2755 68.9628L12.0075 64.4152L13.7237 68.9628H10.2755Z" fill="#F9F8F9"/>
<path d="M72.1045 11.1548C72.5703 10.5175 72.846 9.73295 72.846 8.88482C72.846 6.75846 71.1161 5.02856 68.9898 5.02856H65.6457C64.979 5.02856 64.4385 5.56893 64.4385 6.23581V11.5369V11.5456V17.7481C64.4385 18.0692 64.5664 18.377 64.7939 18.6036C65.0202 18.8288 65.3265 18.9553 65.6457 18.9553H65.651C65.6512 18.9553 68.7261 18.9416 69.5738 18.9416C71.948 18.9416 73.8798 17.0101 73.8798 14.6356C73.8799 13.2064 73.1796 11.9383 72.1045 11.1548ZM68.9899 7.44305C69.7848 7.44305 70.4317 8.08997 70.4317 8.88482C70.4317 9.67967 69.785 10.3264 68.9899 10.3264C68.7429 10.3264 68.2769 10.3277 67.7692 10.3297H66.8531V7.44305H68.9899ZM69.5739 16.5272C69.0767 16.5272 67.8147 16.5318 66.8531 16.5358V12.7477C67.1509 12.7466 67.4719 12.7453 67.7782 12.7441H69.5739C70.6168 12.7441 71.4654 13.5926 71.4654 14.6356C71.4654 15.6787 70.617 16.5272 69.5739 16.5272Z" fill="#F9F8F9"/>
<path d="M53.752 25.0056L46.1563 25.7528C45.2012 25.8466 44.7853 27.0089 45.4639 27.6875L46.8414 29.065C46.9746 29.1982 46.9746 29.4141 46.8414 29.5473L22.0999 54.2886C21.9667 54.4218 21.9667 54.6376 22.0999 54.7708L25.2291 57.9001C25.3623 58.0333 25.5781 58.0333 25.7113 57.9001L50.4527 33.1587C50.5859 33.0255 50.8018 33.0255 50.935 33.1587L52.3125 34.5362C52.9911 35.2148 54.1532 34.7989 54.2472 33.8438L54.9944 26.248C55.0645 25.5348 54.4652 24.9355 53.752 25.0056Z" fill="#E8E8E8"/>
<path d="M68.4083 53.0847L72.9867 47.7721C73.5624 47.1042 73.1022 46.0674 72.2206 46.0463L70.4311 46.0034C70.258 45.9993 70.1212 45.8557 70.1253 45.6827L70.5844 26.5319C70.5886 26.3588 70.4517 26.2153 70.2787 26.2111L66.2135 26.1136C66.0404 26.1095 65.8969 26.2463 65.8927 26.4194L65.4338 45.5701C65.4296 45.7432 65.2861 45.88 65.113 45.8759L63.3235 45.833C62.4418 45.8119 61.9326 46.8253 62.4756 47.5201L66.7943 53.046C67.1998 53.5648 67.9784 53.5835 68.4083 53.0847Z" fill="#E8E8E8"/>
<path d="M62 67.464C62 69.288 62.624 70.824 63.856 72.056C65.088 73.288 66.624 73.896 68.448 73.896C69.712 73.896 70.896 73.56 71.968 72.904C72.7795 72.4028 73.4041 71.768 73.8418 70.9997C74.0984 70.5492 73.8629 70.0008 73.3924 69.7829L72.7951 69.5063C72.2757 69.2658 71.6701 69.5222 71.3229 69.9773C70.6595 70.847 69.6484 71.384 68.48 71.384C67.376 71.384 66.48 71 65.76 70.248C65.04 69.48 64.688 68.536 64.688 67.432C64.688 66.344 65.056 65.416 65.776 64.664C66.496 63.912 67.408 63.528 68.48 63.528C69.6475 63.528 70.643 64.017 71.2894 64.8518C71.6439 65.3097 72.2546 65.5788 72.7808 65.337L73.337 65.0815C73.8108 64.8638 74.0472 64.3118 73.7884 63.8591C73.3574 63.1048 72.7505 62.4781 71.968 61.992C70.928 61.336 69.76 61 68.496 61C66.688 61 65.152 61.624 63.888 62.888C62.624 64.136 62 65.656 62 67.464Z" fill="#F9F8F9"/>
</g>
<defs>
<clipPath id="clip0_853_22434">
<rect width="80" height="80" fill="white"/>
</clipPath>
</defs>
</svg>
