<svg width="80" height="80" viewBox="0 0 80 80" fill="none" xmlns="http://www.w3.org/2000/svg">
<g opacity="0.8" clip-path="url(#clip0_853_22435)">
<path d="M20.4115 75.1245H27.6731C28.9853 75.1245 30.2754 75.463 31.4184 76.1076L35.9051 78.6376C37.0483 79.2821 38.3383 79.6207 39.6504 79.6207H61.0711C63.5253 79.6207 65.6039 77.6966 65.667 75.2432C65.7323 72.7057 63.695 70.6282 61.1723 70.6282H63.9508C66.405 70.6282 68.4836 68.7041 68.5467 66.2507C68.6122 63.7132 66.5747 61.6357 64.052 61.6357H65.1967C67.6509 61.6357 69.7295 59.7116 69.7926 57.2582C69.8581 54.7207 67.8206 52.6432 65.2979 52.6432H66.7283C69.1825 52.6432 71.2611 50.7191 71.3242 48.2657C71.3897 45.7282 69.3522 43.6507 66.8295 43.6507H48.8295C47.8197 43.6507 47.0939 42.6674 47.4047 41.7065C47.9804 39.9263 48.2334 38.4435 48.455 36.203C48.6675 34.054 48.6595 31.7733 48.5212 29.5258C48.3543 26.8121 46.0993 24.6988 43.3804 24.699H43.2372C40.5508 24.6991 38.3162 26.7637 38.1037 29.4416C37.682 34.7573 37.0072 40.4209 33.8014 43.7032C31.1954 46.3713 27.5409 47.3885 23.8918 47.3885H20.4112L17.1926 61.6354L20.4115 75.1245Z" fill="#FFE5C2"/>
<path d="M65.7692 0.855352L69.4032 8.21863C69.6267 8.67145 70.0587 8.98535 70.5586 9.05801L78.6843 10.2388C79.9429 10.4216 80.4454 11.9683 79.5346 12.856L73.6546 18.5875C73.2931 18.94 73.1279 19.4479 73.2134 19.9457L74.6015 28.0386C74.8165 29.2921 73.5009 30.248 72.3753 29.6561L65.1073 25.8352C64.6603 25.6002 64.1262 25.6002 63.6793 25.8352L56.4114 29.6561C55.2857 30.248 53.9701 29.2921 54.1851 28.0386L55.5732 19.9457C55.6586 19.4479 55.4936 18.94 55.132 18.5875L49.252 12.856C48.3414 11.9683 48.8439 10.4216 50.1023 10.2388L58.2281 9.05801C58.7278 8.98535 59.1598 8.67145 59.3834 8.21863L63.0175 0.855352C63.5801 -0.285117 65.2064 -0.285117 65.7692 0.855352Z" fill="#FFEE92"/>
<path d="M73.6543 18.5868C73.2938 18.9393 73.128 19.4477 73.2133 19.9451L74.6021 28.0384C74.8161 29.292 73.5013 30.2479 72.3749 29.6557L70.3005 28.5646C70.7961 28.2556 71.118 27.6715 71.0022 27.002L69.615 18.9087C69.5297 18.4113 69.6939 17.9029 70.056 17.5504L75.9365 11.8196C76.5077 11.2612 76.5222 10.4452 76.1424 9.86914L78.6851 10.2393C79.9435 10.4212 80.4457 11.9677 79.5347 12.856L73.6543 18.5868Z" fill="#FEE291"/>
<path d="M23.9158 16.411L26.0575 20.7505C26.1893 21.0174 26.4439 21.2024 26.7385 21.2452L31.5274 21.9411C32.2691 22.0489 32.5652 22.9603 32.0285 23.4836L28.5632 26.8614C28.35 27.0692 28.2528 27.3685 28.3032 27.6619L29.1213 32.4314C29.248 33.1702 28.4727 33.7335 27.8093 33.3847L23.526 31.1328C23.2625 30.9944 22.9478 30.9944 22.6844 31.1328L18.4011 33.3847C17.7377 33.7335 16.9624 33.1702 17.0891 32.4314L17.9072 27.6619C17.9575 27.3686 17.8603 27.0692 17.6472 26.8614L14.1813 23.4835C13.6446 22.9603 13.9408 22.0488 14.6824 21.941L19.4713 21.245C19.7658 21.2022 20.0205 21.0172 20.1522 20.7503L22.2939 16.4108C22.6257 15.7389 23.5841 15.7389 23.9158 16.411Z" fill="#FEDB75"/>
<path d="M28.563 26.8618C28.3505 27.0694 28.2524 27.3687 28.3039 27.6616L29.1214 32.4316C29.2486 33.1704 28.4728 33.7335 27.8099 33.3844L25.6277 32.2369C25.8256 32.0438 25.9367 31.759 25.8819 31.4419L25.0644 26.6719C25.0146 26.3791 25.1111 26.0798 25.3235 25.8721L28.7899 22.4941C29.0553 22.2351 29.1166 21.881 29.02 21.5768L31.5274 21.9405C32.2692 22.0483 32.5653 22.9608 32.0278 23.4838L28.563 26.8618Z" fill="#FCCB53"/>
<path d="M0 47.3882H20.4116V75.1244H0V47.3882Z" fill="#33A8F8"/>
<path d="M17.193 47.3882H20.4116V75.1244H17.193V47.3882Z" fill="#0069AF"/>
<path d="M48.8289 43.6502H45.3045C44.2955 43.6502 43.5697 42.6669 43.8803 41.7061C44.4564 39.9263 44.7091 38.4441 44.9313 36.2022C45.1438 34.0538 45.1356 31.7735 44.9972 29.5252C44.8669 27.4026 43.457 25.6468 41.5469 24.9838C42.0764 24.7988 42.6461 24.699 43.2367 24.699H43.3816C46.0997 24.699 48.3544 26.8119 48.5217 29.5254C48.6602 31.7737 48.6681 34.054 48.4558 36.2024C48.2338 38.4441 47.9811 39.9263 47.4048 41.7063C47.0941 42.6669 47.82 43.6502 48.8289 43.6502Z" fill="#FED2A4"/>
<path d="M71.3241 48.2657C71.2613 50.7183 69.1821 52.643 66.7279 52.643H65.2988C67.8207 52.643 69.858 54.7207 69.7936 57.2585C69.7293 59.7111 67.6516 61.6358 65.1974 61.6358H64.0516C66.575 61.6358 68.6124 63.7135 68.5464 66.2513C68.4836 68.704 66.4044 70.6286 63.9502 70.6286H61.1725C63.696 70.6286 65.7333 72.7063 65.6674 75.2426C65.6046 77.6968 63.5254 79.6199 61.0711 79.6199H57.5468C60.001 79.6199 62.0802 77.6968 62.143 75.2426C62.2089 72.7063 60.17 70.6286 57.6482 70.6286H60.4258C62.88 70.6286 64.9593 68.704 65.0221 66.2513C65.088 63.7135 63.0507 61.6358 60.5272 61.6358H61.673C64.1272 61.6358 66.2049 59.7111 66.2675 57.2585C66.3335 54.7207 64.2961 52.643 61.7743 52.643H63.2033C65.6575 52.643 67.7368 50.7183 67.7996 48.2657C67.8655 45.7279 65.8282 43.6502 63.3047 43.6502H66.8291C69.3525 43.6502 71.39 45.7279 71.3241 48.2657Z" fill="#FED2A4"/>
</g>
<defs>
<clipPath id="clip0_853_22435">
<rect width="80" height="80" fill="white"/>
</clipPath>
</defs>
</svg>
