<svg width="60" height="60" viewBox="0 0 60 60" fill="none" xmlns="http://www.w3.org/2000/svg">
<circle cx="30" cy="30" r="30" fill="#00DCB4"/>
<path d="M36.5385 26.5384H43V23.5384C43 21.6297 41.4472 20.0769 39.5385 20.0769H22.4615C20.5528 20.0769 19 21.6297 19 23.5384V36.4615C19 38.3702 20.5528 39.923 22.4615 39.923H39.5385C41.4472 39.923 43 38.3702 43 36.4615V33.4615H36.5385C34.6298 33.4615 33.0769 31.9087 33.0769 30C33.0769 28.0913 34.6298 26.5384 36.5385 26.5384Z" fill="white"/>
<path d="M36.5382 27.9231C35.393 27.9231 34.4613 28.8548 34.4613 30C34.4613 31.1453 35.393 32.077 36.5382 32.077H42.9998V27.9231H36.5382V27.9231ZM37.4613 30.6923H36.5382C36.1559 30.6923 35.8459 30.3823 35.8459 30C35.8459 29.6177 36.1559 29.3077 36.5382 29.3077H37.4613C37.8437 29.3077 38.1536 29.6177 38.1536 30C38.1536 30.3823 37.8437 30.6923 37.4613 30.6923Z" fill="white"/>
</svg>
