<svg width="28" height="28" viewBox="0 0 28 28" fill="none" xmlns="http://www.w3.org/2000/svg">
<g clip-path="url(#clip0)">
<path d="M7.71941 15.9997C7.35171 11.2183 7.76979 7.68128 8.99749 5.18652C9.19386 4.78752 9.40427 4.43068 9.62373 4.11035C8.5912 4.87145 7.48482 6.02344 6.53118 7.7685C5.78346 9.13671 5.15048 11.7612 4.83788 14.7891C4.64052 16.7001 4.60362 18.9327 4.75 20.0977L4.84045 20.8175H6.99838C7.01368 20.7834 7.02908 20.7501 7.04427 20.7148C7.4459 19.7811 7.88903 18.2052 7.71941 15.9997Z" fill="#FF367E"/>
<path d="M16.6586 0C16.5988 0.00230255 16.1739 0.025328 15.6444 0.218249C15.2768 0.425972 14.9739 0.691204 14.7391 1.0151C14.2934 1.63004 14.2503 2.24702 14.2502 2.25294L14.0651 2.78077L13.5764 2.98147C12.1955 3.54872 8.52733 5.05552 9.35921 15.8733C9.52187 17.9885 9.19682 19.6387 8.75901 20.8474H20.2247C20.1718 20.2865 20.0126 19.6048 19.6351 18.7842C19.0713 17.5586 16.56 12.2973 16.2438 11.4679C16.4341 11.4676 16.6247 11.4567 16.8147 11.435C17.6724 11.3371 18.078 11.1791 18.3742 11.0638C18.7015 10.9362 18.8369 10.8836 19.8193 11.1236L22.3589 11.7666C22.463 11.7921 22.5656 11.8039 22.6669 11.8039C23.8261 11.8036 24.773 10.2523 24.9922 9.86298C25.2569 9.46694 25.351 8.99288 25.2572 8.52464C25.1616 8.04736 24.8834 7.63959 24.4739 7.3766C24.1135 7.14514 20.0733 3.84542 18.3265 2.86509C17.9296 2.64234 17.5099 2.47798 17.0739 2.37431V0L16.6586 0ZM16.3884 6.60876C16.3685 6.16464 16.7806 5.78642 17.2107 5.78642C17.6717 5.78642 18.0131 6.16321 18.0331 6.60876C18.053 7.05288 17.6409 7.4311 17.2107 7.4311C16.7497 7.4311 16.4084 7.0543 16.3884 6.60876Z" fill="#FF367E"/>
<path d="M5.83001 22.4922C5.24889 22.4922 4.69403 22.769 4.37205 23.2528C4.18862 23.5284 4.0816 23.8591 4.0816 24.2144V24.7139H23.5346V24.2144C23.5346 23.8591 23.4276 23.5284 23.2442 23.2528C22.9222 22.769 22.3674 22.4922 21.7862 22.4922H5.83001Z" fill="#FF367E"/>
<path d="M2.70742 26.3584H24.9088V27.9999H2.70742V26.3584Z" fill="#FF367E"/>
</g>
<defs>
<clipPath id="clip0">
<rect width="28" height="28" fill="white"/>
</clipPath>
</defs>
</svg>
