<svg width="28" height="28" viewBox="0 0 28 28" fill="none" xmlns="http://www.w3.org/2000/svg">
<g clip-path="url(#clip0)">
<path d="M20.9673 3.56315L6.54033 9.33349H2.625C1.17833 9.33349 0 10.5118 0 11.9585V15.1668C0 16.5412 1.07917 17.5002 2.625 17.5002H3.61667L4.676 24.9155C4.73783 25.3472 5.1065 25.6668 5.54167 25.6668H9.04167C9.29133 25.6668 9.52817 25.5607 9.695 25.3752C9.86067 25.1897 9.94 24.9423 9.912 24.6938L9.22367 18.5735L20.9662 23.2705C21.0723 23.3125 21.182 23.3335 21.2917 23.3335C21.4632 23.3335 21.6358 23.2822 21.7828 23.183C22.0232 23.0197 22.1667 22.749 22.1667 22.4585V4.37515C22.1667 4.08465 22.0232 3.81399 21.7828 3.65065C21.5413 3.48732 21.2357 3.45465 20.9673 3.56315Z" fill="#E840F7"/>
<path d="M24.7555 10.8921L27.6722 8.55875C28.049 8.25659 28.1108 7.70592 27.8087 7.32792C27.5053 6.95225 26.9558 6.89158 26.5778 7.19142L23.6612 9.52475C23.2843 9.82692 23.2225 10.3776 23.5247 10.7556C23.6973 10.9703 23.9517 11.0834 24.2083 11.0834C24.4008 11.0834 24.5933 11.0204 24.7555 10.8921Z" fill="#E840F7"/>
<path d="M24.7555 17.1079C24.3798 16.8081 23.8292 16.8688 23.5247 17.2444C23.2225 17.6213 23.2843 18.1731 23.6612 18.4753L26.5778 20.8086C26.74 20.9369 26.9325 20.9999 27.125 20.9999C27.3817 20.9999 27.636 20.8868 27.8087 20.6721C28.1108 20.2953 28.049 19.7434 27.6722 19.4413L24.7555 17.1079Z" fill="#E840F7"/>
<path d="M27.125 13.125H24.2083C23.7253 13.125 23.3333 13.517 23.3333 14C23.3333 14.483 23.7253 14.875 24.2083 14.875H27.125C27.608 14.875 28 14.483 28 14C28 13.517 27.608 13.125 27.125 13.125Z" fill="#E840F7"/>
</g>
<defs>
<clipPath id="clip0">
<rect width="28" height="28" fill="white"/>
</clipPath>
</defs>
</svg>
