<svg width="45" height="45" viewBox="0 0 45 45" fill="none" xmlns="http://www.w3.org/2000/svg">
<circle cx="22.4833" cy="22.2117" r="22" fill="#39C3FF"/>
<path d="M31 30V28C31 26.9391 30.5786 25.9217 29.8284 25.1716C29.0783 24.4214 28.0609 24 27 24H19C17.9391 24 16.9217 24.4214 16.1716 25.1716C15.4214 25.9217 15 26.9391 15 28V30" stroke="white" stroke-width="2" stroke-linecap="round" stroke-linejoin="round"/>
<path d="M23 20C25.2091 20 27 18.2091 27 16C27 13.7909 25.2091 12 23 12C20.7909 12 19 13.7909 19 16C19 18.2091 20.7909 20 23 20Z" stroke="white" stroke-width="2" stroke-linecap="round" stroke-linejoin="round"/>
</svg>
