<svg width="60" height="60" viewBox="0 0 60 60" fill="none" xmlns="http://www.w3.org/2000/svg">
<circle cx="30" cy="30" r="30" fill="#8263FF"/>
<g clip-path="url(#clip0)">
<path d="M44.0002 34.9493C44.0002 31.4747 42.0069 28.3737 39.0215 26.8654C38.9288 33.5274 33.5275 38.9286 26.8655 39.0214C28.3739 42.0067 31.4748 44.0001 34.9494 44.0001C36.5785 44.0001 38.1627 43.5662 39.5547 42.7418L43.9607 43.9605L42.7419 39.5546C43.5663 38.1626 44.0002 36.5784 44.0002 34.9493Z" fill="white"/>
<path d="M37.3828 26.6914C37.3828 20.7961 32.5868 16 26.6914 16C20.7961 16 16 20.7961 16 26.6914C16 28.6127 16.5114 30.4834 17.4825 32.1258L16.0393 37.3433L21.257 35.9003C22.8994 36.8714 24.7701 37.3828 26.6914 37.3828C32.5868 37.3828 37.3828 32.5868 37.3828 26.6914ZM25.0508 24.2031H23.4102C23.4102 22.3937 24.882 20.9219 26.6914 20.9219C28.5008 20.9219 29.9727 22.3937 29.9727 24.2031C29.9727 25.1215 29.5839 26.0042 28.9056 26.6245L27.5117 27.9003V29.1797H25.8711V27.1778L27.798 25.4142C28.1423 25.0991 28.332 24.669 28.332 24.2031C28.332 23.2984 27.5961 22.5625 26.6914 22.5625C25.7867 22.5625 25.0508 23.2984 25.0508 24.2031ZM25.8711 30.8203H27.5117V32.4609H25.8711V30.8203Z" fill="white"/>
</g>
<defs>
<clipPath id="clip0">
<rect width="28" height="28" fill="white" transform="translate(16 16)"/>
</clipPath>
</defs>
</svg>
