<svg width="80" height="81" fill="none" xmlns="http://www.w3.org/2000/svg"><g clip-path="url(#clip0)"><path d="M59.188 46.791c-.66 0-1.195-.534-1.195-1.194V2.19a1.194 1.194 0 112.39 0v43.406c0 .66-.536 1.194-1.195 1.194z" fill="#DFE2E6"/><path d="M24.617 79.802H9.397v-5.37a2.829 2.829 0 012.829-2.828h9.563a2.828 2.828 0 012.828 2.828v5.37z" fill="#EDF0F3"/><path d="M39.837 79.802h-15.22V67.41a2.829 2.829 0 012.829-2.828h9.562a2.829 2.829 0 012.829 2.828v12.392z" fill="#E4E8ED"/><path d="M55.057 79.802h-15.22V59.867a2.828 2.828 0 012.828-2.828h9.563a2.828 2.828 0 012.829 2.828v19.935z" fill="#DFE2E6"/><path d="M70.276 79.802h-15.22V48.425a2.828 2.828 0 012.829-2.828h9.562a2.829 2.829 0 012.83 2.828v31.377z" fill="#C1C5CB"/><path d="M74.495 80.996H5.413a1.194 1.194 0 110-2.389h69.082a1.194 1.194 0 110 2.39z" fill="#7C6D61"/><path d="M59.188 13.547h15.308a.514.514 0 00.34-.9L70.86 9.145a.514.514 0 010-.772l3.976-3.502a.515.515 0 00-.34-.9H59.188v9.576z" fill="#FFEE92"/><path d="M60.407 18.03l-16.583 9.006c-1.48.804-1.884 2.216-2.4 4.036l-3.298 11.663 4.355 1.496 3.726-4.809 3.137-9.482 8.345-5.071a6.108 6.108 0 002.718-6.84z" fill="#FF9C65"/><path d="M60.407 18.03l-1.913 1.038a6.105 6.105 0 01-2.822 4.049l-7.604 4.62a2.36 2.36 0 00-1.015 1.275l-1.086 3.283a12.308 12.308 0 01-7.017 7.523l-.825 2.917 8.082-3.312 3.137-9.483 8.345-5.071a6.108 6.108 0 002.718-6.84z" fill="#F56819"/><path d="M46.207 39.423l4.776 5.644c.791 1.048 1.48 1.785 1.337 2.938l-1.117 9.029h-2.915l-.761-7.762a1.296 1.296 0 00-.777-1.064l-8.624-5.473 8.081-3.312z" fill="#6D543F"/><path d="M38.125 42.735l-.465 8.558c-.03.71.069 1.19-.21 1.717l-5.498 11.572h3.091l8.269-10.985c.483-.563.54-1.327.702-2.03l2.192-12.144-8.08 3.312z" fill="#7C6D61"/><path d="M45.615 19.877l1.356 2.647a2.531 2.531 0 01-1.1 3.407l-1.047.537a2.531 2.531 0 01-3.407-1.1l-1.356-2.647a2.531 2.531 0 011.099-3.407l1.048-.537a2.532 2.532 0 013.407 1.1z" fill="#FFCAAC"/></g><defs><clipPath id="clip0"><path fill="#fff" transform="translate(0 .996)" d="M0 0h80v80H0z"/></clipPath></defs></svg>