<svg width="52" height="52" fill="none" xmlns="http://www.w3.org/2000/svg"><g clip-path="url(#clip0)"><path d="M31.218 34.486l4.583-2.491 7.975 14.67a.672.672 0 01-.574.993l-4.417.107a.672.672 0 00-.539.293l-2.492 3.649a.672.672 0 01-1.145-.058l-7.975-14.671 4.584-2.492zm-10.436 0l-4.584-2.491-7.974 14.67a.672.672 0 00.574.993l4.417.107a.672.672 0 01.539.293l2.492 3.649a.672.672 0 001.145-.058l7.975-14.671-4.584-2.492z" fill="#FFEE92"/><path d="M43.202 47.658l-1.556.038-7.922-14.572 2.077-1.13 7.975 14.672a.672.672 0 01-.574.992zM25.365 36.977L17.39 51.649a.67.67 0 01-1.144.057l-.959-1.405a.67.67 0 00.128-.168l7.79-14.33 2.16 1.174z" fill="#FFDD76"/><path d="M46.4 20.4c0 1.752-1.872 3.234-2.304 4.85-.447 1.671.42 3.889-.427 5.352-.858 1.485-3.22 1.837-4.425 3.042-1.205 1.205-1.557 3.567-3.042 4.426-1.464.846-3.68-.02-5.352.426-1.616.432-3.098 2.304-4.85 2.304-1.752 0-3.234-1.872-4.85-2.304-1.671-.447-3.888.42-5.352-.426-1.485-.86-1.837-3.221-3.042-4.426-1.205-1.205-3.567-1.557-4.426-3.042-.846-1.464.02-3.68-.426-5.352C7.472 23.634 5.6 22.152 5.6 20.4c0-1.752 1.872-3.234 2.304-4.85.446-1.671-.42-3.889.426-5.352.86-1.485 3.221-1.837 4.426-3.042 1.205-1.205 1.557-3.567 3.042-4.426 1.464-.846 3.68.02 5.352-.426C22.766 1.872 24.248 0 26 0c1.752 0 3.234 1.872 4.85 2.304 1.671.447 3.888-.42 5.352.427 1.485.858 1.837 3.22 3.042 4.425 1.205 1.205 3.567 1.558 4.425 3.042.847 1.464-.02 3.68.427 5.352.432 1.616 2.304 3.098 2.304 4.85z" fill="#F56819"/><path d="M44.096 25.25c-.447 1.67.42 3.889-.426 5.352-.86 1.485-3.221 1.838-4.426 3.042-1.204 1.205-1.557 3.567-3.042 4.426-1.464.846-3.681-.021-5.352.426-1.616.432-3.098 2.303-4.85 2.303-.858 0-1.651-.448-2.427-.957.41.27 1.802-.417 2.186-.596 1.041-.486 1.956-1.186 2.938-1.773a7.12 7.12 0 013.3-.997c1.103-.05 2.253.025 3.25-.552.72-.417 1.042-1.14 1.32-1.886.418-1.12 1.015-1.898 1.966-2.607.843-.63 2.028-.804 2.595-1.784.547-.944.494-2.28.448-3.334-.025-.573-.082-1.15-.005-1.717.23-1.704 1.866-2.788 2.139-4.463.19-1.173-.664-1.952-1.256-2.819-.753-1.103-1.021-2.681-1.049-3.98-.029-1.315-.238-2.702-1.453-3.45-.545-.336-1.194-.368-1.674-.844-1.868-1.847-2.21-4.752-3.94-6.7.68-.002 1.324.078 1.864.39 1.485.859 1.837 3.221 3.042 4.426 1.205 1.204 3.567 1.557 4.426 3.041.846 1.464-.021 3.682.426 5.353.432 1.616 2.303 3.098 2.303 4.85 0 1.752-1.871 3.234-2.303 4.85z" fill="#F56819"/><path d="M26 35.852c8.534 0 15.452-6.918 15.452-15.452 0-8.534-6.918-15.452-15.452-15.452-8.534 0-15.452 6.918-15.452 15.452 0 8.534 6.918 15.452 15.452 15.452z" fill="#fff"/><path d="M41.452 20.4c0 8.534-6.918 15.452-15.452 15.452a15.38 15.38 0 01-8.273-2.399 15.394 15.394 0 006.546 1.451c8.535 0 15.452-6.917 15.452-15.452 0-5.49-2.863-10.312-7.178-13.053 5.26 2.465 8.905 7.807 8.905 14.001z" fill="#E4E8ED"/><path d="M17.202 12.394c.373-.217.732-.325 1.08-.325.346 0 .623.104.831.312.217.208.325.49.325.845v6.955c0 .381-.112.676-.338.884-.225.2-.516.299-.87.299-.348 0-.634-.1-.859-.3-.216-.207-.325-.502-.325-.883v-5.486l-1.053.61a.886.886 0 01-.455.13c-.242 0-.45-.103-.624-.311a1.085 1.085 0 01-.26-.715.9.9 0 01.117-.442.94.94 0 01.351-.364l2.08-1.21zm9.148 2.86c.52 0 .987.13 1.403.39.416.251.741.607.975 1.066.243.45.364.962.364 1.534 0 .607-.139 1.153-.416 1.638-.269.477-.646.85-1.13 1.118-.486.269-1.037.403-1.652.403-1.222 0-2.167-.399-2.834-1.196-.667-.797-1-1.933-1-3.406 0-.97.155-1.816.467-2.535.32-.728.767-1.287 1.34-1.677.58-.39 1.256-.585 2.027-.585.485 0 .98.078 1.482.234.511.156.95.373 1.313.65.147.113.251.23.312.35.07.122.104.274.104.456 0 .269-.078.498-.234.689a.677.677 0 01-.546.273.946.946 0 01-.325-.052 7.986 7.986 0 01-.39-.195l-.286-.143a7.865 7.865 0 00-.715-.312c-.19-.07-.39-.104-.598-.104-.442 0-.802.204-1.079.61-.269.4-.429.963-.48 1.69a2.03 2.03 0 01.792-.65 2.488 2.488 0 011.105-.246zm-.599 4.316c.338 0 .607-.113.806-.338.2-.225.3-.524.3-.897 0-.381-.1-.68-.3-.897-.19-.225-.46-.338-.806-.338-.338 0-.61.113-.819.338-.2.225-.299.524-.299.897 0 .364.104.663.312.897.208.225.477.338.806.338zm7.613 1.833c-1.135 0-2.002-.403-2.6-1.21-.598-.805-.897-1.97-.897-3.496 0-1.517.299-2.678.897-3.484.598-.806 1.465-1.21 2.6-1.21 1.127 0 1.989.404 2.587 1.21.607.806.91 1.967.91 3.484 0 1.525-.299 2.69-.897 3.497-.598.806-1.465 1.209-2.6 1.209zm0-1.807c.416 0 .715-.225.897-.676.182-.45.273-1.192.273-2.223 0-1.023-.091-1.76-.273-2.21-.182-.45-.481-.676-.897-.676-.416 0-.715.225-.897.676-.182.442-.273 1.179-.273 2.21s.091 1.772.273 2.223c.182.45.481.676.897.676zm-5.39 6.712c.217 0 .399.074.546.221.147.148.221.33.221.546a.786.786 0 01-.22.56.741.741 0 01-.547.22h-1.638v1.625a.742.742 0 01-.22.546.715.715 0 01-.547.221.741.741 0 01-.546-.22.742.742 0 01-.22-.547v-1.625h-1.639a.741.741 0 01-.546-.22.786.786 0 01-.22-.56c0-.216.073-.398.22-.546a.742.742 0 01.546-.22h1.638V24.67c0-.216.074-.398.221-.546a.742.742 0 01.546-.22c.217 0 .399.073.546.22.147.148.221.33.221.546v1.638h1.638z" fill="#7C6D61"/></g><defs><clipPath id="clip0"><path fill="#fff" d="M0 0h52v52H0z"/></clipPath></defs></svg>