<svg width="419" height="156" viewBox="0 0 419 156" fill="none" xmlns="http://www.w3.org/2000/svg">
<path opacity="0.2" d="M179.503 198.14C163.761 177.521 167.715 148.045 188.335 132.303L324.299 28.5025C344.918 12.761 374.395 16.7152 390.136 37.3345C405.878 57.9537 401.924 87.43 381.304 103.172L245.34 206.972C224.72 222.714 195.244 218.759 179.503 198.14Z" fill="#FFEE92"/>
<path opacity="0.3" d="M33.5055 228.698C15.0009 204.459 15.6889 172.833 35.0421 158.058L133.138 83.1676C152.491 68.3927 183.181 76.0644 201.686 100.303C220.19 124.541 219.502 156.168 200.149 170.943L102.053 245.833C82.6998 260.608 52.01 252.936 33.5055 228.698Z" fill="#FFCAAC"/>
</svg>
