<?xml version="1.0" encoding="UTF-8" standalone="no"?>
<svg
   xmlns:dc="http://purl.org/dc/elements/1.1/"
   xmlns:cc="http://creativecommons.org/ns#"
   xmlns:rdf="http://www.w3.org/1999/02/22-rdf-syntax-ns#"
   xmlns:svg="http://www.w3.org/2000/svg"
   xmlns="http://www.w3.org/2000/svg"
   xmlns:sodipodi="http://sodipodi.sourceforge.net/DTD/sodipodi-0.dtd"
   xmlns:inkscape="http://www.inkscape.org/namespaces/inkscape"
   width="357.77194"
   height="232.19315"
   viewBox="0 0 357.77194 232.19315"
   fill="none"
   version="1.1"
   id="svg6"
   sodipodi:docname="Group 6380.svg"
   inkscape:version="1.0.2 (1.0.2+r75+1)">
  <metadata
     id="metadata12">
    <rdf:RDF>
      <cc:Work
         rdf:about="">
        <dc:format>image/svg+xml</dc:format>
        <dc:type
           rdf:resource="http://purl.org/dc/dcmitype/StillImage" />
      </cc:Work>
    </rdf:RDF>
  </metadata>
  <defs
     id="defs10" />
  <sodipodi:namedview
     pagecolor="#ffffff"
     bordercolor="#666666"
     borderopacity="1"
     objecttolerance="10"
     gridtolerance="10"
     guidetolerance="10"
     inkscape:pageopacity="0"
     inkscape:pageshadow="2"
     inkscape:window-width="1920"
     inkscape:window-height="968"
     id="namedview8"
     showgrid="false"
     inkscape:zoom="1.5090909"
     inkscape:cx="141.00667"
     inkscape:cy="-14.175337"
     inkscape:window-x="0"
     inkscape:window-y="27"
     inkscape:window-maximized="1"
     inkscape:current-layer="svg6" />
  <path
     opacity="0.2"
     d="m 137.49973,213.72224 c -15.742,-20.619 -11.788,-50.095 8.832,-65.837 l 135.964,-103.800399 c 20.619,-15.7415 50.096,-11.7873 65.837,8.832 15.742,20.6193 11.788,50.095399 -8.832,65.837399 l -135.964,103.8 c -20.62,15.742 -50.096,11.787 -65.837,-8.832 z"
     fill="#ffee92"
     id="path2" />
  <path
     opacity="0.3"
     d="m 10.502228,197.16724 c -18.5046001,-24.239 -11.9145001,-60.371 14.7193,-80.705 L 160.22073,13.398841 c 26.634,-20.3333004 63.226,-17.1674004 81.731,7.0711 18.504,24.2385 11.914,60.3713 -14.72,80.704299 l -134.999002,103.064 c -26.6341,20.333 -63.226,17.167 -81.7305,-7.071 z"
     fill="#b6f1ff"
     id="path4" />
</svg>
