<svg width="230" height="273" viewBox="0 0 230 273" fill="none" xmlns="http://www.w3.org/2000/svg">
<path opacity="0.2" d="M14.7165 245.944C-7.77059 216.489 -2.12194 174.382 27.3331 151.895L207.018 14.7165C236.473 -7.7706 278.581 -2.12196 301.068 27.3331C323.555 56.7882 317.906 98.8957 288.451 121.383L108.766 258.561C79.3111 281.048 37.2036 275.399 14.7165 245.944Z" fill="#B6F1FF"/>
<path opacity="0.2" d="M136.876 231.661C119.555 208.973 123.906 176.54 146.594 159.219L284.997 53.5567C307.685 36.2359 340.119 40.5868 357.44 63.2747C374.76 85.9627 370.409 118.396 347.722 135.717L209.318 241.379C186.63 258.7 154.197 254.349 136.876 231.661Z" fill="#FFEE92"/>
</svg>
