<svg width="71" height="44" viewBox="0 0 71 44" fill="none" xmlns="http://www.w3.org/2000/svg">
<path d="M21.8587 37.0471L21.4339 37.9525L21.8587 37.0471ZM70.5411 34.7496C70.7628 34.2437 70.5321 33.6545 70.026 33.4335L61.7785 29.8327C61.2724 29.6118 60.6825 29.8428 60.4608 30.3487C60.2392 30.8546 60.4698 31.4438 60.9759 31.6648L68.3071 34.8655L65.0968 42.1938C64.8751 42.6997 65.1058 43.289 65.6119 43.5099C66.118 43.7309 66.7079 43.4999 66.9295 42.994L70.5411 34.7496ZM1.2345 1C0.247749 1.16554 0.247808 1.16589 0.247884 1.16634C0.247934 1.16664 0.248029 1.16721 0.248129 1.1678C0.248329 1.16899 0.248603 1.17062 0.248951 1.17268C0.249648 1.1768 0.25064 1.18264 0.251932 1.19019C0.254516 1.20529 0.258298 1.22721 0.263302 1.25575C0.273309 1.31284 0.288205 1.39646 0.308183 1.50506C0.348137 1.72227 0.408428 2.03951 0.490597 2.44458C0.654912 3.2546 0.906858 4.41653 1.25883 5.83259C1.96228 8.66277 3.06768 12.5179 4.67589 16.612C7.86582 24.7327 13.141 34.0744 21.4339 37.9525L22.2835 36.1417C14.7379 32.613 9.70103 23.9311 6.53847 15.88C4.97043 11.8882 3.8895 8.12032 3.20067 5.34897C2.8565 3.96427 2.61082 2.83081 2.45154 2.04563C2.37192 1.6531 2.31392 1.34779 2.27604 1.14184C2.2571 1.03887 2.24319 0.960759 2.23412 0.909018C2.22958 0.883149 2.22626 0.863874 2.22412 0.851384C2.22305 0.845139 2.22228 0.84059 2.2218 0.837762C2.22156 0.836348 2.2214 0.835364 2.2213 0.834813C2.22126 0.834537 2.22124 0.83445 2.22122 0.834311C2.22122 0.834332 2.22124 0.834462 1.2345 1ZM21.4339 37.9525C31.0425 42.4459 43.2466 41.7204 52.9071 39.9483C57.7618 39.0578 62.0254 37.893 65.0755 36.9511C66.6013 36.4799 67.8252 36.0639 68.6697 35.7649C69.0919 35.6154 69.4195 35.4951 69.6426 35.4118C69.7541 35.3701 69.8396 35.3377 69.8977 35.3154C69.9268 35.3043 69.949 35.2957 69.9643 35.2898C69.9719 35.2868 69.9778 35.2845 69.9819 35.2829C69.984 35.2821 69.9856 35.2815 69.9868 35.281C69.9874 35.2808 69.9879 35.2806 69.9882 35.2805C69.9886 35.2803 69.989 35.2802 69.6247 34.3495C69.2605 33.4189 69.2606 33.4189 69.2606 33.4189C69.2605 33.4189 69.2603 33.419 69.26 33.4191C69.2594 33.4193 69.2584 33.4197 69.2569 33.4203C69.254 33.4214 69.2493 33.4233 69.2428 33.4258C69.2299 33.4308 69.2101 33.4384 69.1835 33.4486C69.1302 33.469 69.0498 33.4995 68.9434 33.5393C68.7305 33.6188 68.4139 33.7351 68.003 33.8806C67.1813 34.1715 65.9833 34.5788 64.4864 35.0411C61.491 35.9661 57.306 37.1092 52.5477 37.982C42.9824 39.7366 31.3035 40.3598 22.2835 36.1417L21.4339 37.9525Z" fill="#F66819"/>
</svg>
