<svg width="572" height="385" viewBox="0 0 572 385" fill="none" xmlns="http://www.w3.org/2000/svg">
<path d="M487.515 101.552V337.864C487.515 342 484.536 345.353 480.864 345.353H140.63C136.958 345.353 133.979 342 133.979 337.864V101.552C133.979 97.4138 136.958 94.0629 140.63 94.0629H480.864C484.538 94.0629 487.515 97.4138 487.515 101.552Z" fill="#C4E5FB"/>
<path d="M487.516 100.728V118.571H133.981V100.728C133.981 97.0461 136.961 94.0629 140.633 94.0629H480.867C484.539 94.0629 487.516 97.0437 487.516 100.728Z" fill="#739AF0"/>
<path d="M144.795 106.317C144.795 104.603 146.182 103.214 147.892 103.214C149.602 103.214 150.989 104.603 150.989 106.317C150.989 108.03 149.602 109.42 147.892 109.42C146.179 109.42 144.795 108.03 144.795 106.317Z" fill="#DFEBFD"/>
<path d="M156.994 106.317C156.994 104.603 158.381 103.213 160.091 103.213C161.801 103.213 163.188 104.603 163.188 106.317C163.188 108.03 161.801 109.42 160.091 109.42C158.381 109.42 156.994 108.03 156.994 106.317Z" fill="#DFEBFD"/>
<path d="M169.502 106.317C169.502 104.603 170.889 103.213 172.599 103.213C174.309 103.213 175.696 104.603 175.696 106.317C175.696 108.03 174.309 109.42 172.599 109.42C170.889 109.42 169.502 108.03 169.502 106.317Z" fill="#DFEBFD"/>
<path opacity="0.5" d="M361.495 271.783H324.208V309.148H361.495V271.783Z" fill="#EBF3FA"/>
<path d="M327.008 304.88L338.02 284.981L346.12 296.051L350.163 291.621L358.732 304.88H327.008Z" fill="#739AF0"/>
<path d="M343.27 282.125C343.27 280.549 344.546 279.269 346.119 279.269C347.695 279.269 348.969 280.549 348.969 282.125C348.969 283.703 347.692 284.981 346.119 284.981C344.546 284.981 343.27 283.703 343.27 282.125Z" fill="#739AF0"/>
<path opacity="0.5" d="M417.176 203.385H324.208V257.384H417.176V203.385Z" fill="#EBF3FA"/>
<path d="M360.199 216.551V244.216L381.18 230.383L360.199 216.551Z" fill="#739AF0"/>
<path d="M459.71 163.179C459.71 169.273 457.283 174.81 453.364 178.828C449.45 182.846 444.054 185.336 438.115 185.336H186.534C173.694 185.336 163.188 175.364 163.188 163.179C163.188 157.085 165.812 151.548 170.047 147.533C174.276 143.515 180.115 141.024 186.534 141.024H438.117C449.993 141.024 459.71 150.994 459.71 163.179Z" fill="#EBF3FA"/>
<path d="M459.71 163.179C459.71 169.273 457.283 174.81 453.364 178.828C449.451 182.846 444.054 185.336 438.115 185.336H392.59V141.024H438.115C449.994 141.024 459.71 150.994 459.71 163.179Z" fill="#FF9C65"/>
<path d="M430.896 171.234C430.336 171.234 429.773 171.192 429.208 171.109C426.231 170.663 423.606 169.084 421.816 166.66C418.12 161.654 419.174 154.57 424.166 150.866C429.161 147.162 436.231 148.219 439.927 153.225C443.623 158.23 442.569 165.314 437.574 169.018C435.617 170.469 433.291 171.234 430.896 171.234ZM425.272 152.359C421.101 155.453 420.218 161.373 423.308 165.552C424.805 167.577 426.997 168.898 429.484 169.268C431.97 169.638 434.452 169.018 436.473 167.52C440.644 164.427 441.527 158.507 438.437 154.328C435.35 150.148 429.443 149.266 425.272 152.359Z" fill="white"/>
<path d="M423.09 166.859L421.985 165.363L409.624 174.531L410.728 176.027L423.09 166.859Z" fill="white"/>
<path d="M405.907 178.46C405.361 177.722 405.518 176.683 406.254 176.136L413.534 170.736C414.27 170.19 415.307 170.347 415.853 171.082C416.398 171.82 416.241 172.859 415.508 173.406L408.228 178.806C407.489 179.353 406.452 179.198 405.907 178.46Z" fill="white"/>
<path d="M237.599 132.646C237.125 133.19 237.063 133.801 237.298 134.45C237.298 134.453 237.301 134.457 237.303 134.46C237.736 135.664 239.172 137.007 240.84 138.35C241.053 138.522 241.244 138.679 241.408 138.826C241.452 138.865 241.493 138.902 241.535 138.941C241.569 138.97 241.601 139.002 241.633 139.029C243.186 140.466 242.601 140.794 245.395 143.711C248.58 147.033 250.772 147.094 251.395 146.792C251.924 146.535 250.852 144.772 249.663 142.792C249.605 142.696 249.548 142.601 249.49 142.503C249.331 142.24 249.174 141.973 249.018 141.708C247.626 139.326 247.983 138.208 248.316 134.661C248.585 131.781 252.795 118.566 252.795 118.566L246.691 117.509C246.691 117.509 244.849 128.033 242.824 129.653C241.74 130.516 240.53 130.528 239.487 131.168C239.414 131.212 239.341 131.259 239.27 131.305C238.678 131.695 238.074 132.099 237.599 132.646Z" fill="#FFCAAC"/>
<path d="M237.599 132.646C237.125 133.19 237.063 133.801 237.298 134.45C237.298 134.453 237.301 134.457 237.303 134.46C237.834 135.661 239.233 136.999 240.845 138.338C241.055 138.514 241.241 138.674 241.408 138.826C241.452 138.865 241.493 138.902 241.535 138.941C241.569 138.97 241.601 139.002 241.633 139.029C243.186 140.466 242.601 140.794 245.395 143.711C248.58 147.032 250.772 147.094 251.395 146.792C251.924 146.535 250.852 144.772 249.663 142.792C249.045 142.564 246.163 141.39 243.986 138.598C242.139 136.235 240.884 133.222 239.627 131.371C239.488 131.344 239.407 131.33 239.267 131.305C238.678 131.695 238.074 132.099 237.599 132.646Z" fill="#233862"/>
<path d="M286.818 128.842C287.194 130.729 289.88 130.415 292.882 129.682C295.883 128.949 295.169 129.822 299.44 129.349C303.711 128.876 305.005 127.283 305.134 126.645C305.252 126.081 303.141 125.88 300.878 125.618C300.594 125.586 300.308 125.55 300.022 125.515C297.466 125.194 295.597 123.539 293.275 122.181C291.076 120.895 287.798 115.656 287.798 115.656L281.942 116.119C281.942 116.119 285.015 120.799 286.201 122.834C286.901 124.03 286.862 125.611 286.774 126.834C286.73 127.498 286.685 128.177 286.818 128.842Z" fill="#FFCAAC"/>
<path d="M292.882 129.682C295.884 128.949 295.17 129.822 299.441 129.349C303.712 128.876 305.006 127.283 305.135 126.645C305.253 126.081 303.142 125.88 300.879 125.618L300.857 125.662C300.857 125.662 298.296 127.481 294.742 127.564C291.845 127.633 288.775 126.802 286.774 126.834C286.728 127.498 286.686 128.177 286.818 128.842C287.195 130.732 289.881 130.418 292.882 129.682Z" fill="#233862"/>
<path d="M264.388 91.3076L258.908 106.069L251.753 125.344C251.753 125.344 249.813 125.53 247.957 124.996C246.247 124.5 244.285 123.204 244.285 123.204C244.285 123.204 246.276 102.507 249.985 90.6262C250.934 87.5768 251.998 85.1108 253.172 83.7234C258.913 76.926 264.388 91.3076 264.388 91.3076Z" fill="#F4904D"/>
<path d="M258.829 67.8587C255.713 66.8513 247.582 67.8391 238.761 69.4349C236.325 69.8761 233.869 68.7608 232.585 66.638L210.388 64.8927C210.388 64.8927 203.057 81.1667 207.064 91.5405C207.653 93.0652 208.945 94.0163 210.941 94.0506C210.941 94.0506 224.353 94.0752 228.644 94.0752C239.683 94.0801 252.007 86.4786 253.602 86.16C256.212 85.6378 257.254 90.8689 259.862 96.3597C262.469 101.851 284.379 120.686 284.379 120.686C284.379 120.686 287.748 120.721 289.139 120.198C290.636 119.637 291.184 118.907 291.184 118.907C291.184 118.907 266.916 70.4767 258.829 67.8587Z" fill="#FFA561"/>
<path d="M230.248 1.32127C228.599 0.338305 226.995 0.186328 226.009 0.213292C225.324 0.232902 224.639 0.188777 223.961 0.0882747C215.49 -1.15943 210.385 11.1705 210.084 14.8964C209.534 21.738 205.921 22.7773 200.838 27.0597C190.642 35.6465 193.629 45.6281 199.199 49.3393C202.543 51.5651 208.436 49.3418 208.436 49.3418C208.519 49.4006 224.558 40.3652 232.462 36.0068C244.313 34.3228 235.008 4.1623 230.248 1.32127Z" fill="#2A2C33"/>
<path d="M225.841 32.2931C225.875 32.3152 221.951 33.656 219.329 32.4917C216.861 31.3984 214.992 27.3268 215.029 27.3268C216.152 27.2754 217.384 26.2924 218.336 19.8382L218.813 20.0098L226.851 22.9121C226.851 22.9121 226.269 25.4957 225.89 27.9568C225.574 30.0208 225.403 31.999 225.841 32.2931Z" fill="#FFCAAC"/>
<path d="M226.854 22.9097C226.854 22.9097 226.534 24.3045 226.064 26.9102C221.446 26.0767 219.467 22.5101 218.816 20.0098L226.854 22.9097Z" fill="#EEAE8A"/>
<path d="M228.049 25.4762C228.049 25.4762 217.051 23.9932 218.078 17.1443C219.106 10.2954 218.377 5.49092 225.444 6.14786C232.508 6.8048 233.479 9.62377 233.69 11.9942C233.9 14.3621 230.935 25.6845 228.049 25.4762Z" fill="#FFCAAC"/>
<path d="M233.289 8.23629C233.289 8.23629 226.246 14.313 221.457 14.8033C216.667 15.2911 214.854 13.7517 214.854 13.7517C214.854 13.7517 217.677 11.4033 219.377 7.61367C219.879 6.49588 220.938 5.73109 222.154 5.62568C225.576 5.33153 232.058 5.19671 233.289 8.23629Z" fill="#2A2C33"/>
<path d="M228.889 7.69215C228.889 7.69215 231.244 9.97428 231.985 11.6681C232.7 13.3007 232.915 17.208 232.343 18.7597C232.343 18.7597 236.014 11.6093 233.938 8.13583C231.736 4.4491 228.889 7.69215 228.889 7.69215Z" fill="#2A2C33"/>
<path d="M235.098 48.5329C234.758 70.8444 235 66.182 232.564 68.2975C231.977 68.8074 230.328 69.1113 228.156 69.2535C221.328 69.7045 209.328 68.5745 208.873 67.3096C207.3 62.9341 208.413 61.5761 207.099 54.8768C206.962 54.1634 206.793 53.3937 206.595 52.553C205.502 47.9519 204.435 46.388 208.325 38.9974C211.852 32.3054 215.514 26.8734 215.844 27.0695C225.14 32.6045 225.893 27.9544 225.893 27.9544C225.893 27.9544 235.264 37.6492 235.098 48.5329Z" fill="#D0ECFF"/>
<path d="M258.908 106.069L251.753 125.344C251.753 125.344 249.813 125.53 247.957 124.996C246.247 124.5 244.285 123.204 244.285 123.204C244.285 123.204 246.276 102.508 249.985 90.6262L258.908 106.069Z" fill="#FFA561"/>
<path d="M225.892 27.9544C225.892 27.9544 235.458 29.5821 236.581 33.7125C237.704 37.8404 241.393 62.8974 241.393 62.8974C241.393 62.8974 238.695 65.5374 236.447 63.2847C234.201 61.0319 229.382 39.8382 229.382 39.8382L225.892 27.9544Z" fill="#D0ECFF"/>
<path d="M228.154 69.2536C221.327 69.7046 209.326 68.5746 208.871 67.3097C207.298 62.9342 208.411 61.5762 207.098 54.8768L210.393 45.5865C210.393 45.5865 209.845 55.9333 212.888 58.6567C215.928 61.3801 225.353 63.9147 226.833 66.1895C227.55 67.2803 228.02 68.3736 228.154 69.2536Z" fill="#A6D7F8"/>
<path d="M220.334 64.8976C220.334 64.8976 227.071 63.3974 228.157 63.9955C229.243 64.5961 231.899 66.7777 232.23 67.5352C232.562 68.2951 229.81 66.9591 228.915 66.7164C228.335 66.5596 226.809 67.0915 226.053 67.344C222.873 68.4054 220.926 67.8587 220.926 67.8587L220.334 64.8976Z" fill="#FFCAAC"/>
<path d="M215.838 27.0646C215.838 27.0646 206.795 27.621 203.662 31.9941C199.254 38.1517 190.501 64.4 195.511 67.9029C201.152 71.847 221.191 68.9422 221.191 68.9422C221.191 68.9422 221.858 65.8193 220.931 64.3068C220.004 62.7968 204.929 60.3505 204.234 59.6519C203.539 58.9532 212.937 46.0571 212.937 43.9661C212.937 41.8776 215.838 27.0646 215.838 27.0646Z" fill="#D0ECFF"/>
<path d="M228.482 65.8756C228.482 65.8756 229.894 67.6994 230.356 67.9175C230.819 68.1357 231.117 68.0818 231.117 68.0818L230.165 66.3659L228.482 65.8756Z" fill="#FFCAAC"/>
<path d="M228.157 63.998L232.259 65.9958C232.259 65.9958 232.086 66.2826 231.579 66.2581C231.073 66.2335 229.801 65.7678 229.801 65.7678L228.157 63.998Z" fill="#FFCAAC"/>
<path d="M263.192 68.702L220.333 68.6873V69.636L262.81 69.6507L263.192 68.702Z" fill="#2A2C33"/>
<path d="M230.355 69.6384L262.811 69.6507L272.583 45.3242L240.177 45.312L230.355 69.6384Z" fill="#2A2C33"/>
<path d="M254.621 57.4826C254.865 56.6271 254.374 55.9334 253.52 55.9334C252.666 55.9334 251.776 56.6271 251.531 57.4802C251.287 58.3357 251.781 59.0294 252.632 59.0294C253.486 59.0318 254.376 58.3381 254.621 57.4826Z" fill="white"/>
<path d="M232.448 213.788H173.846C172.625 213.788 171.637 212.798 171.637 211.575V210.643C171.637 209.42 172.625 208.43 173.846 208.43H232.448C233.669 208.43 234.657 209.42 234.657 210.643V211.575C234.657 212.798 233.666 213.788 232.448 213.788Z" fill="#F99746"/>
<path d="M202.378 232.212H173.464C172.457 232.212 171.64 231.393 171.64 230.383C171.64 229.373 172.457 228.555 173.464 228.555H202.378C203.386 228.555 204.203 229.373 204.203 230.383C204.2 231.393 203.383 232.212 202.378 232.212Z" fill="#739AF0"/>
<path d="M224.518 224.545H173.337C172.4 224.545 171.64 223.782 171.64 222.843V222.591C171.64 221.652 172.4 220.89 173.337 220.89H224.518C225.455 220.89 226.216 221.652 226.216 222.591V222.843C226.216 223.782 225.455 224.545 224.518 224.545Z" fill="#739AF0"/>
<path d="M280.514 224.544H232.831C231.926 224.544 231.189 223.809 231.189 222.9V222.532C231.189 221.625 231.923 220.887 232.831 220.887H280.514C281.419 220.887 282.155 221.622 282.155 222.532V222.9C282.152 223.809 281.419 224.544 280.514 224.544Z" fill="#739AF0"/>
<path d="M238.442 232.212H209.529C208.521 232.212 207.704 231.393 207.704 230.383C207.704 229.373 208.521 228.555 209.529 228.555H238.442C239.45 228.555 240.267 229.373 240.267 230.383C240.267 231.393 239.45 232.212 238.442 232.212Z" fill="#739AF0"/>
<path d="M303.807 213.788H245.205C243.984 213.788 242.996 212.798 242.996 211.575V210.643C242.996 209.42 243.984 208.43 245.205 208.43H303.807C305.028 208.43 306.016 209.42 306.016 210.643V211.575C306.014 212.798 305.025 213.788 303.807 213.788Z" fill="#F99746"/>
<path d="M232.448 309.719H173.846C172.625 309.719 171.637 308.729 171.637 307.505V306.574C171.637 305.351 172.625 304.36 173.846 304.36H232.448C233.669 304.36 234.657 305.351 234.657 306.574V307.505C234.657 308.726 233.666 309.719 232.448 309.719Z" fill="#F99746"/>
<path d="M202.378 328.14H173.464C172.457 328.14 171.64 327.322 171.64 326.312C171.64 325.302 172.457 324.483 173.464 324.483H202.378C203.386 324.483 204.203 325.302 204.203 326.312C204.2 327.322 203.383 328.14 202.378 328.14Z" fill="#739AF0"/>
<path d="M224.518 320.473H173.337C172.4 320.473 171.64 319.71 171.64 318.771V318.517C171.64 317.578 172.4 316.815 173.337 316.815H224.518C225.455 316.815 226.216 317.578 226.216 318.517V318.771C226.216 319.71 225.455 320.473 224.518 320.473Z" fill="#739AF0"/>
<path d="M280.514 320.473H232.831C231.926 320.473 231.189 319.737 231.189 318.828V318.46C231.189 317.553 231.923 316.815 232.831 316.815H280.514C281.419 316.815 282.155 317.551 282.155 318.46V318.828C282.152 319.737 281.419 320.473 280.514 320.473Z" fill="#739AF0"/>
<path d="M238.442 328.14H209.529C208.521 328.14 207.704 327.322 207.704 326.312C207.704 325.302 208.521 324.483 209.529 324.483H238.442C239.45 324.483 240.267 325.302 240.267 326.312C240.267 327.322 239.45 328.14 238.442 328.14Z" fill="#739AF0"/>
<path d="M303.807 309.719H245.205C243.984 309.719 242.996 308.729 242.996 307.505V306.574C242.996 305.351 243.984 304.36 245.205 304.36H303.807C305.028 304.36 306.016 305.351 306.016 306.574V307.505C306.014 308.726 305.025 309.719 303.807 309.719Z" fill="#F99746"/>
<path d="M232.448 261.752H173.846C172.625 261.752 171.637 260.762 171.637 259.539V258.607C171.637 257.384 172.625 256.394 173.846 256.394H232.448C233.669 256.394 234.657 257.384 234.657 258.607V259.539C234.657 260.762 233.666 261.752 232.448 261.752Z" fill="#F99746"/>
<path d="M202.378 280.176H173.464C172.457 280.176 171.64 279.357 171.64 278.347C171.64 277.338 172.457 276.519 173.464 276.519H202.378C203.386 276.519 204.203 277.338 204.203 278.347C204.2 279.357 203.383 280.176 202.378 280.176Z" fill="#739AF0"/>
<path d="M224.518 272.509H173.337C172.4 272.509 171.64 271.746 171.64 270.807V270.552C171.64 269.614 172.4 268.851 173.337 268.851H224.518C225.455 268.851 226.216 269.614 226.216 270.552V270.807C226.216 271.746 225.455 272.509 224.518 272.509Z" fill="#739AF0"/>
<path d="M280.514 272.508H232.831C231.926 272.508 231.189 271.773 231.189 270.864V270.496C231.189 269.589 231.923 268.851 232.831 268.851H280.514C281.419 268.851 282.155 269.587 282.155 270.496V270.864C282.152 271.773 281.419 272.508 280.514 272.508Z" fill="#739AF0"/>
<path d="M238.442 280.176H209.529C208.521 280.176 207.704 279.357 207.704 278.347C207.704 277.338 208.521 276.519 209.529 276.519H238.442C239.45 276.519 240.267 277.338 240.267 278.347C240.267 279.357 239.45 280.176 238.442 280.176Z" fill="#739AF0"/>
<path d="M303.807 261.752H245.205C243.984 261.752 242.996 260.762 242.996 259.539V258.607C242.996 257.384 243.984 256.394 245.205 256.394H303.807C305.028 256.394 306.016 257.384 306.016 258.607V259.539C306.014 260.762 305.025 261.752 303.807 261.752Z" fill="#F99746"/>
<path d="M139.225 235.955C139.225 235.955 139.885 234.465 140.313 233.761C140.741 233.055 142.568 230.989 142.882 231.457C143.192 231.925 144.437 235.072 143.777 235.955C143.116 236.837 143.818 238.369 140.531 239.298L139.225 235.955Z" fill="#FFCAAC"/>
<path d="M102.672 226.549C102.672 226.549 119.509 240.634 126.074 239.33C131.209 238.311 139.088 235.604 139.088 235.604L140.663 239.644C140.663 239.644 133.596 249.248 126.231 249.312C114.714 249.41 106.207 244.316 106.207 244.316L102.672 226.549Z" fill="#95B3EF"/>
<path d="M73.1406 375.111C73.1406 375.111 73.6298 383.012 75.1538 383.127C75.3568 383.142 82.891 383.142 82.891 383.142L92.5092 383.085C92.5092 383.085 92.4456 380.764 89.635 380.271C86.8244 379.781 82.118 377.801 80.4155 374.077C78.6249 370.162 73.1406 375.111 73.1406 375.111Z" fill="#1C4B8E"/>
<path d="M72.589 375.661C72.589 375.661 75.5121 376.641 77.7944 376.641C80.3408 376.641 82.6549 375.947 82.6549 375.947C82.6549 375.947 83.2053 370.613 86.2336 358.86C87.8212 352.699 90.0887 344.777 93.3152 334.935C102.236 307.733 104.949 291.82 105.196 290.312C105.208 290.234 105.216 290.194 105.216 290.194L105.186 290.182L77.7602 278.114C77.7602 278.114 81.1505 315.607 76.8257 329.996C76.2191 332.008 75.7005 334.352 75.2553 336.889C72.5254 352.518 72.589 375.661 72.589 375.661Z" fill="#FFA561"/>
<path d="M86.2342 358.857C87.8217 352.697 90.0893 344.774 93.3158 334.933C102.237 307.731 104.95 291.817 105.197 290.31C105.194 290.265 105.192 290.221 105.187 290.177L77.7607 278.109C77.7607 278.109 81.1511 315.602 76.8263 329.991C76.2196 332.003 86.2342 358.857 86.2342 358.857Z" fill="#F4904D"/>
<path d="M94.5654 375.111C94.5654 375.111 95.0547 383.012 96.5786 383.127C96.7816 383.142 104.316 383.142 104.316 383.142L113.934 383.085C113.934 383.085 113.87 380.764 111.06 380.271C108.249 379.781 103.543 377.801 101.84 374.077C100.047 370.162 94.5654 375.111 94.5654 375.111Z" fill="#1C4B8E"/>
<path d="M110.116 278.995C110.116 278.995 110.473 303.289 106.278 333.119C102.083 362.948 103.504 375.609 103.504 375.609C103.504 375.609 100.623 376.546 99.4582 376.641C96.496 376.884 93.4578 375.945 93.4578 375.945C93.4578 375.945 87.455 346.106 89.1746 331.175C90.8967 316.244 80.9531 279.943 80.9531 279.943L110.116 278.995Z" fill="#FFA561"/>
<path d="M90.666 222.142L96.0206 225.66L100.898 224.277C101.789 223.002 102.026 220.546 102.038 218.418C102.05 216.305 101.847 214.516 101.847 214.516L94.6239 211.322L91.9282 210.131C91.9356 210.172 92.1386 212.349 92.1679 212.665C92.6694 218.308 90.666 222.142 90.666 222.142Z" fill="#FFCAAC"/>
<path d="M110.237 285.748C103.574 292.195 78.3543 291.111 76.7986 284.007C75.2477 276.904 78.4937 223.534 89.8757 220.183C92.2386 219.487 104.866 223.578 104.866 223.578C104.866 223.578 106.847 228.773 108.146 235.386C108.398 236.673 109.134 250.312 109.685 263.071C109.941 269.037 110.159 274.815 110.269 279.043C110.377 283.005 110.382 285.608 110.237 285.748Z" fill="#AFCDFB"/>
<path d="M92.7056 212.768C94.1709 215.252 99.3127 217.423 102.038 218.419C102.05 216.306 101.847 214.516 101.847 214.516L94.6234 211.322C93.0261 211.303 92.0525 211.658 92.7056 212.768Z" fill="#EEAE8A"/>
<path d="M104.571 214.077C104.571 214.077 92.9318 217.715 90.7816 210.418C88.6314 203.12 85.6814 198.673 93.0223 196.043C100.363 193.411 102.633 195.769 103.942 198.029C105.253 200.289 107.543 212.942 104.571 214.077Z" fill="#FFCAAC"/>
<path d="M103.486 197.325C103.486 197.325 102.745 205.819 100.991 205.449C99.2398 205.081 97.3098 204.292 97.5667 206.851C97.8235 209.41 95.8617 213.8 93.3348 213.788C87.9142 213.766 82.0263 199.828 83.5087 197.186C87.7894 189.562 109.673 188.023 103.486 197.325Z" fill="#163560"/>
<path d="M101.774 220.367C101.624 220.304 93.1093 216.477 92.1137 216.806C91.1181 217.134 89.8779 220.184 89.8779 220.184L104.87 223.581C104.868 223.581 103.689 221.176 101.774 220.367Z" fill="#95B3EF"/>
<path d="M154.776 261.698L107.052 306.728C106.117 307.611 104.936 307.893 104.43 307.353L102.818 305.637C102.311 305.098 102.663 303.936 103.598 303.054L151.325 258.026C152.259 257.144 153.441 256.862 153.947 257.401L155.559 259.117C156.063 259.654 155.713 260.816 154.776 261.698Z" fill="#1F4D84"/>
<path d="M127.996 286.969L107.052 306.728C106.117 307.611 104.936 307.893 104.43 307.353L102.818 305.637C102.311 305.098 102.663 303.936 103.598 303.054L124.542 283.294L127.996 286.969Z" fill="#739AF0"/>
<path d="M143.808 244.699C145.641 250.748 149.033 256.416 153.96 261.061C169.006 275.247 192.682 274.521 206.838 259.446C220.808 244.564 220.287 221.269 205.811 207.027C205.62 206.836 205.422 206.648 205.224 206.461C190.18 192.276 166.506 192.996 152.353 208.074C142.827 218.215 140.036 232.268 143.808 244.699ZM154.5 210.101C162.739 201.326 174.476 197.828 185.498 199.742C191.922 200.855 198.098 203.804 203.201 208.616C217.061 221.681 217.724 243.532 204.686 257.418C199.886 262.532 193.901 265.848 187.56 267.356C176.672 269.939 164.743 267.167 155.985 258.909C142.125 245.841 141.46 223.993 154.5 210.101Z" fill="#1F4D84"/>
<g opacity="0.5">
<path opacity="0.5" d="M204.685 257.416C199.885 262.529 193.897 265.848 187.557 267.353C176.669 269.935 164.739 267.162 155.982 258.906C142.125 245.841 141.459 223.99 154.497 210.101C162.736 201.326 174.472 197.83 185.495 199.742C191.918 200.855 198.097 203.804 203.198 208.613C217.06 221.679 217.723 243.529 204.685 257.416Z" fill="#B3CFF9"/>
</g>
<path d="M110.274 279.043C83.9781 260.264 86.1625 235.207 86.1625 235.207C95.7734 240.639 105.311 252.651 109.687 263.071C109.946 269.037 110.164 274.815 110.274 279.043Z" fill="#95B3EF"/>
<path d="M136.229 270.494C138.083 270.065 139.329 268.66 139.588 268.415C139.588 268.415 140.378 268.469 139.458 270.16C139.382 270.302 139.211 270.665 139.081 270.923C139.028 271.028 139.101 271.151 139.218 271.158C140.29 271.239 141.364 270.815 143.426 271.246C143.71 271.305 143.793 271.989 143.783 272.278C143.763 272.771 143.8 273.322 143.228 274.077C142.895 274.516 141.968 274.989 139.906 275.82C139.121 276.136 136.87 275.899 134.764 275.173L133.081 274.391L133.602 271.256L134.025 271.344C134.698 271.486 135.53 270.665 136.229 270.494Z" fill="#FFCAAC"/>
<path d="M94.3262 223.581C94.3262 223.581 70.6964 228.089 101.278 262.377C106.168 267.861 132.594 275.001 132.594 275.001C132.594 275.001 135.275 272.717 133.922 270.866C133.922 270.866 115.728 257.627 111.726 255.521C109.925 254.575 104.737 234.389 101.802 229.528C98.8638 224.669 94.3262 223.581 94.3262 223.581Z" fill="#AFCDFB"/>
<path d="M139.865 236.369C139.865 236.369 140.638 234.889 140.79 234.109C140.942 233.33 141.913 231.052 142.314 230.65C142.475 230.489 143.004 230.697 143.065 231.388C143.092 231.69 142.945 232.234 142.686 232.886C142.262 233.945 142.333 235.381 142.187 235.862C141.82 237.053 139.865 236.369 139.865 236.369Z" fill="#FFCAAC"/>
<path d="M455.797 191.175L442.419 194.293L435.804 206.356L430.753 178.867L455.797 191.175Z" fill="#233862"/>
<path d="M441.661 191.64L439.712 193.12L448.256 204.42L450.206 202.94L441.661 191.64Z" fill="#233862"/>
<path d="M416.067 324.338C416.067 324.338 420.776 327.804 421.123 334.026L420.269 334.104C420.269 334.104 418.748 327.677 416.028 325.169C413.31 322.664 416.067 324.338 416.067 324.338Z" fill="#82B378"/>
<path d="M438.708 309.677C438.708 309.677 434.914 315.491 437.108 322.549L438.089 322.281C438.089 322.281 437.113 314.506 439.094 310.586C441.078 306.667 438.708 309.677 438.708 309.677Z" fill="#82B378"/>
<path d="M520.16 383.733H400.863C384.232 364.666 388.623 338.911 410.699 317.188C413.476 314.457 418.801 312.518 424.542 311.153C435.124 308.635 447.127 308.054 447.22 308.005C447.255 307.993 453.563 302.867 457.357 298.261C469.148 283.958 479.177 285.186 479.177 285.186C491.195 282.843 501.444 282.154 509.044 286.392C509.044 286.395 509.044 286.395 509.047 286.397C516.087 290.329 520.852 298.494 522.635 313.501C522.973 316.34 523.205 319.421 523.325 322.767C523.76 334.945 526.155 345.777 527.579 354.95C527.581 354.95 527.581 354.952 527.581 354.952C529.643 368.24 531.101 378.345 520.16 383.733Z" fill="#FF9C65"/>
<path d="M503.09 301.693C495.798 305.674 494.991 318.786 483.58 322.171C472.166 325.559 452.792 325.25 441.802 337.195C431.2 348.721 419.508 319.399 424.542 311.15C435.124 308.633 447.127 308.052 447.22 308.003C447.254 307.991 453.563 302.865 457.357 298.259C469.147 283.956 479.176 285.184 479.176 285.184C491.194 282.84 501.444 282.152 509.044 286.39C509.044 286.392 509.044 286.392 509.046 286.395C517.419 295.067 510.382 297.712 503.09 301.693Z" fill="#F8813E"/>
<path d="M424.164 358.386C424.164 358.386 426.265 363.968 425.83 366.042C425.394 368.115 426.121 372.133 425.279 373.932C424.438 375.732 422.933 378.349 424.389 379.006C424.939 379.256 431.333 374.253 431.695 372.783C432.058 371.312 432.329 366.976 433.55 364.617C434.768 362.259 433.736 360.365 431.96 359.504C430.184 358.644 427.698 353.91 427.698 353.91L424.164 358.386Z" fill="#F9DDBF"/>
<path d="M458.33 305.466C458.33 305.466 423.425 303.306 418.927 307.946C414.186 312.834 421.909 360.913 421.909 360.913C421.909 360.913 431.375 361.186 432.119 358.673C432.119 358.673 430.343 335.396 431.821 331.368C433.298 327.341 432.361 321.769 432.361 321.769C432.361 321.769 450.881 324.541 456.757 323.129C462.63 321.718 458.33 305.466 458.33 305.466Z" fill="#004F84"/>
<path d="M466.785 279.791C466.783 279.82 461.641 291.822 459.131 293.101C456.622 294.381 447.539 304.848 445.589 304.667C443.642 304.485 447.6 306.804 447.6 306.804C447.6 306.804 463.75 298.908 464.672 298.45C465.594 297.992 470.457 289.971 471.122 285.9C471.79 281.828 466.785 279.791 466.785 279.791Z" fill="#FFCAAC"/>
<path d="M417.719 367.601C417.719 367.601 415.73 373.224 414.062 374.525C412.393 375.829 410.363 379.367 408.56 380.198C406.76 381.029 403.925 382.056 404.612 383.497C404.874 384.044 412.978 384.355 414.201 383.468C415.424 382.578 418.426 379.44 420.874 378.428C423.323 377.415 423.753 375.298 422.951 373.493C422.149 371.689 423.296 366.466 423.296 366.466L417.719 367.601Z" fill="#F9DDBF"/>
<path d="M477.3 274.462C476.554 273.599 495.458 275.727 497.97 285.404C497.97 285.404 512.488 273.937 499.171 264.274C494.56 260.928 494.095 257.357 493.427 254.089C492.759 250.819 488.158 241.428 480.176 246.093C480.176 246.093 476.529 246.11 474.223 248.116C468.976 252.67 463.252 281.634 477.3 274.462Z" fill="#163560"/>
<path d="M473.62 307.162C473.62 307.162 435.673 311.042 432.339 314.925C429.005 318.808 415.913 369.287 415.913 369.287C415.913 369.287 419.785 371.449 423.305 369.427C423.305 369.427 433.339 352.3 437.779 346.924C442.219 341.546 443.877 324.951 444.609 324.779C445.343 324.61 469.124 328.096 477.311 321.794C485.499 315.491 473.62 307.162 473.62 307.162Z" fill="#175E8D"/>
<path d="M494.742 272.646C494.742 272.646 485.689 268.596 474.212 270.454C471.866 270.834 469.755 271.606 468.077 274.376C465.709 278.288 464.601 280.389 464.601 280.389C464.601 280.389 464.831 282.201 468.067 283.644C467.187 286.887 468.877 292.55 467.321 294.749C465.765 296.947 456.123 302.399 455.648 305.431C454.775 311.001 472.133 321.09 477.309 320.009C492.201 316.903 502.303 276.908 494.742 272.646Z" fill="#FFEE92"/>
<path d="M489.616 261.173C489.616 261.173 491.399 257.653 491.634 254.768C491.803 252.707 490.064 245.292 482.63 247.088C482.63 247.088 480.463 247.513 478.537 249.098C477.006 250.361 474.871 252.974 478.129 259.281L479.024 261.431L489.616 261.173Z" fill="#163560"/>
<path d="M479.43 273.045C478.679 273.839 478.975 276.479 482.492 276.281C484.801 276.151 489.75 273.288 489.285 271.309C489.065 270.371 487.289 267.946 486.868 262.37L486.45 262.487L479.403 264.475C479.403 264.475 479.743 266.721 479.916 268.848C480.061 270.635 479.74 272.716 479.43 273.045Z" fill="#FFCAAC"/>
<path d="M479.403 264.478C479.403 264.478 479.743 266.723 479.917 268.851C483.914 268.422 485.744 264.59 486.453 262.492L479.403 264.478Z" fill="#EEAE8A"/>
<path d="M479.251 267.743C479.251 267.743 488.473 265.414 486.94 259.681C485.403 253.947 485.56 249.785 479.606 251.03C473.652 252.275 473.099 254.768 473.148 256.808C473.197 258.847 476.815 268.201 479.251 267.743Z" fill="#FFCAAC"/>
<path d="M475.389 252.02C475.389 252.02 478.488 257.933 484.329 258.568C487.749 258.94 488.686 261.195 488.686 261.195C488.686 261.195 487.659 254.741 485.939 250.795C485.939 250.795 476.423 248.307 475.389 252.02Z" fill="#163560"/>
<path d="M476.445 252.802C476.445 252.802 474.427 254.869 473.804 256.325C472.881 258.482 474.682 263.024 475.425 264.005C475.425 264.005 471.13 256.71 472.563 253.548C474.085 250.197 476.445 252.802 476.445 252.802Z" fill="#163560"/>
<path d="M448.332 306.039C448.332 306.039 446.495 307.988 446.272 308.093C445.059 308.665 443.523 308.331 442.782 308.52C442.04 308.706 442.168 308.245 442.716 307.868C443.261 307.493 444.609 307.64 444.058 307.503C443.508 307.365 440.538 306.811 439.421 307.113C437.652 307.588 436.255 307.032 436.143 306.851C436.033 306.669 440.184 304.635 441.37 304.703C442.557 304.772 445.966 304.605 445.966 304.605L448.332 306.039Z" fill="#FFCAAC"/>
<path d="M497.864 276.239C497.864 276.239 509.309 302.129 506.132 305.931C502.976 309.706 480.951 305.12 480.951 305.12L481.629 302.715C481.629 302.715 497.825 301.722 498.979 301.394C500.638 300.923 490.772 282.764 490.772 282.764L497.864 276.239Z" fill="#FFCAAC"/>
<path d="M493.595 272.221C493.869 272.229 497.291 273.351 499.747 278.222C502.161 283.007 503.039 285.331 503.039 285.331C503.039 285.331 492.34 293.646 488.083 290.586C483.827 287.527 489.669 272.118 493.595 272.221Z" fill="#FFEE92"/>
<path d="M483.52 302.6C483.52 302.6 481.681 301.404 480.937 300.752C480.193 300.1 475.886 299.565 475.886 300.004C475.888 300.44 478.395 301.034 478.669 301.47C478.943 301.906 480.475 303.703 481.783 303.701C483.092 303.698 483.52 302.6 483.52 302.6Z" fill="#FFCAAC"/>
<path d="M478.494 306.49L473.558 305.787C472.822 305.681 472.073 305.064 471.887 304.407L469.162 294.749C468.976 294.092 469.424 293.646 470.163 293.751L475.099 294.455C475.835 294.56 476.584 295.178 476.77 295.835L479.495 305.493C479.678 306.15 479.231 306.596 478.494 306.49Z" fill="#1F4A91"/>
<path d="M477.468 306.346L472.532 305.642C471.795 305.537 471.047 304.919 470.861 304.262L468.136 294.604C467.95 293.947 468.398 293.501 469.136 293.606L474.073 294.31C474.809 294.415 475.557 295.033 475.743 295.69L478.468 305.348C478.652 306.002 478.204 306.449 477.468 306.346Z" fill="#233862"/>
<path d="M468.977 294.839C468.901 294.567 469.087 294.381 469.393 294.425C469.698 294.469 470.009 294.724 470.087 294.999C470.166 295.273 469.977 295.457 469.672 295.413C469.366 295.366 469.055 295.111 468.977 294.839Z" fill="#1F4A91"/>
<path d="M480.949 305.122C480.949 305.122 477.61 305.169 476.774 304.97C475.935 304.772 473.797 302.112 474.367 301.446C474.726 301.026 476.722 301.779 477.672 301.776C478.623 301.774 481.091 300.396 482.782 303.215C482.972 303.532 480.949 305.122 480.949 305.122Z" fill="#FFCAAC"/>
<path d="M495.279 311.489C495.279 311.489 491.683 314.864 476.64 315.349C461.596 315.835 441.985 332.494 441.802 337.198C441.618 341.902 472.092 349.047 472.564 348.373C473.036 347.699 491.886 331.469 491.886 331.469L495.279 311.489Z" fill="#FF9C65"/>
<path d="M527.581 354.952C510.845 334.018 476.464 362.556 467.568 361.752C459.388 361.012 483.519 332.398 513.445 328.14C525.541 326.419 522.645 313.891 522.64 313.503C522.978 316.342 523.21 319.423 523.33 322.769C523.763 334.945 526.158 345.779 527.581 354.952Z" fill="#F8813E"/>
<path d="M571.305 385L0.694709 384.804C0.31311 384.804 0 384.49 0 384.108V383.75C0 383.367 0.31311 383.054 0.694709 383.054L571.305 383.25C571.687 383.25 572 383.564 572 383.946V384.304C572 384.686 571.687 385 571.305 385Z" fill="#2E3552"/>
<path d="M335.598 66.7041L368.19 73.4598L347.295 57.1907L345.889 61.8996L337.802 62.8507L335.598 66.7041Z" fill="#FEB700"/>
<path d="M368.189 73.4599L341.705 57.6099L314.966 54.5826L368.189 73.4599Z" fill="#FFF592"/>
<path d="M347.294 57.1907L368.189 73.4598L352.746 49.1088L347.294 57.1907Z" fill="#FFF592"/>
<path d="M130.791 158.62L98.1982 165.378L119.093 149.106L120.5 153.815L128.587 154.766L130.791 158.62Z" fill="#FEB700"/>
<path d="M98.1982 165.378L124.683 149.528L151.419 146.498L98.1982 165.378Z" fill="#FFF592"/>
<path d="M119.093 149.106L98.1982 165.378L113.641 141.024L119.093 149.106Z" fill="#FFF592"/>
<path d="M184.188 168.057L185.142 166.922C186.005 167.67 186.868 168.096 187.989 168.096C188.967 168.096 189.586 167.645 189.586 166.935C189.586 166.29 189.227 165.939 187.551 165.54C185.631 165.089 184.55 164.52 184.55 162.829C184.55 161.279 185.839 160.208 187.629 160.208C188.943 160.208 189.987 160.608 190.902 161.343L190.051 162.544C189.239 161.936 188.427 161.615 187.602 161.615C186.675 161.615 186.135 162.093 186.135 162.713C186.135 163.41 186.548 163.721 188.273 164.133C190.178 164.598 191.171 165.282 191.171 166.805C191.171 168.496 189.845 169.503 187.95 169.503C186.572 169.503 185.271 169.026 184.188 168.057Z" fill="#739AF0"/>
<path d="M192.484 165.966C192.484 164.018 193.862 162.417 195.809 162.417C197.974 162.417 199.067 164.121 199.067 166.084C199.067 166.187 199.055 166.444 199.04 166.523H194.043C194.209 167.633 194.997 168.253 195.999 168.253C196.76 168.253 197.301 167.969 197.841 167.44L198.756 168.253C198.113 169.028 197.223 169.531 195.973 169.531C194.003 169.528 192.484 168.097 192.484 165.966ZM197.521 165.488C197.418 164.481 196.826 163.694 195.794 163.694C194.84 163.694 194.172 164.429 194.03 165.488H197.521Z" fill="#739AF0"/>
<path d="M204.8 169.374V168.535C204.335 169.092 203.628 169.516 202.596 169.516C201.306 169.516 200.174 168.78 200.174 167.386C200.174 165.876 201.346 165.153 202.931 165.153C203.755 165.153 204.283 165.268 204.812 165.437V165.307C204.812 164.366 204.22 163.848 203.136 163.848C202.375 163.848 201.81 164.015 201.191 164.275L200.766 163.022C201.512 162.687 202.248 162.454 203.356 162.454C205.367 162.454 206.345 163.513 206.345 165.331V169.371H204.8V169.374ZM204.839 166.52C204.44 166.366 203.885 166.248 203.28 166.248C202.302 166.248 201.722 166.648 201.722 167.332C201.722 167.976 202.302 168.339 203.036 168.339C204.066 168.339 204.839 167.758 204.839 166.905V166.52Z" fill="#739AF0"/>
<path d="M208.199 162.559H209.757V164.096C210.183 163.076 210.968 162.38 212.167 162.432V164.084H212.076C210.711 164.084 209.757 164.974 209.757 166.783V169.376H208.199V162.559Z" fill="#739AF0"/>
<path d="M212.914 165.979C212.914 164.042 214.409 162.417 216.444 162.417C217.733 162.417 218.53 162.895 219.162 163.591L218.195 164.638C217.718 164.135 217.217 163.785 216.432 163.785C215.299 163.785 214.475 164.765 214.475 165.979C214.475 167.192 215.311 168.173 216.51 168.173C217.244 168.173 217.784 167.824 218.274 167.319L219.213 168.249C218.543 168.996 217.757 169.526 216.429 169.526C214.409 169.528 212.914 167.942 212.914 165.979Z" fill="#739AF0"/>
<path d="M220.645 159.951H222.203V163.618C222.641 162.973 223.272 162.417 224.328 162.417C225.862 162.417 226.75 163.449 226.75 165.037V169.374H225.192V165.501C225.192 164.442 224.664 163.836 223.736 163.836C222.834 163.836 222.203 164.469 222.203 165.528V169.374H220.645V159.951Z" fill="#739AF0"/>
<path d="M228.529 167.606H230.242V169.374H228.529V167.606Z" fill="#739AF0"/>
<path d="M231.993 167.606H233.705V169.374H231.993V167.606Z" fill="#739AF0"/>
<path d="M235.459 167.606H237.171V169.374H235.459V167.606Z" fill="#739AF0"/>
<path d="M238.925 167.606H240.637V169.374H238.925V167.606Z" fill="#739AF0"/>
<path d="M329.039 252.513C329.039 251.589 329.785 250.842 330.707 250.842C331.63 250.842 332.376 251.589 332.376 252.513C332.376 253.438 331.63 254.185 330.707 254.185C329.788 254.185 329.039 253.435 329.039 252.513Z" fill="#D7E5FF"/>
<path d="M406.621 252.962H331.155C330.908 252.962 330.705 252.761 330.705 252.511C330.705 252.263 330.906 252.06 331.155 252.06H406.621C406.868 252.06 407.071 252.261 407.071 252.511C407.069 252.761 406.868 252.962 406.621 252.962Z" fill="#D7E5FF"/>
</svg>
