<svg width="22" height="22" viewBox="0 0 22 22" fill="none" xmlns="http://www.w3.org/2000/svg">
<g clip-path="url(#clip0_852_22982)">
<path d="M10.9993 22C17.0724 22 21.9957 17.0752 21.9957 11C21.9957 4.92488 17.0724 0 10.9993 0C4.92609 0 0.00280762 4.92488 0.00280762 11C0.00280762 17.0752 4.92609 22 10.9993 22Z" fill="#F66819"/>
<path d="M11 0C10.995 0 10.9901 0.000171854 10.9851 0.000171854V21.9998C10.9901 21.9998 10.995 22 11 22C17.0732 22 21.9965 17.0751 21.9965 11C21.9965 4.92482 17.0732 0 11 0Z" fill="#CF5917"/>
<path d="M4.78295 11.2185L9.2307 15.6663C9.42468 15.8602 9.73922 15.8602 9.9332 15.6663L17.2351 8.36431C17.4291 8.17033 17.4291 7.8558 17.2351 7.66182L15.9061 6.33274C15.7121 6.13876 15.3975 6.13876 15.2036 6.33274L9.89255 11.6437C9.69857 11.8377 9.38404 11.8377 9.19006 11.6437L6.81001 9.26362C6.61985 9.07347 6.31288 9.06917 6.11748 9.25391L4.79292 10.5063C4.58961 10.6985 4.5851 11.0207 4.78295 11.2185Z" fill="#FFF5F5"/>
<path d="M15.9061 6.33274C15.7121 6.13876 15.3975 6.13876 15.2036 6.33274L10.9851 10.5512V14.6144L17.2351 8.36435C17.4291 8.17037 17.4291 7.85584 17.2351 7.66181L15.9061 6.33274Z" fill="#DFEBF1"/>
</g>
<defs>
<clipPath id="clip0_852_22982">
<rect width="22" height="22" fill="white"/>
</clipPath>
</defs>
</svg>
