<svg width="36" height="36" viewBox="0 0 36 36" fill="none" xmlns="http://www.w3.org/2000/svg">
<path d="M11.9988 18.997L12.0015 22.5945C12.0176 25.5924 14.5788 26.9491 17.8962 26.9491C21.2144 26.9491 23.7909 25.5861 23.7909 22.5882V22.5945V18.997H11.9988ZM25.5896 16.5995H26.7888V24.3923H25.5896V16.5995Z" fill="#6B553D"/>
<path d="M26.2492 25.6451C26.8877 25.6451 27.4054 25.1274 27.4054 24.4889C27.4054 23.8503 26.8877 23.3327 26.2492 23.3327C25.6106 23.3327 25.093 23.8503 25.093 24.4889C25.093 25.1274 25.6106 25.6451 26.2492 25.6451Z" fill="#6B553D"/>
<path d="M18.0099 9.08777L6.90417 17.1061L18.0099 25.1396L29.1156 17.1061L18.0099 9.08777ZM17.8577 17.8515C17.2188 17.8515 16.7006 17.3343 16.7006 16.6944C16.7006 16.0546 17.2197 15.5373 17.8577 15.5373C18.4958 15.5373 19.0148 16.0546 19.0148 16.6944C19.0148 17.3343 18.4958 17.8515 17.8577 17.8515Z" fill="#6B553D"/>
<path d="M18.0009 36C8.07646 36 0 27.9253 0 18.0009C0 8.07646 8.07646 0 18.0009 0C27.9253 0 36 8.07467 36 18.0009C36 27.9253 27.9262 36 18.0009 36ZM18.0009 0.960227C8.60445 0.960227 0.960227 8.60445 0.960227 18.0009C0.960227 27.3973 8.60445 35.0416 18.0009 35.0416C27.3973 35.0416 35.0416 27.3973 35.0416 18.0009C35.0416 8.60445 27.3973 0.960227 18.0009 0.960227Z" fill="#6B553D"/>
</svg>
