<svg width="170" height="44" viewBox="0 0 170 44" fill="none" xmlns="http://www.w3.org/2000/svg">
<g opacity="0.7">
<path d="M56.4453 27.1562H60.2891V28.5078H59.2812V39H57.2812L51.7734 29.1797V37.6562H52.9922V39H49.1484V37.6562H50.2422V28.5078H49.1172V27.1406H52.3047L57.7109 36.8672L57.7734 36.4922V28.5078H56.4453V27.1562Z" fill="#007796"/>
<path d="M62.8437 35.1406C62.8437 35.3698 62.8594 35.5807 62.8906 35.7734C62.9271 35.9609 62.9766 36.1406 63.0391 36.3125C63.2318 36.8333 63.5391 37.2266 63.9609 37.4922C64.388 37.7526 64.8698 37.8828 65.4062 37.8828C65.8281 37.8828 66.237 37.8255 66.6328 37.7109C67.0338 37.5911 67.4531 37.4062 67.8906 37.1562L68.4766 38.1484C67.9453 38.513 67.4115 38.7839 66.875 38.9609C66.3385 39.138 65.7812 39.2266 65.2031 39.2266C64.6562 39.2266 64.1484 39.1354 63.6797 38.9531C63.2161 38.7708 62.8151 38.5 62.4766 38.1406C62.1432 37.7812 61.8802 37.3333 61.6875 36.7969C61.5 36.2604 61.4062 35.6354 61.4062 34.9219C61.4062 34.3438 61.487 33.7995 61.6484 33.2891C61.8099 32.7734 62.0495 32.3255 62.3672 31.9453C62.6901 31.5599 63.0885 31.2552 63.5625 31.0312C64.0365 30.8073 64.5885 30.6953 65.2187 30.6953C65.8281 30.6953 66.3359 30.7891 66.7422 30.9766C67.1536 31.1589 67.487 31.4036 67.7422 31.7109C68.0026 32.013 68.1979 32.3594 68.3281 32.75C68.4635 33.1406 68.5573 33.5391 68.6094 33.9453C68.6354 34.1432 68.651 34.3438 68.6562 34.5469C68.6667 34.75 68.6719 34.9479 68.6719 35.1406H62.8437ZM65.1172 31.9141C64.7786 31.9141 64.4818 31.9635 64.2266 32.0625C63.9766 32.1562 63.763 32.2943 63.5859 32.4766C63.4089 32.6536 63.2656 32.8724 63.1562 33.1328C63.0521 33.3932 62.974 33.6849 62.9219 34.0078H67.1172C67.0963 33.7057 67.0469 33.4271 66.9687 33.1719C66.8958 32.9167 66.7812 32.6953 66.625 32.5078C66.4687 32.3203 66.2682 32.1745 66.0234 32.0703C65.7786 31.9661 65.4766 31.9141 65.1172 31.9141Z" fill="#007796"/>
<path d="M70.0312 30.9062H72.5937V32.25H72.2187L73.6328 37.4141L75.5703 30.9062H76.7891L78.6406 37.3984L80.1172 32.25H79.6484V30.9062H82.2109V32.25H81.5156L79.2969 39.125H77.9531L76.1172 32.6641L74.2891 39.125H72.9297L70.7266 32.25H70.0312V30.9062Z" fill="#007796"/>
<path d="M93.375 30.375C93.375 29.9167 93.2917 29.5729 93.125 29.3438C92.9583 29.1146 92.7734 28.9401 92.5703 28.8203C92.3724 28.6953 92.1536 28.6016 91.9141 28.5391C91.6745 28.4714 91.4349 28.4375 91.1953 28.4375C90.7995 28.4375 90.4531 28.4844 90.1562 28.5781C89.8594 28.6667 89.612 28.7891 89.4141 28.9453C89.2213 29.1016 89.0755 29.2839 88.9766 29.4922C88.8776 29.7005 88.8281 29.9193 88.8281 30.1484C88.8281 30.4922 88.888 30.7708 89.0078 30.9844C89.1328 31.1927 89.2891 31.362 89.4766 31.4922C89.6641 31.6172 89.8698 31.7161 90.0937 31.7891C90.3229 31.862 90.5417 31.9349 90.75 32.0078L92.3281 32.5234C92.8021 32.6745 93.2187 32.8464 93.5781 33.0391C93.9427 33.2318 94.2474 33.4609 94.4922 33.7266C94.737 33.987 94.9219 34.2891 95.0469 34.6328C95.1771 34.9766 95.2422 35.375 95.2422 35.8281C95.2422 36.3177 95.1406 36.7708 94.9375 37.1875C94.7396 37.6042 94.4609 37.9661 94.1016 38.2734C93.7422 38.5807 93.3125 38.8229 92.8125 39C92.3177 39.1719 91.7734 39.2578 91.1797 39.2578C90.5703 39.2578 90.0495 39.1875 89.6172 39.0469C89.1849 38.9115 88.8203 38.7292 88.5234 38.5C88.2318 38.2656 87.9974 38 87.8203 37.7031C87.6432 37.4062 87.5052 37.1016 87.4062 36.7891H86.8125V35.4453H88.7812C88.7812 36.0234 88.8411 36.4323 88.9609 36.6719C89.0859 36.9115 89.2578 37.112 89.4766 37.2734C89.6953 37.4297 89.9557 37.5495 90.2578 37.6328C90.5599 37.7109 90.8932 37.75 91.2578 37.75C91.612 37.75 91.9297 37.7083 92.2109 37.625C92.4974 37.5417 92.7396 37.4219 92.9375 37.2656C93.1406 37.1042 93.2943 36.9115 93.3984 36.6875C93.5078 36.4583 93.5625 36.2005 93.5625 35.9141C93.5625 35.5964 93.4948 35.3281 93.3594 35.1094C93.2292 34.8854 93.0599 34.6953 92.8516 34.5391C92.6432 34.3828 92.4141 34.2552 92.1641 34.1562C91.9193 34.0573 91.6823 33.9714 91.4531 33.8984L89.7422 33.4141C89.3672 33.2995 89.0234 33.1536 88.7109 32.9766C88.4036 32.7995 88.138 32.5833 87.9141 32.3281C87.6953 32.0729 87.526 31.776 87.4062 31.4375C87.2864 31.0938 87.2266 30.6979 87.2266 30.25C87.2266 29.7969 87.3151 29.3724 87.4922 28.9766C87.6693 28.5807 87.9297 28.2344 88.2734 27.9375C88.6172 27.6406 89.0364 27.4089 89.5312 27.2422C90.0312 27.0703 90.6016 26.9844 91.2422 26.9844C91.6641 26.9844 92.0521 27.0339 92.4062 27.1328C92.7656 27.2318 93.0885 27.3724 93.375 27.5547C93.6667 27.7318 93.9219 27.9479 94.1406 28.2031C94.3646 28.4531 94.5521 28.7292 94.7031 29.0312H95.2891V30.375H93.375Z" fill="#007796"/>
<path d="M103.766 37.6562H104.75L103.812 34.9688H99.2578L98.3437 37.6562H99.5625V39H95.7187V37.6562H96.75L100.437 27.1562H102.742L106.422 37.6562H107.609V39H103.766V37.6562ZM99.7031 33.6719H103.359L101.516 28.375L99.7031 33.6719Z" fill="#007796"/>
<path d="M109.789 37.6562H110.875V28.4375H108.172V30.2812H106.57V27.1562H117.133V30.2812H115.531V28.4375H112.406V37.6562H113.625V39H109.789V37.6562Z" fill="#007796"/>
</g>
<path d="M49.2568 5.67578H54.6445C55.2422 5.67578 55.79 5.75488 56.2881 5.91309C56.792 6.06543 57.2256 6.29395 57.5889 6.59863C57.958 6.89746 58.2422 7.27246 58.4414 7.72363C58.6465 8.17481 58.749 8.69336 58.749 9.2793C58.749 9.76563 58.6494 10.2256 58.4502 10.6592C58.251 11.0869 57.9697 11.4619 57.6064 11.7842C57.2432 12.1064 56.8066 12.3613 56.2969 12.5488C55.793 12.7363 55.2305 12.8301 54.6094 12.8301H52.2451V17.4883H53.5811V19H49.2568V17.4883H50.5225V7.19629H49.2568V5.67578ZM52.2451 7.19629V11.3887H54.6445C54.9785 11.3887 55.2832 11.3447 55.5586 11.2568C55.8398 11.1631 56.0801 11.0283 56.2793 10.8525C56.4844 10.6768 56.6426 10.457 56.7539 10.1934C56.8711 9.92969 56.9297 9.625 56.9297 9.2793C56.9297 8.62305 56.7305 8.11328 56.332 7.75C55.9336 7.38086 55.2979 7.19629 54.4248 7.19629H52.2451Z" fill="#007796"/>
<path d="M66.6064 11.8193H64.9365V11.2568C64.7432 11.2568 64.5439 11.2949 64.3389 11.3711C64.1396 11.4414 63.9521 11.5527 63.7764 11.7051C63.6006 11.8516 63.4453 12.042 63.3105 12.2764C63.1816 12.5049 63.0879 12.7773 63.0293 13.0938V17.4883H64.5762V19H60.0586V17.4883H61.3154L61.3242 11.4063H60.0586V9.89453H62.9678V11.1514C63.0732 10.9639 63.1904 10.791 63.3193 10.6328C63.4541 10.4688 63.6006 10.3281 63.7588 10.2109C63.9229 10.0879 64.1016 9.99414 64.2949 9.92969C64.4941 9.85938 64.708 9.82422 64.9365 9.82422C65.2412 9.82422 65.5283 9.82422 65.7979 9.82422C66.0674 9.82422 66.3369 9.83008 66.6064 9.8418V11.8193Z" fill="#007796"/>
<path d="M70.043 14.6582C70.043 14.916 70.0605 15.1533 70.0957 15.3701C70.1367 15.5811 70.1924 15.7832 70.2627 15.9766C70.4795 16.5625 70.8252 17.0049 71.2998 17.3037C71.7803 17.5967 72.3223 17.7432 72.9258 17.7432C73.4004 17.7432 73.8604 17.6787 74.3057 17.5498C74.7568 17.415 75.2285 17.207 75.7207 16.9258L76.3799 18.042C75.7822 18.4522 75.1816 18.7568 74.5781 18.9561C73.9746 19.1553 73.3477 19.2549 72.6973 19.2549C72.082 19.2549 71.5107 19.1523 70.9834 18.9473C70.4619 18.7422 70.0107 18.4375 69.6299 18.0332C69.2549 17.6289 68.959 17.125 68.7422 16.5215C68.5312 15.918 68.4258 15.2148 68.4258 14.4121C68.4258 13.7617 68.5166 13.1494 68.6982 12.5752C68.8799 11.9951 69.1494 11.4912 69.5068 11.0635C69.8701 10.6299 70.3184 10.2871 70.8516 10.0352C71.3848 9.7832 72.0059 9.65723 72.7148 9.65723C73.4004 9.65723 73.9717 9.7627 74.4287 9.97363C74.8916 10.1787 75.2666 10.4541 75.5537 10.7998C75.8467 11.1396 76.0664 11.5293 76.2129 11.9688C76.3652 12.4082 76.4707 12.8564 76.5293 13.3135C76.5586 13.5361 76.5762 13.7617 76.582 13.9902C76.5938 14.2188 76.5996 14.4414 76.5996 14.6582H70.043ZM72.6006 11.0283C72.2197 11.0283 71.8857 11.084 71.5986 11.1953C71.3174 11.3008 71.0771 11.4561 70.8779 11.6611C70.6787 11.8604 70.5176 12.1064 70.3945 12.3994C70.2773 12.6924 70.1895 13.0205 70.1309 13.3838H74.8506C74.8271 13.0439 74.7715 12.7305 74.6836 12.4434C74.6016 12.1563 74.4727 11.9072 74.2969 11.6963C74.1211 11.4854 73.8955 11.3213 73.6201 11.2041C73.3447 11.0869 73.0049 11.0283 72.6006 11.0283Z" fill="#007796"/>
<path d="M78.4717 9.89453H81.3721V10.6504C81.7588 10.3516 82.1807 10.1143 82.6377 9.93848C83.0947 9.7627 83.5664 9.67481 84.0527 9.67481C84.6504 9.67481 85.1982 9.78613 85.6963 10.0088C86.1943 10.2314 86.6221 10.5449 86.9795 10.9492C87.3428 11.3535 87.624 11.8398 87.8232 12.4082C88.0225 12.9707 88.1221 13.5947 88.1221 14.2803C88.1221 15.0127 88.0107 15.6807 87.7881 16.2842C87.5654 16.8877 87.2549 17.4063 86.8564 17.8398C86.4639 18.2676 85.9951 18.6016 85.4502 18.8418C84.9053 19.082 84.3076 19.2022 83.6572 19.2022C83.1943 19.2022 82.7812 19.1523 82.418 19.0527C82.0605 18.959 81.7178 18.8359 81.3896 18.6836V21.6279H82.8135V23.1397H78.4893V21.6279H79.7373V11.4063H78.4717V9.89453ZM83.6221 11.1162C83.2002 11.1162 82.793 11.2012 82.4004 11.3711C82.0137 11.541 81.6768 11.7754 81.3896 12.0742V17.0049C81.583 17.2041 81.8584 17.3828 82.2158 17.541C82.5791 17.6992 83.0303 17.7783 83.5693 17.7783C83.9443 17.7783 84.3047 17.7051 84.6504 17.5586C84.9961 17.4121 85.3008 17.1953 85.5645 16.9082C85.8281 16.6152 86.0391 16.2549 86.1973 15.8272C86.3555 15.3994 86.4346 14.9043 86.4346 14.3418C86.4346 13.8262 86.3584 13.3691 86.2061 12.9707C86.0596 12.5723 85.8574 12.2354 85.5996 11.96C85.3477 11.6846 85.0518 11.4766 84.7119 11.3359C84.3721 11.1895 84.0088 11.1162 83.6221 11.1162Z" fill="#007796"/>
<path d="M97.0254 9.29688C97.0254 8.78125 96.9316 8.39453 96.7441 8.13672C96.5566 7.87891 96.3486 7.68262 96.1201 7.54785C95.8975 7.40723 95.6514 7.30176 95.3818 7.23145C95.1123 7.15527 94.8428 7.11719 94.5732 7.11719C94.1279 7.11719 93.7383 7.16992 93.4043 7.27539C93.0703 7.375 92.792 7.5127 92.5693 7.68848C92.3525 7.86426 92.1885 8.06934 92.0771 8.30371C91.9658 8.53809 91.9102 8.78418 91.9102 9.04199C91.9102 9.42871 91.9775 9.74219 92.1123 9.98242C92.2529 10.2168 92.4287 10.4072 92.6396 10.5537C92.8506 10.6943 93.082 10.8057 93.334 10.8877C93.5918 10.9697 93.8379 11.0518 94.0723 11.1338L95.8477 11.7139C96.3809 11.8838 96.8496 12.0771 97.2539 12.2939C97.6641 12.5107 98.0068 12.7686 98.2822 13.0674C98.5576 13.3604 98.7656 13.7002 98.9062 14.0869C99.0527 14.4736 99.126 14.9219 99.126 15.4316C99.126 15.9824 99.0117 16.4922 98.7832 16.9609C98.5605 17.4297 98.2471 17.8369 97.8428 18.1826C97.4385 18.5283 96.9551 18.8008 96.3926 19C95.8359 19.1934 95.2236 19.29 94.5557 19.29C93.8701 19.29 93.2842 19.2109 92.7979 19.0527C92.3115 18.9004 91.9014 18.6953 91.5674 18.4375C91.2393 18.1738 90.9756 17.875 90.7764 17.541C90.5771 17.207 90.4219 16.8643 90.3105 16.5127H89.6426V15.001H91.8574C91.8574 15.6514 91.9248 16.1113 92.0596 16.3809C92.2002 16.6504 92.3936 16.876 92.6396 17.0576C92.8857 17.2334 93.1787 17.3682 93.5186 17.4619C93.8584 17.5498 94.2334 17.5938 94.6436 17.5938C95.042 17.5938 95.3994 17.5469 95.7158 17.4531C96.0381 17.3594 96.3105 17.2246 96.5332 17.0488C96.7617 16.8672 96.9346 16.6504 97.0518 16.3984C97.1748 16.1406 97.2363 15.8506 97.2363 15.5283C97.2363 15.1709 97.1602 14.8691 97.0078 14.623C96.8613 14.3711 96.6709 14.1572 96.4365 13.9814C96.2021 13.8057 95.9443 13.6621 95.6631 13.5508C95.3877 13.4395 95.1211 13.3428 94.8633 13.2607L92.9385 12.7158C92.5166 12.5869 92.1299 12.4229 91.7783 12.2236C91.4326 12.0244 91.1338 11.7813 90.8818 11.4941C90.6357 11.207 90.4453 10.873 90.3105 10.4922C90.1758 10.1055 90.1084 9.66016 90.1084 9.15625C90.1084 8.64649 90.208 8.16895 90.4072 7.72363C90.6064 7.27832 90.8994 6.88867 91.2861 6.55469C91.6729 6.2207 92.1445 5.95996 92.7012 5.77246C93.2637 5.5791 93.9053 5.48242 94.626 5.48242C95.1006 5.48242 95.5371 5.53809 95.9355 5.64941C96.3398 5.76074 96.7031 5.91895 97.0254 6.12402C97.3535 6.32324 97.6406 6.56641 97.8867 6.85352C98.1387 7.13477 98.3496 7.44531 98.5195 7.78516H99.1787V9.29688H97.0254Z" fill="#007796"/>
<path d="M107.027 12.3203C106.781 11.8809 106.468 11.5586 106.087 11.3535C105.712 11.1484 105.275 11.0459 104.777 11.0459C104.396 11.0459 104.039 11.125 103.705 11.2832C103.371 11.4414 103.078 11.667 102.826 11.96C102.58 12.2529 102.384 12.6104 102.237 13.0322C102.097 13.4482 102.026 13.9141 102.026 14.4297C102.026 14.9395 102.097 15.3994 102.237 15.8096C102.384 16.2197 102.583 16.5713 102.835 16.8643C103.087 17.1514 103.377 17.374 103.705 17.5322C104.039 17.6846 104.396 17.7607 104.777 17.7607C105.34 17.7607 105.829 17.626 106.245 17.3564C106.661 17.0811 106.992 16.6797 107.238 16.1523L108.592 16.8203C108.416 17.1953 108.199 17.5322 107.941 17.8311C107.684 18.1299 107.391 18.3848 107.062 18.5957C106.74 18.8066 106.383 18.9678 105.99 19.0791C105.604 19.1963 105.193 19.2549 104.76 19.2549C104.127 19.2549 103.541 19.1377 103.002 18.9033C102.469 18.6631 102.006 18.3291 101.613 17.9014C101.227 17.4736 100.925 16.9639 100.708 16.3721C100.491 15.7803 100.383 15.1328 100.383 14.4297C100.383 13.7266 100.497 13.0791 100.726 12.4873C100.954 11.8955 101.268 11.3887 101.666 10.9668C102.064 10.5391 102.53 10.2051 103.063 9.96484C103.597 9.72461 104.168 9.60449 104.777 9.60449C105.352 9.60449 105.894 9.7041 106.403 9.90332C106.919 10.1025 107.37 10.4043 107.757 10.8086H108.68V12.3203H107.027Z" fill="#007796"/>
<path d="M110.402 5.32422H113.285V10.8965H113.338C113.502 10.7324 113.689 10.5801 113.9 10.4395C114.117 10.293 114.343 10.167 114.577 10.0615C114.812 9.95606 115.055 9.87402 115.307 9.81543C115.559 9.75684 115.822 9.72754 116.098 9.72754C116.584 9.72754 117.023 9.79492 117.416 9.92969C117.809 10.0645 118.143 10.2695 118.418 10.5449C118.693 10.8203 118.904 11.1748 119.051 11.6084C119.203 12.0361 119.279 12.543 119.279 13.1289V17.4883H120.65V19H116.326V17.4883H117.574V13.3311C117.574 12.6338 117.396 12.1064 117.038 11.749C116.687 11.3857 116.18 11.2041 115.518 11.2041C115.143 11.2041 114.762 11.2949 114.375 11.4766C113.988 11.6523 113.625 11.875 113.285 12.1445V17.4883H114.604V19H110.279V17.4883H111.65V6.83594H110.402V5.32422Z" fill="#007796"/>
<path d="M122.057 14.4473C122.062 13.7266 122.177 13.0703 122.399 12.4785C122.628 11.8867 122.944 11.3799 123.349 10.958C123.753 10.5303 124.233 10.2021 124.79 9.97363C125.347 9.74512 125.959 9.63086 126.627 9.63086C127.301 9.63086 127.916 9.74512 128.473 9.97363C129.035 10.2021 129.516 10.5273 129.914 10.9492C130.312 11.3652 130.623 11.8691 130.846 12.4609C131.068 13.0527 131.18 13.709 131.18 14.4297C131.18 15.1387 131.068 15.792 130.846 16.3897C130.623 16.9814 130.312 17.4912 129.914 17.9189C129.516 18.3467 129.035 18.6807 128.473 18.9209C127.916 19.1553 127.301 19.2725 126.627 19.2725C125.941 19.2725 125.32 19.1553 124.764 18.9209C124.207 18.6865 123.729 18.3584 123.331 17.9365C122.933 17.5088 122.622 16.999 122.399 16.4072C122.177 15.8154 122.062 15.1621 122.057 14.4473ZM123.788 14.4473C123.788 14.9688 123.861 15.4404 124.008 15.8623C124.16 16.2842 124.365 16.6445 124.623 16.9434C124.887 17.2363 125.188 17.4648 125.528 17.6289C125.874 17.7871 126.24 17.8662 126.627 17.8662C127.031 17.8662 127.406 17.7871 127.752 17.6289C128.104 17.4707 128.408 17.2451 128.666 16.9522C128.924 16.6533 129.126 16.293 129.272 15.8711C129.419 15.4492 129.492 14.9746 129.492 14.4473C129.492 13.8965 129.419 13.4072 129.272 12.9795C129.126 12.5518 128.924 12.1943 128.666 11.9072C128.414 11.6201 128.112 11.4033 127.761 11.2568C127.409 11.1104 127.031 11.0371 126.627 11.0371C126.24 11.0371 125.874 11.1104 125.528 11.2568C125.188 11.4033 124.887 11.6201 124.623 11.9072C124.365 12.1943 124.16 12.5518 124.008 12.9795C123.861 13.4072 123.788 13.8965 123.788 14.4473Z" fill="#007796"/>
<path d="M132.832 14.4473C132.838 13.7266 132.952 13.0703 133.175 12.4785C133.403 11.8867 133.72 11.3799 134.124 10.958C134.528 10.5303 135.009 10.2021 135.565 9.97363C136.122 9.74512 136.734 9.63086 137.402 9.63086C138.076 9.63086 138.691 9.74512 139.248 9.97363C139.811 10.2021 140.291 10.5273 140.689 10.9492C141.088 11.3652 141.398 11.8691 141.621 12.4609C141.844 13.0527 141.955 13.709 141.955 14.4297C141.955 15.1387 141.844 15.792 141.621 16.3897C141.398 16.9814 141.088 17.4912 140.689 17.9189C140.291 18.3467 139.811 18.6807 139.248 18.9209C138.691 19.1553 138.076 19.2725 137.402 19.2725C136.717 19.2725 136.096 19.1553 135.539 18.9209C134.982 18.6865 134.505 18.3584 134.106 17.9365C133.708 17.5088 133.397 16.999 133.175 16.4072C132.952 15.8154 132.838 15.1621 132.832 14.4473ZM134.563 14.4473C134.563 14.9688 134.637 15.4404 134.783 15.8623C134.936 16.2842 135.141 16.6445 135.398 16.9434C135.662 17.2363 135.964 17.4648 136.304 17.6289C136.649 17.7871 137.016 17.8662 137.402 17.8662C137.807 17.8662 138.182 17.7871 138.527 17.6289C138.879 17.4707 139.184 17.2451 139.441 16.9522C139.699 16.6533 139.901 16.293 140.048 15.8711C140.194 15.4492 140.268 14.9746 140.268 14.4473C140.268 13.8965 140.194 13.4072 140.048 12.9795C139.901 12.5518 139.699 12.1943 139.441 11.9072C139.189 11.6201 138.888 11.4033 138.536 11.2568C138.185 11.1104 137.807 11.0371 137.402 11.0371C137.016 11.0371 136.649 11.1104 136.304 11.2568C135.964 11.4033 135.662 11.6201 135.398 11.9072C135.141 12.1943 134.936 12.5518 134.783 12.9795C134.637 13.4072 134.563 13.8965 134.563 14.4473Z" fill="#007796"/>
<path d="M143.66 5.32422H146.613V17.4883H147.984V19H143.66V17.4883H144.979V6.83594H143.66V5.32422Z" fill="#007796"/>
<path d="M154.937 18.1563C154.591 18.4785 154.207 18.7422 153.785 18.9473C153.369 19.1523 152.895 19.2549 152.361 19.2549C151.916 19.2549 151.506 19.1846 151.131 19.0439C150.762 18.9033 150.442 18.7129 150.173 18.4727C149.903 18.2266 149.692 17.9424 149.54 17.6201C149.394 17.2979 149.32 16.9551 149.32 16.5918C149.32 16.2051 149.376 15.8623 149.487 15.5635C149.604 15.2647 149.757 15.0068 149.944 14.79C150.138 14.5674 150.36 14.3828 150.612 14.2363C150.87 14.084 151.137 13.9639 151.412 13.876C151.693 13.7822 151.978 13.7178 152.265 13.6826C152.558 13.6416 152.836 13.6211 153.1 13.6211C153.521 13.6211 153.876 13.6357 154.163 13.665C154.45 13.6885 154.711 13.7236 154.945 13.7705L154.954 13.0234C154.954 12.7012 154.907 12.4229 154.813 12.1885C154.72 11.9482 154.588 11.752 154.418 11.5996C154.248 11.4414 154.043 11.3242 153.803 11.248C153.568 11.1719 153.305 11.1338 153.012 11.1338C152.736 11.1338 152.473 11.1543 152.221 11.1953C151.969 11.2305 151.731 11.2803 151.509 11.3447C151.292 11.4033 151.09 11.4736 150.902 11.5557C150.721 11.6318 150.565 11.7139 150.437 11.8018L149.9 10.668C150.117 10.5273 150.354 10.3984 150.612 10.2813C150.87 10.1582 151.14 10.0557 151.421 9.97363C151.708 9.88574 151.998 9.81836 152.291 9.77149C152.59 9.71875 152.883 9.69238 153.17 9.69238C153.697 9.69238 154.172 9.75684 154.594 9.88574C155.016 10.0088 155.373 10.2021 155.666 10.4658C155.959 10.7295 156.185 11.0664 156.343 11.4766C156.501 11.8809 156.58 12.3672 156.58 12.9355L156.571 17.4883H157.582V19H154.937V18.1563ZM152.722 17.8838C152.938 17.8838 153.155 17.8574 153.372 17.8047C153.589 17.752 153.794 17.6816 153.987 17.5938C154.181 17.5 154.359 17.3945 154.523 17.2773C154.688 17.1543 154.825 17.0283 154.937 16.8994L154.945 14.8428H153.047C152.73 14.8428 152.44 14.8779 152.177 14.9482C151.919 15.0186 151.693 15.1211 151.5 15.2559C151.312 15.3906 151.166 15.5576 151.061 15.7568C150.955 15.9561 150.902 16.1846 150.902 16.4424C150.902 16.6826 150.946 16.8936 151.034 17.0752C151.122 17.251 151.245 17.4004 151.403 17.5234C151.567 17.6406 151.761 17.7314 151.983 17.7959C152.206 17.8545 152.452 17.8838 152.722 17.8838Z" fill="#007796"/>
<path d="M165.976 11.8193H164.306V11.2568C164.112 11.2568 163.913 11.2949 163.708 11.3711C163.509 11.4414 163.321 11.5527 163.146 11.7051C162.97 11.8516 162.814 12.042 162.68 12.2764C162.551 12.5049 162.457 12.7773 162.398 13.0938V17.4883H163.945V19H159.428V17.4883H160.685L160.693 11.4063H159.428V9.89453H162.337V11.1514C162.442 10.9639 162.56 10.791 162.688 10.6328C162.823 10.4688 162.97 10.3281 163.128 10.2109C163.292 10.0879 163.471 9.99414 163.664 9.92969C163.863 9.85938 164.077 9.82422 164.306 9.82422C164.61 9.82422 164.897 9.82422 165.167 9.82422C165.437 9.82422 165.706 9.83008 165.976 9.8418V11.8193Z" fill="#007796"/>
<g clip-path="url(#clip0_1041_11284)">
<path d="M11.998 22.997L12.0007 26.5945C12.0168 29.5924 14.578 30.9491 17.8954 30.9491C21.2137 30.9491 23.7901 29.5862 23.7901 26.5883V26.5945V22.997H11.998ZM25.5889 20.5996H26.788V28.3924H25.5889V20.5996Z" fill="#6B553D"/>
<path d="M26.249 29.6452C26.8875 29.6452 27.4052 29.1275 27.4052 28.489C27.4052 27.8504 26.8875 27.3328 26.249 27.3328C25.6104 27.3328 25.0928 27.8504 25.0928 28.489C25.0928 29.1275 25.6104 29.6452 26.249 29.6452Z" fill="#6B553D"/>
<path d="M18.01 13.0879L6.9043 21.1062L18.01 29.1397L29.1157 21.1062L18.01 13.0879ZM17.8579 21.8516C17.2189 21.8516 16.7008 21.3344 16.7008 20.6945C16.7008 20.0547 17.2198 19.5374 17.8579 19.5374C18.4959 19.5374 19.015 20.0547 19.015 20.6945C19.015 21.3344 18.4959 21.8516 17.8579 21.8516Z" fill="#6B553D"/>
<path d="M18.0009 40C8.07646 40 0 31.9253 0 22.0009C0 12.0765 8.07646 4 18.0009 4C27.9253 4 36 12.0747 36 22.0009C36 31.9253 27.9262 40 18.0009 40ZM18.0009 4.96023C8.60445 4.96023 0.960227 12.6045 0.960227 22.0009C0.960227 31.3973 8.60445 39.0416 18.0009 39.0416C27.3973 39.0416 35.0416 31.3973 35.0416 22.0009C35.0416 12.6045 27.3973 4.96023 18.0009 4.96023Z" fill="#6B553D"/>
</g>
<defs>
<clipPath id="clip0_1041_11284">
<rect width="36" height="36" fill="white" transform="translate(0 4)"/>
</clipPath>
</defs>
</svg>
