<svg width="572" height="274" viewBox="0 0 572 274" fill="none" xmlns="http://www.w3.org/2000/svg">
<path d="M571.354 274H0.648218C0.290995 274 0 273.777 0 273.504V273.335C0 273.062 0.290995 272.839 0.648218 272.839H571.352C571.709 272.839 572 273.062 572 273.335V273.504C572.002 273.777 571.709 274 571.354 274Z" fill="#2E3552"/>
<path d="M48.15 153.763L45.9814 177.508L49.2059 178.009L58.3331 156.882L48.15 153.763Z" fill="#FFCAAC"/>
<path d="M49.6275 175.565C49.6275 175.565 48.8789 178.052 49.3454 179.903C49.6571 181.137 47.7388 182.834 45.618 185.179C45.4041 185.416 45.0082 185.177 45.0537 184.863C45.0787 184.699 45.1288 184.503 45.2266 184.28C45.6112 183.387 46.7126 181.839 46.7126 181.839C46.6238 181.49 44.3642 182.711 43.0876 183.556C42.3458 184.048 40.2022 186.366 39.6311 186.019C39.0599 185.673 39.9838 183.444 40.9759 181.8C41.9681 180.158 45.5384 178.769 45.9844 177.51C46.4281 176.246 49.6275 175.565 49.6275 175.565Z" fill="#FFCAAC"/>
<path d="M60.0474 67.6445L83.6743 57.5639L105.456 67.9587L83.6743 79.0229L60.0474 67.6445Z" fill="#004F84"/>
<path d="M63.8704 79.2301L64.2072 78.7838C59.449 75.2019 60.3729 69.2156 60.6596 67.8448C60.696 67.6695 60.6255 67.4896 60.4798 67.3848C60.3342 67.2801 60.1294 67.362 60.093 67.5397C59.779 69.1359 58.9075 75.4957 63.8704 79.2301Z" fill="#EFCBAB"/>
<path d="M64.2051 78.7839L64.9173 79.048L64.3234 79.8108L63.8706 79.2302L64.2051 78.7839Z" fill="#D8A987"/>
<path d="M64.917 79.0479C64.917 79.0479 65.7976 79.6878 66.1071 79.4919C66.1071 79.4919 65.8204 80.3322 65.388 80.4187C65.388 80.4187 64.5893 80.15 64.3208 79.8084L64.917 79.0479Z" fill="#EFCBAB"/>
<path d="M75.3162 247.844L73.7142 254.591L71.5866 263.539H64.9397L64.5438 254.966L64.2366 248.356L75.3162 247.844Z" fill="#FFCAAC"/>
<path d="M62.3118 273.37C62.3118 273.37 62.3118 270.113 62.776 269.03C63.2402 267.948 64.94 263.537 64.94 263.537H71.5869C71.5869 263.537 72.8225 267.559 72.8998 268.875C72.9772 270.189 72.8998 273.37 72.8998 273.37H62.3118Z" fill="#004F84"/>
<path d="M104.514 273.37C104.514 273.37 104.514 270.113 104.05 269.03C103.585 267.948 101.886 263.537 101.886 263.537H95.2387C95.2387 263.537 94.0031 267.559 93.9257 268.875C93.8484 270.189 93.9257 273.37 93.9257 273.37H104.514Z" fill="#004F84"/>
<path d="M77.8849 90.6063C77.8849 90.6063 77.6506 97.8564 76.7244 101.106L69.3835 116.938L85.6263 139.442L97.0154 110.367L90.4254 101.256C90.4254 101.256 88.4366 91.5353 89.4788 87.9376C90.521 84.3398 77.8849 90.6063 77.8849 90.6063Z" fill="#FFCAAC"/>
<path d="M77.8442 91.6059C77.8442 91.6037 80.0288 96.8682 84.1452 96.7544C88.2617 96.6382 89.1969 91.9816 89.1969 91.9816L77.8442 91.6059Z" fill="#EEAE8A"/>
<path d="M75.3884 87.3455C75.3884 87.3455 74.0595 80.7056 73.1311 78.695C72.2026 76.6844 71.4312 67.7128 81.7098 67.2483C81.7098 67.2483 85.6511 67.7128 87.8151 66.3966C87.8151 66.3966 87.8151 67.7105 87.2735 68.175C87.2735 68.175 89.9496 66.49 92.7325 69.5845C95.5155 72.679 91.7563 84.3398 91.9884 86.8924L75.3884 87.3455Z" fill="#2A2C33"/>
<path d="M83.6737 94.7209C80.6905 94.6685 75.2019 90.695 75.2019 85.7743V78.0961C75.2019 76.2995 76.4534 74.8285 77.9849 74.8285H89.3626C90.894 74.8285 92.1456 76.2995 92.1456 78.0961V85.3394C92.1433 90.4992 87.0939 94.7801 83.6737 94.7209Z" fill="#FFCAAC"/>
<path d="M75.202 82.1948C75.202 82.1948 75.2179 77.5815 78.8702 76.871C82.5224 76.1606 90.6961 79.1208 91.8544 75.7553C93.0126 72.3898 76.0553 72.449 75.202 74.5962C74.3487 76.7412 75.202 82.1948 75.202 82.1948Z" fill="#2A2C33"/>
<path d="M76.7244 101.104L83.5215 102.631L90.3913 100.976L92.1457 111.528L84.4362 137.794L75.9985 106.318L76.7244 101.104Z" fill="white"/>
<path d="M76.3899 103.262L81.7898 107.297L83.5578 104.398L85.194 107.297L90.9465 102.283L89.8133 100.974L83.5214 102.631L76.7244 102.322L76.3899 103.262Z" fill="#D2E3FC"/>
<path d="M104.673 160.542L88.4982 161.553C88.4049 161.4 88.3002 161.4 88.1841 161.573L83.426 161.871L63.1441 160.603C63.1441 160.603 58.0423 183.902 60.0471 214.949C60.6865 224.855 62.1156 254.188 63.4763 264.562L77.3776 264.71C79.1798 252.979 81.2642 223.7 82.3838 218.675C82.8935 216.391 83.3645 214.127 83.806 211.889C84.2088 214.439 84.4659 216.509 84.4614 217.798C84.4523 219.861 85.053 223.145 85.8858 227.102C87.0555 232.676 90.4938 258.375 91.5201 265.083H106.106C106.281 255.841 107.073 224.44 107.239 214.947C107.683 189.631 104.673 160.542 104.673 160.542Z" fill="#F66819"/>
<path d="M115.837 242.397C108.401 246.298 57.761 250.92 48.6839 240.202C47.1388 238.378 68.7178 102.629 68.7178 102.629C68.7178 102.629 70.1081 102.228 72.4542 101.787C73.6511 101.561 75.0938 101.327 76.7277 101.129C76.7459 101.636 80.2434 123.683 84.9992 132.279C84.9992 132.279 90.3923 120.413 90.4264 101.252C90.4264 101.156 90.4059 101.063 90.3945 100.972C91.414 101.081 92.4493 101.222 93.487 101.402C93.9262 101.477 94.3653 101.559 94.8045 101.65C96.4725 101.985 98.1496 102.417 99.8198 102.971C99.8175 102.973 117.387 241.584 115.837 242.397Z" fill="#0069AF"/>
<path d="M74.59 101.384C74.59 101.384 66.8418 160.945 63.87 165.41C62.6253 167.277 60.8048 167.582 58.6613 167.165C58.2517 167.088 57.8307 166.983 57.4006 166.856L51.4569 164.576L51.4319 164.567C50.4693 164.183 49.4977 163.818 48.5283 163.518C42.423 161.625 42.8986 156.484 44.5416 149.473C46.1845 142.462 56.9478 108.702 60.5818 106.32C66.9988 102.112 74.59 101.384 74.59 101.384Z" fill="#0069AF"/>
<path d="M90.392 100.974C85.288 100.427 80.5002 100.675 76.7274 101.129C76.7251 101.11 76.7251 101.101 76.7251 101.101C76.7251 101.101 89.3725 93.275 90.392 100.974Z" fill="#FFCAAC"/>
<path d="M85.9384 137.789C78.1129 132.024 72.4536 101.787 72.4536 101.787C73.6505 101.561 75.0932 101.327 76.7271 101.128C76.7453 101.636 80.0471 122.469 84.8052 131.067C84.8052 131.067 90.3939 120.415 90.4258 101.254C90.4258 101.158 90.4053 101.065 90.394 100.974C91.4134 101.083 92.4488 101.224 93.4864 101.404C93.9256 101.479 94.3648 101.561 94.8039 101.652C94.813 117.79 85.9384 137.789 85.9384 137.789Z" fill="#B75742"/>
<path d="M72.415 71.1603L72.6267 74.6373C72.6267 74.6373 80.632 69.284 93.7641 74.2001L93.5821 69.1724C93.3887 68.191 92.7834 67.3417 91.9187 66.843C89.4565 65.4244 83.6881 62.7944 74.5768 67.1982C73.2979 67.813 72.4992 69.744 72.415 71.1603Z" fill="#0069AF"/>
<path d="M77.321 97.9064L74.5903 101.384L81.8106 106.318L83.5218 102.631L77.321 97.9064Z" fill="white"/>
<path d="M89.8361 97.9064L83.5215 102.631L85.3328 106.318L91.5473 101.113L89.8361 97.9064Z" fill="white"/>
<path d="M83.3174 110.781C83.5109 110.587 83.8272 110.587 84.0229 110.781C84.2163 110.977 84.2163 111.291 84.0229 111.487C83.8294 111.68 83.5131 111.68 83.3174 111.487C83.1217 111.291 83.1217 110.977 83.3174 110.781Z" fill="#D2E3FC"/>
<path d="M83.669 116.997C83.9442 116.997 84.1674 116.774 84.1674 116.499C84.1674 116.223 83.9442 116 83.669 116C83.3938 116 83.1707 116.223 83.1707 116.499C83.1707 116.774 83.3938 116.997 83.669 116.997Z" fill="#D2E3FC"/>
<path d="M83.3174 121.668C83.5109 121.474 83.8272 121.474 84.0229 121.668C84.2163 121.861 84.2163 122.178 84.0229 122.374C83.8294 122.567 83.5131 122.567 83.3174 122.374C83.1217 122.178 83.1217 121.863 83.3174 121.668Z" fill="#D2E3FC"/>
<path d="M99.8169 102.973C99.8169 102.973 104.684 104.997 107.285 110.963C109.888 116.929 120.688 133.224 120.376 140.856C120.062 148.489 118.597 155.432 111.336 155.669C106.352 155.83 101.278 150.951 101.278 143.653C101.28 136.352 99.8169 102.973 99.8169 102.973Z" fill="#0069AF"/>
<path d="M115.276 151.39C115.08 153.448 114.311 155.108 112.47 155.571C106.649 157.028 104.074 151.406 105.3 145.898C105.341 145.716 105.387 145.538 105.441 145.369C106.684 141.344 111.153 140.726 112.805 140.638C113.192 140.617 113.424 140.624 113.424 140.624C113.424 140.624 113.456 140.715 113.515 140.886C113.933 142.115 115.649 147.471 115.276 151.39Z" fill="#004F84"/>
<path d="M115.277 151.39C115.277 151.39 98.3056 143.746 91.5882 134.97C91.0921 134.321 92.3642 133.531 92.3642 133.531L112.805 140.635L113.518 140.881C113.934 142.116 115.65 147.471 115.277 151.39Z" fill="#FFCAAC"/>
<path d="M95.3111 133.945H72.8879V163.515H95.3111V133.945Z" fill="#FCECDB"/>
<path d="M82.1019 154.79L79.5806 159.005L81.1757 158.777L81.8584 160.045L83.9997 156.17L82.1019 154.79Z" fill="#932424"/>
<path d="M85.442 154.528L87.9633 158.743L86.3704 158.515L85.6877 159.786L83.5442 155.91L85.442 154.528Z" fill="#932424"/>
<path d="M81.2139 153.858C81.4961 152.014 82.4837 151.29 84.0128 151.058C86.0085 150.755 86.8117 152.312 86.8117 153.858C86.8117 155.404 85.5579 156.659 84.0128 156.659C82.4677 156.659 80.9795 155.389 81.2139 153.858Z" fill="#BC3F3F"/>
<path d="M84.0085 156.09C83.3327 156.09 82.6455 155.776 82.2131 155.272C81.8536 154.853 81.6989 154.343 81.7785 153.836C81.9833 152.506 82.6637 151.825 83.9903 151.622C84.6116 151.527 85.1281 151.652 85.5218 151.991C85.9792 152.385 86.2431 153.064 86.2431 153.854C86.2431 155.088 85.2419 156.09 84.0085 156.09ZM84.3749 151.852C84.2634 151.852 84.1496 151.861 84.029 151.88C82.8184 152.064 82.2222 152.661 82.0356 153.874C81.9696 154.305 82.1039 154.742 82.4111 155.102C82.7957 155.55 83.4078 155.83 84.0085 155.83C85.0963 155.83 85.9814 154.945 85.9814 153.856C85.9814 153.141 85.7516 152.535 85.3511 152.189C85.0917 151.964 84.764 151.852 84.3749 151.852Z" fill="#932424"/>
<path d="M87.2219 137.505H80.9801C80.8777 137.505 80.7913 137.42 80.7913 137.316C80.7913 137.213 80.8754 137.127 80.9801 137.127H87.2219C87.3243 137.127 87.4108 137.211 87.4108 137.316C87.4085 137.42 87.3243 137.505 87.2219 137.505Z" fill="#0069AF"/>
<path d="M88.4324 138.293H79.7694C79.667 138.293 79.5806 138.208 79.5806 138.104C79.5806 138.001 79.6648 137.915 79.7694 137.915H88.4324C88.5348 137.915 88.6213 137.999 88.6213 138.104C88.619 138.208 88.5348 138.293 88.4324 138.293Z" fill="#0069AF"/>
<path d="M90.4887 144.821H77.7093C77.5909 144.821 77.4954 144.725 77.4954 144.607C77.4954 144.488 77.5909 144.393 77.7093 144.393H90.4887C90.607 144.393 90.7026 144.488 90.7026 144.607C90.7026 144.723 90.607 144.821 90.4887 144.821Z" fill="#0069AF"/>
<path d="M90.4887 145.895H77.7093C77.5909 145.895 77.4954 145.8 77.4954 145.681C77.4954 145.563 77.5909 145.467 77.7093 145.467H90.4887C90.607 145.467 90.7026 145.563 90.7026 145.681C90.7026 145.797 90.607 145.895 90.4887 145.895Z" fill="#0069AF"/>
<path d="M90.4887 146.833H77.7093C77.5909 146.833 77.4954 146.738 77.4954 146.619C77.4954 146.501 77.5909 146.405 77.7093 146.405H90.4887C90.607 146.405 90.7026 146.501 90.7026 146.619C90.7026 146.738 90.607 146.833 90.4887 146.833Z" fill="#0069AF"/>
<path d="M90.4887 147.863H77.7093C77.5909 147.863 77.4954 147.767 77.4954 147.649C77.4954 147.53 77.5909 147.435 77.7093 147.435H90.4887C90.607 147.435 90.7026 147.53 90.7026 147.649C90.7026 147.767 90.607 147.863 90.4887 147.863Z" fill="#0069AF"/>
<path d="M91.5661 153.965C91.1633 154.3 90.7309 154.578 90.2781 154.833C90.3168 154.712 90.3486 154.587 90.3418 154.475C90.3327 154.323 90.2121 154.255 90.0892 154.191C90.0597 154.175 90.0301 154.159 90.0028 154.141C90.0505 154.095 90.0756 154.029 90.0437 153.958C89.9914 153.842 89.848 153.861 89.798 153.968C89.7889 153.988 89.7843 154.006 89.782 154.027C89.7616 154.015 89.7479 154.004 89.7343 153.988C89.8093 153.849 89.8799 153.706 89.9436 153.562C89.9573 153.53 89.939 153.492 89.914 153.471C89.8071 153.389 89.6592 153.417 89.5727 153.519C89.4703 153.64 89.4953 153.824 89.5454 153.961C89.5499 153.97 89.5522 153.979 89.5568 153.99C89.4612 154.161 89.3588 154.33 89.2473 154.491C89.2359 154.48 89.2268 154.471 89.2154 154.459C89.1858 154.432 89.1563 154.396 89.129 154.355C89.179 154.223 89.2132 154.084 89.2245 153.938C89.2291 153.874 89.1654 153.842 89.1108 153.863C88.9606 153.918 88.8809 154.07 88.9014 154.225C88.9082 154.28 88.9242 154.33 88.9492 154.377C88.9151 154.45 88.8764 154.519 88.8286 154.587C88.799 154.63 88.8195 154.676 88.8559 154.696C88.8081 154.858 88.7421 155.026 88.6283 155.143C88.5373 155.238 88.3644 155.311 88.2529 155.197C88.1823 155.124 88.1732 155.004 88.1641 154.91C88.1391 154.676 88.1232 154.432 88.1323 154.195C88.1368 154.084 88.1482 153.97 88.1869 153.865C88.2096 153.799 88.2438 153.699 88.2756 153.813C88.2916 153.867 88.2688 153.954 88.2643 154.011C88.2551 154.111 88.4099 154.122 88.4213 154.022C88.4326 153.904 88.485 153.656 88.353 153.583C88.2415 153.521 88.1391 153.61 88.089 153.701C87.9047 154.034 87.9775 154.489 88.0048 154.849C88.0276 155.136 88.1346 155.489 88.5009 155.398C88.8468 155.311 88.9742 154.876 89.0516 154.576C89.0561 154.557 89.0561 154.539 89.0493 154.526C89.0516 154.523 89.0516 154.521 89.0539 154.519C89.0675 154.532 89.0835 154.548 89.0971 154.562C89.1176 154.58 89.1358 154.598 89.1563 154.619C89.1199 154.669 89.0834 154.719 89.0448 154.769C89.0243 154.796 89.0288 154.84 89.0516 154.865C89.1676 155.004 89.377 154.901 89.3724 154.728C89.3724 154.689 89.3611 154.653 89.3451 154.621C89.4544 154.464 89.5568 154.302 89.6501 154.136C89.7001 154.184 89.7616 154.216 89.8389 154.211C89.8435 154.211 89.8503 154.211 89.8548 154.209C89.8958 154.252 89.9459 154.286 89.9914 154.314C90.0369 154.339 90.087 154.355 90.1279 154.387C90.203 154.448 90.1803 154.516 90.1643 154.603C90.1439 154.717 90.1074 154.831 90.0733 154.942C89.9163 155.033 89.7593 155.147 89.7069 155.329C89.6592 155.496 89.7024 155.671 89.8435 155.773C89.8867 155.805 89.9436 155.78 89.9618 155.735C90.0506 155.516 90.1325 155.293 90.2007 155.065C90.203 155.058 90.2053 155.051 90.2076 155.045C90.3464 154.965 90.492 154.894 90.6308 154.815C90.9972 154.598 91.3431 154.35 91.6707 154.079C91.7458 154.018 91.6434 153.899 91.5661 153.965ZM89.6592 153.756C89.6569 153.692 89.691 153.578 89.7638 153.581C89.732 153.651 89.6978 153.722 89.6614 153.79C89.6614 153.779 89.6592 153.767 89.6592 153.756ZM89.8594 155.568C89.7934 155.445 89.889 155.293 89.9959 155.19C89.9527 155.318 89.9072 155.445 89.8594 155.568Z" fill="#0069AF"/>
<path d="M94.4315 162.671H73.9243V134.97H94.4315V162.671ZM74.161 162.436H94.1971V135.205H74.161V162.436Z" fill="#0069AF"/>
<path d="M87.4089 131.696C87.4089 131.696 83.2788 135.248 84.7647 135.783C86.2529 136.318 90.2442 133.948 91.027 133.948C91.8098 133.948 93.6097 133.948 93.6097 133.948C93.6097 133.948 91.0588 130.992 89.7117 131.07C88.3646 131.147 87.4089 131.696 87.4089 131.696Z" fill="#FFCAAC"/>
<path d="M63.868 125.388L58.6593 167.163C58.2497 167.086 57.8288 166.981 57.3987 166.853L51.455 164.574L51.4299 164.565C51.4299 164.565 53.2617 162.668 55.7466 156.09C58.2315 149.509 63.868 125.388 63.868 125.388Z" fill="#004F84"/>
<path d="M192.545 172.537C192.545 172.537 194.736 177.276 194.618 178.567C194.5 179.858 192.545 183.97 192.545 183.97L190.178 173.088L192.545 172.537Z" fill="#FFCAAC"/>
<path d="M190.823 152.169L192.545 172.537L190.179 173.088L183.937 154.617L190.823 152.169Z" fill="#FFCAAC"/>
<path d="M139.941 86.7468L163.447 72.8613L179.595 84.1851L157.226 97.2349L139.941 86.7468Z" fill="#004F84"/>
<path d="M152.018 93.1453C152.018 93.1453 151.418 96.5655 148.129 98.3279C144.841 100.09 142.024 100.607 142.73 106.282C143.435 111.956 139.56 113.249 138.854 117.009C138.149 120.768 138.238 127.638 147.658 125.584C157.081 123.53 178.658 124.997 181.004 121.943C183.348 118.89 181.705 112.546 177.714 107.728C173.722 102.912 179.004 99.7602 177.127 95.5203C175.249 91.2804 171.645 86.9176 171.645 86.9176C171.645 86.9176 156.142 83.9688 152.018 93.1453Z" fill="#2A2C33"/>
<path d="M156.469 249.381L159.648 262.781L164.41 262.754L164.586 249.381H156.469Z" fill="#FFCAAC"/>
<path d="M196.529 249.952L205.575 262.781L209.102 258.252L203.656 248.19L196.529 249.952Z" fill="#FFCAAC"/>
<path d="M168.978 114.34C169.01 114.354 168.395 129.259 165.842 129.284C165.308 129.289 161.36 118.849 160.857 118.712C158.126 117.967 157.741 111.282 157.78 111.273C158.936 111.043 159.271 109.453 159.246 102.62L159.769 102.722L168.557 104.464C168.557 104.464 168.357 107.233 168.352 109.841C168.345 112.029 168.477 114.105 168.978 114.34Z" fill="#FFCAAC"/>
<path d="M133.475 99.3865L133.188 98.7854C139.582 95.741 139.926 88.5432 139.917 86.881C139.917 86.6669 140.042 86.4757 140.236 86.3891C140.431 86.3026 140.65 86.446 140.65 86.6601C140.638 88.5933 140.145 96.2101 133.475 99.3865Z" fill="#EFCBAB"/>
<path d="M133.19 98.7854L132.298 98.9266L132.81 99.9558L133.475 99.3866L133.19 98.7854Z" fill="#D8A987"/>
<path d="M132.298 98.9266C132.298 98.9266 131.119 99.4639 130.805 99.1611C130.805 99.1611 130.942 100.206 131.422 100.413C131.422 100.413 132.416 100.291 132.81 99.9558L132.298 98.9266Z" fill="#EFCBAB"/>
<path d="M168.556 104.465C168.556 104.465 168.356 107.233 168.351 109.841C163.434 109.702 160.833 105.211 159.768 102.725L168.556 104.465Z" fill="#EEAE8A"/>
<path d="M157.959 103.032C157.959 103.032 154.628 99.546 153.333 96.2534C152.409 93.9012 151.829 84.6131 161.17 84.0825C161.17 84.0825 163.86 83.8116 166.675 84.9865C168.914 85.9201 172.339 88.2222 170.746 96.7521L170.457 99.5825L157.959 103.032Z" fill="#2A2C33"/>
<path d="M208.253 255.322C208.253 255.322 205.917 255.725 204 255.871C203.575 255.902 203.17 255.923 202.817 255.923C201.893 255.923 200.23 255.574 199.113 255.315L199.028 255.297C198.537 255.181 198.164 255.085 198.025 255.049L197.966 255.033C197.966 255.033 186.317 242.056 179.784 221.252C179.632 220.767 179.47 220.278 179.302 219.784C175.725 209.35 168.311 196.255 164.406 184.398C163.785 182.511 163.225 180.732 162.727 179.052C162.565 178.514 162.408 177.984 162.26 177.465C159.382 167.455 158.549 160.883 157.78 153.861L181.268 159.84C181.266 159.84 191.128 202.619 208.253 255.322Z" fill="#52B7A0"/>
<path d="M170.095 105.856C170.095 105.856 158.727 108.345 157.286 101.236C155.846 94.1267 153.409 89.6614 160.606 87.7715C167.804 85.8815 169.767 88.3065 170.826 90.5631C171.884 92.8197 173.015 105.025 170.095 105.856Z" fill="#FFCAAC"/>
<path d="M165.767 86.5487C165.767 86.5487 164.324 95.5203 159.78 97.7199C155.236 99.9195 152.897 99.0542 152.897 99.0542C152.897 99.0542 155.985 95.3905 155.721 90.135C155.721 90.135 162.611 83.0557 165.767 86.5487Z" fill="#2A2C33"/>
<path d="M165.129 87.382C165.129 87.382 167.837 88.7733 168.77 90.4697C169.703 92.1661 171.644 92.7672 171.769 95.4951C171.769 95.4951 172.98 89.3516 169.689 86.6761C166.201 83.8434 165.129 87.382 165.129 87.382Z" fill="#2A2C33"/>
<path d="M159.488 262.032C159.488 262.032 159.873 264.687 158.881 267.527C158.881 267.527 158.1 271.081 161.6 271.147C165.1 271.213 165.955 270.883 165.559 268.704C165.163 266.525 164.41 262.756 164.41 262.756L159.488 262.032Z" fill="#FFCAAC"/>
<path d="M158.881 267.527C158.881 267.527 158.233 270.883 158.629 272.666C158.629 272.666 159.685 273.458 162.226 273.458C164.636 273.458 165.89 272.666 165.89 272.666C165.89 272.666 165.965 268.989 165.321 267.436C165.321 267.436 162.843 271.159 158.881 267.527Z" fill="#C45446"/>
<path d="M217.531 269.059C217.531 269.059 211.082 261.895 209.102 258.252L204.307 260.711L215.027 270.785L217.535 270.455L217.531 269.059Z" fill="#FFCAAC"/>
<path d="M221.626 273.258C221.626 273.258 214.697 273.258 213.51 273.126C212.322 272.996 211.366 271.277 210.078 268.702C209.552 267.647 208.369 267.067 207.159 266.748V272.714H205.327L203.595 266.374C202.453 264.275 203.504 262.371 204.307 260.711C205.243 260.709 207.757 261.349 212.52 266.721C214.085 268.483 215.815 269.114 217.53 269.061C217.553 269.077 217.578 269.089 217.601 269.1C221.56 270.881 221.626 273.258 221.626 273.258Z" fill="#C45446"/>
<path d="M204 255.87C203.575 255.902 203.17 255.923 202.817 255.923C201.893 255.923 200.23 255.574 199.112 255.315L199.028 255.297L198.025 255.048L197.965 255.033C197.965 255.033 186.317 242.056 179.784 221.252C179.631 220.767 179.47 220.278 179.302 219.784C175.724 209.35 168.311 196.255 164.406 184.398C163.785 182.511 163.225 180.732 162.726 179.052C162.565 178.514 162.408 177.984 162.26 177.465L166.413 174.309C166.413 174.309 178.885 194.517 182.747 213.535C185.946 229.3 199.724 249.736 204 255.87Z" fill="#3C8F7C"/>
<path d="M166.847 215.309C166.918 224.556 166.449 245.82 165.248 254.623C165.248 254.623 164.105 255.634 161.275 255.645C158.376 255.656 157.081 254.586 157.081 254.586C154.061 239.282 151.913 226.617 150.347 215.703C149.064 206.748 147.924 199.069 147.048 192.461C146.27 186.605 151.183 170.745 151.183 170.745L169.619 168.946C169.309 185.152 166.806 209.933 166.847 215.309Z" fill="#52B7A0"/>
<path d="M161.275 255.645C158.808 255.789 157.081 254.586 157.081 254.586C154.061 239.282 151.913 226.617 150.347 215.703C149.064 206.748 147.924 199.069 147.048 192.461C146.27 186.605 151.183 170.745 151.183 170.745L157.431 174.746C157.431 174.746 148.566 182.816 150.743 198.072C152.921 213.326 158.241 253.484 161.275 255.645Z" fill="#3C8F7C"/>
<path d="M190.313 157.971C189.161 158.358 187.862 158.586 186.578 158.772C184.535 159.071 182.539 159.264 181.265 159.84C177.499 161.55 168.363 111.075 168.363 111.075C168.363 111.075 175.012 111.139 178.066 115.952C181.117 120.766 192.998 144.547 194.054 152.169C194.527 155.596 192.752 157.146 190.313 157.971Z" fill="#0069AF"/>
<path d="M204 226.046C204 226.046 203.391 227.574 201.714 229.716C200.881 230.784 199.782 232.002 198.364 233.262C194.628 236.57 188.675 240.15 179.479 241.926C178.99 242.019 178.496 242.108 177.989 242.194C175.217 242.652 172.555 242.982 170.02 243.205C164.864 243.659 160.226 243.681 156.285 243.499C153.584 243.374 151.21 243.151 149.217 242.903C144.714 242.34 142.145 241.648 142.145 241.648C142.145 241.648 142.145 196.034 145.901 168.946C147.981 153.947 154.958 111.282 154.958 111.282L158.426 110.749L166.741 129.284L168.368 111.075L172.147 112.288C174.004 112.885 175.422 114.399 175.9 116.289L204 226.046Z" fill="#0069AF"/>
<path d="M177.2 155.981L157.908 154.022L161.035 126.053L180.327 128.009L177.2 155.981Z" fill="#B75742"/>
<path d="M161.033 126.053L159.795 125.96L156.89 153.906L157.907 154.022L161.033 126.053Z" fill="#9B2323"/>
<path d="M144.852 140.467C144.852 140.467 158.396 144.609 171.341 146.46C171.341 146.46 175.612 148.309 173.608 148.815C173.093 148.944 147.17 154.601 143.327 150.93L144.852 140.467Z" fill="#FFCAAC"/>
<path d="M158.39 110.749C158.39 110.749 148.257 111.977 146.55 114.024C141.159 120.497 136.271 148.141 140.497 154.523C145.544 162.147 153.322 150.183 155.759 143.133C157.024 139.479 159.084 117.396 158.39 110.749Z" fill="#0069AF"/>
<path d="M170.067 146.271C170.067 146.271 171.66 146.123 171.96 145.613C172.563 144.595 173.519 144.609 174.316 144.475C175.112 144.34 176.006 143.468 176.163 143.644C176.32 143.819 175.576 144.78 175.16 145.14C175.16 145.14 176.013 145.192 176.58 144.921C177.144 144.652 179.131 142.384 179.14 143.361C179.162 145.711 178.98 146.087 176.969 147.747C175.317 149.111 169.712 149.619 169.712 149.619L170.067 146.271Z" fill="#FFCAAC"/>
<path d="M158.362 139.857L157.968 143.828C157.342 143.694 156.612 143.473 155.761 143.133C150.204 140.909 152.395 129.854 152.395 129.854C153.26 134.276 156.045 137.691 158.362 139.857Z" fill="#004F84"/>
<path d="M171.644 86.9176C171.644 86.9176 163.427 83.7957 152.016 93.1476L152.25 91.0117C152.459 89.1013 153.442 87.357 154.983 86.2139C156.721 84.9229 159.493 83.502 163.657 82.9122C166.518 82.5092 169.367 83.7297 171.046 86.0842L171.644 86.9176Z" fill="#0069AF"/>
<path d="M190.313 157.971C189.162 158.358 187.862 158.585 186.579 158.772L181.247 135.227C181.247 135.225 190.22 153.325 190.313 157.971Z" fill="#004F84"/>
<path d="M430.398 131.889C430.398 131.889 429.547 130.691 428.577 129.942C427.606 129.193 426.584 127.788 426.884 127.333C427.185 126.877 430.1 124.735 430.1 124.735L431.651 128.581L430.398 131.889Z" fill="#FFCAAC"/>
<path d="M455.547 87.0267L480.924 76.9622L495.118 90.6586L470.995 100.072L455.547 87.0267Z" fill="#004F84"/>
<path d="M441.703 141.282L431.6 128.298L430.398 131.887C430.398 131.887 440.748 155.436 445.485 153.246C447.695 152.228 441.703 141.282 441.703 141.282Z" fill="#FFCAAC"/>
<path d="M473.283 98.938C473.283 98.938 468.354 101.843 471.378 107.475C471.378 107.475 467.062 106.684 466.131 105.396C466.131 105.396 466.24 105.933 466.4 106.204C466.4 106.204 461.343 105.562 460.41 103.674C458.487 99.785 463.152 100.029 465.168 95.9914C467.801 90.7155 471.936 86.5713 477.777 89.4813C477.777 89.4813 485.949 89.035 482.253 99.514C478.56 109.993 482.051 110.918 482.051 110.918C482.051 110.918 480.954 111.138 480.485 111.015C480.485 111.015 479.868 110.571 479.834 110.157C479.834 110.157 479.812 110.788 479.939 111.025C479.939 111.025 476.075 110.382 474.571 108.461C473.065 106.536 472.161 101.003 473.283 98.938Z" fill="#C94C43"/>
<path d="M466.165 115.806C466.159 115.809 466.154 115.811 466.147 115.813C466.117 115.809 466.124 115.806 466.165 115.806Z" fill="#FFCAAC"/>
<path d="M478.148 112.354C478.293 113.655 478.466 114.818 478.541 115.374C478.596 115.772 479.495 122.859 477.85 122.929C476.204 123 472.138 131.397 470.306 131.329C468.254 131.252 466.436 115.806 466.165 115.806C466.688 115.579 468.29 110.499 468.795 108.561C469.41 106.211 469.892 103.672 469.892 103.672L478.223 104.198L478.719 104.23C478.412 105.366 478.193 106.439 478.041 107.436C478.02 107.57 478.002 107.707 477.984 107.837C477.834 108.943 477.968 110.751 478.148 112.354Z" fill="#FFCAAC"/>
<path d="M468.746 102.832C468.746 102.832 467.396 98.5464 467.669 95.2583C467.865 92.913 471.601 86.2571 479.627 89.6636C479.627 89.6636 481.589 89.1945 483.457 91.3372C484.945 93.0405 486.859 96.3763 482.019 102.85L480.613 105.097L468.746 102.832Z" fill="#C94C43"/>
<path d="M478.147 112.354C472.32 110.647 469.846 103.911 469.846 103.911C472.311 103.984 475.521 105.696 478.04 107.436C478.02 107.57 478.002 107.707 477.983 107.837C477.833 108.943 477.968 110.751 478.147 112.354Z" fill="#EEAE8A"/>
<path d="M478.56 109.989C478.56 109.989 468.031 107.384 469.753 100.848C471.474 94.3133 471.276 89.5748 478.071 90.9615C484.865 92.3482 485.509 95.1855 485.466 97.5058C485.418 99.8284 481.343 110.496 478.56 109.989Z" fill="#FFCAAC"/>
<path d="M482.885 92.0659C482.885 92.0659 477.986 98.9722 473.283 98.9381C468.579 98.9039 466.979 97.2166 466.979 97.2166C466.979 97.2166 471.069 95.4268 473.01 90.9228C473.012 90.9251 481.686 87.8442 482.885 92.0659Z" fill="#C94C43"/>
<path d="M482.01 92.5008C482.01 92.5008 483.7 94.7801 483.782 96.5813C483.864 98.3824 483.193 101.871 484.222 102.019C484.222 102.019 487.762 97.3805 486.113 93.7896C484.363 89.9824 482.01 92.5008 482.01 92.5008Z" fill="#C94C43"/>
<path d="M482.34 92.8651C482.34 92.8651 478.171 100.35 471.934 101.45C471.934 101.45 478.797 97.9907 480.669 92.815C482.544 87.6415 482.34 92.8651 482.34 92.8651Z" fill="#C94C43"/>
<path d="M472.987 205.778C472.853 206.338 472.719 206.889 472.587 207.437C471.792 210.737 471.053 213.797 470.586 216.361C469.983 219.693 469.838 222.175 470.634 223.215C472.684 225.904 472.163 240.289 471.488 250.647C471.089 256.811 470.634 261.547 470.634 261.547L466.914 265.382C466.914 265.382 465.735 259.263 464.249 251.838C462.251 241.86 459.696 229.525 458.692 226.506C457.893 224.11 456.731 213.886 455.704 203.446C455.654 202.924 455.602 202.403 455.552 201.879C455.374 200.053 455.204 198.236 455.04 196.46C454.118 186.584 455.452 177.287 455.452 177.287C455.452 177.287 460.292 173.3 466.525 172.762C470.197 172.444 473.652 173.612 475.358 178.129C477.841 184.699 475.322 196.041 472.987 205.778Z" fill="#FFCAAC"/>
<path d="M472.985 205.775C467.886 202.091 460.713 195.535 458.11 184.788C457.612 179.443 461.824 174.368 466.523 172.762C470.195 172.441 473.65 173.612 475.356 178.127C477.841 184.696 475.324 196.043 472.985 205.775Z" fill="#ED975D"/>
<path d="M491.578 140.859L516.634 147.335V150.263C516.634 150.263 491.701 149.969 490.093 147.191C488.484 144.411 491.578 140.859 491.578 140.859Z" fill="#FFCAAC"/>
<path d="M516.632 237.356L515.46 242.194C515.46 242.194 510.283 239.519 503.714 236.06C493.476 230.666 479.855 223.363 477.183 221.314C475.424 219.961 473.097 212.622 470.942 204.32C467.731 191.942 464.902 177.426 464.902 177.426C464.902 177.426 469.654 159.141 482.372 170.333C489.981 177.03 488.8 189.936 487.965 199.973C487.41 206.706 487.011 212.151 489.535 213.56C493.158 215.585 501.941 222.98 508.149 230.219C510.374 232.815 512.27 235.39 513.476 237.69L516.632 237.356Z" fill="#FFCAAC"/>
<path d="M516.632 147.337C516.632 147.337 521.229 145.071 523.056 144.853C524.883 144.634 527.953 144.559 527.953 144.853C527.953 145.146 524.663 147.189 523.787 147.337C522.911 147.485 521.229 148.728 521.741 148.874C522.253 149.02 524.956 148.398 524.993 148.874C525.029 149.35 523.347 149.641 523.056 150.008C522.763 150.374 521.741 150.812 520.096 150.593C518.45 150.374 516.632 150.263 516.632 150.263V147.337Z" fill="#FFCAAC"/>
<path d="M516.632 216.268C500.453 239.58 458.713 242.192 458.713 242.192C451.934 217.441 454.713 154.858 456.265 131.596C456.169 127.533 456.326 124.097 456.993 122.776C458.03 120.716 463.674 117.143 465.699 115.369C465.699 115.369 466.17 115.178 466.573 115.146C466.878 116.212 470.637 128.984 471.01 128.717C471.379 128.455 477.725 116.319 478.394 114.886C479.075 114.907 479.541 114.923 479.678 114.93C480.795 114.982 486.832 116.194 487.339 117.168C487.517 117.507 489.248 122.105 491.426 128.189C491.426 128.189 491.426 128.194 491.428 128.205C495.511 139.62 501.498 137.477 503.876 140.859C505.371 142.981 504.727 146.945 501.955 150.368C501.721 150.659 501.47 150.946 501.204 151.224C499.095 153.458 496.234 154.778 491.579 154.093C490.42 153.922 488.077 152.802 486.167 151.149C490.748 168.372 516.632 216.268 516.632 216.268Z" fill="#0069AF"/>
<path d="M466.85 114.554L464.659 115.806C464.659 115.806 470.639 132.734 470.935 132.661C471.23 132.588 480.214 114.991 480.214 114.991L478.382 114.226L471.01 128.72L466.85 114.554Z" fill="#F99746"/>
<path d="M485.498 92.7262C485.498 92.7262 477.832 88.4248 465.166 95.9892L465.712 93.9102C466.199 92.0522 467.43 90.4719 469.123 89.5679C471.035 88.5478 473.984 87.5504 478.189 87.5846C481.079 87.6074 483.716 89.2377 485.029 91.8131L485.498 92.7262Z" fill="#0069AF"/>
<path d="M447.292 98.2437L447.104 97.6061C453.894 95.5909 455.35 88.5343 455.598 86.8903C455.63 86.6785 455.785 86.5077 455.99 86.4531C456.197 86.3984 456.39 86.5738 456.356 86.7855C456.042 88.6937 454.374 96.142 447.292 98.2437Z" fill="#EFCBAB"/>
<path d="M447.103 97.6038H446.2L446.546 98.7014L447.292 98.2437L447.103 97.6038Z" fill="#D8A987"/>
<path d="M446.2 97.6038C446.2 97.6038 444.953 97.9499 444.689 97.6038C444.689 97.6038 444.662 98.6581 445.106 98.9359C445.106 98.9359 446.107 98.9701 446.548 98.6991L446.2 97.6038Z" fill="#EFCBAB"/>
<path d="M467.299 116.077C467.299 116.077 469.301 119.762 477.275 116.405L471.01 128.72L467.299 116.077Z" fill="white"/>
<path d="M464.658 115.806C464.658 115.806 463.619 150.853 454.981 157.643C454.373 158.123 453.725 158.463 453.037 158.638C448.673 159.754 445.503 157.151 443.357 153.546C440.374 148.539 439.364 141.596 439.871 139.998C440.834 136.951 443.052 142.339 447.713 140.859C452.373 139.381 453.629 120.597 456.883 117.858C457.732 117.148 464.658 115.806 464.658 115.806Z" fill="#0069AF"/>
<path d="M422.509 140.745C422.509 140.745 421.207 140.043 419.967 139.137C419.398 138.716 418.843 138.258 418.431 137.803C418.199 137.543 418.012 137.29 417.899 137.045C417.899 137.045 428.446 124.343 429.283 122.849C430.121 121.356 438.078 109.032 438.078 109.032C438.078 109.032 439.052 109.49 440.222 110.248C440.654 110.531 441.118 110.856 441.564 111.214C442.39 111.876 443.166 112.655 443.637 113.495C443.637 113.495 432.053 125.243 431.236 126.937C430.416 128.631 422.509 140.745 422.509 140.745Z" fill="#EFCBAB"/>
<path d="M419.967 139.137C419.398 138.716 418.843 138.258 418.431 137.803C418.199 137.543 418.012 137.29 417.899 137.045C417.899 137.045 428.446 124.343 429.283 122.849C430.121 121.356 438.078 109.032 438.078 109.032C438.078 109.032 439.052 109.49 440.222 110.248C440.654 110.531 441.118 110.856 441.564 111.214C438.312 114.534 429.533 123.589 428.783 125.142C428.054 126.652 422.336 135.494 419.967 139.137Z" fill="#DDB08E"/>
<path d="M430.814 120.368C430.814 120.368 427.704 123.387 427.346 125.448L430.598 128.059C430.598 128.059 433.445 125.27 434.346 123.207L430.814 120.368Z" fill="#B75742"/>
<path d="M431.6 128.301C431.6 128.301 431.823 126.251 431.352 125.529C430.881 124.808 430.838 122.82 430.399 123.032C429.959 123.243 430.242 124.871 429.964 125.657C429.686 126.445 429.279 130.102 430.399 130.799C431.516 131.495 431.6 128.301 431.6 128.301Z" fill="#FFCAAC"/>
<path d="M428.446 123.157C428.446 123.157 427.151 122.956 426.68 123.817C426.209 124.678 425.622 126.076 426.514 126.629C427.404 127.183 428.446 123.157 428.446 123.157Z" fill="#FFCAAC"/>
<path d="M471.487 250.647C471.089 256.811 470.634 261.547 470.634 261.547L466.914 265.382C466.914 265.382 465.735 259.263 464.249 251.838C464.249 251.84 468.42 253.29 471.487 250.647Z" fill="#F3F3F3"/>
<path d="M474.375 267.089L472.368 268.178C471.638 268.435 471.037 268.51 470.297 268.795C469.176 269.225 468.386 270.07 468.35 270.223C467.783 272.527 466.98 272.381 466.98 272.381L458.915 272.456C458.535 272.267 459.179 270.637 459.489 270.332C460.251 269.581 462.533 269.959 463.366 267.595C463.835 266.267 466.149 262.137 466.149 262.137L466.165 262.123C466.242 262.082 466.672 261.996 469.003 262.481C470.206 262.731 470.707 260.283 470.707 260.283C470.707 260.283 471.089 260.359 471.508 260.661C471.84 260.898 472.198 261.276 472.4 261.873C472.689 262.711 473.872 263.918 474.723 264.705C475.24 265.184 475.631 265.507 475.631 265.507C475.631 265.507 475.984 265.937 474.375 267.089Z" fill="#004F84"/>
<path d="M516.632 237.356L515.46 242.194C515.46 242.194 510.283 239.519 503.714 236.06C506.269 234.439 507.532 232.034 508.151 230.219C510.377 232.815 512.272 235.391 513.478 237.69L516.632 237.356Z" fill="#F3F3F3"/>
<path d="M523.331 239.232C523.331 239.232 523.322 239.23 523.301 239.225C523.149 239.186 522.452 238.956 521.991 237.847C521.686 237.116 521.595 236.518 521.315 235.793L520.17 233.817C518.973 232.239 518.552 232.61 518.552 232.61C518.552 232.61 518.238 233.011 517.776 233.541C517.012 234.416 515.842 235.634 515.014 235.946C514.424 236.167 514.056 236.534 513.83 236.873C513.541 237.301 513.478 237.686 513.478 237.686C513.478 237.686 515.935 238.114 515.721 239.327C515.305 241.673 515.403 242.099 515.446 242.176L515.46 242.192C515.46 242.192 519.651 244.387 520.992 244.817C523.376 245.583 524.623 247.204 525.395 247.946C525.709 248.247 526.141 248.383 526.569 248.315C527.197 248.215 528.014 248.014 528.191 247.627L523.331 239.232Z" fill="#004F84"/>
<path d="M469.355 139.533C469.355 138.864 469.897 138.322 470.566 138.322C471.235 138.322 471.777 138.864 471.777 139.533C471.777 140.203 471.235 140.745 470.566 140.745C469.897 140.745 469.355 140.203 469.355 139.533Z" fill="#004F84"/>
<path d="M469.355 148.525C469.355 147.856 469.897 147.314 470.566 147.314C471.235 147.314 471.777 147.856 471.777 148.525C471.777 149.195 471.235 149.737 470.566 149.737C469.897 149.737 469.355 149.195 469.355 148.525Z" fill="#004F84"/>
<path d="M501.953 150.37C501.719 150.661 501.468 150.948 501.202 151.226C499.093 153.46 496.232 154.781 491.577 154.095C490.418 153.924 488.075 152.804 486.165 151.151C486.165 151.151 482.324 140.654 482.841 139.174C483.36 137.696 490.755 149.202 496.894 149.737C499.293 149.949 500.92 150.142 501.953 150.37Z" fill="#004F84"/>
<path d="M456.81 142.209L454.983 157.643C454.376 158.123 453.727 158.462 453.04 158.638C448.675 159.754 445.505 157.151 443.36 153.546C445.596 153.856 451.021 154.341 452.205 151.977C453.704 148.981 456.81 142.209 456.81 142.209Z" fill="#004F84"/>
<path d="M350.879 58.14C350.879 58.14 353.054 56.1772 353.585 54.8018C354.115 53.4265 354.053 51.1153 354.053 49.617C354.053 49.617 353.398 49.387 353.237 50.102C353.077 50.817 352.784 52.4701 352.181 52.8026C351.578 53.135 350.226 53.0963 349.912 54.8018C349.6 56.5096 350.879 58.14 350.879 58.14Z" fill="#B46E3F"/>
<path d="M345.905 58.4725C345.905 58.4725 343.928 54.4216 344.328 53.1032C344.727 51.7848 350.805 50.3388 351.603 50.9605C352.404 51.5821 351.603 59.151 351.603 59.151L345.905 58.4725Z" fill="#B46E3F"/>
<path d="M409.829 180.495C409.829 180.495 409.538 183.838 410.7 185.439C411.863 187.037 412.493 188.492 412.88 187.764C413.267 187.037 412.25 184.517 412.589 184.564C412.928 184.612 413.868 187.57 414.343 188.49C414.817 189.41 415.834 190.865 416.512 190.139C417.19 189.412 415.882 182.531 415.349 181.659C414.817 180.787 413.702 178.849 413.702 178.849L409.829 180.495Z" fill="#B46E3F"/>
<path d="M368.059 79.7014L391.181 66.6857L406.718 85.9496L385.547 96.2282L368.059 79.7014Z" fill="#004F84"/>
<path d="M377.769 85.838C377.769 85.838 377.284 87.9147 375.93 88.6525C374.574 89.3903 376.706 91.3872 376.171 92.8605C375.639 94.3337 377.789 96.2282 377.789 96.2282L392.723 97.9497C392.723 97.9497 394.912 97.0002 395.106 94.4317C395.299 91.8631 395.529 88.6548 395.529 88.6548L389.005 83.6726L379.61 84.1166L377.769 85.838Z" fill="#FEB700"/>
<path d="M327.592 60.9203C327.592 60.9203 326.902 59.299 326.42 57.5321C326.203 56.7191 326.024 55.8789 325.98 55.148C325.955 54.7336 325.971 54.3601 326.049 54.0459C326.049 54.0459 345.3 50.0656 347.188 49.2982C349.077 48.5309 365.636 42.9794 365.636 42.9794C365.636 42.9794 366.203 44.1316 366.728 45.705C366.922 46.2902 367.111 46.9392 367.261 47.6041C367.536 48.8337 367.682 50.1385 367.495 51.2702C367.495 51.2702 347.989 53.5882 345.969 54.5582C343.95 55.526 327.592 60.9203 327.592 60.9203Z" fill="#EFCBAB"/>
<path d="M326.42 57.5321C326.203 56.7191 326.024 55.8789 325.98 55.148C325.955 54.7336 325.971 54.3601 326.049 54.0459C326.049 54.0459 345.3 50.0656 347.188 49.2982C349.077 48.5309 365.636 42.9794 365.636 42.9794C365.636 42.9794 366.203 44.1316 366.728 45.705C366.922 46.2902 367.111 46.9392 367.261 47.6041C361.768 48.2781 346.87 50.1772 345.018 51.0629C343.222 51.926 331.33 55.904 326.42 57.5321Z" fill="#DDB08E"/>
<path d="M350.458 48.1301C350.458 48.1301 345.319 48.6288 343.458 50.2797L344.546 55.1298C344.546 55.1298 349.267 54.6493 351.639 53.3992L350.458 48.1301Z" fill="#B75742"/>
<path d="M355.125 272.454C355.125 272.454 355.125 269.36 355.567 268.333C356.008 267.303 357.624 263.116 357.624 263.116H363.938C363.938 263.116 365.113 266.937 365.188 268.187C365.261 269.437 365.188 272.456 365.188 272.456H355.125V272.454Z" fill="#004F84"/>
<path d="M395.223 272.454C395.223 272.454 395.223 269.36 394.782 268.333C394.34 267.303 392.725 263.116 392.725 263.116H386.41C386.41 263.116 385.236 266.937 385.161 268.187C385.088 269.437 385.161 272.456 385.161 272.456H395.223V272.454Z" fill="#004F84"/>
<path d="M379.425 98.3027C379.425 98.3027 378.158 105.077 376.817 107.994L369.185 111.744L379.867 132.875L394.535 119.625L389.663 110.116C389.663 110.116 389.199 100.7 390.698 97.4739C392.196 94.2473 379.425 98.3027 379.425 98.3027Z" fill="#B46E3F"/>
<path d="M379.244 99.2386C379.244 99.2363 380.536 104.496 384.416 104.984C388.298 105.469 389.85 101.231 389.85 101.231L379.244 99.2386Z" fill="#8F532A"/>
<path d="M384.269 103.005C381.476 102.524 376.896 97.9999 377.606 93.3798L378.714 86.1683C378.973 84.481 380.361 83.281 381.797 83.5019L392.481 85.1459C393.917 85.3668 394.882 86.9288 394.622 88.6161L393.575 95.4177C392.831 100.266 387.47 103.556 384.269 103.005Z" fill="#B46E3F"/>
<path d="M355.916 165.316C355.896 164.474 357.016 198.835 355.368 218.342C353.743 237.608 355.379 264.414 355.379 264.414C355.379 264.414 360.663 267.328 366.391 264.414C366.391 264.414 372.671 227.198 372.633 218.342C372.589 208.911 379.468 166.79 379.468 166.79L355.916 165.316Z" fill="#F66819"/>
<path d="M394.992 264.412C394.992 264.412 389.711 267.328 383.983 264.412C383.983 264.412 377.703 227.198 377.742 218.34C377.76 214.357 376.542 204.541 375.132 194.533C373.2 180.841 370.904 166.79 370.904 166.79L395.372 165.259C395.372 165.259 393.354 199.078 395.006 218.342C396.658 237.604 394.992 264.412 394.992 264.412Z" fill="#F66819"/>
<path d="M381.975 93.867C380.933 93.7054 378.88 93.1543 378.794 91.2826C378.767 90.7156 378.946 90.2443 379.311 89.9164C379.711 89.5566 380.305 89.404 380.938 89.5019L384.144 89.9961C384.754 90.0894 385.152 90.3308 385.329 90.7133C385.627 91.3555 385.195 92.1843 384.997 92.5099C384.314 93.6257 383.541 94.0788 382.565 93.9308C382.524 93.9285 382.298 93.9149 381.975 93.867ZM380.906 89.7137C380.337 89.6272 379.807 89.757 379.454 90.0758C379.14 90.3581 378.985 90.7725 379.008 91.2735C379.053 92.2321 379.659 92.9357 380.812 93.3615C381.691 93.6849 382.569 93.719 382.578 93.719L382.59 93.7213C383.472 93.858 384.18 93.439 384.813 92.4029C384.954 92.1706 385.395 91.3714 385.134 90.8067C384.988 90.4947 384.644 90.2944 384.11 90.2124L380.906 89.7137Z" fill="#2C3A64"/>
<path d="M389.371 95.0057C389.048 94.9556 388.829 94.9009 388.789 94.8895C387.812 94.737 387.212 94.0743 386.895 92.8038C386.802 92.4326 386.64 91.5127 387.116 90.9889C387.4 90.6793 387.853 90.5677 388.463 90.6633L391.669 91.1574C392.302 91.2554 392.823 91.5764 393.096 92.0409C393.344 92.4622 393.374 92.9677 393.178 93.4982C392.536 95.2561 390.413 95.1651 389.371 95.0057ZM388.431 90.8728C387.897 90.7908 387.507 90.8774 387.275 91.1324C386.857 91.5924 387.036 92.4872 387.102 92.7514C387.396 93.9309 387.944 94.5434 388.827 94.6778L388.839 94.68C388.848 94.6823 389.696 94.9169 390.629 94.8713C391.858 94.8121 392.648 94.3248 392.978 93.4231C393.151 92.954 393.128 92.5123 392.912 92.148C392.671 91.7381 392.206 91.4535 391.637 91.3669L388.431 90.8728Z" fill="#2C3A64"/>
<path d="M384.928 91.6356C384.88 91.6287 384.839 91.5946 384.823 91.5445C384.805 91.4762 384.843 91.4056 384.912 91.3874C384.969 91.3714 386.313 91.0026 387.335 91.7631C387.392 91.8064 387.403 91.8861 387.36 91.9407C387.319 91.9976 387.237 92.009 387.18 91.968C386.256 91.2804 384.991 91.6287 384.978 91.6333C384.964 91.6379 384.946 91.6401 384.928 91.6356Z" fill="#2C3A64"/>
<path d="M382.105 111.73L374.877 108.597C374.877 108.597 371.141 138.336 376.129 140.178C376.129 140.178 390.363 114.882 389.395 111.635L382.105 111.73Z" fill="white"/>
<path d="M377.531 106.712C377.531 106.712 375.494 107.062 374.429 108.08C374.429 108.08 375.979 113.119 380.095 114.622L381.861 111.73C381.861 111.73 378.503 110.141 377.531 106.712Z" fill="#D2E3FC"/>
<path d="M381.86 111.73C381.86 111.73 388.593 111.471 389.597 108.226C389.597 108.226 390.942 109.631 390.891 111.908C390.891 111.908 388.762 115.128 383.435 115.164L381.86 111.73Z" fill="#D2E3FC"/>
<path d="M357.055 87.3866C353.805 89.4359 349.368 92.2116 345.745 94.4067C345.568 93.7942 345.436 93.2386 345.361 92.7536C344.161 85.089 345.904 58.4725 345.904 58.4725C345.904 58.4725 347.113 57.8645 348.36 57.7598C350.717 57.5662 351.605 59.1488 351.605 59.1488C351.605 59.1488 355.71 82.566 357.055 87.3866Z" fill="#B46E3F"/>
<path d="M414.598 179.958L412.148 180.978C408.229 182.374 404.001 180.491 402.718 176.531C400.993 171.194 400.813 165.444 400.174 160.712C399.86 158.385 399.496 153.587 398.087 149.851C398.085 149.848 398.085 149.846 398.085 149.846L400.547 232.578C363.647 235.195 345.645 213.97 345.645 213.97C344.692 191.573 353.634 141.107 356.895 123.617C355.323 120.065 344.161 109.866 342.295 99.8511C341.429 95.2014 344.143 91.911 347.44 89.6909C351.589 86.8924 356.659 85.788 356.659 85.788L368.585 101.741C369.092 102.315 369.449 102.766 369.588 103.05C370.508 104.924 375.284 108.037 375.284 108.037C375.27 108.135 375.798 134.934 376.77 135.788C378.174 135.255 387.586 116.403 389.663 110.121C392.66 110.945 395.894 112.063 399.305 113.568C399.305 113.568 405.763 117.018 406.677 132.053C407.453 144.802 415.238 161.074 417.004 175.861C417.211 177.606 416.228 179.284 414.598 179.958Z" fill="#0069AF"/>
<path d="M373.947 107.108C373.947 107.108 374.818 133.092 375.931 139.595L392.49 110.963L390.207 110.118L377.121 133.845L375.828 108.033L373.947 107.108Z" fill="#B75742"/>
<path d="M377.531 106.097C377.531 106.097 375.494 106.448 374.429 107.466C374.429 107.466 375.979 112.505 380.095 114.008L381.861 111.731C381.861 111.731 378.503 109.529 377.531 106.097Z" fill="white"/>
<path d="M381.86 111.731C381.86 111.731 388.593 110.858 389.597 107.611C389.597 107.611 390.942 109.016 390.891 111.293C390.891 111.293 388.762 114.513 383.435 114.55L381.86 111.731Z" fill="white"/>
<path d="M373.204 143.596C373.88 143.596 374.428 143.047 374.428 142.371C374.428 141.694 373.88 141.145 373.204 141.145C372.528 141.145 371.98 141.694 371.98 142.371C371.98 143.047 372.528 143.596 373.204 143.596Z" fill="#004F84"/>
<path d="M369.682 153.391C369.682 152.715 370.23 152.166 370.906 152.166C371.582 152.166 372.13 152.715 372.13 153.391C372.13 154.068 371.582 154.614 370.906 154.614C370.23 154.614 369.682 154.068 369.682 153.391Z" fill="#004F84"/>
<path d="M369.731 91.8974L370.139 91.5126C366.043 87.1884 367.947 81.4389 368.457 80.1364C368.523 79.9702 368.482 79.7812 368.355 79.6537C368.227 79.5262 368.011 79.574 367.947 79.7425C367.374 81.2613 365.458 87.3865 369.731 91.8974Z" fill="#EFCBAB"/>
<path d="M370.138 91.5103L370.796 91.8906L370.081 92.5441L369.731 91.8975L370.138 91.5103Z" fill="#D8A987"/>
<path d="M370.796 91.8905C370.796 91.8905 371.559 92.6693 371.898 92.5258C371.898 92.5258 371.474 93.3046 371.035 93.3205C371.035 93.3205 370.291 92.9243 370.084 92.5418L370.796 91.8905Z" fill="#EFCBAB"/>
<path d="M378.145 87.4023C378.145 87.4023 381.012 87.5959 381.861 86.1431C381.861 86.1431 384.191 86.7238 385.217 85.8517C385.217 85.8517 388.81 86.5781 388.908 85.1253C388.908 85.1253 391.655 90.6244 394.663 89.4745C397.673 88.3245 389.848 82.7503 389.848 82.7503L379.608 84.1165L378.145 87.4023Z" fill="#FEB700"/>
<path d="M378.356 83.2832L377.769 85.8381C377.769 85.8381 385.768 82.9963 395.53 88.6525L395.416 84.5379C395.393 83.7341 395.027 82.9781 394.408 82.468C392.642 81.013 388.419 78.1553 380.6 80.4301C379.503 80.7466 378.611 82.172 378.356 83.2832Z" fill="#0069AF"/>
<path d="M343.404 51.7779C343.376 51.6208 342.848 50.5187 343.57 49.4963C344.291 48.4739 349.029 46.9095 349.47 47.7361C349.912 48.5627 349.632 51.4318 348.109 52.0671C346.587 52.7024 343.52 52.4155 343.404 51.7779Z" fill="#B46E3F"/>
<path d="M356.895 123.612C355.323 120.06 344.161 109.861 342.295 99.8465C341.429 95.1968 344.143 91.9064 347.44 89.6863C347.44 89.6863 345.895 96.7179 350.278 103.064C354.663 109.412 356.895 123.612 356.895 123.612Z" fill="#004F84"/>
<path d="M412.148 180.978C408.229 182.374 404.002 180.491 402.718 176.531C400.993 171.194 400.813 165.444 400.174 160.712C399.86 158.385 399.496 153.587 398.087 149.851C398.219 150.058 402.466 156.773 406.279 167.644C410.155 178.685 408.944 180.295 412.148 180.978Z" fill="#004F84"/>
<path d="M561.918 272.272H541.106C539.991 271.325 541.877 269.175 543.85 269.032C544.706 268.968 545.789 269.146 547.027 269.407C547.313 265.6 548.949 248.49 555.112 249.178C562.043 249.948 555.112 256.713 553.152 260.718C551.701 263.685 550.169 267.939 549.471 269.947C550.033 270.07 550.615 270.189 551.211 270.298C552.131 267.477 555.549 257.981 559.895 258.535C564.999 259.181 562.946 262.988 559.33 265.247C556.677 266.91 553.419 269.271 551.869 270.412C553.18 270.626 554.55 270.771 555.94 270.737C559.503 270.655 561.244 271.707 561.918 272.272Z" fill="#82B378"/>
<path d="M34.0588 272.272C34.0588 272.272 24.4606 245.897 17.7227 248.144C10.9848 250.392 34.0588 272.272 34.0588 272.272Z" fill="#82B378"/>
<path d="M30.384 272.272C29.5671 272.272 14.2527 256.369 13.231 260.531C12.2093 264.696 30.384 272.272 30.384 272.272Z" fill="#82B378"/>
<path d="M46.7201 272.272C46.7201 272.272 40.3873 266.461 32.366 267.973C24.347 269.485 20.9223 271.142 15.8843 269.997C10.8485 268.852 8.2749 272.272 8.2749 272.272H46.7201Z" fill="#82B378"/>
<path d="M267.516 206.563C268.993 204.247 256.55 178.642 263.229 164.383C264.06 162.607 279.57 165.262 279.57 165.262C279.57 165.262 282.742 201.267 280.96 210.796C279.702 217.527 277.235 237.392 275.899 248.472C275.895 248.509 275.89 248.543 275.886 248.577C275.567 251.211 275.312 253.341 275.158 254.666C275.037 255.665 275.155 256.679 275.501 257.626C276.491 260.336 278.637 265.944 279.711 266.718C279.711 266.718 273.842 268.399 272.716 267.738C271.589 267.083 268.725 256.729 268.725 256.729C269.223 255.768 269.398 254.67 269.232 253.6C269.009 252.191 268.672 249.98 268.29 247.261C268.29 247.261 268.29 247.261 268.29 247.263C263.229 226.77 263.991 212.094 267.516 206.563Z" fill="#FFCAAC"/>
<path d="M234.371 252.512C235.178 251.788 235.731 250.827 235.952 249.763C236.241 248.365 236.708 246.177 237.313 243.499C239.816 222.539 245.71 209.081 250.962 205.153C253.16 203.509 250.563 175.156 261.845 164.18C263.249 162.812 276.821 170.779 276.821 170.779C276.821 170.779 267.072 205.584 262.041 213.868C258.487 219.72 249.166 237.431 244.003 247.325H244.005C242.751 249.718 241.746 251.658 241.122 252.855C240.658 253.748 240.41 254.739 240.399 255.745C240.367 258.632 239.98 266.358 241.118 267.032C241.825 267.451 242.44 267.916 242.949 268.385C242.949 268.385 237.597 267.925 236.942 267.889C236.296 267.854 232.193 255.005 232.113 254.759C232.113 254.757 232.113 254.757 232.113 254.757C232.932 253.867 233.765 253.056 234.371 252.512Z" fill="#FFCAAC"/>
<path d="M229.453 259.486L228.108 267.365L228.82 267.893L233.03 261.809L229.453 259.486Z" fill="#004F84"/>
<path d="M229.599 260.088C234.197 262.497 234.876 270.537 235.608 272.27L244.003 272.295C245.27 271.867 244.772 270.07 242.947 268.387C242.947 268.387 237.595 267.927 236.939 267.891C236.293 267.857 232.19 255.007 232.111 254.762C230.181 256.856 228.313 259.414 229.599 260.088Z" fill="#0069AF"/>
<path d="M236.94 233.441C237.311 243.502 257.308 241.568 257.308 241.568L259.955 228.774L261.707 220.282L262.289 217.468L261.411 217.051L248.689 211.008L244.704 209.113L244.543 209.617L237.684 231.112L237.682 231.121L236.94 233.441Z" fill="#FD8847"/>
<path d="M237.682 231.119C243.46 225.174 259.955 228.774 259.955 228.774L261.708 220.282L261.414 217.051L248.691 211.008L244.545 209.617L237.687 231.112L237.682 231.119Z" fill="#F66819"/>
<path d="M267.208 264.758L268.302 272.267H269.515L270.086 266.447L267.208 264.758Z" fill="#004F84"/>
<path d="M267.204 264.76C269.753 265.937 272.545 270.91 273.842 272.27L284.437 272.345C285.763 271.259 281.128 267.747 279.71 266.718C279.71 266.718 273.842 268.399 272.715 267.738C271.589 267.083 268.724 256.729 268.724 256.729C267.47 259.158 265.324 263.89 267.204 264.76Z" fill="#0069AF"/>
<path d="M262.292 213.756L264.922 242.65C269.81 248.85 282.721 245.041 282.721 245.041C282.721 245.041 283.702 221.173 284.203 220.232L282.33 219.681L262.292 213.756Z" fill="#FD8847"/>
<path d="M262.292 213.756L264.922 242.65C265.061 228.43 283.438 229.86 283.438 229.86L282.332 219.679L262.292 213.756Z" fill="#F66819"/>
<path d="M284.806 78.0324L257.841 67.3394L242.758 81.892L268.39 91.8974L284.806 78.0324Z" fill="#004F84"/>
<path d="M272.177 82.9599C272.177 82.9599 272.234 86.1751 274.594 87.177C279.477 89.2491 274.83 91.6514 279.618 95.042C280.719 95.823 281.516 100.669 273.89 101.39C266.263 102.112 265.316 102.761 265.316 102.761C265.316 102.761 259.655 106.393 253.383 102.659C249.752 100.496 254.328 94.4659 252.66 92.9334C250.416 90.8681 250.116 84.1007 253.383 81.3045C256.651 78.5083 261.878 76.887 261.878 76.887L272.177 82.9599Z" fill="#2A2C33"/>
<path d="M293.576 89.9527L293.776 89.2741C286.56 87.1337 285.013 79.6354 284.749 77.8889C284.715 77.6634 284.551 77.4836 284.333 77.4243C284.112 77.3651 283.907 77.5541 283.943 77.7773C284.278 79.8061 286.051 87.7212 293.576 89.9527Z" fill="#EFCBAB"/>
<path d="M293.777 89.2742H294.737L294.368 90.4401L293.576 89.9528L293.777 89.2742Z" fill="#D8A987"/>
<path d="M294.737 89.2742C294.737 89.2742 296.064 89.6431 296.343 89.2742C296.343 89.2742 296.373 90.3945 295.902 90.6906C295.902 90.6906 294.837 90.727 294.371 90.4401L294.737 89.2742Z" fill="#EFCBAB"/>
<path d="M273.828 103.383C273.294 103.315 271.673 102.021 270.941 100.04C270.058 97.6583 269.298 95.067 269.298 95.067L266.954 95.4519L260.692 96.4765L260.18 96.5608C260.68 97.8815 261.056 99.1293 261.327 100.277C261.82 102.356 261.973 104.114 261.914 105.421C261.852 106.755 261.154 107.108 260.776 107.377C260.601 107.488 267.379 129.728 270.652 128.622C273.492 127.661 274.104 103.308 273.828 103.383Z" fill="#FFCAAC"/>
<path d="M261.912 105.419C265.673 103.895 269.298 95.0647 269.298 95.0647C268.549 94.9759 267.755 95.124 266.954 95.4496C264.881 96.2807 262.767 98.2731 261.327 100.275C261.821 102.354 261.975 104.111 261.912 105.419Z" fill="#EEAE8A"/>
<path d="M259.512 101.825C259.512 101.825 270.691 100.013 269.456 93.0632C268.22 86.1137 268.83 81.1998 261.639 82.0628C254.448 82.9281 253.538 85.8245 253.386 88.245C253.236 90.6655 256.572 102.119 259.512 101.825Z" fill="#FFCAAC"/>
<path d="M258.517 108.281C258.517 108.281 239.653 102.6 238.31 101.022C236.968 99.4413 233.709 78.4673 233.707 75.4479L230.962 75.8419C230.962 75.8419 228.928 99.6986 231.286 105.111C233.643 110.521 257.432 119.047 257.432 119.047L258.517 108.281Z" fill="#FFCAAC"/>
<path d="M273.262 103.114C273.262 103.114 270.946 110.339 261.875 105.794L271.401 126.761L273.89 108.014L273.262 103.114Z" fill="#FD8847"/>
<path d="M280.972 105.243C280.972 105.243 279.83 109.003 301.673 120.918L317.786 109.879L319.72 111.501C319.72 111.501 304.271 130.134 301.859 129.738C299.447 129.341 282.863 118.409 282.863 118.409L280.972 105.243Z" fill="#FFCAAC"/>
<path d="M221.587 198.432C221.587 198.432 222.181 200.301 223.53 203.006C225.856 207.656 230.421 214.774 238.057 219.046C246.718 223.894 274.78 233.157 294.051 228.671C294.051 228.671 292.224 167.639 288.176 142.544C288.083 141.963 287.987 141.401 287.892 140.859C289.066 145.365 295.096 146.85 297.569 146.016C302.999 144.188 304.89 139.964 305.147 135.494C305.545 128.613 302.07 121.142 301.674 120.916C292.768 115.857 291.118 107.825 286.792 104.959C282.931 102.399 273.715 103.069 273.264 103.114L271.246 123.168L261.878 105.794C261.864 105.79 246.761 104.476 238.314 101.019C238.314 101.019 213.051 135.997 244.335 135.537C244.335 143.591 240.574 150.914 236.945 161.801C233.342 172.601 221.587 198.432 221.587 198.432Z" fill="#0069AF"/>
<path d="M233.77 75.4616C233.77 75.4616 234.926 74.6578 234.316 72.4491C233.909 70.9713 234.182 69.7736 233.87 69.8077C233.536 69.8464 233.278 71.7637 233.083 72.235C232.919 72.6335 230.409 67.8836 229.765 68.2548C229.121 68.6259 227.872 70.5045 230.869 76.9986L233.77 75.4616Z" fill="#FFCAAC"/>
<path d="M317.785 109.877C317.785 109.877 319.501 105.803 320.072 104.965C321.203 103.303 324.428 102.265 324.637 103C324.844 103.734 322.569 104.817 322.471 106.512C322.443 106.981 323.406 106.07 324 105.715C324.357 105.5 324.571 105.678 324.384 105.949C323.438 107.329 322.921 108.745 322.016 109.269C321.11 109.793 319.72 111.498 319.72 111.498L317.785 109.877Z" fill="#FFCAAC"/>
<path d="M273.262 103.114L271.244 123.17L261.912 105.418L258.517 105.432L272.245 130.425L275.767 103.009L273.262 103.114Z" fill="#B75742"/>
<path d="M254.896 82.3179C254.896 82.3179 251.619 86.1775 261.941 88.0675C265.259 88.6755 266.922 91.8838 266.019 94.5935C264.679 98.6125 268.067 102.941 273.055 101.381C277.026 100.14 270.559 81.5847 267.034 81.3023C263.511 81.0223 254.896 82.3179 254.896 82.3179Z" fill="#2A2C33"/>
<path d="M258.517 83.2059C258.517 83.2059 255.201 85.59 254.919 87.4981C254.637 89.4086 253.863 92.1365 252.596 90.2078C251.328 88.2792 251.117 85.6719 252.596 83.9095C254.075 82.147 257.386 81.3546 258.089 81.9626C258.794 82.5729 258.517 83.2059 258.517 83.2059Z" fill="#2A2C33"/>
<path d="M252.657 82.0992C252.657 82.0992 258.995 76.6388 272.452 84.6768L272.632 81.3546C272.113 79.3804 271.483 79.3963 269.683 78.4354C267.653 77.3515 264.518 76.2927 260.048 76.3291C256.979 76.3542 255.188 75.958 253.791 78.695L252.657 82.0992Z" fill="#0069AF"/>
<path d="M336.536 120.238C336.536 120.238 337.728 118.94 338.773 117.437C339.248 116.742 339.697 116.009 339.983 115.337C340.145 114.955 340.254 114.597 340.286 114.276C340.286 114.276 323.474 104.084 321.95 102.727C320.427 101.372 306.676 90.5972 306.676 90.5972C306.676 90.5972 305.757 91.4921 304.738 92.7991C304.36 93.2864 303.964 93.8329 303.602 94.409C302.931 95.4769 302.357 96.6564 302.155 97.7859C302.155 97.7859 319.763 106.498 321.342 108.087C322.921 109.683 336.536 120.238 336.536 120.238Z" fill="#EFCBAB"/>
<path d="M338.77 117.439C339.245 116.745 339.694 116.012 339.98 115.34C340.142 114.957 340.251 114.6 340.283 114.279C340.283 114.279 323.471 104.087 321.947 102.729C320.424 101.375 306.673 90.5996 306.673 90.5996C306.673 90.5996 305.754 91.4945 304.735 92.8015C304.357 93.2888 303.961 93.8353 303.599 94.4114C308.551 96.8842 321.956 103.658 323.405 105.114C324.809 106.534 334.687 114.26 338.77 117.439Z" fill="#DDB08E"/>
<path d="M319.257 100.534C319.257 100.534 323.934 102.723 325.135 104.902L322.489 109.11C322.489 109.11 318.199 107.079 316.381 105.107L319.257 100.534Z" fill="#B75742"/>
<path d="M322.016 109.269C322.016 109.269 323.197 108.786 323.905 107.903C324.612 107.019 325.575 105.589 324.385 105.951C323.197 106.311 321.083 107.803 320.284 107.941C319.485 108.08 319.774 108.7 319.718 108.877C319.663 109.053 322.016 109.269 322.016 109.269Z" fill="#FFCAAC"/>
<path d="M221.587 198.432C221.587 198.432 222.181 200.301 223.53 203.006C228.593 197.646 235.65 189.112 240.567 178.849C249.05 161.14 244.331 135.539 244.331 135.539C244.331 143.593 240.569 150.916 236.94 161.803C233.342 172.601 221.587 198.432 221.587 198.432Z" fill="#004F84"/>
<path d="M273.888 137.662C273.888 137.195 273.511 136.817 273.044 136.817C272.578 136.817 272.2 137.195 272.2 137.662C272.2 138.128 272.578 138.506 273.044 138.506C273.511 138.506 273.888 138.126 273.888 137.662Z" fill="#004F84"/>
<path d="M273.888 153.016C273.888 152.549 273.511 152.171 273.044 152.171C272.578 152.171 272.2 152.549 272.2 153.016C272.2 153.483 272.578 153.861 273.044 153.861C273.511 153.861 273.888 153.483 273.888 153.016Z" fill="#004F84"/>
<path d="M288.176 142.546C288.082 141.965 287.987 141.403 287.891 140.861C289.065 145.367 295.096 146.852 297.569 146.018C302.999 144.19 304.889 139.966 305.147 135.496C304.56 135.801 295.749 140.308 291.648 137.662C287.473 134.963 284.888 128.856 284.808 128.667L288.176 142.546Z" fill="#004F84"/>
<path d="M465.741 60.1231C465.741 60.1231 463.263 61.988 460.402 61.8332C458.279 61.7171 456.106 59.8567 456.02 59.7315L454.472 62.7395C454.472 62.7395 458.432 64.8981 461.704 64.1034C462.707 63.8598 464.3 62.7782 465.006 61.9903C465.782 61.125 465.741 60.1231 465.741 60.1231Z" fill="#6BB7BF"/>
<path d="M465.388 54.023L469.539 52.0715C469.539 52.0715 469.368 60.8997 462.223 63.9282C462.223 63.9282 466.535 57.6913 465.388 54.023Z" fill="#86D1CD"/>
<path d="M25.5227 140.453C25.5227 140.453 23.0446 142.318 20.1843 142.163C18.0612 142.047 15.8881 140.187 15.8016 140.062L14.252 143.07C14.252 143.07 18.2114 145.228 21.4836 144.434C22.4871 144.19 24.08 143.108 24.7854 142.32C25.5636 141.453 25.5227 140.453 25.5227 140.453Z" fill="#6BB7BF"/>
<path d="M25.1704 134.353L29.321 132.402C29.321 132.402 29.1503 141.23 22.0051 144.258C22.0051 144.256 26.3173 138.019 25.1704 134.353Z" fill="#86D1CD"/>
<path d="M359.42 2.68234C359.42 2.68234 365.451 -1.50971 369.979 4.7408L374.951 2.60036C374.951 2.60036 372.496 -1.27973 362.859 0.441721C356.553 1.56431 359.42 2.68234 359.42 2.68234Z" fill="#5685D8"/>
<path d="M353.48 6.78335C353.48 6.78335 355.123 0 367.493 0C367.493 0 362.858 0.43947 359.238 6.46L353.48 6.78335Z" fill="#739AF0"/>
<path d="M319.88 29.9274C319.88 29.9274 316.548 27.8211 316.198 25.2776C316.198 25.2776 312.955 25.453 312.254 26.505C312.254 26.505 313.745 30.7152 315.497 31.5054C315.497 31.5054 319.441 31.7695 319.88 29.9274Z" fill="#ED7D2B"/>
<path d="M540.728 207.305C540.728 207.305 537.396 205.199 537.046 202.656C537.046 202.656 533.803 202.831 533.102 203.883C533.102 203.883 534.593 208.093 536.345 208.883C536.345 208.883 540.291 209.148 540.728 207.305Z" fill="#ED7D2B"/>
<path d="M21.5505 207.828C21.5505 207.828 18.2191 205.721 17.8686 203.178C17.8686 203.178 14.626 203.353 13.9229 204.405C13.9229 204.405 15.4133 208.616 17.1655 209.406C17.1678 209.406 21.1136 209.67 21.5505 207.828Z" fill="#ED7D2B"/>
</svg>
