<svg width="416" height="422" viewBox="0 0 416 422" fill="none" xmlns="http://www.w3.org/2000/svg">
<path d="M364.523 417.982C364.521 419.652 363.436 421.003 362.098 421.003L2.42091 420.585C1.08273 420.585 0 419.228 0 417.558C0.00234357 415.888 1.08742 414.537 2.4256 414.537L362.103 414.955C363.441 414.955 364.523 416.312 364.523 417.982Z" fill="#184655"/>
<path d="M388.263 81.1018C388.263 81.1018 391.942 75.2268 398.325 78.0576C404.708 80.8877 415.802 88.1025 415.802 88.1025L413.751 91.5301C413.751 91.5301 400.939 83.7064 396.578 81.2548C394.764 80.2354 392.505 79.1073 388.263 81.1018Z" fill="#96D9C9"/>
<path d="M400.369 82.6307C400.369 82.6307 389.281 100.06 385.739 99.9192C382.198 99.7786 379.702 95.8678 383.758 93.6799C387.814 91.4919 389.124 92.0563 392.225 88.5273C395.326 84.9983 397.698 81.0336 397.698 81.0336L400.368 82.6313L400.369 82.6307Z" fill="#96D9C9"/>
<path d="M405.709 85.8259C405.709 85.8259 396.586 96.8499 395.249 100.554C393.911 104.259 395.888 107.749 399.948 107.76C404.007 107.771 404.666 104.65 404.666 104.65C404.666 104.65 401.064 105.132 400 102.517C398.936 99.9029 408.282 86.4855 408.282 86.4855L405.709 85.8259Z" fill="#96D9C9"/>
<path d="M148.221 46.9525L140.499 49.029L139 42.8134L146.722 40.737L144.765 32.6291L150.823 31L152.779 39.1079L160.501 37.0314L162 43.247L154.278 45.3234L156.235 53.4313L150.177 55.0604L148.221 46.9525Z" fill="#F8955E"/>
<path opacity="0.5" d="M365.755 5.97375L360.06 3.40367L342.645 21.9948C341.141 23.6001 341.662 26.2087 343.671 27.1136C344.935 27.6857 346.423 27.3809 347.362 26.3618L351.421 21.9542L357.397 24.6505L356.812 30.6565C356.679 32.025 357.433 33.3284 358.687 33.8944L358.794 33.9427C360.802 34.8503 363.108 33.5144 363.32 31.3225L365.755 5.97375ZM355.421 17.3999L358.616 13.9802L358.165 18.6379L355.421 17.3999Z" fill="#F56819"/>
<path d="M196.283 132.616C196.542 131.907 196.389 129.389 199.841 126.887C201.26 125.869 202.424 125.005 202.716 123.846C203.223 121.85 201.11 120.944 199.028 120.999C197.951 121.03 197.051 120.185 196.993 119.112C196.935 118.019 197.761 117.085 198.855 117.007C200.049 116.921 201.458 117.007 202.944 117.383C207.443 118.522 208.86 121.525 208.141 124.349C207.484 126.937 205.45 128.232 203.793 129.333C201.001 131.193 201.049 133.194 200.82 133.761L196.283 132.616ZM194.207 137.089C194.666 135.285 196.255 134.312 198.026 134.759C199.866 135.226 200.731 136.822 200.308 138.634C199.86 140.405 198.296 141.423 196.453 140.956C194.646 140.497 193.756 138.86 194.207 137.089Z" fill="#466EB6"/>
<path opacity="0.5" d="M161.5 198.66L149.804 196.151L149.733 192.197L166.069 179.62L170.515 180.574L167.427 195.414L170.642 196.104L169.743 200.428L166.528 199.738L165.441 204.962L160.414 203.884L161.5 198.66ZM162.399 194.336L163.968 186.795L156.038 192.971L162.399 194.336Z" fill="#F56819"/>
<path d="M227.41 185.656C228.779 185.768 231.457 186.321 233.918 187.024C236.93 187.883 238.692 188.7 240.009 190.09C241.297 191.333 241.974 193.134 241.409 195.105C240.855 197.046 239.201 198.533 236.482 198.736L236.462 198.8C238.761 200.19 240.07 202.591 239.265 205.405C238.7 207.375 237.35 208.671 235.677 209.38C233.732 210.189 230.873 210.141 226.533 208.904C224.106 208.212 222.338 207.531 221.283 207.056L227.41 185.656ZM229.912 195.394L231.532 195.856C234.121 196.595 235.819 195.925 236.281 194.31C236.754 192.662 235.741 191.427 233.506 190.791C232.437 190.485 231.805 190.374 231.365 190.318L229.912 195.394ZM227.145 205.06C227.613 205.263 228.195 205.43 229.038 205.669C231.271 206.305 233.487 206.03 234.143 203.734C234.773 201.535 233.047 200.098 230.586 199.397L228.902 198.916L227.145 205.06Z" fill="#96D9C9"/>
<path d="M401.733 192.44C401.481 193.658 400.296 194.457 399.071 194.215C397.93 193.991 396.537 193.584 395.011 192.944C387.077 189.618 385.056 182.973 387.791 176.444C391.069 168.62 398.478 166.608 405.426 169.52C406.805 170.099 407.952 170.748 408.842 171.358C409.913 172.095 410.146 173.575 409.364 174.611L409.316 174.675C408.583 175.644 407.209 175.876 406.208 175.181C405.55 174.726 404.777 174.282 403.87 173.902C399.75 172.175 395.507 173.316 393.369 178.418C391.444 183.01 392.958 187.043 397.59 188.983C398.36 189.307 399.207 189.564 400.009 189.746C401.224 190.022 401.988 191.226 401.733 192.44Z" fill="#F7CC7F"/>
<path d="M30.6728 51.2367C30.4863 52.4654 29.345 53.3271 28.1119 53.1548C26.9594 52.9935 25.5454 52.6655 23.9893 52.1123C15.8835 49.2324 13.5007 42.7109 15.8779 36.042C18.7228 28.0499 26.013 25.6287 33.1112 28.15C34.5197 28.6504 35.7028 29.2342 36.6241 29.7957C37.732 30.4712 38.0466 31.9362 37.3228 33.0148L37.2783 33.0815C36.5991 34.0906 35.2407 34.3991 34.2024 33.7597C33.5204 33.34 32.7243 32.9425 31.7974 32.6145C27.5885 31.1189 23.4131 32.4949 21.5565 37.7071C19.8863 42.3967 21.6177 46.3413 26.3498 48.0204C27.1376 48.3011 27.9977 48.5096 28.8078 48.6458C30.0326 48.8515 30.8593 50.008 30.6728 51.2367Z" fill="#F7CC7F"/>
<path d="M265.508 48.3051C264.822 46.558 265.723 44.5121 267.476 43.8336C269.302 43.1295 271.036 43.9537 271.833 45.7639C272.595 47.5882 271.938 49.4713 270.038 50.2653C268.111 51.0673 266.247 50.19 265.508 48.3051ZM264.634 42.9553L258.167 29.4466C257.632 28.3284 258.142 26.9907 259.289 26.5142L260.674 25.9367C261.818 25.4604 263.126 26.0333 263.548 27.1973L268.641 41.2826L264.634 42.9553Z" fill="#466EB6"/>
<path d="M303.974 24.4931C305.801 24.2648 307.617 23.9586 309.4 23.5049C311.417 22.9927 314.011 22.4388 315.563 22.514C318.829 22.6726 324.2 24.1117 326.539 27.992C329.452 32.8242 336.778 30.8507 331.102 51.8832C324.675 75.688 311.836 70.3047 311.594 69.8315C311.353 69.3555 302.805 51.9639 302.805 51.9639C302.805 51.9639 296.934 60.0306 297 59.7049C297.064 59.3876 282.028 27.2237 303.974 24.4931Z" fill="#2A2C33"/>
<path d="M202.979 64.6848C203.72 63.0564 210.586 67.7578 212.08 66.8253C213.574 65.8928 215.576 64.7432 216.29 63.6354C217.004 62.5303 218.623 63.0814 219.914 62.2352C221.208 61.389 225.505 68.0584 227.765 68.8963C230.026 69.7369 231.259 60.7461 233.381 61.0773C235.503 61.4085 227.84 77.7981 228.301 79.0785C228.76 80.3533 237.194 108.862 242.198 116.91C245.126 115.459 262.164 109.224 264.883 107.802C266.066 114.018 269.821 118.733 271.345 124.829C261.9 129.138 235.944 137.152 233.173 136.169C224.73 133.179 220.048 92.3644 218.598 84.7541C217.145 77.1384 213.535 75.6909 211.438 71.7104C209.339 67.73 202.237 66.3131 202.979 64.6848Z" fill="#FFCAAC"/>
<path d="M257.014 134.685C257.014 134.685 293.61 124.016 302.702 116.319C311.795 108.623 313.542 90.8554 304.888 84.8346C296.234 78.8166 250.321 110.009 250.321 110.009L257.014 134.685Z" fill="#F1CC61"/>
<path d="M269.54 390.501C269.54 390.501 270.268 403.62 270.271 403.648C270.537 405.313 271.59 409.43 271.59 410.944C271.59 416.633 246.798 406.114 252.355 403.595C252.858 403.367 255.493 401.641 255.657 399.704C255.912 396.72 256.559 390.685 256.559 390.685L269.54 390.501Z" fill="#FFCAAC"/>
<path d="M252.418 403.54C252.418 403.54 258.239 405.279 261.219 405.713C264.202 406.148 268.132 402.485 270.24 403.475C272.561 404.564 272.325 415.289 272.325 415.289C272.325 415.289 236.766 416.656 232.728 414.871C229.382 413.393 240.518 407.592 252.418 403.54Z" fill="#F66819"/>
<path d="M324.159 391.348C324.159 391.348 324.887 404.467 324.89 404.494C325.156 406.159 326.212 410.276 326.212 411.79C326.212 417.48 301.42 406.961 306.977 404.441C307.48 404.213 310.896 401.199 311.062 399.264C311.318 396.28 311.182 391.534 311.182 391.534L324.159 391.348Z" fill="#FFCAAC"/>
<path d="M307.038 404.386C307.038 404.386 312.859 406.126 315.839 406.56C318.819 406.994 322.751 403.331 324.859 404.322C327.181 405.41 327.272 413.705 327.272 415.214C327.272 416.723 296.359 416.998 286.248 415.364C282.634 414.78 295.14 408.439 307.038 404.386Z" fill="#F66819"/>
<path d="M284.873 201.958L274.392 206.573L252.344 314.068L253.238 394.652L270.912 395.072C270.912 395.072 279.133 324.582 279.133 319.117C279.133 313.656 317.211 223.519 317.211 223.519L284.873 201.958Z" fill="#004F84"/>
<path d="M292.963 207.876C292.963 207.876 300.683 290.697 300.683 304.657C300.683 318.616 306.943 396.753 306.943 396.753L324.659 396.647C324.659 396.647 325.937 372.831 327.836 337.792C328.133 332.306 327.453 321.233 327.836 315.551C330.591 274.692 336.043 236.229 333.441 220.981C333.021 218.525 332.235 212.109 330.7 210.489C319.102 198.236 292.963 207.876 292.963 207.876Z" fill="#0069AF"/>
<path d="M322.143 84.0165C322.143 84.0165 334.368 85.7507 337.584 88.164C341.209 90.8807 345.23 96.96 345.23 96.96C345.23 96.96 330.222 169.393 330.194 181.583C330.172 191.013 333.443 214.167 333.443 214.167C333.443 214.167 288.086 217.09 270.909 210.167C270.909 210.167 276.336 182.629 276.336 175.398C276.336 168.166 282.823 102.416 284.301 97.8229C285.642 93.6559 288.089 86.171 296.379 84.3227C304.663 82.4772 322.143 84.0165 322.143 84.0165Z" fill="#FEDB76"/>
<path d="M318.806 64.5145L321.83 84.7426C321.83 84.7426 310.779 108.826 304.181 106.738C298.646 104.985 302.051 83.6765 302.051 83.6765C302.134 83.1448 305.178 71.5291 304.164 66.5048C303.02 60.8208 318.806 64.5145 318.806 64.5145Z" fill="#FFCAAC"/>
<path d="M304.166 66.5025C303.261 60.7768 318.805 64.5151 318.805 64.5151L319.055 66.1935L319.518 69.2888C319.518 69.2888 314.247 81.8176 302.869 80.0723C303.338 76.9826 304.535 68.8518 304.166 66.5025Z" fill="#EEAE8A"/>
<path d="M273.412 178.326L274.934 183.007C275.626 185.134 277.906 186.298 280.027 185.605L282.296 184.864C284.418 184.171 285.579 181.886 284.887 179.759L283.366 175.077L273.412 178.326Z" fill="#FAE1B4"/>
<path d="M259.193 134.646L273.391 178.333L283.343 175.084L269.145 131.397L259.193 134.646Z" fill="#B75742"/>
<path d="M258.976 122.19L259.217 134.635C261.422 136.745 263.527 137.383 264.194 133.01C267.252 134.226 270.079 136.542 269.171 131.387L262.053 121.185L258.976 122.19Z" fill="#FAE1B4"/>
<path d="M273.225 178.03L273.57 179.085C273.617 179.236 273.778 179.316 273.928 179.269L283.504 176.143C283.654 176.093 283.734 175.934 283.687 175.784L283.343 174.729C283.296 174.579 283.135 174.498 282.985 174.545L273.409 177.671C273.259 177.719 273.175 177.88 273.225 178.03Z" fill="#A1A1A1"/>
<path d="M258.975 122.19C259.958 122.9 260.983 122.566 262.05 121.188C262.05 121.188 259.367 117.157 259.211 117.185C258.95 117.227 258.975 122.19 258.975 122.19Z" fill="#F47458"/>
<path d="M265.002 162.944C265.369 162.674 265.33 162.468 265.33 162.468C264.869 161.847 265.044 159.598 265.805 159.128C266.563 158.657 268.043 158.515 270.907 158.02C273.359 157.594 276.944 157.051 278.355 156.352C281.718 156.466 284.782 159.116 287.156 159.976C287.717 160.18 298.218 159.754 300.939 159.648C303.894 159.534 306.18 159.267 306.18 159.267C306.18 159.267 323.543 156.703 341.639 155.367L338.412 140.433L355.475 138.454C356.628 146.924 359.666 160.071 359.802 164.071C360.072 171.937 333.302 171.136 309.61 170.036C307.005 169.917 304.547 169.788 302.306 169.663C299.251 169.61 294.135 169.936 291.777 170.072C290.297 170.284 288.267 170.593 288.011 170.727C287.606 170.941 284.898 171.447 284.668 171.464C284.437 171.481 283.496 172.01 283.09 172.224C282.685 172.438 277.258 172.617 276.378 172.675C275.497 172.733 273.556 172.213 273.556 172.213L269.926 172.177C267.26 172.149 268.152 169.441 268.152 169.441C266.894 169.421 266.269 168.937 266.083 168.216C265.894 167.495 266.155 166.674 266.11 166.537C266.066 166.401 265.677 166.32 265.677 166.32C264.877 166.34 264.325 165.399 264.25 164.809C264.183 164.221 264.639 163.211 265.002 162.944Z" fill="#FFCAAC"/>
<path d="M335.331 87.0256C335.331 87.0256 342.488 88.7097 349.884 97.1912C356.607 104.904 360.845 148.108 360.845 148.108L337.625 151.941L335.773 131.042L329.568 121.483L335.331 87.0256Z" fill="#FEDB76"/>
<path d="M313.498 33.186C306.677 30.6029 299.192 34.9926 297.929 42.1045C297.379 45.197 296.849 49.0884 296.643 53.3556C296.151 63.6157 301.139 73.7618 305.774 73.8954C310.412 74.029 323.424 67.7521 324.323 53.1914C324.879 44.2005 320.655 35.8972 313.498 33.186Z" fill="#FFCAAC"/>
<path d="M320.871 54.2464C320.805 56.5122 322.243 58.3911 324.085 58.444C325.926 58.4969 327.476 56.7043 327.542 54.4385C327.609 52.1727 326.17 50.2938 324.329 50.2409C322.488 50.188 320.941 51.9806 320.871 54.2464Z" fill="#FFCAAC"/>
<path d="M324.329 50.2407C324.329 50.2407 318.641 50.4829 317.341 46.5804C316.044 42.6806 310.393 33.6786 300.625 34.934C290.858 36.1894 310.207 28.9856 310.937 29.1359C311.668 29.2862 320.446 31.0175 320.446 31.0175C320.446 31.0175 326.067 37.9708 326.187 38.6333C326.306 39.2958 326.895 46.366 326.895 46.366L324.329 50.2407Z" fill="#2A2C33"/>
<path d="M235.628 121.591C235.628 121.591 235.889 125.266 234.742 126.621C229.813 129.213 206.601 135.595 198.533 140.572C195.212 141.527 179.629 142.969 174.413 131.579C179.287 130.568 184.575 129.625 187.524 128.806C191.226 127.779 216.774 116.971 221.034 116.464C229.646 115.434 235.628 121.591 235.628 121.591Z" fill="#999EA5"/>
<path d="M179.629 72.64C179.629 72.64 206.157 62.455 231.782 51.8552C244.543 90.0538 244.915 121.625 234.745 126.618C228.194 129.836 222.14 124.069 225.85 118.162C199.655 126.477 187.525 128.804 187.525 128.804C187.525 128.804 192.773 101.951 179.629 72.64Z" fill="#F8F9FB"/>
<path d="M207.065 72.9629C206.59 71.8299 207.12 70.5245 208.251 70.0457L225.183 62.8976C226.313 62.4216 227.616 62.9532 228.094 64.0861C228.569 65.219 228.038 66.5245 226.908 67.0033L209.975 74.1514C208.842 74.6302 207.54 74.0958 207.065 72.9629Z" fill="#C1C5CB"/>
<path d="M211.661 90.9641C211.186 89.8312 211.717 88.5257 212.847 88.0469L229.78 80.8988C230.91 80.4228 232.213 80.9545 232.69 82.0874C233.165 83.2203 232.635 84.5257 231.504 85.0045L214.572 92.1527C213.439 92.6286 212.136 92.097 211.661 90.9641Z" fill="#C1C5CB"/>
<path d="M213.329 97.2966C212.854 96.1637 213.385 94.8582 214.515 94.3794L231.448 87.2313C232.578 86.7553 233.881 87.287 234.358 88.4199C234.833 89.5528 234.303 90.8583 233.172 91.337L216.24 98.4852C215.107 98.9639 213.804 98.4295 213.329 97.2966Z" fill="#C1C5CB"/>
<path d="M197.122 83.7464C193.25 83.2565 190.498 79.7019 190.987 75.8217C191.476 71.9414 195.022 69.1829 198.894 69.6728C202.765 70.1627 205.517 73.7173 205.028 77.5976C204.54 81.4778 200.993 84.2363 197.122 83.7464ZM198.802 70.3798C195.319 69.94 192.128 72.423 191.69 75.9135C191.251 79.4041 193.728 82.6024 197.211 83.0422C200.693 83.482 203.884 80.9991 204.323 77.5085C204.762 74.0179 202.285 70.8196 198.802 70.3798Z" fill="#0069AF"/>
<path d="M201.03 103.267C197.159 102.777 194.406 99.2227 194.895 95.3424C195.384 91.4621 198.93 88.7037 202.802 89.1908C206.673 89.6807 209.425 93.2353 208.939 97.1155C208.448 100.996 204.901 103.757 201.03 103.267ZM202.713 89.9006C199.23 89.4608 196.039 91.9437 195.6 95.4343C195.162 98.9248 197.639 102.123 201.122 102.563C204.604 103.003 207.795 100.52 208.234 97.0292C208.67 93.5359 206.196 90.3404 202.713 89.9006Z" fill="#0069AF"/>
<path d="M199.999 70.4771C196.583 77.7115 194.226 85.55 194.226 85.55C197.7 80.3252 199.811 73.6141 200.658 70.5578L199.999 70.4771Z" fill="#F66819"/>
<path d="M190.44 74.0068C198.88 75.805 207.295 80.9852 207.295 80.9852C195.825 77.0186 189.768 74.1544 189.768 74.1544L190.44 74.0068Z" fill="#F66819"/>
<path d="M205.776 65.08C206.892 70.2936 207.978 67.5379 208.545 63.6409C208.628 66.0236 209.231 66.2268 209.808 65.9485C210.508 65.6089 211.575 60.3424 211.039 59.3264C210.542 58.3856 207.262 59.9583 206.387 60.6403C205.818 60.9075 205.176 61.2331 204.448 61.4864C202.399 62.199 202.002 62.3688 201.269 62.817C200.138 63.5101 200.594 64.707 200.849 66.5107C201.449 68.9185 203.01 68.8796 203.038 65.2331C203.115 65.5838 203.696 68.7933 204.548 68.8517C205.359 68.9074 205.512 67.6603 205.776 65.08Z" fill="#FFCAAC"/>
<path d="M34.9238 377.895C34.9238 377.895 33.1297 390.438 30.0442 394.485C29.0083 395.843 27.1171 397.561 25.8729 400.016C23.9399 403.838 25.0092 409.527 26.4339 412.662C26.5561 412.934 27.4475 413.63 28.053 413.845C32.9881 415.378 38.237 413.733 40.3393 408.968C41.5141 406.307 42.5444 402.755 42.7499 398.282C43.2776 386.894 46.7908 381.104 46.7908 381.104L34.9238 377.895Z" fill="#FFCAAC"/>
<path d="M88.9155 383.632C88.9155 383.632 90.0236 397.775 89.1238 402.371C88.6434 404.832 85.9606 409.898 87.1909 412.214C88.4212 414.529 90.5319 413.569 90.5319 413.569L119.137 414.187C120.873 414.215 122.286 414.529 120.887 413.491C118.595 411.793 116.746 410.671 109.428 407.1C108.95 406.869 107.212 405.753 106.587 405.369C104.998 404.392 103.401 402.852 102.027 401.31C99.7383 398.741 99.5383 386.288 99.5383 386.288L88.9155 383.632Z" fill="#FFCAAC"/>
<path d="M113.824 195.642C113.824 195.642 117.837 218.604 115.201 233.66C112.566 248.713 100.204 395.231 100.204 395.231L89.3205 390.468C89.3205 390.468 82.9163 330.764 83.444 322.656C83.9717 314.55 88.143 300.986 88.143 300.986L86.7433 253.924L104.479 192.099L113.824 195.642Z" fill="#FFCAAC"/>
<path d="M72.5159 190.813C72.5159 190.813 61.4488 207.603 58.8132 221.499C56.1776 235.394 60.7461 278.099 55.6777 296.309C52.9339 306.166 42.5332 321.389 40.953 334.126C39.3728 346.864 33.6406 384.667 33.6406 384.667L43.9663 389.046L79.8672 299.708L105.481 224.394L112.041 185.602L72.5159 190.813Z" fill="#FFCAAC"/>
<path d="M41.2973 406.46C33.6405 407.868 28.5471 403.353 25.8949 399.974C23.9481 403.801 22.9983 409.516 24.4313 412.662C25.6921 415.431 29.3747 415.353 32.2769 415.462C35.3429 415.576 37.7174 413.858 39.2393 411.167C39.9503 409.909 40.6835 408.341 41.2973 406.46Z" fill="#F66819"/>
<path d="M106.58 405.366C98.1515 407.546 91.9222 406.065 88.4368 404.648C87.537 407.214 86.3456 410.438 86.9788 412.294C87.7536 414.569 88.8534 415.083 89.8282 415.109C97.5266 415.312 118.028 415.59 123.899 415.668C124.718 415.679 125.171 414.713 124.643 414.079C123.185 412.325 107.208 405.753 106.58 405.366Z" fill="#F66819"/>
<path d="M116.634 72.5176C117.042 62.6527 115.592 52.9075 111.188 43.7246C107.4 35.8221 98.0239 31.3378 89.4729 31.3267C62.3229 31.2905 58.8709 67.2456 41.5883 81.1132C36.3089 85.3498 30.4045 88.8013 25.4083 93.3719C6.9566 110.246 15.2688 141.483 32.2097 156.277C43.9684 166.543 62.4451 172.377 76.9366 164.352C84.5017 160.163 90.2422 153.199 94.333 145.569C100.14 134.741 103.881 122.246 108.011 110.705C112.41 98.4213 116.092 85.6337 116.634 72.5176Z" fill="#A14410"/>
<path d="M103.488 103.554C103.488 103.554 99.3357 109.436 101.063 118.229C102.793 127.022 129.077 154.198 132.371 155.946C135.956 157.85 138.155 157.101 139.763 156.186C153.616 148.283 173.187 106.199 175.456 103.198C177.45 100.567 177.45 100.567 177.45 100.567L175.523 93.4917L137.236 135.682C137.236 135.682 105.948 100.626 103.488 103.554Z" fill="#FFCAAC"/>
<path d="M98.8717 96.2979C98.8717 96.2979 101.843 97.4976 102.746 98.0626C108.845 101.89 128.835 123.71 128.835 123.71C128.835 123.71 118.315 135.039 113.658 139.885L87.0547 119.827L98.8717 96.2979Z" fill="#3C8F7C"/>
<path d="M69.9472 192.397C52.8924 213.683 52.9563 228.129 53.1173 255.461C53.2812 282.79 57.1471 291.38 42.1641 319.101C69.2529 335.109 107.942 331.204 107.942 331.204C117.943 238.281 121.134 216.502 113.824 195.642C89.8986 195.726 69.9472 192.397 69.9472 192.397Z" fill="#F66819"/>
<path d="M80.0068 92.5397C80.0068 92.5397 64.3822 91.5432 58.2002 98.2822C52.0181 105.021 71.9112 158.332 73.036 166.908C74.1608 175.484 64.5239 193.699 64.5239 193.699C64.5239 193.699 92.7458 205.674 116.099 198.974C116.099 198.974 115.624 137.057 114.5 130.93C113.375 124.804 104.01 99.8883 101.763 97.436C99.5139 94.9892 80.0068 92.5397 80.0068 92.5397Z" fill="#50BFA5"/>
<path d="M85.2085 71.6579C85.2085 71.6579 85.128 72.1172 84.9835 72.9022C84.2865 76.6599 81.6037 89.1247 79.793 92.5512C77.6017 96.6931 87.2914 109.901 96.6145 108.289C99.3917 107.811 94.2677 96.1531 94.5149 94.92C94.987 92.5568 95.6258 89.3334 96.2784 86.0266C96.6478 84.1616 97.02 82.2716 97.3727 80.4929C98.3697 75.4435 99.1834 71.3127 99.1834 71.3127L85.2085 71.6579Z" fill="#FFCAAC"/>
<path d="M84.9835 72.8993C85.1279 72.1171 85.2084 71.6551 85.2084 71.6551L99.1806 71.3071C99.1806 71.3071 98.3669 75.4379 97.3698 80.4873C97.0199 82.2548 96.6505 84.1337 96.2839 85.9903C94.1261 85.673 91.8738 84.6236 89.6131 82.6445C87.1497 80.4873 85.5334 77.8958 84.5586 75.1261C84.7308 74.2438 84.8752 73.4839 84.9835 72.8993Z" fill="#EEAE8A"/>
<path d="M94.611 39.8891C94.611 39.8891 88.0262 39.1292 83.8965 44.468C79.7696 49.8097 75.3177 66.3245 85.574 75.3042C95.8302 84.2839 105.961 74.1184 107.464 63.3433C108.966 52.5654 109.552 39.4994 94.611 39.8891Z" fill="#FFCAAC"/>
<path d="M95.3467 38.1217C95.3467 38.1217 86.5457 53.8821 80.2498 54.6086C73.9567 55.3351 73.1318 63.6245 73.1318 63.6245C73.1318 63.6245 75.3814 44.393 81.6134 40.6853C87.8482 36.9776 95.3467 38.1217 95.3467 38.1217Z" fill="#A14410"/>
<path d="M81.9058 58.5002C82.4168 61.2893 81.4031 63.9698 79.623 64.3373C77.84 64.7019 75.9654 62.617 75.4544 59.8279C74.9434 57.0388 75.9709 54.4807 77.7539 54.1161C79.5341 53.7459 81.3948 55.7111 81.9058 58.5002Z" fill="#FFCAAC"/>
<path d="M124.816 191.348L83.469 192.397L81.3389 134.908L125.113 135.048L124.816 191.348Z" fill="#0069AF"/>
<path d="M124.933 159.498C124.83 159.273 121.684 160.832 119.206 160.286C118.712 160.177 120.537 158.669 120.781 158.223C120.814 158.165 124.48 155.841 124.175 154.257C123.869 152.673 120.717 153.692 120.717 153.692C120.717 153.692 111.805 157.811 110.547 159.081C109.289 160.35 108.759 161.305 108.678 161.422C108.131 161.591 107.656 161.717 107.303 161.764C99.105 162.819 85.7189 160.946 65.3176 157.733L65.2926 147.006C60.974 147.262 53.4312 146.507 49.9541 146.118C50.1374 154.299 50.0346 168.486 51.7787 171.192C53.0035 173.09 63.7707 174.368 75.7515 175.286C91.0151 176.458 95.0198 175.584 108.278 174.657C112.294 174.36 117.81 175.59 119.906 175.601C123.02 175.62 124.114 175.968 125.688 174.329C127.016 172.946 126.86 169.541 126.638 167.431C126.224 163.44 126.091 161.912 124.933 159.498Z" fill="#FFCAAC"/>
<path d="M65.8281 94.0149C65.8281 94.0149 57.0105 95.635 52.728 103.504C49.9036 108.695 46.8931 132.72 47.8207 150.582C53.7889 149.313 63.8063 149.082 69.9467 149.057C69.7106 133.051 68.8275 93.4777 65.8281 94.0149Z" fill="#3C8F7C"/>
<path d="M146.167 127.443C146.167 127.443 167.199 101.35 171.326 97.2496C175.455 93.1495 192.28 81.183 192.768 82.4467C193.254 83.7077 183.634 93.13 183.768 93.4779C183.904 93.8287 185.453 96.5287 186.006 97.9678C186.561 99.4069 186.706 102.861 186.234 103.93C185.762 104.999 182.346 106.819 180.421 107.565C178.496 108.311 175.733 107.913 173.431 109.973C171.129 112.036 152.799 139.273 152.799 139.273L146.167 127.443Z" fill="#FFCAAC"/>
</svg>
