<svg width="377" height="395" viewBox="0 0 377 395" fill="none" xmlns="http://www.w3.org/2000/svg">
<path d="M234.49 204.962L239.584 200.063C237.99 191.206 229.629 186.943 224.123 186.364C209.296 184.799 201.739 194.929 198.557 211.175C192.752 240.829 200.06 365.344 200.06 365.344C200.608 362.038 240.876 236.995 239.845 202.641L234.49 204.962Z" fill="#96D9C9"/>
<path d="M45.1459 312.848L44.5982 316.878L43.2869 312.217C39.5973 311.062 36.3938 310.667 33.8542 311.239C11.1616 316.364 50.3745 347.375 50.3745 347.375C50.3745 347.375 37.8782 339.578 25.7731 334.642L25.6189 338.727L24.0705 334.111C14.6663 330.452 5.94021 328.763 4.19736 334.045C2.55648 339.017 5.85958 343.725 11.5434 347.917L18.0761 348.145L14.2252 349.75C27.3523 358.105 49.0656 364.081 56.561 365.44C49.3904 364.321 31.8624 362.055 21.4741 364.284L23.1031 366.979L19.0009 364.941C15.3658 366.107 13.106 368.035 13.3503 371.074C13.815 376.883 39.18 378.975 39.18 378.975L131.84 378.12L132.357 378.376C132.359 378.376 75.0186 323.723 45.1459 312.848Z" fill="#3C8F7C"/>
<path d="M366.922 364.696C364.862 355.188 343.94 352.394 317.274 357.606C326.768 354.383 339.814 347.043 346.57 343.69L341.949 340.768L351.23 341.197C358.82 336.781 362.616 332.443 360.136 328.52C358.284 325.589 354.22 324.371 348.714 324.385L345.814 329.543L346.416 324.458C332.525 325.254 329.374 323.002 310.634 330.528C322.343 324.486 324.036 322.613 324.805 320.188L318.462 317.431H325.893C331.902 311.011 341.432 298.306 337.479 292.45C334.216 287.618 319.896 294.326 310.755 297.811L306.869 306.503L307.656 299.076C278.592 311.656 288.444 301.562 288.444 301.562C288.444 301.562 318.782 239.198 300.91 240.6C293.853 241.154 286.268 245.379 278.815 252.151L278.625 258.35L276.408 254.418C270.98 259.705 265.605 266.107 260.476 272.98C267.433 258.463 272.709 244.201 273.233 233.586L267.924 232.947L273.164 229.326C272.671 223.96 270.532 219.905 266.2 217.759C259.556 214.469 252.582 219.446 245.715 229.337L247.41 238.265L243.152 233.263C218.567 273.07 196.088 371.096 196.088 371.096L194.305 376.411L266.532 379.955C266.532 379.955 371.084 383.897 366.922 364.696Z" fill="#50BFA5"/>
<path d="M375.871 380.426H1.1287C0.505068 380.426 0 379.894 0 379.236C0 378.579 0.505068 378.047 1.1287 378.047H375.871C376.495 378.047 377 378.579 377 379.236C376.998 379.894 376.495 380.426 375.871 380.426Z" fill="#184655"/>
<path d="M260.704 338.192H91.3041C84.833 338.192 79.5879 333.463 79.5879 327.629V321.35C79.5879 315.516 84.833 310.787 91.3041 310.787H260.704C252.955 318.423 252.822 330.092 260.393 337.872L260.704 338.192Z" fill="#90D2FF"/>
<path d="M258.332 313.928H173.087C167.216 313.928 162.457 318.657 162.457 324.491C162.457 330.325 167.216 335.054 173.087 335.054H258.34C254.356 328.574 254.363 320.391 258.332 313.928Z" fill="#FFF4E1"/>
<path d="M275.153 280.831C275.526 280.197 274.961 279.465 274.103 279.465H117.119C106.546 279.465 97.9736 286.493 97.9736 295.164C97.9736 303.836 106.546 310.864 117.119 310.864H274.141C275.002 310.864 275.568 310.127 275.194 309.491C269.851 300.414 269.863 289.865 275.153 280.831Z" fill="#004F84"/>
<path d="M274.079 282.844H161.484C154.798 282.844 149.377 288.23 149.377 294.875V295.777C149.377 302.422 154.798 307.809 161.484 307.809H274.271C270.217 299.807 270.172 290.839 274.079 282.844Z" fill="#FFF4E1"/>
<path d="M194.959 295.425H185.643C183.639 295.425 182.015 296.042 182.015 296.803V296.926H194.959V295.425Z" fill="#FF4C16"/>
<path d="M202.907 298.88C202.907 296.969 200.474 295.421 197.472 295.421H185.517C187.793 295.421 189.638 296.595 189.638 298.044L189.581 335.118L196.187 330.351L202.921 335.118L202.907 298.88Z" fill="#F47458"/>
<path d="M330.356 338.136H78.646C70.8304 338.136 64.4922 344.432 64.4922 352.201V364.029C64.4922 371.795 70.8281 378.094 78.646 378.094H330.356L330.223 377.957C319.455 366.819 319.514 349.203 330.356 338.136Z" fill="#B75742"/>
<path d="M325.9 344.052H191.34C183.525 344.052 177.187 350.348 177.187 358.117C177.187 365.883 183.522 372.182 191.34 372.182H325.898C320.949 363.471 320.958 352.754 325.9 344.052Z" fill="#FFF4E1"/>
<path d="M259.831 358.188H248.918C246.571 358.188 244.669 360.078 244.669 362.41V362.787H259.831V358.188Z" fill="#13375B"/>
<path d="M249.364 358.205C251.973 358.202 255.868 360.396 258.064 363.103L283.946 395L299.148 394.991L274.532 364.654C271.635 361.084 266.501 358.193 263.06 358.195L249.364 358.205Z" fill="#355389"/>
<path d="M122.143 12.407C116.777 16.0922 118.657 24.4947 125.112 25.6163C126.271 25.8189 127.307 26.4528 128.052 27.3576L130.613 30.4749C131.319 31.335 132.569 31.5093 133.487 30.8802L135.519 29.4829C136.436 28.8538 136.714 27.6262 136.154 26.6672C134.115 23.1657 133.107 22.0206 133.527 19.8363C134.753 13.4414 127.511 8.71942 122.143 12.407Z" fill="#FEDB76"/>
<path d="M131.578 28.399C131.576 28.399 131.573 28.4014 131.573 28.4014C131.301 28.5852 130.931 28.5145 130.748 28.2435L125.894 21.0946L123.329 20.4325C123.011 20.35 122.821 20.0295 122.904 19.7138C122.987 19.3981 123.31 19.2095 123.627 19.2897L126.629 20.0625L131.735 27.5814C131.915 27.8524 131.846 28.2152 131.578 28.399Z" fill="#F2C16A"/>
<path d="M134.227 27.0183C134.229 27.016 134.232 27.016 134.232 27.0136C134.5 26.8251 134.564 26.4575 134.374 26.1913L129.361 19.1507L129.646 16.5306C129.681 16.2077 129.444 15.9156 129.119 15.8802C128.794 15.8449 128.5 16.0805 128.465 16.4033L128.133 19.4665L133.406 26.8722C133.594 27.1385 133.961 27.2021 134.227 27.0183Z" fill="#F2C16A"/>
<path d="M127.985 27.2823C128.007 27.3082 128.03 27.3318 128.052 27.3577L130.613 30.4751C131.319 31.3351 132.569 31.5095 133.487 30.8803L135.519 29.4831C136.436 28.854 136.714 27.6263 136.154 26.6673C135.246 25.1098 134.544 24.0189 134.079 23.0952L127.985 27.2823Z" fill="#96D9C9"/>
<path opacity="0.5" d="M61.8792 191.844L50.9944 196.805L48.5799 193.674L54.1917 173.836L58.329 171.949L64.7014 185.703L67.693 184.339L69.5499 188.347L66.5583 189.71L68.8015 194.552L64.1231 196.684L61.8792 191.844ZM60.0223 187.836L56.7842 180.848L54.1021 190.535L60.0223 187.836Z" fill="#F56819"/>
<path opacity="0.5" d="M257.918 31.2997L253.067 29.1212L238.232 44.8795C236.951 46.2403 237.395 48.4514 239.106 49.2184C240.183 49.7033 241.45 49.4449 242.251 48.5811L245.708 44.8452L250.799 47.1306L250.301 52.2215C250.187 53.3815 250.829 54.4863 251.898 54.966L251.989 55.007C253.699 55.7763 255.664 54.6439 255.844 52.786L257.918 31.2997ZM249.115 40.9848L251.837 38.0862L251.453 42.0342L249.115 40.9848Z" fill="#F56819"/>
<path d="M269.263 87.1018C269.263 87.1018 272.942 81.2268 279.325 84.0576C285.708 86.8877 296.802 94.1025 296.802 94.1025L294.751 97.5301C294.751 97.5301 281.939 89.7064 277.578 87.2548C275.764 86.2354 273.505 85.1073 269.263 87.1018Z" fill="#96D9C9"/>
<path d="M281.369 88.6307C281.369 88.6307 270.281 106.06 266.739 105.919C263.198 105.779 260.702 101.868 264.758 99.6799C268.814 97.4919 270.124 98.0563 273.225 94.5273C276.326 90.9983 278.698 87.0336 278.698 87.0336L281.368 88.6313L281.369 88.6307Z" fill="#96D9C9"/>
<path d="M286.709 91.8259C286.709 91.8259 277.586 102.85 276.249 106.554C274.911 110.259 276.888 113.749 280.948 113.76C285.007 113.771 285.666 110.65 285.666 110.65C285.666 110.65 282.064 111.132 281 108.517C279.936 105.903 289.282 92.4855 289.282 92.4855L286.709 91.8259Z" fill="#96D9C9"/>
<path d="M69.8676 243.257C70.0881 242.656 69.9577 240.521 72.898 238.4C74.1073 237.538 75.0985 236.805 75.3474 235.822C75.779 234.131 73.9792 233.363 72.2056 233.41C71.2879 233.436 70.522 232.719 70.4722 231.81C70.4224 230.884 71.1267 230.092 72.0586 230.026C73.0758 229.953 74.2757 230.026 75.5419 230.344C79.3738 231.31 80.5807 233.855 79.969 236.249C79.4093 238.443 77.676 239.541 76.2651 240.474C73.8868 242.05 73.9271 243.747 73.7326 244.227L69.8676 243.257ZM68.0986 247.048C68.4899 245.519 69.8438 244.694 71.3519 245.073C72.9193 245.469 73.6568 246.822 73.2963 248.358C72.9146 249.859 71.5819 250.721 70.0122 250.325C68.4733 249.937 67.7145 248.549 68.0986 247.048Z" fill="#466EB6"/>
<path d="M107.456 209.536C108.623 209.63 110.904 210.099 113 210.695C115.566 211.423 117.067 212.116 118.189 213.294C119.286 214.347 119.863 215.874 119.381 217.545C118.909 219.189 117.501 220.45 115.184 220.622L115.168 220.676C117.126 221.854 118.241 223.89 117.555 226.275C117.074 227.945 115.924 229.043 114.499 229.644C112.841 230.33 110.406 230.29 106.709 229.241C104.642 228.654 103.136 228.077 102.237 227.674L107.456 209.536ZM109.588 217.79L110.968 218.181C113.173 218.808 114.62 218.24 115.013 216.871C115.417 215.473 114.553 214.427 112.649 213.888C111.739 213.628 111.201 213.534 110.826 213.487L109.588 217.79ZM107.231 225.982C107.629 226.154 108.125 226.296 108.844 226.498C110.745 227.038 112.633 226.805 113.192 224.858C113.728 222.995 112.258 221.776 110.162 221.183L108.727 220.775L107.231 225.982Z" fill="#96D9C9"/>
<path d="M288.855 190.409C289.092 191.437 288.459 192.471 287.425 192.719C286.462 192.949 285.239 193.128 283.83 193.176C276.505 193.421 272.579 189.017 272.375 183.02C272.131 175.833 277.15 171.663 283.565 171.448C284.838 171.406 285.957 171.5 286.863 171.656C287.954 171.844 288.66 172.902 288.423 173.977L288.409 174.043C288.186 175.049 287.204 175.713 286.182 175.532C285.511 175.414 284.755 175.346 283.918 175.374C280.114 175.501 277.236 177.881 277.395 182.568C277.537 186.785 280.143 189.356 284.418 189.212C285.13 189.189 285.876 189.087 286.562 188.944C287.6 188.727 288.62 189.384 288.855 190.409Z" fill="#F7CC7F"/>
<path d="M68.4615 118.002C68.3026 119.044 67.3304 119.774 66.28 119.628C65.2983 119.492 64.0937 119.214 62.7682 118.745C55.8632 116.304 53.8335 110.776 55.8585 105.123C58.2819 98.3487 64.4921 96.2964 70.5387 98.4335C71.7385 98.8577 72.7463 99.3525 73.5312 99.8284C74.4749 100.401 74.7429 101.643 74.1264 102.557L74.0884 102.614C73.5098 103.469 72.3527 103.73 71.4682 103.188C70.8873 102.833 70.2091 102.496 69.4195 102.218C65.8342 100.95 62.2774 102.116 60.6958 106.534C59.273 110.509 60.7479 113.853 64.779 115.276C65.4501 115.514 66.1828 115.691 66.8728 115.806C67.9161 115.981 68.6204 116.961 68.4615 118.002Z" fill="#96D9C9"/>
<path d="M248.187 141.389C248.103 139.8 249.381 138.396 250.981 138.32C252.646 138.242 253.826 139.369 253.983 141.039C254.108 142.71 253.07 144.048 251.321 144.178C249.548 144.307 248.277 143.103 248.187 141.389ZM248.92 136.852L247.328 124.257C247.196 123.214 247.969 122.275 249.024 122.199L250.299 122.105C251.352 122.028 252.255 122.839 252.282 123.888L252.609 136.58L248.92 136.852Z" fill="#466EB6"/>
<path d="M171.78 142.916C172.053 143.029 168.178 147.992 164.404 151.5C161.361 155.296 158.506 159.787 157.522 164.686C156.028 172.134 157.271 208.927 155.971 211.545C144.803 222.393 136.717 249.623 134.446 257.931C134.004 259.549 133.106 261.008 131.863 262.144L132.359 271.531L137.908 276.611C137.908 276.611 136.672 268.963 139.141 263.287C139.141 263.287 167.258 220.973 168.928 217.737C172.117 208.527 183.729 161.333 183.729 161.333L186.425 150.485C186.43 150.487 171.804 142.926 171.78 142.916Z" fill="#FFCAAC"/>
<path d="M125.788 265.164C125.788 265.164 129.3 270.541 129.599 272.639C129.9 274.733 131.771 279.488 133.838 279.79C134.308 279.858 142.356 280.445 142.297 279.446C142.251 278.682 139.34 277.591 137.986 276.663C135.648 275.058 132.02 261.993 132.02 261.993C132.02 261.993 125.94 263.489 125.788 265.164Z" fill="#F66819"/>
<path d="M195.815 159.224C195.815 159.224 213.926 197.704 214.04 204.469C214.139 210.268 210.874 242.806 211.785 269.9C211.818 270.878 213.065 272.179 214.879 273.006C215.901 273.47 220.833 275.659 220.833 275.659L221.511 277.412L204.526 276.211L204.285 271.602C204.285 271.602 197.524 231.069 198.214 219.606C198.323 217.806 199.203 207.023 199.203 207.023L178.777 167.838L191.625 151.064L195.815 159.224Z" fill="#FFCAAC"/>
<path d="M137.139 74.2047C137.004 69.8904 138.742 63.0171 144.025 56.6599L144.627 57.1547C139.482 63.3447 137.789 70.0082 137.919 74.1788L137.139 74.2047Z" fill="#F7CC7F"/>
<path d="M137.348 73.1893C138.866 73.3118 138.1 74.9612 137.929 75.3453C138.799 76.5116 138.277 81.957 138.017 82.3458C137.277 82.7345 137.291 81.5682 137.291 81.5682C136.928 82.9065 136.407 81.5682 136.276 81.7402C135.797 82.6898 135.406 81.3231 135.406 81.3231C134.536 82.7322 134.666 81.0899 134.666 81.0899C135.1 76.2077 136.535 74.9541 136.535 74.9541C136.281 73.816 136.468 73.2929 137.232 73.1893C137.27 73.1869 137.31 73.1869 137.348 73.1893Z" fill="#F7CC7F"/>
<path d="M162.876 79.7351C158.354 82.6168 143.712 84.8953 143.712 84.8953C149.453 66.5753 142.282 56.5493 142.282 56.5493C155.295 56.2171 168.567 51.8816 176.76 47.5625C173.108 67.0395 177.618 70.0319 177.618 70.0319C169.8 75.2157 162.876 79.7351 162.876 79.7351Z" fill="#F66819"/>
<path d="M197.513 72.8545C194.769 65.5902 187.599 61.191 180.134 62.5506C177.844 58.8748 174.024 56.1486 169.869 55.2626C161.672 53.5166 150.586 56.7353 150.885 65.3592C147.705 71.1533 147.585 79.4356 152.448 83.8442C150.755 91.6341 158.098 99.1671 167.645 98.8937C170.969 104.341 177.303 107.845 183.601 107.096C185.111 106.917 187.419 106.542 187.8 106.636C187.321 106.547 197.918 114.622 206.896 102.207C216.058 89.5417 209.62 74.2071 197.513 72.8545Z" fill="#2A2C33"/>
<path d="M196.429 29.2802C196.87 28.2387 197.418 27.2444 198.06 26.3113L198.767 25.2863C198.852 25.1049 198.921 24.9517 198.957 24.848C199.265 23.9409 197.719 18.1821 197.719 18.1821L192.834 22.5059L193.095 24.7561C191.715 24.1223 190.527 18.9927 189.991 20.3193C188.324 24.4286 189.379 25.9036 189.996 30.5997C190.207 32.1996 186.705 56.8062 185.666 61.6955C184.627 66.5847 177.618 80.2346 177.618 80.2346L183.226 87.3058C183.226 87.3058 194.309 67.5084 194.985 61.1559C195.056 60.4867 195.137 59.4876 195.222 58.2482L196.429 29.2802Z" fill="#FFCAAC"/>
<path d="M187.63 67.0063C184.799 66.1015 185.195 61.3018 185.195 61.3018C187.239 46.5232 189.195 33.1726 189.195 33.1726C191.021 32.1358 197.347 34.0798 197.347 34.0798C196.237 52.0982 195.804 62.0959 195.37 63.2881C194.936 64.4851 192.408 68.5332 187.63 67.0063Z" fill="#F66819"/>
<path d="M153.721 106.375L146.107 99.9612C146.107 99.9612 139.942 110.176 135.003 118.505C130.104 116.745 117.446 108.545 116.82 108.168C116.194 107.791 114.807 98.5215 113.735 99.014C112.663 99.5065 114.558 103.906 113.259 104.233C111.957 104.563 102.211 98.0903 102.012 98.9551C101.637 100.572 107.831 103.149 107.518 103.87C107.205 104.591 101.291 100.567 100.35 101.573C99.4084 102.579 106.29 104.848 106.328 105.503C106.363 106.161 99.5815 104.257 99.7593 105.67C99.8565 106.439 105.83 107.211 105.453 108.029C105.076 108.844 100.423 108.981 100.618 109.853C100.812 110.727 104.502 109.2 106.754 110.183C109.007 111.163 111.12 110.68 114.264 113.314C117.406 115.944 132.847 130.967 137.658 129.679C141.86 128.55 153.721 106.375 153.721 106.375Z" fill="#FFCAAC"/>
<path d="M154.302 205.447C154.305 205.456 154.308 205.456 154.31 205.444C154.308 205.447 154.302 205.447 154.302 205.447Z" fill="#F47458"/>
<path d="M180.622 95.383C181.108 92.4235 186.429 88.0055 195.369 63.2905C195.369 63.2905 189.531 60.7929 185.194 61.3018C185.194 61.3018 170.523 88.0173 167.211 88.3424C163.898 88.6652 152.244 89.1671 150.202 90.3995C148.158 91.6318 134.225 118.199 134.225 118.199C134.225 118.199 134.718 132.223 137.101 131.139C142.059 128.884 152.078 109.485 152.741 108.771C153.213 110.286 160.472 133.649 160.46 138.941L160.517 138.986C167.301 144.455 177.198 143.189 182.431 136.189C182.431 136.189 181.241 128.969 182.702 122.402C185.161 111.335 188.307 108.093 180.622 95.383Z" fill="#F66819"/>
<path d="M219.771 209.763C219.771 209.763 212.508 176.884 208.366 162.633C204.223 148.383 184.829 104.379 184.829 104.379C179.925 96.8201 152.732 108.627 152.742 108.771C154.458 134.504 152.694 151.462 151.537 164.228C150.223 178.72 141.853 210.56 142.296 212.212C165.93 209.356 213.065 216.757 219.771 209.763Z" fill="#F66819"/>
<path d="M196.339 25.4559C196.339 25.4559 195.708 27.2043 194.001 26.6058C192.153 25.9578 191.051 25.0813 191.051 25.0813C191.051 25.0813 191.992 27.2208 193.647 27.8099C196.886 28.9644 196.339 25.4559 196.339 25.4559Z" fill="#F47458"/>
<path d="M192.868 1.9476C193.605 12.4731 197.01 27.1809 202.777 40.4892C203.56 43.1188 196.315 45.2465 195.533 42.6169C194.601 32.7983 190.627 15.8802 184.651 4.08238C183.767 0.715264 191.981 -1.41952 192.868 1.9476Z" fill="#999EA5"/>
<path d="M199.452 38.286C198.404 31.5683 193.197 9.00224 191.198 0.418331C188.571 -0.326252 183.98 1.51871 184.656 4.07998C190.629 15.8779 194.606 32.7959 195.537 42.6145C195.865 39.8412 197.627 38.6112 199.452 38.286Z" fill="#C1C5CB"/>
<path d="M198.278 41.0072C198.413 38.8465 202.039 38.5002 202.712 40.4889C202.191 38.069 198.994 29.134 196.559 20.609C194.121 12.084 193.147 3.45763 192.886 1.59853C192.341 0.250743 190.503 -0.142753 188.21 0.0433926C188.423 0.604186 198.278 41.0072 198.278 41.0072Z" fill="#E4E8ED"/>
<path d="M189.941 18.3093C191.302 20.9012 193.169 29.1976 193.169 29.1976C196.761 29.1976 198.855 27.4422 198.855 27.4422C197.041 22.6142 195.848 17.5529 195.685 16.4855C193.631 15.8681 191.151 16.4077 189.941 18.3093Z" fill="#F66819"/>
<path d="M161.217 79.834C161.217 79.834 162.466 86.5235 162.215 89.1625C161.966 91.8016 170.54 106.802 171.311 106.498C172.049 106.208 170.334 90.5975 169.082 86.9335C168.231 84.4382 168.454 76.342 168.454 76.342L161.217 79.834Z" fill="#FFCAAC"/>
<path d="M168.568 80.3617C168.485 78.1703 168.456 76.3442 168.456 76.3442L161.217 79.8339C161.217 79.8339 161.473 81.2005 161.729 82.9442C164.897 83.6039 167.195 82.3904 168.568 80.3617Z" fill="#EEAE8A"/>
<path d="M158.57 61.3679C158.57 61.3679 155.782 62.9701 154.76 66.4409C153.74 69.9117 154.9 78.8679 162.108 81.0286C169.314 83.1893 172.437 76.0993 170.953 70.5526C169.466 65.0107 166.239 57.989 158.57 61.3679Z" fill="#FFCAAC"/>
<path d="M171.854 68.4061C171.712 69.8952 170.917 71.0333 170.08 70.9485C169.241 70.8637 168.677 69.5866 168.819 68.0974C168.959 66.6082 169.753 65.4702 170.593 65.555C171.43 65.6398 171.994 66.9169 171.854 68.4061Z" fill="#FFCAAC"/>
<path d="M156.834 74.1435C157.681 75.4442 157.679 76.9805 156.827 77.5719C155.976 78.1634 154.601 77.5884 153.754 76.2878C152.908 74.9871 152.91 73.4508 153.761 72.8594C154.613 72.268 155.988 72.8429 156.834 74.1435Z" fill="#FFCAAC"/>
<path d="M197.128 17.4962C195.732 17.2276 190.854 21.6998 190.906 22.3879C190.961 23.1018 195.694 20.2931 195.857 20.762C195.985 21.132 190.434 22.706 190.778 23.3634C191.013 23.8134 195.888 22.7154 196.044 23.0028C196.291 23.4529 192.151 23.5047 192.485 24.0019C192.872 24.5768 198.499 25.0811 198.499 25.0811C198.499 25.0811 197.757 22.8968 197.858 22.303C197.904 22.0509 197.906 21.6951 197.882 21.2875C197.863 20.96 198.008 20.6796 197.963 20.312C197.778 18.8275 197.901 17.6447 197.128 17.4962Z" fill="#FFCAAC"/>
<path d="M192.666 19.4686L190.695 21.912L189.944 20.92C189.944 20.92 189.918 20.609 190.041 20.2179C190.119 19.9657 192.422 18.6651 192.666 19.4686Z" fill="#FFCAAC"/>
<path d="M204.471 279.422H225.928C226.722 279.351 226.914 278.715 226.639 278.322C226.072 277.513 223.568 276.922 220.756 275.636C215.822 276.144 205.075 272.794 204.295 271.67C203.845 273.923 204.029 279.325 204.471 279.422Z" fill="#F66819"/>
<path d="M190.013 22.9839C189.942 22.4183 191.021 23.0145 192.664 25.8279C193.871 27.892 192.664 32.0932 192.664 32.0932L189.79 24.4942L190.013 22.9839Z" fill="#FFCAAC"/>
<path d="M134.225 118.199C127.623 114.191 118.214 108.686 117.52 108.427C116.825 108.168 113.448 113.847 113.882 114.365C114.316 114.883 135.278 132.68 137.101 131.139C138.927 129.598 134.225 118.199 134.225 118.199Z" fill="#F66819"/>
<path d="M162.369 90.2227C163.519 94.5064 170.614 106.776 171.313 106.5C171.975 106.241 170.664 93.6652 169.485 88.4272C168.515 89.8104 165.634 91.0828 162.369 90.2227Z" fill="white"/>
<path d="M162.125 86.1274C159.486 88.4272 158.67 91.4243 156.932 101.229C155.647 108.472 153.975 153.859 147.452 164.229C157.888 170.97 168.568 167.857 168.568 167.857C164.933 130.784 162.877 89.5935 162.125 86.1274Z" fill="#FEDB76"/>
<path d="M168.745 85.3076C176.354 90.0367 191.02 127.412 207.718 123.783C208.501 130.265 198.997 142.916 198.997 142.916C178.759 126.634 169.483 88.425 169.483 88.425C168.951 87.2374 168.745 85.3076 168.745 85.3076Z" fill="#FEDB76"/>
<path d="M97.2205 158.953L89.499 161.029L88 154.813L95.7215 152.737L93.7655 144.629L99.8234 143L101.779 151.108L109.501 149.031L111 155.247L103.278 157.323L105.235 165.431L99.1766 167.06L97.2205 158.953Z" fill="#F7CC7F"/>
</svg>
