<svg width="207" height="160" viewBox="0 0 207 160" fill="none" xmlns="http://www.w3.org/2000/svg">
<path d="M150.42 104.856C150.887 104.856 151.267 105.393 151.268 106.059C151.27 106.725 150.892 107.264 150.425 107.266C149.958 107.267 149.578 106.729 149.577 106.063C149.576 105.398 149.953 104.858 150.42 104.856ZM150.421 105.197C150.17 105.198 149.967 105.323 149.968 105.477C149.968 105.632 150.172 105.756 150.422 105.755C150.673 105.754 150.876 105.629 150.876 105.475C150.876 105.321 150.671 105.196 150.421 105.197ZM150.425 106.814C150.779 106.813 151.065 106.62 151.064 106.382C151.063 106.145 150.776 105.953 150.422 105.954C150.068 105.955 149.783 106.148 149.784 106.386C149.785 106.623 150.071 106.815 150.425 106.814Z" fill="#466EB6"/>
<path d="M152.34 107.516C152.518 107.899 152.611 108.315 152.611 108.737L152.633 117.556C152.635 118.089 152.2 118.521 151.661 118.523L146.615 118.535C146.077 118.537 145.639 118.106 145.638 117.574L145.616 108.755C145.615 108.334 145.706 107.917 145.882 107.533L152.34 107.516Z" fill="#7F1CA0"/>
<path d="M152.34 107.516C152.518 107.899 152.611 108.315 152.611 108.737L152.633 117.556C152.635 118.089 152.2 118.521 151.661 118.523L146.615 118.535C146.077 118.537 145.639 118.106 145.638 117.574L145.616 108.755C145.615 108.334 145.706 107.917 145.882 107.533L152.34 107.516Z" fill="#7F1CA0"/>
<path d="M145.616 108.754L145.638 117.574C145.639 118.106 146.077 118.537 146.615 118.535L151.661 118.523C152.2 118.521 152.634 118.089 152.633 117.556L152.611 108.736C152.611 108.315 152.518 107.899 152.34 107.516L145.883 107.532C145.707 107.917 145.615 108.334 145.616 108.754Z" fill="#F47458"/>
<path d="M151.295 117.56L151.273 108.741C151.272 108.32 151.18 107.904 151.002 107.52L152.34 107.516C152.518 107.899 152.611 108.315 152.611 108.737L152.633 117.556C152.635 118.089 152.2 118.521 151.661 118.523L150.323 118.527C150.862 118.525 151.297 118.092 151.295 117.56Z" fill="#F48C7F"/>
<path d="M145.616 108.754L145.638 117.574C145.639 118.106 146.077 118.537 146.615 118.536L148.678 118.53C148.135 118.532 147.692 118.1 147.69 117.569L147.668 108.749C147.668 108.327 147.76 107.911 147.937 107.527L145.883 107.532C145.707 107.917 145.615 108.334 145.616 108.754Z" fill="#B75742"/>
<path d="M145.883 107.532L152.341 107.516C152.34 107.234 152.108 107.007 151.824 107.008L146.398 107.021C146.112 107.022 145.882 107.25 145.883 107.532Z" fill="#13375B"/>
<path d="M152.628 115.816L152.631 116.911L145.637 116.928L145.634 115.833L152.628 115.816Z" fill="#355389"/>
<path d="M158.695 104.677H157.924C158.05 104.591 158.208 104.539 158.38 104.539H177.706C178.718 104.539 179.537 105.266 179.537 106.162V107.192C179.537 108.088 178.718 108.814 177.706 108.814L158.596 108.807L158.695 104.677Z" fill="#90D2FF"/>
<path d="M169.668 104.543C170.635 104.543 171.418 105.237 171.418 106.094V107.258C171.418 108.115 170.634 108.809 169.668 108.809H157.637V108.549H157.687L160.746 108.292L161.364 106.144C161.364 106.144 160.171 104.956 160.094 104.926C160.016 104.895 157.687 104.802 157.687 104.802L157.638 104.801V104.542H169.668V104.543Z" fill="#466EB6"/>
<path d="M158.417 106.669C158.417 105.413 157.684 104.803 157.684 104.803H169.421C170.309 104.803 171.029 105.441 171.029 106.228V107.124C171.029 107.911 170.308 108.549 169.421 108.549H157.684C157.684 108.55 158.417 108.251 158.417 106.669Z" fill="#FFF4E1"/>
<path d="M171.029 106.228V107.124C171.029 107.242 171.013 107.356 170.982 107.466C170.586 106.607 169.827 105.78 168.383 105.515C165.011 104.895 157.683 104.803 157.683 104.803H169.421C170.309 104.804 171.029 105.442 171.029 106.228Z" fill="#DAEEF7"/>
<path d="M159.013 113.222H158.141C158.283 113.114 158.462 113.049 158.657 113.049H180.53C181.674 113.049 182.602 113.958 182.602 115.079V116.37C182.602 117.491 181.674 118.4 180.53 118.4L158.9 118.393L159.013 113.222Z" fill="#B75742"/>
<path d="M171.432 113.054C172.526 113.054 173.413 113.923 173.413 114.995V116.453C173.413 117.525 172.526 118.394 171.432 118.394H157.815V118.069H157.871L161.333 117.747L162.032 115.058C162.032 115.058 160.682 113.571 160.593 113.533C160.505 113.494 157.871 113.378 157.871 113.378L157.815 113.377V113.053H171.432V113.054Z" fill="#893624"/>
<path d="M158.698 115.714C158.698 114.141 157.869 113.379 157.869 113.379H171.153C172.158 113.379 172.973 114.178 172.973 115.163V116.285C172.973 117.27 172.158 118.068 171.153 118.068H157.869C157.869 118.069 158.698 117.695 158.698 115.714Z" fill="#FFF4E1"/>
<path d="M172.973 115.163V116.285C172.973 116.433 172.955 116.576 172.92 116.713C172.472 115.639 171.613 114.604 169.978 114.271C166.162 113.494 157.868 113.379 157.868 113.379H171.152C172.158 113.379 172.973 114.178 172.973 115.163Z" fill="#A34E3B" fill-opacity="0.22"/>
<path d="M183.323 108.94H184.197C184.054 108.854 183.875 108.803 183.681 108.803H161.799C160.654 108.803 159.726 109.525 159.726 110.415V111.438C159.726 112.327 160.654 113.049 161.799 113.049L183.436 113.043L183.323 108.94Z" fill="#F66819"/>
<path d="M170.901 108.807C169.806 108.807 168.918 109.497 168.918 110.347V111.503C168.918 112.355 169.806 113.044 170.901 113.044H184.523V112.786H184.467L181.004 112.531L180.304 110.396C180.304 110.396 181.655 109.216 181.743 109.187C181.831 109.156 184.467 109.064 184.467 109.064L184.523 109.063V108.807H170.901Z" fill="#C05A21"/>
<path d="M183.639 110.918C183.639 109.67 184.469 109.066 184.469 109.066H171.179C170.173 109.066 169.358 109.699 169.358 110.481V111.371C169.358 112.152 170.173 112.786 171.179 112.786H184.469C184.469 112.786 183.639 112.49 183.639 110.918Z" fill="#FFF4E1"/>
<path d="M169.358 110.481V111.371C169.358 111.488 169.377 111.601 169.412 111.711C169.86 110.859 170.719 110.038 172.354 109.774C176.172 109.157 184.469 109.066 184.469 109.066H171.18C170.173 109.066 169.358 109.699 169.358 110.481Z" fill="#FF9C65" fill-opacity="0.28"/>
<path d="M103.002 111.214L105.053 110.825L113.962 157.813L111.911 158.202L103.002 111.214Z" fill="#2A2C33"/>
<path d="M43.8503 158.424H41.3828L50.5782 110.825L52.6296 111.213L43.8503 158.424Z" fill="#2A2C33"/>
<path d="M89.0275 158.424H86.56L95.7554 110.825L97.8076 111.213L89.0275 158.424Z" fill="#2A2C33"/>
<path d="M66.3333 158.424L68.3373 158.447L59.5204 111.038L57.4691 111.426L66.3333 158.424Z" fill="#2A2C33"/>
<path d="M75.2843 46.7192C67.1605 47.589 56.6472 48.506 46.0936 66.4084C34.5585 85.974 40.631 115.201 49.7353 123.323C58.8396 131.445 88.5745 141.473 113.571 126.46C113.571 126.46 128.663 117.362 120.918 102.263C108.998 79.0268 110.683 74.1816 105.353 65.0753C100.024 55.9691 92.5282 44.8738 75.2843 46.7192Z" fill="#FEDB76"/>
<path d="M46.0936 66.4084C53.2973 54.1894 60.4817 49.8837 66.9003 48.1048C64.4179 50.6728 61.9004 53.9765 59.3811 58.2498C47.8461 77.8155 53.9186 107.043 63.0229 115.164C71.0967 122.367 95.3953 131.065 118.225 122.473C115.878 125.069 113.571 126.459 113.571 126.459C88.5745 141.472 58.8396 131.444 49.7353 123.322C40.6301 115.201 34.5585 85.9749 46.0936 66.4084Z" fill="#F1CC61"/>
<path d="M135.005 27.3151L133.326 27.7466L133 26.455L134.679 26.0235L134.253 24.3386L135.57 24L135.996 25.6849L137.674 25.2534L138 26.545L136.321 26.9765L136.747 28.6614L135.43 29L135.005 27.3151Z" fill="#F7CC7F"/>
<path d="M62.8151 0.000446324C71.2228 -0.0494772 78.0638 4.09505 78.0944 9.2582C78.1093 11.8393 76.4199 14.1866 73.6746 15.8945L77.1323 23.4855L69.9163 17.6112C67.8256 18.29 65.4483 18.6815 62.9264 18.6964C54.5187 18.7463 47.6778 14.6018 47.6471 9.43862C47.6156 4.27548 54.4075 0.0503699 62.8151 0.000446324Z" fill="#FEDB76" fill-opacity="0.51"/>
<path d="M68.6397 10.2374C67.8931 13.0699 64.9909 14.7603 62.1571 14.0141C59.3242 13.267 57.6321 10.3662 58.3796 7.53365C59.1261 4.70115 62.0283 3.01076 64.8621 3.75699C67.6951 4.50409 69.3871 7.40578 68.6397 10.2374Z" fill="#F1CC61"/>
<path d="M60.5526 8.97528C60.1531 10.4896 61.0574 12.0408 62.5724 12.4401C64.0874 12.8395 65.6384 11.9357 66.038 10.4213L60.5526 8.97528Z" fill="#EFEFEF"/>
<path d="M149.603 73.2978L126.389 73.1235C125.859 73.1191 125.433 72.6865 125.437 72.1566L125.553 56.6435C125.558 56.1136 125.991 55.6871 126.521 55.6914L149.735 55.8657C150.265 55.8701 150.692 56.3028 150.687 56.8327L150.571 72.3458C150.566 72.8756 150.133 73.3013 149.603 73.2978Z" fill="#F66819"/>
<path d="M126.265 64.3212L118.77 71.9551L128.017 70.2306L126.265 64.3212Z" fill="#F66819"/>
<path d="M133.028 63.2448L135.283 63.2045C135.283 63.2045 138.126 61.0832 138.213 60.3335C138.299 59.5837 137.834 57.9967 138.275 57.7979C138.716 57.5991 139.65 57.4414 140.24 58.4337C140.668 59.1546 140.311 61.7856 140.576 61.9608C140.742 62.0712 142.038 62.0843 142.987 62.079C143.61 62.0755 144.183 62.418 144.474 62.968L144.475 62.9698C144.673 63.342 144.583 63.801 144.26 64.0707L143.757 64.4911L144.153 65.0167C144.447 65.4082 144.371 65.9643 143.981 66.2612L143.584 66.5643L143.856 66.8743C144.206 67.2728 144.132 67.8877 143.697 68.1916L143.344 68.4386L143.398 68.5358C143.618 68.9422 143.491 69.4493 143.106 69.7042L142.751 69.9389L136.743 70.0458C136.181 70.0554 135.622 69.9503 135.101 69.7366L132.982 69.4248C132.755 69.3915 132.585 69.1962 132.585 68.9659L132.572 63.7099C132.571 63.4568 132.774 63.2492 133.028 63.2448Z" fill="white"/>
<path d="M101.366 76.4588L103.454 82.7202L97.09 80.2179L101.366 76.4588Z" fill="#F79C8D"/>
<path d="M94.8055 57.8268C95.2296 57.8443 96.3924 58.2314 98.0924 61.4318C100.263 65.5185 103.436 77.8645 103.436 77.8645L93.9652 81.3775L92.7481 78.8008L90.7441 58.9627C90.745 58.9627 94.6881 57.8215 94.8055 57.8268Z" fill="#0F4467"/>
<path d="M82.2865 56.0471C84.995 56.0506 91.6957 56.8379 94.8056 57.8277C94.8056 57.8277 97.09 77.3889 92.749 92.2539C91.7772 95.5812 93.5525 106.047 93.5525 106.047L65.4895 105.678C65.4895 105.678 68.814 80.3765 67.5619 76.2897C66.3097 72.203 66.2799 57.9599 66.2799 57.9599C66.2799 57.9599 66.4718 57.9301 72.5846 56.8774C75.4359 56.386 79.3948 56.0436 82.2865 56.0471Z" fill="#004F84"/>
<path d="M79.0163 142.353C79.0163 142.353 79.6367 149.492 80.7784 151.468C81.9202 153.444 80.7179 156.804 80.6584 157.266C80.5979 157.727 78.2557 158.386 74.5307 157.991C70.8058 157.596 70.8662 156.739 71.1668 155.355C71.4673 153.972 73.4494 152.193 73.5695 150.875C73.6895 149.557 72.4277 144.814 72.4277 144.814L79.0163 142.353Z" fill="#FFCAAC"/>
<path d="M90.3866 100.155C90.3866 100.155 109.758 99.0837 114.084 101.693C118.41 104.303 113.302 109.661 113.302 109.661C113.302 109.661 97.5307 116.492 71.1282 118.01C64.8762 118.369 64.3372 101.771 65.5062 100.398C66.6751 99.0242 90.3866 100.155 90.3866 100.155Z" fill="#3C8F7C"/>
<path d="M74.0663 158.545C70.231 158.138 70.705 156.261 71.0143 154.836C71.208 153.944 72.3086 152.893 72.964 151.898C73.3066 152.17 73.8648 152.65 75.5306 153.14C77.2603 153.649 79.6315 152.642 81.1421 152.011C81.681 154.008 81.7056 156.554 81.6547 156.94C81.5925 157.415 77.9017 158.953 74.0663 158.545Z" fill="#004F84"/>
<path d="M76.1833 113.96C76.9571 119.794 80.7889 148.836 80.7889 148.836L71.8975 149.935C71.8975 149.935 60.9636 112.027 61.5244 106.229C62.0852 100.431 66.1782 99.9429 66.1782 99.9429C66.1782 99.9429 74.1346 98.517 76.1833 113.96Z" fill="#50BFA5"/>
<path d="M84.7014 31.3682C84.7014 31.3682 81.7476 28.2545 79.3712 32.0426C79.3712 32.0426 77.5407 31.0152 76.2561 32.8449C76.2561 32.8449 72.9491 31.8499 72.1455 36.7923C72.1455 36.7923 70.4438 36.4718 70.2186 38.4932C69.9934 40.5156 71.0213 41.8635 71.0213 41.8635C71.0213 41.8635 70.0653 42.58 70.4999 44.4394C70.8688 46.0203 72.178 46.2612 72.178 46.2612C72.178 46.2612 72.5311 48.9255 73.6869 49.7278C74.8427 50.5301 76.4164 50.1447 76.4164 50.1447C76.4164 50.1447 76.8335 51.589 78.1821 51.4602C79.5306 51.3315 81.2008 50.0483 82.7097 50.6255C84.2186 51.2036 88.1364 50.5931 88.1364 50.5931C88.1364 50.5931 92.5352 48.6356 91.219 44.1416C91.219 44.1416 93.5306 42.0553 91.5082 39.5521C91.5082 39.5521 92.9856 35.6362 90.0633 33.3257C87.1418 31.0143 84.7014 31.3682 84.7014 31.3682Z" fill="#2A2C33"/>
<path d="M84.202 52.5042L84.7365 56.4701C84.7365 56.4701 85.9344 62.1833 84.393 63.2842C82.8517 64.386 77.8386 56.3072 77.8386 56.3072L78.3679 46.2585L84.202 52.5042Z" fill="#FFCAAC"/>
<path d="M78.1978 49.515C79.4711 52.9422 82.5029 55.0495 84.655 55.8666L84.202 52.5042L78.3687 46.2585L78.1978 49.515Z" fill="#EEAE8A"/>
<path d="M81.9307 35.7019C85.0581 34.6255 88.3922 36.7021 88.8698 39.9253C89.0775 41.3257 89.265 43.0871 89.3 45.0131C89.3842 49.6446 86.985 54.1526 84.8811 54.1526C82.7772 54.1526 76.9614 51.1546 76.7511 44.5787C76.6206 40.5191 78.6482 36.8309 81.9307 35.7019Z" fill="#FFCAAC"/>
<path d="M78.3013 45.098C78.3013 46.1201 77.6239 46.9478 76.788 46.9478C75.952 46.9478 75.2747 46.1193 75.2747 45.098C75.2747 44.0759 75.952 43.2482 76.788 43.2482C77.623 43.2482 78.3013 44.0768 78.3013 45.098Z" fill="#FFCAAC"/>
<path d="M91.0464 33.3975C93.2195 35.1186 93.9819 37.7339 92.7481 39.2386C91.5143 40.7433 88.7524 40.5681 86.5784 38.8471C84.4053 37.126 83.6429 34.5107 84.8767 33.006C86.1105 31.5004 88.8733 31.6765 91.0464 33.3975Z" fill="#2A2C33"/>
<path d="M65.974 60.1338C68.5975 59.1537 69.8813 82.7036 70.2353 92.3966C74.8821 92.8416 82.9804 92.4001 84.9967 92.2495C85.9448 92.1786 88.132 91.3807 89.0748 91.258C90.0413 91.1319 90.9176 91.0662 91.3925 91.1486C91.5669 91.1792 96.41 93.1516 96.8244 93.5843C97.3379 94.1212 98.7277 95.4744 98.4928 96.0594C98.2589 96.6445 95.8211 94.4286 95.8211 94.4286L94.6303 93.763C96.1129 95.2055 98.9415 97.1061 98.534 97.798C98.1371 98.4724 95.5854 96.5447 93.7672 95.23C95.3269 96.6331 97.2643 99.1442 96.8174 99.5357C96.4161 99.8878 94.2123 96.9809 91.8569 96.1435C90.9842 95.8335 90.1141 96.6927 89.4279 96.796C88.9232 96.8722 88.1442 97.0343 87.6491 96.895L85.0992 96.1742C84.2309 96.2521 84.209 96.7645 83.3318 96.9502C82.3136 97.1665 80.6426 97.3934 79.3457 97.7096C71.8774 99.527 69.3862 100.371 67.1 100.37C60.1749 100.365 59.7727 62.4504 65.974 60.1338Z" fill="#FFCAAC"/>
<path d="M60.9942 82.2429C60.5027 72.3142 60.5745 60.076 66.1624 57.988C68.3671 57.1638 72.2533 62.1176 71.5549 82.4443C68.5721 82.6896 64.1926 82.8875 60.9942 82.2429Z" fill="#004F84"/>
<path d="M92.2549 77.9766H91.6853L83.1225 98.9366L83.7122 98.8473L92.2549 77.9766Z" fill="#F79C8D"/>
<path d="M105.017 148.459C105.017 148.459 104.241 150.937 105.63 152.575C107.019 154.214 112.792 155.822 113.55 156.71C114.308 157.597 114.25 158.353 114.25 158.353L98.0477 157.909L98.2238 153.034L98.9695 149.532L105.017 148.459Z" fill="#FFCAAC"/>
<path d="M106.639 153.393C106.639 153.393 102.475 155.07 100.464 154.077C98.4534 153.083 98.5139 152.808 97.9321 153.179C97.3502 153.549 97.1417 158.119 97.1417 158.119L115.36 158.652C116.628 158.623 117.268 157.693 116.239 156.897C115.533 156.351 114.717 155.985 114.252 155.721C112.828 154.906 106.639 153.393 106.639 153.393Z" fill="#004F84"/>
<path d="M104.403 104.729C105.655 102.104 108.503 98.6861 113.515 100.744C118.294 102.708 119.577 107.533 118.068 112.474C116.56 117.414 106.633 146.46 106.287 150.454L98.3606 150.507C98.3606 150.507 99.8011 127.508 100.154 121.949C100.495 116.6 102.235 109.273 104.403 104.729Z" fill="#50BFA5"/>
<path d="M117.27 77.9766H90.7748C90.0738 77.9766 89.442 78.3996 89.1765 79.0486L81.0185 98.9366H66.4113C66.003 98.9366 65.6718 99.2677 65.6718 99.6749C65.6718 100.083 66.003 100.413 66.4113 100.413H107.984C109.127 100.413 110.164 99.7424 110.632 98.7001L118.847 80.4097C119.36 79.2685 118.523 77.9766 117.27 77.9766Z" fill="#F66819"/>
<path d="M103.006 89.558C102.827 90.4514 102.047 91.0487 101.264 90.8919C100.482 90.7351 99.9921 89.8847 100.171 88.9913C100.35 88.098 101.129 87.5006 101.912 87.6574C102.694 87.8133 103.184 88.6646 103.006 89.558Z" fill="white"/>
<path opacity="0.3" d="M28.5149 49.8434C21.2896 49.8434 15.4324 43.9767 15.4324 36.7398C15.4324 29.5029 21.2896 23.6362 28.5149 23.6362C35.7402 23.6362 41.5974 29.5029 41.5974 36.7398C41.5974 43.9767 35.7402 49.8434 28.5149 49.8434Z" fill="#E4E8ED"/>
<path d="M37.762 36.4823H42.585V36.8536H37.762V36.4823Z" fill="#184655"/>
<path d="M14.415 36.4823H19.238V36.8536H14.415V36.4823Z" fill="#184655"/>
<path d="M28.3502 22.7463H28.7208V27.5775H28.3502V22.7463Z" fill="#184655"/>
<path d="M28.3502 46.037H28.7208V50.8681H28.3502V46.037Z" fill="#184655"/>
<path d="M28.1162 36.7398C28.1162 36.9605 28.295 37.14 28.5158 37.14C28.7366 37.14 28.9153 36.9614 28.9153 36.7398C28.9153 36.5191 28.7366 36.3395 28.5158 36.3395C28.295 36.3404 28.1162 36.5191 28.1162 36.7398Z" fill="#184655"/>
<path d="M28.5149 36.9185C28.5604 36.9185 28.606 36.9009 28.6411 36.8659L35.815 29.6804C35.8851 29.6104 35.8851 29.4974 35.815 29.4273C35.7458 29.3572 35.6319 29.3572 35.5626 29.4273L28.3887 36.6128C28.3186 36.6829 28.3186 36.7958 28.3887 36.8659C28.4237 36.9018 28.4693 36.9185 28.5149 36.9185Z" fill="#184655"/>
<path d="M26.2086 44.0015C26.2384 43.9866 26.2621 43.9603 26.2735 43.9261L28.592 36.9106C28.6148 36.8423 28.578 36.7687 28.5096 36.7459C28.4413 36.7231 28.3686 36.7599 28.3458 36.8282L26.0272 43.8438C26.0044 43.9121 26.0412 43.9857 26.1096 44.0085C26.1438 44.0199 26.1788 44.0164 26.2086 44.0015Z" fill="#184655"/>
<path d="M110.105 14.7296L108.911 12.0364L110.454 9.5262C110.63 9.24068 110.401 8.8772 110.067 8.91136L107.135 9.2144L105.224 6.97222C105.007 6.71647 104.591 6.82157 104.52 7.15002L103.902 10.0307L101.178 11.1544C100.868 11.2823 100.839 11.7106 101.13 11.8787L103.679 13.3563L103.907 16.2939C103.934 16.6285 104.331 16.7879 104.582 16.5637L106.776 14.5965L109.641 15.2876C109.967 15.3655 110.241 15.0362 110.105 14.7296Z" fill="#F47458"/>
<path d="M32.5063 72.4517L32.6483 70.778L34.1081 69.9459C34.2746 69.8513 34.2597 69.607 34.0836 69.5325L32.5352 68.8809L32.1944 67.236C32.1558 67.0486 31.9183 66.9873 31.7939 67.1318L30.6951 68.4027L29.025 68.2179C28.8348 68.1968 28.7034 68.4027 28.8024 68.5665L29.6716 70.0037L28.9803 71.5347C28.9014 71.709 29.0565 71.8982 29.2431 71.8544L30.8791 71.4725L32.1216 72.6033C32.2618 72.732 32.4897 72.6427 32.5063 72.4517Z" fill="#F48C7F"/>
<path d="M166.459 47.8473L165.803 46.3654L166.652 44.9851C166.748 44.8274 166.623 44.6277 166.439 44.647L164.826 44.8134L163.775 43.5802C163.655 43.44 163.426 43.4979 163.388 43.6783L163.048 45.2627L161.549 45.881C161.378 45.9511 161.363 46.1867 161.523 46.2796L162.924 47.0915L163.049 48.7074C163.063 48.8914 163.283 48.9789 163.42 48.8563L164.627 47.7738L166.203 48.1539C166.382 48.1968 166.533 48.0155 166.459 47.8473Z" fill="#F7CC7F"/>
<path d="M115.627 45.1655L114.971 43.6835L115.82 42.3032C115.916 42.1455 115.791 41.9459 115.607 41.9651L113.995 42.1315L112.943 40.8983C112.823 40.7582 112.594 40.816 112.556 40.9964L112.216 42.5808L110.718 43.1992C110.547 43.2693 110.531 43.5049 110.69 43.5977L112.093 44.4105L112.219 46.0264C112.233 46.2104 112.452 46.2979 112.589 46.1753L113.796 45.0928L115.372 45.4729C115.551 45.5158 115.703 45.3345 115.627 45.1655Z" fill="#50BFA5"/>
<path d="M146.515 90.1518L144.546 88.4098L141.392 91.2677L138.199 89.0754L135.488 90.8289L134.601 89.4573L138.225 87.1126L141.252 89.1901L144.533 86.2175L147.497 88.838L146.515 90.1518Z" fill="#07345A"/>
<path d="M27.3161 126.25C27.4844 124.766 27.6842 123.248 28.3729 121.924C29.2106 120.314 30.6827 119.152 31.9682 117.873C34.3709 115.481 36.2198 112.536 37.33 109.33C38.1879 106.852 38.6164 104.211 39.7985 101.871C40.5205 100.441 41.5054 99.1634 42.3256 97.7884C44.2639 94.5381 45.3197 90.6975 47.9485 87.9771C48.4541 91.2755 47.4543 94.7754 45.2838 97.3058C44.6363 98.0607 43.8853 98.7413 43.392 99.6049C42.4964 101.173 42.5779 103.086 42.4728 104.89C42.2756 108.279 41.3196 111.622 39.6968 114.602C37.9723 117.768 35.482 120.587 34.5602 124.074C33.8688 126.686 34.0747 129.617 32.6009 131.881C32.4414 132.126 32.2582 132.373 32.2197 132.663C32.1978 132.826 32.2232 132.991 32.2486 133.153C32.2819 133.364 32.3143 133.574 32.3476 133.784C32.6832 135.922 33.0293 138.643 31.191 140.243C29.9169 141.352 28.2774 141.378 27.3626 139.905C26.4416 138.421 26.5231 136.25 26.5915 134.581C26.7045 131.801 27.0024 129.013 27.3161 126.25Z" fill="#50BFA5"/>
<path d="M24.0049 124.53C24.7199 122.055 25.8301 119.698 26.3865 117.181C26.9263 114.741 26.9307 112.219 26.9324 109.719C26.9342 106.98 26.936 104.242 26.9386 101.503C26.9395 99.7975 26.9421 98.0835 27.2234 96.4019C27.8297 92.7837 29.711 89.4389 30.03 85.7839C30.1676 84.2039 30.0081 82.6063 30.1816 81.0298C30.2806 80.1286 30.5119 79.2098 30.929 78.4101C31.3777 77.5509 32.6176 77.5886 33.0233 78.4688C33.9372 80.4474 34.5164 82.5871 34.1475 84.7066C33.9258 85.9784 33.3747 87.1643 32.9637 88.3878C31.1315 93.8356 32.1041 99.8667 30.6863 105.438C30.2587 107.12 29.6112 108.769 29.5358 110.502C29.3553 114.652 32.4564 118.442 32.1716 122.585C31.9385 125.983 29.4946 128.794 28.4694 132.041C27.8955 133.859 27.7719 135.799 27.1568 137.603C26.6792 139.004 25.5672 140.707 23.841 140.281C22.2024 139.877 22.6975 138.54 22.7702 137.263C23.0182 132.942 22.7851 128.751 24.0049 124.53Z" fill="#3C8F7C"/>
<path d="M20.2536 126.798C20.3254 125.513 20.5428 124.219 20.3631 122.944C20.2115 121.866 19.7822 120.851 19.4755 119.807C18.9015 117.852 18.7587 115.799 18.6202 113.765C18.3679 110.068 18.1146 106.371 17.8623 102.674C17.4697 96.9274 17.0745 91.1643 15.9994 85.5054C15.7006 83.9342 15.3658 82.2315 16.0721 80.7977C16.2211 80.4956 16.5137 80.175 16.8353 80.2757C17.064 80.3475 17.1762 80.5989 17.2594 80.8249C19.6095 87.2081 20.4972 94.08 23.1207 100.355C23.749 101.858 24.4798 103.338 24.8049 104.934C25.1957 106.852 24.981 108.833 24.9301 110.789C24.8574 113.594 25.1308 116.421 25.9063 119.119C26.312 120.53 26.8544 121.909 27.077 123.361C27.3539 125.17 27.1217 127.014 26.9482 128.836C26.6143 132.341 26.5022 135.866 26.6099 139.384C26.6739 141.453 24.9266 141.399 23.7691 140.128C22.9595 139.239 22.9673 138.263 22.6904 137.157C21.7809 133.525 20.0328 130.736 20.2536 126.798Z" fill="#3C8F7C"/>
<path d="M31.1674 132.407C32.7122 129.926 35.7896 128.516 36.7772 125.765C37.0287 125.065 37.1268 124.312 37.4335 123.634C38.1152 122.129 39.6653 121.279 41.1891 120.586C41.4003 120.49 41.6413 120.643 41.6448 120.876C41.65 121.245 41.4748 121.598 41.1681 121.805C39.9939 122.595 39.1019 123.802 38.7049 125.163C38.2344 126.776 38.4386 128.543 37.8532 130.118C37.3625 131.439 36.3513 132.52 35.8764 133.848C35.4426 135.062 35.4882 136.388 35.284 137.661C35.0799 138.933 34.5147 140.285 33.3449 140.823C29.1125 142.772 30.1702 134.01 31.1674 132.407Z" fill="#3C8F7C"/>
<path d="M13.5686 131.588C13.6343 132.787 13.4512 134.045 13.9208 135.15C14.2214 135.857 14.762 136.429 15.2054 137.056C16.7634 139.258 17.3277 142.379 19.7208 143.618C19.8785 143.7 20.0546 143.773 20.2299 143.741C20.4752 143.695 20.6356 143.459 20.7346 143.229C21.3217 141.863 20.6628 140.323 20.2728 138.889C20.2045 138.637 20.1475 138.358 20.2676 138.127C20.399 137.873 20.6996 137.762 20.9046 137.563C21.3138 137.166 21.2753 136.508 21.1938 135.943C20.9905 134.531 20.7057 133.132 20.3403 131.754C20.1326 130.973 19.8934 130.184 19.443 129.513C18.947 128.774 18.2268 128.222 17.552 127.643C14.5719 125.08 12.2892 121.711 11.0108 117.992C10.7339 117.187 10.4876 116.336 9.91633 115.706C9.34501 115.075 8.32679 114.75 7.63016 115.24C7.13507 115.588 9.16273 118.848 9.39932 119.24C10.0749 120.357 10.0837 121.33 10.4657 122.57C11.4025 125.61 13.3898 128.331 13.5686 131.588Z" fill="#3C8F7C"/>
<path d="M15.9275 132.975C15.485 131.831 15.0381 130.671 14.8926 129.453C14.7305 128.099 14.9452 126.713 14.7139 125.369C14.416 123.641 13.4083 122.12 12.9088 120.44C12.5487 119.226 12.4601 117.95 12.2437 116.702C11.6251 113.134 9.94617 109.647 10.4281 106.058C10.5333 105.278 10.8855 104.368 11.661 104.235C12.3629 104.114 13.0017 104.756 13.1839 105.445C13.3662 106.134 13.2304 106.861 13.1804 107.572C13.0411 109.556 13.6072 111.583 14.7542 113.206C15.8565 114.765 17.4566 115.939 18.4485 117.571C19.6656 119.573 19.8312 122.016 20.4516 124.276C21.6863 128.77 24.7838 132.689 25.3481 137.316C25.5724 139.157 25.1405 141.394 23.4405 142.129C18.5256 144.258 17.0412 135.854 15.9275 132.975Z" fill="#50BFA5"/>
<path d="M24.5218 138.678H25.3078H35.8036C36.5747 138.678 37.1443 139.4 36.9655 140.152L32.8532 157.486C32.7253 158.026 32.2442 158.406 31.6913 158.406H25.3087H24.5227H18.14C17.5871 158.406 17.106 158.025 16.9781 157.486L12.8658 140.152C12.6879 139.4 13.2566 138.678 14.0277 138.678H24.5218Z" fill="#F47458"/>
<path d="M137.715 118.39H192.556V121.221H137.715V118.39Z" fill="#2A2C33"/>
<path d="M155.709 134.813H191.564V137.29H155.709V134.813Z" fill="#2A2C33"/>
<path d="M143.096 119.806H145.409V158.418H143.096V119.806Z" fill="#2A2C33"/>
<path d="M175.812 119.806H178.125V158.418H175.812V119.806Z" fill="#2A2C33"/>
<path d="M161.864 158.418L149.402 120.137L151.444 119.474L164.122 158.418H161.864Z" fill="#2A2C33"/>
<path d="M196.918 158.418L186.259 120.053L188.329 119.479L199.147 158.418H196.918Z" fill="#2A2C33"/>
<path d="M28.5149 21.436C36.9533 21.436 43.7942 28.2878 43.7942 36.7398C43.7942 45.1917 36.9533 52.0435 28.5149 52.0435C20.0765 52.0435 13.2356 45.1917 13.2356 36.7398C13.2356 28.2878 20.0765 21.436 28.5149 21.436ZM27.6956 49.818C34.9063 50.2708 41.119 44.7836 41.572 37.5605C42.0242 30.3373 36.5458 24.1153 29.3342 23.6616C22.1235 23.2079 15.9099 28.696 15.4578 35.9191C15.0056 43.1423 20.4849 49.3652 27.6956 49.818Z" fill="#2A2C33"/>
<path d="M-1.52588e-05 157.952H207V159.614H-1.52588e-05V157.952Z" fill="#042A44"/>
</svg>
