<svg width="80" height="81" viewBox="0 0 80 81" fill="none" xmlns="http://www.w3.org/2000/svg">
<g clip-path="url(#clip0)">
<path d="M59.1882 46.7914C58.5278 46.7914 57.9932 46.2567 57.9932 45.5969V2.19055C57.9932 1.53076 58.5278 0.996094 59.1882 0.996094C59.848 0.996094 60.3827 1.53076 60.3827 2.19055V45.5969C60.3827 46.2567 59.8474 46.7914 59.1882 46.7914Z" fill="#DFE2E6"/>
<path d="M24.6172 79.8016H9.39746V74.4324C9.39746 72.8705 10.6639 71.604 12.2258 71.604H21.7888C23.3507 71.604 24.6172 72.8699 24.6172 74.4324V79.8016Z" fill="#EDF0F3"/>
<path d="M39.8369 79.8015H24.6172V67.4102C24.6172 65.8483 25.8837 64.5818 27.4456 64.5818H37.0085C38.5704 64.5818 39.8369 65.8483 39.8369 67.4102V79.8015Z" fill="#E4E8ED"/>
<path d="M55.0566 79.8016H39.8369V59.8669C39.8369 58.3051 41.1028 57.0386 42.6653 57.0386H52.2283C53.7902 57.0386 55.0566 58.3044 55.0566 59.8669V79.8016Z" fill="#DFE2E6"/>
<path d="M70.2764 79.8016H55.0566V48.4253C55.0566 46.8634 56.3225 45.5969 57.885 45.5969H67.4474C69.0099 45.5969 70.2764 46.8634 70.2764 48.4253V79.8016Z" fill="#C1C5CB"/>
<path d="M74.4946 80.9961H5.41321C4.75342 80.9961 4.21875 80.4614 4.21875 79.8016C4.21875 79.1418 4.75342 78.6072 5.41321 78.6072H74.4946C75.1544 78.6072 75.6891 79.1418 75.6891 79.8016C75.6891 80.4614 75.1544 80.9961 74.4946 80.9961Z" fill="#7C6D61"/>
<path d="M59.188 13.5475H74.4962C74.9705 13.5475 75.192 12.9603 74.8362 12.6472L70.8597 9.14502C70.6266 8.94055 70.6266 8.578 70.8597 8.37292L74.8362 4.87134C75.192 4.55762 74.9705 3.97046 74.4962 3.97046H59.188V13.5475Z" fill="#FFEE92"/>
<path d="M60.407 18.0291L43.8237 27.036C42.3442 27.8398 41.9396 29.2522 41.4232 31.0717L38.1255 42.7349L42.481 44.2308L46.2072 39.4225L49.3437 29.9395L57.6891 24.8687C60.0212 23.452 61.1302 20.6603 60.407 18.0291Z" fill="#FF9C65"/>
<path d="M60.407 18.0291L58.4935 19.0685C58.1713 20.7152 57.1764 22.2026 55.6719 23.1169L48.0675 27.7373C47.589 28.0278 47.2295 28.4801 47.0531 29.0117L45.9673 32.2948C44.8387 35.7067 42.2753 38.4551 38.9501 39.818L38.1255 42.7349L46.2072 39.4231L49.3437 29.9401L57.6891 24.8687C60.0212 23.452 61.1302 20.6603 60.407 18.0291Z" fill="#F56819"/>
<path d="M46.2072 39.4226L50.9826 45.0671C51.7742 46.1151 52.4627 46.8518 52.3198 48.0048L51.2029 57.0337H48.2885L47.5267 49.2719C47.4804 48.8019 47.1831 48.3948 46.7498 48.208L38.1255 42.735L46.2072 39.4226Z" fill="#6D543F"/>
<path d="M38.1254 42.735L37.6597 51.2927C37.6291 52.0026 37.7286 52.4823 37.4509 53.0103L31.9517 64.5819H35.0431L43.3115 53.5968C43.7949 53.0341 43.8511 52.2699 44.014 51.5668L46.2064 39.4226L38.1254 42.735Z" fill="#7C6D61"/>
<path d="M45.6148 19.8766L46.971 22.5243C47.6082 23.7682 47.1162 25.2941 45.8717 25.9313L44.8237 26.4678C43.5792 27.105 42.054 26.613 41.4168 25.3685L40.0606 22.7208C39.4233 21.4763 39.9153 19.9511 41.1598 19.3138L42.2078 18.7773C43.4517 18.1401 44.9769 18.6321 45.6148 19.8766Z" fill="#FFCAAC"/>
</g>
<defs>
<clipPath id="clip0">
<rect width="80" height="80" fill="white" transform="translate(0 0.996094)"/>
</clipPath>
</defs>
</svg>
