<?xml version="1.0" encoding="UTF-8" standalone="no"?>
<svg
   xmlns:dc="http://purl.org/dc/elements/1.1/"
   xmlns:cc="http://creativecommons.org/ns#"
   xmlns:rdf="http://www.w3.org/1999/02/22-rdf-syntax-ns#"
   xmlns:svg="http://www.w3.org/2000/svg"
   xmlns="http://www.w3.org/2000/svg"
   xmlns:sodipodi="http://sodipodi.sourceforge.net/DTD/sodipodi-0.dtd"
   xmlns:inkscape="http://www.inkscape.org/namespaces/inkscape"
   width="509.97308"
   height="452.09134"
   viewBox="0 0 509.97308 452.09134"
   version="1.1"
   id="svg182"
   sodipodi:docname="section-registration-img-for-steps.svg"
   style="fill:none"
   inkscape:version="0.92.1 r15371">
  <metadata
     id="metadata188">
    <rdf:RDF>
      <cc:Work
         rdf:about="">
        <dc:format>image/svg+xml</dc:format>
        <dc:type
           rdf:resource="http://purl.org/dc/dcmitype/StillImage" />
      </cc:Work>
    </rdf:RDF>
  </metadata>
  <defs
     id="defs186" />
  <sodipodi:namedview
     pagecolor="#ffffff"
     bordercolor="#666666"
     borderopacity="1"
     objecttolerance="10"
     gridtolerance="10"
     guidetolerance="10"
     inkscape:pageopacity="0"
     inkscape:pageshadow="2"
     inkscape:window-width="1920"
     inkscape:window-height="1137"
     id="namedview184"
     showgrid="false"
     inkscape:zoom="0.47294589"
     inkscape:cx="262.7129"
     inkscape:cy="220.404"
     inkscape:window-x="-8"
     inkscape:window-y="-8"
     inkscape:window-maximized="1"
     inkscape:current-layer="svg182" />
  <path
     d="m 186.2429,254.33335 c 1.641,-3.322 28.758,-4.252 30.117,0.558 1.264,4.466 3.819,25.885 1.444,31.235 -1.117,2.518 -26.693,4.596 -28.137,1.251 -2.86,-6.663 -5.393,-29.067 -3.424,-33.044 z"
     id="path2"
     inkscape:connector-curvature="0"
     style="clip-rule:evenodd;fill:#90d2ff;fill-rule:evenodd" />
  <path
     d="m 0.4539,450.63635 h 508.507 c 0.25,0 0.454,-0.327 0.454,-0.727 0,-0.401 -0.204,-0.728 -0.454,-0.728 H 0.4539 c -0.2497,0 -0.4539,0.327 -0.4539,0.728 0,0.4 0.2042,0.727 0.4539,0.727 z"
     id="path4"
     inkscape:connector-curvature="0"
     style="fill:#2a2c33" />
  <path
     d="m 174.6169,68.650646 c -4.806,0.98 -21.735,0.1014 -21.825,-8.7127 -0.034,-3.3455 -1.405,-19.1152 7.39,-33.308 10.887,-17.5775997 30.111,-27.48439968 61.459,-26.57199968 37.845,1.10389998 63.202,36.32109968 62.779,65.83299968 -0.779,54.293404 -39.933,59.091404 -64.415,81.732404 -14.47,13.387 -27.427,20.366 -20.314,48.633 2.911,11.568 15.259,34.04 8.896,35.482 -6.363,1.442 -23.805,5.463 -29.04,0.152 -5.235,-5.311 -21.289,-36.513 -20.454,-59.492 1.444,-39.593 24.459,-48.936 46.629,-61.552 27.911,-15.888004 43.503,-25.142004 41.647,-51.764504 -1.071,-15.4149 -17.6,-23.2717 -29.987,-24.8937 -13.68,-1.791 -23.71,3.0582 -30.056,8.3017 -11.97,9.8842 -6.053,24.8035 -12.709,26.1608 z"
     id="path6"
     inkscape:connector-curvature="0"
     style="clip-rule:evenodd;fill:#90d2ff;fill-rule:evenodd" />
  <path
     d="m 50.0967,408.06635 c 1.0211,-2.061 17.8313,-2.636 18.6718,0.344 0.7841,2.765 2.3693,16.045 0.897,19.363 -0.6939,1.56 -16.5508,2.849 -17.4421,0.777 -1.7769,-4.128 -3.3451,-18.017 -2.1267,-20.484 z"
     id="path8"
     inkscape:connector-curvature="0"
     style="clip-rule:evenodd;fill:#90d2ff;fill-rule:evenodd" />
  <path
     d="m 43.0286,287.20235 c -2.9785,0.608 -13.4708,0.062 -13.5328,-5.401 -0.0226,-2.073 -0.8688,-11.85 4.5805,-20.647 6.7523,-10.898 18.6718,-17.037 38.1051,-16.474 23.4615,0.687 39.1825,22.517 38.9235,40.81 -0.486,33.657 -24.759,36.631 -39.9332,50.672 -8.9693,8.296 -17.0021,12.627 -12.5908,30.148 1.8051,7.175 9.46,21.103 5.5169,21.999 -3.9431,0.895 -14.7569,3.385 -18.0062,0.096 -3.2435,-3.29 -13.1999,-22.636 -12.681,-36.885 0.897,-24.544 15.1631,-30.34 28.9046,-38.163 17.3067,-9.85 26.9697,-15.583 25.8187,-32.091 -0.665,-9.558 -10.909,-14.429 -18.5925,-15.432 -8.4785,-1.109 -14.6949,1.898 -18.6323,5.148 -7.4236,6.133 -3.7569,15.381 -7.8805,16.22 z"
     id="path10"
     inkscape:connector-curvature="0"
     style="clip-rule:evenodd;fill:#90d2ff;fill-rule:evenodd" />
  <path
     d="m 469.9249,403.77435 c 0.672,-1.351 11.706,-1.729 12.258,0.226 0.514,1.819 1.557,10.532 0.587,12.711 -0.457,1.025 -10.865,1.87 -11.451,0.507 -1.162,-2.709 -2.195,-11.821 -1.394,-13.444 z"
     id="path12"
     inkscape:connector-curvature="0"
     style="clip-rule:evenodd;fill:#fff592;fill-rule:evenodd" />
  <path
     d="m 465.2879,326.52535 c -1.957,0.4 -8.845,0.04 -8.884,-3.548 -0.017,-1.363 -0.57,-7.778 3.006,-13.556 4.434,-7.153 12.258,-11.186 25.013,-10.814 15.4,0.451 25.723,14.779 25.548,26.792 -0.316,22.094 -16.252,24.049 -26.214,33.263 -5.889,5.446 -11.158,8.29 -8.264,19.791 1.185,4.708 6.211,13.855 3.621,14.44 -2.589,0.586 -9.691,2.225 -11.817,0.062 -2.133,-2.162 -8.665,-14.857 -8.321,-24.212 0.587,-16.113 9.951,-19.915 18.976,-25.051 11.361,-6.466 17.702,-10.234 16.952,-21.07 -0.435,-6.274 -7.164,-9.473 -12.208,-10.132 -5.567,-0.726 -9.646,1.245 -12.229,3.379 -4.88,4.033 -2.471,10.104 -5.179,10.656 z"
     id="path14"
     inkscape:connector-curvature="0"
     style="clip-rule:evenodd;fill:#fff592;fill-rule:evenodd" />
  <path
     d="m 407.6639,259.88135 c 1.061,-2.14 18.548,-2.743 19.428,0.361 0.812,2.878 2.465,16.693 0.931,20.145 -0.722,1.622 -17.217,2.963 -18.147,0.806 -1.845,-4.297 -3.481,-18.744 -2.212,-21.312 z"
     id="path16"
     inkscape:connector-curvature="0"
     style="clip-rule:evenodd;fill:#90d2ff;fill-rule:evenodd" />
  <path
     d="m 400.1679,140.12735 c -3.103,0.636 -14.018,0.062 -14.075,-5.621 -0.022,-2.157 -0.902,-12.329 4.767,-21.481 7.023,-11.337 19.422,-17.724004 39.64,-17.138004 24.408,0.715 40.762,23.424004 40.491,42.460004 -0.502,35.014 -25.757,38.112 -41.546,52.716 -9.331,8.634 -17.685,13.134 -13.099,31.365 1.879,7.462 9.844,21.954 5.737,22.883 -4.106,0.929 -15.355,3.52 -18.728,0.096 -3.373,-3.425 -13.73,-23.548 -13.189,-38.371 0.931,-25.536 15.773,-31.562 30.073,-39.701 18,-10.245 28.058,-16.214 26.862,-33.387 -0.694,-9.94 -11.35,-15.009 -19.343,-16.057 -8.823,-1.154 -15.287,1.972 -19.383,5.356 -7.733,6.382 -3.914,16.001 -8.207,16.88 z"
     id="path18"
     inkscape:connector-curvature="0"
     style="clip-rule:evenodd;fill:#90d2ff;fill-rule:evenodd" />
  <path
     d="m 104.6179,186.02835 c 0.542,-1.098 9.494,-1.402 9.945,0.186 0.418,1.475 1.264,8.544 0.48,10.312 -0.367,0.834 -8.812,1.515 -9.291,0.411 -0.948,-2.196 -1.788,-9.597 -1.134,-10.909 z"
     id="path20"
     inkscape:connector-curvature="0"
     style="clip-rule:evenodd;fill:#fff592;fill-rule:evenodd" />
  <path
     d="m 100.7759,124.72335 c -1.585,0.327 -7.175,0.034 -7.203,-2.878 -0.011,-1.104 -0.463,-6.308 2.437,-10.994 3.593,-5.801 9.939,-9.073 20.291,-8.774 12.494,0.366 20.866,11.99 20.725,21.734 -0.26,17.926 -13.183,19.509 -21.267,26.983 -4.778,4.421 -9.054,6.725 -6.707,16.057 0.959,3.818 5.037,11.236 2.939,11.714 -2.099,0.479 -7.858,1.803 -9.59,0.051 -1.726,-1.751 -7.029,-12.052 -6.752,-19.644 0.479,-13.072 8.072,-16.159 15.394,-20.321 9.218,-5.243 14.362,-8.302 13.753,-17.093 -0.355,-5.092 -5.81,-7.682 -9.9,-8.217 -4.518,-0.592 -7.83,1.008 -9.923,2.742 -3.954,3.267 -1.997,8.189 -4.197,8.64 z"
     id="path22"
     inkscape:connector-curvature="0"
     style="clip-rule:evenodd;fill:#fff592;fill-rule:evenodd" />
  <path
     d="m 233.7979,393.95235 v -8.425 l -9.128,-2.101 c -0.564,-1.971 -1.365,-3.836 -2.38,-5.57 l 4.733,-8.026 -5.968,-5.959 -7.904,4.94 c -1.793,-1.02 -3.723,-1.825 -5.765,-2.371 l -2.363,-9.113 h -8.439 l -2.104,9.124 c -1.969,0.535 -3.842,1.306 -5.585,2.286 l -8.456,-4.973 -5.968,5.959 5.128,8.183 c -0.993,1.718 -1.789,3.566 -2.347,5.509 l -9.336,2.416 v 8.425 l 9.155,2.107 c 0.536,2.078 1.337,4.043 2.364,5.868 l -4.744,8.043 5.968,5.959 7.734,-4.833 c 1.89,1.121 3.949,1.994 6.121,2.58 l 2.279,8.791 h 8.438 l 2.02,-8.746 c 2.211,-0.58 4.304,-1.465 6.228,-2.597 l 7.796,4.585 5.968,-5.959 -4.823,-7.699 c 1.077,-1.892 1.912,-3.937 2.459,-6.099 z m -32.837,5.204 c -4.941,0 -8.952,-3.999 -8.952,-8.938 0,-4.934 4.005,-8.938 8.952,-8.938 4.942,0 8.953,3.999 8.953,8.938 0,4.939 -4.006,8.938 -8.953,8.938 z"
     id="path24"
     inkscape:connector-curvature="0"
     style="clip-rule:evenodd;fill:#d0ecff;fill-rule:evenodd" />
  <path
     d="m 375.9219,79.413546 c 1.835,0 3.323,-1.4852 3.323,-3.3173 0,-1.8321 -1.488,-3.3173 -3.323,-3.3173 -1.835,0 -3.322,1.4852 -3.322,3.3173 0,1.8321 1.487,3.3173 3.322,3.3173 z"
     id="path26"
     inkscape:connector-curvature="0"
     style="fill:#fff592" />
  <path
     d="m 17.34,391.26035 c 0.6451,-2.727 -1.0466,-5.46 -3.7784,-6.104 -2.7318,-0.644 -5.4693,1.045 -6.1143,3.772 -0.6451,2.728 1.0466,5.461 3.7784,6.105 2.7318,0.644 5.4692,-1.045 6.1143,-3.773 z"
     id="path28"
     inkscape:connector-curvature="0"
     style="fill:#fff592" />
  <path
     d="m 329.2369,414.24435 c 2.19,0 3.966,-1.772 3.966,-3.959 0,-2.187 -1.776,-3.959 -3.966,-3.959 -2.19,0 -3.965,1.772 -3.965,3.959 0,2.187 1.775,3.959 3.965,3.959 z"
     id="path30"
     inkscape:connector-curvature="0"
     style="fill:#a6e1f7" />
  <path
     d="m 407.3599,337.13635 v 5.852"
     stroke-miterlimit="10"
     id="path32"
     inkscape:connector-curvature="0"
     style="stroke:#33a8f8;stroke-width:3.16499996;stroke-linecap:round;stroke-miterlimit:10" />
  <path
     d="m 401.1669,338.58335 2.725,5.182"
     stroke-miterlimit="10"
     id="path34"
     inkscape:connector-curvature="0"
     style="stroke:#33a8f8;stroke-width:3.16499996;stroke-linecap:round;stroke-miterlimit:10" />
  <path
     d="m 396.3499,342.73435 4.823,3.323"
     stroke-miterlimit="10"
     id="path36"
     inkscape:connector-curvature="0"
     style="stroke:#33a8f8;stroke-width:3.16499996;stroke-linecap:round;stroke-miterlimit:10" />
  <path
     d="m 394.0199,348.64235 5.821,0.71"
     stroke-miterlimit="10"
     id="path38"
     inkscape:connector-curvature="0"
     style="stroke:#33a8f8;stroke-width:3.16499996;stroke-linecap:round;stroke-miterlimit:10" />
  <path
     d="m 394.7079,354.96135 5.483,-2.078"
     stroke-miterlimit="10"
     id="path40"
     inkscape:connector-curvature="0"
     style="stroke:#33a8f8;stroke-width:3.16499996;stroke-linecap:round;stroke-miterlimit:10" />
  <path
     d="m 398.2559,360.23335 3.892,-4.382"
     stroke-miterlimit="10"
     id="path42"
     inkscape:connector-curvature="0"
     style="stroke:#33a8f8;stroke-width:3.16499996;stroke-linecap:round;stroke-miterlimit:10" />
  <path
     d="m 403.8579,363.25235 1.398,-5.683"
     stroke-miterlimit="10"
     id="path44"
     inkscape:connector-curvature="0"
     style="stroke:#33a8f8;stroke-width:3.16499996;stroke-linecap:round;stroke-miterlimit:10" />
  <path
     d="m 410.2159,363.33135 -1.399,-5.683"
     stroke-miterlimit="10"
     id="path46"
     inkscape:connector-curvature="0"
     style="stroke:#33a8f8;stroke-width:3.16499996;stroke-linecap:round;stroke-miterlimit:10" />
  <path
     d="m 415.8849,360.44735 -3.887,-4.376"
     stroke-miterlimit="10"
     id="path48"
     inkscape:connector-curvature="0"
     style="stroke:#33a8f8;stroke-width:3.16499996;stroke-linecap:round;stroke-miterlimit:10" />
  <path
     d="m 419.5629,355.26635 -5.478,-2.073"
     stroke-miterlimit="10"
     id="path50"
     inkscape:connector-curvature="0"
     style="stroke:#33a8f8;stroke-width:3.16499996;stroke-linecap:round;stroke-miterlimit:10" />
  <path
     d="m 420.4089,348.96935 -5.816,0.71"
     stroke-miterlimit="10"
     id="path52"
     inkscape:connector-curvature="0"
     style="stroke:#33a8f8;stroke-width:3.16499996;stroke-linecap:round;stroke-miterlimit:10" />
  <path
     d="m 418.2259,343.00535 -4.824,3.322"
     stroke-miterlimit="10"
     id="path54"
     inkscape:connector-curvature="0"
     style="stroke:#33a8f8;stroke-width:3.16499996;stroke-linecap:round;stroke-miterlimit:10" />
  <path
     d="m 413.5209,338.73635 -2.725,5.181"
     stroke-miterlimit="10"
     id="path56"
     inkscape:connector-curvature="0"
     style="stroke:#33a8f8;stroke-width:3.16499996;stroke-linecap:round;stroke-miterlimit:10" />
  <path
     d="m 154.0969,278.45035 c 0,1.645 -1.336,2.981 -2.986,2.981 -1.65,0 -2.986,-1.336 -2.986,-2.981 0,-1.645 1.336,-2.981 2.986,-2.981 1.65,0 2.986,1.336 2.986,2.981 z"
     id="path58"
     inkscape:connector-curvature="0"
     style="fill:#fff592;stroke:#33a8f8" />
  <path
     d="m 151.2749,263.57035 v 6.646"
     stroke-miterlimit="10"
     id="path60"
     inkscape:connector-curvature="0"
     style="stroke:#33a8f8;stroke-width:3.59549999;stroke-linecap:round;stroke-miterlimit:10" />
  <path
     d="m 144.2339,265.20935 3.097,5.886"
     stroke-miterlimit="10"
     id="path62"
     inkscape:connector-curvature="0"
     style="stroke:#33a8f8;stroke-width:3.59549999;stroke-linecap:round;stroke-miterlimit:10" />
  <path
     d="m 138.7689,269.92935 5.483,3.773"
     stroke-miterlimit="10"
     id="path64"
     inkscape:connector-curvature="0"
     style="stroke:#33a8f8;stroke-width:3.59549999;stroke-linecap:round;stroke-miterlimit:10" />
  <path
     d="m 136.1229,276.64235 6.611,0.8"
     stroke-miterlimit="10"
     id="path66"
     inkscape:connector-curvature="0"
     style="stroke:#33a8f8;stroke-width:3.59549999;stroke-linecap:round;stroke-miterlimit:10" />
  <path
     d="m 136.9069,283.81735 6.222,-2.359"
     stroke-miterlimit="10"
     id="path68"
     inkscape:connector-curvature="0"
     style="stroke:#33a8f8;stroke-width:3.59549999;stroke-linecap:round;stroke-miterlimit:10" />
  <path
     d="m 140.9349,289.80435 4.417,-4.979"
     stroke-miterlimit="10"
     id="path70"
     inkscape:connector-curvature="0"
     style="stroke:#33a8f8;stroke-width:3.59549999;stroke-linecap:round;stroke-miterlimit:10" />
  <path
     d="m 147.2919,293.23435 1.597,-6.454"
     stroke-miterlimit="10"
     id="path72"
     inkscape:connector-curvature="0"
     style="stroke:#33a8f8;stroke-width:3.59549999;stroke-linecap:round;stroke-miterlimit:10" />
  <path
     d="m 154.5189,293.32435 -1.591,-6.454"
     stroke-miterlimit="10"
     id="path74"
     inkscape:connector-curvature="0"
     style="stroke:#33a8f8;stroke-width:3.59549999;stroke-linecap:round;stroke-miterlimit:10" />
  <path
     d="m 160.9609,290.05235 -4.417,-4.979"
     stroke-miterlimit="10"
     id="path76"
     inkscape:connector-curvature="0"
     style="stroke:#33a8f8;stroke-width:3.59549999;stroke-linecap:round;stroke-miterlimit:10" />
  <path
     d="m 165.1409,284.16735 -6.228,-2.36"
     stroke-miterlimit="10"
     id="path78"
     inkscape:connector-curvature="0"
     style="stroke:#33a8f8;stroke-width:3.59549999;stroke-linecap:round;stroke-miterlimit:10" />
  <path
     d="m 166.0999,277.01435 -6.612,0.8"
     stroke-miterlimit="10"
     id="path80"
     inkscape:connector-curvature="0"
     style="stroke:#33a8f8;stroke-width:3.59549999;stroke-linecap:round;stroke-miterlimit:10" />
  <path
     d="m 163.6229,270.23335 -5.483,3.779"
     stroke-miterlimit="10"
     id="path82"
     inkscape:connector-curvature="0"
     style="stroke:#33a8f8;stroke-width:3.59549999;stroke-linecap:round;stroke-miterlimit:10" />
  <path
     d="m 158.2699,265.38435 -3.091,5.885"
     stroke-miterlimit="10"
     id="path84"
     inkscape:connector-curvature="0"
     style="stroke:#33a8f8;stroke-width:3.59549999;stroke-linecap:round;stroke-miterlimit:10" />
  <path
     d="m 479.4579,88.278346 v 3.379"
     stroke-miterlimit="10"
     id="path86"
     inkscape:connector-curvature="0"
     style="stroke:#33a8f8;stroke-width:1.83000004;stroke-linecap:round;stroke-miterlimit:10" />
  <path
     d="m 475.8759,89.112346 1.574,2.996"
     stroke-miterlimit="10"
     id="path88"
     inkscape:connector-curvature="0"
     style="stroke:#33a8f8;stroke-width:1.83000004;stroke-linecap:round;stroke-miterlimit:10" />
  <path
     d="m 473.0899,91.511346 2.792,1.92"
     stroke-miterlimit="10"
     id="path90"
     inkscape:connector-curvature="0"
     style="stroke:#33a8f8;stroke-width:1.83000004;stroke-linecap:round;stroke-miterlimit:10" />
  <path
     d="m 471.7469,94.929346 3.362,0.406"
     stroke-miterlimit="10"
     id="path92"
     inkscape:connector-curvature="0"
     style="stroke:#33a8f8;stroke-width:1.83000004;stroke-linecap:round;stroke-miterlimit:10" />
  <path
     d="m 472.1419,98.579346 3.17,-1.2"
     stroke-miterlimit="10"
     id="path94"
     inkscape:connector-curvature="0"
     style="stroke:#33a8f8;stroke-width:1.83000004;stroke-linecap:round;stroke-miterlimit:10" />
  <path
     d="m 474.1949,101.62635 2.246,-2.529004"
     stroke-miterlimit="10"
     id="path96"
     inkscape:connector-curvature="0"
     style="stroke:#33a8f8;stroke-width:1.83000004;stroke-linecap:round;stroke-miterlimit:10" />
  <path
     d="m 477.4339,103.37835 0.806,-3.29"
     stroke-miterlimit="10"
     id="path98"
     inkscape:connector-curvature="0"
     style="stroke:#33a8f8;stroke-width:1.83000004;stroke-linecap:round;stroke-miterlimit:10" />
  <path
     d="m 481.1109,103.42335 -0.812,-3.289"
     stroke-miterlimit="10"
     id="path100"
     inkscape:connector-curvature="0"
     style="stroke:#33a8f8;stroke-width:1.83000004;stroke-linecap:round;stroke-miterlimit:10" />
  <path
     d="m 484.3879,101.75635 -2.25,-2.535004"
     stroke-miterlimit="10"
     id="path102"
     inkscape:connector-curvature="0"
     style="stroke:#33a8f8;stroke-width:1.83000004;stroke-linecap:round;stroke-miterlimit:10" />
  <path
     d="m 486.5149,98.759346 -3.17,-1.199"
     stroke-miterlimit="10"
     id="path104"
     inkscape:connector-curvature="0"
     style="stroke:#33a8f8;stroke-width:1.83000004;stroke-linecap:round;stroke-miterlimit:10" />
  <path
     d="m 487.0009,95.121346 -3.362,0.405"
     stroke-miterlimit="10"
     id="path106"
     inkscape:connector-curvature="0"
     style="stroke:#33a8f8;stroke-width:1.83000004;stroke-linecap:round;stroke-miterlimit:10" />
  <path
     d="m 485.7429,91.669346 -2.793,1.92"
     stroke-miterlimit="10"
     id="path108"
     inkscape:connector-curvature="0"
     style="stroke:#33a8f8;stroke-width:1.83000004;stroke-linecap:round;stroke-miterlimit:10" />
  <path
     d="m 483.0179,89.202346 -1.574,2.996"
     stroke-miterlimit="10"
     id="path110"
     inkscape:connector-curvature="0"
     style="stroke:#33a8f8;stroke-width:1.83000004;stroke-linecap:round;stroke-miterlimit:10" />
  <path
     d="m 68.9662,208.88335 v -2.608 l -2.8205,-0.647 c -0.1749,-0.609 -0.4231,-1.189 -0.7333,-1.724 l 1.461,-2.484 -1.8446,-1.841 -2.4426,1.526 c -0.5528,-0.315 -1.1508,-0.563 -1.7826,-0.732 l -0.7333,-2.816 h -2.6118 l -0.6487,2.821 c -0.6092,0.164 -1.1903,0.406 -1.7262,0.704 l -2.6174,-1.537 -1.8446,1.842 1.5851,2.528 c -0.3102,0.53 -0.5528,1.104 -0.7277,1.707 l -2.8882,0.749 v 2.608 l 2.8318,0.653 c 0.1636,0.642 0.4118,1.25 0.7333,1.813 l -1.4666,2.49 1.8446,1.841 2.3918,-1.492 c 0.5867,0.349 1.2185,0.62 1.8897,0.8 l 0.7052,2.72 h 2.6118 l 0.6261,-2.703 c 0.6826,-0.181 1.3313,-0.451 1.9236,-0.806 l 2.4087,1.42 1.8446,-1.842 -1.4948,-2.383 c 0.3328,-0.585 0.5923,-1.216 0.7615,-1.886 z m -10.1538,1.605 c -1.5288,0 -2.7698,-1.239 -2.7698,-2.765 0,-1.527 1.241,-2.766 2.7698,-2.766 1.5287,0 2.7697,1.239 2.7697,2.766 0,1.532 -1.241,2.765 -2.7697,2.765 z"
     id="path112"
     inkscape:connector-curvature="0"
     style="clip-rule:evenodd;fill:#33a8f8;fill-rule:evenodd" />
  <path
     d="m 492.7309,260.31535 v -4.81 l -5.207,-1.2 c -0.321,-1.12 -0.778,-2.191 -1.359,-3.176 l 2.702,-4.579 -3.407,-3.402 -4.513,2.816 c -1.021,-0.58 -2.127,-1.042 -3.289,-1.351 l -1.348,-5.199 h -4.817 l -1.202,5.21 c -1.122,0.304 -2.194,0.743 -3.187,1.301 l -4.829,-2.839 -3.407,3.402 2.928,4.669 c -0.57,0.98 -1.021,2.033 -1.337,3.143 l -5.331,1.38 v 4.809 l 5.224,1.2 c 0.304,1.183 0.761,2.309 1.348,3.351 l -2.708,4.59 3.407,3.402 4.412,-2.76 c 1.077,0.642 2.25,1.138 3.491,1.476 l 1.304,5.018 h 4.817 l 1.151,-4.99 c 1.263,-0.332 2.454,-0.834 3.554,-1.481 l 4.45,2.613 3.408,-3.402 -2.753,-4.393 c 0.615,-1.081 1.094,-2.247 1.404,-3.48 z m -18.739,2.968 c -2.821,0 -5.111,-2.281 -5.111,-5.103 0,-2.816 2.285,-5.102 5.111,-5.102 2.82,0 5.11,2.281 5.11,5.102 -0.005,2.822 -2.29,5.103 -5.11,5.103 z"
     id="path114"
     inkscape:connector-curvature="0"
     style="clip-rule:evenodd;fill:#d0ecff;fill-rule:evenodd" />
  <path
     d="m 125.0159,63.058046 c -0.006,0.0845 -0.102,0.1352 -0.169,0.0845 l -4.756,-3.092 -4.755,-3.092 c -0.073,-0.045 -0.068,-0.1521 0.011,-0.1915 l 5.06,-2.5626 5.06,-2.5625 c 0.074,-0.0395 0.164,0.0168 0.158,0.1013 l -0.304,5.6602 z"
     id="path116"
     inkscape:connector-curvature="0"
     style="clip-rule:evenodd;fill:#a6e1f7;fill-rule:evenodd" />
  <path
     d="m 494.4639,199.53435 c 0.034,0.045 0,0.112 -0.057,0.118 l -3.819,0.321 -3.819,0.321 c -0.056,0.006 -0.096,-0.056 -0.073,-0.107 l 1.636,-3.464 1.636,-3.463 c 0.022,-0.051 0.096,-0.057 0.13,-0.012 l 2.188,3.143 z"
     id="path118"
     inkscape:connector-curvature="0"
     style="clip-rule:evenodd;fill:#84d2f4;fill-rule:evenodd" />
  <path
     d="m 262.8709,441.14335 c 0,0 -0.727,2.399 -1.258,3.047 -0.53,0.648 5.128,1.234 5.427,0.98 0.175,-0.141 -0.333,-1.554 -0.367,-2.799 -0.028,-1.07 0.226,-1.96 0.226,-1.96 z"
     id="path120"
     inkscape:connector-curvature="0"
     style="clip-rule:evenodd;fill:#ffcaac;fill-rule:evenodd" />
  <path
     d="m 266.8929,440.43935 -0.057,-0.017 -1.478,0.271 0.215,0.754 c 0,0 0.767,0.53 0.654,1.296 -0.152,1.047 -2.832,1.402 -2.832,1.402 l -0.31,0.71 0.119,0.028 c 1.438,0.265 3.367,0.417 3.768,0.31 l 0.096,-0.186 c -0.012,-0.428 -0.378,-1.594 -0.406,-2.642 -0.012,-0.957 0.191,-1.768 0.231,-1.926 z"
     id="path122"
     inkscape:connector-curvature="0"
     style="clip-rule:evenodd;fill:#eeae8a;fill-rule:evenodd" />
  <path
     d="m 267.6909,441.64135 c 0,0 0.574,6.829 -0.83,7.54 l -17.975,-0.039 c 0,0 0,-2.132 2.887,-2.607 2.887,-0.474 7.96,-2.212 8.816,-6.081 0.861,-3.866 7.102,1.187 7.102,1.187 z"
     id="path124"
     inkscape:connector-curvature="0"
     style="fill:#004f84" />
  <path
     d="m 373.1419,440.05035 c 0,0 -0.339,2.484 -0.762,3.205 -0.423,0.721 5.257,0.417 5.517,0.124 0.147,-0.169 -0.575,-1.481 -0.801,-2.709 -0.198,-1.053 -0.085,-1.971 -0.085,-1.971 z"
     id="path126"
     inkscape:connector-curvature="0"
     style="clip-rule:evenodd;fill:#ffcaac;fill-rule:evenodd" />
  <path
     d="m 377.7049,440.10835 c 0,0 2.615,2.346 2.106,4.014 -0.511,1.668 -2.871,2.78 -3.189,4.818 -0.319,2.039 -1.595,3.151 -2.743,3.151 -1.147,0 -5.473,0 -5.473,0 0,0 -0.845,-1.435 1.196,-1.866 2.04,-0.432 2.811,-2.827 2.682,-5.051 -0.128,-2.224 0.192,-5.189 0.192,-5.189 l 4.337,-0.987 z"
     id="path128"
     inkscape:connector-curvature="0"
     style="fill:#004f84" />
  <path
     d="m 250.8159,156.74135 c -0.045,-0.968 5.088,-2.179 5.252,-1.154 0.186,1.166 9.584,35.454 11.141,35.352 1.703,-0.107 8.478,-19.521 13.967,-30.852 3.819,-7.879 8.71,-10.301 8.71,-10.301 0,0 1.799,52.637 0.688,54.479 -0.615,1.013 -6.352,8.149 -12.907,13.742 -5.376,4.584 -11.462,7.935 -14.339,7.468 -8.676,-1.414 -11.632,-24.618 -12.393,-37.633 -0.745,-12.588 0.05,-27.502 -0.119,-31.101 z"
     id="path130"
     inkscape:connector-curvature="0"
     style="clip-rule:evenodd;fill:#96d9c9;fill-rule:evenodd" />
  <path
     d="m 290.3369,244.62835 c 0,0 -11.17,53.666 -15.409,85.889 -2.975,22.627 -14.84,108.155 -14.386,110.574 0.126,0.665 6.18,1.257 6.639,0.361 1.074,-2.092 25.166,-57.861 27.48,-67.486 2.567,-10.696 1.028,-19.785 4.175,-27.673 3.526,-8.841 18.878,-23.489 25.31,-37.72 8.873,-19.622 20.801,-59.705 20.801,-59.705 l -56.965,-4.815 z"
     id="path132"
     inkscape:connector-curvature="0"
     style="clip-rule:evenodd;fill:#464e57;fill-rule:evenodd" />
  <path
     d="m 345.7539,248.82535 c 0,0 6.194,14.154 9.285,30.543 4.242,22.517 0.39,51.64 4.113,61.868 1.574,4.32 4.896,7.592 7.666,18.766 2.51,10.132 13.217,79.716 11.378,80.375 -0.948,0.344 -6.093,0.552 -6.442,-0.056 -0.672,-1.16 -25.847,-58.309 -32.306,-75.177 -8.061,-21.058 -34.399,-80.031 -35.838,-84.869 -1.438,-4.838 -1.72,-32.565 -0.028,-34.772 1.698,-2.203 40.457,0.304 42.172,3.322 z"
     id="path134"
     inkscape:connector-curvature="0"
     style="clip-rule:evenodd;fill:#464e57;fill-rule:evenodd" />
  <path
     d="m 337.8739,246.59535 c 4.327,0.653 7.424,1.425 7.881,2.23 0,0 3.836,8.741 8.247,24.821 6.391,23.271 1.427,57.357 5.15,67.59 1.574,4.32 4.896,7.592 7.666,18.766 2.51,10.132 13.217,79.716 11.378,80.375 -0.282,0.102 -0.936,0.192 -1.72,0.254 -1.309,-9.507 -4.756,-34.018 -6.894,-44.972 -2.685,-13.754 -6.109,-38.726 -10.159,-44.443 -5.895,-8.318 -10.148,-25.029 -10.735,-41.643 -0.874,-24.714 -6.735,-53.922 -6.735,-53.922 z"
     id="path136"
     inkscape:connector-curvature="0"
     style="clip-rule:evenodd;fill:#343b43;fill-rule:evenodd" />
  <path
     d="m 290.0269,248.70235 56.737,2.703 c 0,0 0.457,1.875 -4.067,3.002 -6.323,1.571 -19.834,4.224 -33.914,1.757 -21.453,-3.757 -18.756,-7.462 -18.756,-7.462 z"
     id="path138"
     inkscape:connector-curvature="0"
     style="clip-rule:evenodd;fill:#0069af;fill-rule:evenodd" />
  <path
     d="m 339.9609,139.38935 c 0,0 22.276,6.032 30.885,17.183 6.284,8.139 -1.975,30.701 -6.883,49.146 -3.345,12.571 -7.581,23.576 -8.472,26.003 -2.195,5.981 -6.465,17.977 -9.641,20.591 -2.341,1.92 -17.053,2.838 -29.096,2.382 -4.321,-0.163 -26.299,-3.728 -27.359,-6.527 -1.704,-4.489 -3.548,-29.687 -4.778,-41.773 -0.97,-9.513 -7.644,-41.576 1.01,-52.66 7.35,-9.417 22.468,-11.619 26.789,-11.405 2.177,0.101 25.04,-5.12 27.545,-2.94 z"
     id="path140"
     inkscape:connector-curvature="0"
     style="clip-rule:evenodd;fill:#96d9c9;fill-rule:evenodd" />
  <path
     d="m 322.7279,125.73735 c 0,0 -1.749,6.268 -6.188,11.399 -1.98,2.287 -8.005,5.508 -8.005,5.508 0,0 1.777,11.676 8.907,12.194 10.989,0.794 26.683,-14.148 26.683,-14.148 0,0 -7.373,-6.364 -7.853,-10.825 -0.4,-3.711 -0.66,-9.738 -0.66,-9.738 z"
     id="path142"
     inkscape:connector-curvature="0"
     style="clip-rule:evenodd;fill:#ffcaac;fill-rule:evenodd" />
  <path
     d="m 250.7029,166.33335 c 0.062,-0.164 0.096,-0.248 0.096,-0.248 0,0 3.627,54.608 12.957,54.056 10.69,-0.636 22.536,-15.133 22.536,-15.133 0,0 0.61,0.085 0.711,1.312 0.147,1.746 -0.355,10.442 0.835,26.037 0.615,8.082 1.517,13.32 2.612,16.666 0.034,0.107 -0.812,-0.231 -1.055,-0.868 -1.512,-3.993 -3.136,-24.347 -4.344,-37.312 -2.121,2.292 -4.687,4.86 -7.384,7.164 -5.376,4.584 -11.462,7.935 -14.339,7.468 -8.676,-1.414 -11.632,-24.618 -12.394,-37.633 -0.428,-7.266 -0.349,-15.314 -0.231,-21.509 z"
     id="path144"
     inkscape:connector-curvature="0"
     style="clip-rule:evenodd;fill:#52b7a0;fill-rule:evenodd" />
  <path
     d="m 237.5849,136.25935 c 18.066,-18.038 18.066,-47.282004 0,-65.319804 -18.066,-18.0376 -47.358,-18.0376 -65.424,0 -18.066,18.0378 -18.066,47.281804 0,65.319804 18.067,18.037 47.358,18.037 65.424,0 z"
     id="path146"
     inkscape:connector-curvature="0"
     style="opacity:0.23999999;fill:#84d2f4" />
  <path
     d="m 218.5609,59.470446 -39.177,82.672904 c -4.665,-3.069 -3.565,-0.94 -6.876,-5.536 l 38.049,-78.860304 c 5.156,-0.1577 3.238,0.2366 8.004,1.7234 z"
     id="path148"
     inkscape:connector-curvature="0"
     style="opacity:0.46000001;fill:#ffffff" />
  <path
     d="m 237.4529,70.790846 -38.325,77.621504 c -5.94,0.36 -6.087,-0.226 -11.564,-1.983 l 41.01,-82.503904 c 4.259,3.0525 5.765,2.5231 8.879,6.8654 z"
     id="path150"
     inkscape:connector-curvature="0"
     style="opacity:0.46000001;fill:#ffffff" />
  <path
     d="m 204.8759,53.810246 c -27.523,0 -49.861,22.3086 -49.861,49.782104 0,27.473 22.344,49.781 49.861,49.781 27.517,0 49.861,-22.308 49.861,-49.781 0,-27.473504 -22.339,-49.782104 -49.861,-49.782104 z m -0.113,93.869104 c -24.493,0 -44.378,-19.853 -44.378,-44.307 0,-24.454404 19.885,-44.307404 44.378,-44.307404 24.493,0 44.378,19.853 44.378,44.307404 0,24.454 -19.885,44.307 -44.378,44.307 z"
     id="path152"
     inkscape:connector-curvature="0"
     style="clip-rule:evenodd;fill:#913333;fill-rule:evenodd" />
  <path
     d="m 234.1699,136.54535 c 0,0 138.662,140.351 142.425,141.691 3.762,1.34 13.809,-8.29 11.423,-12.56 -1.281,-2.292 -44.711,-41.756 -84.621,-77.778 -34.354,-31.01 -64.477,-56.253 -64.477,-56.253 z"
     id="path154"
     inkscape:connector-curvature="0"
     style="clip-rule:evenodd;fill:#913333;fill-rule:evenodd" />
  <path
     d="m 340.3389,222.14135 c -4.101,3.717 -8.084,6.843 -12.269,9.197 -17.973,-17.966 -37.598,-37.707 -54.036,-54.271 l 1.585,-3.272 c 0,0 27.399,22.833 31.263,19.51 0.237,-0.209 0.491,-0.457 0.762,-0.744 0.293,0.265 0.586,0.53 0.88,0.794 10.644,9.609 21.537,19.459 31.815,28.786 z"
     id="path156"
     inkscape:connector-curvature="0"
     style="clip-rule:evenodd;fill:#808080;fill-rule:evenodd" />
  <path
     d="m 224.9069,146.66035 c 0,0 14.289,0.203 19.986,-6.28 5.743,-6.533 3.746,-17.594 3.746,-17.594 z"
     id="path158"
     inkscape:connector-curvature="0"
     style="clip-rule:evenodd;fill:#913333;fill-rule:evenodd" />
  <path
     d="m 266.6899,441.72935 c 0.124,-0.231 0.394,-0.71 0.535,-0.958 1.665,-2.894 17.883,-43.248 25.176,-66.644 3.656,-11.731 3.092,-22.579 3.34,-25.017 1.247,-12.194 13.014,-22.562 15.039,-30.83 2.025,-8.268 -0.288,-17.955 -4.637,-32.598 0,0 12.173,24.629 15.016,31.832 -7.198,11.23 -17.295,21.92 -20.048,28.943 -3.091,7.874 -1.579,16.958 -4.101,27.642 -2.273,9.614 -27.128,64.943 -28.182,67.033 -0.175,0.343 -1.163,0.67 -2.138,0.597 z"
     id="path160"
     inkscape:connector-curvature="0"
     style="clip-rule:evenodd;fill:#343b43;fill-rule:evenodd" />
  <path
     d="m 343.9159,247.14135 c 1.168,1.161 2.324,2.304 3.458,3.436 -0.215,0.321 -0.418,0.603 -0.609,0.828 -0.892,1.064 -2.088,1.926 -5.782,2.467 0,0 1.195,-2.743 2.933,-6.731 z"
     id="path162"
     inkscape:connector-curvature="0"
     style="clip-rule:evenodd;fill:#52b7a0;fill-rule:evenodd" />
  <path
     d="m 363.9699,205.71835 c -3.345,12.57 -7.627,23.767 -8.518,26.189 -0.327,0.895 -0.7,1.898 -1.1,2.962 -1.196,-1.087 -2.409,-2.191 -3.639,-3.311 2.161,-4.945 4.147,-9.479 5.292,-12.076 4.614,-10.464 9.211,-25.141 8.546,-27.017 -0.356,-1.008 -7.807,13.653 -18.029,23.779 -2.115,2.095 -4.163,4.066 -6.182,5.897 -4.101,3.717 -8.084,6.843 -12.27,9.197 -3.537,1.988 -7.215,3.419 -11.237,4.184 -11.519,2.203 -20.437,-12.717 -24.177,-18.129 -1.805,-2.608 -8.18,-10.96 -12.472,-19.318 -4.383,-8.538 -7.571,-18.062 -7.571,-18.062 l 1.422,-2.946 1.585,-3.272 c 0,0 27.399,22.833 31.263,19.51 0.237,-0.209 0.49,-0.457 0.761,-0.744 3.881,-4.207 10.391,-16.564 14.024,-21.199 6.256,-7.969 13.882,-12.475 13.882,-12.475 l 33.626,5.103 3.329,-3.931 c 2.713,9.963 -4.214,29.405 -8.535,45.659 z"
     id="path164"
     inkscape:connector-curvature="0"
     style="clip-rule:evenodd;fill:#52b7a0;fill-rule:evenodd" />
  <path
     d="m 275.6189,176.21735 c 0,0 -0.71,-3.492 -0.682,-4.354 0.011,-0.422 0.118,-1.582 -0.034,-3.063 -0.197,-1.949 0.039,-3.171 -0.186,-3.222 -0.655,-0.158 -1.298,0.896 -1.399,1.802 -0.102,0.907 -0.288,2.428 -0.756,2.918 -0.925,0.968 -3.706,0.005 -4.067,-0.265 -0.361,-0.27 -4.073,-3.672 -4.445,-3.244 -0.401,0.462 0.259,1.132 -0.282,1.487 -0.565,0.366 0.022,0.811 -0.13,1.284 -0.356,1.098 -0.677,1.312 -0.299,2.168 0.338,0.766 0.462,1.234 1.765,1.994 1.304,0.76 4.147,0.687 5.862,2.298 0.784,0.738 2.301,2.591 2.301,2.591 z"
     id="path166"
     inkscape:connector-curvature="0"
     style="clip-rule:evenodd;fill:#ffcaac;fill-rule:evenodd" />
  <path
     d="m 368.6849,154.01535 c 9.843,12.115 -1.23,34.012 -10.504,43.908 -10.114,10.791 -32.34,34.029 -44.406,32.317 -11.124,-1.583 -30.309,-29.141 -31.093,-30.56 -4.259,-7.682 -8.812,-17.301 -10.944,-21.345 -0.536,-1.014 4.372,-5.745 5.337,-4.872 1.19,1.081 25.824,25.108 30.941,23.891 4.456,-1.064 8.111,-17.121 19.241,-29.686 10.03,-11.321 28.594,-29.45 41.428,-13.653 z"
     id="path168"
     inkscape:connector-curvature="0"
     style="clip-rule:evenodd;fill:#96d9c9;fill-rule:evenodd" />
  <path
     d="m 251.7529,155.98735 c -0.034,0.039 -0.858,-0.766 -1.839,-1.926 -0.999,-1.178 -1.309,-1.651 -1.117,-2.017 0.35,-0.681 1.506,-1.413 1.816,-1.149 0.384,0.333 0.514,0.89 0.948,1.042 0.993,0.355 0.784,1.256 1.749,1.684 1.19,0.53 -0.514,2.135 -0.514,2.135 z"
     id="path170"
     inkscape:connector-curvature="0"
     style="clip-rule:evenodd;fill:#ffcaac;fill-rule:evenodd" />
  <path
     d="m 254.4319,146.66035 c 0.417,0.321 1.325,-0.056 1.574,-0.467 0.299,-0.502 0.18,-0.558 -0.277,-1.014 -0.344,-0.338 -2.002,0.94 -1.297,1.481 z"
     id="path172"
     inkscape:connector-curvature="0"
     style="clip-rule:evenodd;fill:#ffcaac;fill-rule:evenodd" />
  <path
     d="m 322.0509,127.71935 12.676,-5.801 c 0,0 -2.273,8.595 -7.271,10.718 -4.254,1.808 -8.744,1.622 -8.744,1.622 z"
     id="path174"
     inkscape:connector-curvature="0"
     style="clip-rule:evenodd;fill:#eeae8a;fill-rule:evenodd" />
  <path
     d="m 312.5179,101.17535 c 0,0 -2.488,10.133 -1.377,18.434 0.446,3.306 1.777,8.561 3.47,10.566 1.585,1.875 9.725,1.825 12.246,0.918 2.539,-0.912 5.139,-2.315 7.26,-4.54 1.478,-1.548 8.169,-12.041 7.757,-14.812 -0.412,-2.771 -5.517,-9.653 -7.706,-10.965 -2.183,-1.313004 -18.942,-1.718004 -21.65,0.399 z"
     id="path176"
     inkscape:connector-curvature="0"
     style="clip-rule:evenodd;fill:#ffcaac;fill-rule:evenodd" />
  <path
     d="m 328.6449,108.13735 c 0,0 -1.201,-3.526 -4.304,-4.889 -2.803,-1.228 -6.216,-0.777 -9.426,0.698 -1.455,0.671 -3.306,2.428 -3.306,2.428 l 0.085,-1.808 c 0,0 5.235,-7.474004 7.362,-7.789004 2.126,-0.316 6.837,-3.053 9.031,0.788 2.2,3.853004 0.558,10.572004 0.558,10.572004 z"
     id="path178"
     inkscape:connector-curvature="0"
     style="clip-rule:evenodd;fill:#eeae8a;fill-rule:evenodd" />
  <path
     d="m 335.5499,126.32335 c 1.151,1.07 5.934,-6.224 8.478,-10.566 3.898,-6.663 6.629,-14.17 1.992,-18.287004 -3.193,-2.839 -7.65,-1.144 -10.041,-2.766 -2.906,-1.965 -4.902,-8.701 -11.091,-10.458 -5.471,-1.555 -12.246,3.086 -15.496,6.375 -3.536,3.582 -6.301,6.651 -5.765,9.755004 0.942,5.468 7.706,5.221 8.383,4.59 3.153,-2.929 10.656,-4.219 14.176,-1.419 2.324,1.847 2.634,6.927 4.366,7.524 2.426,0.834 2.691,-3.875 5.726,-2.686 1.562,0.608 2.188,1.836 2.019,3.356 -0.209,1.864 -1.867,3.903 -2.595,4.331 -0.694,0.406 -1.309,9.181 -0.152,10.251 z"
     id="path180"
     inkscape:connector-curvature="0"
     style="clip-rule:evenodd;fill:#6d3015;fill-rule:evenodd" />
</svg>
