<svg width="472" height="467" viewBox="0 0 472 467" fill="none" xmlns="http://www.w3.org/2000/svg">
<path d="M238.044 447.939C238.044 447.939 330.345 214.295 467.464 188.773C469.898 188.32 472.115 190.268 471.995 192.746C470.608 221.565 453.044 374.091 238.044 447.939Z" fill="#96D9C9"/>
<path opacity="0.62" d="M442.828 226.669C435.827 236.68 428.489 246.43 421.052 256.105C419.195 258.525 417.297 260.914 415.422 263.319C413.532 265.713 411.681 268.14 409.757 270.507L404.007 277.626C402.081 279.992 400.198 282.393 398.224 284.719C394.307 289.395 390.426 294.104 386.477 298.756L374.508 312.603C366.387 321.709 358.272 330.823 349.902 339.704L343.673 346.41C341.621 348.669 339.446 350.81 337.339 353.016L324.625 366.19L311.583 379.041C309.404 381.177 307.247 383.338 305.027 385.431L298.3 391.641C293.806 395.772 289.359 399.954 284.789 404.001L270.896 415.929L267.408 418.892C266.234 419.867 265.096 420.882 263.896 421.827L256.719 427.511C254.334 429.413 251.915 431.274 249.515 433.156C247.113 435.035 244.706 436.909 242.285 438.765C242.101 438.908 241.835 438.872 241.693 438.687C241.557 438.508 241.585 438.254 241.752 438.11L241.763 438.1C244.076 436.111 246.401 434.143 248.731 432.179C251.063 430.216 253.375 428.234 255.721 426.293L262.739 420.446C265.053 418.467 267.295 416.403 269.591 414.402L283.334 402.368L296.794 390.015L303.529 383.843C304.655 382.819 305.727 381.735 306.83 380.686L310.132 377.529L323.337 364.896C331.926 356.255 340.659 347.747 348.952 338.813C353.141 334.386 357.379 330.005 361.425 325.446C365.506 320.919 369.623 316.424 373.673 311.87L385.684 298.082C389.647 293.45 393.541 288.761 397.473 284.103C399.453 281.784 401.345 279.394 403.277 277.038L409.05 269.945C410.981 267.587 412.84 265.169 414.736 262.785C416.62 260.388 418.526 258.008 420.39 255.597C427.82 245.933 435.148 236.175 442.125 226.19L442.13 226.184C442.264 225.992 442.527 225.946 442.717 226.08C442.917 226.213 442.963 226.477 442.828 226.669Z" fill="white"/>
<g opacity="0.79">
<path opacity="0.79" d="M215.679 313.942C215.679 313.942 260.55 107.624 396.005 0.672264C397.771 -0.723042 400.385 0.159066 400.924 2.3463C409.446 36.8945 453.808 257.251 215.679 313.942Z" fill="#96D9C9"/>
<path opacity="0.62" d="M381.623 60.1917C380.067 66.1779 378.257 72.074 376.347 77.9438C374.434 83.8103 372.423 89.6473 370.288 95.4367C366.004 107.012 361.337 118.447 356.309 129.723C355.062 132.546 353.747 135.338 352.469 138.148C351.182 140.954 349.793 143.712 348.461 146.496C347.137 149.285 345.707 152.021 344.32 154.777L342.219 158.904L340.046 162.992C334.255 173.895 328.156 184.643 321.582 195.097C314.987 205.535 308.134 215.82 300.741 225.713C299.827 226.956 298.928 228.212 297.999 229.443L295.163 233.105L292.328 236.764C291.377 237.979 290.454 239.219 289.457 240.398L283.567 247.545L282.088 249.325L280.556 251.062L277.493 254.533C261.236 273.119 243.039 289.991 223.364 304.846C223.202 304.969 222.971 304.936 222.848 304.774C222.729 304.615 222.757 304.392 222.909 304.267L222.917 304.26L230.061 298.422L233.638 295.513L237.1 292.467L244.016 286.369L250.701 280.02C251.808 278.955 252.948 277.923 254.038 276.841L257.276 273.56C259.425 271.363 261.617 269.209 263.727 266.976C267.875 262.441 272.121 257.997 276.069 253.283L279.08 249.794L280.585 248.05L282.038 246.259L287.864 239.116C288.852 237.938 289.765 236.702 290.708 235.489L293.517 231.834L296.327 228.181C297.248 226.951 298.136 225.697 299.043 224.457C306.366 214.582 313.15 204.316 319.677 193.902C326.238 183.503 332.37 172.834 338.174 161.99L340.355 157.925L342.463 153.821C343.857 151.08 345.292 148.36 346.62 145.586C349.346 140.072 351.978 134.512 354.568 128.931C359.709 117.752 364.487 106.402 368.897 94.9104C371.136 89.1767 373.248 83.3938 375.266 77.5781C376.279 74.6711 377.252 71.7526 378.195 68.8226C379.152 65.8992 380.067 62.9545 380.911 60.0048L380.913 59.9983C380.968 59.8031 381.173 59.69 381.367 59.7458C381.559 59.7999 381.672 59.9983 381.623 60.1917Z" fill="white"/>
</g>
<g opacity="0.76">
<path d="M145.285 302.868C145.285 302.868 127.786 119.845 21.7174 13.3431C20.3347 11.9543 17.9833 12.4462 17.2912 14.2809C6.35898 43.2676 -54.7376 229.179 145.285 302.868Z" fill="#3C8F7C"/>
<path opacity="0.62" d="M28.6894 66.1976C30.5008 76.7501 32.8424 87.2304 35.521 97.6042C38.1571 107.991 41.1238 118.294 44.4226 128.486C46.0916 133.576 47.795 138.653 49.5819 143.702C50.4442 146.237 51.4047 148.737 52.3276 151.251L53.7266 155.015L55.1928 158.753C59.0921 168.726 63.2958 178.581 67.8938 188.247C72.4575 197.927 77.2584 207.504 82.5666 216.797C83.2228 217.963 83.8609 219.139 84.5286 220.298L86.5789 223.747L88.6292 227.197C89.318 228.343 89.9791 229.507 90.7105 230.627L95.0042 237.407L96.0727 239.106L97.192 240.77L99.4321 244.098C102.355 248.583 105.562 252.867 108.676 257.218C110.268 259.368 111.938 261.458 113.567 263.582L116.024 266.754C116.854 267.804 117.733 268.814 118.577 269.85L123.692 276.036L129.031 282.031L131.705 285.026L134.492 287.915L140.054 293.711L140.06 293.718C140.201 293.865 140.196 294.098 140.05 294.239C139.908 294.377 139.682 294.375 139.541 294.239C124.034 279.384 110.022 262.918 97.8678 245.167L95.5737 241.849L94.4266 240.189L93.3303 238.496L88.9711 231.706C88.2299 230.583 87.5606 229.417 86.8636 228.268L84.7871 224.808L82.7106 221.349C82.0332 220.188 81.3868 219.007 80.7225 217.838C75.3472 208.517 70.4808 198.914 65.8533 189.204C61.2488 179.48 57.086 169.553 53.2079 159.522L51.7516 155.761L50.3624 151.975C49.4477 149.447 48.4937 146.933 47.6379 144.384C46.774 141.838 45.8576 139.309 45.0362 136.75C44.2229 134.187 43.377 131.634 42.5915 129.063C36.2852 108.508 31.0474 87.5961 27.9547 66.2976C27.9253 66.0959 28.0644 65.909 28.2656 65.8795C28.4636 65.85 28.6469 65.9844 28.6813 66.1812L28.6894 66.1976Z" fill="white"/>
</g>
<path d="M51.2271 24.2285C49.7086 96.0498 44.7817 343.791 47.133 431.582C47.3818 440.882 53.7421 448.347 61.6766 448.652C100.919 450.158 244.776 453.973 308.962 450.817C322.331 450.159 332.962 437.465 333.24 421.784C334.574 346.398 337.518 134.366 330.522 37.2322C329.685 25.5943 321.893 16.3272 311.978 15.1647C269.243 10.1524 124.766 -2.09706 69.3132 2.12165C59.3121 2.88079 51.4742 12.484 51.2271 24.2285Z" fill="#464E57"/>
<path d="M68.7335 46.2631C66.6211 104.235 59.958 297.09 62.0738 368.403C62.383 378.826 69.3914 387.256 78.2732 387.864C114.845 390.372 239.617 395.904 293.258 390.869C302.917 389.963 310.497 380.805 311.019 369.464C313.737 310.322 321.542 130.746 319.515 60.2309C319.191 48.9816 311.757 39.7949 302.194 38.7881C262.63 34.6235 130.044 24.7154 84.4618 27.6323C75.9055 28.1799 69.1001 36.2271 68.7335 46.2631Z" fill="#90D2FF"/>
<path d="M166.834 16.3665C166.834 18.5702 168.298 20.3885 170.177 20.5033C179.445 21.0722 205.556 22.6823 217.224 23.4759C219.525 23.6333 221.331 21.2083 220.894 18.5554L220.821 18.1029C220.523 16.2928 219.242 14.9302 217.676 14.763C209.789 13.9153 185.987 11.5658 170.218 12.2265C168.323 12.3052 166.834 14.1449 166.834 16.3665Z" fill="#33A8F8"/>
<path d="M185.071 167.85C215.3 167.85 239.805 143.295 239.805 113.005C239.805 82.7149 215.3 58.16 185.071 58.16C154.842 58.16 130.336 82.7149 130.336 113.005C130.336 143.295 154.842 167.85 185.071 167.85Z" fill="#0069AF"/>
<path d="M201.828 92.28C201.828 101.567 194.314 111.593 185.046 111.593C175.778 111.593 168.264 101.567 168.264 92.28C168.264 82.9933 175.778 76.4053 185.046 76.4053C194.314 76.4053 201.828 82.9933 201.828 92.28Z" fill="white"/>
<path d="M164.221 147.348H205.188C209.5 147.348 213.319 144.556 214.633 140.44L216.837 133.536C218.45 128.481 215.827 123.008 210.853 121.186C194.181 115.079 176.942 115.863 159.283 121.75C154.336 123.4 151.591 128.702 152.955 133.744L154.652 140.014C155.824 144.343 159.744 147.348 164.221 147.348Z" fill="white"/>
<g opacity="0.71">
<path opacity="0.65" d="M290.053 255.439H90.2891C89.6787 255.439 89.1846 254.944 89.1846 254.332V225.41C89.1846 224.798 89.6787 224.303 90.2891 224.303H290.053C290.664 224.303 291.158 224.798 291.158 225.41V254.332C291.158 254.944 290.664 255.439 290.053 255.439Z" fill="white"/>
<path opacity="0.65" d="M288.963 306.239H89.1992C88.5889 306.239 88.0947 305.744 88.0947 305.132V276.21C88.0947 275.598 88.5889 275.103 89.1992 275.103H288.963C289.574 275.103 290.068 275.598 290.068 276.21V305.132C290.068 305.744 289.574 306.239 288.963 306.239Z" fill="white"/>
<path opacity="0.65" d="M249.96 366.829H122.21C121.458 366.829 120.847 366.217 120.847 365.463V328.5C120.847 327.746 121.458 327.134 122.21 327.134H249.96C250.713 327.134 251.323 327.746 251.323 328.5V365.463C251.323 366.217 250.713 366.829 249.96 366.829Z" fill="white"/>
</g>
<path opacity="0.75" d="M216.468 248.655H100.095C99.0103 248.655 98.1316 247.774 98.1316 246.687V233.324C98.1316 232.237 99.0103 231.357 100.095 231.357H216.468C217.553 231.357 218.432 232.237 218.432 233.324V246.687C218.43 247.774 217.551 248.655 216.468 248.655Z" fill="white"/>
<g opacity="0.75">
<path opacity="0.75" d="M105.03 296.371C108.647 294.87 110.364 290.716 108.866 287.093C107.368 283.469 103.222 281.749 99.6061 283.25C95.99 284.75 94.2729 288.905 95.7707 292.528C97.2686 296.151 101.414 297.872 105.03 296.371Z" fill="white"/>
<path opacity="0.75" d="M121.754 297.271C125.668 297.271 128.841 294.091 128.841 290.17C128.841 286.248 125.668 283.068 121.754 283.068C117.84 283.068 114.667 286.248 114.667 290.17C114.667 294.091 117.84 297.271 121.754 297.271Z" fill="white"/>
<path opacity="0.75" d="M147.358 292.74C148.258 288.923 145.899 285.098 142.09 284.197C138.281 283.296 134.464 285.659 133.564 289.476C132.665 293.293 135.024 297.117 138.833 298.019C142.642 298.92 146.459 296.556 147.358 292.74Z" fill="white"/>
<path opacity="0.75" d="M159.915 298.546C163.829 298.546 167.002 295.367 167.002 291.445C167.002 287.523 163.829 284.344 159.915 284.344C156.001 284.344 152.828 287.523 152.828 291.445C152.828 295.367 156.001 298.546 159.915 298.546Z" fill="white"/>
<path opacity="0.75" d="M179.358 298.363C183.272 298.363 186.445 295.184 186.445 291.262C186.445 287.34 183.272 284.161 179.358 284.161C175.444 284.161 172.271 287.34 172.271 291.262C172.271 295.184 175.444 298.363 179.358 298.363Z" fill="white"/>
<path opacity="0.75" d="M198.803 298.727C202.717 298.727 205.89 295.547 205.89 291.626C205.89 287.704 202.717 284.524 198.803 284.524C194.889 284.524 191.716 287.704 191.716 291.626C191.716 295.547 194.889 298.727 198.803 298.727Z" fill="white"/>
</g>
<path d="M279.735 314.808L301.448 320.246L296.02 361.038C296.02 361.038 304.162 369.197 306.875 380.074C309.59 390.951 312.092 436.626 312.092 436.626L317.243 439.746L317.87 442.351L302.881 462.545L305.367 446.471C305.761 443.92 305.077 438.746 305.293 438.637C297.151 416.881 279.735 355.596 279.735 355.596V314.808Z" fill="#EEAE8A"/>
<path d="M273.391 442.633C273.627 442.628 273.858 442.648 274.093 442.633C273.044 429.518 268.25 371.795 263.451 350.161C258.023 325.686 271.593 276.736 271.593 276.736L296.02 301.212L282.45 347.442C291.749 361.42 280.933 443.274 281.165 443.238L281.151 443.42L284.692 448.298L284.261 450.943L262.631 463.733L271.141 449.883C272.493 447.685 273.239 445.192 273.391 442.633Z" fill="#FFCAAC"/>
<path d="M300.866 168.186C300.866 168.186 348.424 221.894 300.866 249.432L296.021 245.916C296.021 245.916 319.632 223.262 296.021 195.528L300.866 168.186Z" fill="#FFCAAC"/>
<path d="M261.207 465.737H268.11C269.403 465.737 270.621 465.143 271.409 464.117C273.561 461.315 278.02 455.848 280.152 455.706C283.022 455.514 282.656 465.737 282.656 465.737H284.264L286.301 453.033C286.814 449.838 285.228 446.67 282.363 445.173C282.363 445.173 281.707 450.034 278.149 452.184C274.592 454.335 263.674 462.035 263.674 462.035C263.674 462.035 262.338 461.843 260.868 462.11C258.69 462.505 258.993 465.737 261.207 465.737Z" fill="black"/>
<path d="M302.347 464.95L308.709 462.268C309.9 461.766 310.793 460.744 311.122 459.492C312.022 456.073 314.015 449.302 315.925 448.342C318.496 447.05 322.113 456.616 322.113 456.616L323.596 455.991L320.557 443.489C319.793 440.344 317.105 438.041 313.886 437.773C313.886 437.773 315.162 442.509 312.716 445.873C310.27 449.238 303.186 460.579 303.186 460.579C303.186 460.579 301.88 460.923 300.629 461.738C298.775 462.948 300.306 465.809 302.347 464.95Z" fill="black"/>
<path d="M265.375 235.351C265.375 235.351 266.173 240.253 265.003 253.729C263.834 267.205 258.244 298.845 259.383 329.117C259.383 329.117 275.275 332.827 302.884 331.069C302.884 331.069 314.536 283.806 311.697 265.838C308.858 247.869 293.461 234.98 293.461 234.98L265.375 235.351Z" fill="#175270"/>
<path d="M277.117 145.3L275.175 168.186H293.627L289.039 133.252L277.117 145.3Z" fill="#FFCAAC"/>
<path d="M299.094 165.021C292.726 164.669 278.486 164.018 268.399 164.569C263.087 164.859 258.638 168.678 257.552 173.895L255.091 185.71C254.174 190.111 254.312 194.665 255.49 199.002L265.371 235.351C265.371 235.351 274.162 240.643 293.457 234.98C293.457 234.98 310.403 194.488 303.466 168.586C302.93 166.574 301.171 165.136 299.094 165.021Z" fill="#FFEE92"/>
<path d="M258.035 171.775C255.317 178.95 252.862 186.472 250.224 193.518C248.883 197.045 247.523 200.501 246.068 203.675C245.332 205.256 244.524 206.708 243.782 208.027C243.039 209.33 242.203 210.416 241.766 210.916C241.681 210.99 241.968 211.047 242.063 211.05C242.12 211.057 240.225 211.362 239.644 211.458L237.373 211.445C234.117 211.278 230.428 210.703 226.73 209.983C219.269 208.589 211.513 206.631 203.547 205.151L203.487 205.139C201.963 204.856 200.497 205.864 200.216 207.392C200.029 208.399 200.407 209.383 201.12 210.016C204.332 212.849 207.736 215.175 211.267 217.44C213.044 218.528 214.852 219.596 216.692 220.621C218.567 221.578 220.445 222.542 222.397 223.436C226.328 225.152 230.389 226.733 235.067 227.748C236.296 227.955 237.51 228.169 238.775 228.34C240.194 228.389 241.482 228.515 243.031 228.425C243.854 228.343 244.681 228.241 245.505 228.122C245.945 228.045 246.268 228.037 246.801 227.889C247.366 227.718 247.93 227.528 248.487 227.32C249.648 226.902 250.4 226.397 251.344 225.871C252.127 225.352 252.843 224.811 253.535 224.257C256.092 222.075 257.68 219.907 259.08 217.828C260.476 215.751 261.582 213.669 262.575 211.627C264.568 207.551 266.123 203.513 267.386 199.447C269.944 191.298 271.676 183.288 272.408 174.782C272.758 170.708 269.746 167.12 265.679 166.769C262.314 166.479 259.281 168.496 258.138 171.511L258.035 171.775Z" fill="#FFCAAC"/>
<path d="M206.053 208.809L202.761 200.976L185.429 196.649C185.429 196.649 184.043 199.66 191.321 200.976C191.321 200.976 188.721 203.856 190.109 207.243C191.495 210.629 206.226 214.021 206.053 208.809Z" fill="#FFCAAC"/>
<path d="M276.606 151.87C282.749 149.379 289.623 134.826 289.623 134.826C288.4 134.681 287.103 134.923 285.795 135.456C282.41 136.815 278.958 141.004 276.606 144.277C277.413 147.676 276.606 149.972 276.606 151.87Z" fill="#EEAE8A"/>
<path d="M269.304 118.871C268.644 119.26 263.454 137.609 267.803 145.3C272.154 152.993 285.439 144.377 289.039 133.252C292.641 122.129 286.856 108.499 269.304 118.871Z" fill="#FFCAAC"/>
<path d="M303.736 133.252C306.716 147.881 316.589 143.879 323.583 150.386C334.918 160.936 351.13 150.06 366.893 160.057C378.272 167.274 383.755 185.736 378.295 200.644C370.732 221.289 344.884 229.779 331.49 223.491C318.689 217.482 320.512 199.483 303.286 192.526C295.973 189.573 292.364 191.491 287.985 187.115C280.319 179.453 282.387 164.584 283.184 158.855C284.914 146.425 289.071 144.175 287.085 138.712C283.218 128.088 265.185 130.28 263.683 122.779C262.315 115.948 275.385 103 287.686 105.041C306.716 108.199 302.407 126.735 303.736 133.252Z" fill="#2A2C33"/>
<path d="M351.612 72.8083C351.612 47.0616 373.378 26.1926 399.497 26.1959C424.845 26.1992 444.849 45.9696 444.849 70.3538C444.849 94.7381 424.845 115.561 399.497 116.899C373.377 118.278 351.612 98.5535 351.612 72.8083Z" fill="#F66819"/>
<path d="M355.982 72.6938C355.982 49.3605 375.708 30.4476 399.381 30.4493C422.353 30.4526 440.483 48.3702 440.483 70.4688C440.483 92.5674 422.353 111.439 399.381 112.653C375.708 113.902 355.982 96.027 355.982 72.6938Z" fill="url(#paint0_linear_1185_58670)"/>
<path d="M385.321 70.0473H381.431V54.517C381.431 48.4176 385.988 43.2627 392.031 42.5265L399.984 41.5575C403.407 41.141 406.85 42.215 409.43 44.5071C412.011 46.7977 413.491 50.0933 413.491 53.5479V67.1059H409.602V53.5479C409.602 51.2082 408.599 48.9751 406.851 47.424C405.104 45.8729 402.77 45.1433 400.452 45.427L392.499 46.396C388.405 46.8944 385.319 50.3868 385.319 54.517V70.0473H385.321Z" fill="white"/>
<path d="M380.28 66.5598L414.373 64.6677C415.757 64.5907 416.922 65.6958 416.922 67.0845V94.1479C416.922 95.4842 415.841 96.5679 414.507 96.5679H381.234C379.93 96.5679 378.862 95.5317 378.819 94.2266L377.999 69.057C377.957 67.742 378.97 66.6336 380.28 66.5598Z" fill="white"/>
<path d="M403.019 88.8159L400.956 82.8707C400.707 82.1558 400.877 81.3573 401.407 80.8179C402.464 79.7439 403.094 78.247 403.021 76.6024C402.89 73.702 400.525 71.3524 397.631 71.2409C394.427 71.118 391.791 73.684 391.791 76.8664C391.791 78.6323 392.602 80.2063 393.872 81.2393C394.53 81.7738 394.801 82.6542 394.523 83.456L392.663 88.8159C392.21 90.1194 393.177 91.4802 394.553 91.4802H401.129C402.505 91.4802 403.472 90.1194 403.019 88.8159Z" fill="url(#paint1_linear_1185_58670)"/>
<g opacity="0.3">
<path opacity="0.3" d="M117.275 416.243C117.682 417.132 117.414 418.23 116.626 418.771C114.903 419.956 113.107 421.077 111.288 422.103C110.403 422.602 109.311 422.227 108.85 421.265C108.845 421.253 108.839 421.241 108.834 421.23C108.397 420.274 108.742 419.11 109.615 418.617C111.343 417.641 113.049 416.576 114.686 415.449C115.527 414.87 116.645 415.143 117.181 416.06C117.216 416.121 117.247 416.181 117.275 416.243ZM103.131 423.715C103.161 423.784 103.191 423.856 103.215 423.93C103.551 424.951 103.063 426.074 102.123 426.437C100.193 427.184 98.2138 427.847 96.2432 428.411C95.2789 428.687 94.2936 428.063 94.0331 427.01C93.7775 425.96 94.3534 424.887 95.3161 424.613C97.1913 424.077 99.0697 423.446 100.904 422.738C101.775 422.4 102.728 422.835 103.131 423.715ZM87.817 427.613C87.906 427.808 87.9675 428.024 87.9934 428.254C88.1115 429.33 87.406 430.306 86.4143 430.433C84.3838 430.693 82.316 430.86 80.271 430.93C79.2727 430.964 78.4395 430.112 78.4039 429.029C78.3699 427.946 79.1513 427.038 80.1496 427.005C82.0928 426.94 84.0553 426.781 85.9839 426.533C86.7621 426.434 87.4853 426.889 87.817 427.613ZM72.0729 427.689C72.2217 428.013 72.2881 428.386 72.2509 428.771C72.1457 429.849 71.2558 430.627 70.2624 430.51C68.2271 430.269 66.1755 429.931 64.1677 429.502C63.1888 429.293 62.5481 428.262 62.7374 427.197C62.9267 426.133 63.8748 425.44 64.8553 425.649C66.7628 426.056 68.7108 426.379 70.6443 426.606C71.2833 426.682 71.8075 427.109 72.0729 427.689ZM56.7009 423.95C56.908 424.403 56.9549 424.944 56.7931 425.461C56.4695 426.488 55.4422 427.032 54.4989 426.678C52.5671 425.955 50.6353 425.132 48.7601 424.231C47.846 423.792 47.4302 422.634 47.833 421.641C48.2343 420.65 49.3005 420.202 50.2146 420.64C51.9976 421.497 53.8323 422.279 55.6687 422.967C56.1362 423.14 56.4971 423.503 56.7009 423.95ZM42.4663 416.61C42.7349 417.197 42.7284 417.919 42.3871 418.516C41.8629 419.438 40.7497 419.721 39.9003 419.151C38.1594 417.979 36.4428 416.712 34.799 415.384C33.9965 414.736 33.8282 413.506 34.4236 412.635C35.0174 411.767 36.1499 411.586 36.9508 412.234C38.5137 413.496 40.143 414.699 41.7981 415.813C42.0958 416.014 42.3207 416.293 42.4663 416.61ZM9.11103 354.19C9.22267 354.435 9.289 354.706 9.29871 354.996C9.36666 357.105 9.52198 359.237 9.75658 361.338C9.87793 362.415 9.17251 363.392 8.18233 363.521C7.19216 363.65 6.29097 362.882 6.16962 361.805C5.92046 359.594 5.75867 357.346 5.68586 355.126C5.65027 354.041 6.43011 353.134 7.42838 353.099C8.15968 353.072 8.80362 353.523 9.11103 354.19ZM30.0827 406.035C30.416 406.765 30.3076 407.674 29.7526 408.286C29.0521 409.058 27.9082 409.065 27.1979 408.303C25.7385 406.741 24.3244 405.091 22.9945 403.4C22.349 402.572 22.4331 401.336 23.1919 400.631C23.9507 399.928 25.0914 400.027 25.7401 400.852C27.0038 402.459 28.345 404.026 29.7316 405.509C29.8788 405.668 29.9953 405.846 30.0827 406.035ZM11.436 371.114C11.4894 371.23 11.5331 371.354 11.5654 371.484C12.067 373.525 12.6559 375.569 13.316 377.561C13.6542 378.582 13.1672 379.707 12.2288 380.072C11.2904 380.437 10.2501 379.908 9.91676 378.885C9.22266 376.789 8.603 374.638 8.07393 372.49C7.81668 371.442 8.38943 370.366 9.35372 370.09C10.1967 369.845 11.0606 370.296 11.436 371.114ZM20.1761 392.725C20.5822 393.614 20.3152 394.709 19.5305 395.251C18.6892 395.832 17.5728 395.561 17.034 394.647C15.9355 392.772 14.8951 390.822 13.9438 388.847C13.9373 388.835 13.9325 388.822 13.926 388.81C13.4892 387.856 13.8322 386.694 14.7042 386.198C15.5892 385.698 16.6797 386.07 17.1441 387.032C18.0469 388.907 19.0354 390.76 20.0806 392.541C20.1162 392.603 20.1486 392.663 20.1761 392.725Z" fill="#999EA5"/>
<path opacity="0.3" d="M9.29374 340.99C9.44485 341.364 9.50807 341.795 9.45565 342.239C9.32612 343.319 9.21355 344.42 9.11949 345.513C9.01926 346.675 8.17115 347.517 7.2259 347.39C6.28064 347.266 5.59291 346.22 5.69468 345.058C5.79337 343.909 5.9121 342.75 6.0478 341.615C6.18658 340.458 7.0609 339.66 8.00153 339.833C8.58133 339.939 9.0501 340.389 9.29374 340.99Z" fill="#DFE2E6"/>
</g>
<g opacity="0.3">
<path opacity="0.3" d="M37.7104 291.526C38.0824 292.359 37.8685 293.393 37.1664 293.95C36.4411 294.526 35.7126 295.129 35.0043 295.742C34.2495 296.394 33.163 296.242 32.5741 295.4C31.9836 294.555 32.1215 293.347 32.8748 292.695C33.6203 292.051 34.3859 291.414 35.15 290.808C35.9281 290.192 37.0083 290.394 37.5647 291.262C37.6236 291.347 37.6701 291.436 37.7104 291.526Z" fill="#999EA5"/>
<path opacity="0.3" d="M142.112 319.769C142.48 320.561 142.837 321.361 143.182 322.172C143.594 323.137 143.197 324.274 142.295 324.712C141.394 325.151 140.323 324.719 139.917 323.757C139.12 321.887 138.252 320.055 137.33 318.293C136.846 317.366 137.153 316.2 138.017 315.683C138.882 315.166 139.976 315.5 140.462 316.424C141.03 317.515 141.586 318.64 142.112 319.769ZM146.518 331.662C146.563 331.758 146.6 331.859 146.631 331.966C147.208 334.017 147.711 336.118 148.125 338.208C148.331 339.245 147.711 340.263 146.742 340.479C145.771 340.696 144.817 340.03 144.614 338.993C144.22 337.007 143.743 335.013 143.195 333.063C142.909 332.048 143.447 330.979 144.395 330.677C145.244 330.405 146.136 330.839 146.518 331.662ZM135.282 307.966C135.66 308.778 135.457 309.784 134.758 310.348C133.968 310.986 132.843 310.816 132.243 309.97C131.099 308.351 129.875 306.763 128.602 305.248C127.94 304.458 127.999 303.245 128.735 302.539C129.473 301.832 130.607 301.899 131.271 302.689C132.61 304.284 133.9 305.958 135.105 307.664C135.175 307.759 135.232 307.86 135.282 307.966ZM149.306 347.851C149.408 348.069 149.472 348.313 149.49 348.569C149.631 350.703 149.691 352.87 149.663 355.006C149.65 356.066 148.836 356.911 147.844 356.894C146.853 356.878 146.06 356.006 146.073 354.946C146.099 352.916 146.043 350.86 145.908 348.833C145.837 347.776 146.583 346.86 147.571 346.786C148.318 346.732 148.992 347.176 149.306 347.851ZM124.7 296.01C125.009 296.676 124.941 297.5 124.465 298.102C123.826 298.911 122.693 299.01 121.936 298.325C120.488 297.015 118.966 295.752 117.416 294.571C116.607 293.956 116.416 292.758 116.99 291.894C117.563 291.032 118.683 290.831 119.492 291.446C121.126 292.689 122.727 294.018 124.252 295.398C124.445 295.573 124.596 295.781 124.7 296.01ZM111.928 286.818C112.175 287.35 112.19 287.996 111.913 288.562C111.455 289.501 110.37 289.863 109.491 289.37C107.806 288.426 106.064 287.548 104.314 286.758C103.399 286.347 102.969 285.222 103.353 284.244C103.737 283.267 104.788 282.811 105.702 283.223C107.544 284.054 109.377 284.98 111.151 285.973C111.5 286.167 111.764 286.468 111.928 286.818ZM97.59 280.82C97.778 281.224 97.8343 281.7 97.717 282.171C97.4615 283.193 96.478 283.8 95.5202 283.524C93.6818 282.994 91.8032 282.541 89.9359 282.178C88.9604 281.988 88.3112 280.99 88.4864 279.946C88.6615 278.904 89.5936 278.212 90.5706 278.402C92.536 278.785 94.5126 279.261 96.4474 279.819C96.9633 279.966 97.3683 280.342 97.59 280.82ZM82.3781 278.302C82.5083 278.582 82.5758 278.901 82.563 279.235C82.5228 280.293 81.6871 281.114 80.6972 281.069C78.7977 280.98 76.8726 280.979 74.9763 281.062C73.9864 281.106 73.1475 280.282 73.1041 279.225C73.0608 278.167 73.8289 277.272 74.8188 277.228C76.8163 277.139 78.8428 277.141 80.8435 277.234C81.5216 277.267 82.0969 277.695 82.3781 278.302ZM67.0233 279.416C67.0972 279.573 67.1502 279.745 67.1807 279.927C67.3591 280.969 66.7147 281.968 65.7393 282.156C63.8735 282.518 61.9982 282.969 60.163 283.498C59.2068 283.774 58.2201 283.164 57.9598 282.145C57.6994 281.122 58.2635 280.069 59.2197 279.793C61.1513 279.235 63.1247 278.76 65.09 278.381C65.8968 278.224 66.6762 278.669 67.0233 279.416ZM52.2903 284.106C52.3064 284.142 52.3224 284.178 52.3369 284.214C52.7242 285.191 52.2967 286.316 51.3855 286.727C50.0967 287.308 48.8111 287.937 47.5609 288.6C47.1077 288.839 46.6594 289.084 46.2142 289.333C45.3368 289.823 44.2505 289.459 43.7909 288.52C43.3072 287.577 43.6671 286.421 44.5445 285.93C45.0138 285.668 45.4846 285.412 45.9619 285.158C47.2764 284.461 48.6311 283.799 49.9858 283.189C50.8633 282.794 51.8709 283.205 52.2903 284.106Z" fill="#999EA5"/>
<path opacity="0.3" d="M147.601 363.772C147.749 364.151 147.81 364.589 147.756 365.036C147.62 366.174 147.463 367.328 147.289 368.469C147.113 369.621 146.238 370.37 145.335 370.142C144.432 369.916 143.841 368.8 144.017 367.648C144.183 366.565 144.332 365.467 144.46 364.39C144.598 363.231 145.448 362.436 146.359 362.615C146.916 362.724 147.366 363.174 147.601 363.772Z" fill="#E4E8ED"/>
</g>
<path d="M127.859 371.35C128.01 371 127.933 370.589 127.668 370.325L120.108 362.796C121.046 357.785 121.232 352.579 120.579 347.364L128.573 340.4C128.853 340.156 128.956 339.751 128.826 339.392L124.423 327.103C124.294 326.744 123.963 326.51 123.6 326.519L113.216 326.808C110.433 322.435 107.024 318.646 103.172 315.526L104.133 304.634C104.167 304.252 103.966 303.89 103.634 303.731L92.2712 298.297C91.939 298.138 91.5479 298.218 91.2976 298.497L84.1616 306.434C79.3983 305.436 74.4517 305.227 69.497 305.901L62.8601 297.472C62.6278 297.177 62.2432 297.069 61.9012 297.203L50.2343 301.807C49.894 301.942 49.6714 302.289 49.6829 302.673L49.9823 313.603C45.8343 316.521 42.2426 320.099 39.2874 324.145L28.9361 323.109C28.5728 323.073 28.2292 323.283 28.0787 323.632L22.9423 335.577C22.7918 335.926 22.8687 336.337 23.1337 336.601L30.6935 344.13C29.7559 349.141 29.5694 354.347 30.2222 359.562L22.2289 366.527C21.9491 366.772 21.846 367.177 21.9752 367.536L26.3786 379.825C26.5078 380.184 26.8384 380.418 27.2016 380.408L37.5856 380.12C40.369 384.493 43.7774 388.282 47.6277 391.402L46.6672 402.294C46.6328 402.676 46.8341 403.038 47.1662 403.197L58.5288 408.631C58.861 408.79 59.252 408.71 59.5024 408.431L66.6383 400.494C71.4016 401.492 76.3499 401.7 81.303 401.026L87.9398 409.456C88.1722 409.751 88.5584 409.859 88.8987 409.725L100.566 405.121C100.906 404.986 101.129 404.639 101.119 404.255L100.819 393.325C104.967 390.407 108.559 386.829 111.514 382.783L121.865 383.819C122.229 383.855 122.572 383.645 122.723 383.296L127.859 371.35Z" fill="url(#paint2_linear_1185_58670)"/>
<path opacity="0.7" d="M86.6258 347.621C89.3487 353.385 87.7222 360.54 82.5612 364.308C76.8882 368.449 69.0617 366.954 65.1133 360.974C63.1988 358.077 62.4723 354.573 63.0613 351.107C63.652 347.641 65.4896 344.626 68.237 342.621C73.9101 338.479 81.7366 339.974 85.685 345.954C86.0417 346.492 86.3559 347.051 86.6258 347.621ZM66.7856 357.931C66.995 358.376 67.2372 358.808 67.5121 359.223C70.5393 363.808 76.5413 364.954 80.8906 361.779C85.2399 358.603 86.3166 352.291 83.2878 347.707C80.2606 343.122 74.2586 341.976 69.9093 345.15C67.8017 346.688 66.3929 349 65.9396 351.658C65.5714 353.817 65.8725 355.998 66.7856 357.931Z" fill="white"/>
<path opacity="0.7" d="M102.717 338.931C103.185 339.922 103.607 340.942 103.983 341.989C104.101 342.319 104.214 342.652 104.324 342.984C104.857 344.631 105.265 346.318 105.541 348.021C105.544 348.044 105.549 348.067 105.553 348.09C105.562 348.156 105.574 348.221 105.584 348.289C105.603 348.417 105.623 348.546 105.641 348.674C105.688 349.012 105.52 349.331 105.245 349.476C105.178 349.51 105.104 349.535 105.026 349.548C104.626 349.61 104.255 349.318 104.194 348.899C103.887 346.736 103.357 344.593 102.615 342.529C98.9436 332.276 90.6229 325.262 81.1241 323.142C75.8421 321.963 70.1952 322.299 64.7823 324.436C63.8332 324.809 62.9087 325.232 62.012 325.7C55.9822 328.845 51.2075 334.034 48.3963 340.574C45.1662 348.087 44.9126 356.48 47.6812 364.208C53.4018 380.168 70.3703 388.277 85.5144 382.299C86.4487 381.93 87.3601 381.514 88.2486 381.051C92.0956 379.046 95.4795 376.175 98.15 372.634C98.2187 372.542 98.3038 372.471 98.397 372.424C98.6425 372.296 98.9468 372.319 99.1759 372.511C99.4917 372.776 99.5474 373.258 99.2954 373.591C96.4924 377.31 92.9383 380.323 88.9015 382.429C87.9705 382.914 87.0116 383.352 86.0314 383.739C70.1314 390.015 52.3136 381.489 46.3133 364.745C43.4055 356.633 43.6739 347.821 47.0643 339.935C50.0162 333.068 55.0283 327.62 61.3591 324.319C62.3 323.829 63.2704 323.386 64.2669 322.993C71.969 319.953 80.342 320.255 87.8445 323.842C94.375 326.969 99.5654 332.26 102.717 338.931Z" fill="white"/>
<g opacity="0.3">
<path opacity="0.3" d="M186.719 452.012C186.937 452.473 186.852 453.045 186.475 453.412C185.773 454.096 185.04 454.766 184.299 455.406C183.818 455.821 183.106 455.745 182.71 455.237C182.313 454.73 182.385 453.981 182.866 453.566C183.573 452.958 184.27 452.319 184.94 451.666C185.397 451.222 186.11 451.253 186.536 451.733C186.611 451.818 186.672 451.914 186.719 452.012Z" fill="url(#paint3_linear_1185_58670)"/>
<path opacity="0.3" d="M179.838 457.565C180.093 458.105 179.923 458.77 179.43 459.096C178.036 460.021 176.58 460.879 175.104 461.649C174.793 461.812 174.479 461.971 174.163 462.126C173.598 462.405 172.932 462.107 172.659 461.556C172.392 460.962 172.635 460.254 173.197 459.975C173.5 459.826 173.8 459.675 174.096 459.519C175.505 458.785 176.892 457.967 178.223 457.085C178.749 456.735 179.446 456.903 179.78 457.459C179.802 457.493 179.821 457.529 179.838 457.565ZM169.238 462.799C169.262 462.85 169.283 462.902 169.3 462.956C169.494 463.581 169.174 464.251 168.581 464.455C166.682 465.111 164.728 465.647 162.772 466.05C162.16 466.176 161.567 465.753 161.445 465.112C161.324 464.468 161.72 463.845 162.332 463.719C164.198 463.333 166.063 462.822 167.874 462.195C168.413 462.012 168.99 462.277 169.238 462.799ZM157.741 465.168C157.805 465.302 157.844 465.453 157.855 465.612C157.9 466.266 157.432 466.834 156.81 466.88C154.818 467.024 152.794 467.039 150.798 466.922C150.175 466.886 149.698 466.327 149.731 465.67C149.764 465.015 150.296 464.514 150.917 464.55C152.822 464.66 154.75 464.647 156.649 464.509C157.121 464.476 157.543 464.75 157.741 465.168ZM146.036 464.491C146.141 464.71 146.18 464.968 146.138 465.227C146.028 465.873 145.442 466.303 144.829 466.185C142.859 465.811 140.895 465.304 138.989 464.679C138.393 464.484 138.061 463.817 138.244 463.192C138.427 462.566 139.059 462.217 139.656 462.412C141.473 463.007 143.348 463.491 145.225 463.848C145.59 463.917 145.882 464.165 146.036 464.491ZM134.837 460.825C134.983 461.133 135.001 461.503 134.857 461.841C134.602 462.438 133.934 462.704 133.365 462.435C131.542 461.567 129.753 460.575 128.047 459.483C127.512 459.142 127.343 458.411 127.665 457.85C127.988 457.29 128.683 457.113 129.215 457.454C130.843 458.495 132.55 459.442 134.289 460.269C134.538 460.387 134.726 460.587 134.837 460.825ZM124.818 454.412C125.006 454.811 124.974 455.306 124.694 455.678C124.308 456.191 123.599 456.278 123.108 455.871C121.539 454.565 120.034 453.145 118.631 451.646C118.194 451.176 118.199 450.426 118.641 449.965C119.085 449.506 119.8 449.513 120.237 449.98C121.573 451.408 123.008 452.763 124.504 454.007C124.643 454.12 124.746 454.26 124.818 454.412ZM116.589 445.622C116.825 446.121 116.7 446.74 116.267 447.091C115.773 447.49 115.064 447.39 114.683 446.868C113.47 445.202 112.34 443.437 111.324 441.617C111.016 441.043 111.188 440.321 111.724 439.992C112.261 439.661 112.953 439.851 113.269 440.416C114.238 442.153 115.315 443.838 116.471 445.425C116.519 445.488 116.556 445.553 116.589 445.622ZM108.651 429.157C108.681 429.218 108.705 429.283 108.723 429.352C109.188 431.015 109.746 432.681 110.386 434.302C110.481 434.548 110.577 434.789 110.677 435.029C110.926 435.632 110.664 436.331 110.091 436.59C109.519 436.85 108.836 436.576 108.606 435.97C108.501 435.714 108.398 435.46 108.298 435.201C107.632 433.506 107.045 431.761 106.559 430.016C106.384 429.387 106.724 428.728 107.323 428.544C107.856 428.382 108.413 428.651 108.651 429.157Z" fill="#999EA5"/>
</g>
<g opacity="0.3">
<path opacity="0.3" d="M196.681 392.307C196.956 392.887 196.737 393.594 196.187 393.891C195.633 394.189 194.952 393.958 194.667 393.374C193.81 391.615 192.843 389.897 191.792 388.265C191.448 387.721 191.576 386.983 192.093 386.616C192.61 386.249 193.311 386.393 193.661 386.936C194.76 388.647 195.775 390.448 196.675 392.292C196.675 392.294 196.68 392.304 196.681 392.307ZM199.008 397.875C199.026 397.914 199.043 397.952 199.057 397.993C199.741 399.934 200.319 401.938 200.775 403.95C200.919 404.589 200.546 405.229 199.941 405.38C199.334 405.532 198.725 405.132 198.58 404.498C198.144 402.578 197.593 400.666 196.942 398.813C196.724 398.198 197.023 397.514 197.608 397.288C198.152 397.078 198.755 397.339 199.008 397.875ZM190.211 382.255C190.434 382.727 190.337 383.314 189.943 383.678C189.475 384.107 188.762 384.057 188.351 383.561C187.114 382.071 185.78 380.648 184.388 379.331C183.925 378.888 183.884 378.141 184.301 377.654C184.717 377.167 185.43 377.128 185.895 377.565C187.354 378.946 188.752 380.438 190.049 382C190.115 382.079 190.169 382.164 190.211 382.255ZM201.684 409.688C201.741 409.81 201.778 409.943 201.795 410.085C202.016 412.143 202.117 414.234 202.096 416.301C202.089 416.957 201.579 417.482 200.955 417.473C200.334 417.464 199.833 416.926 199.839 416.27C199.859 414.297 199.761 412.304 199.551 410.343C199.483 409.69 199.928 409.103 200.546 409.033C201.031 408.977 201.477 409.252 201.684 409.688ZM181.627 374.14C181.806 374.517 181.788 374.981 181.544 375.35C181.187 375.888 180.484 376.018 179.971 375.642C178.435 374.511 176.818 373.465 175.162 372.537C174.611 372.228 174.401 371.507 174.694 370.928C174.987 370.349 175.67 370.13 176.221 370.44C177.957 371.414 179.652 372.509 181.264 373.694C181.424 373.814 181.546 373.968 181.627 374.14ZM171.449 368.426C171.585 368.715 171.611 369.059 171.494 369.382C171.269 369.994 170.617 370.299 170.036 370.061C168.283 369.348 166.475 368.739 164.66 368.252C164.055 368.09 163.688 367.442 163.842 366.808C163.994 366.172 164.608 365.788 165.212 365.95C167.113 366.46 169.01 367.096 170.846 367.844C171.119 367.957 171.328 368.169 171.449 368.426ZM160.269 365.437C160.365 365.64 160.406 365.873 160.377 366.114C160.3 366.765 159.733 367.224 159.115 367.141C157.253 366.888 155.36 366.754 153.488 366.742C152.866 366.737 152.36 366.203 152.364 365.547C152.365 364.891 152.872 364.362 153.496 364.366C155.458 364.38 157.443 364.519 159.396 364.783C159.787 364.837 160.107 365.093 160.269 365.437Z" fill="#999EA5"/>
<path opacity="0.3" d="M201.559 421.877C201.655 422.082 201.698 422.32 201.667 422.564C201.539 423.571 201.382 424.58 201.2 425.56C201.081 426.203 200.489 426.622 199.877 426.496C199.266 426.368 198.865 425.745 198.983 425.101C199.157 424.166 199.306 423.204 199.428 422.243C199.512 421.592 200.08 421.138 200.696 421.227C201.084 421.282 201.398 421.536 201.559 421.877Z" fill="#999EA5"/>
</g>
<path d="M188.09 427.796C188.19 427.563 188.139 427.288 187.961 427.111L182.903 422.072C183.531 418.719 183.654 415.235 183.219 411.746L188.568 407.086C188.756 406.922 188.823 406.652 188.738 406.413L185.791 398.19C185.704 397.949 185.483 397.793 185.24 397.8L178.29 397.993C176.428 395.066 174.147 392.532 171.57 390.444L172.213 383.156C172.236 382.901 172.102 382.658 171.879 382.551L164.275 378.915C164.053 378.808 163.791 378.862 163.624 379.047L158.849 384.36C155.662 383.691 152.351 383.553 149.036 384.002L144.595 378.362C144.44 378.164 144.181 378.092 143.954 378.182L136.147 381.263C135.92 381.353 135.771 381.586 135.777 381.841L135.977 389.156C133.2 391.108 130.798 393.502 128.82 396.209L121.893 395.516C121.651 395.491 121.42 395.632 121.32 395.865L117.884 403.858C117.784 404.091 117.835 404.366 118.012 404.543L123.071 409.582C122.443 412.935 122.32 416.419 122.755 419.908L117.406 424.568C117.218 424.732 117.151 425.002 117.236 425.242L120.183 433.464C120.27 433.705 120.491 433.861 120.735 433.855L127.684 433.661C129.546 436.588 131.827 439.123 134.404 441.21L133.761 448.498C133.738 448.754 133.873 448.996 134.095 449.103L141.699 452.74C141.922 452.846 142.183 452.792 142.35 452.607L147.125 447.294C150.313 447.963 153.623 448.101 156.938 447.652L161.379 453.292C161.534 453.491 161.793 453.563 162.02 453.473L169.827 450.392C170.055 450.302 170.204 450.069 170.197 449.813L169.997 442.499C172.774 440.546 175.176 438.152 177.155 435.445L184.081 436.139C184.323 436.163 184.554 436.022 184.655 435.789L188.09 427.796Z" fill="url(#paint4_linear_1185_58670)"/>
<path opacity="0.7" d="M160.64 411.861C161.451 413.579 161.718 415.516 161.391 417.436C160.988 419.797 159.737 421.849 157.865 423.217C154.003 426.037 148.672 425.019 145.98 420.948C143.293 416.863 144.246 411.266 148.109 408.444C149.981 407.077 152.247 406.56 154.492 406.99C156.737 407.418 158.691 408.741 159.995 410.715C160.237 411.082 160.453 411.466 160.64 411.861ZM147.363 418.757C147.499 419.044 147.654 419.323 147.832 419.593C149.812 422.589 153.733 423.338 156.575 421.262C157.951 420.257 158.874 418.747 159.169 417.011C159.465 415.273 159.098 413.519 158.141 412.066C157.182 410.615 155.746 409.641 154.095 409.326C152.442 409.011 150.774 409.39 149.398 410.397C146.813 412.282 145.998 415.868 147.363 418.757Z" fill="white"/>
<path opacity="0.7" d="M171.849 405.827C172.166 406.501 172.456 407.196 172.713 407.914C173.225 409.341 173.598 410.823 173.826 412.323C173.835 412.39 173.845 412.458 173.855 412.527C173.93 413.05 173.668 413.541 173.243 413.764C173.14 413.819 173.025 413.856 172.906 413.874C172.289 413.969 171.718 413.52 171.623 412.872C171.423 411.469 171.08 410.082 170.602 408.749C170.576 408.675 170.548 408.603 170.522 408.531C169.363 405.388 167.503 402.664 165.122 400.539C163.829 399.385 162.381 398.408 160.805 397.636C160.792 397.629 160.779 397.623 160.768 397.618C160.728 397.6 160.689 397.58 160.65 397.56C156.024 395.348 150.86 395.161 146.111 397.037C145.496 397.28 144.899 397.552 144.318 397.855C140.414 399.892 137.324 403.251 135.503 407.485C133.412 412.348 133.248 417.781 135.042 422.784C136.835 427.783 140.369 431.761 144.994 433.973C149.62 436.184 154.784 436.371 159.532 434.496C160.136 434.258 160.727 433.987 161.301 433.687C163.792 432.389 165.983 430.531 167.711 428.237C167.817 428.096 167.948 427.986 168.092 427.913C168.471 427.716 168.941 427.752 169.296 428.047C169.784 428.457 169.867 429.203 169.479 429.716C167.545 432.28 165.094 434.361 162.309 435.814C161.666 436.15 161.005 436.452 160.329 436.719C155.014 438.816 149.238 438.608 144.063 436.134C138.889 433.658 134.93 429.218 132.928 423.617C130.921 418.019 131.105 411.941 133.446 406.499C135.482 401.762 138.941 398.003 143.308 395.725C143.956 395.388 144.626 395.081 145.313 394.811C155.599 390.751 167.05 395.67 171.849 405.827Z" fill="white"/>
<defs>
<linearGradient id="paint0_linear_1185_58670" x1="398.233" y1="30.4493" x2="398.233" y2="112.714" gradientUnits="userSpaceOnUse">
<stop stop-color="#F99E6C"/>
<stop offset="1" stop-color="#EF712B"/>
</linearGradient>
<linearGradient id="paint1_linear_1185_58670" x1="397.461" y1="71.2367" x2="397.461" y2="91.4802" gradientUnits="userSpaceOnUse">
<stop stop-color="#F99E6C"/>
<stop offset="1" stop-color="#EF712B"/>
</linearGradient>
<linearGradient id="paint2_linear_1185_58670" x1="75.4008" y1="297.146" x2="75.4008" y2="409.782" gradientUnits="userSpaceOnUse">
<stop stop-color="#F99E6C"/>
<stop offset="1" stop-color="#EF712B"/>
</linearGradient>
<linearGradient id="paint3_linear_1185_58670" x1="185.344" y1="454.925" x2="183.941" y2="452.102" gradientUnits="userSpaceOnUse">
<stop stop-color="#FF928E"/>
<stop offset="1" stop-color="#FE7062"/>
</linearGradient>
<linearGradient id="paint4_linear_1185_58670" x1="152.987" y1="378.143" x2="152.987" y2="453.511" gradientUnits="userSpaceOnUse">
<stop stop-color="#F99E6C"/>
<stop offset="1" stop-color="#EF712B"/>
</linearGradient>
</defs>
</svg>
