<svg width="60" height="60" viewBox="0 0 60 60" fill="none" xmlns="http://www.w3.org/2000/svg">
<g clip-path="url(#clip0_852_22672)">
<path d="M23.5566 49.7383V53.5568C23.5566 57.1096 26.4471 60.0001 29.9999 60.0001C33.5528 60.0001 36.4432 57.1096 36.4432 53.5568V49.7383H23.5566Z" fill="#DFE2E6"/>
<path d="M36.4433 53.5566V49.738H30V59.9997C33.5529 59.9999 36.4433 57.1094 36.4433 53.5566Z" fill="#E4E8ED"/>
<path d="M29.9995 8.36182L29.8721 8.36228C25.2101 8.3951 20.8135 10.2387 17.4923 13.5534C14.171 16.8681 12.3188 21.2611 12.2771 25.923C12.2325 30.8998 14.2998 35.6957 17.9487 39.0807C19.2348 40.2738 19.9725 41.9433 19.9725 43.6613V45.4193H40.0267V43.6397C40.0267 41.9282 40.7494 40.2803 42.0093 39.1188C45.6402 35.7717 47.7228 31.021 47.7228 26.0851C47.7228 16.3125 39.7721 8.36182 29.9995 8.36182Z" fill="#FEDB75"/>
<path d="M30 8.36182V45.4192H40.0272V43.6396C40.0272 41.928 40.7499 40.2802 42.0098 39.1187C45.6407 35.7715 47.7233 31.0209 47.7233 26.085C47.7233 16.3125 39.7726 8.36182 30 8.36182Z" fill="#FFEE92"/>
<path d="M36.536 27.4229H33.0198V30.7959L29.9994 32.7385L26.979 30.7959V27.4229H23.4629V32.715L28.2413 35.7883V44.8333H31.7574V35.7883L36.536 32.715V27.4229Z" fill="#F56819"/>
<path d="M33.0205 27.4229V30.7959L30 32.7385V44.8333H31.7581V35.7883L36.5366 32.715V27.4229H33.0205Z" fill="#FF9C65"/>
<path d="M19.9727 43.6396H40.0269V53.2544H19.9727V43.6396Z" fill="#E4E8ED"/>
<path d="M30 43.6396H40.0272V53.2544H30V43.6396Z" fill="#C1C5CB"/>
<path d="M28.2422 0H31.7583V4.75076H28.2422V0Z" fill="#FFEE92"/>
<path d="M15.4287 4.36304L18.4737 2.60497L20.8551 6.72968L17.8102 8.48775L15.4287 4.36304Z" fill="#FFEE92"/>
<path d="M6.51953 14.5591L8.27759 11.5141L12.4023 13.8956L10.6442 16.9406L6.51953 14.5591Z" fill="#FFEE92"/>
<path d="M3.90234 24.3269H8.66529V27.843H3.90234V24.3269Z" fill="#FFEE92"/>
<path d="M51.334 24.3269H56.0969V27.843H51.334V24.3269Z" fill="#FFD321"/>
<path d="M47.5947 13.895L51.7195 11.5135L53.4776 14.5585L49.3528 16.94L47.5947 13.895Z" fill="#FFD321"/>
<path d="M39.1436 6.73071L41.525 2.606L44.57 4.36407L42.1885 8.48878L39.1436 6.73071Z" fill="#FFD321"/>
<path d="M51.334 24.3269H56.0969V27.843H51.334V24.3269Z" fill="#FEDB75"/>
<path d="M47.5947 13.895L51.7195 11.5135L53.4776 14.5585L49.3528 16.94L47.5947 13.895Z" fill="#FEDB75"/>
<path d="M39.1436 6.73071L41.525 2.606L44.57 4.36407L42.1885 8.48878L39.1436 6.73071Z" fill="#FEDB75"/>
<path d="M30 0H31.7581V4.75076H30V0Z" fill="#FEDB75"/>
</g>
<defs>
<clipPath id="clip0_852_22672">
<rect width="60" height="60" fill="white"/>
</clipPath>
</defs>
</svg>
