<svg width="60" height="60" viewBox="0 0 60 60" fill="none" xmlns="http://www.w3.org/2000/svg">
<g clip-path="url(#clip0_852_22671)">
<path d="M13.1408 56.6784L7.87788 53.7268C7.02347 53.2476 6.72558 52.1629 7.21542 51.3148L17.8648 32.8757L26.195 37.5475L15.5239 56.0243C15.0426 56.8577 13.9803 57.1493 13.1408 56.6784Z" fill="#C1C5CB"/>
<path d="M25.3652 38.9929L44.7841 50.5293C45.9562 51.2257 47.4408 50.3812 47.4408 49.0182V4.85702C47.4408 3.48359 45.9358 2.64066 44.764 3.35796L25.3652 15.2344L24.1064 26.9135L25.3652 38.9929Z" fill="#FFEE92"/>
<path d="M24.1367 27.2063L25.3648 38.9929L44.7838 50.5293C45.9559 51.2256 47.4405 50.3812 47.4405 49.0182V27.2063H24.1367Z" fill="#FEDB75"/>
<path d="M10.4936 34.7891H3.33832C1.49461 34.7891 0 33.2945 0 31.4508V22.3759C0 20.5322 1.49461 19.0376 3.33832 19.0376H10.4936V34.7891Z" fill="#E4E8ED"/>
<path d="M0 27.2063V31.4508C0 33.2945 1.49508 34.7891 3.33938 34.7891H10.4934V27.2063H0Z" fill="#C1C5CB"/>
<path d="M25.3659 38.9928H15.1814C11.8802 38.7926 9.2041 36.1174 9.2041 32.8172V21.0094C9.2041 17.7093 11.8802 15.0342 15.1814 15.2344H25.3659V38.9928Z" fill="#FF9C65"/>
<path d="M9.2041 27.2061V32.8171C9.2041 36.1172 11.8802 38.7924 15.1814 38.9927H25.3659V27.2061H9.2041Z" fill="#F56819"/>
<path d="M55.163 41.2842C54.713 41.2842 54.263 41.1125 53.9196 40.7693L50.3725 37.2233C49.6857 36.537 49.6857 35.4239 50.3725 34.7374C51.0591 34.0511 52.1726 34.0511 52.8592 34.7374L56.4063 38.2834C57.093 38.9698 57.093 40.0828 56.4063 40.7693C56.063 41.1125 55.613 41.2842 55.163 41.2842Z" fill="#EDBE2C"/>
<path d="M51.6158 20.1905C51.1657 20.1905 50.7158 20.0189 50.3725 19.6756C49.6857 18.9893 49.6857 17.8762 50.3725 17.1897L53.9196 13.6438C54.6063 12.9573 55.7196 12.9573 56.4063 13.6438C57.0929 14.3301 57.0929 15.4433 56.4063 16.1297L52.8592 19.6756C52.5159 20.0188 52.0658 20.1905 51.6158 20.1905Z" fill="#F3D652"/>
<path d="M58.2426 28.9644H53.2262C52.255 28.9644 51.4678 28.1773 51.4678 27.2065C51.4678 26.2358 52.255 25.4487 53.2262 25.4487H58.2426C59.2137 25.4487 60.001 26.2358 60.001 27.2065C60.001 28.1773 59.2137 28.9644 58.2426 28.9644Z" fill="#F3D652"/>
<path d="M53.2262 28.9644H58.2426C59.2137 28.9644 60.001 28.1773 60.001 27.2065H51.4678C51.4678 28.1773 52.255 28.9644 53.2262 28.9644Z" fill="#EDBE2C"/>
</g>
<defs>
<clipPath id="clip0_852_22671">
<rect width="60" height="60" fill="white"/>
</clipPath>
</defs>
</svg>
