<svg width="60" height="60" viewBox="0 0 60 60" fill="none" xmlns="http://www.w3.org/2000/svg">
<g clip-path="url(#clip0_852_22675)">
<path d="M58.5843 22.0615L39.1501 20.259L31.4302 2.333C30.8898 1.0778 29.1101 1.0778 28.5696 2.333L20.8499 20.2591L1.41566 22.0615C0.0548767 22.1877 -0.495083 23.8802 0.531595 24.7821L15.1948 37.6636L10.9036 56.7037C10.6031 58.0368 12.0429 59.0828 13.2179 58.3851L30 48.4202L46.782 58.3851C47.9571 59.0828 49.3969 58.0368 49.0965 56.7037L44.8052 37.6636L59.4684 24.7821C60.495 23.8802 59.9451 22.1877 58.5843 22.0615Z" fill="#FFEE92"/>
<path d="M31.4302 2.333C30.8898 1.0778 29.1101 1.0778 28.5696 2.333L20.8499 20.2591L1.41566 22.0615C0.0548767 22.1877 -0.495083 23.8802 0.531595 24.7821L15.1948 37.6636L10.9036 56.7037C10.6031 58.0368 12.0429 59.0828 13.2179 58.3851L16.9636 56.161C17.482 34.8211 27.3972 19.7933 35.2474 11.1966L31.4302 2.333Z" fill="#FEDB75"/>
</g>
<defs>
<clipPath id="clip0_852_22675">
<rect width="60" height="60" fill="white"/>
</clipPath>
</defs>
</svg>
