<svg width="60" height="60" viewBox="0 0 60 60" fill="none" xmlns="http://www.w3.org/2000/svg">
<path d="M30 60C46.5685 60 60 46.5685 60 30C60 13.4315 46.5685 0 30 0C13.4315 0 0 13.4315 0 30C0 46.5685 13.4315 60 30 60Z" fill="#FF9C65"/>
<path d="M60 30C60 13.5223 46.4777 0 30 0V60C46.4777 60 60 46.4777 60 30Z" fill="#F56819"/>
<path d="M30 7.14844C17.4 7.14844 7.14844 17.4 7.14844 30C7.14844 42.6 17.4 52.9688 30 52.9688C42.6 52.9688 52.8516 42.6 52.8516 30C52.8516 17.4 42.6 7.14844 30 7.14844Z" fill="#F8F9FB"/>
<path d="M52.8516 30C52.8516 17.4 42.6 7.14844 30 7.14844V52.9688C42.6 52.9688 52.8516 42.6 52.8516 30Z" fill="#E4E8ED"/>
<path d="M30 14.1797C29.0284 14.1797 28.2422 14.9659 28.2422 15.9375V33.5156C28.2422 34.4872 29.0284 35.2734 30 35.2734C30.9716 35.2734 31.7578 34.4872 31.7578 33.5156V15.9375C31.7578 14.9659 30.9716 14.1797 30 14.1797Z" fill="#575F64"/>
<path d="M31.7578 33.5156V15.9375C31.7578 14.9659 30.9716 14.1797 30 14.1797V35.2734C30.9716 35.2734 31.7578 34.4872 31.7578 33.5156Z" fill="#474F54"/>
<path d="M40.5469 28.2422H30H26.4844C25.5128 28.2422 24.7266 29.0284 24.7266 30C24.7266 30.9716 25.5128 31.7578 26.4844 31.7578H30H40.5469C41.5185 31.7578 42.3047 30.9716 42.3047 30C42.3047 29.0284 41.5185 28.2422 40.5469 28.2422Z" fill="#575F64"/>
<path d="M42.3047 30C42.3047 29.0284 41.5185 28.2422 40.5469 28.2422H30V31.7578H40.5469C41.5185 31.7578 42.3047 30.9716 42.3047 30Z" fill="#474F54"/>
</svg>
