<svg width="72" height="72" viewBox="0 0 72 72" fill="none" xmlns="http://www.w3.org/2000/svg">
<g clip-path="url(#clip0_692_7517)">
<g filter="url(#filter0_d_692_7517)">
<circle cx="36" cy="36" r="36" fill="white"/>
</g>
<g clip-path="url(#clip1_692_7517)">
<path d="M66.0824 36.4931C66.0824 36.1337 66.0759 35.7756 66.0633 35.4193C65.498 19.5752 52.4755 6.90411 36.4933 6.90411C20.5112 6.90411 7.48868 19.5752 6.92348 35.4193C6.91077 35.7756 6.9043 36.1337 6.9043 36.4931C6.9043 52.8347 22.1036 65.0084 36.4933 65.0084C51.1438 65.0084 66.0824 52.8347 66.0824 36.4931Z" fill="#C1C5CB"/>
<path d="M36.4933 63.9346C20.5114 63.9346 7.49122 51.2632 6.9258 35.4193C6.91297 35.776 6.9043 36.1335 6.9043 36.4932C6.9043 52.8348 20.1518 66.0822 36.4933 66.0822C52.8349 66.0822 66.0824 52.8348 66.0824 36.4932C66.0824 36.1335 66.0737 35.776 66.061 35.4194C65.4955 51.2633 52.4752 63.9346 36.4933 63.9346Z" fill="#999EA5"/>
<path d="M61.1608 35.4192C60.5986 22.2814 49.7697 11.8027 36.4933 11.8027C23.217 11.8027 12.3881 22.2814 11.8259 35.4192C11.8106 35.7754 11.8258 59.613 36.4933 59.613C61.1609 59.613 61.176 35.7754 61.1608 35.4192Z" fill="#DFE2E6"/>
<path d="M36.5664 11.8065C39.5776 11.8065 42.5456 12.2839 45.3087 13.4378L36.5665 36.3021L36.5664 11.8065Z" fill="#F66819"/>
<path d="M36.4932 11.8356C41.4856 11.8356 46.3695 13.2929 50.5456 16.0287C54.7217 18.7645 57.184 22.0532 59.1781 26.6301L36.4932 37.4795V11.8356Z" fill="#F56819"/>
<path d="M36.4932 59.036C23.2169 59.036 12.3898 48.5571 11.8274 35.4193C11.8121 35.7755 11.8027 36.1331 11.8027 36.4931C11.8027 50.1292 22.857 61.1835 36.4932 61.1835C50.1293 61.1835 61.1836 50.1293 61.1836 36.4932C61.1836 36.1332 61.1741 35.7755 61.159 35.4194C60.5966 48.5572 49.7694 59.036 36.4932 59.036Z" fill="#E4E8ED"/>
<path d="M39.3581 35.4192C38.9233 34.2599 37.8048 33.4347 36.4937 33.4347C35.1825 33.4347 34.064 34.2599 33.6292 35.4192C33.5039 35.7533 33.6209 38.4777 36.4937 38.4777C39.3665 38.4777 39.4834 35.7533 39.3581 35.4192Z" fill="#F66819"/>
<path d="M36.493 37.4039C35.1818 37.4039 34.0638 36.5787 33.629 35.4194C33.5036 35.7535 33.4346 36.1152 33.4346 36.4931C33.4346 38.1822 34.8039 39.5514 36.4929 39.5514C38.182 39.5514 39.5512 38.1821 39.5512 36.4931C39.5512 36.1152 39.4822 35.7535 39.3569 35.4194C38.9222 36.5785 37.8042 37.4039 36.493 37.4039Z" fill="#D15C1B"/>
</g>
</g>
<defs>
<filter id="filter0_d_692_7517" x="-150" y="-135" width="372" height="372" filterUnits="userSpaceOnUse" color-interpolation-filters="sRGB">
<feFlood flood-opacity="0" result="BackgroundImageFix"/>
<feColorMatrix in="SourceAlpha" type="matrix" values="0 0 0 0 0 0 0 0 0 0 0 0 0 0 0 0 0 0 127 0" result="hardAlpha"/>
<feOffset dy="15"/>
<feGaussianBlur stdDeviation="75"/>
<feComposite in2="hardAlpha" operator="out"/>
<feColorMatrix type="matrix" values="0 0 0 0 0.321126 0 0 0 0 0.247597 0 0 0 0 0.179724 0 0 0 0.08 0"/>
<feBlend mode="normal" in2="BackgroundImageFix" result="effect1_dropShadow_692_7517"/>
<feBlend mode="normal" in="SourceGraphic" in2="effect1_dropShadow_692_7517" result="shape"/>
</filter>
<clipPath id="clip0_692_7517">
<rect width="72" height="72" fill="white"/>
</clipPath>
<clipPath id="clip1_692_7517">
<rect width="59.1781" height="59.1781" fill="white" transform="translate(6.9043 6.90411)"/>
</clipPath>
</defs>
</svg>
