<svg width="72" height="72" viewBox="0 0 72 72" fill="none" xmlns="http://www.w3.org/2000/svg">
<g clip-path="url(#clip0_692_7519)">
<g filter="url(#filter0_d_692_7519)">
<circle cx="36" cy="36" r="36" fill="white"/>
</g>
<g clip-path="url(#clip1_692_7519)">
<path d="M65.0961 35.5068C65.0961 35.1473 65.0896 34.7892 65.077 34.4329C64.5117 18.5888 51.4891 5.91772 35.507 5.91772C19.5249 5.91772 6.50235 18.5888 5.93716 34.4329C5.92444 34.7892 5.91797 35.1473 5.91797 35.5068C5.91797 51.8484 21.1173 64.022 35.507 64.022C50.1575 64.022 65.0961 51.8484 65.0961 35.5068Z" fill="#C1C5CB"/>
<path d="M35.507 62.9481C19.5251 62.9481 6.5049 50.2768 5.93947 34.4329C5.92664 34.7895 5.91797 35.147 5.91797 35.5067C5.91797 51.8483 19.1654 65.0958 35.507 65.0958C51.8486 65.0958 65.0961 51.8483 65.0961 35.5067C65.0961 35.147 65.0874 34.7895 65.0747 34.433C64.5091 50.2769 51.4889 62.9481 35.507 62.9481Z" fill="#999EA5"/>
<path d="M60.1745 34.4328C59.6123 21.295 48.7834 10.8163 35.507 10.8163C22.2307 10.8163 11.4018 21.295 10.8396 34.4328C10.8243 34.789 10.8395 58.6266 35.507 58.6266C60.1746 58.6266 60.1897 34.789 60.1745 34.4328Z" fill="#DFE2E6"/>
<path d="M35.5801 10.8202C38.5913 10.8202 41.5593 11.2976 44.3224 12.4515L35.5802 35.3158L35.5801 10.8202Z" fill="#F66819"/>
<path d="M35.5068 58.0495C22.2306 58.0495 11.4034 47.5706 10.841 34.4329C10.8258 34.7891 10.8164 35.1467 10.8164 35.5066C10.8164 49.1428 21.8707 60.197 35.5068 60.197C49.143 60.197 60.1973 49.1429 60.1973 35.5067C60.1973 35.1468 60.1878 34.7891 60.1727 34.433C59.6102 47.5707 48.7831 58.0495 35.5068 58.0495Z" fill="#E4E8ED"/>
<path d="M35.5071 10.8492C40.3428 10.8492 45.08 12.2165 49.1719 14.7933C53.2639 17.3701 56.5439 21.0514 58.6334 25.4124C60.7229 29.7734 61.5368 34.6363 60.9811 39.4399C60.4254 44.2436 58.5228 48.7923 55.4928 52.561C52.4629 56.3297 48.429 59.165 43.8568 60.7395C39.2847 62.314 34.3604 62.5637 29.6525 61.4596C24.9445 60.3556 20.6446 57.9429 17.249 54.4999C13.8534 51.057 11.5005 46.7241 10.4618 42.0012L35.5071 36.4931V10.8492Z" fill="#F56819"/>
<path d="M38.3718 34.4328C37.937 33.2735 36.8185 32.4484 35.5074 32.4484C34.1962 32.4484 33.0777 33.2735 32.6429 34.4328C32.5176 34.7669 32.6346 37.4913 35.5074 37.4913C38.3801 37.4913 38.4971 34.7669 38.3718 34.4328Z" fill="#F66819"/>
<path d="M35.5067 36.4175C34.1955 36.4175 33.0775 35.5923 32.6427 34.433C32.5172 34.7671 32.4482 35.1288 32.4482 35.5067C32.4482 37.1958 33.8175 38.565 35.5065 38.565C37.1957 38.565 38.5649 37.1957 38.5649 35.5067C38.5649 35.1288 38.4959 34.7671 38.3706 34.433C37.9359 35.5922 36.8178 36.4175 35.5067 36.4175Z" fill="#D15C1B"/>
</g>
</g>
<defs>
<filter id="filter0_d_692_7519" x="-150" y="-135" width="372" height="372" filterUnits="userSpaceOnUse" color-interpolation-filters="sRGB">
<feFlood flood-opacity="0" result="BackgroundImageFix"/>
<feColorMatrix in="SourceAlpha" type="matrix" values="0 0 0 0 0 0 0 0 0 0 0 0 0 0 0 0 0 0 127 0" result="hardAlpha"/>
<feOffset dy="15"/>
<feGaussianBlur stdDeviation="75"/>
<feComposite in2="hardAlpha" operator="out"/>
<feColorMatrix type="matrix" values="0 0 0 0 0.321126 0 0 0 0 0.247597 0 0 0 0 0.179724 0 0 0 0.08 0"/>
<feBlend mode="normal" in2="BackgroundImageFix" result="effect1_dropShadow_692_7519"/>
<feBlend mode="normal" in="SourceGraphic" in2="effect1_dropShadow_692_7519" result="shape"/>
</filter>
<clipPath id="clip0_692_7519">
<rect width="72" height="72" fill="white"/>
</clipPath>
<clipPath id="clip1_692_7519">
<rect width="59.1781" height="59.1781" fill="white" transform="translate(5.91797 5.91772)"/>
</clipPath>
</defs>
</svg>
