<svg xmlns="http://www.w3.org/2000/svg" width="1500.087" height="526.612" fill="none"><path opacity=".2" fill-rule="evenodd" clip-rule="evenodd" d="M139.454 189.214c49.2 74.292 107.473 142.687 198.82 170.294 88.167 26.647 164.43-18.049 246.544-77.26 9.144-6.594 18.373-13.374 27.678-20.209 31.394-23.062 63.651-46.757 96.432-66.093 42.791-25.24 88.588-44.422 138.395-46.12 52.256-1.78 95.947 23.291 133.243 57.891 37.114 34.432 69.944 80.228 100.444 123.558 1.78 2.527 3.55 5.045 5.31 7.551 29.04 41.305 55.93 79.557 83.8 106.913 29.52 28.98 56.28 41.91 84.06 37.067 17.7-3.086 40.09-17.383 65.87-41.11 25.16-23.157 51-52.843 75.72-82.627 7.68-9.249 15.3-18.567 22.74-27.676 16.14-19.746 31.48-38.509 44.89-53.457 9.83-10.953 19.34-20.683 28.05-27.655 4.35-3.488 9.04-6.72 13.91-9.04 4.72-2.249 11.09-4.348 18.24-3.577l-3.97 36.786c1.25.135 2.06-.025 2.31-.09-.11.038-.33.124-.67.288-1.35.641-3.56 2.001-6.69 4.513-6.29 5.031-14.18 12.94-23.64 23.486-12.83 14.304-27.25 31.946-43.05 51.278-7.57 9.264-15.46 18.917-23.65 28.776-24.86 29.947-52.02 61.27-79.13 86.22-26.49 24.38-55.63 45.29-84.58 50.335-45.43 7.92-83.75-15.132-116.33-47.112-30.39-29.833-59.15-70.76-87.45-111.042-2-2.848-4-5.693-6-8.53-30.84-43.815-61.544-86.369-95.348-117.73-33.62-31.19-68.226-49.352-106.819-48.037-41.043 1.4-80.604 17.266-120.857 41.01-31.017 18.295-61.197 40.46-92.29 63.294-9.556 7.017-19.198 14.098-28.977 21.15-81.083 58.467-171.488 115.127-278.89 82.667-104.223-31.499-168.612-109.252-218.964-185.282-12.625-19.064-24.49-38.219-35.862-56.595l-.493-.798c-11.247-18.175-21.982-35.522-32.739-51.71-22-33.112-42.971-59.59-65.998-76.517L-4.573-5.788c28.536 20.976 52.457 52.072 74.901 85.851 11.092 16.693 22.098 34.478 33.226 52.461l.652 1.055c11.407 18.433 22.984 37.118 35.248 55.635zm1382.566 85.121a.3.3 0 01-.08.025c.06-.02.09-.027.08-.025z" fill="#b6f1ff"/></svg>