<svg width="114" height="121" fill="none" xmlns="http://www.w3.org/2000/svg"><path opacity=".3" fill-rule="evenodd" clip-rule="evenodd" d="M89.5 37.996c6.904 0 12.5-5.596 12.5-12.5 0-6.903-5.596-12.5-12.5-12.5S77 18.593 77 25.496c0 6.904 5.596 12.5 12.5 12.5zm0 12c13.531 0 24.5-10.969 24.5-24.5 0-13.53-10.969-24.5-24.5-24.5S65 11.966 65 25.496c0 13.531 10.969 24.5 24.5 24.5z" fill="#B6F1FF"/><path opacity=".3" fill-rule="evenodd" clip-rule="evenodd" d="M32.5 105.996c9.665 0 17.5-7.835 17.5-17.5s-7.835-17.5-17.5-17.5S15 78.831 15 88.496s7.835 17.5 17.5 17.5zm0 15c17.95 0 32.5-14.551 32.5-32.5 0-17.95-14.55-32.5-32.5-32.5S0 70.546 0 88.496c0 17.949 14.55 32.5 32.5 32.5z" fill="#FFEE92"/></svg>