<svg width="189" height="118" fill="none" xmlns="http://www.w3.org/2000/svg"><path opacity=".3" fill-rule="evenodd" clip-rule="evenodd" d="M24.5 105.996c6.904 0 12.5-5.596 12.5-12.5 0-6.903-5.596-12.5-12.5-12.5S12 86.593 12 93.496c0 6.904 5.596 12.5 12.5 12.5zm0 12c13.531 0 24.5-10.969 24.5-24.5 0-13.53-10.969-24.5-24.5-24.5S0 79.966 0 93.496c0 13.531 10.969 24.5 24.5 24.5z" fill="#B6F1FF"/><path opacity=".2" fill-rule="evenodd" clip-rule="evenodd" d="M156.5 50.996c9.665 0 17.5-7.835 17.5-17.5s-7.835-17.5-17.5-17.5-17.5 7.835-17.5 17.5 7.835 17.5 17.5 17.5zm0 15c17.949 0 32.5-14.55 32.5-32.5S174.449.996 156.5.996c-17.949 0-32.5 14.55-32.5 32.5s14.551 32.5 32.5 32.5z" fill="#FFCAAC"/></svg>