<svg width="1425" height="227" fill="none" xmlns="http://www.w3.org/2000/svg"><path d="M137.137 50.563c0-15.3-6.706-24.252-20.117-26.856a212.652 212.652 0 00-40.626-3.906H56.18V83.18h26.172c13.997 0 26.627-1.53 37.89-4.59 11.263-3.125 16.895-12.468 16.895-28.028zm23.047 1.464c0 22.526-8.659 36.035-25.977 40.528-17.253 4.427-36.263 6.64-57.031 6.64H56.18v53.614h29.785c2.474 0 4.264.911 5.37 2.734 1.108 1.758 1.661 3.841 1.661 6.25 0 2.148-.65 4.069-1.953 5.762-1.237 1.627-2.995 2.441-5.274 2.441H7.742c-2.278 0-4.069-.814-5.37-2.441-1.238-1.693-1.856-3.614-1.856-5.762 0-2.409.553-4.492 1.66-6.25 1.107-1.823 2.897-2.734 5.37-2.734h25.782V19.801H9.598c-2.474 0-4.265-.88-5.371-2.637-1.107-1.823-1.66-3.939-1.66-6.348 0-2.148.618-4.036 1.855-5.664C5.724 3.46 7.514 2.613 9.793 2.613h63.77c21.744 0 41.601 2.41 59.57 7.227 18.034 4.818 27.051 18.88 27.051 42.187zm93.066 19.727c-7.812 0-14.779 1.725-20.898 5.176-6.12 3.45-10.775 7.552-13.965 12.304v63.575h26.172c2.474 0 4.264.911 5.371 2.734 1.106 1.758 1.66 3.841 1.66 6.25 0 2.148-.651 4.069-1.953 5.762-1.237 1.627-2.995 2.441-5.274 2.441h-64.551c-2.734 0-4.752-.781-6.054-2.344-1.302-1.562-1.953-3.58-1.953-6.054 0-2.409.586-4.46 1.757-6.153 1.237-1.757 3.126-2.636 5.665-2.636h19.14V74.391l-13.965 3.418c-.13.065-.325.13-.586.195h-.781c-1.953 0-3.776-.781-5.469-2.344-1.692-1.627-2.539-3.45-2.539-5.469 0-2.213.456-3.97 1.368-5.273.976-1.367 2.376-2.344 4.199-2.93l27.246-7.812c.26 0 .423-.033.488-.098s.228-.098.488-.098h.586c1.368 0 2.539.424 3.516 1.27.977.781 1.465 1.888 1.465 3.32l2.051 18.457c4.492-6.836 10.384-12.37 17.675-16.601 7.357-4.297 16.732-6.446 28.125-6.446 2.149 0 4.037.652 5.664 1.954 1.693 1.237 2.54 2.994 2.54 5.273v20.8c0 2.735-.782 4.753-2.344 6.055-1.563 1.303-3.581 1.954-6.055 1.954-2.409 0-4.492-.586-6.25-1.758-1.693-1.237-2.539-3.125-2.539-5.664v-10.84zm50.098 43.652c0 12.761 3.971 22.494 11.914 29.199 8.008 6.641 17.838 9.961 29.492 9.961 8.268 0 14.746-1.53 19.434-4.589a104.97 104.97 0 0013.574-10.645c.976-.846 2.018-1.465 3.125-1.855 1.106-.456 2.213-.684 3.32-.684 2.604 0 4.818.814 6.641 2.441 1.823 1.563 2.734 3.679 2.734 6.348 0 8.333-6.055 14.909-18.164 19.727-12.044 4.752-22.526 7.129-31.445 7.129-17.839 0-32.552-5.274-44.141-15.821-11.523-10.612-17.285-24.87-17.285-42.773 0-17.709 5.306-32.097 15.918-43.164 10.612-11.133 25-16.7 43.164-16.7 13.021 0 24.902 4.525 35.644 13.575 10.743 8.984 16.114 20.605 16.114 34.863 0 4.883-1.53 7.812-4.59 8.789-2.995.977-6.804 1.693-11.426 2.148l-74.023 2.051zm65.527-19.238c0-9.31-2.865-15.885-8.594-19.727-5.664-3.906-11.881-5.859-18.652-5.859-11.458 0-20.573 2.832-27.344 8.496-6.706 5.664-10.482 13.184-11.328 22.559l58.691-1.27c1.823-.065 3.484-.39 4.981-.976 1.497-.651 2.246-1.726 2.246-3.223zm150 16.992c0-11.523-2.897-21.484-8.691-29.883-5.73-8.463-14.226-12.695-25.489-12.695-8.593 0-16.015 1.628-22.265 4.883-6.185 3.255-11.231 7.422-15.137 12.5v54.394c4.102 4.102 9.212 7.39 15.332 9.864 6.185 2.409 13.346 3.613 21.484 3.613 11.394 0 20.02-4.232 25.879-12.695 5.925-8.529 8.887-18.523 8.887-29.981zm21.582 0c0 17.318-5.111 31.543-15.332 42.676-10.221 11.068-23.893 16.602-41.016 16.602-8.007 0-15.006-1.205-20.996-3.614-5.924-2.409-11.198-5.566-15.82-9.472v49.609h19.727c2.473 0 4.264.911 5.371 2.734 1.106 1.823 1.66 3.939 1.66 6.348 0 2.148-.651 4.036-1.953 5.664-1.237 1.628-2.995 2.441-5.274 2.441h-51.172c-2.734 0-4.752-.781-6.054-2.343-1.302-1.563-1.953-3.581-1.953-6.055 0-2.409.585-4.492 1.757-6.25 1.237-1.693 3.125-2.539 5.664-2.539h12.207V74.391l-13.964 3.418a3.06 3.06 0 01-.586.195h-.879c-1.953 0-3.776-.781-5.469-2.344-1.693-1.627-2.539-3.45-2.539-5.469 0-2.213.488-3.97 1.465-5.273.976-1.367 2.376-2.344 4.199-2.93l27.148-7.812c.261 0 .424-.033.489-.098s.228-.098.488-.098h.684c1.367 0 2.539.424 3.515 1.27.977.781 1.465 1.888 1.465 3.32l1.953 18.457c3.125-6.64 8.334-12.142 15.625-16.504 7.292-4.362 15.69-6.543 25.195-6.543 17.058 0 30.372 5.6 39.942 16.797 9.635 11.133 14.453 25.26 14.453 42.383zm85.547-97.558c-15.625 0-25.977 2.962-31.055 8.886-5.078 5.86-7.617 12.468-7.617 19.825 0 6.315 2.181 11.425 6.543 15.331 4.427 3.842 11.003 6.837 19.727 8.985l28.027 6.933c12.825 3.19 23.275 8.431 31.348 15.723 8.072 7.227 12.109 18.555 12.109 33.985 0 16.862-6.673 28.971-20.02 36.328-13.346 7.356-28.548 11.035-45.605 11.035-6.901 0-13.965-.912-21.191-2.735-7.227-1.822-13.965-4.882-20.215-9.179-.261 2.213-.944 4.72-2.051 7.519-1.107 2.8-2.767 4.2-4.981 4.2-2.343 0-4.231-.489-5.664-1.465-1.432-.977-2.278-2.572-2.539-4.785l-5.566-48.438c0-2.604.781-4.525 2.344-5.762 1.562-1.302 3.906-1.953 7.031-1.953 1.953 0 3.678.586 5.176 1.758 1.497 1.107 2.376 2.637 2.636 4.59l1.563 13.574c.651 6.055 5.143 11.816 13.476 17.285 8.334 5.404 17.513 8.106 27.54 8.106 11.132 0 21.907-1.986 32.324-5.957 10.482-3.972 15.722-12.045 15.722-24.219 0-8.789-2.669-14.909-8.007-18.36-5.274-3.45-11.556-6.217-18.848-8.3L606.18 89.43c-11.654-2.605-21.322-7.227-29.004-13.868-7.617-6.705-11.426-16.601-11.426-29.687 0-14.258 5.566-25.423 16.699-33.496C593.647 4.24 607.091.172 622.781.172c6.771 0 13.705.846 20.801 2.539 7.161 1.693 13.086 4.492 17.773 8.398 0-2.734.847-5.208 2.54-7.421 1.757-2.28 3.971-3.418 6.64-3.418 1.953 0 3.679.585 5.176 1.757 1.497 1.172 2.376 2.735 2.637 4.688l.683 38.77c0 2.799-.846 4.85-2.539 6.152-1.693 1.237-3.841 1.855-6.445 1.855-2.279 0-4.167-.488-5.664-1.465-1.432-.976-2.279-2.539-2.539-4.687l-.391-11.328c-.846-7.357-4.883-12.598-12.109-15.723-7.227-3.125-15.007-4.687-23.34-4.687zM767.117 53.98c9.831 0 19.271 2.019 28.321 6.055 9.114 3.972 13.671 12.044 13.671 24.219 0 3.841-.748 7.096-2.246 9.765-1.497 2.605-3.906 3.907-7.226 3.907-4.883 0-8.008-2.832-9.375-8.496-1.367-5.73-2.67-11.198-3.907-16.407a71.508 71.508 0 00-9.472-1.855 71.648 71.648 0 00-9.082-.586c-12.565 0-23.08 3.678-31.543 11.035-8.464 7.292-12.696 17.35-12.696 30.176 0 13.867 4.135 24.219 12.403 31.055 8.333 6.77 17.806 10.156 28.418 10.156 5.534 0 11.1-1.042 16.699-3.125 5.599-2.149 10.71-5.274 15.332-9.375.912-.781 1.888-1.4 2.93-1.856a7.97 7.97 0 013.222-.683c2.67 0 4.883.683 6.641 2.051 1.823 1.302 2.734 3.157 2.734 5.566 0 8.333-5.599 14.909-16.796 19.727-11.198 4.752-21.062 7.129-29.59 7.129-18.685 0-33.985-5.372-45.899-16.114-11.849-10.807-17.773-25.651-17.773-44.531 0-18.49 6.478-32.747 19.433-42.774 13.021-10.026 28.288-15.039 45.801-15.039zm132.324 16.602c-7.421 0-14.03 2.246-19.824 6.738-5.729 4.427-10.254 9.31-13.574 14.649v60.84h16.016c2.539 0 4.166.879 4.882 2.636.717 1.693 1.075 3.744 1.075 6.153 0 1.953-.521 3.841-1.563 5.664-1.042 1.823-2.571 2.734-4.59 2.734h-47.754c-2.799 0-4.752-.716-5.859-2.148-1.042-1.498-1.562-3.516-1.562-6.055 0-2.409.488-4.492 1.464-6.25.977-1.823 2.735-2.734 5.274-2.734h12.597V21.168l-22.949 6.055c-.26 0-.423.032-.488.097s-.228.098-.488.098c-2.019 0-3.809-.879-5.371-2.637-1.628-1.823-2.442-3.743-2.442-5.761 0-2.8.749-4.623 2.246-5.47 1.433-.91 3.223-1.692 5.371-2.343L859.5.367c.13-.065.293-.097.488-.097.261-.066.554-.098.879-.098 1.367 0 2.572.456 3.613 1.367 1.042.846 1.563 1.986 1.563 3.418v66.992c3.776-4.492 8.887-8.593 15.332-12.304 6.445-3.777 13.672-5.665 21.68-5.665 12.174 0 21.842 3.581 29.004 10.743 7.226 7.161 10.839 16.862 10.839 29.101v58.985h15.918c2.539 0 4.167.879 4.883 2.636.781 1.693 1.172 3.744 1.172 6.153 0 1.953-.553 3.841-1.66 5.664-1.042 1.823-2.572 2.734-4.59 2.734h-47.754c-2.799 0-4.752-.716-5.859-2.148-1.042-1.498-1.563-3.516-1.563-6.055 0-2.409.489-4.492 1.465-6.25 1.042-1.823 2.832-2.734 5.371-2.734h12.793V95.582c0-7.747-1.985-13.835-5.957-18.262-3.906-4.492-9.798-6.738-17.676-6.738zm136.129 0c-12.37 0-21.97 4.004-28.8 12.012-6.775 8.008-10.161 18.196-10.161 30.566 0 12.435 3.386 22.656 10.161 30.664 6.83 8.008 16.43 12.012 28.8 12.012 12.05 0 21.36-4.069 27.93-12.207 6.58-8.138 9.87-18.294 9.87-30.469 0-12.174-3.29-22.298-9.87-30.37-6.57-8.139-15.88-12.208-27.93-12.208zm0 101.856c-18.03 0-32.65-5.372-43.843-16.114-11.198-10.742-16.797-25.13-16.797-43.164 0-18.099 5.599-32.487 16.797-43.164 11.263-10.677 25.883-16.015 43.843-16.015 17.71 0 32.04 5.436 42.97 16.308 10.94 10.807 16.41 25.098 16.41 42.871 0 17.774-5.47 32.097-16.41 42.969-10.93 10.872-25.26 16.309-42.97 16.309zM1152.37.563c1.37 0 2.57.455 3.61 1.367 1.05.846 1.57 1.985 1.57 3.418v147.461h23.83c2.47 0 4.26.911 5.37 2.734 1.1 1.758 1.66 3.841 1.66 6.25 0 2.148-.65 4.069-1.96 5.762-1.23 1.627-2.99 2.441-5.27 2.441h-65.23c-2.74 0-4.76-.781-6.06-2.344-1.3-1.562-1.95-3.58-1.95-6.054 0-2.409.58-4.46 1.76-6.153 1.23-1.757 3.12-2.636 5.66-2.636h22.17V21.559l-22.95 6.054c-.26 0-.43.033-.49.098-.07.065-.23.098-.49.098-2.02 0-3.84-.88-5.47-2.637-1.56-1.823-2.34-3.744-2.34-5.762 0-2.8.72-4.622 2.15-5.469 1.49-.911 3.32-1.692 5.47-2.343L1151 .758c.13-.065.3-.098.49-.098.26-.065.56-.098.88-.098zm169.92 153.027c0 5.208-3.45 9.668-10.35 13.379-6.9 3.646-12.56 5.469-16.99 5.469-5.34 0-9.64-1.303-12.89-3.907-3.26-2.604-5.47-6.575-6.64-11.914-4.75 5.469-10.97 9.538-18.65 12.207-7.69 2.604-15.89 3.906-24.61 3.906-9.96 0-18.3-3.027-25-9.082-6.64-6.054-9.96-13.932-9.96-23.632 0-17.448 8.52-28.125 25.58-32.032 17.06-3.906 33.73-6.575 50-8.007v-15.82c0-5.079-2.18-8.594-6.54-10.548-4.36-2.018-9.05-3.027-14.06-3.027-9.12 0-16.05.977-20.8 2.93-4.69 1.953-10.16 4.915-16.41 8.886-.59.326-1.17.586-1.76.782-.52.195-1.07.293-1.66.293-2.21 0-4.2-1.042-5.96-3.125-1.75-2.084-2.63-4.265-2.63-6.543 0-7.813 5.69-13.054 17.09-15.723 11.46-2.734 21.22-4.102 29.29-4.102 16.48 0 27.74 3.516 33.79 10.547 6.06 6.966 9.08 18.588 9.08 34.864v49.218c0 2.019.33 3.711.98 5.079.72 1.302 1.82 1.953 3.32 1.953 2.93 0 6.22-1.758 9.87-5.274 3.64-3.515 6.64-5.273 8.98-5.273 1.43 0 2.93.976 4.49 2.929 1.63 1.888 2.44 3.744 2.44 5.567zm-49.51-38.965c-10.29 1.107-21.97 2.799-35.06 5.078-13.02 2.214-19.53 8.789-19.53 19.727 0 5.534 2.05 9.668 6.15 12.402 4.11 2.669 8.99 4.004 14.65 4.004 6.77 0 12.96-1.237 18.56-3.711 5.66-2.539 10.74-5.566 15.23-9.082v-28.418zm134.38-42.871c-7.82 0-14.78 1.725-20.9 5.176-6.12 3.45-10.78 7.552-13.97 12.304v63.575h26.17c2.48 0 4.27.911 5.38 2.734 1.1 1.758 1.66 3.841 1.66 6.25 0 2.148-.65 4.069-1.96 5.762-1.23 1.627-2.99 2.441-5.27 2.441h-64.55c-2.74 0-4.75-.781-6.06-2.344-1.3-1.562-1.95-3.58-1.95-6.054 0-2.409.59-4.46 1.76-6.153 1.24-1.757 3.12-2.636 5.66-2.636h19.14V74.391l-13.96 3.418c-.13.065-.33.13-.59.195h-.78c-1.95 0-3.77-.781-5.47-2.344-1.69-1.627-2.54-3.45-2.54-5.469 0-2.213.46-3.97 1.37-5.273.98-1.367 2.38-2.344 4.2-2.93l27.25-7.812c.26 0 .42-.033.48-.098.07-.065.23-.098.49-.098h.59c1.37 0 2.54.424 3.51 1.27.98.781 1.47 1.888 1.47 3.32l2.05 18.457c4.49-6.836 10.38-12.37 17.68-16.601 7.35-4.297 16.73-6.446 28.12-6.446 2.15 0 4.04.652 5.66 1.954 1.7 1.237 2.54 2.994 2.54 5.273v20.8c0 2.735-.78 4.753-2.34 6.055-1.56 1.303-3.58 1.954-6.05 1.954-2.41 0-4.5-.586-6.25-1.758-1.7-1.237-2.54-3.125-2.54-5.664v-10.84z" opacity=".9" fill="#F8F9FB"/></svg>