<svg xmlns="http://www.w3.org/2000/svg" width="238.741" height="151.355" viewBox="0 0 238.741 151.355"><g transform="translate(0 0)"><g transform="translate(0 13.648)"><path d="M561.5,959l.422,10.142,7.822-3.412Z" transform="translate(-525.246 -911.624)" fill="#99ffb6"/><ellipse cx="26.98" cy="26.921" rx="26.98" ry="26.921" transform="translate(0 0)" fill="#99ffb6"/><ellipse cx="24.372" cy="24.319" rx="24.372" ry="24.319" transform="translate(189.996 47.551)" fill="#f99"/><path d="M521.406,1290.3a.764.764,0,0,0,.625-.327L552.4,1245.84a.751.751,0,0,0-1.233-.857L520.8,1289.119a.762.762,0,0,0,.187,1.044A.72.72,0,0,0,521.406,1290.3Z" transform="translate(-348.881 -1152.596)" fill="#f99"/><path d="M598.373,1057.713a.735.735,0,0,1-.7-.514L568.8,971.919a.761.761,0,0,1,.468-.95.75.75,0,0,1,.952.467l28.869,85.28a.761.761,0,0,1-.468.95A.782.782,0,0,1,598.373,1057.713Z" transform="translate(-531.376 -921.692)" fill="#99ffb6"/><path d="M525.731,1233.7l-.687,8.646-7.744-4.471Z" transform="translate(-321.558 -1143.338)" fill="#f99"/></g><text transform="translate(195.667 87.723) rotate(9)" fill="#fff" font-size="14" font-family="OpenSans-SemiBold, Open Sans" font-weight="600" letter-spacing="0.015em"><tspan x="0" y="0">160+</tspan></text><text transform="translate(9.191 54.943) rotate(-25)" fill="#fff" font-size="16" font-family="OpenSans-SemiBold, Open Sans" font-weight="600" letter-spacing="0.015em"><tspan x="0" y="0">160+</tspan></text><path d="M98.1,220.2,95.036,177.95,82.979,154.024l5.405-1.935,6.652-4.564,1.8-3.457L104.6,157.62l3.326,3.319,6.376,2.351,4.435,1.522,2.355,3.318,3.189,2.214,4.158-.692,2.771-2.9,1.248-1.935,7.622-1.522,5.405-3.734,7.9-12.861,5.82,4.563,5.544,2.766h4.019L156.71,177.95,155.316,220.2Z" transform="translate(-11.296 -74.054)" fill="#0092d2"/><path d="M-17976.748-20908.334l12.008,22.363,16.092,33.418,8.531-2.986,5.631-7.107-20.85-43.539-8.643-18.23-3.7-4.521-1.145,2.445,2.707,8.414-12.338-13.508-1.664.418,1.146,4.152-3.49-1.922-1.664.264-2.293,1.658-.467,2.6-1.025,1.492Z" transform="translate(18019.93 20932.439)" fill="#c69870"/><g transform="translate(31.269 0)"><g transform="translate(0 0)"><path d="M499.685,557.193a.935.935,0,0,1-.194-.028c-.97-.29-1.87-.567-2.7-.8-9.754-2.9-10.238-3.359-17.332-16.285-4.669-8.53-14.256-28.893-21.959-45.26-5.043-10.7-9.38-19.948-10.6-22.1-1.358-2.405-2.272-2.682-2.48-2.571-.374.166-.72,1.521-.042,3.373,1.344,3.663,2.688,7.05,2.7,7.092a.638.638,0,0,1-.263.8.674.674,0,0,1-.845-.111c-1.94-2.129-3.879-4.424-5.583-6.456-2.965-3.539-6.678-7.935-7.689-7.714-.028,0-.111.1-.18.359-.166.622,1.122,2.405,2.632,4.479,1.33,1.825,2.979,4.106,4.752,7.009a.675.675,0,0,1-.139.857.658.658,0,0,1-.873-.028c-.166-.152-.471-.525-1.164-1.369-6.345-7.742-8.548-9.055-9.283-8.82-.139.041-.291.4-.319,1.078a.665.665,0,0,1-.693.636.656.656,0,0,1-.637-.691c.042-1.272.457-2.032,1.219-2.295,1.108-.373,2.688.567,4.683,2.461-1.164-1.673-1.732-2.779-1.469-3.7a1.594,1.594,0,0,1,1.178-1.3c1.732-.373,4.281,2.544,8.992,8.156,1.011,1.2,2.023,2.419,3.076,3.636-.416-1.092-.887-2.35-1.372-3.65-.831-2.295-.526-4.465.734-5.046.72-.332,2.231-.359,4.2,3.138,1.247,2.2,5.389,11.018,10.64,22.188,7.689,16.354,17.263,36.689,21.918,45.178,7.038,12.829,7.218,12.884,16.542,15.649.831.249,1.732.512,2.7.816a.67.67,0,0,1,.443.829A.605.605,0,0,1,499.685,557.193Z" transform="translate(-423.521 -465.769)" fill="#201000"/><path d="M423.761,510.5a.687.687,0,0,1-.513-.235c-.042-.041-3.63-4.368-5.971-6.912-3.533-3.857-4.586-3.58-4.6-3.58s-.277.263-.028,1.645a.663.663,0,0,1-1.3.249c-.111-.608-.471-2.488.734-3.083.443-.221,1.815-.9,6.179,3.871,2.355,2.571,5.971,6.912,6.013,6.967a.674.674,0,0,1-.083.94A.793.793,0,0,1,423.761,510.5Z" transform="translate(-410.093 -493.903)" fill="#201000"/><path d="M458.313,660.094a.676.676,0,0,1-.665-.622l-2.7-41.487c-2.341-4.493-10.973-22.174-19.313-39.288-6.747-13.824-13.12-26.874-14.88-30.317-3.893-7.589-11.6-17.488-13.993-20.349l-.637-.76c-1.953-2.322-3.145-3.733-2.951-4.949a1.6,1.6,0,0,1,.748-1.092c2.078-1.3,5.86,2.972,9.864,7.852.623.746,1.261,1.521,1.5,1.756a.673.673,0,0,1,.069,1.189c-.582.346-.734.166-2.591-2.087-4.558-5.543-7.3-8.087-8.133-7.562-.139.083-.139.138-.152.166-.1.608,1.3,2.281,2.66,3.885l.637.774c2.424,2.9,10.211,12.912,14.159,20.6,1.76,3.442,8.146,16.506,14.894,30.344,8.036,16.465,17.138,35.127,19.369,39.385a.572.572,0,0,1,.069.263l2.716,41.625a.665.665,0,0,1-.623.705C458.341,660.094,458.327,660.094,458.313,660.094ZM414.671,530.851Zm0,0Zm.014,0Zm0,0Zm.028-.014c-.014,0-.028.014-.042.014A.061.061,0,0,0,414.713,530.837Zm.014,0Z" transform="translate(-403.151 -513.359)" fill="#201000"/><path d="M549.764,578.465a.679.679,0,0,1-.651-.525c-.845-4.106,1.954-7.424,2.064-7.562a.675.675,0,0,1,.942-.069.66.66,0,0,1,.069.94c-.028.028-2.494,2.972-1.773,6.428a.672.672,0,0,1-.513.788A.462.462,0,0,0,549.764,578.465Z" transform="translate(-528.754 -555.72)" fill="#201000"/><path d="M691.9,977.436a.656.656,0,0,1-.651-.553.669.669,0,0,1,.554-.76,18.828,18.828,0,0,0,13.12-9.553.662.662,0,0,1,1.233.484c-.928,2.309-6,9.069-14.146,10.368A.349.349,0,0,1,691.9,977.436Z" transform="translate(-651.33 -896.974)" fill="#201000"/></g><g transform="translate(88.798 0.041)"><path d="M-17777.328-20859.869l6.633,5.02,5.031,2.055h3.887l23.563-47.7,9.148-13.807,6.746-7.875v-2.055h-1.371v-3.078h-2.172v-2.627l-4.8,3.539-.687-.912,1.715-3.426-1.027-1.141-2.4,1.141-10.867,12.324,2.863-7.986-1.145-2.512-2.52,1.6Z" transform="translate(17799.307 20932.535)" fill="#c69870"/><path d="M1044.751,558.115a.652.652,0,0,1-.637-.47.67.67,0,0,1,.443-.829l1.843-.553c10.266-3.1,11.111-3.345,18.357-16.575,4.655-8.474,14.229-28.823,21.918-45.164,5.251-11.17,9.407-19.99,10.654-22.188,1.967-3.5,3.477-3.47,4.2-3.138,1.261.581,1.58,2.737.734,5.046-.471,1.3-.942,2.557-1.372,3.65,1.053-1.216,2.078-2.433,3.076-3.636,4.724-5.626,7.26-8.53,8.992-8.156a1.594,1.594,0,0,1,1.178,1.3c.249.926-.319,2.032-1.469,3.7,2-1.894,3.575-2.834,4.683-2.461.762.263,1.178,1.037,1.219,2.295a.665.665,0,0,1-.637.691.674.674,0,0,1-.693-.636c-.028-.677-.18-1.037-.319-1.078-.734-.249-2.937,1.078-9.282,8.82-.693.843-1,1.216-1.164,1.369a.673.673,0,0,1-.873.028.659.659,0,0,1-.139-.857c1.773-2.9,3.422-5.184,4.752-7.009,1.51-2.074,2.813-3.871,2.632-4.479-.069-.249-.152-.346-.18-.359-1.025-.207-4.724,4.175-7.689,7.714-1.7,2.032-3.63,4.327-5.583,6.456a.657.657,0,0,1-.845.111.643.643,0,0,1-.263-.8c.014-.028,1.372-3.415,2.7-7.092.679-1.866.333-3.207-.042-3.373-.208-.1-1.122.166-2.48,2.571-1.219,2.157-5.57,11.405-10.6,22.1-7.7,16.368-17.276,36.731-21.959,45.247-7.523,13.7-8.617,14.032-19.147,17.211l-1.843.553C1044.876,558.1,1044.807,558.115,1044.751,558.115Z" transform="translate(-1044.084 -466.069)" fill="#201000"/><path d="M1502.658,510.41a.708.708,0,0,1-.429-.152.672.672,0,0,1-.083-.94c.042-.041,3.657-4.382,6.013-6.967,4.364-4.769,5.722-4.092,6.179-3.871,1.205.594.859,2.474.734,3.083a.663.663,0,0,1-1.3-.249c.263-1.382-.014-1.645-.028-1.645s-1.067-.29-4.6,3.58c-2.341,2.557-5.93,6.871-5.971,6.912A.636.636,0,0,1,1502.658,510.41Z" transform="translate(-1438.551 -493.858)" fill="#201000"/><path d="M1212.762,659.86h-.028a.657.657,0,0,1-.637-.691l1.372-41.749a.74.74,0,0,1,.069-.29c2.23-4.258,11.333-22.921,19.369-39.385,6.747-13.824,13.12-26.888,14.894-30.344,3.949-7.7,11.735-17.7,14.159-20.6l.651-.774c1.358-1.6,2.757-3.276,2.66-3.885,0-.028-.014-.083-.152-.166-.831-.525-3.575,2.018-8.133,7.562-1.857,2.253-2.009,2.433-2.591,2.088a.672.672,0,0,1-.235-.912.654.654,0,0,1,.3-.276c.236-.221.873-1,1.5-1.756,4.018-4.88,7.786-9.152,9.864-7.852a1.487,1.487,0,0,1,.748,1.092c.194,1.217-1,2.613-2.951,4.949l-.637.76c-2.4,2.862-10.114,12.76-13.993,20.349-1.759,3.428-8.133,16.492-14.88,30.317-8.34,17.1-16.972,34.782-19.313,39.275l-1.372,41.6A.663.663,0,0,1,1212.762,659.86Zm42.312-129.353Zm0,0Zm0,0Zm-.014,0Zm-.028-.014c.014,0,.028.014.042.014C1255.046,530.507,1255.046,530.493,1255.032,530.493Zm0,0Z" transform="translate(-1188.819 -513.056)" fill="#201000"/><path d="M1437.734,578.379a.523.523,0,0,1-.138-.014.655.655,0,0,1-.513-.788c.72-3.456-1.746-6.4-1.773-6.428a.667.667,0,0,1,1.011-.871,9.6,9.6,0,0,1,2.064,7.562A.677.677,0,0,1,1437.734,578.379Z" transform="translate(-1380.97 -555.676)" fill="#201000"/><path d="M1215.274,990.817c-4.378.719-9.865-1.977-15.046-7.437a.688.688,0,0,0-.3-.18c-.208.387-.416.76-.624,1.133,4.863,5.115,10.072,7.921,14.533,7.921a9.989,9.989,0,0,0,1.455-.111l.485-1.217A.66.66,0,0,0,1215.274,990.817Z" transform="translate(-1177.796 -911.711)" fill="#201000"/></g><path d="M134.33,220.646l1.009,15.925,8.2,4.658,6.308-6.42V220.646Z" transform="translate(-68.905 -113.416)" fill="#0092d2"/><path d="M878.851,1255.029a.646.646,0,0,1-.319-.083l-8.313-4.645a.672.672,0,0,1-.332-.539l-1-16.257a.674.674,0,0,1,.18-.5.65.65,0,0,1,.485-.207h15.628a.656.656,0,0,1,.665.664v14.6a.658.658,0,0,1-.194.47l-6.318,6.3A.719.719,0,0,1,878.851,1255.029Zm-7.662-5.723,7.565,4.23,5.763-5.751v-13.658h-14.27Z" transform="translate(-804.362 -1126.764)" fill="#201000"/><g transform="translate(55.217 38.662)"><path d="M819.863,802.949a1.208,1.208,0,0,1-.139.083l-.125-.041a.639.639,0,0,0-.665.207.681.681,0,0,0-.277-.152c-1.787-6.511-10.266-3.732-12.372,1.065-1.94,4.382-.623,9.248-1.593,13.8a21.623,21.623,0,0,1-2.6,6.373c-.125.207-.263.429-.388.65,1.191,1.935,2.341,3.885,3.38,5.917a.809.809,0,0,1,.028.733,6.01,6.01,0,0,0,.707,0,12.933,12.933,0,0,0,8.811-4.935c2.217-2.792-.332-8.516-.513-11.916-.194-3.774,1.953-5.917,4.517-9.055a.719.719,0,0,0,.79-.442c.1-.207.18-.415.277-.622a6.235,6.235,0,0,1,.831-.567A.639.639,0,0,0,819.863,802.949Z" transform="translate(-801.7 -791.785)" fill="#201000"/><path d="M924.377,757.572c1.662-4.645,4.323-18.248-12.635-8.958s-15.628,31.2-5.32,33.855S924.377,757.572,924.377,757.572Z" transform="translate(-885.349 -745.44)" fill="#201000"/><path d="M876.313,825.576c-1.15,3.608-4.655,5.143-8.479,5.806L865.7,843.948c-2.66,6.3-10.308,6.3-13.3-.664.125-2.143,1.164-11.972,1.3-14.723-3.491-1.659-5.653-7.631-5.653-7.631-6.484.332-12.968-2.654-11.638-9.29.942-4.7,5.57-5.239,8.95-4.451a7.517,7.517,0,0,1,3.186,1.465s-.665-5.046,6.983-8.295c6.581-2.806,11.278-2.405,14.367,1.479a16.833,16.833,0,0,1,2.757,5.654C874.817,814.627,877.477,821.926,876.313,825.576Z" transform="translate(-831.452 -791.2)" fill="#c69870"/><path d="M855.235,845.172c-3.214,0-6.041-2.129-7.578-5.709a.742.742,0,0,1-.055-.3c.055-.954.291-3.456.554-6.11.291-3.055.623-6.47.734-8.184-2.923-1.673-4.835-5.931-5.417-7.341-4.406.111-8.243-1.217-10.322-3.608a7.355,7.355,0,0,1-1.524-6.5,6.14,6.14,0,0,1,2.7-4.147c2.549-1.631,5.777-1.12,7.052-.816a9.952,9.952,0,0,1,2.425.9c.291-1.852,1.621-5.267,7.329-7.7,6.955-2.958,11.915-2.405,15.157,1.673a17.63,17.63,0,0,1,2.882,5.875c.3,1.023.623,2.032.942,3.055,1.94,6.221,3.782,12.11,2.715,15.428h0c-1.039,3.249-3.824,5.267-8.534,6.179l-2.064,12.11c-.014.055-.028.1-.042.152-1.33,3.152-3.921,5.046-6.927,5.06A.043.043,0,0,0,855.235,845.172Zm-6.3-6.1c1.33,2.986,3.671,4.769,6.3,4.769h.014a6.288,6.288,0,0,0,5.667-4.175l2.12-12.483a.646.646,0,0,1,.54-.539c4.447-.774,7.052-2.53,7.966-5.35.928-2.931-.928-8.875-2.715-14.64-.319-1.009-.637-2.046-.942-3.055a16.172,16.172,0,0,0-2.646-5.433c-2.854-3.608-7.177-4.009-13.591-1.286-7.107,3.014-6.595,7.548-6.581,7.6a.67.67,0,0,1-.346.677.7.7,0,0,1-.762-.1,6.983,6.983,0,0,0-2.9-1.3,8.106,8.106,0,0,0-6.027.636,4.862,4.862,0,0,0-2.12,3.29,5.962,5.962,0,0,0,1.233,5.364c1.857,2.143,5.583,3.345,9.726,3.138a.687.687,0,0,1,.665.442c.028.055,2.106,5.737,5.32,7.258a.642.642,0,0,1,.374.636c-.083,1.548-.443,5.336-.762,8.668C849.236,835.675,849,838.039,848.932,839.075Zm23.248-17.6Z" transform="translate(-827.319 -787.102)" fill="#201000"/><path d="M1041.816,858.984a.75.75,0,0,1-.291-.069.667.667,0,0,1-.318-.885c1.316-2.765.166-5.53-4.378-10.562a.666.666,0,0,1,.984-.9c4.281,4.728,6.4,8.212,4.6,12.013A.624.624,0,0,1,1041.816,858.984Z" transform="translate(-1004.104 -832.405)" fill="#201000"/><ellipse cx="0.831" cy="0.829" rx="0.831" ry="0.829" transform="translate(24.689 17.123)" fill="#201000"/><ellipse cx="0.831" cy="0.829" rx="0.831" ry="0.829" transform="translate(37.047 14.468)" fill="#201000"/><path d="M973.889,841.195a.672.672,0,0,0-.914-.235c-.333.166-.665.332-1,.484a.667.667,0,1,0,.679,1.147c.333-.166.665-.332,1-.484A.669.669,0,0,0,973.889,841.195Z" transform="translate(-948.106 -827.68)" fill="#201000"/><path d="M1056.326,820.1h-.831a.664.664,0,0,0,0,1.327h.831A.664.664,0,0,0,1056.326,820.1Z" transform="translate(-1019.777 -809.779)" fill="#201000"/><path d="M875.441,895.08a.655.655,0,0,1-.6-.373c-.527-1.064-3.27-3.4-5.431-2.958a.67.67,0,1,1-.263-1.313c2.8-.553,6.1,2.1,6.886,3.677a.656.656,0,0,1-.291.885A.536.536,0,0,1,875.441,895.08Z" transform="translate(-859.342 -870.327)" fill="#201000"/><path d="M928.441,811.606c-.443-1.742-2.092-1.382-3.09-.373a14.756,14.756,0,0,0-3.408,6.387.6.6,0,0,0,.249.691c-.139.028-.263.083-.388.111-.845.166-.485,1.438.36,1.286C925.476,819.043,929.4,815.338,928.441,811.606Z" transform="translate(-904.75 -801.409)" fill="#201000"/><path d="M1086.29,865.319a1.331,1.331,0,0,1-.3-2.627c.263-.055,26.961-6.083,33.431-7.6.637-.152,1.427-.442,1.58-1.009a3.045,3.045,0,0,0-1.164-2.461c-.707-.664-1.33-.83-1.455-.774,0,0-.028.042-.069.111a8.4,8.4,0,0,0-.36.9.284.284,0,0,1,.083-.028,1.339,1.339,0,0,1,1.732.746,1.323,1.323,0,0,1-.748,1.728c-.346.138-2.161.788-3.256-.373s-.443-2.889.139-4.106a2.774,2.774,0,0,1,3.256-1.548,6.36,6.36,0,0,1,4.53,5.53c0,.912-.346,3.11-3.671,3.885-6.484,1.521-33.181,7.548-33.459,7.6A1.407,1.407,0,0,1,1086.29,865.319Z" transform="translate(-1045.71 -833.985)" fill="#0092d2"/><path d="M1079.03,951.313" transform="translate(-1039.462 -919.136)" fill="#fff"/><path d="M1074.81,947.782a.707.707,0,0,1-.43-.152.672.672,0,0,1-.083-.94c.111-.138,1.067-1.493-1.247-3.373a.662.662,0,0,1-.1-.94.678.678,0,0,1,.942-.1,4.774,4.774,0,0,1,2,3.166,2.963,2.963,0,0,1-.582,2.087A.611.611,0,0,1,1074.81,947.782Z" transform="translate(-1035.241 -914.941)" fill="#201000"/></g></g><g transform="translate(24.364 2.525)"><path d="M1499.34,967.963c-3.18,0-5.533-2.335-6.665-4.531a8.727,8.727,0,0,1-.954-3,6.38,6.38,0,0,1-1.119-.52c-1.514-.863-4.783-3.579-2.519-10.141a.611.611,0,0,1,1.157.393c-1.386,4.011-.661,7.184,1.972,8.681.165.089.331.178.5.254a4.465,4.465,0,0,1,.738-2.17,3,3,0,0,1,2.811-1.536,2.547,2.547,0,0,1,2.035,1.625,2.684,2.684,0,0,1-.534,2.78,4.117,4.117,0,0,1-3.74.939,7.917,7.917,0,0,0,.75,2.107c.979,1.878,2.964,3.871,5.584,3.871a.6.6,0,0,1,.611.609A.643.643,0,0,1,1499.34,967.963Zm-6.449-8.453a3.289,3.289,0,0,0,2.926-.482,1.482,1.482,0,0,0,.318-1.548,1.354,1.354,0,0,0-1.043-.863,1.917,1.917,0,0,0-1.666,1.015A3.373,3.373,0,0,0,1492.891,959.51Z" transform="translate(-1328.857 -878.376)" fill="#0092d2"/><path d="M755.764,503.6a14.674,14.674,0,0,1-4.121-.6.6.6,0,0,1-.382-.774.606.606,0,0,1,.776-.381c.318.1,7.772,2.488,10.557-3.338a7.31,7.31,0,0,0,.84-3.681,4.216,4.216,0,0,1-3.511-.787,1.894,1.894,0,0,1,.852-3.44,3.306,3.306,0,0,1,2.951,1.485,4.269,4.269,0,0,1,.509.9c.636-.762.8-2.094.445-3.846a.616.616,0,0,1,1.208-.241c.661,3.313-.42,4.772-1.285,5.394a8.158,8.158,0,0,1-.9,4.734C761.907,502.753,758.5,503.6,755.764,503.6Zm5.3-11.8a.478.478,0,0,0-.14.013.663.663,0,0,0-.585.482c-.127.33.127.635.356.825a2.987,2.987,0,0,0,2.468.52,3.2,3.2,0,0,0-.445-.825A2.186,2.186,0,0,0,761.068,491.8Z" transform="translate(-686.404 -475.928)" fill="#00da9f"/><path d="M1087.882,401.921h-.089a.621.621,0,0,1-.521-.685l1.526-10.661a.612.612,0,0,1,.687-.52.621.621,0,0,1,.521.685L1088.48,401.4A.593.593,0,0,1,1087.882,401.921Z" transform="translate(-979.702 -390.047)" fill="#0092d2"/><path d="M1171.959,494.336a.6.6,0,0,1-.356-.114.608.608,0,0,1-.127-.85l3.358-4.569a.609.609,0,0,1,.979.723l-3.358,4.569A.627.627,0,0,1,1171.959,494.336Z" transform="translate(-1053.094 -476.053)" fill="#0092d2"/><path d="M244.434,780.672a.621.621,0,0,1-.611-.571.61.61,0,0,1,.572-.647,4.361,4.361,0,0,0,3.854-2.3,5.684,5.684,0,0,0-.649-5.6,4.257,4.257,0,0,0-1.272-1.257,6.223,6.223,0,0,1-.191.736,3.165,3.165,0,0,1-2.251,2.348,1.792,1.792,0,0,1-1.768-.914,2.563,2.563,0,0,1-.471-1.916,2.3,2.3,0,0,1,1-1.447,3.62,3.62,0,0,1,2.582-.508,8.57,8.57,0,0,0-2.747-5.483.611.611,0,0,1,.865-.863,9.57,9.57,0,0,1,3.116,6.714,5.328,5.328,0,0,1,2.162,1.9,6.9,6.9,0,0,1,.738,6.816,5.509,5.509,0,0,1-4.872,2.97A.172.172,0,0,1,244.434,780.672Zm.14-10.89a2.265,2.265,0,0,0-1.259.343,1.072,1.072,0,0,0-.483.66,1.343,1.343,0,0,0,.28,1c.191.279.394.406.6.381.369-.051.929-.546,1.259-1.536a4.077,4.077,0,0,0,.191-.8A4.55,4.55,0,0,0,244.574,769.782Z" transform="translate(-241.612 -714.857)" fill="#f99"/><path d="M559.753,1410.4l-3.053,5.483,3.663,1.219,3.053-5.178Z" transform="translate(-516.621 -1280.897)" fill="#ffdf57"/><path d="M1130.5,1137.955l3.358,4.265,3.663-3.046-5.495-4.874Z" transform="translate(-1017.435 -1039.84)" fill="#99ffb6"/><path d="M1435.4,1103.137l6.411,8.529,2.747-3.655-5.19-7.311Z" transform="translate(-1283.552 -1010.504)" fill="#0092d2"/><path d="M1574.479,800.5l-4.579,3.363,3.358,3.046,3.663-4.264Z" transform="translate(-1400.944 -748.405)" fill="#f99"/><path d="M643.1,460.551l3.676,2.741,2.442-2.132-4.592-3.96Z" transform="translate(-592.031 -448.677)" fill="#0092d2"/><path d="M1305.8,1419.16l7.327,6.4,4.274-3.655-8.548-6.7Z" transform="translate(-1170.437 -1285.088)" fill="#00da9f"/><path d="M1400,1369.015a.611.611,0,0,1-.064-1.218l6.716-.609a.605.605,0,1,1,.115,1.206l-6.716.609C1400.036,1369,1400.023,1369.015,1400,1369.015Z" transform="translate(-1252.119 -1243.167)" fill="#0092d2"/><path d="M1154.5,641.832l6.411,5.483,3.358-1.828-6.106-5.788Z" transform="translate(-1038.382 -608.014)" fill="#f99"/></g></g></svg>