<svg xmlns="http://www.w3.org/2000/svg" width="500" height="343.004" viewBox="0 0 500 343.004"><g transform="translate(18086 20992)"><rect width="500" height="343" transform="translate(-18086 -20992)" fill="#edf5f7"/><g transform="translate(-18278.795 -21365.479)"><g transform="translate(257.054 465.386)"><path d="M561.5,959l.768,18.518,14.251-6.23Z" transform="translate(-485.948 -872.496)" fill="#99ffb6"/><circle cx="49.154" cy="49.154" r="49.154" transform="translate(9.501)" fill="#99ffb6"/><circle cx="44.404" cy="44.404" r="44.404" transform="translate(0 86.475)" fill="#f99"/><path d="M577.369,1327.994a1.392,1.392,0,0,1-1.138-.6L520.9,1246.81a1.369,1.369,0,1,1,2.247-1.564l55.327,80.587a1.394,1.394,0,0,1-.341,1.906A1.309,1.309,0,0,1,577.369,1327.994Z" transform="translate(-456.73 -1076.903)" fill="#f99"/><path d="M622.708,1129.391a1.34,1.34,0,0,1-1.28-.939l-52.6-155.713a1.39,1.39,0,0,1,.853-1.735,1.366,1.366,0,0,1,1.735.853l52.6,155.713a1.39,1.39,0,0,1-.853,1.735A1.415,1.415,0,0,1,622.708,1129.391Z" transform="translate(-491.146 -881.03)" fill="#99ffb6"/><path d="M517.3,1233.7l1.252,15.787,14.109-8.164Z" transform="translate(-454.321 -1069.056)" fill="#f99"/></g><text transform="translate(276.811 624.253) rotate(-31)" fill="#fff" font-size="30" font-family="OpenSans-SemiBold, Open Sans" font-weight="600" letter-spacing="0.015em"><tspan x="0" y="0">160+</tspan></text><text transform="translate(284.58 543.469) rotate(-25)" fill="#fff" font-size="32" font-family="OpenSans-SemiBold, Open Sans" font-weight="600" letter-spacing="0.015em"><tspan x="0" y="0">160+</tspan></text><path d="M113.941,304.893l-6.207-91.107-24.756-49.23,11.1-3.982,13.658-9.391,3.7-7.113,15.936,27.885,6.828,6.83,13.092,4.838,9.105,3.131,4.836,6.828,6.547,4.555,8.537-1.424L182,190.734l2.563-3.982,15.65-3.131,11.1-7.684,16.221-26.463,11.949,9.389,11.383,5.691h8.252l-24.756,49.23L231.424,304.9Z" transform="translate(287.563 411.586)" fill="#65c8ff"/><path d="M-17965-20883.746l24.658,46.023,33.035,68.76,17.52-6.141,11.561-14.631-42.809-89.59-17.744-37.512-7.59-9.3-2.35,5.025,5.557,17.314-25.33-27.789-3.422.855,2.354,8.551-7.162-3.957-3.418.537-4.705,3.42-.961,5.342-2.105,3.072Z" transform="translate(18277.016 21344.924)" fill="#c69870"/><g transform="translate(287.563 411.587)"><g transform="translate(0 0)"><path d="M576.451,653.891a1.917,1.917,0,0,1-.4-.057c-1.991-.6-3.84-1.166-5.547-1.65-20.026-5.974-21.021-6.912-35.586-33.509-9.586-17.551-29.271-59.452-45.087-93.132-10.354-22.017-19.258-41.047-21.761-45.485-2.788-4.95-4.665-5.519-5.092-5.291-.768.341-1.479,3.129-.085,6.941,2.759,7.538,5.519,14.507,5.547,14.593a1.315,1.315,0,0,1-.54,1.65,1.382,1.382,0,0,1-1.735-.228c-3.982-4.381-7.965-9.1-11.464-13.284-6.087-7.282-13.711-16.328-15.787-15.873-.057,0-.228.2-.37.74-.341,1.28,2.3,4.95,5.4,9.216,2.731,3.755,6.116,8.448,9.757,14.422a1.392,1.392,0,0,1-.284,1.764,1.348,1.348,0,0,1-1.792-.057c-.341-.313-.967-1.081-2.389-2.816-13.028-15.93-17.551-18.632-19.059-18.148-.284.085-.6.825-.654,2.219a1.366,1.366,0,0,1-1.422,1.309,1.349,1.349,0,0,1-1.308-1.422c.085-2.617.939-4.182,2.5-4.722,2.276-.768,5.518,1.166,9.615,5.063-2.389-3.442-3.556-5.718-3.015-7.623a3.277,3.277,0,0,1,2.418-2.674c3.556-.768,8.79,5.234,18.461,16.783,2.077,2.475,4.153,4.978,6.315,7.481-.853-2.247-1.821-4.836-2.816-7.51-1.707-4.722-1.081-9.188,1.508-10.383,1.479-.683,4.58-.74,8.619,6.457,2.56,4.523,11.065,22.671,21.846,45.656,15.787,33.651,35.444,75.5,45,92.961,14.45,26.4,14.82,26.512,33.964,32.2,1.707.512,3.556,1.052,5.547,1.678a1.379,1.379,0,0,1,.91,1.707A1.243,1.243,0,0,1,576.451,653.891Z" transform="translate(-420.07 -465.769)" fill="#201000"/><path d="M436.979,523.273a1.409,1.409,0,0,1-1.053-.484c-.085-.085-7.453-8.989-12.26-14.223-7.254-7.936-9.416-7.367-9.444-7.367,0,0-.569.54-.057,3.385a1.361,1.361,0,0,1-2.674.512c-.228-1.252-.967-5.12,1.508-6.343.91-.455,3.726-1.849,12.687,7.965,4.836,5.291,12.26,14.223,12.346,14.337a1.388,1.388,0,0,1-.171,1.934A1.625,1.625,0,0,1,436.979,523.273Z" transform="translate(-408.918 -489.13)" fill="#201000"/><path d="M516.408,807.218a1.39,1.39,0,0,1-1.365-1.28L509.5,720.571c-4.807-9.245-22.529-45.627-39.654-80.843-13.853-28.446-26.938-55.3-30.551-62.382-7.993-15.617-23.809-35.984-28.73-41.872l-1.309-1.565c-4.011-4.779-6.457-7.68-6.059-10.184a3.288,3.288,0,0,1,1.536-2.247c4.267-2.674,12.033,6.116,20.253,16.157,1.28,1.536,2.589,3.129,3.072,3.613a1.346,1.346,0,0,1,.626.569,1.36,1.36,0,0,1-.484,1.877c-1.195.711-1.508.341-5.319-4.3-9.359-11.407-14.991-16.641-16.7-15.56-.284.171-.284.284-.313.341-.2,1.252,2.674,4.694,5.462,7.993l1.308,1.593c4.978,5.974,20.965,26.568,29.072,42.384,3.613,7.083,16.726,33.964,30.579,62.439,16.5,33.879,35.188,72.281,39.767,81.042a1.178,1.178,0,0,1,.142.541l5.575,85.65a1.366,1.366,0,0,1-1.28,1.451C516.465,807.218,516.437,807.218,516.408,807.218Zm-89.6-265.94Zm0,0Zm.028,0Zm0,0Zm.057-.029c-.028,0-.057.029-.085.029A.124.124,0,0,0,426.889,541.249Zm.028,0Z" transform="translate(-403.151 -505.285)" fill="#201000"/><path d="M550.617,587.26a1.394,1.394,0,0,1-1.337-1.081c-1.735-8.448,4.011-15.275,4.238-15.56a1.384,1.384,0,0,1,1.934-.142,1.36,1.36,0,0,1,.142,1.934c-.057.057-5.12,6.116-3.641,13.227a1.384,1.384,0,0,1-1.052,1.621A.949.949,0,0,0,550.617,587.26Z" transform="translate(-507.479 -540.458)" fill="#201000"/><path d="M692.6,989.374a1.348,1.348,0,0,1-1.337-1.138,1.377,1.377,0,0,1,1.138-1.564c16.84-2.7,25.857-16.954,26.938-19.656a1.36,1.36,0,1,1,2.532,1c-1.906,4.75-12.317,18.66-29.043,21.334A.709.709,0,0,1,692.6,989.374Z" transform="translate(-609.294 -823.811)" fill="#201000"/></g><g transform="translate(182.319 0.085)"><path d="M-17777.33-20783.707l13.619,10.33,10.332,4.227h7.982l48.373-98.152,18.785-28.412,13.854-16.2v-4.227h-2.818v-6.34h-4.461v-5.4l-9.861,7.279-1.41-1.879,3.521-7.043-2.111-2.35-4.934,2.35-22.307,25.357,5.871-16.436-2.35-5.166-5.164,3.287Z" transform="translate(17822.455 20933.232)" fill="#c69870"/><path d="M1045.454,655.47a1.34,1.34,0,0,1-1.309-.967,1.379,1.379,0,0,1,.91-1.707l3.783-1.138c21.078-6.372,22.814-6.884,37.691-34.107,9.558-17.437,29.214-59.31,45-92.933,10.781-22.984,19.315-41.133,21.875-45.656,4.039-7.2,7.14-7.14,8.619-6.457,2.589,1.195,3.243,5.632,1.508,10.383-.967,2.674-1.934,5.262-2.816,7.51,2.162-2.5,4.267-5.006,6.315-7.481,9.7-11.577,14.906-17.551,18.461-16.783a3.277,3.277,0,0,1,2.418,2.674c.512,1.906-.654,4.182-3.015,7.623,4.1-3.9,7.339-5.831,9.615-5.063,1.564.54,2.418,2.133,2.5,4.722a1.368,1.368,0,0,1-1.309,1.422,1.386,1.386,0,0,1-1.422-1.309c-.057-1.394-.37-2.133-.654-2.219-1.508-.512-6.031,2.219-19.059,18.148-1.422,1.735-2.048,2.5-2.39,2.816a1.38,1.38,0,0,1-1.792.057,1.358,1.358,0,0,1-.285-1.764c3.641-5.974,7.026-10.667,9.757-14.422,3.1-4.267,5.775-7.965,5.4-9.216a1.367,1.367,0,0,0-.37-.74c-2.1-.427-9.7,8.591-15.787,15.873-3.5,4.182-7.453,8.9-11.464,13.284a1.347,1.347,0,0,1-1.735.228,1.325,1.325,0,0,1-.54-1.65c.029-.057,2.816-7.026,5.547-14.593,1.394-3.84.683-6.6-.085-6.941-.427-.2-2.3.341-5.092,5.291-2.5,4.438-11.435,23.468-21.761,45.485-15.816,33.68-35.472,75.581-45.087,93.1-15.446,28.19-17.693,28.873-39.312,35.415L1045.8,655.5C1045.71,655.442,1045.568,655.47,1045.454,655.47Z" transform="translate(-1044.084 -466.069)" fill="#201000"/><path d="M1503.36,523.2a1.451,1.451,0,0,1-.882-.313,1.386,1.386,0,0,1-.17-1.934c.085-.085,7.51-9.017,12.345-14.337,8.961-9.814,11.748-8.42,12.687-7.965,2.475,1.223,1.764,5.092,1.508,6.343a1.361,1.361,0,1,1-2.674-.512c.541-2.845-.028-3.385-.057-3.385s-2.19-.6-9.444,7.367c-4.807,5.262-12.175,14.138-12.26,14.223A1.307,1.307,0,0,1,1503.36,523.2Z" transform="translate(-1371.736 -489.143)" fill="#201000"/><path d="M1213.463,807.159h-.057a1.349,1.349,0,0,1-1.309-1.422l2.816-85.906a1.529,1.529,0,0,1,.142-.6c4.58-8.761,23.269-47.163,39.767-81.042,13.853-28.446,26.938-55.327,30.579-62.439,8.107-15.844,24.094-36.411,29.072-42.384l1.337-1.593c2.788-3.3,5.661-6.742,5.462-7.993,0-.057-.028-.171-.313-.341-1.707-1.081-7.339,4.153-16.7,15.56-3.812,4.637-4.125,5.007-5.319,4.3a1.385,1.385,0,0,1-.484-1.877,1.346,1.346,0,0,1,.626-.569c.484-.455,1.792-2.048,3.072-3.613,8.249-10.041,15.987-18.831,20.253-16.157a3.06,3.06,0,0,1,1.536,2.247c.4,2.5-2.048,5.376-6.059,10.184l-1.308,1.565c-4.921,5.888-20.766,26.255-28.73,41.872-3.613,7.055-16.7,33.936-30.551,62.382-17.124,35.187-34.846,71.57-39.654,80.815l-2.816,85.594A1.362,1.362,0,0,1,1213.463,807.159Zm86.874-266.168Zm0,0Zm0,0Zm-.028,0Zm-.057-.029c.028,0,.057.029.085.029C1300.28,540.991,1300.28,540.963,1300.251,540.963Zm0,0Z" transform="translate(-1164.304 -505.084)" fill="#201000"/><path d="M1440.455,587.189a1.069,1.069,0,0,1-.284-.028,1.348,1.348,0,0,1-1.052-1.621c1.479-7.111-3.584-13.17-3.641-13.227a1.371,1.371,0,0,1,2.076-1.792c.256.284,5.974,7.111,4.239,15.56A1.39,1.39,0,0,1,1440.455,587.189Z" transform="translate(-1323.908 -540.472)" fill="#201000"/><path d="M1232.1,998.874c-8.989,1.479-20.254-4.068-30.892-15.3a1.41,1.41,0,0,0-.626-.37c-.427.8-.853,1.565-1.28,2.333,9.984,10.525,20.68,16.3,29.84,16.3a20.492,20.492,0,0,0,2.987-.227l1-2.5A1.354,1.354,0,0,0,1232.1,998.874Z" transform="translate(-1155.148 -836.098)" fill="#201000"/></g><path d="M134.33,220.646l2.072,32.77L153.24,263l12.951-13.211V220.646Z" fill="#fff"/><path d="M889.344,1278.541a1.321,1.321,0,0,1-.654-.171l-17.068-9.558a1.384,1.384,0,0,1-.683-1.109l-2.048-33.452a1.388,1.388,0,0,1,.37-1.024,1.335,1.335,0,0,1,1-.427h32.087a1.348,1.348,0,0,1,1.365,1.365V1264.2a1.354,1.354,0,0,1-.4.967l-12.971,12.971A1.473,1.473,0,0,1,889.344,1278.541Zm-15.731-11.777,15.531,8.7,11.833-11.834v-28.1h-29.3Z" transform="translate(-736.405 -1014.612)" fill="#201000"/><g transform="translate(113.371 79.555)"><path d="M838.993,806.894a2.508,2.508,0,0,1-.284.171l-.256-.085a1.31,1.31,0,0,0-1.365.427,1.4,1.4,0,0,0-.569-.313c-3.669-13.4-21.078-7.68-25.4,2.19-3.982,9.017-1.28,19.03-3.271,28.389a44.547,44.547,0,0,1-5.348,13.114c-.256.427-.54.882-.8,1.337,2.446,3.982,4.807,7.993,6.941,12.175a1.668,1.668,0,0,1,.057,1.508,12.343,12.343,0,0,0,1.451,0c7.14-.455,13.938-4.921,18.092-10.155,4.551-5.746-.683-17.523-1.052-24.52-.4-7.766,4.011-12.175,9.273-18.632a1.476,1.476,0,0,0,1.621-.91c.2-.427.37-.853.569-1.28a12.823,12.823,0,0,1,1.707-1.166A1.315,1.315,0,0,0,838.993,806.894Z" transform="translate(-801.7 -783.921)" fill="#201000"/><path d="M951.312,770.4c3.413-9.558,8.875-37.549-25.943-18.433s-32.087,64.2-10.923,69.664C935.582,827.1,951.312,770.4,951.312,770.4Z" transform="translate(-871.18 -745.44)" fill="#201000"/><path d="M918.521,854.169c-2.361,7.424-9.558,10.582-17.409,11.947l-4.381,25.857c-5.462,12.971-21.164,12.971-27.308-1.365.256-4.409,2.389-24.634,2.674-30.295-7.168-3.414-11.606-15.7-11.606-15.7-13.313.683-26.625-5.462-23.894-19.116,1.934-9.672,11.435-10.781,18.376-9.16a15.42,15.42,0,0,1,6.542,3.015s-1.365-10.383,14.337-17.068c13.512-5.775,23.155-4.95,29.5,3.044a34.672,34.672,0,0,1,5.661,11.634C915.448,831.64,920.91,846.66,918.521,854.169Z" transform="translate(-826.413 -783.436)" fill="#c69870"/><path d="M880.3,899.523c-6.6,0-12.4-4.381-15.56-11.748a1.531,1.531,0,0,1-.114-.626c.114-1.963.6-7.112,1.138-12.573.6-6.286,1.28-13.313,1.508-16.84-6-3.442-9.928-12.2-11.122-15.1-9.046.228-16.925-2.5-21.192-7.424-3.072-3.584-4.182-8.192-3.129-13.37a12.635,12.635,0,0,1,5.547-8.534c5.234-3.357,11.862-2.3,14.479-1.678a20.4,20.4,0,0,1,4.978,1.849c.6-3.812,3.328-10.838,15.048-15.844,14.28-6.087,24.463-4.95,31.12,3.442a36.306,36.306,0,0,1,5.917,12.089c.626,2.1,1.28,4.182,1.934,6.286,3.982,12.8,7.766,24.919,5.575,31.746h0c-2.133,6.685-7.851,10.838-17.523,12.715l-4.238,24.919c-.028.114-.057.2-.085.313-2.731,6.486-8.05,10.383-14.223,10.411A.088.088,0,0,0,880.3,899.523Zm-12.943-12.545c2.731,6.144,7.538,9.814,12.943,9.814h.028c4.978-.028,9.33-3.214,11.634-8.591l4.352-25.687a1.328,1.328,0,0,1,1.109-1.109c9.131-1.593,14.479-5.206,16.356-11.009,1.906-6.031-1.906-18.262-5.575-30.124-.654-2.077-1.308-4.21-1.934-6.287a33.3,33.3,0,0,0-5.433-11.179c-5.86-7.424-14.735-8.249-27.905-2.645-14.593,6.2-13.54,15.531-13.512,15.645a1.379,1.379,0,0,1-.711,1.394,1.431,1.431,0,0,1-1.564-.2,14.321,14.321,0,0,0-5.945-2.674c-4.722-1.109-9.33-.626-12.374,1.308a10.006,10.006,0,0,0-4.352,6.77c-.882,4.381-.028,8.107,2.532,11.037,3.812,4.409,11.464,6.884,19.969,6.457a1.41,1.41,0,0,1,1.365.91c.057.114,4.324,11.8,10.923,14.934a1.321,1.321,0,0,1,.768,1.308c-.171,3.186-.91,10.98-1.564,17.836C867.981,879.98,867.5,884.844,867.355,886.978Zm47.732-36.212Z" transform="translate(-822.979 -780.033)" fill="#201000"/><path d="M1047.251,872.34a1.53,1.53,0,0,1-.6-.142,1.374,1.374,0,0,1-.654-1.821c2.7-5.689.341-11.378-8.989-21.733a1.369,1.369,0,1,1,2.02-1.849c8.79,9.728,13.142,16.9,9.444,24.719A1.281,1.281,0,0,1,1047.251,872.34Z" transform="translate(-969.821 -817.65)" fill="#201000"/><circle cx="1.707" cy="1.707" r="1.707" transform="translate(50.69 35.233)" fill="#201000"/><circle cx="1.707" cy="1.707" r="1.707" transform="translate(76.064 29.771)" fill="#201000"/><path d="M976.245,841.535a1.378,1.378,0,0,0-1.877-.484c-.683.341-1.365.683-2.048,1a1.371,1.371,0,0,0,1.394,2.361c.683-.341,1.365-.683,2.048-1A1.378,1.378,0,0,0,976.245,841.535Z" transform="translate(-923.308 -813.727)" fill="#201000"/><path d="M1057.88,820.1h-1.707a1.366,1.366,0,0,0,0,2.731h1.707A1.366,1.366,0,0,0,1057.88,820.1Z" transform="translate(-982.839 -798.862)" fill="#201000"/><path d="M882.633,900.072a1.345,1.345,0,0,1-1.223-.768c-1.081-2.19-6.713-7-11.151-6.087a1.378,1.378,0,0,1-.54-2.7c5.746-1.138,12.516,4.324,14.138,7.567a1.352,1.352,0,0,1-.6,1.821A1.1,1.1,0,0,1,882.633,900.072Z" transform="translate(-849.579 -849.137)" fill="#201000"/><path d="M935.938,812.894c-.91-3.584-4.3-2.845-6.343-.768-3.47,3.5-5.689,8.448-7,13.142a1.233,1.233,0,0,0,.512,1.422c-.284.057-.54.171-.8.228-1.735.341-1,2.958.74,2.645C929.85,828.2,937.9,820.575,935.938,812.894Z" transform="translate(-887.295 -791.913)" fill="#201000"/><path d="M1087.7,883.437a2.738,2.738,0,0,1-.626-5.4c.541-.114,55.356-12.516,68.64-15.645,1.308-.313,2.93-.91,3.243-2.076.341-1.28-.683-3.47-2.389-5.063-1.451-1.365-2.731-1.707-2.987-1.593,0,0-.057.085-.142.228a17.4,17.4,0,0,0-.74,1.849.589.589,0,0,1,.171-.057,2.739,2.739,0,0,1,2.02,5.092c-.711.284-4.437,1.621-6.685-.768-2.219-2.361-.91-5.945.285-8.448a5.691,5.691,0,0,1,6.685-3.186c4.267.939,9.273,6.116,9.3,11.378,0,1.878-.711,6.4-7.538,7.993-13.313,3.129-68.128,15.531-68.7,15.645A2.864,2.864,0,0,1,1087.7,883.437Z" transform="translate(-1004.38 -818.962)" fill="#0092d2"/><path d="M1076.925,953.757a1.451,1.451,0,0,1-.882-.313,1.386,1.386,0,0,1-.171-1.934c.228-.284,2.19-3.072-2.56-6.941a1.363,1.363,0,0,1-.2-1.934,1.389,1.389,0,0,1,1.934-.2c2.5,2.048,3.9,4.238,4.1,6.514a6.107,6.107,0,0,1-1.195,4.3A1.253,1.253,0,0,1,1076.925,953.757Z" transform="translate(-995.684 -886.181)" fill="#201000"/></g></g><g transform="translate(241.612 390.047)"><path d="M1514.215,991.048c-7.112,0-12.374-5.234-14.906-10.155a19.589,19.589,0,0,1-2.133-6.713,14.247,14.247,0,0,1-2.5-1.166c-3.385-1.934-10.7-8.022-5.632-22.728a1.367,1.367,0,1,1,2.589.882c-3.1,8.989-1.479,16.1,4.409,19.457.37.2.74.4,1.109.569a10.017,10.017,0,0,1,1.65-4.864c2.361-3.357,4.95-3.584,6.286-3.442a5.7,5.7,0,0,1,4.551,3.641,6.025,6.025,0,0,1-1.195,6.23c-1.65,1.934-4.921,2.645-8.363,2.1a17.776,17.776,0,0,0,1.678,4.722c2.19,4.21,6.628,8.676,12.488,8.676a1.348,1.348,0,0,1,1.365,1.365A1.44,1.44,0,0,1,1514.215,991.048ZM1499.793,972.1c3.015.626,5.632,0,6.543-1.081a3.328,3.328,0,0,0,.711-3.47,3.03,3.03,0,0,0-2.333-1.934c-1.251-.142-2.589.654-3.726,2.276A7.572,7.572,0,0,0,1499.793,972.1Z" transform="translate(-1132.959 -790.262)" fill="#0092d2"/><path d="M761.374,522.459a32.746,32.746,0,0,1-9.216-1.337,1.367,1.367,0,1,1,.882-2.589c.711.228,17.38,5.575,23.61-7.481a16.414,16.414,0,0,0,1.877-8.249,9.413,9.413,0,0,1-7.851-1.764,4.247,4.247,0,0,1,1.906-7.709c2.3-.313,4.893,1,6.6,3.328a9.585,9.585,0,0,1,1.138,2.02c1.422-1.707,1.792-4.694,1-8.619a1.378,1.378,0,1,1,2.7-.541c1.479,7.424-.939,10.7-2.873,12.089.4,2.617.085,6.173-2.02,10.61C775.113,520.553,767.49,522.459,761.374,522.459ZM773.236,496a1.067,1.067,0,0,0-.313.028,1.485,1.485,0,0,0-1.308,1.081c-.284.74.285,1.422.8,1.849a6.668,6.668,0,0,0,5.518,1.166,7.175,7.175,0,0,0-1-1.849A4.887,4.887,0,0,0,773.236,496Z" transform="translate(-606.262 -460.432)" fill="#00da9f"/><path d="M1088.642,416.659h-.2a1.392,1.392,0,0,1-1.166-1.536l3.413-23.895a1.37,1.37,0,0,1,1.536-1.166,1.392,1.392,0,0,1,1.166,1.536l-3.414,23.895A1.327,1.327,0,0,1,1088.642,416.659Z" transform="translate(-846.714 -390.047)" fill="#0092d2"/><path d="M1172.705,501.511a1.332,1.332,0,0,1-.8-.256,1.365,1.365,0,0,1-.284-1.906l7.51-10.24a1.363,1.363,0,1,1,2.19,1.621l-7.51,10.24A1.4,1.4,0,0,1,1172.705,501.511Z" transform="translate(-906.882 -460.534)" fill="#0092d2"/><path d="M247.923,803.755a1.39,1.39,0,0,1-1.365-1.28,1.366,1.366,0,0,1,1.28-1.451c4.039-.256,7.083-2.076,8.619-5.149,1.821-3.669,1.252-8.448-1.451-12.545a9.529,9.529,0,0,0-2.845-2.816,13.978,13.978,0,0,1-.427,1.65c-1,2.958-2.93,4.978-5.035,5.262a4.005,4.005,0,0,1-3.954-2.048,5.753,5.753,0,0,1-1.052-4.3,5.149,5.149,0,0,1,2.247-3.243,8.082,8.082,0,0,1,5.775-1.138c-.228-3.669-1.906-8.05-6.144-12.289a1.368,1.368,0,0,1,1.934-1.934c5.149,5.149,6.969,10.61,6.969,15.048a11.924,11.924,0,0,1,4.836,4.267c3.243,4.893,3.9,10.724,1.65,15.275-1.963,3.982-5.831,6.343-10.895,6.656A.382.382,0,0,1,247.923,803.755Zm.313-24.406a5.057,5.057,0,0,0-2.816.768,2.4,2.4,0,0,0-1.081,1.479,3.016,3.016,0,0,0,.626,2.247c.427.626.882.91,1.337.853.825-.114,2.077-1.223,2.816-3.442a9.156,9.156,0,0,0,.427-1.792A10.136,10.136,0,0,0,248.236,779.349Z" transform="translate(-241.612 -656.248)" fill="#f99"/><path d="M563.527,1410.4l-6.827,12.289,8.192,2.731,6.827-11.606Z" transform="translate(-467.071 -1120.152)" fill="#ffdf57"/><path d="M1130.5,1142.493l7.51,9.558,8.192-6.827-12.289-10.923Z" transform="translate(-877.648 -922.591)" fill="#99ffb6"/><path d="M1435.4,1106.162l14.337,19.115,6.144-8.192-11.606-16.385Z" transform="translate(-1095.817 -898.549)" fill="#0092d2"/><path d="M1580.141,800.5l-10.241,7.538,7.51,6.827,8.193-9.558Z" transform="translate(-1192.057 -683.743)" fill="#f99"/><path d="M643.1,464.71l8.221,6.144,5.462-4.779L646.513,457.2Z" transform="translate(-528.893 -438.098)" fill="#0092d2"/><path d="M1305.8,1424.075l16.385,14.337,9.558-8.192-19.116-15.019Z" transform="translate(-1003.083 -1123.587)" fill="#00da9f"/><path d="M1400.755,1371.286a1.369,1.369,0,0,1-.142-2.731l15.019-1.365a1.357,1.357,0,0,1,.256,2.7l-15.02,1.365C1400.84,1371.257,1400.812,1371.286,1400.755,1371.286Z" transform="translate(-1070.047 -1089.23)" fill="#0092d2"/><path d="M1154.5,644.479l14.337,12.289,7.51-4.1L1162.693,639.7Z" transform="translate(-894.821 -568.684)" fill="#f99"/></g></g></g></svg>