<svg xmlns="http://www.w3.org/2000/svg" width="262" height="262" viewBox="0 0 262 262"><g transform="translate(18588 17854)"><rect width="262" height="262" rx="5" transform="translate(-18588 -17854)" fill="#edf5f7"/><path d="M5,1A4,4,0,0,0,1,5V257a4,4,0,0,0,4,4H257a4,4,0,0,0,4-4V5a4,4,0,0,0-4-4H5M5,0H257a5,5,0,0,1,5,5V257a5,5,0,0,1-5,5H5a5,5,0,0,1-5-5V5A5,5,0,0,1,5,0Z" transform="translate(-18588 -17854)" fill="#b4def0"/><g transform="translate(-19061.572 -18488.176)"><g transform="translate(531.802 670.838)"><rect width="132.803" height="163.752" transform="translate(1.222 21.379)" fill="#fff"/><path d="M525.725,578.3h-132.8a1.239,1.239,0,0,0-1.222,1.222V743.274a1.239,1.239,0,0,0,1.222,1.222h132.8a1.239,1.239,0,0,0,1.222-1.222V579.522A1.239,1.239,0,0,0,525.725,578.3ZM524.5,742.077H394.143V580.743H524.5Z" transform="translate(-391.7 -558.143)" fill="#0092d2"/><rect width="132.803" height="163.752" transform="translate(12.624 9.977)" fill="#0092d2"/><path d="M566.622,519.868a1.206,1.206,0,0,1-1.222-1.222V500.322a1.222,1.222,0,1,1,2.443,0v18.325A1.222,1.222,0,0,1,566.622,519.868Z" transform="translate(-521.192 -499.1)" fill="#201000"/><path d="M699.822,519.868a1.206,1.206,0,0,1-1.222-1.222V500.322a1.222,1.222,0,1,1,2.443,0v18.325A1.206,1.206,0,0,1,699.822,519.868Z" transform="translate(-620.491 -499.1)" fill="#201000"/><path d="M833.022,519.868a1.206,1.206,0,0,1-1.222-1.222V500.322a1.222,1.222,0,1,1,2.443,0v18.325A1.206,1.206,0,0,1,833.022,519.868Z" transform="translate(-719.79 -499.1)" fill="#201000"/><path d="M589.967,757.827H547.014a.914.914,0,1,1,0-1.827h42.953a.914.914,0,1,1,0,1.827Z" transform="translate(-491.698 -690.308)" fill="#fff"/><path d="M583.581,948.143h-36.8c-.384,0-.683-.534-.683-1.222s.3-1.222.683-1.222h36.8c.384,0,.683.534.683,1.222S583.966,948.143,583.581,948.143Z" transform="translate(-520.992 -832.036)" fill="#fff"/><path d="M818.607,743.764a1.149,1.149,0,0,1-.636-.178,1.209,1.209,0,0,1-.407-1.68l11.606-18.936a1.222,1.222,0,1,1,2.087,1.273L819.65,743.179A1.184,1.184,0,0,1,818.607,743.764Z" transform="translate(-709.04 -665.553)" fill="#fff"/><path d="M884.2,553.571a15.041,15.041,0,0,1-2.851-.28,10.713,10.713,0,0,1-1.222-.305c-.407-.127-.814-.255-1.222-.407a15.8,15.8,0,0,1-3.105-1.654,17.85,17.85,0,0,1-1.527-1.222,13.558,13.558,0,0,1-1.2-1.222,14.653,14.653,0,0,1-3.563-9.57,4.916,4.916,0,0,1,.025-.611H867.1v.611a17.137,17.137,0,0,0,2.927,9.57,10.912,10.912,0,0,0,.916,1.222c.356.433.713.84,1.094,1.222a17.476,17.476,0,0,0,6.872,4.25c.407.127.814.255,1.222.356s.814.178,1.222.255a17.468,17.468,0,0,0,2.85.229,16.829,16.829,0,0,0,7.33-1.654v-2.774A14.372,14.372,0,0,1,884.2,553.571Z" transform="translate(-746.106 -528.323)" fill="#fff"/></g><g transform="translate(555.121 725.552)"><rect width="22.443" height="22.443" transform="translate(0.516 0.516)" fill="#fff"/><path d="M336.248,1108.375H313.816a.509.509,0,0,1-.516-.516v-22.443a.509.509,0,0,1,.516-.516h22.443a.516.516,0,0,1,.516.516v22.443A.532.532,0,0,1,336.248,1108.375Zm-21.917-1.031h21.412v-21.412H314.331Z" transform="translate(-313.3 -1084.9)" fill="#201000"/><path d="M367.716,1137.843a.52.52,0,0,1-.387-.172l-5.93-6.7a.517.517,0,0,1,.774-.688l5.436,6.145,6.618-12.742a.517.517,0,0,1,.913.484l-6.962,13.408a.519.519,0,0,1-.4.279A.136.136,0,0,0,367.716,1137.843Z" transform="translate(-356.113 -1119.268)" fill="#99ffb6"/></g><g transform="translate(592.283 781.509)"><path d="M990.789,1110.9l8.42.966-13.43-70.543-27.881-4.554-2.484,6.9Z" transform="translate(-899.63 -1000.091)" fill="#e7c1a0"/><g transform="translate(0 0)"><path d="M1037.153,1096.578a1.767,1.767,0,0,1-1.754-1.53c-.149-1.007-9.55-64.966-20.818-81.868a1.8,1.8,0,1,1,2.985-2.015c11.678,17.536,20.744,79.107,21.378,83.323a1.807,1.807,0,0,1-1.492,2.052A.821.821,0,0,1,1037.153,1096.578Z" transform="translate(-936.528 -983.541)" fill="#201000"/><g transform="translate(0 1.237)"><path d="M1022.823,1007.206l-6.9-2.612a1.774,1.774,0,0,0-1.38.037,1.659,1.659,0,0,0-.933,1.007l-6.194,16.342a1.8,1.8,0,0,0,1.045,2.313l6.9,2.612a11.012,11.012,0,0,0,3.731.709,10.228,10.228,0,0,0,4.291-.933,10.554,10.554,0,0,0-.56-19.476Z" transform="translate(-932.159 -981.079)" fill="#6b553d"/><path d="M840.521,943.015a1.788,1.788,0,0,0-2.239-1.157L825.223,946a1.735,1.735,0,0,0-1.119,1.045,1.83,1.83,0,0,0,.112,1.53l6.865,12.2a1.754,1.754,0,0,0,1.567.9,1.734,1.734,0,0,0,.858-.224,1.776,1.776,0,0,0,.672-2.425l-.746-1.306,4.552-12.014,1.343-.41A1.8,1.8,0,0,0,840.521,943.015Z" transform="translate(-817.24 -941.775)" fill="#fff"/><path d="M913.533,966.24a1.659,1.659,0,0,0-1.007-.933L851,941.913a1.8,1.8,0,0,0-2.313,1.045L842.494,959.3a1.774,1.774,0,0,0,.037,1.38,1.659,1.659,0,0,0,1.007.933l61.525,23.394a1.9,1.9,0,0,0,.634.112,1.811,1.811,0,0,0,1.679-1.157l6.194-16.342A1.775,1.775,0,0,0,913.533,966.24Z" transform="translate(-828.764 -941.792)" fill="#201000"/><path d="M814.408,952.12a1.894,1.894,0,0,1-.634-.112l-6.716-2.537a1.795,1.795,0,0,1,1.269-3.358l6.716,2.537a1.8,1.8,0,0,1,1.045,2.313A1.724,1.724,0,0,1,814.408,952.12Z" transform="translate(-805.902 -944.425)" fill="#201000"/></g><path d="M924.132,1010.069l12.315,14.626,28.725,60.727-41.445.6-2.878-23.193c-3.059-16.491-4.253-24.177-6.268-32.087-6.865-27.311-17.685-36.079-12.089-38.5C906.894,990.295,914.506,1006.823,924.132,1010.069Z" transform="translate(-865.48 -972.071)" fill="#e7c1a0"/><path d="M915.346,1077.96c-3.918-19.812-5.074-30.222-5.9-37.833a97.913,97.913,0,0,0-2.127-13.581,110.562,110.562,0,0,0-11.641-28.729c-3.171-5.783-5.261-9.589-1.53-12.163,4.888-3.358,9.29,2.537,13.581,8.246,3.955,5.3,8.47,11.268,12.872,10.3a1.779,1.779,0,0,1,.784,3.47c-6.679,1.492-11.939-5.485-16.529-11.641-3.88-5.186-6.753-8.768-8.656-7.462-.97.672-.037,2.574,2.649,7.462a114.887,114.887,0,0,1,11.977,29.587,97.319,97.319,0,0,1,2.239,14.066c.821,7.537,1.977,17.834,5.858,37.534C918.975,1080.432,916.449,1080.6,915.346,1077.96Z" transform="translate(-859.977 -967.43)" fill="#201000"/><path d="M902.005,949.735s-5.186.933-9.887,2.351c-6.044,1.828-5.447-8.1,6.9-8.805,5.671-.3,11.6,5.037,12.238,11.939" transform="translate(-857.607 -941.473)" fill="#e7c1a0"/><path d="M908.172,953.995a1.817,1.817,0,0,1-1.791-1.642c-.56-6.194-6.007-10.6-10.372-10.3-5.335.3-8.059,2.462-8.768,4.179a1.308,1.308,0,0,0-.075,1.119c.112.112.56.224,1.343-.037,4.739-1.418,9.887-2.351,10.074-2.388a1.8,1.8,0,1,1,.634,3.544,98.14,98.14,0,0,0-9.7,2.313,4.671,4.671,0,0,1-5.037-1.007,4.475,4.475,0,0,1-.56-4.888c1.157-2.836,4.925-6.007,11.9-6.417,6.865-.373,13.432,5.97,14.141,13.581a1.794,1.794,0,0,1-1.6,1.94Z" transform="translate(-854.521 -938.458)" fill="#201000"/><path d="M917.805,958.535s-5.186.933-9.887,2.351c-6.044,1.828-5.447-8.1,6.9-8.805,5.671-.3,11.6,5.037,12.238,11.939" transform="translate(-867.511 -946.99)" fill="#e7c1a0"/><path d="M923.972,962.795a1.817,1.817,0,0,1-1.791-1.642c-.56-6.193-5.932-10.6-10.372-10.3-5.335.3-8.059,2.463-8.768,4.179a1.308,1.308,0,0,0-.075,1.119c.112.112.56.224,1.343-.037,4.738-1.418,9.887-2.351,10.074-2.388a1.8,1.8,0,0,1,.634,3.545,98.116,98.116,0,0,0-9.7,2.313,4.671,4.671,0,0,1-5.037-1.007,4.475,4.475,0,0,1-.56-4.888c1.157-2.836,4.888-6.007,11.9-6.417,6.828-.373,13.432,5.97,14.141,13.581a1.794,1.794,0,0,1-1.6,1.94Z" transform="translate(-864.426 -943.975)" fill="#201000"/><path d="M935.405,966.133s-5.186.933-9.887,2.351c-6.044,1.828-5.447-8.1,6.9-8.805,4.067-.224,8.32,2.5,10.6,6.6" transform="translate(-878.545 -951.753)" fill="#e7c1a0"/><path d="M921.114,967.485a4.107,4.107,0,0,1-3.134-1.306,4.475,4.475,0,0,1-.56-4.888c1.157-2.836,4.888-6.007,11.9-6.417,4.738-.261,9.626,2.761,12.275,7.537a1.788,1.788,0,0,1-.709,2.425,1.756,1.756,0,0,1-2.425-.709c-1.977-3.582-5.559-5.9-8.917-5.671-5.335.3-8.059,2.463-8.768,4.179a1.308,1.308,0,0,0-.075,1.119c.112.112.56.224,1.343-.037,4.738-1.418,9.887-2.351,10.074-2.388a1.8,1.8,0,1,1,.634,3.545,98.122,98.122,0,0,0-9.7,2.313A7.685,7.685,0,0,1,921.114,967.485Z" transform="translate(-875.522 -948.739)" fill="#201000"/><path d="M952.505,973.731s-5.186.933-9.887,2.351c-6.044,1.828-5.447-8.1,6.9-8.805,5.671-.3,15.409,4.179,17.5,11.641Z" transform="translate(-889.265 -956.515)" fill="#e7c1a0"/><path d="M964,977.7a1.791,1.791,0,0,1-1.716-1.306c-1.791-6.38-10.559-10.6-15.67-10.335-5.335.3-8.059,2.462-8.768,4.179a1.308,1.308,0,0,0-.075,1.119c.112.112.56.224,1.343-.037,4.739-1.418,9.887-2.351,10.074-2.388a1.8,1.8,0,1,1,.634,3.544,98.111,98.111,0,0,0-9.7,2.313c-2.052.6-3.88.261-5.037-1.007a4.475,4.475,0,0,1-.56-4.888c1.157-2.836,4.925-6.007,11.9-6.417,6.305-.336,16.976,4.515,19.327,12.947a1.788,1.788,0,0,1-1.231,2.2A2.927,2.927,0,0,1,964,977.7Z" transform="translate(-886.242 -953.502)" fill="#201000"/></g></g></g></g></svg>