<svg xmlns="http://www.w3.org/2000/svg" width="576.285" height="426.497" viewBox="0 0 576.285 426.497"><g transform="translate(-314.362 -430.846)"><g transform="translate(314.362 489.098)"><g transform="translate(397.452 275.147)"><rect width="163.295" height="91.977" transform="translate(15.538)" fill="#99ffb6"/><path d="M1401.223,1303.132h-26.857a2.066,2.066,0,1,1,0-4.132h26.857a2.066,2.066,0,0,1,0,4.132Z" transform="translate(-1314.411 -1269.044)" fill="#fff"/><path d="M1509.051,1303.132h-43.385a2.066,2.066,0,0,1,0-4.132h43.385a2.04,2.04,0,0,1,2.066,2.066A2.066,2.066,0,0,1,1509.051,1303.132Z" transform="translate(-1366.415 -1269.044)" fill="#fff"/><path d="M1480.286,1368.032h-65.12a2.066,2.066,0,0,1,0-4.132h65.12a2.039,2.039,0,0,1,2.066,2.066A2.066,2.066,0,0,1,1480.286,1368.032Z" transform="translate(-1337.65 -1306.011)" fill="#fff"/></g><g transform="translate(33.416 113.272)"><path d="M660.659,853.3v73.9a48.612,48.612,0,0,0-6.112-.43c-.43,0-.818,3.1-1.119,3.357-24.662-2.41-84.359-12.224-104.373-1.377-19.411,10.5-25.394,30-23.758,55.78H392V853.3Z" transform="translate(-392 -853.3)" fill="#0092d2"/><path d="M494.808,931.832H464.766a2.066,2.066,0,0,1,0-4.132h30.042a2.066,2.066,0,1,1,0,4.132Z" transform="translate(-432.27 -895.678)" fill="#fff"/><path d="M527.347,1006.232H464.766a2.066,2.066,0,0,1,0-4.132h62.581a2.066,2.066,0,0,1,0,4.132Z" transform="translate(-432.27 -938.056)" fill="#fff"/><path d="M708.266,1006.232h-16.7a2.066,2.066,0,0,1,0-4.132h16.7a2.066,2.066,0,1,1,0,4.132Z" transform="translate(-561.455 -938.056)" fill="#fff"/><path d="M670.971,931.832H579.166a2.066,2.066,0,1,1,0-4.132h91.762a2.066,2.066,0,0,1,.043,4.132Z" transform="translate(-497.432 -895.678)" fill="#fff"/><path d="M635.367,997.92a2.187,2.187,0,0,1-.732-.129,2.07,2.07,0,0,1-1.205-2.668l14.2-37.187a2.07,2.07,0,0,1,3.874,1.463l-14.2,37.187A2.047,2.047,0,0,1,635.367,997.92Z" transform="translate(-529.445 -912.141)" fill="#fff"/><circle cx="2.582" cy="2.582" r="2.582" transform="translate(116.917 101.714) rotate(-81.182)" fill="#fff"/><circle cx="2.582" cy="2.582" r="2.582" transform="translate(116.911 117.558) rotate(-81.182)" fill="#fff"/><path d="M392,1024.8v4.175a50.348,50.348,0,0,1,43.385,49.8c0,1.162-.043,2.324-.129,3.443h4.132c.086-1.119.129-2.281.129-3.443A54.479,54.479,0,0,0,392,1024.8Z" transform="translate(-392 -950.986)" fill="#fff"/></g><g transform="translate(433.058 173.964)"><rect width="96.497" height="63.269" transform="translate(2.093 30.834) rotate(-17.326)" fill="#0092d2"/><path d="M1374.1,1041.263a2.957,2.957,0,0,1-.56-.086l-51.476-14.031a2.072,2.072,0,1,1,1.076-4l50.271,13.687,39.812-41.878a2.07,2.07,0,1,1,3.013,2.841l-40.63,42.739A1.958,1.958,0,0,1,1374.1,1041.263Z" transform="translate(-1320.528 -994.31)" fill="#fff"/></g><g transform="translate(0 249.721)"><rect width="111.26" height="114.358" transform="translate(3.589 2.099)" fill="#6b553d"/><path d="M431.261,1288.847a1.927,1.927,0,0,1-1.463-.646l-111.26-114.359a2.092,2.092,0,0,1,.043-2.927,2.053,2.053,0,0,1,2.927.043l111.26,114.359a2.092,2.092,0,0,1-.043,2.927A2.016,2.016,0,0,1,431.261,1288.847Z" transform="translate(-316.413 -1170.324)" fill="#fff"/><path d="M316.4,1289.448a1.927,1.927,0,0,1-1.463-.646,2.092,2.092,0,0,1,.043-2.927l114.358-111.26a2.053,2.053,0,0,1,2.927.043,2.092,2.092,0,0,1-.043,2.927L317.865,1288.845A2.206,2.206,0,0,1,316.4,1289.448Z" transform="translate(-314.362 -1172.431)" fill="#fff"/></g><g transform="translate(24.207 0)"><path d="M458.835,677.184l-72.867-16.7a19.777,19.777,0,0,1-14.849-23.715l7.145-31.247a19.964,19.964,0,0,1,7.188-11.277,19.752,19.752,0,0,1,16.527-3.615l72.867,16.7a19.79,19.79,0,0,1,14.892,23.715l-7.145,31.247a19.837,19.837,0,0,1-23.758,14.892Z" transform="translate(-370.604 -590.123)" fill="#f99"/><path d="M498.06,666.181a1.766,1.766,0,0,1-.473-.043l-65.809-15.064a2.078,2.078,0,1,1,.947-4.046l65.809,15.064a2.071,2.071,0,0,1-.473,4.089Z" transform="translate(-404.535 -622.505)" fill="#fff"/><path d="M488.76,706.781a1.764,1.764,0,0,1-.473-.043l-65.809-15.064a2.078,2.078,0,0,1,.947-4.046l65.809,15.064a2.071,2.071,0,0,1-.473,4.089Z" transform="translate(-399.238 -645.631)" fill="#fff"/></g><g transform="translate(405.715 129.197)"><path d="M1279.08,890.3v17.991L1257,923.4h147.456V890.3Z" transform="translate(-1257 -890.3)" fill="#6b553d"/><path d="M1401.042,931.332h-37.875a2.066,2.066,0,1,1,0-4.132h37.875a2.066,2.066,0,1,1,0,4.132Z" transform="translate(-1316.295 -911.318)" fill="#fff"/></g></g><g transform="translate(478.908 504.77)"><path d="M-15481.479-19902.066l-3.03-71.9v-62.637l6.355-20.5,12.292-14.145,13.976-6.9,22.226-2.357,21.216,1.01,23.067,4.209h7.408l4.716,12.629,6.229,5.559,11.956,2.525,11.954-1.516,6.4-3.705,12,24.168,20.712-4.041c5.178-1.01,18.856-10.945,18.856-10.945l6.9-9.182-4.42-9.76,21.553-1.348,18.521,4.715,9.766,11.613,6.9,23.914,5.977,85.451-2.357,30.814-7.072,9.934-10.944,6.566-17.511,1.01s-140.962-1.01-171.834-1.01S-15481.479-19902.066-15481.479-19902.066Z" transform="translate(15487.454 20246.93)" fill="#65c8ff"/><g transform="translate(62.679)"><path d="M1007.106,656.649c4.864-3.572,9.038-8.005,10.028-14.117,1.033-6.284-1.506-12.826-7.7-15.107-8.522-3.1-19.454,2.625-26.9,6.2a109.055,109.055,0,0,0-22.123,14.117,10.312,10.312,0,0,0-.947-7.36c-2.669-4.777-7.575-5.251-12.267-3.142-14.935,6.843-26.728,25.351-33.916,39.382a1.952,1.952,0,0,0,1.765,2.841.133.133,0,0,0,.043.086c.258.43.56.818.818,1.205,4.089,1.679,7.446,3.917,9.125,6.026,0,0,.344-15.839,25.394-22.209,21.563-5.466,35.767-2.023,43.385,11.406.086-.043.215-.086.3-.129a1.923,1.923,0,0,0,.99,0c6.671-1.592,18.593-6.2,14.849-15.667A7.375,7.375,0,0,0,1007.106,656.649Z" transform="translate(-882.588 -626.536)" fill="#201000"/><path d="M964.728,799.113c-5.251,10.545-16.743,13.6-28.794,13.816l.129,39.812s-3.056,17-27.46,12.439c-14.591-2.711-16.528-19.626-16.528-19.626s1.463-11.492,1.808-48.033c-9.942-6.757-13.73-26.169-13.73-26.169-20.057-2.066-38.564-14.333-31.29-34.131,5.165-14.031,19.583-13.472,29.612-9.426,4.089,1.679,7.446,3.917,9.125,6.026,0,0,.344-15.839,25.394-22.209,21.563-5.466,35.767-2.023,43.385,11.406,2.8,4.907,4.691,11.1,5.767,18.723C965.33,764.723,970.021,788.439,964.728,799.113Z" transform="translate(-845.116 -673.579)" fill="#e7c1a0"/><path d="M913.53,865.294a43.478,43.478,0,0,1-8.178-.818c-15.925-2.97-18.206-21.262-18.206-21.434v-.516c0-.129,1.42-11.621,1.765-46.742-8.35-6.456-12.266-20.659-13.343-25.351-13.6-1.722-24.748-7.661-29.956-16.011-3.788-6.069-4.347-13.213-1.593-20.7,2.023-5.509,5.466-9.34,10.287-11.492,8.608-3.831,18.292-.689,22.037.861a32.144,32.144,0,0,1,7.059,3.917c1.765-5.552,7.489-15.408,26.169-20.186,22.768-5.81,37.7-1.722,45.709,12.4,2.927,5.079,4.907,11.449,6.026,19.454.474,3.271.947,6.585,1.42,9.856,2.97,20.057,5.811,39.038.947,48.765h0c-4.648,9.34-14.031,14.246-28.579,14.892l.129,37.789a1.19,1.19,0,0,1-.043.387,18.516,18.516,0,0,1-7.575,11.018C923.9,863.96,919.168,865.294,913.53,865.294Zm-22.209-22.51c.3,1.98,2.625,15.365,14.849,17.6,8.178,1.506,14.634.689,19.2-2.453a14.193,14.193,0,0,0,5.81-8.178l-.129-39.6a2.058,2.058,0,0,1,2.023-2.066c14.031-.258,22.854-4.39,26.986-12.7h0c4.261-8.565,1.42-27.761-1.334-46.312-.473-3.271-.99-6.585-1.42-9.856-1.033-7.36-2.884-13.385-5.509-17.991-7.059-12.439-20.1-15.753-41.1-10.416-23.07,5.853-23.844,19.669-23.844,20.272a2.088,2.088,0,0,1-1.42,1.894,2.169,2.169,0,0,1-2.281-.646c-1.463-1.851-4.648-3.917-8.264-5.38-6.8-2.755-13.816-3.1-18.809-.9-3.744,1.635-6.456,4.734-8.048,9.125-2.324,6.327-1.937,12.094,1.205,17.087,4.691,7.489,15.538,12.955,28.364,14.289a2.055,2.055,0,0,1,1.808,1.679c.043.172,3.745,18.68,12.869,24.877a2.1,2.1,0,0,1,.9,1.722C892.784,828.452,891.536,840.8,891.321,842.784Zm70.586-46.441Z" transform="translate(-842.296 -670.81)" fill="#201000"/><path d="M1053.2,804.076a2.281,2.281,0,0,1-1.162-.344,2.079,2.079,0,0,1-.56-2.884c5.337-7.876,3.142-16.915-8.436-34.561a2.053,2.053,0,1,1,3.443-2.238c10.889,16.571,15.753,28.321,8.393,39.167A2.1,2.1,0,0,1,1053.2,804.076Z" transform="translate(-956.447 -704.324)" fill="#201000"/><circle cx="2.582" cy="2.582" r="2.582" transform="translate(56.775 68.999) rotate(-81.182)" fill="#201000"/><circle cx="2.582" cy="2.582" r="2.582" transform="translate(99.392 67.212) rotate(-81.182)" fill="#201000"/><path d="M978.073,763.915a2.1,2.1,0,0,0-1.851-2.238c-1.119-.215-2.281-.387-3.4-.6a2.069,2.069,0,0,0-2.238,1.851,2.1,2.1,0,0,0,1.851,2.238c1.119.215,2.281.387,3.4.6A2.1,2.1,0,0,0,978.073,763.915Z" transform="translate(-915.361 -703.157)" fill="#201000"/><path d="M1069.667,740.153l-2.539-.387c-2.625-.387-3.271,3.658-.646,4.089l2.539.387C1071.647,744.629,1072.293,740.54,1069.667,740.153Z" transform="translate(-969.037 -691.016)" fill="#201000"/><path d="M900.766,794.737a2.122,2.122,0,0,1-1.98-1.42c-1.119-3.529-8.479-12.008-15.236-11.707a2.012,2.012,0,0,1-2.152-1.98,2.067,2.067,0,0,1,1.98-2.152c8.909-.473,17.69,9.34,19.368,14.591a2.062,2.062,0,0,1-1.334,2.583A1.9,1.9,0,0,1,900.766,794.737Z" transform="translate(-864.567 -712.503)" fill="#201000"/><path d="M1080.031,857.812a2.125,2.125,0,0,0-2.841-.732l-3.615,1.549a2.075,2.075,0,0,0-.732,2.841,2.125,2.125,0,0,0,2.841.732l3.615-1.549A2.114,2.114,0,0,0,1080.031,857.812Z" transform="translate(-973.461 -757.715)" fill="#201000"/></g><g transform="translate(0 164.554)"><path d="M702.966,1191.283a2.065,2.065,0,0,1-2.066-1.894c-.043-.775-5.854-76.1-3.788-123.225.99-23.113,6.413-37.359,17.517-46.226,15.839-12.654,44.246-14.375,92.064-5.638a2.12,2.12,0,0,1,1.679,2.41,2.087,2.087,0,0,1-2.41,1.679c-46.57-8.479-73.9-7.016-88.749,4.821-10.071,8.049-15.021,21.348-15.968,43.17-2.023,46.871,3.745,121.977,3.788,122.708a2.1,2.1,0,0,1-1.894,2.238A.326.326,0,0,0,702.966,1191.283Z" transform="translate(-696.668 -1008.86)" fill="#201000"/><path d="M820.7,1317.958a2.049,2.049,0,0,1-2.066-1.98l-4.132-91.633a2.068,2.068,0,0,1,1.98-2.152,2.015,2.015,0,0,1,2.152,1.98l4.132,91.633a2.067,2.067,0,0,1-1.98,2.152Z" transform="translate(-763.783 -1130.37)" fill="#201000"/></g><g transform="translate(116.823 100.118)"><path d="M1063.512,914.246c-5.631-.037-40.131-10.986-44.435,11.74s9.379,53.7,22.334,70.919c4.573,6.077,9.851-.436,30.864-7,1.2-4.7,15.475-7.917,15.322-14.449-6.673-16.915-12.857-37.93-17.955-51.064-1.181-3.041,4.17-9.662-3.419-18.691C1065,912.137,1063.512,914.246,1063.512,914.246Z" transform="translate(-996.563 -886.841)" fill="#e7c1a0"/><path d="M998.139,896.918a2,2,0,0,1-.99-.258c-11.578-6.413-29.311-22.941-29.052-31.764a5.437,5.437,0,0,1,3.228-4.95c5.036-2.41,8.221.99,12.611,5.681,5.509,5.9,14.72,15.753,35.508,24.275,5.983,2.453,12.051-5.466,12.094-5.552a2.057,2.057,0,0,1,2.884-.387,2.1,2.1,0,0,1,.43,2.884c-.344.43-8.048,10.545-17,6.887-21.606-8.866-31.2-19.11-36.929-25.265-4.519-4.821-5.681-5.767-7.79-4.778a1.307,1.307,0,0,0-.861,1.334c-.172,5.81,14.677,21.3,26.9,28.062a2.063,2.063,0,0,1,.818,2.8A2.184,2.184,0,0,1,998.139,896.918Z" transform="translate(-968.093 -859.151)" fill="#201000"/><path d="M1190.212,1054.154a2.073,2.073,0,0,1-1.851-1.119c-6.542-13.041-63.958-127.83-59.869-142.034,1.894-6.671-1.506-15.925-5.466-21.692a2.072,2.072,0,0,1,3.4-2.367c4.648,6.757,8.307,17.173,6.026,25.179-2.755,9.6,34.131,88.405,59.611,139.021a2.046,2.046,0,0,1-.9,2.755A1.583,1.583,0,0,1,1190.212,1054.154Z" transform="translate(-1056.138 -874.482)" fill="#201000"/><path d="M1001.2,933.967a1.942,1.942,0,0,1-1.076-.3c-9.684-6.026-13.472-16.14-9-24.146a2.053,2.053,0,1,1,3.572,2.023c-3.4,6.069-.3,13.73,7.575,18.593a2.092,2.092,0,0,1,.689,2.841A2.053,2.053,0,0,1,1001.2,933.967Z" transform="translate(-980.149 -887.247)" fill="#201000"/><path d="M995.725,956.595a2.076,2.076,0,0,1-1.291-.473c-9-7.317-11.664-16.011-7.274-23.8a2.053,2.053,0,1,1,3.572,2.023c-3.357,5.94-1.119,12.525,6.284,18.551a2.063,2.063,0,0,1,.3,2.927A2.036,2.036,0,0,1,995.725,956.595Z" transform="translate(-977.774 -900.234)" fill="#201000"/><path d="M1097.792,1166.826a33.014,33.014,0,0,1-10.889-1.722c-16.484-5.853-24.017-26.125-39.038-66.454-5.036-13.558-10.76-28.923-17.948-46.828-17-42.309-25.351-55.436-34.82-64.948-6.37-6.37-17.087-20.659-12.223-29.354a2.053,2.053,0,1,1,3.572,2.023c-2.884,5.165,3.572,16.442,11.535,24.4,11.363,11.363,20.4,28.105,35.724,66.325,7.231,17.948,12.955,33.356,17.991,46.914,14.591,39.167,21.908,58.793,36.584,64,5.552,1.98,14.849,2.367,22.166-1.42,5.509-2.884,9.3-7.7,11.147-14.419,5.81-20.745,1.98-59.525-1.076-90.686l-.6-6.026c-2.841-29.182-7.231-43.213-15.624-50.013-8.049-6.5-20.358-6.542-40.2-4.3a2.058,2.058,0,1,1-.474-4.089c20.961-2.367,34.088-2.281,43.3,5.165,9.34,7.575,14.16,22.381,17.13,52.811l.6,6.026c3.1,31.506,6.973,70.715.947,92.236-2.2,7.833-6.628,13.558-13.213,16.958A31.625,31.625,0,0,1,1097.792,1166.826Z" transform="translate(-975.813 -914.587)" fill="#201000"/><path d="M1075.359,1086.847a2.068,2.068,0,0,1-.129-4.132c31.333-1.765,41.319-19.627,41.663-20.358a2.06,2.06,0,0,1,3.7,1.808c-.387.818-11.233,20.789-45.149,22.682Z" transform="translate(-1028.011 -974.232)" fill="#201000"/></g></g><g transform="translate(480.883 430.846)"><circle cx="2.582" cy="2.582" r="2.582" transform="matrix(0.885, -0.467, 0.467, 0.885, 52.531, 122.305)" fill="#201000"/><path d="M749.825,633.348a2.185,2.185,0,0,1-1.679-.818l-13.558-18.249a2.124,2.124,0,0,1-.387-1.593,2.031,2.031,0,0,1,.9-1.377c.129-.086,12.955-8.565,14.763-19.842.818-5.036-.732-9.942-4.562-14.677-14.806-18.335-40.5.387-40.759.6a2.062,2.062,0,1,1-2.453-3.314c.3-.215,29.138-21.262,46.441.129,4.562,5.681,6.413,11.707,5.423,17.948-1.679,10.459-10.846,18.421-14.806,21.391l12.31,16.571a2.065,2.065,0,0,1-.43,2.884A2.314,2.314,0,0,1,749.825,633.348Z" transform="translate(-701.256 -517.345)" fill="#201000"/><circle cx="2.582" cy="2.582" r="2.582" transform="matrix(0.132, -0.991, 0.991, 0.132, 146.141, 61.817)" fill="#201000"/><path d="M1038.952,506.523a2.086,2.086,0,0,1-2.066-2.023l-.344-14.978a2.151,2.151,0,0,1,.6-1.506,2.255,2.255,0,0,1,1.549-.6c.086,0,9.942.344,14.978-4.821,2.238-2.281,3.185-5.251,2.97-9.081-.9-14.849-21.219-14.591-21.434-14.591a2.064,2.064,0,0,1-2.109-2.023,2.04,2.04,0,0,1,2.023-2.109c8.436-.215,24.705,3.443,25.652,18.464.3,4.993-1.076,9.125-4.132,12.223-4.734,4.821-12.223,5.854-15.882,6.026l.258,12.912a2.066,2.066,0,0,1-2.023,2.109Z" transform="translate(-890.271 -454.78)" fill="#201000"/><circle cx="2.582" cy="2.582" r="2.582" transform="matrix(0.545, -0.838, 0.838, 0.545, 220.36, 186.092)" fill="#201000"/><path d="M1231.25,721.706a2.038,2.038,0,0,1-1.894-2.884l13.988-31.118a2.2,2.2,0,0,1,1.205-1.119,2.156,2.156,0,0,1,1.636.129c.215.129,21.047,10.932,37.617,4.864,7.446-2.712,13-8.522,16.528-17.259,13.6-33.744-30.645-54.1-31.075-54.317a2.052,2.052,0,0,1,1.679-3.745c.473.215,48.291,22.252,33.227,59.611-3.96,9.856-10.33,16.441-18.938,19.583-15.365,5.6-33.1-1.42-38.995-4.132L1233.1,720.457A1.938,1.938,0,0,1,1231.25,721.706Z" transform="translate(-1001.955 -546.651)" fill="#201000"/></g></g></svg>