<svg xmlns="http://www.w3.org/2000/svg" width="635.375" height="389.048" viewBox="0 0 635.375 389.048"><g transform="translate(-223.134 -440.949)"><g transform="translate(-37.6 -1827.232)"><rect width="275" height="182" rx="5" transform="translate(586 2307)" fill="#201000"/><text transform="translate(846 2403)" fill="#fff" font-size="21" font-family="Cutive-Regular, Cutive"><tspan x="-241.572" y="0">Complete Premium</tspan><tspan x="-100.632" y="30">Package</tspan></text><text transform="translate(601 2361)" fill="#fff" font-size="44" font-family="OpenSans-Regular, Open Sans"><tspan x="0" y="0">$577</tspan></text><text transform="translate(846 2467)" fill="#fff" font-size="18" font-family="OpenSans-Regular, Open Sans"><tspan x="-70.374" y="0">1+ years</tspan></text></g><path d="M72.6,29.432c.353-1.765-1.059-3.883-2.824-3.883L49.655,22.725,40.477,4.369a2.756,2.756,0,0,0-1.412-1.412,3.572,3.572,0,0,0-4.942,1.412L25.3,22.725,5.177,25.549a2.134,2.134,0,0,0-2.118,1.059,3.412,3.412,0,0,0,0,4.942L17.532,45.67,14,65.79a4.477,4.477,0,0,0,.353,2.118A3.572,3.572,0,0,0,19.3,69.32l18-9.531,18,9.531a2.645,2.645,0,0,0,1.765.353h.706A3.661,3.661,0,0,0,60.6,65.437l-3.53-20.121L71.541,31.2A1.941,1.941,0,0,0,72.6,29.432Z" transform="translate(785.855 438.49)" fill="#fd0"/><g transform="translate(223.134 513.475)"><g transform="translate(0.001 128.42)"><path d="M286.738,1829.722l28.234,20.356,3.723-7.88,5.91-4.159,38.744,7.225-5.254,33.271-17.207,4.062-5.777,4.038L318.7,1896.7l-10.289-1.751-24.734-14.885-22.107-15.322,1.752-9.413,3.939-10.067,10.943-12.039Z" transform="translate(-194.734 -1710.028)" fill="#c69870"/><path d="M-16997.02-19149.053l-34.348-24.248-28.613-29.1-2.277-13.793,2.51-9.312,8.648-11.426,12.752-8.865,51.732-22.473,61.07-20.795,40.6-8.832,35.313,33.27,18.674-38.812,12.277,3.582s18.043.506,25.047,35.23,11.787,66.553,11.787,66.553l21.8-44.369,6.494,9.7,13.133,8.465,17.8,3.209h0l-36.586,80.457s-32.834,36.369-52.715-18.588c-.289,19.846-2.164,28.061-2.164,28.061l-101.307-.252,2.793-1.256h10.795l3.795-9.625v-15.178l1.752-9.043-8.172-2.918-29.182,6.123,6.07-70.9-76.693,21.873,33.559,26.85-12.549,6.713-11.383,17.51Z" transform="translate(17063.242 19303.783)" fill="#65c8ff"/><path d="M-16889.131-19303.7l-10.1,38.836,10.1,8.533,7.859-47.369Z" transform="translate(17112.883 19303.701)" fill="#edf5f7"/><path d="M-16925.6-19299.268l7.406-2.02,26.043,35.018-7.186,12.346Z" transform="translate(17104.906 19304.43)" fill="#edf5f7"/></g><g transform="translate(124.494 0)"><path d="M631.272,751.111c2.157,17.81,25.219,16.349,32.976,3.583,5.148-8.488,3.722-18.436.626-27.341-2.052-5.879-5.044-11.792-5.322-18.123-.348-8.488,4.9-14.575,10.47-20.106v.035c.522,2.087,3.722,1.217,3.235-.9-3.792-15.758-23.1-12.314-30.194-1.183-5.67,8.94-5.044,19.967-5.392,30.124-.243,8.035-2.052,14.436-4.487,21.949C632,743.041,630.75,747.006,631.272,751.111Z" transform="translate(-631.15 -643.682)" fill="#201000"/><path d="M797.754,608.215c10.783-14.158,2.435-33.359-12.592-26.68s-46.056,26.367-47.238,46.612-3.722,43.586,18.819,46.925S797.754,608.215,797.754,608.215Z" transform="translate(-700.303 -580.167)" fill="#201000"/><path d="M781.566,706.247c-1.913,9.322-10.262,14.123-19.619,16.8l-2.5,28.837s-3.9,16.7-10.018,36.733c-13.914-18.367-25.88-34.507-25.88-34.507s.278-10.018,2.365-34.368c-9.148-3.235-16.14-17.6-16.14-17.6-16.106,2.539-33.081-3.2-31.55-20.175,1.113-12.036,12.523-14.61,21.149-13.5a18.714,18.714,0,0,1,8.348,2.818s-2.992-12.453,15.236-22.61c15.688-8.766,27.515-9.009,36.281-.1q4.8,4.853,8.383,13.427C774.922,679.254,783.514,696.82,781.566,706.247Z" transform="translate(-661.783 -620.49)" fill="#c69870"/><path d="M746.408,787.15a1.647,1.647,0,0,1-1.322-.661c-13.775-18.158-25.776-34.368-25.915-34.542a1.61,1.61,0,0,1-.313-1.044c0-.1.278-9.983,2.3-33.22-7.688-3.479-13.531-13.5-15.305-16.871-10.992,1.461-20.906-.835-26.715-6.3-4.209-3.931-6.122-9.427-5.531-15.862a15.38,15.38,0,0,1,5.635-11.1c5.948-4.766,14.158-4.313,17.393-3.9a25.6,25.6,0,0,1,6.3,1.6c.209-4.7,2.644-13.6,16.279-21.184,16.558-9.253,29.08-9.183,38.264.174,3.339,3.374,6.192,7.931,8.731,13.949,1.044,2.47,2.122,4.94,3.165,7.375,6.5,15.062,12.662,29.289,10.888,37.881h0c-1.739,8.383-8.174,14.192-19.688,17.74l-2.4,27.689c0,.07-.035.174-.035.243-.035.174-3.966,16.975-10.053,36.838a1.663,1.663,0,0,1-1.322,1.148A1.6,1.6,0,0,1,746.408,787.15Zm-24.21-36.7c1.948,2.644,11.931,16.071,23.55,31.411,5.253-17.5,8.7-31.968,9.009-33.394l2.5-28.733a1.632,1.632,0,0,1,1.217-1.461c10.923-3.131,16.94-8.175,18.471-15.514,1.565-7.583-4.661-21.984-10.679-35.9-1.078-2.47-2.122-4.94-3.165-7.409a40.916,40.916,0,0,0-8.035-12.905c-8.1-8.244-18.993-8.14-34.263.383-16.94,9.427-14.436,20.662-14.436,20.767a1.619,1.619,0,0,1-.7,1.774,1.675,1.675,0,0,1-1.913-.035,18.061,18.061,0,0,0-7.583-2.5c-5.879-.731-11.444.452-14.853,3.2a12.235,12.235,0,0,0-4.418,8.8c-.487,5.426,1.009,9.844,4.487,13.114,5.218,4.87,14.818,6.887,25.115,5.253a1.705,1.705,0,0,1,1.774.9c.07.139,6.818,13.81,15.2,16.767a1.651,1.651,0,0,1,1.113,1.7C722.754,737.581,722.3,747.982,722.2,750.452Zm56.352-47.343Z" transform="translate(-658.767 -617.352)" fill="#201000"/><path d="M887.966,719.106a1.575,1.575,0,0,1-.557-.1,1.653,1.653,0,0,1-1.009-2.122c2.539-7.27-1.044-13.879-13.74-25.254a1.675,1.675,0,1,1,2.226-2.5c11.931,10.679,18.158,18.854,14.679,28.837A1.668,1.668,0,0,1,887.966,719.106Z" transform="translate(-788.289 -650.951)" fill="#201000"/><circle cx="2.087" cy="2.087" r="2.087" transform="translate(68.121 46.378) rotate(-6.067)" fill="#201000"/><circle cx="2.087" cy="2.087" r="2.087" transform="translate(94.975 38.032) rotate(-6.067)" fill="#201000"/><path d="M854.662,803.571a6.481,6.481,0,0,1-8.9-5.148c-.313-2.122-3.652-1.774-3.3.348a9.893,9.893,0,0,0,13.462,7.9C857.9,805.9,856.68,802.805,854.662,803.571Z" transform="translate(-768.934 -721.57)" fill="#201000"/><path d="M822.037,685.469a1.7,1.7,0,0,0-2.331-.348c-.8.487-1.565,1.009-2.365,1.5a1.664,1.664,0,0,0-.348,2.331,1.7,1.7,0,0,0,2.331.348c.8-.487,1.565-1.009,2.365-1.5A1.736,1.736,0,0,0,822.037,685.469Z" transform="translate(-752.136 -648.411)" fill="#201000"/><path d="M890.91,659.976l-2.087.209c-2.122.244-1.774,3.548.348,3.3l2.087-.209A1.663,1.663,0,0,0,890.91,659.976Z" transform="translate(-798.259 -632.206)" fill="#201000"/><path d="M727.663,760.035a1.647,1.647,0,0,1-1.391-.765c-1.6-2.5-9.079-7.618-14.331-5.983a1.661,1.661,0,1,1-1.009-3.165c6.818-2.157,15.758,3.618,18.158,7.374a1.65,1.65,0,0,1-.522,2.3A2.065,2.065,0,0,1,727.663,760.035Z" transform="translate(-682.425 -690.696)" fill="#201000"/><path d="M754.619,684.14c3.931,2.261,7.3-2.157,8.94-5.183a26.816,26.816,0,0,0,2.992-16.14c-.244-2.122-3.583-2.122-3.339,0l.1,1.252a1.568,1.568,0,0,0-.383.1,20.8,20.8,0,0,0-9.566,10.331C752.184,677.5,751.244,682.192,754.619,684.14Z" transform="translate(-710.146 -633.029)" fill="#201000"/></g><g transform="translate(0 78.562)"><g transform="translate(177.369 50.595)"><line y2="141.158" transform="translate(72.057 31.735)" fill="#fff"/><path d="M987.17,1182.463a1.648,1.648,0,0,1-1.67-1.67V1039.67a1.648,1.648,0,0,1,1.67-1.67,1.67,1.67,0,0,1,1.67,1.67v141.124A1.67,1.67,0,0,1,987.17,1182.463Z" transform="translate(-915.113 -1007.899)" fill="#201000"/><path d="M810.545,1004.909a1.61,1.61,0,0,1-1.426-.835l-25.741-44.247a1.676,1.676,0,0,1,2.887-1.7L810.579,999.9l5.948-10.3a1.617,1.617,0,0,1,1.148-.8,1.6,1.6,0,0,1,1.357.348l8.7,7.061L833.99,952.9a1.668,1.668,0,1,1,3.3.452l-6.679,46.195a1.643,1.643,0,0,1-1.044,1.322,1.8,1.8,0,0,1-1.67-.243l-9.462-7.688-6.4,11.1a1.765,1.765,0,0,1-1.5.87Z" transform="translate(-783.152 -951.467)" fill="#201000"/></g><g transform="translate(0 53.405)"><path d="M687.619,1396.464a1.669,1.669,0,0,1-1.461-.87,1.638,1.638,0,0,1,.661-2.261,3.911,3.911,0,0,0,1.913-4.035c-.139-.87-.765-2.331-3.131-2.713l-.348-.07c-5.635-.87-12.7-1.948-22.68,3.861a1.676,1.676,0,1,1-1.7-2.887c11.027-6.435,19.027-5.183,24.871-4.279l.348.07a6.627,6.627,0,0,1,5.913,5.426,7.254,7.254,0,0,1-3.583,7.514A1.513,1.513,0,0,1,687.619,1396.464Z" transform="translate(-525.504 -1235.354)" fill="#201000"/><path d="M691.418,1370.764a1.669,1.669,0,0,1-1.461-.87,1.638,1.638,0,0,1,.661-2.261,3.912,3.912,0,0,0,1.913-4.035c-.139-.87-.765-2.331-3.131-2.713l-.348-.07c-5.635-.87-12.7-1.948-22.68,3.861a1.676,1.676,0,1,1-1.7-2.887c11.027-6.435,19.028-5.183,24.871-4.279l.348.07a6.627,6.627,0,0,1,5.913,5.426,7.254,7.254,0,0,1-3.583,7.514A1.354,1.354,0,0,1,691.418,1370.764Z" transform="translate(-527.982 -1218.594)" fill="#201000"/><path d="M544.445,1220.933a1.668,1.668,0,0,1-1.461-.87,1.637,1.637,0,0,1,.661-2.261,3.911,3.911,0,0,0,1.913-4.035c-.139-.87-.765-2.331-3.131-2.713-5.774-.87-21.81.557-31.968,6.5a1.649,1.649,0,0,1-1.739-.035,1.671,1.671,0,0,1-.765-1.565l1.148-11.1c-2.47,1.322-3.826,4.209-4.94,6.609-.939,2.018-1.67,3.583-3.1,4.07a2.559,2.559,0,0,1-2.018-.139c-2.713-1.357-51-40.246-60.631-48a1.717,1.717,0,0,1-.626-1.426,1.682,1.682,0,0,1,.8-1.322c4.522-2.713,70.649-21.706,78.162-23.863a1.727,1.727,0,0,1,1.531.313,1.662,1.662,0,0,1,.591,1.461l-7.27,70.649c10.853-5.148,25.532-6.331,31.341-5.427a6.628,6.628,0,0,1,5.913,5.427,7.254,7.254,0,0,1-3.583,7.514A1.853,1.853,0,0,1,544.445,1220.933Zm-101.816-54.4c21.845,17.6,52.8,42.368,57.43,45.569a22.4,22.4,0,0,0,1.044-2.052c1.426-3.026,3.548-7.618,8.348-8.905l5.809-56.491C489.137,1152.163,452.508,1162.946,442.629,1166.529Z" transform="translate(-380.557 -1077.703)" fill="#201000"/><path d="M394.393,1144.1c-.487,0-.974-.035-1.5-.069-8.7-.8-48.63-26.785-77.154-48.595-23.376-17.88-41.36-32.628-42.368-45.882-2.4-31.2,31.481-43.551,78.336-60.665l7.792-2.852c46.021-16.836,53.082-19.445,99.729-26.471a1.673,1.673,0,1,1,.522,3.3c-46.3,6.992-52.282,9.183-99.068,26.3l-7.792,2.852c-45.5,16.593-78.371,28.593-76.18,57.256.9,11.862,19.132,26.715,41.081,43.516,33.742,25.811,68.875,47.343,75.414,47.934,6.157.556,11.166-3.339,16.488-7.479,5.113-3.965,10.366-8.1,16.8-7.861,4.7.174,7.9-.9,8.488-2.887a1.986,1.986,0,0,0-.452-2.052c-1.878-1.113-12.905-3.061-23.237,3.965a1.679,1.679,0,0,1-1.878-2.783c12-8.14,24.384-5.531,26.819-4.07a5.294,5.294,0,0,1,1.948,5.879c-.626,2.122-2.992,5.6-11.792,5.287-5.148-.209-9.775,3.374-14.645,7.166C406.5,1139.925,401.141,1144.1,394.393,1144.1Z" transform="translate(-273.255 -959.544)" fill="#201000"/><path d="M464.656,1327.345a1.668,1.668,0,0,1-1.635-1.322c-1.67-7.514,1.656-17.13,8.891-26.174,6.018-7.514,12.644-11.987,17.758-11.987a1.648,1.648,0,0,1,1.67,1.67c0,.939-.156,1.308-1.1,1.308-4,0-10.47,4.557-15.723,11.1-5.113,6.366-9.949,15.932-8.244,23.619a1.394,1.394,0,0,1-1.238,1.72A.75.75,0,0,1,464.656,1327.345Z" transform="translate(-396.726 -1173.42)" fill="#201000"/><line x1="9.009" y1="2.644" transform="translate(49.828 85.73)" fill="#fff"/><path d="M422.332,1207.136a2.728,2.728,0,0,1-.487-.069l-9.009-2.644a1.684,1.684,0,1,1,.939-3.235l9.009,2.644a1.7,1.7,0,0,1,1.148,2.087A1.67,1.67,0,0,1,422.332,1207.136Z" transform="translate(-363.495 -1117.093)" fill="#201000"/></g><g transform="translate(222.656 20.171)"><path d="M1296.367,906.95c19.2.417,16.488,24.489,4.174,31.307s-8.94-.8-8.94-.8-4.835,10.053-11.618,7.061-17.149-25.776-2.261-33.324S1296.367,906.95,1296.367,906.95Z" transform="translate(-1146.006 -891.541)" fill="#c69870"/><path d="M136.969,34.1l-.395,6.143L139.32,44l5.1,1.256,2.51-3.217V34.9l-5.1.549Z" fill="#201000"/><path d="M1290.084,904.767c-2.365,0-6.853.8-14.679,4.766-4.592,2.331-6.818,6.4-6.679,12.07.209,8.244,5.531,16.767,8.87,18.227,5.218,2.3,9.392-6.157,9.427-6.261a1.651,1.651,0,0,1,2.191-.8,1.685,1.685,0,0,1,.835,2.191,3.308,3.308,0,0,0-.278,1.287c.417.07,2.122.035,6.887-2.609,6.366-3.513,10.227-12.557,8.453-19.723-1.322-5.322-5.531-8.348-11.862-8.453a1.663,1.663,0,0,1-.974-.348A5.182,5.182,0,0,0,1290.084,904.767Zm-10.679,38.82a7.674,7.674,0,0,1-3.165-.7c-4.835-2.122-10.609-11.862-10.853-21.184-.174-6.992,2.748-12.244,8.522-15.132,12.94-6.54,18.193-5.322,19.9-4.383,7.618.313,12.905,4.313,14.575,10.992,2.122,8.662-2.4,19.167-10.088,23.445-5.566,3.061-8.87,3.792-10.679,2.261C1285.562,941.361,1282.709,943.588,1279.4,943.588Z" transform="translate(-1142.923 -888.419)" fill="#201000"/><path d="M1232.479,916.719c-3.994,3.994-12.386,8.442-20.139,20.282-4.928,7.524-14.953,36.32-17.68,42.263-.174.383-22.725-4.661-22.9-4.209l-10.225-7.289-5.6-10.223c8.8-18.61,22.942-48.79,25.62-53.347,8.349-14.192,32.976-23.793,49.673-32.142,17.254-8.627,14.853,1.809,9.6,5.426-6.679,4.592-22.541,13.253-25.88,15.862-7.027,5.461-3.409,27.654,9.183,15.027,9.044-9.079,11.688-18.088,17.254-13.636C1245.489,898,1239.61,909.588,1232.479,916.719Z" transform="translate(-1075.439 -867.082)" fill="#c69870"/><path d="M972.916,1070.383q-1.1,0-2.191-.1c-14.123-1.183-26.367-13.462-31.933-32a1.673,1.673,0,0,1,3.2-.974c5.113,16.94,16.488,28.593,29.011,29.637,9.775.835,18.471-4.9,23.828-15.688,17.671-35.551,33.533-71.971,42.995-93.711,3.479-7.966,6.192-14.227,8.07-18.3,5.218-11.34,11.9-16.975,17.81-21.915,1.983-1.635,3.826-3.2,5.5-4.87,5.6-5.6,9.983-13.566,9.775-17.74-.07-1.252-.557-1.67-.731-1.774-1.113-.9-1.739-.835-1.948-.8-1.531.174-3.548,2.783-5.844,5.809a88.972,88.972,0,0,1-7.235,8.522c-3.583,3.618-6.922,4.974-9.879,4.035-2.713-.835-4.7-3.652-5.426-7.653-.87-4.731.209-11.062,3.9-13.914,1.739-1.357,6.366-4.07,11.723-7.2,5.113-3.026,10.922-6.435,14.262-8.7,2.331-1.6,3.548-4.418,3.026-5.287-.313-.557-3.026-1.217-10.957,2.713-2.852,1.426-5.913,2.887-9.079,4.383-15.584,7.409-33.255,15.758-39.933,27.132-6.54,11.131-46.751,98.059-47.169,98.929a1.675,1.675,0,0,1-3.165-.452c-.07-.487-7.827-48.978-13.392-74.579-5.392-24.8-25.915-30.889-41.881-28.559a1.668,1.668,0,1,1-.452-3.3c18.749-2.713,40.107,5.844,45.6,31.168,4.487,20.593,10.366,55.935,12.557,69.4,8.766-18.854,39.238-84.458,45.047-94.268,7.2-12.244,25.358-20.836,41.36-28.454,3.166-1.5,6.192-2.957,9.009-4.348,8.279-4.139,13.427-4.626,15.306-1.426,1.739,2.922-.731,7.479-4,9.74-3.409,2.365-9.044,5.635-14.471,8.835-5.009,2.957-9.775,5.74-11.34,6.957-2.261,1.739-3.444,6.435-2.644,10.679.487,2.713,1.67,4.626,3.131,5.079,1.635.522,3.931-.626,6.5-3.2A81.962,81.962,0,0,0,1067.81,896c3.026-3.9,5.183-6.748,8.1-7.1a5.859,5.859,0,0,1,4.418,1.5,5.51,5.51,0,0,1,1.983,4.209c.313,5.879-5.287,14.818-10.749,20.28-1.774,1.774-3.687,3.374-5.7,5.079-5.635,4.731-12.036,10.088-16.94,20.767-1.844,4.035-4.592,10.3-8.035,18.227-9.5,21.776-25.358,58.23-43.064,93.851C992.222,1064.052,983.212,1070.383,972.916,1070.383Z" transform="translate(-913.344 -864.003)" fill="#201000"/><path d="M1179.4,1141.513h-.07c-36.768-1.148-38.229-24.732-38.229-24.976a1.671,1.671,0,0,1,3.339-.139c.035.87,1.5,20.732,34.994,21.776a1.663,1.663,0,0,1,1.6,1.7A1.633,1.633,0,0,1,1179.4,1141.513Z" transform="translate(-1061.872 -1027.557)" fill="#201000"/><path d="M1312.784,931.937a8.756,8.756,0,0,0,9.949-1.217,1.724,1.724,0,0,1,2.365,0,11.755,11.755,0,0,1,3.757,10.331,8.659,8.659,0,0,0-4.627,3.513,1.709,1.709,0,0,1,.244-.661,8.538,8.538,0,0,0-.73-9.775,12.2,12.2,0,0,1-12.627.7C1309.2,933.815,1310.871,930.928,1312.784,931.937Z" transform="translate(-1172.197 -907.206)" fill="#201000"/><path d="M1307.1,959.149a11.677,11.677,0,0,0,.035-3.3,4.585,4.585,0,0,1,2.331.557,6.742,6.742,0,0,0,6.714.626,1.685,1.685,0,0,1,2.5,1.426,21.564,21.564,0,0,1-.522,8.035c-.522,2.087-3.722,1.217-3.235-.9a18.115,18.115,0,0,0,.522-4.9A12.523,12.523,0,0,1,1307.1,959.149Z" transform="translate(-1170.131 -923.878)" fill="#201000"/></g><g transform="translate(385.303)"><path d="M1384.251,809.014c.835,2.992,1.635,5.948,2.47,8.94.557,2.087-2.678,2.818-3.27.765-.835-2.992-1.635-5.948-2.47-8.94C1380.424,807.692,1383.694,806.962,1384.251,809.014Z" transform="translate(-1380.917 -807.176)" fill="#201000"/><path d="M1424.371,818.081l11.792-11.583c1.531-1.5,3.9.835,2.365,2.365l-11.792,11.583A1.673,1.673,0,0,1,1424.371,818.081Z" transform="translate(-1408.933 -806.017)" fill="#201000"/></g></g></g></g></svg>