<svg xmlns="http://www.w3.org/2000/svg" width="500" height="352.783" viewBox="0 0 500 352.783"><g transform="translate(17120 19474)"><rect width="500" height="343" transform="translate(-17120 -19474)" fill="#edf5f7"/><g transform="translate(-17275.9 -19946.396)"><g transform="translate(16970.336 19926.869)"><path d="M5,0H271a5,5,0,0,1,5,5V189a1,1,0,0,1-1,1H1a1,1,0,0,1-1-1V5A5,5,0,0,1,5,0Z" transform="translate(-16610.436 -19416.473)" fill="#f0f0f0"/><path d="M5,0A5,5,0,0,0,0,5V189a1,1,0,0,0,1,1H275a1,1,0,0,0,1-1V5a5,5,0,0,0-5-5H5M5-2H271a7.008,7.008,0,0,1,7,7V189a3,3,0,0,1-3,3H1a3,3,0,0,1-3-3V5A7.008,7.008,0,0,1,5-2Z" transform="translate(-16610.436 -19416.473)"/><g transform="translate(-16604.617 -19410.617)" opacity="0.48"><circle cx="2.5" cy="2.5" r="2.5" transform="translate(0.182 0.143)" fill="#0092d2"/><ellipse cx="3" cy="2.5" rx="3" ry="2.5" transform="translate(8.182 0.143)" fill="#595959"/><circle cx="2.5" cy="2.5" r="2.5" transform="translate(18.182 0.143)" fill="#adadad"/></g><g transform="translate(-16603.541 -19392.318)"><rect width="77" height="53" transform="translate(0.105 -0.156)" fill="#fff"/><path d="M0,0V53H77V0H0M-1-1H78V54H-1Z" transform="translate(0.105 -0.156)" fill="#707070"/><rect width="77" height="7" transform="translate(0.105 -0.156)" fill="#99ffb6"/><rect width="39" height="5" transform="translate(4.105 11.844)" fill="#b4b4b4"/><rect width="54" height="5" transform="translate(4.105 21.844)" fill="#b4b4b4"/><rect width="30" height="9" rx="1" transform="translate(43.105 40.844)" fill="#0092d2"/></g><g transform="translate(-16514.199 -19392.318)"><rect width="78" height="53" transform="translate(-0.236 -0.156)" fill="#fff"/><path d="M1,1V52H77V1H1M0,0H78V53H0Z" transform="translate(-0.236 -0.156)" fill="#707070"/><rect width="76" height="6" transform="translate(0.764 0.844)" fill="#99ffb6"/><rect width="37" height="5" transform="translate(5.764 11.844)" fill="#b4b4b4"/><rect width="52" height="5" transform="translate(5.764 21.844)" fill="#b4b4b4"/><rect width="62" height="6" transform="translate(5.764 30.844)" fill="#b4b4b4"/><rect width="32" height="9" rx="1" transform="translate(42.764 39.844)" fill="#0092d2"/></g><g transform="translate(-16423.779 -19392.318)"><rect width="77" height="53" transform="translate(0.344 -0.156)" fill="#fff"/><path d="M1,1V52H76V1H1M0,0H77V53H0Z" transform="translate(0.344 -0.156)" fill="#707070"/><rect width="75" height="6" transform="translate(1.344 0.844)" fill="#f99"/><rect width="65" height="5" transform="translate(5.344 11.844)" fill="#b4b4b4"/><rect width="19" height="5" transform="translate(5.344 21.844)" fill="#b4b4b4"/><rect width="30" height="9" rx="1" transform="translate(43.344 39.844)" fill="#0092d2"/></g><g transform="translate(-16603.541 -19328.811)"><rect width="77" height="6" transform="translate(0.105 0.337)" fill="#99ffb6"/><path d="M1,1V5H76V1H1M0,0H77V6H0Z" transform="translate(0.105 0.337)" fill="#707070"/><path d="M1,1V50H76V1H1M0,0H77V51H0Z" transform="translate(0.105 0.337)" fill="#707070"/><rect width="39" height="7" transform="translate(4.105 10.337)" fill="#b4b4b4"/><rect width="54" height="4" transform="translate(4.105 21.337)" fill="#b4b4b4"/><rect width="30" height="10" rx="1" transform="translate(43.105 38.337)" fill="#0092d2"/></g><g transform="translate(-16514.199 -19328.811)"><rect width="78" height="6" transform="translate(-0.236 0.337)" fill="#fff"/><path d="M1,1V5H77V1H1M0,0H78V6H0Z" transform="translate(-0.236 0.337)" fill="#707070"/><path d="M1,1V50H77V1H1M0,0H78V51H0Z" transform="translate(-0.236 0.337)" fill="#707070"/><rect width="61" height="7" transform="translate(5.764 10.337)" fill="#b4b4b4"/><rect width="52" height="4" transform="translate(5.764 21.337)" fill="#b4b4b4"/><rect width="32" height="10" rx="1" transform="translate(42.764 38.337)" fill="#0092d2"/></g><g transform="translate(-16423.779 -19328.811)"><rect width="77" height="6" transform="translate(0.344 0.337)" fill="#fff"/><path d="M1,1V5H76V1H1M0,0H77V6H0Z" transform="translate(0.344 0.337)" fill="#707070"/><path d="M1,1V50H76V1H1M0,0H77V51H0Z" transform="translate(0.344 0.337)" fill="#707070"/><rect width="38" height="5" transform="translate(5.344 12.337)" fill="#b4b4b4"/><rect width="53" height="4" transform="translate(5.344 21.337)" fill="#b4b4b4"/><rect width="30" height="10" rx="1" transform="translate(43.344 38.337)" fill="#0092d2"/></g><g transform="translate(-16603.541 -19265.301)"><rect width="77" height="6" transform="translate(0.105 -0.173)" fill="#fff"/><path d="M1,1V5H76V1H1M0,0H77V6H0Z" transform="translate(0.105 -0.173)" fill="#707070"/><path d="M1,1V39H76V1H1M0,0H77V40H0Z" transform="translate(0.105 -0.173)" fill="#707070"/><rect width="39" height="6" transform="translate(4.105 10.827)" fill="#b4b4b4"/><rect width="54" height="5" transform="translate(4.105 20.827)" fill="#b4b4b4"/></g><g transform="translate(-16514.199 -19265.301)"><rect width="78" height="6" transform="translate(-0.236 -0.173)" fill="#fff"/><path d="M1,1V5H77V1H1M0,0H78V6H0Z" transform="translate(-0.236 -0.173)" fill="#707070"/><path d="M1,1V39H77V1H1M0,0H78V40H0Z" transform="translate(-0.236 -0.173)" fill="#707070"/><rect width="37" height="6" transform="translate(5.764 10.827)" fill="#b4b4b4"/><rect width="52" height="5" transform="translate(5.764 20.827)" fill="#b4b4b4"/></g><g transform="translate(-16423.779 -19265.301)"><rect width="77" height="6" transform="translate(0.344 -0.173)" fill="#99ffb6"/><path d="M1,1V5H76V1H1M0,0H77V6H0Z" transform="translate(0.344 -0.173)" fill="#707070"/><path d="M1,1V39H76V1H1M0,0H77V40H0Z" transform="translate(0.344 -0.173)" fill="#707070"/><rect width="38" height="6" transform="translate(5.344 10.827)" fill="#b4b4b4"/><rect width="53" height="5" transform="translate(5.344 20.827)" fill="#b4b4b4"/></g><rect width="223" height="5" transform="translate(-16575.436 -19410.473)" fill="#e6e6e6"/><g transform="translate(-16349.506 -19412.223)"><path d="M0,0H8.59V8.59H0Z" fill="none"/><path d="M10.863,8l-.506.506,2,2H8v.716h4.356l-2,2,.506.506,2.863-2.863Z" transform="translate(-6.568 -6.568)" fill="#e6e6e6"/></g><path d="M5,0A5,5,0,0,0,0,5V189a1,1,0,0,0,1,1H275a1,1,0,0,0,1-1V5a5,5,0,0,0-5-5H5M5-2H271a7.008,7.008,0,0,1,7,7V189a3,3,0,0,1-3,3H1a3,3,0,0,1-3-3V5A7.008,7.008,0,0,1,5-2Z" transform="translate(-16610.436 -19416.473)"/></g><g transform="translate(183.385 762.395)"><rect width="24.351" height="80.592" rx="2" transform="translate(80.592 26.434) rotate(90)" fill="#434343"/><rect width="9.784" height="32.35" transform="translate(47.188 35.443) rotate(90)" fill="#fff"/><rect width="89.727" height="10.811" transform="translate(1.626 15.675)" fill="#6b553d"/><rect width="85.133" height="15.675" rx="2" transform="translate(0.004)" fill="#0092d2"/><g transform="translate(9.869 4.594)"><rect width="37.026" height="7.027" rx="3.513" transform="translate(31.486)" fill="#fff"/><path d="M3.5,5.946h-7V0h7Z" transform="translate(0 13.648)" fill="#fff"/><path d="M3.5,5.946h-7V0h7Z" transform="translate(3.784 13.648)" fill="#fff"/><path d="M3.5,5.946h-7V0h7Z" transform="translate(9.459 13.648)" fill="#fff"/></g></g><g transform="translate(190.191 508.942)"><rect width="65.755" height="48.458" transform="translate(13.444 13.404)" fill="#edf5f7"/><path d="M308.252,869.653H242.5a1.281,1.281,0,0,1-1.3-1.3V819.9a1.281,1.281,0,0,1,1.3-1.3h65.755a1.3,1.3,0,0,1,1.3,1.3v48.458A1.281,1.281,0,0,1,308.252,869.653Zm-64.458-2.595h63.16V821.195h-63.16Z" transform="translate(-229.092 -806.492)" fill="#201000"/><path d="M275.5,845.551a1.265,1.265,0,0,1-.757-.243l-32.864-24.216a1.295,1.295,0,0,1,1.54-2.081l32.107,23.648,32.107-23.648a1.295,1.295,0,1,1,1.541,2.081l-32.864,24.216A1.565,1.565,0,0,1,275.5,845.551Z" transform="translate(-229.206 -806.606)" fill="#201000"/></g><g transform="translate(193.42 527.524)"><circle cx="7.784" cy="7.784" r="7.784" transform="translate(70.751 -16.122)" fill="#0092d2"/><g transform="translate(-22.502 27)"><path d="M1516.02,1185.588H1412.194a2.594,2.594,0,0,1,0-5.188H1516.02a2.594,2.594,0,1,1,0,5.188Z" transform="translate(-1053.586 -1000.142)"/><circle cx="10.215" cy="10.215" r="10.215" transform="translate(431.788 172.639)" fill="#0092d2"/></g></g><g transform="translate(177.847 553.751)"><g transform="translate(0 67.37)"><g transform="translate(1.472 44.041)"><path d="M-17007.135-19172.633l-29.1-20.543-25.1-24.346-1.9-12.174,1.9-8.365,6.846-9.7,11.791-8.937,42.748-18.055,52.914-17.8,34.863-6.182,29.918,28.189,15.824-32.885,12.859,1.977s14.838,1.486,20.77,30.908,9.395,55.633,9.395,55.633l19.1-39.252,3.461,10.631,11.127,7.172,15.084,2.719h2.967l-32.639,68.244s-25.965,32.887-45.99-15.824c-.246,16.814,0,27.443,0,27.443h-94.205l8.9-4.945h9.148l3.215-8.156v-12.859l1.482-7.662-6.922-2.473-24.725,5.189,6.365-61.814-66.2,20.275,28.434,22.748-10.633,5.688-9.643,14.836Z" transform="translate(17063.244 19303.73)" fill="#65c8ff"/><path d="M-16890.676-19303.7l-8.557,32.9,8.557,7.23,6.66-40.135Z" transform="translate(17080.256 19303.703)" fill="#edf5f7"/><path d="M-16925.6-19299.578l6.275-1.711,22.064,29.672-6.088,10.459Z" transform="translate(17077.521 19303.953)" fill="#edf5f7"/></g><g transform="translate(152.099 43.387)"><line y2="121.048" transform="translate(61.791 27.214)" fill="#fff"/><path d="M986.932,1161.882a1.414,1.414,0,0,1-1.432-1.432V1039.432a1.414,1.414,0,0,1,1.432-1.432,1.432,1.432,0,0,1,1.432,1.432V1160.45A1.432,1.432,0,0,1,986.932,1161.882Z" transform="translate(-925.141 -1012.188)" fill="#201000"/><path d="M806.642,997.3a1.381,1.381,0,0,1-1.223-.716l-22.074-37.943a1.438,1.438,0,0,1,2.476-1.462L806.672,993l5.1-8.829a1.386,1.386,0,0,1,.984-.686,1.372,1.372,0,0,1,1.163.3l7.457,6.055,5.369-37.138a1.43,1.43,0,0,1,2.834.388L823.854,992.7a1.409,1.409,0,0,1-.895,1.134,1.541,1.541,0,0,1-1.432-.209l-8.114-6.592-5.489,9.516a1.514,1.514,0,0,1-1.283.746Z" transform="translate(-783.152 -951.467)" fill="#201000"/></g><g transform="translate(0 45.797)"><path d="M52.625,223.3l35.989,23.555,7.463,2.925h6.73l16.972-11.557L126.8,236.9l6.437-1.171,1.9-4.1-1.026-2.195,2.195-4.538-1.168-2.341,2.486-4.68-1.317-3.8,1.317-4.975-4.389-3.509L117.145,207.2,105.44,211.59l1.464-11.7-4.1,2.195L99,207.2l-1.61,2.927-24-17.851-8.194,4.1-6,7.025-4.975,8.192Z" transform="translate(5.458 -93.223)" fill="#c69870"/><path d="M683.691,1394.471a1.431,1.431,0,0,1-1.253-.746,1.4,1.4,0,0,1,.567-1.939,3.354,3.354,0,0,0,1.641-3.46,2.85,2.85,0,0,0-2.685-2.327l-.3-.06c-4.832-.746-10.888-1.671-19.449,3.311a1.438,1.438,0,0,1-1.462-2.476c9.456-5.518,16.317-4.445,21.328-3.669l.3.06a5.683,5.683,0,0,1,5.071,4.653,6.22,6.22,0,0,1-3.072,6.443A1.3,1.3,0,0,1,683.691,1394.471Z" transform="translate(-544.672 -1256.314)" fill="#201000"/><path d="M687.491,1368.771a1.431,1.431,0,0,1-1.253-.746,1.4,1.4,0,0,1,.567-1.939,3.354,3.354,0,0,0,1.641-3.46,2.851,2.851,0,0,0-2.685-2.327l-.3-.06c-4.832-.746-10.888-1.671-19.449,3.311a1.438,1.438,0,0,1-1.462-2.476c9.456-5.519,16.317-4.445,21.328-3.669l.3.06a5.683,5.683,0,0,1,5.071,4.653,6.22,6.22,0,0,1-3.073,6.443A1.16,1.16,0,0,1,687.491,1368.771Z" transform="translate(-547.339 -1238.28)" fill="#201000"/><path d="M529.251,1209.507a1.431,1.431,0,0,1-1.253-.746,1.4,1.4,0,0,1,.567-1.939,3.354,3.354,0,0,0,1.641-3.46,2.851,2.851,0,0,0-2.685-2.327c-4.952-.746-18.7.477-27.413,5.578a1.414,1.414,0,0,1-1.491-.03,1.433,1.433,0,0,1-.656-1.342l.984-9.516c-2.118,1.134-3.281,3.609-4.236,5.668-.805,1.73-1.432,3.072-2.655,3.49a2.195,2.195,0,0,1-1.73-.119c-2.327-1.163-43.73-34.513-51.993-41.165a1.473,1.473,0,0,1-.537-1.223,1.442,1.442,0,0,1,.686-1.133c3.878-2.327,60.584-18.614,67.027-20.463a1.481,1.481,0,0,1,1.313.268,1.426,1.426,0,0,1,.507,1.253l-6.234,60.584c9.307-4.415,21.895-5.429,26.876-4.653a5.683,5.683,0,0,1,5.071,4.653,6.22,6.22,0,0,1-3.072,6.443A1.588,1.588,0,0,1,529.251,1209.507Zm-87.311-46.653c18.733,15.094,45.281,36.332,49.249,39.077a19.184,19.184,0,0,0,.895-1.76c1.223-2.6,3.043-6.533,7.159-7.636l4.982-48.443C481.822,1150.534,450.411,1159.781,441.94,1162.854Z" transform="translate(-388.711 -1086.682)" fill="#201000"/><path d="M377.135,1117.806c-.418,0-.835-.03-1.283-.06-7.457-.686-41.7-22.969-66.162-41.672-20.045-15.332-35.467-27.98-36.332-39.345-2.058-26.757,27-37.346,67.176-52.023l6.682-2.446c39.464-14.437,45.52-16.675,85.521-22.7a1.434,1.434,0,0,1,.447,2.834c-39.7,6-44.834,7.875-84.954,22.551l-6.682,2.446c-39.017,14.229-67.206,24.52-65.327,49.1.776,10.172,16.406,22.909,35.229,37.317,28.935,22.133,59.062,40.6,64.67,41.1,5.28.477,9.575-2.864,14.139-6.413,4.385-3.4,8.889-6.95,14.408-6.741,4.027.149,6.771-.776,7.278-2.476a1.7,1.7,0,0,0-.388-1.76c-1.611-.954-11.067-2.625-19.926,3.4a1.44,1.44,0,0,1-1.611-2.386c10.291-6.98,20.91-4.743,23-3.49a4.539,4.539,0,0,1,1.67,5.041c-.537,1.82-2.565,4.8-10.112,4.534-4.415-.179-8.382,2.894-12.558,6.145C387.515,1114.227,382.922,1117.806,377.135,1117.806Z" transform="translate(-273.255 -959.544)" fill="#201000"/><path d="M464.349,1321.894a1.431,1.431,0,0,1-1.4-1.134c-1.432-6.443,1.432-14.915,7.636-22.67,5.16-6.443,11.335-10.59,15.72-10.59a1.432,1.432,0,1,1,0,2.864c-3.43,0-8.979,3.908-13.483,9.516-4.385,5.459-8.531,13.662-7.07,20.254a1.417,1.417,0,0,1-1.074,1.7A.64.64,0,0,1,464.349,1321.894Z" transform="translate(-406.109 -1189.673)" fill="#201000"/><line x1="7.726" y1="2.267" transform="translate(42.729 73.516)" fill="#fff"/><path d="M420.807,1206.28a2.344,2.344,0,0,1-.418-.06l-7.726-2.267a1.444,1.444,0,1,1,.805-2.774l7.726,2.267a1.461,1.461,0,0,1,.984,1.79A1.432,1.432,0,0,1,420.807,1206.28Z" transform="translate(-370.352 -1129.065)" fill="#201000"/></g><g transform="translate(190.935 17.297)"><path d="M-16828.775-19250.049l4.754,9.129,9.7,6.467,18.068,3.043,16.357-38.422,16.357-15.594,9.32-13.7-1.9-5.9-4.437,1.24-12.3,13.6h-5.963l-2.6-4.662v-4.277l8.559,1.559,1.68,5.18,13.338-16.061-5.049-5.7,8.67-5.9,1.332-5.516-3.234-1.523-10.461,4-33.477,18.066-8.748,11.223Z" transform="translate(16898.102 19328.023)" fill="#c69870"/><path d="M1286.564,904.294c-2.028,0-5.876.686-12.588,4.087-3.937,2-5.847,5.489-5.727,10.351.179,7.07,4.743,14.378,7.607,15.631,4.474,1.969,8.054-5.28,8.084-5.369a1.416,1.416,0,0,1,1.879-.686,1.445,1.445,0,0,1,.716,1.879,2.839,2.839,0,0,0-.239,1.1c.358.06,1.82.03,5.906-2.237,5.459-3.013,8.77-10.768,7.249-16.913-1.134-4.564-4.743-7.159-10.172-7.249a1.425,1.425,0,0,1-.835-.3A4.443,4.443,0,0,0,1286.564,904.294Zm-9.158,33.29a6.583,6.583,0,0,1-2.715-.6c-4.146-1.82-9.1-10.172-9.307-18.166-.149-6,2.357-10.5,7.308-12.976,11.1-5.608,15.6-4.564,17.063-3.759,6.533.268,11.067,3.7,12.5,9.426,1.82,7.428-2.058,16.436-8.651,20.105-4.773,2.625-7.606,3.251-9.158,1.939C1282.686,935.674,1280.24,937.583,1277.406,937.583Z" transform="translate(-1160.369 -890.275)" fill="#201000"/><path d="M1222.424,909.881c-5.727,5.727-13.871,9.874-19.687,22.551-.149.328-.328.686-.477,1.074H1161.9c7.547-15.959,14.557-30.456,16.854-34.364,7.159-12.17,28.278-20.4,42.6-27.562,14.8-7.4,12.737,1.551,8.233,4.653-5.727,3.937-19.33,11.365-22.193,13.6-6.026,4.683-2.923,23.714,7.875,12.886,7.756-7.786,10.023-15.511,14.8-11.693C1233.58,893.833,1228.539,903.766,1222.424,909.881Z" transform="translate(-1087.757 -867.315)" fill="#c69870"/><path d="M964.429,1040.98q-.94,0-1.879-.089c-12.111-1.014-22.611-11.544-27.383-27.443a1.434,1.434,0,1,1,2.744-.835c4.385,14.527,14.139,24.52,24.878,25.415,8.382.716,15.839-4.206,20.433-13.453,15.153-30.486,28.756-61.717,36.869-80.361,2.983-6.831,5.31-12.2,6.921-15.69,4.474-9.724,10.2-14.557,15.273-18.792,1.7-1.4,3.281-2.744,4.713-4.176,4.8-4.8,8.561-11.634,8.382-15.213-.06-1.074-.477-1.432-.626-1.521-.955-.776-1.492-.716-1.671-.686-1.312.149-3.043,2.386-5.011,4.982a76.282,76.282,0,0,1-6.2,7.308c-3.073,3.1-5.936,4.266-8.472,3.46-2.327-.716-4.027-3.132-4.653-6.562-.746-4.057.179-9.486,3.341-11.932,1.491-1.163,5.459-3.49,10.053-6.175,4.385-2.6,9.366-5.518,12.23-7.457,2-1.372,3.043-3.788,2.6-4.534-.268-.477-2.6-1.044-9.4,2.327-2.446,1.223-5.071,2.476-7.785,3.758-13.364,6.354-28.517,13.513-34.244,23.267-5.608,9.545-40.091,84.089-40.449,84.835a1.436,1.436,0,0,1-2.714-.388c-.06-.418-6.712-42-11.484-63.954-4.624-21.268-22.223-26.489-35.915-24.49a1.43,1.43,0,0,1-.388-2.834c16.078-2.327,34.393,5.011,39.106,26.727,3.848,17.659,8.889,47.966,10.769,59.51,7.517-16.167,33.648-72.426,38.629-80.838,6.175-10.5,21.746-17.868,35.467-24.4,2.715-1.283,5.31-2.535,7.726-3.729,7.1-3.55,11.514-3.967,13.125-1.223,1.491,2.506-.626,6.413-3.431,8.352-2.923,2.029-7.755,4.832-12.409,7.577-4.3,2.536-8.382,4.922-9.725,5.966-1.939,1.492-2.953,5.518-2.267,9.158.417,2.327,1.432,3.967,2.685,4.355,1.4.447,3.371-.537,5.578-2.744a70.279,70.279,0,0,0,5.966-7.01c2.6-3.341,4.445-5.787,6.95-6.085a5.024,5.024,0,0,1,3.788,1.283,4.724,4.724,0,0,1,1.7,3.609c.268,5.041-4.534,12.707-9.217,17.391-1.521,1.521-3.162,2.893-4.892,4.355-4.833,4.057-10.321,8.651-14.527,17.808-1.581,3.46-3.937,8.83-6.891,15.631-8.144,18.673-21.746,49.934-36.929,80.48C980.984,1035.551,973.258,1040.98,964.429,1040.98Z" transform="translate(-913.344 -864.003)" fill="#201000"/><path d="M1173.94,1137.707h-.06c-31.53-.984-32.783-21.209-32.783-21.417a1.433,1.433,0,1,1,2.864-.119c.03.746,1.283,17.778,30.009,18.673a1.426,1.426,0,0,1,1.372,1.462A1.4,1.4,0,0,1,1173.94,1137.707Z" transform="translate(-1073.159 -1039.986)" fill="#201000"/><path d="M1312.425,931.7a7.508,7.508,0,0,0,8.531-1.044,1.479,1.479,0,0,1,2.029,0,10.08,10.08,0,0,1,3.222,8.859,7.425,7.425,0,0,0-3.967,3.013,1.461,1.461,0,0,1,.209-.567,7.322,7.322,0,0,0-.627-8.382,10.459,10.459,0,0,1-10.828.6C1309.353,933.307,1310.785,930.832,1312.425,931.7Z" transform="translate(-1191.868 -910.489)" fill="#201000"/><path d="M1307.1,958.674a10.007,10.007,0,0,0,.03-2.834,3.931,3.931,0,0,1,2,.477,5.782,5.782,0,0,0,5.757.537,1.445,1.445,0,0,1,2.148,1.223,18.491,18.491,0,0,1-.448,6.891c-.447,1.79-3.192,1.044-2.774-.776a15.54,15.54,0,0,0,.448-4.206A10.739,10.739,0,0,1,1307.1,958.674Z" transform="translate(-1189.645 -928.428)" fill="#201000"/></g><g transform="translate(330.41)"><path d="M1383.776,808.84c.716,2.565,1.4,5.1,2.118,7.666.477,1.79-2.3,2.416-2.8.656-.716-2.565-1.4-5.1-2.118-7.666C1380.495,807.707,1383.3,807.081,1383.776,808.84Z" transform="translate(-1380.918 -807.264)" fill="#0092d2"/><path d="M1424.3,816.363l10.112-9.933c1.313-1.283,3.341.716,2.029,2.028l-10.112,9.933A1.435,1.435,0,0,1,1424.3,816.363Z" transform="translate(-1411.062 -806.017)" fill="#0092d2"/></g></g><g transform="translate(106.757)"><path d="M631.254,740.633c1.849,15.273,21.626,14.02,28.278,3.072,4.415-7.278,3.192-15.81.537-23.446-1.76-5.041-4.325-10.112-4.564-15.541-.3-7.278,4.206-12.5,8.979-17.241v.03c.447,1.79,3.192,1.044,2.774-.776-3.252-13.513-19.807-10.56-25.892-1.014-4.862,7.666-4.325,17.122-4.624,25.832-.209,6.891-1.76,12.379-3.848,18.822C631.881,733.712,630.807,737.113,631.254,740.633Z" transform="translate(-631.15 -648.509)" fill="#201000"/><path d="M789.125,604.219c9.247-12.141,2.088-28.606-10.8-22.879s-39.494,22.611-40.508,39.971-3.192,37.376,16.138,40.24S789.125,604.219,789.125,604.219Z" transform="translate(-705.558 -580.167)" fill="#201000"/><path d="M766.829,697.094c-1.641,7.994-8.8,12.111-16.824,14.408l-2.148,24.729s-3.341,14.318-8.591,31.5c-11.932-15.75-22.193-29.591-22.193-29.591s.239-8.591,2.028-29.471c-7.845-2.774-13.841-15.094-13.841-15.094-13.811,2.178-28.368-2.744-27.055-17.3.954-10.321,10.739-12.528,18.136-11.574a16.049,16.049,0,0,1,7.159,2.416s-2.565-10.679,13.065-19.389c13.453-7.517,23.6-7.726,31.112-.089a36.148,36.148,0,0,1,7.189,11.514C761.132,673.946,768.5,689.01,766.829,697.094Z" transform="translate(-664.111 -623.554)" fill="#c69870"/><path d="M736.021,765.785a1.412,1.412,0,0,1-1.133-.567c-11.813-15.571-22.1-29.471-22.223-29.621a1.381,1.381,0,0,1-.268-.895c0-.089.239-8.561,1.969-28.487-6.592-2.983-11.6-11.574-13.125-14.467-9.426,1.253-17.927-.716-22.909-5.4-3.609-3.371-5.25-8.084-4.743-13.6a13.189,13.189,0,0,1,4.832-9.516c5.1-4.087,12.141-3.7,14.915-3.341a21.949,21.949,0,0,1,5.4,1.372c.179-4.027,2.267-11.663,13.96-18.166,14.2-7.935,24.937-7.875,32.812.149a37.282,37.282,0,0,1,7.487,11.962c.895,2.118,1.82,4.236,2.714,6.324,5.578,12.916,10.858,25.116,9.337,32.484h0c-1.491,7.189-7.01,12.17-16.883,15.213L746.1,732.973c0,.06-.03.149-.03.209-.03.149-3.4,14.557-8.621,31.589a1.426,1.426,0,0,1-1.134.984A1.37,1.37,0,0,1,736.021,765.785Zm-20.761-31.47c1.67,2.267,10.232,13.781,20.194,26.936,4.5-15,7.457-27.413,7.726-28.636l2.148-24.639a1.4,1.4,0,0,1,1.044-1.253c9.366-2.685,14.527-7.01,15.839-13.3,1.342-6.5-4-18.852-9.158-30.784-.925-2.118-1.82-4.236-2.715-6.354a35.083,35.083,0,0,0-6.891-11.067c-6.95-7.07-16.287-6.98-29.382.328-14.527,8.084-12.379,17.719-12.379,17.808a1.388,1.388,0,0,1-.6,1.521,1.436,1.436,0,0,1-1.641-.03,15.487,15.487,0,0,0-6.5-2.148c-5.041-.626-9.814.388-12.737,2.744a10.492,10.492,0,0,0-3.788,7.547c-.418,4.653.865,8.442,3.848,11.246,4.474,4.176,12.707,5.906,21.537,4.5a1.462,1.462,0,0,1,1.521.776c.06.119,5.847,11.842,13.036,14.378a1.416,1.416,0,0,1,.954,1.462C715.737,723.279,715.349,732.2,715.26,734.315Zm48.324-40.6Z" transform="translate(-660.866 -620.178)" fill="#201000"/><path d="M885.707,714.775a1.351,1.351,0,0,1-.477-.089,1.417,1.417,0,0,1-.865-1.82c2.178-6.234-.9-11.9-11.783-21.656a1.437,1.437,0,1,1,1.909-2.148c10.232,9.158,15.571,16.168,12.588,24.729A1.431,1.431,0,0,1,885.707,714.775Z" transform="translate(-800.23 -656.329)" fill="#201000"/><circle cx="1.79" cy="1.79" r="1.79" transform="translate(58.416 39.771) rotate(-6.067)" fill="#201000"/><circle cx="1.79" cy="1.79" r="1.79" transform="translate(81.444 32.614) rotate(-6.067)" fill="#201000"/><path d="M852.919,802.634a5.558,5.558,0,0,1-7.636-4.415c-.268-1.82-3.132-1.521-2.834.3a8.483,8.483,0,0,0,11.544,6.771A1.433,1.433,0,0,0,852.919,802.634Z" transform="translate(-779.404 -732.316)" fill="#201000"/><path d="M821.272,685.375a1.454,1.454,0,0,0-2-.3c-.686.417-1.342.865-2.028,1.283a1.427,1.427,0,0,0-.3,2,1.455,1.455,0,0,0,2,.3c.686-.418,1.342-.865,2.028-1.283A1.488,1.488,0,0,0,821.272,685.375Z" transform="translate(-761.33 -653.597)" fill="#201000"/><path d="M890.409,659.974l-1.79.179a1.426,1.426,0,0,0,.3,2.834l1.79-.179A1.426,1.426,0,0,0,890.409,659.974Z" transform="translate(-810.958 -636.161)" fill="#201000"/><path d="M725.115,758.556a1.412,1.412,0,0,1-1.193-.656c-1.372-2.148-7.785-6.533-12.29-5.131a1.425,1.425,0,1,1-.865-2.714c5.847-1.849,13.513,3.1,15.571,6.324a1.415,1.415,0,0,1-.447,1.969A1.773,1.773,0,0,1,725.115,758.556Z" transform="translate(-686.321 -699.096)" fill="#201000"/><path d="M754.286,680.875c3.371,1.939,6.264-1.849,7.666-4.445a23,23,0,0,0,2.565-13.841c-.209-1.82-3.073-1.82-2.864,0l.09,1.074a1.344,1.344,0,0,0-.328.09,17.836,17.836,0,0,0-8.2,8.859C752.2,675.178,751.392,679.2,754.286,680.875Z" transform="translate(-716.149 -637.046)" fill="#201000"/></g></g></g><path d="M10.5,3A7.5,7.5,0,1,0,18,10.5,7.508,7.508,0,0,0,10.5,3m0-3A10.5,10.5,0,1,1,0,10.5,10.5,10.5,0,0,1,10.5,0Z" transform="translate(-17073 -19302)" fill="#0092d2"/></g></svg>