<svg xmlns="http://www.w3.org/2000/svg" width="567.47" height="487.906" viewBox="0 0 567.47 487.906"><g transform="translate(-392.656 -483.6)"><g transform="translate(794.209 645.937)"><path d="M0,0H165.917V225.631H6.6L41.682,180.8l-8.1-33.271L4.689,135.713,0,139Z" transform="translate(0 0)" fill="#6b553d"/><circle cx="11.535" cy="11.535" r="11.535" transform="translate(107.844 86.762)" fill="#fff"/><circle cx="11.535" cy="11.535" r="11.535" transform="translate(91.137 122.163)" fill="#fff"/><path d="M1389.978,1020.756a57.278,57.278,0,1,1,57.278-57.278A57.357,57.357,0,0,1,1389.978,1020.756Zm0-109.783a52.5,52.5,0,1,0,52.5,52.5A52.582,52.582,0,0,0,1389.978,910.973Z" transform="translate(-1296.901 -858.419)" fill="#fff"/><circle cx="11.535" cy="11.535" r="11.535" transform="translate(77.962 62.896)" fill="#fff"/><path d="M1370.244,879.2l-11.933-10.74c-2.287-2.039-5.668,1.293-3.381,3.381l11.933,10.74C1369.15,884.665,1372.531,881.285,1370.244,879.2Z" transform="translate(-1307.696 -839.122)" fill="#fff"/><path d="M1410.856,851.771c-2.039-3.978-4.077-7.906-6.116-11.883-1.392-2.735-5.519-.3-4.127,2.386,2.039,3.978,4.077,7.906,6.116,11.883C1408.122,856.892,1412.248,854.505,1410.856,851.771Z" transform="translate(-1330.906 -824.474)" fill="#fff"/></g><rect width="119" height="80" transform="translate(779.656 532.553)" fill="#fff"/><g transform="translate(715.402 530.138)"><path d="M1347.672,661.973H1229.487a2.356,2.356,0,0,1-2.387-2.387v-80a2.356,2.356,0,0,1,2.387-2.387h118.185a2.356,2.356,0,0,1,2.387,2.387v80A2.42,2.42,0,0,1,1347.672,661.973Zm-115.8-4.773h113.412V581.973H1231.873Z" transform="translate(-1164.999 -577.2)" fill="#0092d2"/><path d="M1291.521,615.439a2.31,2.31,0,0,1-1.144-.3l-62.051-33.412a2.391,2.391,0,1,1,2.237-4.226l60.858,32.766,54.941-32.716a2.4,2.4,0,1,1,2.436,4.127l-56.085,33.412A2.394,2.394,0,0,1,1291.521,615.439Z" transform="translate(-1164.983 -577.204)" fill="#0092d2"/><rect width="85.967" height="66.824" transform="translate(2.387 32.269)" fill="#fff"/><path d="M1190.553,708.9h-85.966a2.356,2.356,0,0,1-2.387-2.387V639.687a2.356,2.356,0,0,1,2.387-2.387h85.966a2.356,2.356,0,0,1,2.387,2.387v66.824A2.387,2.387,0,0,1,1190.553,708.9Zm-83.58-4.773h81.193V642.073h-81.193Z" transform="translate(-1102.2 -607.418)" fill="#0092d2"/><path d="M1146.475,669.507a2.465,2.465,0,0,1-1.293-.4l-41.765-27.446a2.372,2.372,0,1,1,2.585-3.978l40.522,26.6,42.859-26.65a2.38,2.38,0,1,1,2.536,4.027l-44.152,27.446A2.764,2.764,0,0,1,1146.475,669.507Z" transform="translate(-1102.274 -607.406)" fill="#0092d2"/></g><g transform="translate(416.035 483.6)"><circle cx="8.353" cy="8.353" r="8.353" transform="translate(282.661 2.387)" fill="#fff"/><path d="M1074.54,505.079a10.74,10.74,0,1,1,10.739-10.74A10.758,10.758,0,0,1,1074.54,505.079Zm0-16.706a5.966,5.966,0,1,0,5.966,5.967A5.984,5.984,0,0,0,1074.54,488.373Z" transform="translate(-783.525 -483.6)" fill="#0092d2"/><path d="M1509.315,1346.806l-10.74,15.513c-1.74,2.536,2.387,4.922,4.127,2.387l10.74-15.513C1515.182,1346.656,1511.055,1344.27,1509.315,1346.806Z" transform="translate(-1001.918 -917.072)" fill="#6b553d"/><path d="M511.783,513.245l-7.16-10.74c-1.69-2.536-5.817-.149-4.127,2.386l7.16,10.74C509.347,518.217,513.524,515.831,511.783,513.245Z" transform="translate(-500.098 -492.562)" fill="#6b553d"/><path d="M554.695,534.96a2.348,2.348,0,0,1-2.337-1.989,2.41,2.41,0,0,1,1.939-2.784l70.5-12.629a2.4,2.4,0,0,1,.845,4.724l-70.5,12.629C554.993,534.91,554.844,534.96,554.695,534.96Z" transform="translate(-526.353 -500.653)" fill="#6b553d"/><path d="M560.395,566.46a2.349,2.349,0,0,1-2.337-1.989A2.41,2.41,0,0,1,560,561.687l70.5-12.629a2.4,2.4,0,0,1,.845,4.723L560.792,566.41C560.643,566.41,560.544,566.46,560.395,566.46Z" transform="translate(-529.219 -516.491)" fill="#6b553d"/><path d="M13.524,28.639a2.356,2.356,0,0,1-2.387-2.387V4.773H2.387A2.356,2.356,0,0,1,0,2.387,2.356,2.356,0,0,1,2.387,0H13.524a2.356,2.356,0,0,1,2.387,2.387V26.252A2.387,2.387,0,0,1,13.524,28.639Z" transform="translate(475.278 106.352) rotate(90)" fill="#edf5f7"/></g><g transform="translate(468.335 553.702)"><g transform="translate(46.145)"><path d="M850.659,667.505c23.518-9.646,27.1-39.379,3.729-42.014s-75.873-.746-91.933,23.319-36.1,51.063-10.69,71.5S850.659,667.505,850.659,667.505Z" transform="translate(-718.997 -624.593)" fill="#201000"/><path d="M733.908,801.205c3.083-31.423,5.718-53.1,5.718-53.1-8.95-10.591-7.209-33.362-7.209-33.362-21.728-8.5-38.484-27.843-24.313-47.682,10.043-14.021,25.954-8.95,35.848-1.343,4.027,3.132,7.06,6.662,8.3,9.5,0,0,5.27-17.5,35.152-16.9,25.705.547,40.472,8.751,44.8,26.054,1.591,6.315,1.79,13.822.646,22.623-3.481,26.6-5.618,54.444-14.817,64.686-9.1,10.093-19.292,10.292-32.766,6.812L779.7,808.912C766.425,838.844,747.631,828.7,733.908,801.205Z" transform="translate(-700.493 -641.5)" fill="#e7c1a0"/><path d="M758.209,827.023c-9.845,0-20.087-9.646-28.838-27.247a2.327,2.327,0,0,1-.249-1.293c2.685-27.346,5.022-47.533,5.569-52.157-7.408-9.745-7.408-26.948-7.16-32.517-14.618-6.116-25.158-16.159-28.39-27.1-2.337-7.906-.746-16.06,4.624-23.568,3.928-5.469,8.95-8.7,14.966-9.6,10.74-1.591,20.534,4.873,24.263,7.756a35.787,35.787,0,0,1,6.613,6.513c3.679-5.618,13.126-14.817,35.4-14.369,27.1.6,42.511,9.7,47.085,27.893,1.69,6.563,1.889,14.27.7,23.518-.5,3.779-.994,7.607-1.442,11.386-2.884,23.269-5.569,45.246-13.971,54.593-9.447,10.491-19.938,11.038-32.666,8.1l-5.121,27.943c-.05.2-.1.348-.149.547-5.668,12.828-12.728,19.391-20.883,19.59Zm-24.264-28.788c7.806,15.413,16.855,24.164,24.512,24.015,6.016-.149,11.734-5.817,16.507-16.507l5.519-30.18a2.345,2.345,0,0,1,1.044-1.591,2.5,2.5,0,0,1,1.889-.3c12.48,3.232,21.927,3.331,30.379-6.066,7.408-8.2,10.143-30.479,12.778-51.958.447-3.779.945-7.607,1.442-11.436,1.094-8.5.895-15.811-.6-21.728-4.027-16.06-17.551-23.766-42.561-24.264-27.545-.646-32.617,14.568-32.815,15.214a2.385,2.385,0,0,1-4.475.249c-1.044-2.486-3.978-5.768-7.558-8.552-6.712-5.171-14.469-7.707-20.634-6.812-4.674.7-8.651,3.282-11.784,7.657-4.525,6.364-5.867,12.878-3.928,19.391,2.884,9.745,13.325,19.192,27.2,24.612a2.316,2.316,0,0,1,1.492,2.387c0,.2-1.591,21.927,6.663,31.672a2.222,2.222,0,0,1,.547,1.84C739.564,746.128,736.979,767.607,733.946,798.235Z" transform="translate(-698.095 -639.027)" fill="#201000"/><path d="M910.161,765.265a2.463,2.463,0,0,1-1.839-.845,2.422,2.422,0,0,1,.248-3.381c8.4-7.11,8.751-17.9,1.293-41.069a2.374,2.374,0,1,1,4.524-1.442c7.011,21.827,8.8,36.4-2.735,46.19A2.06,2.06,0,0,1,910.161,765.265Z" transform="translate(-803.509 -670.992)" fill="#201000"/><circle cx="2.983" cy="2.983" r="2.983" transform="matrix(0.412, -0.911, 0.911, 0.412, 81.236, 59.967)" fill="#201000"/><circle cx="2.983" cy="2.983" r="2.983" transform="matrix(0.412, -0.911, 0.911, 0.412, 119.571, 63.593)" fill="#201000"/><path d="M837.3,811.677a9.312,9.312,0,0,1-7.309-12.778c1.144-2.834-3.232-4.823-4.375-1.989A14.155,14.155,0,0,0,836.5,816.4,2.4,2.4,0,0,0,837.3,811.677Z" transform="translate(-761.668 -710.542)" fill="#201000"/><path d="M876.043,708.336a2.468,2.468,0,0,0-2.635-2.138c-1.342.05-2.685.1-3.978.1a2.438,2.438,0,0,0-2.138,2.635,2.468,2.468,0,0,0,2.635,2.138c1.343-.05,2.685-.1,3.978-.1A2.4,2.4,0,0,0,876.043,708.336Z" transform="translate(-783.163 -665.623)" fill="#201000"/><path d="M946.467,711.219l-2.734-1.243c-2.784-1.243-4.773,3.083-1.989,4.375l2.735,1.243C947.312,716.837,949.252,712.511,946.467,711.219Z" transform="translate(-819.926 -667.412)" fill="#201000"/><path d="M757.988,712.948a2.367,2.367,0,0,1-2.387-2.287c-.149-4.276-5.668-15.96-13.375-17.75a2.4,2.4,0,0,1,1.094-4.674c9.994,2.287,16.805,15.861,17.054,22.225a2.422,2.422,0,0,1-2.287,2.486Z" transform="translate(-719.353 -656.561)" fill="#201000"/><path d="M797.158,669.494c3.182,5.619,10.591,2.586,14.767.1a38.554,38.554,0,0,0,15.364-17.7c1.193-2.784-2.884-5.221-4.127-2.436-.249.547-.5,1.094-.8,1.641a2.242,2.242,0,0,0-.547-.149,29.708,29.708,0,0,0-19.242,5.817C799,659.55,794.423,664.671,797.158,669.494Z" transform="translate(-747.484 -636.476)" fill="#201000"/></g><g transform="translate(0 157.046)"><path d="M642.895,949.673a2.349,2.349,0,0,1-2.337-1.989A2.41,2.41,0,0,1,642.5,944.9c.3-.05,31.622-5.618,60.211-4.226A2.422,2.422,0,0,1,705,943.16a2.358,2.358,0,0,1-2.486,2.287c-28.042-1.392-58.819,4.077-59.118,4.127A4.176,4.176,0,0,1,642.895,949.673Z" transform="translate(-623 -940.451)" fill="#201000"/><path d="M966.108,1234.108a2.385,2.385,0,0,1-2.386-2.188l-12.729-161.542a2.395,2.395,0,1,1,4.773-.4l12.728,161.542a2.429,2.429,0,0,1-2.188,2.585Z" transform="translate(-779.103 -1004.474)" fill="#201000"/><path d="M607.68,1384.546h-.149a2.363,2.363,0,0,1-2.237-2.536l1.193-22.275a2.391,2.391,0,1,1,4.773.3l-1.193,22.275A2.429,2.429,0,0,1,607.68,1384.546Z" transform="translate(-605.287 -1150.139)" fill="#201000"/></g><g transform="translate(125.352 154.783)"><path d="M1355.113,970.255a5.337,5.337,0,0,1-3.928-4.375c-4.077-1.193-6.812-1.641-5.022-2.784a38.152,38.152,0,0,0,10.441-9.745c-.2-.845-.448-1.641-.7-2.486-.6.149-1.193.249-1.79.4a2.659,2.659,0,0,0-3.729-1.84,261.878,261.878,0,0,0-42.063,25.656c-13.176,14.469-26.65,28.639-39.826,43.058a85.379,85.379,0,0,1,36.3,39.876c.845,1.939,3.331,1.342,4.326,0a179.2,179.2,0,0,0,17.8-28.888,5.418,5.418,0,0,1,.1-1.989c.9-4.027,2.088-8.005,3.331-11.933a6.7,6.7,0,0,1-.1-2.983,42.971,42.971,0,0,1,3.281-8.5,4.315,4.315,0,0,1,1.889-1.989,1.909,1.909,0,0,0,.4.547,9.283,9.283,0,0,0,10.342,1.989,10.741,10.741,0,0,0,2.934-1.691,24.2,24.2,0,0,0,10.242-10.342c3.182-6.315,3.332-14.966-.646-21.131C1357.649,970.8,1356.455,970.5,1355.113,970.255Z" transform="translate(-1064.099 -942.561)" fill="#e7c1a0"/><path d="M1301.576,1127.181c1.144-1.84,2.287-3.679,3.48-5.469-6.016-16.557-29.733-38.832-39.478-42.312-1.243,1.044-2.536,2.088-3.779,3.132a2.415,2.415,0,0,0,1.641,1.194c7.359,1.491,35.8,27.4,38.185,43.306C1301.527,1127.082,1301.527,1127.131,1301.576,1127.181Z" transform="translate(-1060.731 -1008.051)" fill="#201000"/><path d="M1433.309,984.78a16.824,16.824,0,0,0-9.049-3.58,4.74,4.74,0,0,1-1.79,1.641,58.153,58.153,0,0,0-5.37,3.132c5.22-.845,10.242.149,13.176,2.536,2.784,2.287,4.077,6.016,4.226,10.043.248,5.221-2.486,11.933-4.773,11.436-.945-.2-1.541-1.442-1.591-1.69a17.176,17.176,0,0,1,.05-4.226,9.977,9.977,0,0,0-1.442-5.966c-1.591-2.387-5.469-.149-3.878,2.237,1.492,2.188.547,4.922.746,7.408a8,8,0,0,0,2.188,5.27,5.279,5.279,0,0,0,2.934,1.442c-.1.2-.2.348-.3.547a1.377,1.377,0,0,0,.447.05,3.84,3.84,0,0,0,.746-.1,10.748,10.748,0,0,0,2.237-1.144l.448-.3c2.734-1.939,6.613-6.215,6.911-14.767A16.788,16.788,0,0,0,1433.309,984.78Z" transform="translate(-1138.815 -958.677)" fill="#201000"/><path d="M1416.483,997.778c-4.226-1.84-9.845-3.033-17.054-3.48a2.423,2.423,0,0,0-2.536,2.237,2.388,2.388,0,0,0,2.237,2.536c7.408.5,12.977,1.74,16.656,3.679A14.5,14.5,0,0,1,1416.483,997.778Z" transform="translate(-1128.652 -965.261)" fill="#201000"/><path d="M1384.629,1013.324c1.392-.8,2.734-1.541,4.127-2.287a65.81,65.81,0,0,0-13.027-2.039,2.423,2.423,0,0,0-2.536,2.238,2.388,2.388,0,0,0,2.237,2.536,76.891,76.891,0,0,1,7.707.9A4.826,4.826,0,0,1,1384.629,1013.324Z" transform="translate(-1116.735 -972.653)" fill="#201000"/><path d="M1411.554,993.755c-4.525-2.039-9.6,3.53-12.679,6.066a120.21,120.21,0,0,0-16.607,16.756,2.389,2.389,0,0,0-.547,2.088c-.149.5-.348.945-.448,1.442a6.544,6.544,0,0,0,5.817,7.806c5.668.7,9.248-4.475,12.38-8.3,4.425-5.42,10.541-10.988,13.772-17.2C1414.686,999.473,1415.084,995.346,1411.554,993.755Z" transform="translate(-1120.739 -964.768)" fill="#e7c1a0"/><path d="M989.805,1154.67c-39.627,0-59.316-51.411-82.138-110.976a2.352,2.352,0,0,1,1.392-3.083,2.392,2.392,0,0,1,3.083,1.392c22.175,57.875,41.318,107.893,77.663,107.893,32.468,0,64.189-40.671,92.132-76.52,3.431-4.375,6.762-8.651,10.043-12.778,22.225-27.993,26.5-42.859,29.385-52.7,1.84-6.414,3.331-11.485,8.552-16.756,11.485-11.485,18.5-18.993,17.6-25.357-1.691.447-5.618,2.983-8.552,4.922-6.116,4.027-13.773,9.049-21.38,10.59-3.878.8-7.21,1.293-8.254-1.293-1.293-3.132,1.939-5.42,17.6-15.861,3.878-2.585,8.2-5.469,12.729-8.552,6.115-4.176,8.254-9.049,8.154-10.491-2.237-.3-12.082,5.718-28.191,15.563l-7.558,4.624c-10.391,6.314-49.72,46.14-78.409,75.177-35.7,36.147-35.749,36.1-37.987,35.152a2.334,2.334,0,0,1-1.243-1.144c-.3-.6-13.425-25.109-36.147-76.917-21.678-49.372-39.13-55.14-98.546-56.88a2.455,2.455,0,0,1-2.337-2.436,2.487,2.487,0,0,1,2.436-2.337c58.62,1.691,79.5,6.712,102.822,59.764,18.844,42.859,30.976,66.924,34.755,74.233,4.972-4.475,18.6-18.247,32.865-32.716,30.479-30.876,68.415-69.26,79.354-75.923l7.557-4.624c27-16.457,31.125-18.993,34.605-14.27a5.056,5.056,0,0,1,.746,4.077c-.547,3.232-3.53,8.651-10.093,13.176-4.525,3.132-8.9,6.016-12.778,8.6-4.475,2.983-9.049,6.016-12.181,8.3,6.464-1.591,13.325-6.116,18.894-9.745,6.215-4.077,10.342-6.762,13.375-5.42a4.2,4.2,0,0,1,2.436,3.48c1.491,8.85-6.215,17.1-18.894,29.783-4.376,4.375-5.569,8.5-7.359,14.667-2.933,10.193-7.408,25.606-30.23,54.345-3.282,4.127-6.613,8.4-9.994,12.728C1057.077,1113.054,1024.61,1154.67,989.805,1154.67Z" transform="translate(-857.4 -935.9)" fill="#201000"/><path d="M1428.326,1040.936c-.3-.249-.646-.5-.945-.746-.746,2.238-2.834,6.712-5.469,5.022-1.74-1.144-.945-4.226-.149-6.712-.05.05-.149.1-.2.149a6,6,0,0,1-4.276,1.541,10.709,10.709,0,0,0-.248,3.58c.248,2.585,1.591,4.922,3.828,5.767,5.071,1.889,8.552-3.083,10.242-7.856A5.307,5.307,0,0,1,1428.326,1040.936Z" transform="translate(-1138.755 -987.487)" fill="#201000"/><path d="M1411.551,1053.838a2.555,2.555,0,1,1-4.724-1.939c0-.05.05-.149.05-.2-1.193,1.442-2.436,2.834-3.679,4.226l-.3.3a6.7,6.7,0,0,0,3.48,3.331,7.185,7.185,0,0,0,9-3.431C1416.672,1053.49,1412.794,1051.253,1411.551,1053.838Z" transform="translate(-1131.675 -994.124)" fill="#201000"/></g></g><g transform="translate(437.697 572.599)"><path d="M576.349,705.558c.1,10.541-3.53,20.037-7.657,29.385a6.272,6.272,0,0,1,.9,3.829,4.9,4.9,0,0,0,.746-.6c1.889-1.641,3.679-3.431,5.569-5.121a32.408,32.408,0,0,1,4.475-3.431l-3.132-7.409L603.7,712.072,586.741,662.6l-17.5,6.712s-42.063,13.673-18.3,79.5c5.618-14.22,14.518-27.744,14.419-43.207C565.311,698.5,576.3,698.5,576.349,705.558Z" transform="translate(-543.666 -662.6)" fill="#6b553d"/><path d="M878.98,1200.874a162.268,162.268,0,0,1-23.717-1.69c-85.121-12.629-121.069-116.246-126.936-151.6a50.858,50.858,0,0,1-.7-6.613c-8.1-4.475-17.4-15.165-22.325-32.119-3.033-10.541-2.337-18.347.05-23.568-7.259-9.6-13.574-25.258-15.264-42.909a2.39,2.39,0,0,1,2.138-2.585,2.361,2.361,0,0,1,2.585,2.138c1.641,17.352,7.458,30.827,13.275,39.08a13.489,13.489,0,0,1,2.038-1.79c4.674-3.281,10.143-3.431,13.872-.348a9.277,9.277,0,0,1,2.386,11.237c-1.641,3.729-4.724,5.519-8.4,4.922-2.934-.5-6.066-2.436-9.2-5.569-1.243,4.177-1.293,10.193.994,18.1,4.176,14.419,11.635,23.617,17.949,28.042.7-4.723,2.536-6.911,3.978-7.906a5.967,5.967,0,0,1,6.464-.249c2.934,1.69,4.674,5.469,4.326,9.6a6.456,6.456,0,0,1-6.116,6.314,11.279,11.279,0,0,1-3.978-.348c.1,1.144.3,2.436.5,3.828,1.69,10.193,10.242,43.7,29.086,76.072,24.413,41.865,55.985,65.929,93.822,71.548,52.753,7.806,137.228-10.441,153.686-92.828a2.408,2.408,0,0,1,4.723.945C999.5,1176.611,932.231,1200.874,878.98,1200.874ZM732.355,1037.99a8.616,8.616,0,0,0,3.63.6,1.776,1.776,0,0,0,1.84-1.939c.2-2.635-.845-4.475-1.939-5.072a1.164,1.164,0,0,0-1.392,0C734.244,1031.775,732.653,1033.118,732.355,1037.99Zm-21.181-53.151c2.933,3.281,5.668,5.171,7.707,5.469,1.044.149,2.287.05,3.281-2.188a4.53,4.53,0,0,0-1.044-5.569c-1.541-1.293-4.624-1.889-8.1.547A6.75,6.75,0,0,0,711.174,984.839Z" transform="translate(-617.285 -801.968)" fill="#6b553d"/><path d="M670.958,837.3l-21.529,8.254c-1.193,17.054-1.939,34.108-3.729,51.112,10.193,4.326,19.888,3.132,28.191-.6l17.5-6.712Z" transform="translate(-594.969 -750.438)" fill="#6b553d"/></g><g transform="translate(392.656 609.144)"><path d="M-17355.771-20357.486l24.15,11.955,34.193,8.129,4.3-59.059,9.324-3.111-9.324-4.064-1.436-8.846-6.215-4.3-3.828-7.174-14.346,10.043-3.348,3.826,7.412-32.52-2.629-8.367h-4.783Z" transform="translate(17391.598 20453.371)" fill="#e7c1a0"/><path d="M498.786,986.144h0a2.387,2.387,0,0,1-2.387-2.387c.2-40.472,5.519-86.066,9.1-116.246.845-7.16,1.591-13.375,2.088-18.5,3.331-31.473,10.839-50.168,19.54-71.846,4.027-9.994,8.154-20.286,12.38-32.915,2.287-6.812,6.563-8.85,9.546-7.955,3.729,1.144,6.414,6.712,2.983,18.894-5.071,17.8-6.265,27.4-6.315,27.5a2.377,2.377,0,0,1-4.723-.547c.05-.4,1.243-9.994,6.464-28.241,2.784-9.845.746-12.878.249-13.027-.4-.149-2.287.845-3.63,4.873-4.226,12.728-8.452,23.12-12.48,33.163-8.6,21.33-16.01,39.727-19.242,70.553-.547,5.121-1.293,11.386-2.088,18.546-3.53,30.081-8.85,75.475-9.049,115.7A2.506,2.506,0,0,1,498.786,986.144Z" transform="translate(-474.86 -736.1)" fill="#201000"/><path d="M577.623,823.226a2.017,2.017,0,0,1-.945-.2,2.366,2.366,0,0,1-1.193-3.132c4.922-11.088,15.562-27.595,24.612-27.595h.05c2.337,0,5.569,1.094,7.806,6.165a2.383,2.383,0,1,1-4.375,1.889c-1.442-3.281-2.933-3.281-3.431-3.281h0c-5.022,0-14.27,11.336-20.236,24.761A2.582,2.582,0,0,1,577.623,823.226Z" transform="translate(-514.516 -764.357)" fill="#201000"/><path d="M589.623,840.026a2.018,2.018,0,0,1-.945-.2,2.366,2.366,0,0,1-1.193-3.132c4.922-11.088,15.563-27.595,24.612-27.595h.05c2.337,0,5.569,1.094,7.806,6.165a2.383,2.383,0,0,1-4.375,1.889c-1.442-3.282-2.933-3.282-3.431-3.282h0c-5.022,0-14.27,11.336-20.236,24.761A2.582,2.582,0,0,1,589.623,840.026Z" transform="translate(-520.55 -772.804)" fill="#201000"/><path d="M602.823,857.637a2.018,2.018,0,0,1-.945-.2,2.366,2.366,0,0,1-1.193-3.132c5.469-12.331,17.154-25.606,26.551-25.606h.05c2.735,0,6.513,1.144,8.8,6.513a2.383,2.383,0,0,1-4.375,1.889c-1.392-3.232-3.232-3.63-4.475-3.63h0c-6.314,0-16.855,10.839-22.175,22.772A2.455,2.455,0,0,1,602.823,857.637Z" transform="translate(-527.187 -782.659)" fill="#201000"/><path d="M502.908,1121.494c-10.143,0-20.236-4.177-28.39-11.983-10.342-9.894-26.7-34.506-19.789-88.3,9.5-73.686,20.584-92.529,28.689-106.3l.249-.447a2.366,2.366,0,0,1,3.281-.845,2.409,2.409,0,0,1,.845,3.281l-.249.448c-7.906,13.424-18.695,31.771-28.092,104.512-6.663,51.709,8.6,74.978,18.347,84.226,8.751,8.353,19.938,12.082,30.628,10.193,25.8-4.574,30.727-34.406,32.269-65.979.8-32.318,4.972-194.208,8.6-201.517a2.368,2.368,0,0,1,4.226,2.138c-2.486,6.563-6.215,122.909-8.1,199.528-1.591,33.611-7.06,65.382-36.2,70.553A44.44,44.44,0,0,1,502.908,1121.494Z" transform="translate(-453.077 -792.097)" fill="#201000"/><path d="M582.559,949.265c-1.143,0-28.838-.2-57.725-17.849a2.388,2.388,0,0,1,2.486-4.077c27.694,16.905,54.991,17.154,55.239,17.154a2.387,2.387,0,1,1,0,4.773Z" transform="translate(-488.576 -832.074)" fill="#201000"/></g></g></svg>