<svg xmlns="http://www.w3.org/2000/svg" width="46" height="46" viewBox="0 0 46 46"><g transform="translate(-282 -8281)"><circle cx="23" cy="23" r="23" transform="translate(282 8281)" fill="#0092d2"/><path d="M23,1a22.006,22.006,0,0,0-8.563,42.272A22.006,22.006,0,0,0,31.563,2.728,21.861,21.861,0,0,0,23,1m0-1A23,23,0,1,1,0,23,23,23,0,0,1,23,0Z" transform="translate(282 8281)" fill="#0092d2"/><g transform="translate(291.943 8290.785)"><path d="M1035.489,501.435c.3-1.943,1.842-3.433,2.389-5.3.654-2.232-.383-4.7.534-6.815a2.614,2.614,0,0,1,2.8-1.71A4.159,4.159,0,0,1,1044,489.7c.113.17.22.339.321.516a.224.224,0,0,1,.138.239c.069.119.138.239.2.352a.292.292,0,0,1-.5.3.132.132,0,0,0-.019-.031c-.006.006-.006.013-.013.019a1.379,1.379,0,0,1,.277,1.188c-.075.371-.641.214-.566-.157a3.607,3.607,0,0,0-.578-.245c-.943-.314-1.509-.013-1.691.905,0,.013-.006.019-.006.031a3.2,3.2,0,0,0-.094.327c-.031.119-.057.233-.082.352a5.547,5.547,0,0,0-.088.723c-.006.075-.013.151-.013.226-.006.2-.006.4,0,.6.006.233.025.472.044.7.069.842.22,1.672.333,2.508.019.113.031.226.044.339l.038.34c.013.113.019.22.025.333a5.956,5.956,0,0,1-1.263,4.526A2.853,2.853,0,0,1,1035.489,501.435Z" transform="translate(-1035.444 -486.39)" fill="#201000"/><path d="M844.221,475.256c2.439-7.764-4.25-6.884-8.2-6.3s-5.714,3.074-5.714,6.444S844.221,475.256,844.221,475.256Z" transform="translate(-822.588 -468.591)" fill="#201000"/><path d="M835.819,514.255c.251-1.943,3.093-2.911,4.916-2.32.654.214,1.364-3.238,5.318-3.948,3.4-.616,5.576.075,6.607,2.244a8.055,8.055,0,0,1,.692,2.967c.251,3.6.717,7.33-.22,8.933-.93,1.578-2.269,1.873-4.143,1.773l-.05,3.866c.56,4.344-5.243,5.048-6.368.93a75.12,75.12,0,0,0-.421-7.588,4.61,4.61,0,0,1-1.616-2.961C837.453,517.606,835.53,516.474,835.819,514.255Z" transform="translate(-831.883 -505.308)" fill="#c69870"/><path d="M830.94,509.67a2.825,2.825,0,0,1,1.4-2.012,4.762,4.762,0,0,1,1.088-.5,5.131,5.131,0,0,1,1.622-.245,4.082,4.082,0,0,1,1.157.176,3.778,3.778,0,0,0,.465-.6,7.045,7.045,0,0,1,4.752-3.345c3.583-.647,5.853.138,6.934,2.408a7.027,7.027,0,0,1,.578,1.88c.063.371.113.773.145,1.194.038.516.075,1.031.113,1.54.245,3.143.478,6.111-.377,7.563-.962,1.635-2.338,1.987-4.105,1.936l-.044,3.539a5.976,5.976,0,0,1,.038.66,3.254,3.254,0,0,1-.057.616,3.193,3.193,0,0,1-2.571,2.647,3.709,3.709,0,0,1-.7.069,3.76,3.76,0,0,1-3.608-2.766c-.019-.063-.038-.126-.057-.195a.321.321,0,0,1-.013-.082V523.8c-.031-3.464-.333-6.463-.4-7.091a4.838,4.838,0,0,1-1.6-2.86,12.512,12.512,0,0,1-2.093-.56c-1.8-.685-2.7-1.723-2.7-3.143A4.262,4.262,0,0,1,830.94,509.67Zm2.584,2.948a11.458,11.458,0,0,0,2.489.685.314.314,0,0,1,.251.27,4.326,4.326,0,0,0,1.5,2.747.31.31,0,0,1,.113.2,75.021,75.021,0,0,1,.421,7.582,3.166,3.166,0,0,0,3.659,2.42,2.7,2.7,0,0,0,2.106-3.269v-.044l.05-3.866a.306.306,0,0,1,.094-.214.319.319,0,0,1,.207-.082h.019c1.741.094,3-.151,3.866-1.628.761-1.289.534-4.168.3-7.211-.038-.516-.082-1.031-.113-1.547a9.307,9.307,0,0,0-.132-1.094,6.454,6.454,0,0,0-.534-1.76c-.962-2.018-2.961-2.678-6.28-2.075a6.426,6.426,0,0,0-4.363,3.093c-.4.572-.679.987-1.106.849a3.7,3.7,0,0,0-1.037-.157,4.662,4.662,0,0,0-1.773.346,4.266,4.266,0,0,0-.585.3,2.909,2.909,0,0,0-.7.6,1.9,1.9,0,0,0-.427.968C831.374,511.034,832.008,511.971,833.523,512.618Z" transform="translate(-827.305 -500.761)" fill="#201000"/><path d="M901.326,580.033a.322.322,0,0,0,.214-.088c1.446-1.421,1.063-3.351-.082-6.2a.3.3,0,1,0-.559.22c1.226,3.049,1.282,4.5.22,5.551a.306.306,0,0,0-.006.427A.291.291,0,0,0,901.326,580.033Z" transform="translate(-884.761 -566.949)" fill="#201000"/><ellipse cx="0.402" cy="0.402" rx="0.402" ry="0.402" transform="matrix(-0.975, -0.222, 0.222, -0.975, 13.173, 8.566)" fill="#201000"/><ellipse cx="0.402" cy="0.402" rx="0.402" ry="0.402" transform="matrix(-0.975, -0.222, 0.222, -0.975, 19.382, 8)" fill="#201000"/><path d="M974.148,561.355a.325.325,0,0,0-.365-.27l-.541.038a.32.32,0,0,0-.27.365.325.325,0,0,0,.365.27l.541-.038A.33.33,0,0,0,974.148,561.355Z" transform="translate(-960.964 -555.269)" fill="#201000"/><path d="M1049.957,599.253a.236.236,0,0,0,.069-.006.3.3,0,0,0,.22-.365,3.159,3.159,0,0,0-2.6-2.282.3.3,0,0,0-.308.3.3.3,0,0,0,.3.308,2.572,2.572,0,0,1,2.037,1.817A.284.284,0,0,0,1049.957,599.253Z" transform="translate(-1041.746 -588.553)" fill="#201000"/><path d="M951.887,683.019a1.14,1.14,0,0,0,1.031.723c.377.013.377.6,0,.585a1.762,1.762,0,0,1-1.6-1.15C951.183,682.818,951.749,682.667,951.887,683.019Z" transform="translate(-938.653 -669.351)" fill="#201000"/><path d="M871.973,543.832a.3.3,0,0,1,.358-.207c.277.05.553.1.83.145a.3.3,0,0,1,.208.358.3.3,0,0,1-.358.207c-.277-.05-.553-.1-.83-.145A.284.284,0,0,1,871.973,543.832Z" transform="translate(-853.842 -538.903)" fill="#201000"/></g></g></svg>