<svg xmlns="http://www.w3.org/2000/svg" width="247.79" height="170.865" viewBox="0 0 247.79 170.865"><g transform="translate(0 58.897)"><path d="M459.34,873.339c0,1.5-.016,3.007-.063,4.494h0c-.016.579-.031,1.175-.063,1.754-.016.532-.047,1.065-.078,1.6-.188,3.633-.5,7.2-.94,10.68H378.143A150.642,150.642,0,0,1,377,873.354c0-21.344,4.385-40.716,11.51-54.966.266-.532.532-1.065.814-1.582,4.7-8.895,10.508-15.629,16.991-19.371.486-.282.971-.548,1.472-.8A23.036,23.036,0,0,1,418.17,794.1c7.908,0,15.3,4.291,21.579,11.729.313.376.642.767.955,1.175a73.8,73.8,0,0,1,10.774,19.747c.094.235.172.47.266.7.078.235.172.47.251.7a115.59,115.59,0,0,1,4.385,15.66h0A144.512,144.512,0,0,1,459.34,873.339Z" transform="translate(-377 -794.1)" fill="#6b553d"/><path d="M1223,1023.42a113.859,113.859,0,0,0,.861-13.89c0-32.823-13.828-59.429-30.881-59.429s-30.881,26.606-30.881,59.429a111.03,111.03,0,0,0,.861,13.89Z" transform="translate(-976.072 -925.671)" fill="#6b553d"/><path d="M657.33,860.036l-4.51-8.77c-.439-.861-1.738-.094-1.3.752,1.5,2.928,3.007,5.841,4.51,8.77C656.484,861.664,657.784,860.9,657.33,860.036Z" transform="translate(-584.053 -841.995)" fill="#6b553d"/><path d="M494.32,1198.421h-1.535q-2.02-9.279-4.04-18.573l-.47-2.161q-2.091-9.584-4.181-19.152c-.2-.94,1.237-1.347,1.456-.407Q489.92,1178.283,494.32,1198.421Z" transform="translate(-442.905 -1100.672)" fill="#fff"/><path d="M445.024,1236.5q-6.107-5.051-12.23-10.085c-.736-.611-1.817.454-1.065,1.065q6.107,5.05,12.23,10.085C444.695,1238.176,445.76,1237.111,445.024,1236.5Z" transform="translate(-398.541 -1158.562)" fill="#fff"/><path d="M484.075,1198.421h1.535q2.02-9.279,4.04-18.573l.47-2.161q2.091-9.584,4.181-19.152c.2-.94-1.237-1.347-1.456-.407Q488.475,1178.283,484.075,1198.421Z" transform="translate(-270.926 -1100.672)" fill="#fff"/><path d="M431.722,1236.5q6.107-5.051,12.23-10.085c.736-.611,1.817.454,1.065,1.065q-6.107,5.05-12.231,10.085C432.051,1238.176,430.986,1237.111,431.722,1236.5Z" transform="translate(-213.641 -1158.562)" fill="#fff"/></g><g transform="translate(51.909 0)"><g transform="translate(20.238 61.761)"><path d="M682.64,893.742h-.063a.765.765,0,0,1-.689-.814c.016-.172,1.55-17.633,5.262-44.771,3.743-27.373,8.863-34.452,47-35.767a.743.743,0,0,1,.783.72.763.763,0,0,1-.72.783c-37.239,1.284-41.89,7.673-45.554,34.467-3.711,27.107-5.246,44.537-5.262,44.709A.75.75,0,0,1,682.64,893.742Z" transform="translate(-681.886 -812.387)"/><rect width="9.02" height="26.324" transform="translate(29.458 2.398)" fill="#201000"/><path d="M1202.286,813.3h-.987v28.579h9.02V815.962C1207.658,815.054,1204.933,814.287,1202.286,813.3Z" transform="translate(-1119.961 -813.157)" fill="#201000"/></g><g transform="translate(0.99 83.303)"><path d="M776.4,989.391l23.208-8.691,5.231,73.3L781.63,1062.7Z" transform="translate(-742.351 -975.885)" fill="#fff"/><path d="M795.732,989.712l-.11-1.629h0l.11,1.629,4.259,59.68Zm5.81,60.118-.047-.6-2.944-41.2-1.331-18.651-.11-1.566-.736-10.351-.063-.768-.016-.172a.8.8,0,0,0-.266-.532c-.031-.016-.047-.031-.078-.047a.682.682,0,0,0-.3-.109.586.586,0,0,0-.235,0h-.031a.058.058,0,0,0-.047.016c-.016,0-.047.016-.063.016l-8.159,3.054-2.834,1.065-12.011,4.494-.188.078a.717.717,0,0,0-.47.579.766.766,0,0,0-.016.188l.047.579,3.68,51.521.11,1.566h0l.439,6.107.893,12.559.063.767.016.188a.737.737,0,0,0,.344.579.872.872,0,0,0,.282.11.1.1,0,0,1,.063.016h.063a.308.308,0,0,0,.125-.016.058.058,0,0,0,.047-.016c.031-.016.063-.016.094-.031l23-8.613.188-.063a.757.757,0,0,0,.485-.595Zm-24.617-10.977h0l-.109-1.535-3.68-51.536,11.667-4.369,6.608-2.474,3.461-1.3.094,1.3.658,9.145.11,1.629,4.259,59.68-21.736,8.143-.893-12.4Zm18.807-49.141-.11-1.629h0l.11,1.629,4.259,59.68Z" transform="translate(-738.302 -971.773)" fill="#201000"/><path d="M958.237,985.664,924.6,980.7l5.23,73.3,33.637,4.964Z" transform="translate(-867.343 -975.885)" fill="#fff"/><path d="M1139.4,963.82l23.177-9.02,5.23,73.3-23.177,9.02Z" transform="translate(-1047.735 -954.041)" fill="#fff"/><path d="M598.249,1070.03l-5.23-73.3c-14.15-2.51-17.138-2.9-28.769-4.642-1.339,11.121,4.368,60.907,5.263,72.951Z" transform="translate(-558.969 -983.22)" fill="#fff"/><path d="M667.75,1119.971a.751.751,0,0,1-.752-.689l-3.508-43.613a.752.752,0,0,1,.251-.611.741.741,0,0,1,.642-.188l8.519,1.5a.749.749,0,0,1,.61.673l2.208,22.754,9.051,1.864,16.27-4.792-3.461-40.747a.75.75,0,0,1,.407-.736l7.016-3.508a.753.753,0,0,1,.485-.062l14.282,3.006a.749.749,0,0,1,.6.673l1.707,21.986,7.454,1.394a.749.749,0,0,1-.282,1.472l-8.018-1.5a.764.764,0,0,1-.611-.673l-1.707-22-13.483-2.834L699.1,1056.5l3.461,40.841a.735.735,0,0,1-.532.783l-17.038,5.011a.715.715,0,0,1-.36.016l-9.772-2a.731.731,0,0,1-.6-.658l-2.208-22.738-7-1.237,3.429,42.642a.765.765,0,0,1-.689.814Z" transform="translate(-647.121 -1035.854)" fill="#0092d2"/><path d="M591.173,1026.161h0l-.047-.783c-.235.078-.47.172-.72.266v.266l.031.517h0l.047.783c.11-.047.235-.094.36-.141.11-.047.219-.078.344-.125.016,0,.016-.016.031-.016Zm-.313-4.479c-.188.063-.376.141-.564.2v.266l.6.031Zm-.313-4.385-.016-.235h0l-.063-.846c-.031.016-.078.047-.11.063l-.235.141.031.877a3.151,3.151,0,0,0-.345.235v.031c.125-.047.235-.094.345-.125l.031.8c.141-.047.282-.109.423-.156Zm-.532-4.62.2.078-.062-.924-.047-.7v-.078l-.063-.783-.031-.407L590,1009.7l-.094-1.253c-.219.329-.376.6-.485.767-.016.016-.031.031-.031.047l-.094.141.626.407.016.485c-.219.078-.423.157-.642.235l.047.658.016.125.063.783c.188-.078.391-.141.579-.219Zm33.293,65.991-.016-.219-.063-.783-.893-12.4L621.9,1059h0l-.11-1.535h0l-3.68-51.537-.047-.564a.433.433,0,0,0-.047-.2.764.764,0,0,0-.579-.486l-.2-.031-7.532-1.3-1.488-.251-11.933-2.067-.767-.125-.767-.125-2.725-.47h0l-.893-.156h0l-.877-.157-1.582-.266a.709.709,0,0,0-.626.188.751.751,0,0,0-.251.611l.188,2.584.094,1.315h0l.094,1.363.36,5.058.031.47.016.313.047.532.016.251.345,4.87.063.814.235,3.367.094,1.409.219,3.069.063.783.063.783.2,2.819.094,1.316.063.861.063.892h0l.564,7.814.063.767.047.767,1.613,22.566.611,8.535a.765.765,0,0,0,.626.689l28.767,4.933a.094.094,0,0,1,.063.016h.063a.3.3,0,0,0,.125-.016.058.058,0,0,0,.047-.016c.031-.016.063-.016.094-.032a.653.653,0,0,0,.219-.141A.719.719,0,0,0,623.307,1078.668Zm-18.682-3.805-1.535-.266-8.566-1.488-.564-7.845-2.349-32.823-.063-.814-.063-.814-.125-1.691-.157-2.193-.063-.783h0l-.047-.783-.2-2.928-.016-.282-.031-.5-.063-.783-.2-2.819-.047-.783-.016-.235h0l-.063-.846-.251-3.461-.063-.924-.047-.7v-.078l-.063-.783-.031-.407-.016-.156-.094-1.253-.36-5-.078-1.19h0l-.063-.893.642.11.83.141,3.038.532.8.141.8.141,12.5,2.161,1.488.251,7.11,1.237,3.68,51.521.11,1.566.439,6.107.893,12.559Zm-14.47-63.031-.047-.7v-.078l-.063-.783-.031-.407L590,1009.7l-.094-1.253c-.219.329-.376.6-.485.767-.016.016-.031.031-.031.047l-.094.141.626.407.016.485c-.219.078-.423.157-.642.235l.047.658.016.125.063.783c.188-.078.391-.141.579-.219l.016.783.2.078Zm.391,5.465-.016-.235h0l-.063-.846c-.031.016-.078.047-.11.063l-.235.141.031.877a3.151,3.151,0,0,0-.345.235v.031c.125-.047.235-.094.345-.125l.031.8c.141-.047.282-.109.423-.156Zm.313,4.385c-.188.063-.376.141-.564.2v.266l.6.031Zm.313,4.479h0l-.047-.783c-.235.078-.47.172-.72.266v.266l.031.517h0l.047.783c.11-.047.235-.094.36-.141.11-.047.219-.078.344-.125.016,0,.016-.016.031-.016Z" transform="translate(-583.276 -991.921)" fill="#201000"/><path d="M1164.484,1023.294l-1.472-20.718-.188-2.537h0l-.078-1.034h0l-2.521-35.25v-.063l-.219-2.975v-.063l-.016-.188h0l-.078-1.128v-.063l-.047-.736-.376-5.168-.188-2.725a.745.745,0,0,0-1.018-.642l-4.181,1.629-9.02,3.508-9.787,3.805-.188.078a.739.739,0,0,0-.47.6.265.265,0,0,0,0,.156l.047.6,5.121,71.769.047.767.016.172a.737.737,0,0,0,.344.579.687.687,0,0,0,.3.109c.031,0,.078.016.11.016a.735.735,0,0,0,.266-.047h.016l23.177-9.02a.73.73,0,0,0,.47-.752Zm-11.854,4.244-11.354,4.416h0l-.626-8.66-1.5-21.094h0l-.016-.266-2.975-41.7,8.91-3.476,9.02-3.508,3.774-1.472.188,2.646.955,13.483.063.861v.016l.031.517.016.329,1.879,26.293h0l.172,2.3.094,1.221h0l.532,7.548.109,1.55,1.049,14.752.016.219-8.91,3.476Z" transform="translate(-1044.478 -949.951)" fill="#201000"/><path d="M960.16,1054.794l-.016-.235-.047-.783-.626-8.66-1.5-21.094h0l-.016-.266-3.022-42.25a.5.5,0,0,0-.047-.219.718.718,0,0,0-.6-.47l-.2-.031L921.011,975.9l-.376-.063a.594.594,0,0,0-.235,0h-.031a.057.057,0,0,0-.047.016c-.016,0-.047.016-.063.016a.481.481,0,0,0-.235.156.739.739,0,0,0-.235.611l.016.219.157,2.083.658,9.145.11,1.629,4.259,59.68.047.564a.436.436,0,0,0,.047.2.763.763,0,0,0,.595.485l.188.031,33.449,4.933c.031,0,.078.016.11.016a.73.73,0,0,0,.266-.047h.016a.938.938,0,0,0,.235-.141A.968.968,0,0,0,960.16,1054.794Zm-33.684-5.559h0l-2.944-41.2L922.2,989.383l-.11-1.566-.736-10.351,32.118,4.745,5.121,71.769Z" transform="translate(-863.284 -971.773)" fill="#201000"/><g transform="translate(82.884 20.261) rotate(14)"><path d="M9.351,7.5A2.078,2.078,0,1,1,7.273,5.47,2.077,2.077,0,0,1,9.351,7.5M7.273,17.663,7.273,0A7.273,7.273,0,0,0,0,7.273C0,11.29,7.273,20.78,7.273,20.78s7.273-9.49,7.273-13.507A7.273,7.273,0,0,0,7.273,0" transform="translate(0 0.254) rotate(-1)" fill="#0092d2" fill-rule="evenodd"/></g><circle cx="1.209" cy="1.209" r="1.209" transform="translate(83.397 43.538)" fill="#0092d2"/></g><g transform="translate(0 88.58)"><path d="M8.852,3.09l2.061-2.2L12.795.682l.838,1.012-.838,2.023Z" fill="#c69870"/><path d="M57.932,95.787s-7.6,15.242-5.135,26.594,7.576,10.492,7.576,10.492l-.5-8.662,9.018-4.129,5.6-2.529v-2.221l.994-1.916v-2.838l.846-2.605L75.48,105.9H69.5l-6.437,1.533,2.682-2.453,6.822-2.836,2.451-2.068-1.533-2.531-5.977,1.84-8.584,3.449Z" transform="translate(-51.91 -88.58)" fill="#c69870"/><path d="M561.318,1052.079c-3.257-.313-5-3.445-5.857-6-2.772-8.1-1.253-22.221,3.993-30.975,0-.376.016-.736.047-1.1-.031-.438-.11-.877-.172-1.315v-.094c-6.342,8.957-8.331,25.009-5.262,33.982,1.456,4.275,3.93,6.7,7.141,7.015h.078a.773.773,0,0,0,.752-.673A.836.836,0,0,0,561.318,1052.079Z" transform="translate(-552.65 -1008.067)" fill="#201000"/><path d="M606.139,984.1c-.392-.329-1.879-1.221-4.354,1.1A19.3,19.3,0,0,0,600,987.137c.125.094.251.188.376.3a11.712,11.712,0,0,1,1.284.047,16.484,16.484,0,0,1,1.143-1.19c1.159-1.1,2.036-1.3,2.349-1.034.329.266.407,1.237-.313,2.333-.031.047-.063.094-.078.125.533.078,1.049.172,1.566.3C607.172,986.495,607.094,984.9,606.139,984.1Z" transform="translate(-592.585 -983.653)" fill="#201000"/><path d="M589.572,1062.2c-9.772,2.631-9.772-.188-10.523,4.51s-1.315,17.664,3.195,15.973S589.572,1062.2,589.572,1062.2Z" transform="translate(-574.484 -1049.9)" fill="#c69870"/><path d="M588.9,1048.353c12.371-4.6,16-6.844,16.991-4.275.548,1.409-.658,2.819-5.653,4.964a59.444,59.444,0,0,0-9.6,5.058c12.371-4.6,19.778-4.118,15.926,1.3Z" transform="translate(-583.223 -1033.704)" fill="#c69870"/><path d="M602.434,1052.071a.77.77,0,0,1-.439-.141.737.737,0,0,1-.172-1.049c.47-.673,1.206-1.895.72-2.521-.846-1.1-5.747-1.378-15.785,2.349a.743.743,0,0,1-.924-.36.762.762,0,0,1,.235-.971,58.162,58.162,0,0,1,9.725-5.136c5.841-2.505,5.4-3.633,5.262-4.009a.819.819,0,0,0-.423-.517c-1-.439-3.9.689-8.723,2.584-1.973.767-4.2,1.644-6.89,2.647a.753.753,0,0,1-.532-1.41c2.678-1,4.9-1.863,6.875-2.631,5.7-2.224,8.3-3.241,9.866-2.552a2.367,2.367,0,0,1,1.221,1.346c.908,2.365-1.77,4.088-6.06,5.935-1.159.5-2.224.987-3.179,1.457,5.481-1.378,9.255-1.284,10.523.344.564.736.893,2.067-.689,4.307A.719.719,0,0,1,602.434,1052.071Z" transform="translate(-579.092 -1029.608)" fill="#201000"/><path d="M599.6,1124.438c12.371-4.6,18.807-4.714,15.8.7Z" transform="translate(-592.248 -1099.516)" fill="#c69870"/><path d="M611.354,1121.906a.727.727,0,0,1-.36-.094.751.751,0,0,1-.3-1.018c.376-.673.924-1.895.454-2.443-.908-1.065-5.418-.892-15.331,2.8a.753.753,0,1,1-.532-1.409c9.568-3.57,15.284-4.369,16.991-2.38.814.939.72,2.349-.282,4.15A.71.71,0,0,1,611.354,1121.906Z" transform="translate(-588.201 -1095.527)" fill="#201000"/><path d="M597.935,1152.323c12.371-4.6,15.723-4.573,15.691-1.817-.031,3.085-13.217,5.152-15.926,8.205Z" transform="translate(-590.645 -1122.781)" fill="#c69870"/><path d="M593.723,1155.494a.769.769,0,0,1-.5-.188.748.748,0,0,1-.063-1.065c1.347-1.519,4.7-2.694,8.237-3.931,2.975-1.049,7.485-2.615,7.485-3.774,0-.564-.172-.752-.313-.862-1.817-1.284-11.26,2.239-14.36,3.4a.753.753,0,1,1-.532-1.41c11.025-4.1,14.266-4.259,15.754-3.21a2.371,2.371,0,0,1,.955,2.114c-.031,2.208-3.946,3.586-8.5,5.183-3.054,1.065-6.515,2.286-7.611,3.524A.784.784,0,0,1,593.723,1155.494Z" transform="translate(-586.653 -1118.812)" fill="#201000"/></g><g transform="translate(88.971 61.336)"><path d="M1314.256,1062.493c-4.135-13.781-11.275-32.337-11.275-32.337a41.041,41.041,0,0,0-1.205-3.978c-.282-.7-1.613.486-1.707,1.175-2.161,1.707-4.4,1.472-7.109,2.051-.125.031-8.8-12.168-12.481-17.711-.752-.736-1.488-1.472-2.239-2.192-.016,0-.031,0-.031.016.3,2.928.47,6.624.61,9.584.014.261-13.207-7.668-13.364-5.418-.04.573-3.254-2.015-3.066-.918.1.573-1.294,1.058-1,2.068.336,1.147,9.143,5.729,9.887,7.434.523,1.2-11.733-2.755-11.189-1.227.253.71-1.534,1.016-1,2.07.75,1.482-.433.322,1,2.223.418.556-1.674,1.773-1,2.605.826,1.02.269.194,1.533,1.466.49.493-1.3,1.253-.535,1.983,2.362,2.252,5.087,2.78,8.352,5.057,1.688,1.178,4.351,1.914,6.055,3.373a8.7,8.7,0,0,1,2.507,3.775c1.8,4.244,5.324,8.347,5.575,9.051,4.385,7.6,6.7,14.078,11.15,21.611,4.62,3.022,9.224,4.541,13.781,2.255C1313.222,1076.43,1315.9,1067.974,1314.256,1062.493Z" transform="translate(-1250.77 -978.208)" fill="#c69870"/><path d="M1170.8,1039.335a.747.747,0,0,1-.642-.36c-1.41-2.349-.971-3.664-.345-4.338,1.378-1.535,5.152-1.331,10.508.486-.924-.548-1.942-1.112-3.054-1.707-4.15-2.177-6.671-4.1-5.575-6.389a2.336,2.336,0,0,1,1.316-1.253c1.613-.564,4.134.658,9.646,3.32,1.895.924,4.056,1.958,6.64,3.163a.753.753,0,0,1-.642,1.363c-2.6-1.206-4.761-2.255-6.655-3.179-4.651-2.255-7.454-3.617-8.487-3.257-.141.047-.3.141-.454.485-.3.626-.109,1.754,4.917,4.416a59.846,59.846,0,0,1,9.3,5.888.748.748,0,0,1,.156.987.766.766,0,0,1-.955.282c-9.709-4.51-14.611-4.62-15.55-3.586-.532.579.094,1.863.517,2.568a.748.748,0,0,1-.266,1.033A1.006,1.006,0,0,1,1170.8,1039.335Z" transform="translate(-1161.639 -991.82)" fill="#201000"/><path d="M1187.173,1109.4a.55.55,0,0,1-.313-.078c-9.584-4.463-14.063-5-15.065-4.009-.516.517-.062,1.77.266,2.474a.757.757,0,1,1-1.378.626c-.862-1.879-.846-3.273.047-4.166,1.863-1.848,7.5-.6,16.756,3.711a.757.757,0,0,1,.36,1A.7.7,0,0,1,1187.173,1109.4Z" transform="translate(-1162.336 -1057.419)" fill="#201000"/><path d="M1320.324,1049.518a.77.77,0,0,1-.658-.376c-.2-.36-20.593-35.579-28.422-43.033a.753.753,0,1,1,1.034-1.1c7.987,7.6,27.843,41.921,28.673,43.378a.767.767,0,0,1-.282,1.034A.6.6,0,0,1,1320.324,1049.518Z" transform="translate(-1264.355 -974.253)" fill="#201000"/><path d="M1388.142,1115.216a.753.753,0,0,1-.768-.673.767.767,0,0,1,.689-.83c.063,0,5.873-.626,7.595-3.289a.8.8,0,0,1,1.065-.235.747.747,0,0,1,.25,1.033c-2.13,3.289-8.488,3.962-8.754,3.978A.118.118,0,0,1,1388.142,1115.216Z" transform="translate(-1345.625 -1063.034)" fill="#201000"/><path d="M1172.584,909.921a12.009,12.009,0,0,1-10.711-6.154c-.157-.3-15.018-28.25-17.414-31.414-.987-1.315-4.354-2.8-7.313-4.1-4.4-1.942-8.206-3.633-8.065-5.825a2.408,2.408,0,0,1,1.112-2.036c1.55-.924,4.776-.517,15.441,4.447a.753.753,0,0,1-.642,1.362c-3.007-1.394-12.136-5.653-14.047-4.51-.157.094-.345.266-.376.83-.078,1.159,4.291,3.085,7.172,4.354,3.429,1.519,6.671,2.944,7.908,4.573,2.459,3.257,16.913,30.443,17.523,31.586,3.148,5.543,9.834,7,16.239,3.539,7.36-3.978,4.807-11.166.172-24.194-.814-2.286-1.66-4.651-2.537-7.235-.031-.094-2.615-8.1-12.152-36.1-9.192-26.982-24.4-28.517-43.315-27.718a.761.761,0,0,1-.783-.72.752.752,0,0,1,.72-.783c18.87-.8,35.282.814,44.8,28.736,9.537,28,12.136,36.033,12.167,36.112.861,2.568,1.707,4.917,2.521,7.2,4.76,13.358,7.626,21.423-.877,26.027A15.828,15.828,0,0,1,1172.584,909.921Z" transform="translate(-1120.797 -809.679)" fill="#201000"/></g><g transform="translate(48.475)"><path d="M950.933,501.1c-1.425-4.823-9.02-6.123-13.4-3.884-1.566.8-4.776-7.642-15.08-7.861-8.879-.172-14.094,2.443-15.848,8.362a21.085,21.085,0,0,0-.548,7.8c.83,9.224,1.159,18.886,4.181,22.55,2.991,3.617,6.515,3.821,11.213,2.819l1.691,9.787c.344,11.244,15.347,10.664,16.521-.219-1.629-10.4-2.02-19.4-2.02-19.4a11.849,11.849,0,0,0,2.9-8.159C948.146,510.263,952.562,506.614,950.933,501.1Z" transform="translate(-899.083 -478.176)" fill="#c69870"/><path d="M947.483,496.825a7.228,7.228,0,0,0-4.354-4.51,11.862,11.862,0,0,0-3.461-.893h0a12.423,12.423,0,0,0-6.013.767c-.188.078-.36.157-.548.251a9.215,9.215,0,0,1-1.441-1.347c-.11-.125-.235-.251-.36-.376a22.684,22.684,0,0,0-3.993-3.414h0a16.7,16.7,0,0,0-9.036-2.756c-6.53-.141-11.15,1.253-13.953,4.212a11.368,11.368,0,0,0-2.631,4.682,15.3,15.3,0,0,0-.564,2.8,25.672,25.672,0,0,0-.016,5.277c.125,1.315.219,2.631.329,3.946.658,8.065,1.268,15.691,4.024,19.011,3.1,3.758,6.734,4.072,11.2,3.226l1.409,8.174.141.8a5.338,5.338,0,0,0,.047.7c.486,5.434,4.338,8.018,8.1,8.159h.345a9.586,9.586,0,0,0,9.443-8.441c.031-.2.063-.423.094-.642v-.2c-.031-.219-.063-.438-.11-.658-.329-2.145-.6-4.228-.83-6.17-.72-6.139-1-10.946-1.065-12.183a12.576,12.576,0,0,0,2.9-7.908c1.065-.376,2.052-.783,2.96-1.19C946.45,505.25,948.877,501.523,947.483,496.825Zm-11.369,11.291a.732.732,0,0,0-.5.767,11.162,11.162,0,0,1-2.693,7.6.768.768,0,0,0-.2.548c0,.063.219,5.043.987,11.776.266,2.365.611,4.948,1.018,7.611-.611,5.2-4.635,7.783-8.315,7.642-2.991-.11-6.53-2.13-6.687-7.454v-.157l-1.691-9.74a.815.815,0,0,0-.313-.5.788.788,0,0,0-.423-.125.535.535,0,0,0-.157.016c-4.385.94-7.673.83-10.477-2.568-2.443-2.96-3.054-10.351-3.68-18.181-.11-1.315-.219-2.647-.329-3.962a24.175,24.175,0,0,1,.047-5.246,15.289,15.289,0,0,1,.47-2.271,9.628,9.628,0,0,1,3.633-5.277h0c2.568-1.832,6.342-2.662,11.479-2.553a15.136,15.136,0,0,1,6.311,1.425,17.966,17.966,0,0,1,5.168,3.79c.3.3.579.6.83.861,1.206,1.268,2.1,2.192,3.085,1.707.016,0,.016-.016.031-.016a11.194,11.194,0,0,1,8.55-.251,2.23,2.23,0,0,1,.282.125,7.478,7.478,0,0,1,2.02,1.253,4.954,4.954,0,0,1,1.488,2.3c1.128,3.837-.861,6.875-6.264,9.4A31.773,31.773,0,0,1,936.114,508.116Z" transform="translate(-894.913 -474.118)" fill="#201000"/><path d="M970.7,575.437a.767.767,0,0,1-.438-.141c-4.228-3.007-4.04-8.049-2.3-15.738a.747.747,0,0,1,1.456.329c-1.879,8.237-1.425,11.949,1.707,14.172a.736.736,0,0,1,.172,1.049A.693.693,0,0,1,970.7,575.437Z" transform="translate(-950.42 -536.898)" fill="#201000"/><circle cx="1.034" cy="1.034" r="1.034" transform="translate(26.815 26.419) rotate(-21.925)" fill="#201000"/><circle cx="1.034" cy="1.034" r="1.034" transform="translate(10.844 27.498) rotate(-21.925)" fill="#201000"/><path d="M0,1.169A.847.847,0,0,1,.74.261C1.194.182,1.649.1,2.1.01a.836.836,0,0,1,.908.736.847.847,0,0,1-.736.908c-.454.078-.908.157-1.362.251A.836.836,0,0,1,0,1.169Z" transform="translate(27.088 22.304) rotate(14)" fill="#201000"/><path d="M0,1.169A.847.847,0,0,1,.74.261C1.194.182,1.649.1,2.1.01a.836.836,0,0,1,.908.736.847.847,0,0,1-.736.908c-.454.078-.908.157-1.362.251A.836.836,0,0,1,0,1.169Z" transform="translate(10.183 23.734) rotate(1)" fill="#201000"/><path d="M1123.84,559.7h-.063a.756.756,0,0,1-.689-.814c.172-2.161,2.709-6.7,6.155-7.36a.749.749,0,1,1,.282,1.472c-2.756.517-4.807,4.463-4.933,6A.753.753,0,0,1,1123.84,559.7Z" transform="translate(-1082.232 -530.605)" fill="#201000"/><path d="M933.2,430.747l-33.4,2.13.971-13.373L930.1,418Z" transform="translate(-893.912 -418)" fill="#201000"/><path d="M901.491,499.4l-33.4,2.13-5.888,7.658,47.731-3.9Z" transform="translate(-862.2 -487.653)" fill="#201000"/><path d="M1081.756,520.272a.746.746,0,0,0-1.457.266,1.346,1.346,0,0,0-.783-.094,1.517,1.517,0,0,0-.783.141,1.832,1.832,0,0,0-.94,1.065.759.759,0,0,0-.783.72,4.385,4.385,0,0,0,.564,2.85,2.291,2.291,0,0,0,2.552.8C1082.664,525.268,1082.32,522.214,1081.756,520.272Z" transform="translate(-1043.358 -503.814)" fill="#201000"/><path d="M.673,5.58A3.212,3.212,0,0,0,3.194,1.164C2.8.177,4.306-.512,4.7.491A4.885,4.885,0,0,1,.923,7.224.832.832,0,0,1,.673,5.58Z" transform="matrix(0.788, 0.616, -0.616, 0.788, 26.869, 37.945)" fill="#201000"/></g></g><g transform="translate(35.928 19.001)"><path d="M469.877,810.3c-.5.251-.987.517-1.472.8v.423a19.057,19.057,0,0,1-16.991,18.933c-.282.517-.548,1.049-.814,1.582a20.574,20.574,0,0,0,19.309-20.514C469.909,811.114,469.893,810.707,469.877,810.3Z" transform="translate(-450.6 -767.867)" fill="#fff"/><path d="M1381.062,650a5.262,5.262,0,1,0,5.262,5.262A5.273,5.273,0,0,0,1381.062,650Zm0,9.036a3.758,3.758,0,1,1,3.758-3.758A3.769,3.769,0,0,1,1381.062,659.036Z" transform="translate(-1230.915 -632.67)" fill="#6b553d"/><path d="M600.117,570.247l-5.262-6.765c-.6-.767-1.644.313-1.065,1.065l5.277,6.765C599.647,572.064,600.712,571,600.117,570.247Z" transform="translate(-571.224 -559.478)" fill="#0092d2"/><path d="M587.781,646.535c-.658-.673-1.315-1.347-1.973-2.036-.673-.689-1.738.376-1.065,1.065.658.673,1.315,1.347,1.973,2.036C587.39,648.289,588.455,647.224,587.781,646.535Z" transform="translate(-563.555 -627.842)" fill="#0092d2"/><path d="M1365.626,539.7c-1.989,3.524-3.085,4.181-5.074,7.689a.751.751,0,0,0,1.3.752c1.989-3.523,3.085-4.181,5.074-7.689A.751.751,0,0,0,1365.626,539.7Z" transform="translate(-1217.97 -539.333)" fill="#0092d2"/><path d="M1361.624,841.658c-.673-1.331-1.331-2.678-2-4.009-.439-.861-1.738-.11-1.3.752.673,1.331,1.331,2.678,2,4.009C1360.763,843.287,1362.063,842.519,1361.624,841.658Z" transform="translate(-1216.097 -790.612)" fill="#0092d2"/></g></svg>