<svg xmlns="http://www.w3.org/2000/svg" width="255.771" height="166.064" viewBox="0 0 255.771 166.064"><path d="M502.5,626.3V753.073H758.272V626.3Z" transform="translate(-502.5 -626.3)" fill="#afafaf" opacity="0.31"/><ellipse cx="3.705" cy="3.61" rx="3.705" ry="3.61" transform="translate(236.785 10.83)" fill="#fff"/><ellipse cx="3.705" cy="3.61" rx="3.705" ry="3.61" transform="translate(236.785 23.464)" fill="#fff"/><ellipse cx="3.705" cy="3.61" rx="3.705" ry="3.61" transform="translate(236.785 35.497)" fill="#fff"/><path d="M530.667,626.3A52.769,52.769,0,0,1,502.6,651.87v2.582A55.446,55.446,0,0,0,533.42,626.3Z" transform="translate(-502.574 -626.3)" fill="#fff"/><path d="M646.18,686.227c-.026-.025-.026-.075-.051-.1a.76.76,0,0,0-.129-.175c-.026-.025-.051-.075-.1-.1a1.674,1.674,0,0,0-.386-.251c-.026-.025-.077-.025-.1-.05a.96.96,0,0,0-.36-.05H604.709a2.028,2.028,0,0,0-.386.05.2.2,0,0,0-.1.05,1.018,1.018,0,0,0-.386.251.344.344,0,0,0-.077.1c-.026.025-.052.075-.077.1a.742.742,0,0,0-.1.2.148.148,0,0,0-.026.1,1.445,1.445,0,0,0-.051.351v39.333a1.65,1.65,0,0,0,.051.351c0,.025.026.075.026.1a1.475,1.475,0,0,0,.1.2c.026.025.051.075.077.1s.051.075.077.1a.93.93,0,0,0,.386.251.158.158,0,0,0,.1.025,1.025,1.025,0,0,0,.386.05h40.339a1.554,1.554,0,0,0,.36-.05c.026,0,.077-.025.1-.025a1.02,1.02,0,0,0,.386-.251l.1-.1a1.056,1.056,0,0,0,.129-.176c.026-.025.026-.075.051-.1a1.062,1.062,0,0,0,.1-.476V686.7A1,1,0,0,0,646.18,686.227Zm-40.236,38.581v-36.9h37.9v36.926h-37.9Z" transform="translate(-577.516 -670.659)" fill="#0092d2"/><path d="M644.974,896.8H604.635A1.2,1.2,0,0,0,603.4,898v39.308a1.22,1.22,0,0,0,1.235,1.2h40.339a1.2,1.2,0,0,0,1.235-1.2V898A1.2,1.2,0,0,0,644.974,896.8Zm-1.235,39.308H605.87v-36.9h37.895v36.9Z" transform="translate(-577.442 -828.989)" fill="#0092d2"/><path d="M822.263,756.707H806.13a1.218,1.218,0,0,1,0-2.407h16.133a1.112,1.112,0,0,1,1.03,1.2A1.126,1.126,0,0,1,822.263,756.707Z" transform="translate(-727.252 -722.212)" fill="#fff"/><path d="M1229.765,756.707h-32.93a1.2,1.2,0,1,1,0-2.407h32.93a1.2,1.2,0,1,1,0,2.407Z" transform="translate(-1017.291 -722.212)" fill="#fff"/><path d="M1229.765,756.707h-32.93a1.2,1.2,0,1,1,0-2.407h32.93a1.2,1.2,0,1,1,0,2.407Z" transform="translate(-1017.291 -665.632)" fill="#fff"/><path d="M809.94,972.807h-3.7a1.2,1.2,0,1,1,0-2.407h3.7a1.2,1.2,0,0,1,1.235,1.2A1.22,1.22,0,0,1,809.94,972.807Z" transform="translate(-727.178 -884.139)" fill="#fff"/><path d="M60.424,98.353a1.5,1.5,0,0,1-1.061-.439L46.939,85.49a1.5,1.5,0,1,1,2.121-2.121L60.424,94.732,84.213,70.944a1.5,1.5,0,0,1,2.121,2.121L61.485,97.913A1.5,1.5,0,0,1,60.424,98.353Z" transform="translate(-15.26 -48.971)" fill="#edf5f7"/><path d="M60.424,98.353a1.5,1.5,0,0,1-1.061-.439L46.939,85.49a1.5,1.5,0,1,1,2.121-2.121L60.424,94.732,84.213,70.944a1.5,1.5,0,0,1,2.121,2.121L61.485,97.913A1.5,1.5,0,0,1,60.424,98.353Z" transform="translate(-15.26 3.407)" fill="#edf5f7"/><g transform="translate(239.362 105.429)"><path d="M1450.92,1192.584c-1.278-1.46-2.557-2.9-3.836-4.36-.8-.915-2.157.409-1.359,1.324,1.279,1.46,2.557,2.9,3.836,4.36C1450.36,1194.823,1451.719,1193.5,1450.92,1192.584Z" transform="translate(-1445.277 -1187.915)" fill="#0092d2"/><path d="M1449.356,1235.412l-3.176-3.27c-.839-.876-2.317.331-1.478,1.207l3.176,3.27C1448.736,1237.475,1450.215,1236.288,1449.356,1235.412Z" transform="translate(-1444.452 -1223.287)" fill="#0092d2"/></g><g transform="translate(49.925 10.233)"><path d="M151.313,115.744l2.693-8.756,5.219-6.23,8.588-3.031,13.639-.674h3.537l1.852,7.408,3.873,4.211,6.734-1.18,5.389-4.209.727-2.055-.727-4.535L225.1,99.6l17.346,6.258,6.121,8.027,1.951,8.525-22.357,8.887-1.156,33.5-15.918-6.732-13.924-3.629-9.137-1.166-7.709.906-10.385,4.309-8.039,5.01-.953,1.906H159.4l4.922-41.83Z" transform="translate(-109.039 -35.232)" fill="#fff"/><path d="M-16668.369-18170.4l-2.65,23.529-1.939,13.959-6.6-2.2h-9.273l-4.75,2.2-3.68,2.174-6.947,8.561-1.295,4.441,14.945,9.965,9.793-13.539,3.756-1.707,2.5,12.41,1.609.2,13.338-10.055,4.113-41.721Z" transform="translate(16710.379 18250.771)" fill="#c69870"/><path d="M-16635.314-18104.361l5.979-7.373,4.484,1.1,18.729,7.77s9.188,3.852,17.545,6.531,12.242,1.283,14.834-2.3,3.439-10.777,3.439-10.777l1.457-54.275-22.113,9.08-1.684,33.3-24.338-9.482-13.949-1.793-9.766,1.1-9.963,4.881-6.674,4.385-.6,2.891,5.48,9.762,11.756,6.705Z" transform="translate(16710.379 18250.771)" fill="#c69870"/><g transform="translate(0 129.444)"><path d="M668.387,1365.319c-.019.019-.038.019-.057.038a2.154,2.154,0,0,0-1.067,2.419,2.127,2.127,0,0,0,2.591,1.467,5.191,5.191,0,0,0,2.267-1.734c.419-.5.857-1.01,1.238-1.543-.038.324-.1.648-.133.953v.057a9.79,9.79,0,0,0-.534,4.115,3.71,3.71,0,0,0,2.381,3.124,4.612,4.612,0,0,0,1.505,1.1,5.684,5.684,0,0,0,3.429.686,3.261,3.261,0,0,0,1.353.3,3.612,3.612,0,0,0,2.915-1.734,12.033,12.033,0,0,0,.876-2.343c.286-.667.7-1.3,1.029-1.962,1.619-2.343,3.258-4.591,5.6-4.915.1-.019.171-.038.267-.057h5.43a24.057,24.057,0,0,0,1.1,9.773c.286.857,1.715,1.276,2.153.286,1.429-3.258,1.1-6.649.629-10.04h13.717a1.269,1.269,0,0,0,.7,1.429,2.077,2.077,0,0,0,2.591.381,27.662,27.662,0,0,1,2.667-1.715c.057-.038.1-.057.152-.1h4.553c-1.086,1.353-2.191,2.705-3.258,4.077a16.2,16.2,0,0,0-2.762,4.382,2.136,2.136,0,0,0,1.467,2.591,2.161,2.161,0,0,0,2.591-1.467c-.171.457.21-.438.267-.533.152-.267.3-.533.476-.781.419-.609.914-1.2,1.372-1.772.267-.324.533-.667.8-.991a17.551,17.551,0,0,0-1.181,4.592c-.152,1.543,0,3.143,1.505,3.943.819.438,1.543.076,2.362.229,1.486.267,1.543.458,2.877,1.963a1.191,1.191,0,0,0,1.962-.515,4.579,4.579,0,0,1,.476-.971,18.552,18.552,0,0,0,1.029,1.715,1.184,1.184,0,0,0,1.848.229c2.115-2.324,3.658-6.8,6.859-7.754,2.839-.838,5.01,1.886,7.106,3.353a8.345,8.345,0,0,0,2.439,1.219v8.763H662.5v-22.252h5.887Z" transform="translate(-662.5 -1365.3)" fill="#0092d2"/><path d="M859.636,1441.4h6.4a.915.915,0,0,1,0,1.829h-6.4A.915.915,0,0,1,859.636,1441.4Z" transform="translate(-812.827 -1426.902)" fill="#edf5f7"/><path d="M900.436,1403h2.743a.915.915,0,0,1,0,1.829h-2.743A.915.915,0,0,1,900.436,1403Z" transform="translate(-857.742 -1395.818)" fill="#edf5f7"/><path d="M1068.536,1431.8h5.944a.915.915,0,0,1,0,1.829h-5.944A.915.915,0,0,1,1068.536,1431.8Z" transform="translate(-1061.068 -1419.131)" fill="#edf5f7"/><path d="M806.836,1453.4h2.286a.915.915,0,0,1,0,1.829h-2.286A.915.915,0,0,1,806.836,1453.4Z" transform="translate(-745.852 -1436.616)" fill="#edf5f7"/><path d="M996.436,1436.6h5.029a.915.915,0,0,1,0,1.829h-5.029A.915.915,0,0,1,996.436,1436.6Z" transform="translate(-974.317 -1423.016)" fill="#edf5f7"/></g><path d="M5.664,19.41,1.858,22.9.484,25.337l.275,3.729,1.1,4.434,2.277,1.844,1.962,1.1.235-15Z" transform="translate(50.374 -2.153)" fill="#fff"/><g transform="translate(4.075 3.691)"><g transform="translate(45.15 0)"><path d="M521.649,711.1c3.925,9.011-7.392,14.708-14.593,10.821-4.782-2.572-6.878-7.678-7.868-12.745-.648-3.353-.876-6.973-2.515-10.04-2.191-4.1-6.344-5.525-10.516-6.592v.019c.343,1.124-1.429,1.6-1.772.476-2.572-8.516,7.506-12.212,13.946-8.916,5.163,2.648,7.925,8.04,10.878,12.745a41.582,41.582,0,0,0,8.192,9.126A15.835,15.835,0,0,1,521.649,711.1Z" transform="translate(-446.181 -682.926)" fill="#201000"/><path d="M629.3,705.636c-9.011-3.7-10.383-15.089-1.429-16.1s29.072-.286,35.226,8.935,13.812,19.585,4.1,27.4C657.461,733.7,629.3,705.636,629.3,705.636Z" transform="translate(-621.811 -687.999)" fill="#201000"/><path d="M605.391,777.455l-2-8.554c-5.163,1.334-9.068,1.276-12.555-2.61-3.524-3.925-4.344-14.612-5.677-24.786a23.38,23.38,0,0,1,.248-8.668c1.657-6.63,7.335-9.773,17.165-9.983,11.431-.248,13.469,6.478,13.469,6.478a10.274,10.274,0,0,1,3.182-3.639c3.791-2.915,9.888-4.858,13.736.514,5.43,7.582-1.01,15.012-9.316,18.27,0,0,.686,8.726-2.763,12.784,0,0,.991,9.83,2.191,20.347C623.261,779.4,609.811,792.867,605.391,777.455Z" transform="translate(-577.914 -715.219)" fill="#c69870"/><path d="M608.8,781.7a7.771,7.771,0,0,0,1.657-.171c4.629-.914,10.04-6.116,9.83-8.021-1.048-9.24-1.962-18.061-2.153-19.966,2.858-3.734,2.839-10.326,2.762-12.46,5.6-2.343,9.64-6.192,10.878-10.383a10.183,10.183,0,0,0-1.772-9.03A8.46,8.46,0,0,0,624.271,718c-4.134-.61-7.887,1.867-9.3,2.972a13.714,13.714,0,0,0-2.534,2.5c-1.41-2.153-5.01-5.677-13.545-5.506-10.383.229-16.289,3.715-18.042,10.688a23.922,23.922,0,0,0-.267,9.011c.19,1.448.362,2.915.552,4.363,1.1,8.916,2.134,17.337,5.353,20.919,3.62,4.02,7.659,4.229,12.555,3.105l1.791,7.659c0,.019,0,.038.019.038C602.666,780.065,605.924,781.7,608.8,781.7Zm9.678-8.059c-.343,1.048-5.03,6.116-9.488,6.23-2.953.038-5.087-2.153-6.382-6.611l-2-8.535a.915.915,0,0,0-.419-.571.832.832,0,0,0-.7-.1c-4.782,1.238-8.4,1.277-11.64-2.324-2.839-3.143-3.886-11.678-4.9-19.909-.171-1.448-.362-2.915-.552-4.382a22.744,22.744,0,0,1,.229-8.325c1.543-6.154,6.725-9.107,16.308-9.3,10.536-.229,12.5,5.582,12.574,5.83a.914.914,0,0,0,1.715.1,9.745,9.745,0,0,1,2.9-3.277c2.572-1.981,5.544-2.953,7.906-2.61a6.7,6.7,0,0,1,4.515,2.934,8.3,8.3,0,0,1,1.505,7.43c-1.1,3.734-5.106,7.354-10.421,9.43a.888.888,0,0,0-.572.914c0,.076.61,8.4-2.534,12.136a.982.982,0,0,0-.21.686C616.307,753.469,617.3,763.281,618.479,773.645Zm-16.746-.171Z" transform="translate(-574.256 -711.237)" fill="#201000"/><path d="M793.64,800.117a.944.944,0,0,0,.7-.324.913.913,0,0,0-.114-1.3c-3.22-2.724-3.353-6.858-.5-15.736a.91.91,0,1,0-1.734-.552c-2.686,8.364-3.372,13.946,1.048,17.7A.972.972,0,0,0,793.64,800.117Z" transform="translate(-776.565 -762.781)" fill="#201000"/><ellipse cx="1.143" cy="1.143" rx="1.143" ry="1.143" transform="matrix(-0.412, -0.911, 0.911, -0.412, 27.687, 24.583)" fill="#201000"/><ellipse cx="1.143" cy="1.143" rx="1.143" ry="1.143" transform="matrix(-0.412, -0.911, 0.911, -0.412, 10.042, 26.508)" fill="#201000"/><path d="M707.474,866.42a3.568,3.568,0,0,0,2.8-4.9c-.438-1.086,1.238-1.848,1.677-.762a5.424,5.424,0,0,1-4.172,7.468A.918.918,0,0,1,707.474,866.42Z" transform="translate(-678.53 -826.455)" fill="#201000"/><path d="M733.388,772.116a.946.946,0,0,1,1.01-.819c.514.019,1.029.038,1.524.038a.934.934,0,0,1,.819,1.01.946.946,0,0,1-1.01.819c-.514-.019-1.029-.038-1.524-.038A.946.946,0,0,1,733.388,772.116Z" transform="translate(-707.988 -754.46)" fill="#201000"/><path d="M823.021,775.015l1.048-.476a.922.922,0,0,1,.762,1.676l-1.048.476A.922.922,0,0,1,823.021,775.015Z" transform="translate(-813.567 -757.016)" fill="#201000"/><path d="M623.389,762.267a.907.907,0,0,0,.914-.876c.057-1.638,2.172-6.115,5.125-6.8a.92.92,0,0,0-.419-1.791c-3.829.876-6.44,6.077-6.535,8.516a.928.928,0,0,0,.876.953Z" transform="translate(-580.252 -739.467)" fill="#201000"/><path d="M690.1,720.976c-1.219,2.153-4.058.991-5.658.038a14.773,14.773,0,0,1-5.887-6.782c-.457-1.067,1.1-2,1.581-.934.1.21.191.419.3.629a.856.856,0,0,1,.21-.057,11.382,11.382,0,0,1,7.373,2.229C689.417,717.166,691.169,719.128,690.1,720.976Z" transform="translate(-651.214 -707.13)" fill="#201000"/></g><g transform="translate(47.418 113.56)"><path d="M540.7,1320.142a.892.892,0,0,0,.8-.476.915.915,0,0,0-.381-1.238c-38.77-20.728-54.011-18.556-62.946-14.346l-.857.4c-8.059,3.791-12.479,5.868-13.393,8.554a3.371,3.371,0,0,0,.267,2.724c1.067,2.058,4.553.324,8.592-1.677a27.7,27.7,0,0,1,3.639-1.619.851.851,0,0,0,.8.076.916.916,0,0,0,.533-1.181,1.173,1.173,0,0,0-.648-.667c-.819-.324-2,.191-5.125,1.753-1.734.857-5.3,2.61-6.192,2.4a1.486,1.486,0,0,1-.133-1.219c.667-1.943,5.353-4.153,12.441-7.487l.857-.4c8.554-4.02,23.243-6.039,61.307,14.307A1.3,1.3,0,0,0,540.7,1320.142Z" transform="translate(-463.749 -1301.3)" fill="#201000"/><path d="M779.28,1352.948h0c1.41,0,2.553-1.429,3.867-3.086a17.988,17.988,0,0,1,2.077-2.343.917.917,0,0,0-1.238-1.353,21.048,21.048,0,0,0-2.267,2.572c-.8,1.01-1.905,2.4-2.439,2.4h0c-.1,0-.229-.1-.362-.286a1.553,1.553,0,0,1-.057-.933c.476-3.067,4.915-9.869,11.05-13.965a.919.919,0,1,0-1.029-1.524c-6.23,4.153-11.24,11.354-11.85,15.2a2.918,2.918,0,0,0,.438,2.362A2.334,2.334,0,0,0,779.28,1352.948Z" transform="translate(-772.132 -1327.99)" fill="#201000"/><path d="M754.236,1363.819a2.553,2.553,0,0,0,.381-.019,2.963,2.963,0,0,0,2.553-2.877.914.914,0,0,0-.914-.914.9.9,0,0,0-.914.914,1.1,1.1,0,0,1-.972,1.048c-.762.114-1.429-.648-1.81-1.981-1.029-3.734,3.334-9.85,10.383-14.536a.919.919,0,1,0-1.029-1.524c-7.925,5.3-12.4,11.945-11.126,16.555C751.493,1362.943,752.96,1363.819,754.236,1363.819Z" transform="translate(-740.134 -1335.681)" fill="#201000"/><path d="M735.891,1376.586c.133,0,.248-.019.343-.019a3.451,3.451,0,0,0,2.877-3.258.914.914,0,0,0-1.829,0,1.618,1.618,0,0,1-1.3,1.448c-.838.115-1.3-1.01-1.486-1.7-.972-3.486,1.429-9.278,9.011-14.307a.919.919,0,1,0-1.029-1.524c-8.325,5.544-10.9,12.193-9.754,16.327C733.472,1376.2,735.072,1376.586,735.891,1376.586Z" transform="translate(-717.255 -1346.447)" fill="#201000"/><path d="M622.617,1388.762a.944.944,0,0,0,.857-.591.908.908,0,0,0-.514-1.181c-.152-.057-15.679-6.134-19.07-8.173a6.311,6.311,0,0,0-5.43-.914c-1.924.686-3.486,2.61-4.591,5.715-.381,1.086-1.238,1.943-1.6,1.943h0c-.057,0-.3-.171-.533-.972-1.143-3.982,1.81-8.459,8.554-12.936a.919.919,0,0,0-1.029-1.524c-9.411,6.287-10.25,11.6-9.3,14.955.533,1.848,1.505,2.267,2.229,2.286h.057c1.429,0,2.781-1.6,3.334-3.143q1.4-3.858,3.487-4.63a4.619,4.619,0,0,1,3.867.743c3.525,2.115,18.709,8.04,19.356,8.307A.426.426,0,0,0,622.617,1388.762Z" transform="translate(-569.669 -1356.889)" fill="#201000"/></g><g transform="translate(0 110.7)"><path d="M875.292,1306.751c2.077,0,3.772-2.648,5.411-5.22.838-1.315,2.1-3.277,2.686-3.41a.908.908,0,0,0-.4-1.772c-1.334.3-2.439,2.02-3.829,4.21-1.181,1.848-2.8,4.382-3.867,4.382-.324,0-.381-.095-.4-.133-.248-.438-.057-2,1.448-4.553,2.953-4.972,10.383-12.307,18.842-12.136,12.9.248,20.309,4.9,23.319,14.651a.916.916,0,0,0,1.753-.534c-3.258-10.612-11.221-15.679-25.034-15.946-8.649-.152-16.651,6.63-20.442,13.031-.972,1.639-2.458,4.649-1.467,6.382A2.133,2.133,0,0,0,875.292,1306.751Z" transform="translate(-872.984 -1286.287)" fill="#201000"/><path d="M935.463,1360.528a1.462,1.462,0,0,0,.286-.019c1.181-.115,2.877-1.01,4.191-4.63,1.791-4.934,7.944-8.516,9.3-8.535.362.648.534,3.182.648,4.877.248,3.7.457,6,1.5,6.9a2.491,2.491,0,0,0,2.9.476c2-1.124,2.4-5.239,1.238-12.555a.916.916,0,1,0-1.81.286c1.5,9.354-.134,10.573-.324,10.669-.286.153-.724-.209-.819-.286-.533-.477-.743-3.7-.876-5.62-.267-4-.457-6.115-1.867-6.515-2.438-.686-9.716,4.363-11.64,9.659-.743,2.076-1.734,3.353-2.648,3.448a1,1,0,0,1-.933-.438c-.191-1.257,2.553-7.887,5.925-12.936a.919.919,0,1,0-1.524-1.029c-2.667,4-7.2,12.86-6,14.841A2.913,2.913,0,0,0,935.463,1360.528Zm-.838-2.229Z" transform="translate(-920.257 -1332.901)" fill="#201000"/><path d="M1042.6,1351.529a.918.918,0,0,0,.115-1.829c-1.486-.19-2.5-.457-2.858-1.219-.857-1.734.819-6.173,4.972-13.184a.918.918,0,0,0-1.581-.934c-4.744,8-6.249,12.459-5.048,14.917.819,1.677,2.648,2.039,4.286,2.229A.244.244,0,0,0,1042.6,1351.529Z" transform="translate(-1029.053 -1324.835)" fill="#201000"/><path d="M1061.4,1345.229a.918.918,0,0,0,.114-1.829c-1.486-.19-2.5-.457-2.858-1.219-.857-1.734.819-6.172,4.972-13.183a.918.918,0,1,0-1.581-.934c-4.744,8-6.249,12.46-5.049,14.917.819,1.677,2.648,2.038,4.287,2.229A.241.241,0,0,0,1061.4,1345.229Z" transform="translate(-1051.435 -1319.735)" fill="#201000"/></g><g transform="translate(31.775 57.023)"><path d="M439.465,1086.476a.914.914,0,0,0,.914-.838c.019-.3,2.648-31.4,1.6-51.362-1.124-21.337-13.012-25.91-48.181-28.786a.919.919,0,0,0-.991.838.931.931,0,0,0,.838.991c36.388,2.972,45.514,8.287,46.5,27.053,1.048,19.833-1.562,50.791-1.6,51.1a.917.917,0,0,0,.838.991A.116.116,0,0,0,439.465,1086.476Z" transform="translate(-335.21 -1005.306)" fill="#201000"/><path d="M736.2,1060.7a.924.924,0,0,0,.915-.8c0-.076.972-8.173,4.191-29.244,3.163-20.766,7.819-24.842,33.634-24.232a.915.915,0,0,0,.038-1.829c-26.539-.61-32.2,4.191-35.482,25.776-3.22,21.109-4.191,29.225-4.191,29.3a.917.917,0,0,0,.8,1.01A.143.143,0,0,0,736.2,1060.7Z" transform="translate(-735.297 -1004.539)" fill="#201000"/><path d="M511.412,1197.66a.907.907,0,0,0,.914-.876l1.6-39.341a.928.928,0,0,0-.876-.953.915.915,0,0,0-.953.876l-1.6,39.341a.928.928,0,0,0,.876.953Z" transform="translate(-429.332 -1127.539)" fill="#201000"/><path d="M845.07,1159.721a.925.925,0,0,0,.914-.819l4.268-37.817a.911.911,0,0,0-1.81-.21l-4.267,37.817a.917.917,0,0,0,.8,1.01C845.013,1159.7,845.032,1159.721,845.07,1159.721Z" transform="translate(-829.232 -1098.059)" fill="#201000"/><path d="M398.605,1149.465a.824.824,0,0,0,.362-.076l21.49-9.145a.913.913,0,1,0-.724-1.677l-21.49,9.145a.909.909,0,0,0-.476,1.2A.932.932,0,0,0,398.605,1149.465Z" transform="translate(-314.926 -1112.97)" fill="#201000"/><path d="M853.258,1102.932a.916.916,0,0,1,1.276-.229l11.964,8.249c-.076.7-.133,1.391-.172,2.1l-12.822-8.84A.927.927,0,0,1,853.258,1102.932Z" transform="translate(-847.174 -1083.869)" fill="#201000"/></g></g><g transform="translate(47.85 0)"><ellipse cx="9.199" cy="8.948" rx="9.199" ry="8.948" transform="translate(39.275 10.867)" fill="#fff"/><ellipse cx="6.294" cy="6.123" rx="6.294" ry="6.123" transform="translate(43.633 13.693)" fill="#0092d2"/><path d="M29.826,14.165H29.8a.731.731,0,0,1-.7-.739c.154-3.489-2.4-6.869-7-9.284C16.14,1.03,7.032.073,1.163,4.279A.74.74,0,0,1,.149,4.129.692.692,0,0,1,.3,3.143C6.951-1.621,16.6-.323,22.77,2.908c5.121,2.682,7.947,6.549,7.764,10.6A.7.7,0,0,1,29.826,14.165Z" transform="translate(10.757 3.68) rotate(-7)" fill="#201000"/><path d="M908.417,991.175a6.5,6.5,0,0,0-2.254-3.374,17.316,17.316,0,0,0,1.074-7.126,15.84,15.84,0,0,0-2.814-7.928,15.918,15.918,0,0,0,.287-2.028c.06-.681.091-1.422.121-2.254.106-4.494-.378-11.105-1.059-19.533-.257-3.147-.5-6.188-.666-8.9q-.023-.363-.045-.726l-.045-.726c-.015-.242-.03-.469-.045-.711-.015-.439-.045-.878-.06-1.286v-.151c-.03-.8-.045-1.528-.045-2.209a.717.717,0,0,0-.726-.726.736.736,0,0,0-.726.726c0,.726.015,1.528.045,2.391a.926.926,0,0,0,.015.2c0,.166.015.333.015.5.015.257.03.514.03.772a3.16,3.16,0,0,1,.015.378.294.294,0,0,0,.015.121q.022.363.045.726t.045.726c.166,2.739.424,5.825.681,9.017.439,5.356.983,12.286,1.044,17.475.015.862.015,1.664-.015,2.421-.03.938-.076,1.785-.167,2.5-.045-.03-.076-.061-.121-.091a3.5,3.5,0,0,0-2.754-.787,2.135,2.135,0,0,0-1.8,1.77,3.091,3.091,0,0,0,1.377,3.087A2.933,2.933,0,0,0,903.3,975a2.108,2.108,0,0,0,.5-.575,14.85,14.85,0,0,1,1.074,12.633,5.709,5.709,0,0,0-1.225-.333,3.085,3.085,0,0,0-3.087,1.1,2.406,2.406,0,0,0,.227,2.739,2,2,0,0,0,2.436,1.074,4.793,4.793,0,0,0,2.3-2.466,5.259,5.259,0,0,1,1.483,2.421c.363,1.2,1.891,5.552-1.089,9.531-.136.182-.272.363-.424.529-.3.348-.636.7-1.014,1.059-3.313,3.087-3.45,5.28,1.044,1.014a13.318,13.318,0,0,0,1.014-1.059l.545-.681C910.49,997.469,908.825,992.537,908.417,991.175Zm-5.991-17.309a1.576,1.576,0,0,1-1.77.333,1.646,1.646,0,0,1-.711-1.589.694.694,0,0,1,.635-.605,1.687,1.687,0,0,1,.257-.03,2.318,2.318,0,0,1,1.362.545,4.914,4.914,0,0,1,.666.605A1.478,1.478,0,0,1,902.425,973.867Zm.348,16.4c-.106.045-.348.121-.741-.484-.182-.287-.454-.8-.227-1.165a1.455,1.455,0,0,1,1.256-.469,3.428,3.428,0,0,1,1.256.257A3.568,3.568,0,0,1,902.773,990.268Z" transform="translate(-853.436 -903.76)" fill="#201000"/><rect width="3.631" height="8.477" transform="translate(47.143 29.014)" fill="#fff"/><path d="M1147.231,911.7v8.168h-2.179V911.7H1143.6v8.875a.751.751,0,0,0,.106.368.74.74,0,0,0,.59.339h3.661a.717.717,0,0,0,.726-.707V911.7Z" transform="translate(-1097.183 -883.083)" fill="#201000"/><path d="M1106.751,787.8a9.81,9.81,0,0,0-1.906-.912,10.672,10.672,0,0,0-2.678-.559c-.242-.015-.484-.029-.726-.029s-.484.015-.726.029a3.273,3.273,0,0,0-.378.029,10.035,10.035,0,0,0-3.949,1.28,9.768,9.768,0,0,0-1.044.692l-.59.486c-.2.177-.378.353-.56.53a9.843,9.843,0,0,0-.878,1.045,9.377,9.377,0,0,0-1.815,5.563,9.477,9.477,0,0,0,2.844,6.755h0l.182.177c.075.073.166.147.242.221.121.1.227.206.348.294.182.147.363.28.56.412.166.118.348.221.515.338a7.17,7.17,0,0,0,.877.471c.151.074.318.147.469.206.182.074.363.147.545.206q.454.155.908.265c.121.029.242.059.348.073.227.044.439.088.666.118h.046a2.857,2.857,0,0,0,.5.044,7.85,7.85,0,0,0,.832.029h.076a9.409,9.409,0,0,0,2.239-.265c.242-.059.484-.118.726-.191a9.929,9.929,0,0,0,5.855-4.872,9.315,9.315,0,0,0,1.059-4.327A9.515,9.515,0,0,0,1106.751,787.8Zm-3.737,16.263a8.751,8.751,0,0,1-1.392.147h-.2c-.257,0-.5-.015-.757-.029-.166-.015-.348-.03-.514-.059a.549.549,0,0,1-.151-.029,7.645,7.645,0,0,1-1.18-.279,7.338,7.338,0,0,1-1.119-.442,8.2,8.2,0,0,1-1.256-.736,2.219,2.219,0,0,1-.2-.147c-.121-.088-.227-.177-.348-.265a6.855,6.855,0,0,1-.59-.545,8.051,8.051,0,0,1-.772-10.567,6.213,6.213,0,0,1,.393-.486c.076-.088.151-.162.227-.25h0a7.924,7.924,0,0,1,1.589-1.31,8.6,8.6,0,0,1,4.645-1.354h.015a8.851,8.851,0,0,1,1.664.162,8.392,8.392,0,0,1,2.587.957c.136.073.272.162.393.235a8.171,8.171,0,0,1,3.828,6.9,9.008,9.008,0,0,1-.076,1.119,8,8,0,0,1-.62,2.149,8.489,8.489,0,0,1-6.173,4.828Z" transform="translate(-1052.966 -776.14)" fill="#201000"/><path d="M4.53,17.681c.045.03.106.06.152.089.1-.486.221-.971.369-1.457-.182-.119-.349-.253-.516-.386A8.285,8.285,0,0,1,1.474,9.6a8.182,8.182,0,0,1,5.98-7.879,8.324,8.324,0,0,1,.875-.2c.03,0,.045-.014.076-.014.118-.5.251-.986.4-1.486h-.03c-.2.014-.393.042-.574.07A9.618,9.618,0,0,0,.023,9.578a9.667,9.667,0,0,0,3.551,7.39,8.206,8.206,0,0,0,.713.535C4.378,17.577,4.454,17.622,4.53,17.681Z" transform="translate(0 19.42) rotate(-13)" fill="#201000"/></g><path d="M10.454,15.188A13.862,13.862,0,0,1,7.7,18.171c.832,2.209.783,13.461.586,15.624-.272,3.071-1.679,2.254-1.468-.121.2-2.133.246-12.946-.4-14.762a5.707,5.707,0,0,1-1.225.333,3.085,3.085,0,0,1-3.086-1.1A2.406,2.406,0,0,1,2.328,15.4a2,2,0,0,1,2.436-1.074,4.793,4.793,0,0,1,2.3,2.466,25.8,25.8,0,0,0,2.314-2.606C11.277,11.649,11.33,13.8,10.454,15.188ZM4.31,15.7c-.106-.045-.348-.121-.741.484-.182.287-.454.8-.227,1.165a1.454,1.454,0,0,0,1.256.469,3.7,3.7,0,0,0,.408-.03,3.719,3.719,0,0,0,.847-.227A3.569,3.569,0,0,0,4.31,15.7Z" transform="translate(92.162 83.73) rotate(13)" fill="#201000"/></g></svg>