<svg xmlns="http://www.w3.org/2000/svg" width="286.324" height="145.468" viewBox="0 0 286.324 145.468"><rect width="37.337" height="37.337" transform="translate(10.163 69.997) rotate(-14.07)" fill="#6b553d"/><path d="M440.917,897.992A12.736,12.736,0,1,1,453.3,882.16h0a12.715,12.715,0,0,1-9.259,15.426A11.876,11.876,0,0,1,440.917,897.992Zm.035-23.766a10.861,10.861,0,0,0-2.686.336,11.028,11.028,0,0,0-2.986,20.162,11.04,11.04,0,0,0,16.38-12.157A11.1,11.1,0,0,0,440.952,874.226Z" transform="translate(-408.138 -801.689)" fill="#faf7f5"/><rect width="30.976" height="30.976" transform="translate(59.083 0)" fill="#0092d2"/><path d="M615.857,529H604.548a.837.837,0,0,1-.848-.848v-14.7a.848.848,0,0,1,1.7,0V527.3h10.461a.848.848,0,1,1,0,1.7Z" transform="translate(-533.873 -505.373)" fill="#fff"/><rect width="36.949" height="36.949" transform="translate(236.132 62.918) rotate(-75.912)" fill="#6b553d"/><path d="M1317.506,706.711a.863.863,0,0,1-.212-.018l-16.8-4.223a.85.85,0,0,1-.636-.707.821.821,0,0,1,.406-.848l19.968-11.945-16.486-4.135a.846.846,0,1,1,.406-1.643l18.483,4.63a.851.851,0,0,1,.636.707.82.82,0,0,1-.406.848l-19.967,11.945,14.808,3.711a.853.853,0,0,1-.195,1.679Z" transform="translate(-1052.386 -645.801)" fill="#faf7f5"/><path d="M1130.071,558.2h-12.723a.837.837,0,0,1-.848-.848.848.848,0,0,1,.848-.848h12.723a.848.848,0,1,1,0,1.7Z" transform="translate(-922.445 -541.516)" fill="#0092d2"/><path d="M1252.162,558.2h-24.314a.848.848,0,0,1,0-1.7h24.314a.837.837,0,0,1,.848.848A.848.848,0,0,1,1252.162,558.2Z" transform="translate(-992.414 -541.516)" fill="#0092d2"/><path d="M1171.857,635.9h-11.309a.848.848,0,1,1,0-1.7h11.309a.837.837,0,0,1,.848.848A.848.848,0,0,1,1171.857,635.9Z" transform="translate(-955.58 -605.486)" fill="#0092d2"/><path d="M341.476,749.5H315.448a.848.848,0,0,1,0-1.7h26.028a.837.837,0,0,1,.848.848A.848.848,0,0,1,341.476,749.5Z" transform="translate(-314.6 -699.012)" fill="#6b553d"/><path d="M336.1,688.7H315.448a.848.848,0,0,1,0-1.7h20.639a.848.848,0,0,1,.018,1.7Z" transform="translate(-314.6 -648.956)" fill="#6b553d"/><path d="M537.93,699.338a.941.941,0,0,1-.424-.106.862.862,0,0,1-.318-1.166l10.744-18.66a.855.855,0,1,1,1.484.848l-10.743,18.66A.851.851,0,0,1,537.93,699.338Z" transform="translate(-483.382 -642.351)" fill="#6b553d"/><path d="M1469.554,1055.2h-8.906a.837.837,0,0,1-.848-.848.848.848,0,0,1,.848-.848h8.906a.848.848,0,0,1,0,1.7Z" transform="translate(-1184.078 -950.694)" fill="#0092d2"/><path d="M320.659,925.754c-.937-1.131-1.891-2.262-2.827-3.393-.707-.848-1.891.371-1.2,1.2.937,1.131,1.891,2.262,2.827,3.393C320.164,927.786,321.348,926.584,320.659,925.754Z" transform="translate(-316.1 -842.491)" fill="#0092d2"/><path d="M1437.522,990.16c-2.456,3.393-4.895,6.785-7.351,10.178-.636.884.83,1.732,1.467.848,2.456-3.393,4.895-6.785,7.351-10.178C1439.624,990.125,1438.158,989.277,1437.522,990.16Z" transform="translate(-1159.556 -898.24)" fill="#6b553d"/><path d="M674.508,478.344a9.374,9.374,0,0,1-8.941-6.644H663.8a11.047,11.047,0,0,0,10.69,8.34c.23,0,.442,0,.671-.018v-1.7C674.95,478.344,674.72,478.344,674.508,478.344Z" transform="translate(-579.641 -471.7)" fill="#fff"/><g transform="translate(53.274 13.14)"><path d="M826.52,1030.8a.86.86,0,0,0-1.007-.654.655.655,0,0,0-.318.141c-1.219-1.679-3.145-4.347-3.994-5.707-5.99-9.7-11.2-19.738-17.635-29.174-3.322-4.877-5.584-10.266-9.7-14.472-1.52-1.555-4.63-1.732-5.8-3.64l-3.781,3.216L762.66,971c-2.1,3.87-5.637,4.647-9.083,7.793-5.354,8.252-10.991,19.119-16.787,27.071-1.131,2.032-2.315,4.029-3.516,6.008H733.1a.864.864,0,0,0-.724.954l4.559,30.958h92.451Z" transform="translate(-677.824 -918.912)" fill="#201000"/><g transform="translate(75.84)"><path d="M899.1,694.154a6.214,6.214,0,0,0-7.775-3.8c1.573-2.633,3.658-5.054,3.817-8.252a5.22,5.22,0,0,0-4.683-5.8c-6.043-.8-12.139,4.17-15.974,9.153a5.419,5.419,0,0,0-6.344-2c-3.41,1.272-6.1,4.895-8.252,7.616a57.465,57.465,0,0,0-6.909,11.256.891.891,0,0,0,.459,1.2v.088c.265,2.3,2.916,2.651,4.736,2.863,5.389.618,10.867.777,16.274,1.166,1.308.088,2.633.212,3.976.318.6.053,1.2.088,1.8.124a31.8,31.8,0,0,0,8.976-.548,15.606,15.606,0,0,0,8.535-5.336,8.6,8.6,0,0,0,.565-.831,7.038,7.038,0,0,0,.353-.618,8.414,8.414,0,0,0,.936-3.075A8.654,8.654,0,0,0,899.1,694.154Z" transform="translate(-852.892 -676.223)" fill="#201000"/><path d="M862.627,817.23c1.414,17.812,10.744,21.2,21.487,21.77s16.4-5.089,16.963-18.943-3.11-37.514-23.749-33.945C862.539,788.675,861.849,807.352,862.627,817.23Z" transform="translate(-860.735 -766.397)" fill="#e7c1a0"/><path d="M85.24,22.732c.5-.4,6.477-2.791,6.477-2.791h10.461l4.084,2.791-5.479,4.184-.8,3.488,2.191,1.793-1.395,3.188L95.7,31.2l-5.379,4.184L88.629,31.2l1.693-2.791-1.693-3.385Z" transform="translate(-75.84)" fill="#0092d2"/><path d="M896.3,816.026a41.68,41.68,0,0,1-.619,5.778c-.8,4.17-2.279,7.209-4.506,9.259-2.562,2.332-6.149,3.357-10.938,3.092-4.965-.265-9.789-1.113-13.536-4.1-3.764-2.986-6.45-8.111-7.156-16.893-.654-8.234-.6-27.689,14.012-30.2a22.96,22.96,0,0,1,3.852-.353,15.071,15.071,0,0,1,10.266,3.693c6.467,5.672,8.711,17.352,8.711,27.23C896.35,814.365,896.332,815.213,896.3,816.026Zm-7.528-31.011c-4.064-3.552-9.277-4.824-15.532-3.746-15.992,2.756-16.1,23.307-15.409,32.018.018.247.035.495.071.742a39.723,39.723,0,0,0,1.007,6.061c3.269,12.9,12.4,15.285,21.222,15.762.512.035,1.007.035,1.484.035,4.541,0,8.04-1.184,10.691-3.587,2.3-2.085,3.887-5.089,4.806-9.065a39.566,39.566,0,0,0,.884-7.156c.018-.618.053-1.414.053-2.35C898.064,806.82,897.039,792.295,888.769,785.015Z" transform="translate(-856.785 -762.401)" fill="#201000"/><path d="M956.8,867.95a.866.866,0,0,1-.495-.159c-4.771-3.393-4.559-9.083-2.6-17.759a.842.842,0,0,1,1.643.371c-2.12,9.295-1.608,13.482,1.926,15.992a.831.831,0,0,1,.194,1.184A.762.762,0,0,1,956.8,867.95Z" transform="translate(-934.817 -818.778)" fill="#201000"/><path d="M939.608,970.975a3.337,3.337,0,0,0-3.552.477.859.859,0,0,0,0,1.2.876.876,0,0,0,1.2,0,1.528,1.528,0,0,1,1.5-.212.89.89,0,0,0,1.166-.3A.873.873,0,0,0,939.608,970.975Z" transform="translate(-921.158 -918.64)" fill="#201000"/></g><g transform="translate(0 18.782)"><path d="M521.129,815.893a1.984,1.984,0,0,0-1.537-1.06c-1.149-.141-2.1.672-3.057,1.149-2.562,1.272-5.407-.283-6.962-2.4-3.375-4.612-.866-11.009-1.891-16.221a9.367,9.367,0,0,0-2.562-5.054,2.849,2.849,0,0,0-.9-2.35c-1.7-1.573-4.382-.3-6.026.707-4.418,2.7-7.687,6.891-10.213,11.327-3,5.283-5.054,11.062-7.775,16.486a88.761,88.761,0,0,1-10.16,15.25c-.937,1.184-1.891,2.35-2.845,3.5a27.483,27.483,0,0,1-2.81,3.251c-1.043.937-2.509,1.343-3.481.141a9.175,9.175,0,0,1-1.184-2.438c-.548-1.378-1.325-3-3.039-3.057-2.332-.071-3.958,2.527-5.16,4.153a138.32,138.32,0,0,0-9.789,15.073,104.483,104.483,0,0,0-7.581,16.1c-1.891,5.3-3.075,11.115-2.014,16.716a20.046,20.046,0,0,0,6.662,11.7c3.764,3.092,9.295,2.191,13.977.937,5.319-1.431,9.577-5.124,13.147-9.189a183.233,183.233,0,0,0,19.72-27.371c3.128-5.177,6.149-10.408,9.153-15.638,2.969-5.16,5.8-10.479,9.03-15.479a14.811,14.811,0,0,1,5.743-5.407c1.979-1.007,4.1-1.7,6.114-2.615,1.8-.831,2.7-2.315,3.905-3.905C520.563,818.88,521.977,817.413,521.129,815.893Z" transform="translate(-430.321 -788.03)" fill="#e7c1a0"/><path d="M573.214,911.836a46.077,46.077,0,0,0,5.372-10.2c.937-2.4,1.131-5.177,2.191-7.457.071-.159.159-.336.247-.495-4.806-.477-8.181-2.6-16.2,3.905A224.3,224.3,0,0,0,548.9,922.349c3.287,1.131,6.715,4.029,10.372,7.05A219.443,219.443,0,0,0,573.214,911.836Z" transform="translate(-526.776 -873.458)" fill="#201000"/><path d="M891.36,808.218c-2.686,0-5.672-6.679-6.838-9.56a.874.874,0,0,1,.106-.831.884.884,0,0,1,.76-.336c.954.088,5.76.724,7.7,3.764a5.574,5.574,0,0,1,.371,5c-.565,1.608-1.431,1.961-2.067,1.961Zm-4.683-8.817c1.732,3.923,3.8,7.121,4.665,7.121.053,0,.265-.106.512-.831a3.836,3.836,0,0,0-.194-3.516C890.724,800.691,888.622,799.807,886.678,799.4Z" transform="translate(-803.044 -794.844)" fill="#201000"/><path d="M72.348,19.891h3.359l1.947,1,2.887-.588,1.77.588,1.828,1.828-.885,2-3.537-.883H74.941l-2.594.883.885-2.771Z" transform="translate(0 -18.781)" fill="#c69870"/><path d="M860.79,794.612a1.035,1.035,0,0,1-.389-.088.824.824,0,0,1-.459-.636l-.848-5.654a.65.65,0,0,1,.018-.318.829.829,0,0,1-.283-.477.872.872,0,0,1,.671-1.007c2.739-.548,4.524-.389,5.637.53,1.219.99,1.308,2.58,1.308,4.258a.824.824,0,0,1-.459.742l-4.806,2.545A.757.757,0,0,1,860.79,794.612Zm-.018-6.679a.065.065,0,0,0,.018.053l.672,4.471,3.287-1.749a3.256,3.256,0,0,0-.689-2.439C863.493,787.809,862.4,787.7,860.772,787.933Z" transform="translate(-781.927 -785.479)" fill="#201000"/><path d="M441.562,981.067c-6.715,0-12.387-2.845-15.355-7.775-3.622-6.008-5.124-17.812,8.323-39.935,2.651-4.365,5.071-8.376,7.3-12.086,17.352-28.891,23.2-38.61,36.1-34.669a.85.85,0,1,1-.495,1.626c-11.627-3.569-17.3,5.884-34.157,33.927-2.226,3.711-4.647,7.74-7.3,12.086-13.023,21.4-11.715,32.566-8.323,38.185,2.863,4.753,8.588,7.333,15.32,6.909,4.153-.265,11.857-5.071,19.738-15.232A395.98,395.98,0,0,0,485.7,930.335c1.608-2.58,2.88-4.63,3.834-6.061a85.775,85.775,0,0,0,5.177-9.365c2.315-4.647,3.976-8,6.132-8.782,3.216-1.166,10.461-4.753,12.263-8.358.548-1.078.53-1.732.3-1.891-.459-.3-1.891.035-2.863,1.131a.852.852,0,1,1-1.29-1.113c1.449-1.643,3.764-2.3,5.071-1.431.512.353,1.59,1.449.283,4.064-2.191,4.382-10.461,8.2-13.2,9.189-1.5.548-3.287,4.135-5.2,7.934a89.99,89.99,0,0,1-5.283,9.56c-.954,1.414-2.209,3.446-3.817,6.026a392.981,392.981,0,0,1-23.1,33.909c-7.209,9.295-15.444,15.532-20.975,15.886C442.569,981.049,442.057,981.067,441.562,981.067Z" transform="translate(-423.697 -867.52)" fill="#201000"/><path d="M829.5,795.25l11.963-2.315c0-2.827-.283-5.089-5.937-3.958l-4.594-.778A34.432,34.432,0,0,1,829.5,795.25Z" transform="translate(-757.793 -787.195)" fill="#c69870"/><path d="M13.712,0a13.712,13.712,0,0,1,0,27.424c-5.915,0-9.977-3.4-12-8.936-.437-1.182-.385-4.779-.385-6.437C1.324,4.478,6.139,0,13.712,0Z" transform="translate(62.889 4.91)" fill="#0092d2"/><path d="M798.252,805.4a14.407,14.407,0,0,0-5.177.954,14.711,14.711,0,0,0-5.531,3.746,20.705,20.705,0,0,0-1.52,5.849,12.87,12.87,0,1,1,.212,8.641,11.387,11.387,0,0,1-.53-1.767c-.018,1.449-.035,2.9-.106,4.329a9.716,9.716,0,0,0,.636,1.007A14.555,14.555,0,1,0,798.252,805.4Z" transform="translate(-721.651 -801.356)" fill="#201000"/><circle cx="10.178" cy="10.178" r="10.178" transform="translate(66.423 8.444)" fill="#edf5f7"/><path d="M805.826,847.552a11.026,11.026,0,1,1,11.026-11.026A11.04,11.04,0,0,1,805.826,847.552Zm0-20.374a9.33,9.33,0,1,0,9.33,9.33A9.344,9.344,0,0,0,805.826,827.179Z" transform="translate(-729.225 -817.904)" fill="#201000"/><path d="M930.015,851.051a.876.876,0,0,1-.654-.3.846.846,0,0,1,.106-1.2l5.513-4.665a.857.857,0,0,1,1.113.018l5.3,4.665a.851.851,0,1,1-1.131,1.272l-4.753-4.188-4.948,4.188A.822.822,0,0,1,930.015,851.051Z" transform="translate(-839.843 -833.701)" fill="#201000"/><path d="M838.828,866.713a.873.873,0,0,1-.6-.247.843.843,0,0,1,0-1.2l5.937-5.937a.85.85,0,0,1,1.2,1.2l-5.937,5.937A.873.873,0,0,1,838.828,866.713Z" transform="translate(-764.771 -845.546)" fill="#0092d2"/><path d="M533.128,861.491a.743.743,0,0,1-.459-.141.854.854,0,0,1-.265-1.166c.141-.212,13.694-21.363,22.088-32.584,4.806-6.414,8.27-13.606,11.327-19.967a94.119,94.119,0,0,1,6.768-12.546c3.976-5.637,8.976-9.259,12.192-8.782a2.737,2.737,0,0,1,2.315,1.926c.424,1.29-.9,2.226-2.739,3.5-2.1,1.449-4.965,3.446-5.725,6.326-.53,2-.389,4.859-.23,7.881.247,4.789.512,10.213-1.855,13.871a.843.843,0,1,1-1.414-.919c2.067-3.2,1.82-8.323,1.59-12.864-.159-3.163-.318-6.149.283-8.393.919-3.481,4.082-5.672,6.4-7.28a9.615,9.615,0,0,0,2.067-1.661,1.017,1.017,0,0,0-.919-.689c-2.173-.318-6.715,2.615-10.567,8.075a91.166,91.166,0,0,0-6.626,12.3c-3.092,6.432-6.591,13.712-11.486,20.25-8.376,11.15-21.893,32.266-22.017,32.478A.89.89,0,0,1,533.128,861.491Z" transform="translate(-513.09 -785.6)" fill="#201000"/><path d="M832.2,787.971a.837.837,0,0,1-.848-.848c0-1.184-.106-2.05-.618-2.474-.654-.548-2.209-.565-4.594-.088a.856.856,0,1,1-.336-1.679c3.039-.6,4.895-.477,6.008.442,1.131.937,1.237,2.438,1.237,3.781A.842.842,0,0,1,832.2,787.971Z" transform="translate(-754.182 -782.513)" fill="#201000"/><path d="M557.227,1061.969c-2.209-3.11-6.962-5.708-10.673-7.368l-.954,1.431c3.552,1.573,8.2,4.064,10.249,6.927a.838.838,0,0,0,.689.354.866.866,0,0,0,.495-.159A.831.831,0,0,0,557.227,1061.969Z" transform="translate(-524.059 -1006.522)" fill="#201000"/></g><g transform="translate(99.131 18.773)"><path d="M1088.862,873.987a108.161,108.161,0,0,0-7.28-16.1,137.793,137.793,0,0,0-9.4-15.073c-1.166-1.626-3.163-7.81-5.407-7.74-1.643.053-8.782,6.768-9.648,5.69-.336-.424-.654-.83-.99-1.255-.353.53-.707,1.06-1.06,1.573-.6-.831-1.113-1.555-1.219-1.7a88.937,88.937,0,0,1-9.754-15.232c-2.633-5.425-4.577-11.185-7.474-16.486-2.421-4.435-5.566-8.641-9.807-11.327-1.573-.99-6.626-3.145-8.711-2.279-1.237.512-1.4,2.721,2.085,3.923a9.6,9.6,0,0,0-2.456,5.054c-.99,5.213,1.431,11.609-1.8,16.221-1.484,2.12-4.206,3.675-6.679,2.4-.937-.477-1.654-1.686-2.75-1.545-.636.088-2.887-1.442-3.187-.859-.813,1.52,1.272,5.761,2.209,7.068,1.166,1.608,3.649,2.144,5.363,2.956,1.944.919,3.171,2.115,5.062,3.122,2.368,1.255,3.542,3.751,4.973,6.065,3.11,5,6.354,9.661,9.216,14.821,2.085,3.764,4.17,7.545,6.291,11.291.018-.018,2.58,3.6,2.6,3.587.247-.283,1.4,3.126,1.646,2.844,7.324,9.875,10.335,14.385,17.721,23.149,3.41,4.064,7.51,7.757,12.617,9.189,4.488,1.255,9.807,2.156,13.412-.937,3.375-2.916,7-6.7,7.793-11.15C1093.227,885.65,1090.665,879.289,1088.862,873.987Z" transform="translate(-1000.971 -791.85)" fill="#e7c1a0"/><path d="M1229.674,916.62c-.672-1.29-1.449-2.527-1.979-3.516-1.661-3.075-3.446-6.114-5.372-9.029-5.089-7.7-12.846-13.889-21.823-11.645a52.352,52.352,0,0,1,2.88,5.92,122.26,122.26,0,0,0,8.87,16.91c1.891,3.039,3.852,6.043,5.831,9.047C1220.8,920.56,1225.362,918.351,1229.674,916.62Z" transform="translate(-1162.368 -872.614)" fill="#201000"/><path d="M998.716,802.2c-2.827.283-12.369,5.478-8.022,9.613C992.92,813.951,998.716,802.2,998.716,802.2Z" transform="translate(-988.715 -798.712)" fill="#c69870"/><path d="M987.3,808.966a1.788,1.788,0,0,1-1.219-.495,3.794,3.794,0,0,1-1.149-4.223c1.255-3.675,7.492-6.644,9.683-6.856a.867.867,0,0,1,.778.353.889.889,0,0,1,.071.866c-1.131,2.3-5.054,9.825-7.828,10.319A2.42,2.42,0,0,1,987.3,808.966Zm5.76-9.383c-2.368.937-5.76,3.057-6.52,5.23a2.151,2.151,0,0,0,.724,2.438C988.041,807.429,990.586,804.2,993.06,799.583Z" transform="translate(-984.702 -794.753)" fill="#201000"/><path d="M1025,799.2l4.683,1.29.848-5.654.283-.848C1025.159,792.857,1025,796.374,1025,799.2Z" transform="translate(-1017.879 -791.773)" fill="#c69870"/><path d="M1025.731,797.377a1.033,1.033,0,0,1-.23-.035l-4.683-1.29a.848.848,0,0,1-.618-.813c0-1.59,0-3.994,1.643-5.336,1.149-.937,2.845-1.184,5.2-.707a.84.84,0,0,1,.565.406.856.856,0,0,1,.071.689l-.265.778-.83,5.584a.85.85,0,0,1-.848.724ZM1021.9,794.6l3.128.866.707-4.718v-.035a3.789,3.789,0,0,0-2.845.512C1022.091,791.882,1021.932,793.172,1021.9,794.6Z" transform="translate(-1013.927 -787.811)" fill="#201000"/><path d="M1062.169,981.067c-.495,0-1.007-.018-1.52-.053-5.531-.353-13.765-6.573-20.975-15.886a397.06,397.06,0,0,1-23.1-33.909c-1.608-2.58-2.863-4.612-3.817-6.026a100.982,100.982,0,0,1-5.2-9.083c-2.12-4.029-4.117-7.828-5.69-8.393-3.269-1.184-10.673-4.983-12.776-9.188-1.4-2.774-.247-3.94.318-4.312,1.29-.866,3.393-.318,4.771,1.255a.852.852,0,1,1-1.29,1.113,2.418,2.418,0,0,0-2.544-.972c-.371.247-.265,1.1.265,2.156,1.855,3.693,8.906,7.28,11.839,8.358,2.191.8,4.153,4.506,6.626,9.206a101.414,101.414,0,0,0,5.107,8.941c.954,1.449,2.226,3.481,3.834,6.061a396.008,396.008,0,0,0,22.989,33.768c7.881,10.161,15.6,14.967,19.738,15.232,6.732.424,12.458-2.156,15.32-6.909,3.393-5.6,4.7-16.787-8.323-38.185-2.65-4.365-5.071-8.393-7.3-12.086-16.84-28.043-22.53-37.479-34.156-33.927a.85.85,0,0,1-.495-1.626c12.9-3.94,18.748,5.778,36.1,34.669,2.226,3.711,4.647,7.722,7.3,12.086,13.465,22.123,11.963,33.927,8.323,39.935C1074.556,978.222,1068.884,981.067,1062.169,981.067Z" transform="translate(-987.778 -867.511)" fill="#201000"/><path d="M1054.143,787.523c-5.354-.99-6.043,1.06-6.043,3.834l4.365,2.845A43.99,43.99,0,0,1,1054.143,787.523Z" transform="translate(-1036.897 -786.421)" fill="#c69870"/><path d="M1049.255,790.209a15.969,15.969,0,0,1,1.219-7.457c-2.792-.53-4.63-.336-5.8.618-1.219,1.007-1.378,2.6-1.378,4.046a.837.837,0,0,0,.389.707l4.806,3.145a.876.876,0,0,0,.459.141.693.693,0,0,0,.318-.071h0c.018-.265.053-.512.088-.777A.757.757,0,0,1,1049.255,790.209Zm-.866-1.042L1045,786.94a2.837,2.837,0,0,1,.76-2.279c.654-.53,1.908-.654,3.728-.371Z" transform="translate(-1032.946 -782.463)" fill="#201000"/><path d="M13.712,0C21.285,0,26.34,3.343,26.34,10.916a49.444,49.444,0,0,1-.412,6.9,12.032,12.032,0,0,1-12.216,9.61A13.712,13.712,0,0,1,13.712,0Z" transform="translate(1.943 4.919)" fill="#0092d2"/><path d="M1017.659,823.859c-.035.106-.071.23-.106.336a12.871,12.871,0,1,1-12.192-17,12.7,12.7,0,0,1,5.884,1.431,12.959,12.959,0,0,1,6.52,8.022h0c.018.071.035.124.053.194a13.385,13.385,0,0,0-2.014-6.927,14.558,14.558,0,0,0-9.171-4.365q-.636-.053-1.272-.053a14.56,14.56,0,1,0,12.122,22.618c.088-.124.159-.247.247-.389A35.032,35.032,0,0,1,1017.659,823.859Z" transform="translate(-989.723 -801.429)" fill="#201000"/><circle cx="10.178" cy="10.178" r="10.178" transform="translate(5.477 8.453)" fill="#edf5f7"/><path d="M1021.926,847.552a11.026,11.026,0,1,1,11.026-11.026A11.04,11.04,0,0,1,1021.926,847.552Zm0-20.374a9.33,9.33,0,1,0,9.33,9.33A9.344,9.344,0,0,0,1021.926,827.179Z" transform="translate(-1006.271 -817.895)" fill="#201000"/><path d="M1129.837,861.3a.837.837,0,0,1-.707-.389c-.141-.212-13.659-21.31-22.017-32.478-4.912-6.538-8.411-13.818-11.486-20.25a91.168,91.168,0,0,0-6.626-12.3c-4.047-5.743-10.479-8.623-13.147-8.075-.777.159-.866.548-.9.689-.088.424.689.76,2.35,1.361,2.739.99,6.874,2.474,8.658,7.51.831,2.368.654,5.619.442,9.065-.265,4.524-.53,9.206,1.449,12.245a.843.843,0,0,1-1.414.919c-2.279-3.5-2-8.464-1.714-13.27.194-3.269.371-6.344-.353-8.411-1.5-4.276-5.036-5.548-7.616-6.485-1.891-.671-3.852-1.378-3.428-3.3a2.587,2.587,0,0,1,2.209-2c3.6-.742,10.585,2.686,14.861,8.764a93.019,93.019,0,0,1,6.768,12.546c3.057,6.361,6.52,13.553,11.327,19.967,8.411,11.2,21.964,32.372,22.088,32.584a.838.838,0,0,1-.265,1.166A.989.989,0,0,1,1129.837,861.3Z" transform="translate(-1057.619 -785.402)" fill="#201000"/><path d="M1311.558,1030.373c-3.41-1.961-10.249,2.9-12.758,5.124.353.459.671.919.99,1.4,2.509-2.315,8.747-6.291,10.938-5.054a.843.843,0,1,0,.83-1.467Z" transform="translate(-1243.298 -986.191)" fill="#201000"/><path d="M1045.328,866.713a.873.873,0,0,1-.6-.247.842.842,0,0,1,0-1.2l5.937-5.937a.85.85,0,0,1,1.2,1.2l-5.937,5.937A.905.905,0,0,1,1045.328,866.713Z" transform="translate(-1033.913 -845.537)" fill="#0092d2"/></g></g></svg>