<svg xmlns="http://www.w3.org/2000/svg" width="262" height="262" viewBox="0 0 262 262"><g transform="translate(15062 21292)"><rect width="262" height="262" rx="5" transform="translate(-15062 -21292)" fill="#edf5f7"/><path d="M5,1A4,4,0,0,0,1,5V257a4,4,0,0,0,4,4H257a4,4,0,0,0,4-4V5a4,4,0,0,0-4-4H5M5,0H257a5,5,0,0,1,5,5V257a5,5,0,0,1-5,5H5a5,5,0,0,1-5-5V5A5,5,0,0,1,5,0Z" transform="translate(-15062 -21292)" fill="#8acce8"/><g transform="translate(179.278 209.362)"><g transform="translate(-15124.509 -21482.117)"><path d="M52.636,113.623c0-1.284-1.671-15.156-1.671-15.156s-8.22-15.155-8.22-15.669S35.682,61.99,35.682,61.99l2.44-15.028,6.294-12.2,17.212-7.449,19.009,1.926,14.513,7.579,6.164,15.8V73.036L92.195,89.091l-5.909,9.376v15.156Z" transform="translate(-13.04 -6.478)" fill="#ffe817"/><path d="M36.685,59.595C38.5,62.862,40,65.5,41.254,67.7c4.458,7.826,5.659,9.927,6.967,15.823a41.541,41.541,0,0,1,.5,8.907,4.246,4.246,0,0,0,1.2,3.1,4.3,4.3,0,0,0,3.071,1.3H82.583a4.275,4.275,0,0,0,4.272-4.4,38.707,38.707,0,0,1,.5-8.913c1.311-5.9,2.512-8,6.979-15.842,1.264-2.212,2.752-4.828,4.562-8.088a36.713,36.713,0,0,0,4.774-17.924c0-21.845-14.12-35.961-35.967-35.961-21.743,0-35.79,14.116-35.79,35.961a36.681,36.681,0,0,0,4.777,17.924ZM67.7,10.449c23.023,0,31.228,16.113,31.228,31.222A32,32,0,0,1,94.75,57.295c-1.8,3.238-3.289,5.854-4.54,8.044A51.663,51.663,0,0,0,82.722,82.5a41.528,41.528,0,0,0-.632,9.6H69.408c-1.691,0-3.525.013-4.746.013H53.471a41.474,41.474,0,0,0-.632-9.6,51.528,51.528,0,0,0-7.478-17.143c-1.264-2.193-2.739-4.812-4.543-8.057a31.993,31.993,0,0,1-4.18-15.627C36.647,26.578,44.805,10.449,67.7,10.449Zm16.4,89.58H51.471a2.37,2.37,0,0,0,0,4.739H84.1a2.37,2.37,0,1,0,0-4.739Zm0,6.467H51.471a2.37,2.37,0,1,0,0,4.739H84.1a2.37,2.37,0,1,0,0-4.739Z" transform="translate(-11.905 12.331)"/><path d="M78.2,126.063H74.09a2.37,2.37,0,1,0,0,4.739H78.2a2.37,2.37,0,0,0,0-4.739ZM61.986,12.363a2.37,2.37,0,0,0,2.37-2.37V2.37a2.37,2.37,0,1,0-4.739,0V9.993a2.37,2.37,0,0,0,2.37,2.37ZM41.036,13.94a2.371,2.371,0,1,0,4.458-1.618L42.966,5.371a2.37,2.37,0,0,0-4.455,1.621ZM25.3,24.527a2.37,2.37,0,1,0,3.63-3.043l-4.632-5.52a2.37,2.37,0,1,0-3.627,3.046Zm-14.872,13,6.755,3.9a2.332,2.332,0,0,0,1.182.316,2.37,2.37,0,0,0,1.188-4.423l-6.761-3.892a2.371,2.371,0,0,0-2.37,4.107ZM7.959,57.445l7.9,1.4a2.644,2.644,0,0,0,.414.035,2.37,2.37,0,0,0,.408-4.7l-7.9-1.409a2.369,2.369,0,1,0-.822,4.667Zm3.235,13.668a2.37,2.37,0,0,0,.4,4.714,2.312,2.312,0,0,0,.414-.035l7.763-1.368a2.37,2.37,0,0,0-.818-4.67ZM79.9,15.355a2.376,2.376,0,0,0,3.039-1.415l2.528-6.951a2.371,2.371,0,0,0-4.458-1.618l-2.528,6.951A2.373,2.373,0,0,0,79.9,15.355ZM96.86,25.374a2.351,2.351,0,0,0,1.814-.847l4.638-5.516a2.369,2.369,0,1,0-3.63-3.046l-4.635,5.52a2.366,2.366,0,0,0,1.814,3.892Zm6.7,15.188a2.366,2.366,0,0,0,2.054,1.185,2.332,2.332,0,0,0,1.182-.316l6.752-3.9a2.371,2.371,0,1,0-2.37-4.107l-6.752,3.9a2.373,2.373,0,0,0-.866,3.242Zm1.8,16.357a2.37,2.37,0,0,0,2.332,1.959,2.606,2.606,0,0,0,.411-.035l7.9-1.4a2.37,2.37,0,1,0-.818-4.667l-7.9,1.393a2.37,2.37,0,0,0-1.924,2.746Zm-.348,12.827a2.371,2.371,0,0,0-.821,4.67l7.763,1.368a2.314,2.314,0,0,0,.414.035,2.37,2.37,0,0,0,.408-4.7Z" transform="translate(-6)"/></g><g transform="translate(-15194.066 -21437.234)"><g transform="translate(0 151.613)"><path d="M825.689,1129.763a2.236,2.236,0,0,1-2.218-1.888,2.285,2.285,0,0,1,1.888-2.6c11.611-1.841,28.368-2.03,56.028-.566a2.27,2.27,0,1,1-.283,4.531c-27.329-1.463-43.755-1.274-55.036.519Z" transform="translate(-823.444 -1120.518)" fill="#201000"/><path d="M1043.672,1130.055a2.231,2.231,0,0,1-2.218-1.841,2.255,2.255,0,0,1,1.794-2.643c2.313-.472,4.815-.944,7.41-1.51,17.181-3.54,40.734-8.355,57.963-5.711a2.286,2.286,0,0,1,1.888,2.6,2.26,2.26,0,0,1-2.6,1.888c-16.426-2.5-39.507,2.218-56.358,5.664-2.643.519-5.145,1.038-7.458,1.51A1.172,1.172,0,0,1,1043.672,1130.055Z" transform="translate(-942.217 -1117.588)" fill="#201000"/></g><path d="M854.57,937.942c-10.4,19.244-21.628,20.8-1.04,36.408,15.084,11.443,41.089,34.848,52.012.52s-3.641-26.526-3.641-26.526L872.774,929.1Z" transform="translate(-829.385 -858.082)" fill="#201000"/><path d="M971.628,802.114c5.2-14.563,10.056-55.826-43-26.7s-45.424,96.439-13.176,104.761S971.628,802.114,971.628,802.114Z" transform="translate(-856.592 -765.25)" fill="#201000"/><path d="M956.513,900.4c-3.6,11.313-14.563,16.124-26.526,18.2l-5.635,37.275-19.1,13.561-24.377-17.331s4.464-33.721,4.9-42.346c-10.923-5.2-17.684-23.926-17.684-23.926-20.285,1.04-40.569-8.322-36.408-29.127,2.947-14.737,17.424-16.427,28-13.957,4.334,1.04,8.018,2.774,9.969,4.594,0,0-2.08-15.82,21.845-26.006,20.588-8.8,35.281-7.542,44.947,4.638,3.554,4.421,6.371,10.359,8.625,17.727C951.832,866.075,960.154,888.96,956.513,900.4Z" transform="translate(-823.23 -793.8)" fill="#c69870"/><path d="M955.352,879.346c-1.734-8.8-4.9-18.984-8.149-29.473-1-3.164-1.994-6.372-2.947-9.579a57.412,57.412,0,0,0-7.585-16.514c-.477-.65-.954-1.3-1.43-1.907a31.485,31.485,0,0,0-2.991-3.294h0c-10.1-9.752-24.706-10.359-44.384-1.95-1.17.477-2.254,1-3.337,1.517a49.533,49.533,0,0,0-9.839,6.328h0a4.3,4.3,0,0,0-.477.433c-6.632,5.895-8.712,11.963-9.319,15.82a30.717,30.717,0,0,0-6.241-2.427,12.972,12.972,0,0,0-1.387-.347c-3.988-.954-14.087-2.557-22.062,2.557-4.464,2.861-7.282,7.238-8.452,13-1.56,7.888.087,14.91,4.768,20.371a28.631,28.631,0,0,0,8.149,6.372,41.858,41.858,0,0,0,12.223,4.118,49,49,0,0,0,5.851.737c1.95.13,3.988.173,6.068.13,1.517,3.728,5.938,13.653,12.743,19.895h0a22.488,22.488,0,0,0,4.2,3.121c-.3,3.858-1.04,10.619-1.864,17.6-.824,6.848-1.69,13.827-2.3,18.334-.173,1.214-.3,2.254-.39,3.034-.173,1.17-.26,1.864-.26,1.907a1.838,1.838,0,0,0,.347,1.43l.563.867,23.88,17.326a2.117,2.117,0,0,0,1.734.91h.217a1.977,1.977,0,0,0,1.69-1.3l18.6-13.382.433-1.04c.043-.13.087-.3.13-.477l.433-2.947.737-4.811,4.248-28.043c14.693-2.861,23.449-9.189,26.7-19.374h0C957.259,893.433,956.826,886.931,955.352,879.346Zm-3.6,17.684c-2.817,8.885-10.966,14.347-24.922,16.774a2.121,2.121,0,0,0-1.69,1.734L920.5,946.312l-.954,6.241-17.513,10.564-21.8-14.292c.087-.78.26-2.124.477-3.814.607-4.768,1.6-12.526,2.471-19.938.867-7.455,1.647-14.607,1.82-17.987a1.683,1.683,0,0,0-.087-.65,2.092,2.092,0,0,0-1.127-1.3c-10.012-4.768-16.557-22.582-16.644-22.755a2.11,2.11,0,0,0-2.081-1.387,50.277,50.277,0,0,1-8.885-.26c-.954-.087-1.864-.217-2.774-.39a40.42,40.42,0,0,1-11.4-3.6,23.314,23.314,0,0,1-7.368-5.591c-3.9-4.508-5.158-10.186-3.858-16.817a15.1,15.1,0,0,1,6.631-10.316c4.594-2.947,11.659-3.684,18.854-1.994a6.933,6.933,0,0,0,.91.217c3.467.954,6.545,2.384,8.149,3.858a.776.776,0,0,0,.3.217,1.518,1.518,0,0,0,.607.26,2.045,2.045,0,0,0,1.43-.173,2.108,2.108,0,0,0,1.127-2.081c-.043-.563-1.344-13.566,18.508-22.885.694-.347,1.387-.65,2.124-.954,20.068-8.539,33.548-7.282,42.52,4.031a33.881,33.881,0,0,1,3.077,4.594,60.7,60.7,0,0,1,5.2,12.44c.954,3.207,1.95,6.415,2.947,9.579C948.85,869.161,954.658,887.841,951.754,897.03Z" transform="translate(-820.422 -791.034)" fill="#201000"/><path d="M1047.756,903.048a1.972,1.972,0,0,1-.867-.217,2.093,2.093,0,0,1-1-2.774c4.118-8.669.52-17.337-13.7-33.114a2.086,2.086,0,1,1,3.078-2.817c13.393,14.823,20.024,25.746,14.39,37.665A2.05,2.05,0,0,1,1047.756,903.048Z" transform="translate(-936.837 -820.89)" fill="#201000"/><circle cx="2.601" cy="2.601" r="2.601" transform="translate(70.175 52.51)" fill="#201000"/><circle cx="2.601" cy="2.601" r="2.601" transform="translate(108.838 44.189)" fill="#201000"/><path d="M7.6,1.779A2.182,2.182,0,0,0,5.259,0c-1.17.087-2.341.173-3.467.26A2.12,2.12,0,0,0,.014,2.6,2.182,2.182,0,0,0,2.355,4.38c1.17-.087,2.341-.173,3.467-.26A2.013,2.013,0,0,0,7.6,1.779Z" transform="matrix(0.891, -0.454, 0.454, 0.891, 66.375, 46.416)" fill="#201000"/><path d="M4.616,0h-2.6c-2.687,0-2.687,4.161,0,4.161h2.6C7.3,4.161,7.3,0,4.616,0Z" transform="translate(104.578 34.639) rotate(-7)" fill="#201000"/><path d="M884.875,922.245a2.049,2.049,0,0,1-1.864-1.17c-1.647-3.337-10.272-10.662-16.991-9.276a2.1,2.1,0,1,1-.824-4.118c8.755-1.777,19.071,6.588,21.542,11.529a2.06,2.06,0,0,1-.91,2.774A1.676,1.676,0,0,1,884.875,922.245Z" transform="translate(-841.573 -845.809)" fill="#201000"/><path d="M938.612,831.3l-.13-.39a5.749,5.749,0,0,0-.91-1.864,3.807,3.807,0,0,0-1.951-1.387c-2.124-.65-4.811.52-6.718,2.427a31.32,31.32,0,0,0-2.9,3.381h0c-.217.3-.433.607-.694.91a46.668,46.668,0,0,0-5.071,9.665h0c-.78,1.994-1.43,4.031-1.994,6.025a1.873,1.873,0,0,0,.65,2.081.6.6,0,0,0,.173.13c-.087,0-.13.043-.217.043-.3.087-.65.173-.954.26h-.043a1.726,1.726,0,0,0-1.04.563,2.091,2.091,0,0,0,.043,2.644,2.936,2.936,0,0,0,.52.52,1.986,1.986,0,0,0,1.6.3C929.293,854.623,941.56,843.007,938.612,831.3Z" transform="translate(-871.514 -800.509)" fill="#201000"/><path d="M16.509,1.476C12.222,6.391,9.632,7.213,2.553,8.8,0,7.977-1.088,12.008,1.426,12.832A15.222,15.222,0,0,0,20.5,2.6C21.277,0,17.246-1.125,16.509,1.476Z" transform="matrix(0.966, 0.259, -0.259, 0.966, 98.475, 88.733)" fill="#201000"/></g></g></g></svg>