<svg xmlns="http://www.w3.org/2000/svg" width="46" height="46" viewBox="0 0 46 46"><g transform="translate(-1223 -8284)"><circle cx="23" cy="23" r="23" transform="translate(1223 8284)" fill="#0092d2"/><g transform="translate(411.419 7844.932) rotate(-13)"><path d="M755.727,630.8c3.4-1.4,3.921-5.7.54-6.08s-10.979-.108-13.3,3.374-5.223,7.389-1.547,10.346S755.727,630.8,755.727,630.8Z" transform="translate(-38.58)" fill="#201000"/><path d="M707.357,678.259c.446-4.4.827-7.442.827-7.442-1.3-1.484-1.043-4.676-1.043-4.676-3.144-1.192-5.569-3.9-3.518-6.683,1.453-1.965,3.756-1.254,5.187-.188a3.945,3.945,0,0,1,1.2,1.331s.763-2.453,5.087-2.369c3.72.077,5.857,1.226,6.482,3.651a8.29,8.29,0,0,1,.094,3.171c-.5,3.728-.813,7.63-2.144,9.066-1.317,1.415-2.792,1.443-4.741.955l-.806,4.265C712.063,683.534,709.343,682.112,707.357,678.259Z" transform="translate(-4.427 -31.206)" fill="#e7c1a0"/><path d="M706.794,677.67c-1.425,0-2.907-1.353-4.173-3.822a.318.318,0,0,1-.036-.181c.388-3.836.727-6.668.806-7.316-1.072-1.367-1.072-3.78-1.036-4.561a6.707,6.707,0,0,1-4.108-3.8,3.638,3.638,0,0,1,.669-3.306,3.207,3.207,0,0,1,2.166-1.346,5.494,5.494,0,0,1,4.468,2c.532-.788,1.9-2.078,5.123-2.016,3.921.084,6.152,1.36,6.813,3.913a8.5,8.5,0,0,1,.1,3.3c-.072.53-.144,1.067-.209,1.6-.417,3.264-.806,6.347-2.022,7.658-1.367,1.472-2.885,1.548-4.727,1.137l-.741,3.92c-.007.028-.014.049-.022.077-.82,1.8-1.842,2.72-3.022,2.748Zm-3.511-4.038c1.13,2.162,2.439,3.39,3.547,3.369.871-.021,1.7-.816,2.389-2.316l.8-4.234a.329.329,0,0,1,.151-.223.372.372,0,0,1,.273-.042c1.806.453,3.173.467,4.4-.851,1.072-1.151,1.468-4.276,1.849-7.289.065-.53.137-1.067.209-1.6a8.076,8.076,0,0,0-.086-3.048c-.583-2.253-2.54-3.334-6.159-3.4-3.986-.091-4.72,2.044-4.749,2.134a.349.349,0,0,1-.648.035,3.6,3.6,0,0,0-1.094-1.2,4.289,4.289,0,0,0-2.986-.956,2.539,2.539,0,0,0-1.705,1.074,2.966,2.966,0,0,0-.568,2.72c.417,1.367,1.928,2.692,3.936,3.453a.324.324,0,0,1,.216.335c0,.028-.23,3.076.964,4.443a.305.305,0,0,1,.079.258C704.1,666.322,703.722,669.335,703.283,673.632Z" transform="translate(0 -26.642)" fill="#201000"/><path d="M908.1,723.877a.356.356,0,0,1-.266-.122.35.35,0,0,1,.036-.489c1.216-1.029,1.266-2.59.187-5.943a.344.344,0,0,1,.655-.209c1.014,3.159,1.273,5.267-.4,6.684A.3.3,0,0,1,908.1,723.877Z" transform="translate(-194.571 -85.895)" fill="#201000"/><circle cx="0.432" cy="0.432" r="0.432" transform="matrix(0.412, -0.911, 0.911, 0.412, 709.85, 633.038)" fill="#201000"/><circle cx="0.432" cy="0.432" r="0.432" transform="matrix(0.412, -0.911, 0.911, 0.412, 715.397, 633.547)" fill="#201000"/><path d="M826.381,797.871a1.347,1.347,0,0,1-1.058-1.849c.165-.41-.468-.7-.633-.288a2.048,2.048,0,0,0,1.576,2.82A.347.347,0,0,0,826.381,797.871Z" transform="translate(-117.342 -159.034)" fill="#201000"/><path d="M868.553,706.505a.357.357,0,0,0-.381-.309c-.194.007-.388.014-.576.014a.353.353,0,0,0-.309.381.357.357,0,0,0,.381.309c.194-.007.388-.014.576-.014A.347.347,0,0,0,868.553,706.505Z" transform="translate(-157.018 -75.902)" fill="#201000"/><path d="M941.28,709.966l-.4-.18a.348.348,0,0,0-.288.633l.4.18A.348.348,0,0,0,941.28,709.966Z" transform="translate(-224.874 -79.212)" fill="#201000"/><path d="M742.923,691.759a.343.343,0,0,1-.345-.331c-.022-.619-.82-2.31-1.935-2.569a.347.347,0,1,1,.158-.676c1.446.331,2.432,2.3,2.468,3.216a.351.351,0,0,1-.331.36Z" transform="translate(-39.237 -59.155)" fill="#201000"/><path d="M796.445,651.3c.46.813,1.532.374,2.137.014a5.579,5.579,0,0,0,2.223-2.561c.173-.4-.417-.755-.6-.353-.036.079-.072.158-.115.237a.327.327,0,0,0-.079-.022,4.3,4.3,0,0,0-2.784.842C796.712,649.866,796.05,650.607,796.445,651.3Z" transform="translate(-91.163 -21.933)" fill="#201000"/></g></g></svg>