<svg xmlns="http://www.w3.org/2000/svg" xmlns:xlink="http://www.w3.org/1999/xlink" width="279" height="331" viewBox="0 0 279 331"><defs><clipPath id="a"><rect width="279" height="331" transform="translate(296 9000) rotate(180)" fill="#fff"/></clipPath></defs><g transform="translate(-17 -8669)" clip-path="url(#a)"><g transform="translate(290.846 9103.452) rotate(180)"><path d="M165.7,51.3c3.1,20.9,1.2,45.2-.2,68-3,51.7-82.4,102.1-120.8,119.2s-59.8-32-32.2-68.2C12.5,170.3,53.6,14,106,0,111.5,25.9,138.1,45.9,165.7,51.3Z" transform="translate(49.585 192.2)" fill="#201000"/><path d="M.7,210.6c4.9-23.8,26.2-36.1,50.2-42.9L57.3,94s10-42.7,25.6-94c35.6,47,66.2,88.3,66.2,88.3s-.7,25.6-6.1,87.9c23.4,8.2,41.3,45,41.3,45,41.2-6.5,84.6,8.2,80.6,51.6-2.8,30.8-32,37.3-54.1,34.5-9.1-1.2-17-3.9-21.4-7.2,0,0,7.7,31.8-39,57.8-40.1,22.4-70.4,23.1-92.7.3-8.2-8.3-15.3-19.7-21.5-34.3C17.7,279.7-4.2,234.8.7,210.6Z" transform="translate(4.184 4.3)" fill="#e7c1a0"/><path d="M87.181,0a1.7,1.7,0,0,0-.7.1,4.08,4.08,0,0,0-3.3,3c-15.5,50.8-25.6,93.8-25.7,94.2,0,.2-.1.4-.1.6l-6.2,70.8c-29.5,9-46,23.9-50.4,45.3h0c-4.5,22,11.2,58.4,27.8,96.9l8.1,18.9c6.5,15.4,13.8,27,22.4,35.7,23.5,23.9,55.5,24.1,97.9.4,34.8-19.4,41-42.2,41.6-54.2a65.29,65.29,0,0,0,16.1,4.1c8.3,1.1,29.3,2.2,44.5-10,8.5-6.8,13.3-16.3,14.4-28.4,1.5-16.4-3.4-30.4-14.2-40.5-14.9-13.9-40.3-19.9-68.3-16.1-4.6-8.6-19.5-34.2-39.2-43.1,5.1-59.4,5.8-84.7,5.8-85a5.029,5.029,0,0,0-.8-2.7c-.263-.35-23.854-32.163-53.48-71.461C99.341,13.154,95.046,7.466,90.681,1.7A4.552,4.552,0,0,0,87.181,0Zm-21.4,98.9c.542-2.167,9.514-37.465,9.514-37.465S83.508,31.33,88.881,13.5c29.7,39.3,55.2,73.6,60.2,80.3-.2,6.3-1.4,32.9-6,86.2a4.326,4.326,0,0,0,2.8,4.4c21.5,7.6,38.7,42.5,38.9,42.8a4.036,4.036,0,0,0,4.5,2.3c26.3-4.2,50.9,1,64.2,13.4,8.9,8.3,12.8,19.6,11.5,33.5-.9,9.6-4.7,17.2-11.3,22.5-8.8,7-23,10.1-38,8.2-8.1-1.1-15.5-3.5-19.4-6.4a4.2,4.2,0,0,0-4.9-.1,4.333,4.333,0,0,0-1.8,4.6c.3,1.2,6,29.2-36.9,53.1-39.1,21.8-66.9,22.1-87.6,1-7.7-7.7-14.6-18.8-20.6-33l-8.1-18.9c-15.4-35.6-31.3-72.4-27.3-91.8h0c3.8-18.7,19.3-31.7,47.2-39.7a4.4,4.4,0,0,0,3.1-3.7Z" fill="#201000"/><path d="M6.458,0a4.169,4.169,0,0,0-4,2.9c-8.9,25.6,7,46.4,37.5,73.7a4.248,4.248,0,1,0,5.7-6.3c-32.5-29.1-41.7-46-35.2-64.6A4.2,4.2,0,0,0,7.858.3,3.927,3.927,0,0,0,6.458,0Z" transform="translate(49.923 259.9)" fill="#201000"/><ellipse cx="5.3" cy="5.3" rx="5.3" ry="5.3" transform="translate(135.936 305.116) rotate(83.932)" fill="#201000"/><ellipse cx="5.3" cy="5.3" rx="5.3" ry="5.3" transform="translate(67.152 326.469) rotate(83.932)" fill="#201000"/><path d="M5.778,9.787c10.3-3.9,21.1,2.2,22.8,13.1.8,5.4,9.3,4.5,8.5-.9-2.5-16.5-18.8-26.2-34.4-20.2C-2.522,3.787.578,11.687,5.778,9.787Z" transform="translate(86.303 214.812)" fill="#201000"/><path d="M.822,10.58a4.4,4.4,0,0,0,6,.9c2-1.3,4-2.5,6.1-3.8,2-1.2,2.2-4.2.9-6a4.4,4.4,0,0,0-6-.9c-2,1.3-4,2.5-6.1,3.8A4.315,4.315,0,0,0,.822,10.58Z" transform="translate(131.759 328.92)" fill="#201000"/><path d="M4.6,9.13l5.3-.6c5.5-.6,4.6-9.1-.9-8.5L3.7.63C-1.8,1.23-.9,9.73,4.6,9.13Z" transform="translate(69.778 354.069)" fill="#201000"/><path d="M4.289,0a3.891,3.891,0,0,0-2.3.7,4.239,4.239,0,0,0-1.3,5.9c6.1,9.5,28.9,24.3,46.4,18.8a4.265,4.265,0,0,0,2.8-5.4,4.346,4.346,0,0,0-5.4-2.8c-13.5,4.2-32.6-8.9-36.7-15.3A4.068,4.068,0,0,0,4.289,0Z" transform="translate(191.292 256.9)" fill="#201000"/></g></g></svg>