<svg xmlns="http://www.w3.org/2000/svg" xmlns:xlink="http://www.w3.org/1999/xlink" width="463.114" height="497.389" viewBox="0 0 463.114 497.389"><defs><filter id="a" x="164.613" y="121.215" width="259.432" height="200.193" filterUnits="userSpaceOnUse"><feOffset dx="5" dy="8" input="SourceAlpha"/><feGaussianBlur stdDeviation="2" result="b"/><feFlood flood-opacity="0.451"/><feComposite operator="in" in2="b"/><feComposite in="SourceGraphic"/></filter><filter id="c" x="285.183" y="95.548" width="24.877" height="21.724" filterUnits="userSpaceOnUse"><feOffset dy="3" input="SourceAlpha"/><feGaussianBlur stdDeviation="3" result="d"/><feFlood flood-color="#fff" flood-opacity="0.161"/><feComposite operator="in" in2="d"/><feComposite in="SourceGraphic"/></filter><filter id="e" x="264.402" y="273.912" width="19.254" height="10.707" filterUnits="userSpaceOnUse"><feOffset dx="1" input="SourceAlpha"/><feGaussianBlur stdDeviation="1" result="f"/><feFlood flood-opacity="0.702"/><feComposite operator="in" in2="f"/><feComposite in="SourceGraphic"/></filter><filter id="g" x="288.791" y="273.252" width="21.266" height="11.455" filterUnits="userSpaceOnUse"><feOffset input="SourceAlpha"/><feGaussianBlur stdDeviation="1" result="h"/><feFlood flood-opacity="0.549"/><feComposite operator="in" in2="h"/><feComposite in="SourceGraphic"/></filter></defs><g transform="translate(-438.518 -474.75)"><rect width="263.975" height="260.391" transform="translate(604.131 526.98)" fill="#0092d2"/><path d="M1184.166,625.555l2.693,92.271h42.77V620l-13.3,5.557-16.164,3.031Z" transform="translate(-378.02 250.75)" fill="#e7c1a0"/><path d="M936.332,596.469l16.852-27.8,277.227-1.531v52.971s-14.445,5.473-15.322,5.691-17.072,2.188-17.072,2.188l-14.229-2.187,2.9,92.537H999.754v-90.35l-14.01,17.35-5.473-17.35-10.285-13.732-16.8-12.916Z" transform="translate(-378.02 250.75)" fill="#fff"/><g transform="translate(438.518 583.27)"><g transform="translate(172.615 -13.02)"><g transform="translate(112.402)"><path d="M0,92.5a2.492,2.492,0,0,1-1.768-.732,2.5,2.5,0,0,1,0-3.536l90-90a2.5,2.5,0,0,1,3.536,0,2.5,2.5,0,0,1,0,3.536l-90,90A2.492,2.492,0,0,1,0,92.5Z" transform="translate(41)" fill="#edf5f7"/><path d="M0,88.5a2.492,2.492,0,0,1-1.768-.732,2.5,2.5,0,0,1,0-3.536l86-86a2.5,2.5,0,0,1,3.536,0,2.5,2.5,0,0,1,0,3.536l-86,86A2.492,2.492,0,0,1,0,88.5Z" transform="translate(0 16)" fill="#edf5f7"/></g><g transform="translate(0 44)"><path d="M0,92.5a2.492,2.492,0,0,1-1.768-.732,2.5,2.5,0,0,1,0-3.536l90-90a2.5,2.5,0,0,1,3.536,0,2.5,2.5,0,0,1,0,3.536l-90,90A2.492,2.492,0,0,1,0,92.5Z" transform="translate(41)" fill="#edf5f7"/><path d="M0,88.5a2.492,2.492,0,0,1-1.768-.732,2.5,2.5,0,0,1,0-3.536l86-86a2.5,2.5,0,0,1,3.536,0,2.5,2.5,0,0,1,0,3.536l-86,86A2.492,2.492,0,0,1,0,88.5Z" transform="translate(0 16)" fill="#edf5f7"/></g></g><g transform="matrix(1, 0, 0, 1, 0, -108.52)" filter="url(#a)"><path d="M-19493.5-22801.5l20.291-17.246,33.271-10.236,42.229-5.119v-47.986l4.994-2.943-27.514-4.1-6.912-5.967-.686-7.436.686-4.512,1.455-5.471,17.1-64.273,72.941,63.346-8.316,16-8.318,8.316,4.479,51.186h37.109l27.514,3.84,24.313,15.355,12.8,28.154h-241.855Z" transform="translate(19659.12 23098)" fill="#fff"/></g><g transform="translate(1.997 59.264)"><path d="M544.644,1053.12s-5.882-37.734-13.971-76.965c-5.7-27.529-8.088-48.982-8-66.4v-38.6l-13.364-21.986-8.326,1.775,3.073,18.2-5.21,10.463-12.459-1.061-7.068-10.311,3.534-12.13,14.135-6.931,1.857-6-7.764-3.332-13.839,3.332-7.764,15.99-13.5-19.321-7.844,3.332-8.359,6-7.088,5.663,15.447,54.926c8.089,41.453,29.826,152.66,33.962,173.794,2.849,14.513,5.372,41.414,16.724,56.608,6.2,8.345,18.042,16.192,28.428,15.148,11.581-1.134,27.479-9.849,37.359-16.924l36.137-43.818L593.1,1075.01l-22.408-24.352-20.334-6.217Z" transform="translate(-432.688 -839.842)" fill="#e7c1a0"/><path d="M975.941,1275.236h0a2.187,2.187,0,0,1-2.206-2.252c.046-1.379,2.183-137.617.023-173.509-2.114-34.7-9.927-55.378-43.8-58.641-24.495-2.344-87.41.368-131.8,7.307-18.061,2.849-29.78,4.826-40.442,8.548-19.623,6.848-34.1,31.113-50.92,59.146-7.767,12.96-15.763,26.333-25.23,39.891a2.212,2.212,0,1,1-3.631-2.528c9.375-13.419,17.372-26.747,25.092-39.615,17.234-28.769,32.124-53.677,53.218-61.031,11.03-3.86,22.933-5.882,41.223-8.778,44.716-7.031,108.182-9.7,132.907-7.353,36.857,3.493,45.589,26.609,47.795,62.731,2.206,36.076.023,172.544-.023,173.876A2.236,2.236,0,0,1,975.941,1275.236Z" transform="translate(-565.014 -945.632)" fill="#201000"/><path d="M1223.368,1350.687a2.252,2.252,0,0,1-2.206-2.245c-.046-1.317-4.458-129.835-7.169-169.161a2.3,2.3,0,0,1,2.022-2.489,2.249,2.249,0,0,1,2.344,2.147c2.711,39.424,7.123,168.04,7.169,169.357a2.325,2.325,0,0,1-2.114,2.44C1223.46,1350.687,1223.414,1350.687,1223.368,1350.687Z" transform="translate(-854.927 -1021.938)" fill="#201000"/><path d="M1273.055,1328a2.079,2.079,0,0,0-1.333.827c-3.033,3.906-27.023,13.465-42.556,5.974a2.2,2.2,0,1,0-1.93,3.952,36.161,36.161,0,0,0,15.625,3.171c14.109,0,28.677-5.928,32.216-10.294C1274.434,1330.389,1273.79,1329.195,1273.055,1328Z" transform="translate(-861.415 -1103.659)" fill="#201000"/><path d="M823.607,1398.375h0a2.437,2.437,0,0,1-2.206-2.636c0-.753,1.057-74.789-1.1-125.15a2.458,2.458,0,0,1,2.114-2.69,2.351,2.351,0,0,1,2.3,2.475c2.206,50.522,1.1,124.719,1.1,125.472A2.43,2.43,0,0,1,823.607,1398.375Z" transform="translate(-642.164 -1071.177)" fill="#201000"/><path d="M163.693,129.047v16.018H410.656l-6.406-28.83L387.941,97.887l-32.328-7.281-46.3,2.912L257.762,96.43l-66.4,11.357Z" fill="#201000"/></g><g transform="translate(0 28.301)"><path d="M594.294,1083.106a2.253,2.253,0,0,1-2.16-1.747c-.23-1.1-22.151-108.412-28.677-136.767-3.768-16.269-2.665-32.859-1.7-47.473.735-11.214,1.379-20.911-.46-27.436-3.493-12.224-10.937-20.221-14.66-21.37-3.079-.919-4,2.3-4.182,3.63-.138,1.1,1.149,3.447,3.079,7.307a15.718,15.718,0,0,1-1.655,16.545,11.371,11.371,0,0,1-11.857,4.228,18.618,18.618,0,0,1-12.225-9.467c-1.654-3.263-3.079-8.64-.322-15.579,3.033-7.629,8.456-8.5,12.454-9.145,2.757-.46,4.412-.781,5.423-2.3.781-1.195.551-1.838,0-2.482-2.068-2.344-9.191-3.769-14.844-.965-7.721,3.86-9.835,15.9-9.835,16.039a2.191,2.191,0,1,1-4.32-.735c.092-.6,2.482-14.385,12.224-19.256,6.664-3.355,16.269-2.39,20.129,1.976a6.218,6.218,0,0,1,.368,7.859c-2.16,3.217-5.469,3.722-8.41,4.228-3.722.6-6.939,1.1-9.053,6.434-1.7,4.274-1.654,8.41.138,11.9a14.368,14.368,0,0,0,9.375,7.215,6.961,6.961,0,0,0,7.353-2.712,11.2,11.2,0,0,0,1.149-11.811c-4.6-9.238-5.7-10.754-.322-16.131,1.471-1.471,4.274-1.655,6.48-1.057,6.572,1.7,14.384,12.408,17.785,24.4,2.068,7.215,1.425,17.28.643,28.907-.965,14.339-2.022,30.561,1.609,46.233,6.572,28.4,28.493,135.8,28.677,136.859a2.236,2.236,0,0,1-1.7,2.62A1.878,1.878,0,0,1,594.294,1083.106Z" transform="translate(-471.563 -805.788)" fill="#201000"/><path d="M491.461,874.009a2.265,2.265,0,0,1-2.114-1.517c-3.723-11.168-10.662-31.986-16.177-32.951-1.195-.184-2.62.689-4.274,2.757a2.193,2.193,0,1,1-3.447-2.711c2.711-3.4,5.561-4.872,8.5-4.32,6.848,1.241,11.995,13.052,19.624,35.892a2.246,2.246,0,0,1-1.379,2.8A4.2,4.2,0,0,1,491.461,874.009Z" transform="translate(-448.144 -806.345)" fill="#201000"/><path d="M472.309,882.349a2.265,2.265,0,0,1-2.114-1.517l-1.471-4.412c-5.1-15.4-9.513-28.723-13.465-29.642-.873-.23-2.068.414-3.447,1.792a9.365,9.365,0,0,0-1.792,2.344,2.189,2.189,0,0,1-3.906-1.976,12.237,12.237,0,0,1,2.62-3.447c2.574-2.573,5.147-3.585,7.629-2.987,6.342,1.517,10.248,13.19,16.636,32.537l1.471,4.412a2.246,2.246,0,0,1-1.379,2.8A5.86,5.86,0,0,1,472.309,882.349Z" transform="translate(-437.815 -810.227)" fill="#201000"/><path d="M524.51,1165.384h-.552a36.967,36.967,0,0,1-28.08-13.281c-14.476-17.509-30.607-113.237-34.146-137.916-4.412-30.975-16.636-85.8-24.219-112.226-1.287-4.6-2.482-8.64-3.539-12.224-5.423-18.521-7.445-25.46-3.768-30.01,2.3-2.8,4.688-4,7.123-3.538,6.388,1.149,10.524,12.776,18.567,36.857l.138.459a2.209,2.209,0,1,1-4.182,1.425l-.138-.46c-5.7-17.05-11.076-33.181-15.166-33.916-.965-.184-2.252,1.149-2.941,1.976-2.252,2.757-.092,10.064,4.55,26.012,1.057,3.631,2.252,7.675,3.585,12.271,7.583,26.609,19.9,81.665,24.357,112.824,5.745,40.3,21.416,121.509,33.181,135.71A32.607,32.607,0,0,0,524,1161.018c10.34.138,26.609-4.182,45.267-25.506,30.286-34.605,40.4-54.5,40.534-54.688a2.189,2.189,0,0,1,3.906,1.976c-.414.827-10.432,20.5-41.131,55.654C553.141,1160.6,535.816,1165.384,524.51,1165.384Z" transform="translate(-428.342 -817.66)" fill="#201000"/><path d="M735.835,1335.143a2.229,2.229,0,0,1-2.206-1.93c-2.206-18.843-23.392-47.2-48.071-47.7a2.206,2.206,0,0,1,.092-4.412c27.9.552,49.955,31.435,52.345,51.61a2.211,2.211,0,0,1-1.93,2.436Z" transform="translate(-566.182 -1047.347)" fill="#201000"/><path d="M551.636,923.532A36.561,36.561,0,0,0,533.667,950c-.414,2.758,3.86,4,4.274,1.195a32.387,32.387,0,0,1,15.947-23.806C556.323,925.922,554.117,922.107,551.636,923.532Z" transform="translate(-485.248 -853.938)" fill="#201000"/><path d="M567.4,788.015l-2.987-13.971c-.6-2.757-4.825-1.609-4.274,1.195,1.011,4.642,1.976,9.329,2.987,13.971C563.727,791.968,568,790.772,567.4,788.015Z" transform="translate(-499.544 -772.466)" fill="#0092d2"/><path d="M603.293,790.643l-11.03,13.236c-1.792,2.16,1.287,5.285,3.125,3.125l11.03-13.236C608.21,791.609,605.085,788.483,603.293,790.643Z" transform="translate(-516.638 -781.896)" fill="#0092d2"/></g><g transform="translate(217.184 -26.16)"><g transform="translate(12.505 26.16)"><path d="M0,75.95a1.5,1.5,0,0,1-1.5-1.5V0A1.5,1.5,0,0,1,0-1.5,1.5,1.5,0,0,1,1.5,0V74.45A1.5,1.5,0,0,1,0,75.95Z" transform="translate(116.85 13.955)" fill="#2a2a2a"/><path d="M882.477,805.613c3.814,11.995,15.441,17.1,28.125,19.3l.551,38.6s0,22.61,26.471,22.61c19.853,0,23.162-16.544,23.162-16.544s-1.654-20.956-3.309-54.045c11.581-5.515,18.75-25.368,18.75-25.368,21.508,1.1,43.016-8.824,38.6-30.883-3.125-15.625-18.475-17.418-29.688-14.8-4.6,1.1-8.5,2.941-10.57,4.871,0,0,2.206-16.774-23.162-27.574-21.829-9.329-37.409-8-47.657,4.917-3.768,4.688-6.756,10.984-9.146,18.8C887.44,769.216,878.617,793.481,882.477,805.613Z" transform="translate(-879.323 -713.509)" fill="#e7c1a0"/><path d="M936.718,873.582c21.416,0,23.027-9.96,23.073-10.144a2.618,2.618,0,0,0,.046-.6c0-.23-1.136-16.744-2.745-48.592,9.7-5.561,16.085-19.715,17.969-24.4,14.614.413,27.344-4.044,34.238-11.995,4.963-5.791,6.755-13.236,5.055-21.6-1.241-6.112-4.228-10.754-8.961-13.787-8.456-5.423-19.164-3.723-23.392-2.711a34.957,34.957,0,0,0-8.042,2.941c-.965-6.158-5.377-17.51-24.311-25.6-23.07-9.835-39.523-8-50.277,5.561-3.906,4.917-7.031,11.305-9.559,19.532-1.011,3.4-2.068,6.756-3.125,10.156-6.434,20.681-12.546,40.258-9.007,51.288h0c3.4,10.708,12.592,17.418,28.08,20.5l.9,43.045C906.661,867.4,908.363,873.582,936.718,873.582Zm18.707-10.742c-.505,2.068-2.071,6.33-18.707,6.33-23.989,0-25.646-1.169-25.646-2l-.948-44.883a2.213,2.213,0,0,0-1.838-2.16c-14.752-2.574-23.392-8.41-26.425-17.785h0c-3.079-9.743,3.079-29.5,9.008-48.668,1.057-3.355,2.114-6.756,3.125-10.156,2.3-7.583,5.239-13.649,8.778-18.061,9.467-11.995,23.806-13.328,45.084-4.274,23.576,10.019,21.875,25.093,21.829,25.276a2.228,2.228,0,0,0,1.149,2.252,2.312,2.312,0,0,0,2.528-.322c1.838-1.7,5.515-3.355,9.6-4.32,7.629-1.792,15.12-1.011,19.991,2.114,3.677,2.344,6.02,6.02,7.031,10.938,1.425,7.078.046,13.1-4.09,17.831-6.158,7.123-18.521,11.121-32.262,10.432a2.278,2.278,0,0,0-2.206,1.47c-.092.184-6.985,19.072-17.647,24.127a2.2,2.2,0,0,0-1.241,2.114C954.151,843.523,955.2,859.991,955.425,862.84Zm-75.632-59.851Z" transform="translate(-876.639 -710.885)" fill="#201000"/><path d="M1086.068,805.535a1.865,1.865,0,0,0,.965-.23,2.219,2.219,0,0,0,1.057-2.941c-4.366-9.192-.551-18.383,14.522-35.111a2.212,2.212,0,1,0-3.263-2.987c-14.2,15.717-21.232,27.3-15.258,39.936A2.112,2.112,0,0,0,1086.068,805.535Z" transform="translate(-1059.2 -739.35)" fill="#201000"/><ellipse cx="2.757" cy="2.757" rx="2.757" ry="2.757" transform="translate(68.229 34.75)" fill="#201000"/><ellipse cx="2.757" cy="2.757" rx="2.757" ry="2.757" transform="translate(23.559 25.926)" fill="#201000"/><path d="M1039.253,880.783a8.557,8.557,0,0,0,10.984-8c.138-2.849,4.549-2.849,4.412,0a13.1,13.1,0,0,1-16.59,12.27C1035.3,884.322,1036.5,880.048,1039.253,880.783Z" transform="translate(-989.775 -797.227)" fill="#201000"/><path d="M1009.229,759.143a2.227,2.227,0,0,1,3.033-.781c1.1.551,2.206,1.1,3.309,1.608a2.215,2.215,0,0,1-2.252,3.815c-1.1-.552-2.206-1.1-3.309-1.609A2.281,2.281,0,0,1,1009.229,759.143Z" transform="translate(-939.116 -736.387)" fill="#201000"/><path d="M1102.287,737.3h2.757c2.85,0,2.85,4.412,0,4.412h-2.757C1099.438,741.712,1099.438,737.3,1102.287,737.3Z" transform="translate(-1071.559 -725.161)" fill="#201000"/><path d="M916.023,823.25A2.173,2.173,0,0,0,918,822.009c1.746-3.539,10.846-11.305,18.015-9.835a2.226,2.226,0,1,0,.873-4.366c-9.283-1.838-20.221,6.985-22.84,12.224a2.184,2.184,0,0,0,.965,2.941A1.609,1.609,0,0,0,916.023,823.25Z" transform="translate(-817.418 -763.132)" fill="#201000"/><path d="M1000,1045.053l11.387,56.441,31.422-3.785,6.926-58.049" transform="translate(-968.08 -888.566)" fill="#fff"/><path d="M1009.389,1104.252l-11.843-58.705,4.9-.989,10.93,54.177,27.178-3.274,6.693-56.1,4.965.592-7.159,60Z" transform="translate(-968.08 -888.566)" fill="#201000"/></g><g transform="translate(0)"><path d="M-17999.738-23022.52s-19.291,4.637-22.176,25.566c-2.9-29.3-41.645-35.258-41.645-35.258Z" transform="translate(18131.416 23059.947)" fill="#201000"/><path d="M33.036,35.485S18.613,24.957,22.483,0C20.423,29.3,0,32.886,0,32.886Z" transform="translate(49.228 60.182) rotate(-167)" fill="#201000"/><path d="M143.484,41.567,35.2,44.613-20.2,9.38,81.419,2.549Z" transform="translate(20.201 -2.549)" fill="#201000"/><path d="M-18058.707-23074.352a1,1,0,0,1-.994-.922,1,1,0,0,1,.918-1.074l47.6-3.691a.55.55,0,0,1,.08,0,1,1,0,0,1,.994.922,1,1,0,0,1-.918,1.074l-47.6,3.691A.55.55,0,0,1-18058.707-23074.352Z" transform="translate(18140.557 23096.387)" fill="#2a2a2a"/><g transform="matrix(1, 0, 0, 1, -217.18, -82.36)" filter="url(#c)"><path d="M3.735,2.9C1.832,2.9.342,3.64.466,4.758S2.2,6.621,4.1,6.621,7.378,6,7.335,4.924,5.639,2.9,3.735,2.9Z" transform="translate(293.72 98.65)" fill="#2a2a2a"/></g><ellipse cx="4" cy="4" rx="4" ry="4" transform="translate(125.387 112.697)" fill="#2a2a2a"/><path d="M4.5,0,9,22H0Z" transform="translate(124.887 109.697)" fill="#2a2a2a"/></g></g><g transform="translate(-381.409 -583.27)"><path d="M657.809,742.185l2.825,19.167h9.727l3.453-19.167L665.49,739.2Z" transform="translate(1.518 -1.762)" fill="#6b553d"/><path d="M662.354,751.9l-3.406,11.359,3.406,24.229H674.09l2.65-24.229L671.818,751.9Z" transform="translate(0.379 2.408)" fill="#6b553d"/></g><g transform="matrix(1, 0, 0, 1, 0, -108.52)" filter="url(#e)"><path d="M266.4,168.393,278.8,173.1l.859-4.184Z" transform="translate(0 108.52)" fill="#fff"/></g><g transform="matrix(1, 0, 0, 1, 0, -108.52)" filter="url(#g)"><path d="M291.791,169.6s1.008,3.584,1.25,3.584,14.016-5.455,14.016-5.455Z" transform="translate(0 108.52)" fill="#fff"/></g><path d="M308.748,146.029s-11.433,6.134-23.264,7.08a47.451,47.451,0,0,1-20.855-3.376c-.37-.148-1.139-.48-1.139-.48l.414,7.088,2.5,12.283,12.268,4.551,4.535-18.045h2.981l6.854,18.045,13.867-5.115,1.84-17.182Z" fill="#fff"/><path d="M309.248,145.194v5.712l0,.027-1.873,17.49-14.623,5.394-6.907-18.185H283.6l-4.576,18.208L265.97,169l-2.563-12.591-.463-7.932.744.32c.008,0,.768.331,1.128.475a47.637,47.637,0,0,0,17.45,3.467c1.068,0,2.137-.042,3.179-.126a60.2,60.2,0,0,0,15.915-3.858,68.089,68.089,0,0,0,7.152-3.164Zm-1,5.658v-4.006c-1.126.561-3.471,1.675-6.517,2.836a61.222,61.222,0,0,1-16.207,3.926c-1.068.085-2.164.129-3.258.129a48.659,48.659,0,0,1-17.825-3.54c-.111-.044-.255-.1-.4-.167l.365,6.247,2.437,11.976,11.484,4.26,4.494-17.882h3.716l6.8,17.9,13.111-4.836Z" fill="#201000"/><path d="M2,17.5a.5.5,0,0,1-.5-.442l-2-17A.5.5,0,0,1-.058-.5.5.5,0,0,1,.5-.058l2,17a.5.5,0,0,1-.438.555A.505.505,0,0,1,2,17.5Z" transform="translate(280.615 183.98)" fill="#faf7f5" opacity="0.22"/><path d="M6,37.5a.5.5,0,0,1-.493-.42l-6-37A.5.5,0,0,1-.08-.494.5.5,0,0,1,.494-.08l6,37A.5.5,0,0,1,6,37.5Z" transform="translate(218.615 163.98)" fill="#faf7f5" opacity="0.22"/></g><g transform="translate(570.606 474.75)"><rect width="36" height="64.667" rx="5" transform="translate(81.291 267.332) rotate(-9)" fill="#6b553d"/><rect width="36" height="64.667" rx="5" transform="translate(188.183 256.162)" fill="#6b553d"/><path d="M1056.584,498.3a1.166,1.166,0,0,1-.552-.092l-73.76-18.98-74.5,18.98a2.188,2.188,0,0,1-2.665-1.608,2.154,2.154,0,0,1,1.608-2.665l75.047-19.118a2.239,2.239,0,0,1,1.1,0l74.312,19.118a2.232,2.232,0,0,1,1.609,2.665A2.29,2.29,0,0,1,1056.584,498.3Z" transform="translate(-817.564 -474.75)" fill="#0092d2"/><path d="M719.5,521.2V844.827l326.614-1.471V521.2Zm295.272,291.274H750.8V552.083h263.975Z" transform="translate(-718.294 -499.831)" fill="#fff"/><path d="M716.906,844.485a2.2,2.2,0,0,1-2.206-2.206V518.606a2.178,2.178,0,0,1,2.206-2.206H1043.52a2.207,2.207,0,0,1,2.206,2.206V840.763a2.207,2.207,0,0,1-2.206,2.206l-326.614,1.517Zm2.206-323.673V840.027l322.156-1.471V520.812Zm293.066,291.274H748.2A2.206,2.206,0,0,1,746,809.88V549.489a2.178,2.178,0,0,1,2.206-2.206h263.975a2.178,2.178,0,0,1,2.206,2.206V809.88A2.206,2.206,0,0,1,1012.178,812.085Zm-261.769-4.412h259.563V551.695H750.408Z" transform="translate(-714.7 -497.259)" fill="#0092d2"/><path d="M752.617,550.812l-31.2-33.41c-1.93-2.068-5.055,1.057-3.125,3.125q15.579,16.682,31.2,33.411C751.421,556.051,754.547,552.926,752.617,550.812Z" transform="translate(-716.311 -497.434)" fill="#0092d2"/><path d="M1388.677,520.752q-15.3,14.821-30.653,29.642c-2.022,1.976,1.057,5.1,3.125,3.125q15.3-14.821,30.653-29.642C1393.87,521.855,1390.745,518.776,1388.677,520.752Z" transform="translate(-1062.016 -499.268)" fill="#0092d2"/><path d="M0,27a2,2,0,0,1-2-2V0A2,2,0,0,1,0-2,2,2,0,0,1,2,0V25A2,2,0,0,1,0,27Z" transform="translate(281.527 315.5)" fill="#0092d2"/><path d="M0,46a1.99,1.99,0,0,1-1.072-.313,2,2,0,0,1-.614-2.761l28-44a2,2,0,0,1,2.761-.614,2,2,0,0,1,.614,2.761l-28,44A2,2,0,0,1,0,46Z" transform="translate(5.527 298.5)" fill="#0092d2"/></g></g></svg>