<svg xmlns="http://www.w3.org/2000/svg" width="500" height="343" viewBox="0 0 500 343"><g transform="translate(18698 20160)"><rect width="500" height="343" transform="translate(-18698 -20160)" fill="#faf7f5"/><g transform="translate(-19071.895 -20602.039)"><path d="M-18576.527-19902.352c-1.059.74-5.289,7.09-5.289,7.09l-4.445,15.238-1.588,19.574,6.033,20.318,11.955,12.17-.73-31.643-.855-37.139Z" transform="translate(19066.621 20598.82)" fill="#e7c1a0"/><path d="M513.869,631.638c.359-3.219,7.511-27.718,7.511-27.718l9.477-12.161,11.089-5.365L555,584.428l39.7,3.219h37.554l38.983-4.828,15.558,1.7,21.1,11.089,47.524,36.881,39.253,40.907,7.153,16.632-3.934,12.339-20.029,14.127L742.992,736.7l-1.072-10.908-5.365-12.517-9.121-9.477-5.187-4.293L748,684.482,682.549,636.2l.983,35.943-165.058-.983Z" transform="translate(2.697 4.308)" fill="#65c8ff"/><g transform="translate(513.549 468.591)"><g transform="translate(57.599 0)"><path d="M833.057,503.784c-12.881-41,22.442-36.352,43.323-33.264s30.177,16.234,30.177,34.028S833.057,503.784,833.057,503.784Z" transform="translate(-830.302 -468.591)" fill="#201000"/><path d="M930.176,542.008c-1.328-10.258-16.333-15.371-25.961-12.25-3.453,1.129-7.2-17.1-28.085-20.848-17.96-3.253-29.447.4-34.891,11.852-2.025,4.15-3.22,9.4-3.652,15.669-1.328,19.023-3.785,38.709,1.162,47.174,4.913,8.333,11.985,9.893,21.878,9.362l.266,20.417c-2.955,22.94,27.687,26.658,33.63,4.913a396.686,396.686,0,0,1,2.224-40.07c7.735-6.108,8.532-15.636,8.532-15.636C921.544,559.7,931.7,553.727,930.176,542.008Z" transform="translate(-833.969 -494.764)" fill="#e7c1a0"/><path d="M928.508,538.568c-.531-4.216-3.121-7.9-7.4-10.623a25.12,25.12,0,0,0-5.743-2.656,27.092,27.092,0,0,0-8.565-1.295,21.569,21.569,0,0,0-6.108.93,19.923,19.923,0,0,1-2.457-3.187c-3.619-5.245-10.325-15.005-25.1-17.661-18.923-3.419-30.907.73-36.617,12.715a37.1,37.1,0,0,0-3.054,9.926c-.332,1.959-.6,4.083-.764,6.308-.2,2.722-.4,5.445-.6,8.134-1.295,16.6-2.523,32.268,1.992,39.937,5.079,8.631,12.35,10.491,21.678,10.225L856,610.01a31.577,31.577,0,0,0-.2,3.486,17.175,17.175,0,0,0,.3,3.253,16.863,16.863,0,0,0,13.578,13.976,19.612,19.612,0,0,0,3.718.365c7.735,0,15.9-4.615,19.056-14.607.1-.332.2-.664.3-1.029a1.69,1.69,0,0,0,.066-.432V613.2c.166-18.292,1.76-34.128,2.125-37.447a25.551,25.551,0,0,0,8.432-15.105,66.108,66.108,0,0,0,11.055-2.955c9.528-3.619,14.242-9.1,14.242-16.6A22.489,22.489,0,0,0,928.508,538.568Zm-13.644,15.57a60.5,60.5,0,0,1-13.146,3.619,1.656,1.656,0,0,0-1.328,1.428c0,.1-.863,8.93-7.934,14.508a1.641,1.641,0,0,0-.6,1.062,396.262,396.262,0,0,0-2.224,40.037c-2.921,10.325-11.885,14.275-19.321,12.781-6.009-1.2-12.516-6.44-11.122-17.263v-.232l-.266-20.417a1.613,1.613,0,0,0-.5-1.129,1.683,1.683,0,0,0-1.1-.432h-.1c-9.2.5-15.835-.8-20.417-8.6-4.017-6.806-2.822-22.01-1.56-38.078.2-2.722.431-5.445.6-8.167a49.132,49.132,0,0,1,.7-5.776,34.081,34.081,0,0,1,2.822-9.3c5.079-10.657,15.636-14.142,33.165-10.955,13.445,2.423,19.454,11.121,23.04,16.333,2.092,3.021,3.585,5.212,5.843,4.482a19.5,19.5,0,0,1,5.478-.83,24.616,24.616,0,0,1,9.362,1.826,22.519,22.519,0,0,1,3.087,1.594,15.361,15.361,0,0,1,3.685,3.187,10.028,10.028,0,0,1,2.257,5.112C926.217,545.772,922.864,550.718,914.863,554.138Z" transform="translate(-830.707 -491.523)" fill="#201000"/><path d="M906.96,607.792a1.7,1.7,0,0,1-1.129-.465c-7.635-7.5-5.61-17.695.432-32.766a1.587,1.587,0,0,1,2.955,1.162c-6.474,16.1-6.772,23.77-1.162,29.314a1.614,1.614,0,0,1,.033,2.257A1.539,1.539,0,0,1,906.96,607.792Z" transform="translate(-877.448 -538.704)" fill="#201000"/><circle cx="2.125" cy="2.125" r="2.125" transform="translate(46.488 41.091) rotate(-12.838)" fill="#201000"/><circle cx="2.125" cy="2.125" r="2.125" transform="translate(13.694 38.105) rotate(-12.838)" fill="#201000"/><path d="M972.979,562.516a1.716,1.716,0,0,1,1.925-1.428l2.855.2a1.691,1.691,0,0,1,1.427,1.925,1.716,1.716,0,0,1-1.925,1.427l-2.855-.2A1.741,1.741,0,0,1,972.979,562.516Z" transform="translate(-925.607 -530.378)" fill="#201000"/><path d="M1048.917,610.61a1.245,1.245,0,0,1-.365-.033,1.556,1.556,0,0,1-1.162-1.926c.963-3.984,6.142-11.818,13.744-12.051a1.6,1.6,0,0,1,1.627,1.56,1.573,1.573,0,0,1-1.56,1.627c-5.544.133-9.959,6.341-10.756,9.594A1.5,1.5,0,0,1,1048.917,610.61Z" transform="translate(-975.285 -554.104)" fill="#201000"/><path d="M958.238,683.875a6.02,6.02,0,0,1-5.445,3.818c-1.992.066-1.992,3.154,0,3.087a9.305,9.305,0,0,0,8.432-6.075C961.957,682.813,958.969,682.016,958.238,683.875Z" transform="translate(-911.131 -611.7)" fill="#201000"/><path d="M879.378,544.742a1.59,1.59,0,0,0-1.892-1.1c-1.461.266-2.922.531-4.382.763a1.562,1.562,0,0,0-1.1,1.892,1.59,1.59,0,0,0,1.892,1.1c1.461-.266,2.921-.531,4.382-.763A1.5,1.5,0,0,0,879.378,544.742Z" transform="translate(-858.132 -518.712)" fill="#201000"/></g><g transform="translate(0 117.228)"><path d="M1234.689,1032.278a1.73,1.73,0,0,1-.963-.3l-62.744-46.444,2.39,40.933a1.6,1.6,0,1,1-3.187.2l-2.59-44.352a1.61,1.61,0,0,1,.83-1.494,1.571,1.571,0,0,1,1.693.133l65.467,48.469a1.593,1.593,0,0,1,.332,2.224A1.466,1.466,0,0,1,1234.689,1032.278Z" transform="translate(-998.02 -927.874)" fill="#201000"/><path d="M1118.646,860.382a1.632,1.632,0,0,1-1-.332c-32.866-25.994-46.477-36.717-66.927-34.991-21.313,1.826-40.966,4.482-41.166,4.515a1.624,1.624,0,0,1-1.793-1.361,1.6,1.6,0,0,1,1.361-1.793c.2-.033,19.919-2.689,41.3-4.515,21.711-1.892,36.584,9.893,69.185,35.655a1.586,1.586,0,0,1,.266,2.224A1.524,1.524,0,0,1,1118.646,860.382Z" transform="translate(-891.239 -821.709)" fill="#201000"/><path d="M658.393,957.5a1.573,1.573,0,0,1-1.593-1.593c0-.1.033-12.084,2.058-75.327.7-21.745,5.943-36.485,16.035-45.083,14.64-12.449,36.551-9.628,57.7-6.872,2.49.332,4.98.631,7.4.93a1.587,1.587,0,1,1-.365,3.154c-2.457-.3-4.947-.631-7.436-.93-20.483-2.656-41.664-5.411-55.242,6.142-9.362,7.968-14.275,21.944-14.939,42.759-2.025,63.176-2.058,75.094-2.058,75.227A1.546,1.546,0,0,1,658.393,957.5Z" transform="translate(-656.8 -824.746)" fill="#201000"/><path d="M771.15,981.023a1.611,1.611,0,0,1-1.594-1.427l-5.677-51.557a1.587,1.587,0,0,1,3.154-.365l5.677,51.557a1.6,1.6,0,0,1-1.394,1.76A1.438,1.438,0,0,1,771.15,981.023Z" transform="translate(-728.324 -891.557)" fill="#201000"/></g></g><g transform="translate(455.32 574.927)"><g transform="translate(0 49.266)"><path d="M817.984,1077H636.523L593.2,1107.94v83.526l43.323-30.941v-31.007l133.025,15.536Z" transform="translate(-556.085 -1030.622)" fill="#201000"/><path d="M524.724,937.3,481.4,968.207l37.115,46.411,43.323-30.941Z" transform="translate(-481.4 -937.3)" fill="#9f876d"/></g><g transform="translate(128.908 0)"><path d="M983.3,908.994c.033,0,.033.033.066.033a18.552,18.552,0,0,0,14.64-34.094c-.033,0-.033,0-.066-.033Z" transform="translate(-945.587 -846.35)" fill="#3d6b40"/><path d="M1064.763,788.9h-.066a18.808,18.808,0,0,0,6.507,37.049h.066Z" transform="translate(-989.57 -788.9)" fill="#3d6b40"/><path d="M869.7,971.2a18.518,18.518,0,0,0,34.991,0Z" transform="translate(-869.7 -910.68)" fill="#3d6b40"/><path d="M1091.443,933.511a18.541,18.541,0,0,0-28.451,20.417Z" transform="translate(-998.322 -883.249)" fill="#3d6b40"/><path d="M922.7,881.3a12.713,12.713,0,0,0,15.736,18.126Z" transform="translate(-903.978 -850.625)" fill="#3d6b40"/><path d="M982.162,968.8a1.564,1.564,0,0,1-1.494-1.062l-11.951-34.493a1.6,1.6,0,1,1,3.021-1.029l11.951,34.493a1.6,1.6,0,0,1-1,2.025A2.581,2.581,0,0,1,982.162,968.8Z" transform="translate(-935.785 -883.91)" fill="#3d6b40"/><path d="M1051.272,999.29a1.615,1.615,0,0,1-.4-.033,1.581,1.581,0,0,1-1.162-1.925l4.648-18.558a1.59,1.59,0,1,1,3.087.764L1052.8,998.1A1.558,1.558,0,0,1,1051.272,999.29Z" transform="translate(-989.922 -914.934)" fill="#3d6b40"/><path d="M971.856,1098.452H911.535L903.8,1021.1h74.264Z" transform="translate(-892.48 -944.014)" fill="#595959"/><path d="M975.9,1058.387H903.694a1.573,1.573,0,0,1-1.594-1.594,1.594,1.594,0,0,1,1.594-1.594h72.172a1.594,1.594,0,0,1,.033,3.187Z" transform="translate(-891.344 -966.794)" fill="#fff"/></g><g transform="translate(56.815 54.409)"><rect width="29.911" height="98.997" transform="translate(0 5.89) rotate(-11.356)" fill="#f99"/><rect width="12.018" height="39.738" transform="translate(10.47 22.34) rotate(-11.356)" fill="#fff"/><rect width="18.558" height="98.997" transform="translate(26.078 4.84) rotate(-11.356)" fill="#99ffb6"/></g><g transform="translate(37.115 28.617)"><rect width="182.494" height="83.526" transform="translate(0 97.967)" fill="#9f876d"/><path d="M1139.9,1191.467l43.29-30.941V1077l-43.29,30.941Z" transform="translate(-958.406 -1009.973)" fill="#9f876d"/><path d="M1169.811,906.041,1213.1,875.1l-29.911,67.027-43.29,30.941Z" transform="translate(-958.406 -875.1)" fill="#9f876d"/><path d="M1136.716,1100.151a1.575,1.575,0,0,1-1.295-.664,1.62,1.62,0,0,1,.365-2.224l43.323-30.941a1.594,1.594,0,1,1,1.859,2.589l-43.323,30.941A1.627,1.627,0,0,1,1136.716,1100.151Z" transform="translate(-955.222 -1002.648)" fill="#fff"/></g></g><g transform="translate(478.04 697.805)"><path d="M623.9,1265.295c-.066-.465-.133-.93-.2-1.427a4,4,0,0,1,.465-2.058,4.148,4.148,0,0,1,1.1-1.726,3.843,3.843,0,0,1,1.726-1.1c.133-.066.3-.133.432-.2a11.635,11.635,0,0,1,.3-1.826l.2-.6a6.68,6.68,0,0,1-.432-3.121,4.6,4.6,0,0,1,.564-1.56,24.015,24.015,0,0,1,.7-3.419,6,6,0,0,1-.6-2.291,4.627,4.627,0,0,1,.465-2.224,52.45,52.45,0,0,0-2.523-5.511c-1-.564-1.959-1.162-2.921-1.793-2.158-.6-4.316-1.195-6.374-1.925a59.183,59.183,0,0,1-6.507-2.623,43.361,43.361,0,0,1-9.129-5.212c-1.461-1.1-3.32-2.623-3.32-4.648.033-2.324,2.39-3.253,4.316-3.552a1.722,1.722,0,0,1,.83.033c.066,0,.1-.033.133-.033a2.256,2.256,0,0,1,1.627.365,15.414,15.414,0,0,1,1.76-.033,1.834,1.834,0,0,1,2.39.166h0a21.685,21.685,0,0,1,4.581,1,2.02,2.02,0,0,1,1,.8,1.809,1.809,0,0,1,1.925-.1c2.423,1.228,5.81.963,8.8.564.3-1.261.73-2.523,1.1-3.784a43.622,43.622,0,0,0-5.079-5.146c-6.573-1.925-13.279-3.453-19.952-5.079A57.164,57.164,0,0,1,592,1206.8v51.988a26.818,26.818,0,0,0,11.453,7.8,4.92,4.92,0,0,1,.7-.033q9.711.3,19.354,1a4.315,4.315,0,0,1,.531-1.826A1.643,1.643,0,0,1,623.9,1265.295Z" transform="translate(-578.004 -1190.943)" fill="#e7c1a0"/><path d="M621.049,1243.328a11.565,11.565,0,0,1-3.154-.5c-17.23-3.054-25.928-5.444-26.027-5.478a1.514,1.514,0,0,1,.8-2.921c.1.033,8.7,2.423,25.828,5.444a.849.849,0,0,1,.232.066c1.162.365,3.087.6,3.718.033.3-.3.365-1.029.133-2.025-.4-1.826-8.3-4.781-13.545-6.706-8.565-3.187-16.632-6.175-18.126-10.424a4.381,4.381,0,0,1,.4-3.785c3.253-5.544,12.449-3.751,19.819-2.324,2.789.531,6.938,1.361,8,.929-.033-3.95-2.523-6.673-32.866-10.69a1.48,1.48,0,0,1-1.295-1.693,1.5,1.5,0,0,1,1.693-1.295c30.609,4.083,35.489,6.905,35.489,13.81a2.7,2.7,0,0,1-1,2.191c-1.726,1.427-4.98.863-10.623-.232-6.108-1.2-14.474-2.822-16.632.863a1.336,1.336,0,0,0-.166,1.229c1.029,2.888,9.528,6.075,16.333,8.6,9.1,3.386,14.707,5.644,15.437,8.9.5,2.191.133,3.851-1.062,4.947A5.1,5.1,0,0,1,621.049,1243.328Z" transform="translate(-573.29 -1187.699)" fill="#201000"/><path d="M625.458,1328.853a49.551,49.551,0,0,1-9.959-1.262c-7.9-1.693-12.184-2.622-14.508-3.154-1.062-.232-1.859-.431-2.457-.6h-.066c-1.261-.4-1.494-.764-1.295-1.793a1.56,1.56,0,0,1,1.793-1.195c.133.033.232.066.332.1.73.166,3.785.9,16.8,3.685,9.727,2.092,14.076,1.1,14.84-.4.432-.83-.2-2.324-1.494-3.486a1.527,1.527,0,1,1,2.058-2.257c1.959,1.793,3.386,4.681,2.125,7.1C632.562,1327.791,629.807,1328.853,625.458,1328.853Z" transform="translate(-581.418 -1265.291)" fill="#201000"/><path d="M622.591,1353.556a49.794,49.794,0,0,1-10.125-1.295c-7.9-1.693-12.184-2.623-14.508-3.154-1.062-.232-1.892-.432-2.457-.6h-.033c-1.262-.4-1.494-.763-1.295-1.793a1.56,1.56,0,0,1,1.793-1.2c.133.033.232.066.365.1.73.166,3.784.9,16.8,3.685,12.516,2.689,14.541.266,14.839-.266.432-.8-.2-2.357-1.527-3.685a1.526,1.526,0,0,1,2.158-2.158c2.39,2.39,3.187,5.179,2.058,7.27C629.5,1352.56,626.807,1353.556,622.591,1353.556Z" transform="translate(-579.414 -1281.76)" fill="#201000"/><path d="M590,1237.171a71.9,71.9,0,0,1-10.823-1.1l-.531-.1a30.564,30.564,0,0,1-22.375-14.275c-10.59-16.865-6.64-50.594,1.394-62.014a1.524,1.524,0,1,1,2.49,1.76c-7.569,10.789-11.022,43.224-1.295,58.661a27.41,27.41,0,0,0,20.284,12.881l.531.1c13.578,2.258,14.84.3,14.873.2.066-.1,0-.763-1.228-2.158a1.529,1.529,0,1,1,2.291-2.025c1.926,2.158,2.457,4.05,1.594,5.643C596.57,1235.976,595.043,1237.171,590,1237.171Z" transform="translate(-549.84 -1159.034)" fill="#201000"/></g><g transform="translate(645.915 621.303)"><path d="M1160.6,1214.191c-2.092-8.233-12.947-36.186-24.268-30.443a1.4,1.4,0,0,0-.564.7c-16.3,6.606-31.671,10.823-49.266,11.951a1.572,1.572,0,0,0-1.494,1.959c.5,2.092-.2,2.955,1.826,3.785,2.921,1.228,5.577-.7,8.134-.631a2.981,2.981,0,0,1,1.2-.266,12.4,12.4,0,0,1,3.32.166,4.766,4.766,0,0,1,2.921,6.441,5.116,5.116,0,0,1-1.992,1.76,18.114,18.114,0,0,1-3.95,1.2c-.1.033-.166,0-.266.033h0c-6.075,1.56-11.984,3.585-18.06,5.146a1.668,1.668,0,0,1-.4.066c-5.046,2.125-10.092,4.216-15.138,6.341,0,.266-.033.5-.033.763-.033,1.029-.066,2.058-.066,3.121,7.138,3.884,14.076.564,20.981-.7,2.357-1.129,4.714-2.224,7.071-3.386,2.291-1.129,4.283,2.291,1.992,3.419-4.283,2.125-8.631,4.083-12.881,6.175-.863.432-1.826,1.527-2.39,1.029-2.523,1.494-6.407,2.291-7.9,4.913-4.382,7.8.564,6.241,3.187,5.776.564,2.755,2.224,5.61,5.046,6.208-.3,3.685,3.287,5.245,7.3,4.714a12.073,12.073,0,0,0,1.494-.332,1.444,1.444,0,0,0,1.594.1l72.836-37.646C1161.464,1216.249,1160.766,1214.822,1160.6,1214.191Z" transform="translate(-1060.181 -1098.526)" fill="#e7c1a0"/><path d="M1067.2,1195.225a6.951,6.951,0,0,1-3.287-.73,5.025,5.025,0,0,1-2.556-3.884c-.5-3.154,4.714-5.942,17.6-12.084,1.992-.929,4.249-2.025,6.341-3.054-2.556.664-5.544,1.494-8.764,2.49-4.681,1.427-16,4.382-19.786.432-.9-.963-1.793-2.689-.764-5.577,1.029-2.855,6.938-4.581,18.193-7.636,9.163-2.457,21.678-5.843,23.5-9.461a1.3,1.3,0,0,0,.066-1.162c-.963-2.457-4.681-1.826-9.893-.664-3.785.863-7.071,1.594-9.03.033a3.731,3.731,0,0,1-1.328-3.054c0-6.606,5.943-7.437,21.778-9.594,5.079-.7,11.387-1.56,18.99-2.789,7.536-1.228,38.742-21.811,50.129-29.646a1.6,1.6,0,0,1,1.826,2.623c-1.693,1.162-41.664,28.583-51.424,30.177-7.636,1.228-13.976,2.091-19.056,2.789-15.105,2.058-19.022,2.755-19.022,6.441,0,.232.033.5.133.564.73.6,4.116-.166,6.341-.664,5.146-1.162,11.519-2.589,13.545,2.623a4.385,4.385,0,0,1-.2,3.751c-2.457,4.88-14.176,8.034-25.529,11.088-6.407,1.726-15.172,4.083-16.034,5.644-.564,1.594-.1,2.125.066,2.258,1.361,1.427,7.1,1.627,16.533-1.262,10.026-3.087,17.861-4.648,17.927-4.681a1.643,1.643,0,0,1,1.527.531,1.687,1.687,0,0,1,.266,1.627c-.863,2.125-5.013,4.283-15.005,9.03-5.577,2.656-14.806,7.038-15.8,8.864a1.728,1.728,0,0,0,.9,1.394c2.756,1.494,10.458-1.959,15.072-4.017l.73-.332a145.224,145.224,0,0,0,14.873-8.034,1.594,1.594,0,1,1,1.66,2.722,156.355,156.355,0,0,1-15.271,8.233l-.73.332C1077.056,1192.735,1071.412,1195.225,1067.2,1195.225Z" transform="translate(-1055.516 -1048.819)" fill="#201000"/><path d="M1094.589,1358.373a8.952,8.952,0,0,1-4.017-.83,6.487,6.487,0,0,1-3.552-4.714,1.6,1.6,0,0,1,3.12-.664,3.318,3.318,0,0,0,1.826,2.49c1.527.73,5.444,1.295,14.474-3.22,10.623-5.312,15.338-8.034,15.371-8.067a1.6,1.6,0,0,1,1.627,2.756c-.2.1-4.814,2.789-15.57,8.167C1102.457,1357.011,1098.008,1358.373,1094.589,1358.373Z" transform="translate(-1076.534 -1205.526)" fill="#201000"/><path d="M1109.688,1086.85a8.951,8.951,0,0,1-4.017-.83,6.487,6.487,0,0,1-3.552-4.714,1.6,1.6,0,0,1,3.121-.664,3.318,3.318,0,0,0,1.826,2.49c1.527.73,5.444,1.295,14.474-3.22,10.623-5.312,15.338-8.034,15.371-8.067,7.6-4.316,16.831-9,26.558-13.91,17.23-8.7,36.75-18.558,55.74-30.642,1.129-.7,2.224-1.394,3.32-2.091,11.055-6.938,19.786-12.449,20.384-21.28.9-13.578-18.292-35.954-62.279-72.5a1.6,1.6,0,1,1,2.058-2.457c46.046,38.31,64.4,60.089,63.408,75.193-.7,10.457-10.491,16.632-21.844,23.77-1.1.7-2.191,1.361-3.287,2.091-19.122,12.184-38.709,22.077-56.005,30.808-9.727,4.913-18.89,9.528-26.426,13.81-.166.1-4.781,2.789-15.537,8.167C1117.556,1085.489,1113.108,1086.85,1109.688,1086.85Z" transform="translate(-1086.621 -928.592)" fill="#201000"/><path d="M1312.451,1212.447a5.317,5.317,0,0,1,.9-.4c.8-.266,1.56-.564,2.324-.863-.033-12.051-9.129-28.119-20.384-35.489a1.584,1.584,0,0,0-1.726,2.656C1304.417,1185.49,1313.115,1201.259,1312.451,1212.447Z" transform="translate(-1214.057 -1093.496)" fill="#201000"/></g><g transform="translate(442.359 536.11)"><path d="M1272.5,687.087c-3.452-4.814-6.872-9.627-10.324-14.441-1.162-1.594-3.818-.066-2.656,1.56,3.453,4.814,6.872,9.627,10.325,14.441C1270.974,690.24,1273.663,688.713,1272.5,687.087Z" transform="translate(-988.047 -671.972)" fill="#0092d2"/><path d="M606.7,734.195c-2.755,3.087-5.511,6.175-8.233,9.3-1.328,1.494.863,3.685,2.191,2.191l8.233-9.3C610.223,734.892,608.032,732.7,606.7,734.195Z" transform="translate(-546.369 -713.204)" fill="#0092d2"/><path d="M622.127,765.3l-8.233,8.233a1.551,1.551,0,0,0,2.191,2.191l8.233-8.233C625.745,766.1,623.554,763.907,622.127,765.3Z" transform="translate(-556.646 -734.02)" fill="#0092d2"/><path d="M740.053,1326.9a47.05,47.05,0,0,0-44.353,31.5h3.386a43.791,43.791,0,0,1,81.933,0h3.386A47.05,47.05,0,0,0,740.053,1326.9Z" transform="translate(-611.595 -1109.477)" fill="#fff"/><path d="M1388.269,718.1a7.768,7.768,0,1,0,7.768,7.768A7.779,7.779,0,0,0,1388.269,718.1Zm0,12.383a4.581,4.581,0,1,1,4.581-4.581A4.591,4.591,0,0,1,1388.269,730.483Z" transform="translate(-1069.055 -702.786)" fill="#0092d2"/><path d="M454.988,1107.361c-4.117,6.54-8.266,13.047-12.383,19.587-1.062,1.693,1.594,3.253,2.656,1.56,4.117-6.54,8.266-13.047,12.383-19.587C458.739,1107.228,456.05,1105.7,454.988,1107.361Z" transform="translate(-442.359 -962.343)" fill="#0092d2"/></g></g></g></svg>