<svg xmlns="http://www.w3.org/2000/svg" width="42.442" height="24.168" viewBox="0 0 42.442 24.168"><path d="M291.488,457.269l-3.337,5.9L260.3,446.7C276.47,452.137,276.47,452.383,291.488,457.269Z" transform="translate(-259.671 -439.004)" fill="#0092d2"/><path d="M301.48,392.7l-41.18,7.071,34.908,11.758Z" transform="translate(-259.671 -392.075)" fill="#fff"/><path d="M291.032,408.007a.526.526,0,0,1-.2-.039L255.927,396.2a.629.629,0,0,1,.092-1.218l41.18-7.044a.626.626,0,0,1,.707.812l-6.285,18.829a.667.667,0,0,1-.314.367A.532.532,0,0,1,291.032,408.007Zm-32.355-12.19,31.949,10.776,5.748-17.231Z" transform="translate(-255.495 -387.924)" fill="#0092d2"/><path d="M294.48,444.131h-.013l-38.352-1.074a.646.646,0,0,1-.615-.642.666.666,0,0,1,.642-.615l38.352,1.074a.646.646,0,0,1,.615.642A.626.626,0,0,1,294.48,444.131Z" transform="translate(-255.499 -434.746)" fill="#0092d2"/></svg>