<svg xmlns="http://www.w3.org/2000/svg" width="262" height="262" viewBox="0 0 262 262"><g transform="translate(18719 16945)"><rect width="262" height="262" rx="5" transform="translate(-18719 -16945)" fill="#edf5f7"/><path d="M5,1A4,4,0,0,0,1,5V257a4,4,0,0,0,4,4H257a4,4,0,0,0,4-4V5a4,4,0,0,0-4-4H5M5,0H257a5,5,0,0,1,5,5V257a5,5,0,0,1-5,5H5a5,5,0,0,1-5-5V5A5,5,0,0,1,5,0Z" transform="translate(-18719 -16945)" fill="#8acce8"/><g transform="translate(-18949.494 -17308.217)"><path d="M77.115,75.76l-3.367,26.773,5.893,7.24,6.9,3.367,90.193,147.9H251.5L193.8,182.6,129.816,83.758,100.855,71.3l-9.85-1.432Z" transform="translate(230.494 363.217)" fill="#c69870"/><g transform="translate(317 416.512)"><path d="M577.579,469.3a1.674,1.674,0,0,1-.734-.154,78.846,78.846,0,0,0-10.237-3.554,1.86,1.86,0,1,1,.966-3.592,79.267,79.267,0,0,1,10.777,3.708,1.842,1.842,0,0,1,.966,2.434A1.959,1.959,0,0,1,577.579,469.3Z" transform="translate(-507.086 -461.928)" fill="#0092d2"/><path d="M465.2,693.262h-.116a1.859,1.859,0,0,1-1.738-1.97c.232-4.133.27-4.3.27-8.046,0-3.361-.077-6.605-.27-9.7a1.882,1.882,0,0,1,1.738-1.97,1.94,1.94,0,0,1,1.97,1.738c.193,3.168.309,6.528.309,9.928,0,3.824-.039,4.067-.27,8.278A1.924,1.924,0,0,1,465.2,693.262Zm-21.555-33.271h-.116c-8.073-.425-14.988-2.588-20.049-6.258-.464-.348-.927-.7-1.352-1.043a1.867,1.867,0,1,1,2.356-2.9c.386.309.773.618,1.2.927,4.442,3.245,10.7,5.176,18.04,5.563a1.836,1.836,0,0,1,1.738,1.97A1.774,1.774,0,0,1,443.642,659.991Zm21.594-2.472a1.813,1.813,0,0,1-1.777-1.391,1.874,1.874,0,0,1,1.313-2.279,94.579,94.579,0,0,0,19.855-7.8,1.858,1.858,0,1,1,1.738,3.283,96.439,96.439,0,0,1-20.667,8.112A.98.98,0,0,1,465.236,657.519Zm-3.477-3.708a1.854,1.854,0,0,1-1.777-1.352c-2.163-7.533-5.331-13.791-9.426-18.581a1.862,1.862,0,0,1,2.82-2.434,52.657,52.657,0,0,1,10.159,19.971,1.851,1.851,0,0,1-1.275,2.279A1.069,1.069,0,0,1,461.759,653.81Zm41.719-16.495a1.777,1.777,0,0,1-1.391-.657,1.884,1.884,0,0,1,.193-2.627,89.3,89.3,0,0,0,14.447-15.683,1.855,1.855,0,1,1,3.013,2.163,90.739,90.739,0,0,1-15.027,16.3A1.658,1.658,0,0,1,503.479,637.316Zm-86.877-3.4a2.142,2.142,0,0,1-.657-.116,1.878,1.878,0,0,1-1.12-2.395,18.362,18.362,0,0,1,19.2-11.821,1.864,1.864,0,0,1-.386,3.708,14.824,14.824,0,0,0-15.3,9.425A1.875,1.875,0,0,1,416.6,633.917Zm111.986-31.676a1.8,1.8,0,0,1-.657-.116,1.873,1.873,0,0,1-1.082-2.4,84.432,84.432,0,0,0,4.442-16.417c.232-1.429.425-2.859.618-4.249a1.869,1.869,0,0,1,3.708.464c-.193,1.429-.386,2.9-.657,4.4a86.5,86.5,0,0,1-4.635,17.151A1.939,1.939,0,0,1,528.588,602.241Zm5.717-42.878a1.853,1.853,0,0,1-1.854-1.7,79.423,79.423,0,0,0-4.558-20.744,1.858,1.858,0,0,1,3.477-1.313,84.938,84.938,0,0,1,4.79,21.71,1.86,1.86,0,0,1-1.7,2.009A.232.232,0,0,1,534.3,559.362Zm-15.065-40.29a1.83,1.83,0,0,1-1.468-.734,77.918,77.918,0,0,0-14.949-15.1,1.847,1.847,0,0,1,2.241-2.936,81.847,81.847,0,0,1,15.645,15.8,1.819,1.819,0,0,1-.386,2.588A1.619,1.619,0,0,1,519.239,519.072Z" transform="translate(-414.715 -485.244)" fill="#0092d2"/></g><g transform="translate(302.421 430.43)"><g transform="translate(0)"><path d="M500.236,761.074s-2.487-1.636-17.745-26.784l-5.833-9.657c-14.177-23.293-31.83-52.3-66.056-110.981a1.862,1.862,0,0,1,3.206-1.893c34.225,58.678,51.84,87.649,66.017,110.943l5.833,9.619c15.49,25.5,17.219,26.668,18.107,27.595.309.309-1.191,1.159-1.191,1.159Z" transform="translate(-397.458 -567.243)" fill="#201000"/><path d="M402.042,544.672a6.837,6.837,0,0,1-.888-.039c-7.3-.618-16.379-9.541-18.387-22.83a1.858,1.858,0,1,1,3.67-.579c1.661,11.164,9.116,19.2,15.027,19.7,3.786.348,5.563-2.627,6.412-5.176a1.857,1.857,0,0,1,3.515,1.2C409.729,541.891,406.368,544.672,402.042,544.672Z" transform="translate(-380.515 -511.281)" fill="#201000"/><path d="M396.567,559.421c-4.945,0-10.507-2.936-14.1-7.61a16.924,16.924,0,0,1-2.009-17.847,1.867,1.867,0,1,1,3.4,1.545,13.339,13.339,0,0,0,1.584,14.061c3.206,4.172,8.46,6.721,12.439,6.065a5.9,5.9,0,0,0,4.79-4.326,1.857,1.857,0,0,1,3.515,1.2,9.561,9.561,0,0,1-7.687,6.8A15.721,15.721,0,0,1,396.567,559.421Z" transform="translate(-378.092 -519.386)" fill="#201000"/><path d="M391.547,585.74c-4.017,0-8.383-2.279-11.357-5.988-3.283-4.095-4.095-8.962-2.24-13.366a1.862,1.862,0,1,1,3.438,1.429c-1.313,3.09-.7,6.606,1.7,9.619,2.55,3.206,6.49,5.06,9.541,4.481,2.241-.386,3.824-2.009,4.751-4.751a1.857,1.857,0,0,1,3.515,1.2c-1.352,4.017-4.056,6.606-7.61,7.224A8.819,8.819,0,0,1,391.547,585.74Z" transform="translate(-376.974 -539.254)" fill="#201000"/><path d="M586.975,691.441c-28.006-32.1-79.821-108.675-101.8-144.716-7.842-12.863-13.52-22.134-15.838-25.418-7.262-10.2-25.611-19.971-33.53-19.585-.7.039-1.893.193-2.279.85-1.275,2.24,4.326,6.142,9.271,9.58,4.867,3.4,9.889,6.876,12.091,10.855a1.851,1.851,0,0,1-.734,2.511,1.818,1.818,0,0,1-2.511-.734,14.339,14.339,0,0,0-3.09-3.631,74.865,74.865,0,0,0-7.88-5.949c-6.8-4.751-13.211-9.194-10.43-14.331.039-.039.039-.116.077-.155.657-1.159,2.125-2.588,5.331-2.743,9.078-.464,28.586,9.7,36.736,21.13,2.434,3.4,8.112,12.709,15.992,25.65C510.321,580.681,562.02,657.1,589.833,688.969,590.277,691.063,589.242,692.875,586.975,691.441Z" transform="translate(-409.257 -497.96)" fill="#201000"/></g></g><g transform="translate(255.495 387.924)"><path d="M344.627,489.771l-2.163,5.524L260.3,446.7l66.017,22.791c-2.743,5.138,3.67,9.58,10.43,14.331A74.862,74.862,0,0,1,344.627,489.771Z" transform="translate(-258.444 -423.995)" fill="#0092d2"/><path d="M381.788,392.7,260.3,413.56l102.985,34.689Z" transform="translate(-258.444 -390.855)" fill="#fff"/><path d="M360.336,447.172a1.55,1.55,0,0,1-.579-.116L256.771,412.328a1.855,1.855,0,0,1,.27-3.592L378.53,387.953a1.846,1.846,0,0,1,2.086,2.4L362.074,445.9a1.966,1.966,0,0,1-.927,1.082A1.568,1.568,0,0,1,360.336,447.172Zm-95.452-35.964L359.139,443,376.1,392.164Z" transform="translate(-255.495 -387.924)" fill="#0092d2"/><path d="M370.5,448.676h-.039l-113.145-3.168a1.907,1.907,0,0,1-1.816-1.893,1.965,1.965,0,0,1,1.893-1.816l113.145,3.168a1.907,1.907,0,0,1,1.816,1.893A1.846,1.846,0,0,1,370.5,448.676Z" transform="translate(-255.498 -420.988)" fill="#0092d2"/></g></g></g></svg>