<svg xmlns="http://www.w3.org/2000/svg" width="272.799" height="338.89" viewBox="0 0 272.799 338.89"><g transform="translate(-407.294 -424.416)"><g transform="translate(407.294 441.244)"><path d="M883.793,858.73l-11.032-28.979-.4-1.021-37.047-97.475a92.93,92.93,0,1,0-104.193,0L691.412,835.777h0l-.231.593-7.311,19.2L673.3,883.362H893.178Z" transform="translate(-673.3 -561.3)" fill="#edf5f7"/><path d="M883.793,824.066l-11.032-28.979-.4-1.021L841.5,712.861l-16.824-.736-30.453,4.57c-5.722-2.355-19.183-3.162-31.277-2.212H724.328l-32.916,86.63h0l-.231.593-7.311,19.2L673.3,848.7H893.178Z" transform="translate(-673.3 -526.636)" fill="#0092d2"/><g transform="translate(0 294.235)"><path d="M893.178,1482.625H673.3l10.571-27.794h52.294l.4.79a8.847,8.847,0,0,1,1.614,2.207,1.9,1.9,0,0,1,1.646,1.251c1.251,3.194,2.536,6.356,3.524,9.649,1.383,1.219,3.293,1.91,6.487,2.141,1.68.132,1.218-3,2.766-3.359,2.667-.659,4.018,1.712,8.1-3.359a8.613,8.613,0,0,0,.856.1c3.129.263,4.973-1.087,5.071-3.952v-.033a14.265,14.265,0,0,0-1.251-5.434h8.331a18.146,18.146,0,0,0,2.9,2.668h0a2.147,2.147,0,0,0,1.383.428c1.68-.231,1.762-1.185,1.631-3.1h41.344c-2.042,4.808-2.173,5.566.132,6.916,1.416.823,3.227.033,5.071-1.647a26.438,26.438,0,0,0,4.248-5.269s10.11.165,21.207.231c9.451.066,19.594.1,24.8-.033a27.082,27.082,0,0,0,3.392-.23c.329-.066.659,5.368.955,5.368a23.034,23.034,0,0,1,2.964-2.206Z" transform="translate(-673.3 -1454.799)" fill="#201000"/><path d="M791.2,1510.5H779.081a1.582,1.582,0,0,0,0,3.161H791.2A1.582,1.582,0,0,0,791.2,1510.5Z" transform="translate(-743.22 -1492.157)" fill="#fff"/><path d="M839.785,1488.1h-7.9a1.581,1.581,0,0,0,0,3.161h7.9A1.581,1.581,0,0,0,839.785,1488.1Z" transform="translate(-778.632 -1477.134)" fill="#fff"/><path d="M902.069,1504.1H884.681a1.581,1.581,0,0,0,0,3.161h17.387A1.581,1.581,0,0,0,902.069,1504.1Z" transform="translate(-814.045 -1487.865)" fill="#fff"/><path d="M1230.265,1486.5h-9.484a1.582,1.582,0,0,0,0,3.161h9.484A1.582,1.582,0,0,0,1230.265,1486.5Z" transform="translate(-1039.465 -1476.061)" fill="#fff"/><path d="M1112.919,1478.5h-10.538a1.581,1.581,0,0,0,0,3.161h10.538A1.581,1.581,0,0,0,1112.919,1478.5Z" transform="translate(-960.055 -1470.695)" fill="#fff"/><path d="M1155.046,1521.7h-11.065a1.581,1.581,0,0,0,0,3.161h11.065A1.581,1.581,0,0,0,1155.046,1521.7Z" transform="translate(-987.956 -1499.669)" fill="#fff"/></g><g transform="translate(9.374 67.162)"><g transform="translate(40.971)"><path d="M952.023,793.258c3.952-11.065,7.64-42.415-32.667-20.285s-34.511,73.271-10.011,79.593S952.023,793.258,952.023,793.258Z" transform="translate(-868.998 -765.25)" fill="#201000"/><path d="M926.393,880.04c-2.733,8.595-11.065,12.25-20.154,13.831l-4.281,28.32L890.5,951.038,868.93,919.326s3.392-25.62,3.721-32.173c-8.3-3.952-13.436-18.178-13.436-18.178-15.412.79-30.823-6.323-27.662-22.129,2.239-11.2,13.238-12.481,21.273-10.6a17.851,17.851,0,0,1,7.574,3.491s-1.581-12.02,16.6-19.758c15.642-6.685,26.806-5.73,34.149,3.524,2.7,3.359,4.841,7.87,6.553,13.469C922.837,853.959,929.16,871.346,926.393,880.04Z" transform="translate(-829.505 -799.047)" fill="#e7c1a0"/><path d="M924.32,862.869c-1.317-6.685-3.721-14.424-6.191-22.393-.757-2.4-1.515-4.841-2.239-7.278a43.621,43.621,0,0,0-5.763-12.547c-.362-.494-.725-.988-1.087-1.449a23.891,23.891,0,0,0-2.272-2.5h0c-7.673-7.41-18.771-7.87-33.721-1.482-.889.362-1.712.757-2.536,1.152a37.639,37.639,0,0,0-7.475,4.808h0a3.267,3.267,0,0,0-.362.329c-5.038,4.478-6.619,9.089-7.08,12.02a23.337,23.337,0,0,0-4.742-1.844,9.839,9.839,0,0,0-1.054-.263c-3.03-.725-10.7-1.943-16.762,1.943a14.626,14.626,0,0,0-6.421,9.879c-1.186,5.993.066,11.328,3.622,15.477a21.749,21.749,0,0,0,6.191,4.841,31.8,31.8,0,0,0,9.286,3.128,37.22,37.22,0,0,0,4.446.56c1.482.1,3.03.132,4.61.1,1.153,2.832,4.512,10.373,9.682,15.115h0a17.09,17.09,0,0,0,3.194,2.371c-.23,2.931-.79,8.068-1.416,13.37-.626,5.2-1.284,10.505-1.745,13.93-.132.922-.231,1.712-.3,2.305-.132.889-.2,1.416-.2,1.449a1.4,1.4,0,0,0,.263,1.087l.428.659,21.142,31.054a1.608,1.608,0,0,0,1.317.692h.165a1.5,1.5,0,0,0,1.284-.988l11.131-28.057.329-.79c.033-.1.066-.231.1-.362l.329-2.239.56-3.655,3.227-21.306c11.163-2.173,17.815-6.981,20.285-14.72h0C925.769,873.572,925.44,868.632,924.32,862.869ZM921.587,876.3c-2.141,6.751-8.331,10.9-18.935,12.744a1.612,1.612,0,0,0-1.284,1.317l-3.523,23.381-.725,4.742-10.307,25.917-19.561-28.748c.066-.593.2-1.614.362-2.9.461-3.622,1.218-9.517,1.877-15.148.659-5.664,1.252-11.1,1.383-13.666a1.28,1.28,0,0,0-.066-.494,1.589,1.589,0,0,0-.856-.988c-7.607-3.622-12.579-17.157-12.645-17.289a1.6,1.6,0,0,0-1.581-1.054,38.194,38.194,0,0,1-6.751-.2c-.724-.066-1.416-.165-2.108-.3a30.707,30.707,0,0,1-8.661-2.733,17.712,17.712,0,0,1-5.6-4.248c-2.964-3.425-3.919-7.739-2.931-12.777a11.473,11.473,0,0,1,5.038-7.837c3.491-2.239,8.858-2.8,14.325-1.515a5.282,5.282,0,0,0,.692.165,16.188,16.188,0,0,1,6.191,2.931.589.589,0,0,0,.231.165,1.151,1.151,0,0,0,.461.2,1.555,1.555,0,0,0,1.087-.132,1.6,1.6,0,0,0,.856-1.581c-.033-.428-1.021-10.307,14.061-17.387.527-.264,1.054-.494,1.614-.724,15.247-6.487,25.488-5.532,32.3,3.063a25.752,25.752,0,0,1,2.338,3.491,46.12,46.12,0,0,1,3.952,9.451c.724,2.437,1.482,4.874,2.239,7.278C919.381,855.13,923.793,869.324,921.587,876.3Z" transform="translate(-826.18 -795.773)" fill="#201000"/><path d="M1043.888,893.536a1.5,1.5,0,0,1-.659-.165,1.59,1.59,0,0,1-.758-2.108c3.129-6.586.4-13.172-10.406-25.159a1.585,1.585,0,0,1,2.338-2.141c10.176,11.262,15.214,19.561,10.933,28.617A1.557,1.557,0,0,1,1043.888,893.536Z" transform="translate(-963.992 -831.116)" fill="#201000"/><circle cx="1.976" cy="1.976" r="1.976" transform="translate(48.941 39.896)" fill="#201000"/><circle cx="1.976" cy="1.976" r="1.976" transform="translate(78.316 33.573)" fill="#201000"/><path d="M5.774,1.352A1.658,1.658,0,0,0,4,0C3.106.067,2.217.133,1.361.2A1.611,1.611,0,0,0,.011,1.977a1.658,1.658,0,0,0,1.778,1.35c.889-.066,1.778-.132,2.634-.2A1.529,1.529,0,0,0,5.774,1.352Z" transform="matrix(0.883, -0.469, 0.469, 0.883, 46.052, 35.323)" fill="#201000"/><path d="M1049.657,831.2h-1.976a1.581,1.581,0,0,0,0,3.161h1.976A1.581,1.581,0,0,0,1049.657,831.2Z" transform="translate(-970.353 -804.563)" fill="#201000"/><path d="M879.743,918.688a1.557,1.557,0,0,1-1.416-.889c-1.251-2.536-7.8-8.1-12.909-7.047a1.6,1.6,0,1,1-.626-3.128c6.652-1.35,14.49,5.005,16.367,8.76a1.565,1.565,0,0,1-.692,2.108A1.273,1.273,0,0,1,879.743,918.688Z" transform="translate(-851.219 -860.614)" fill="#201000"/><path d="M933.266,830.386l-.1-.3a4.368,4.368,0,0,0-.691-1.416,2.893,2.893,0,0,0-1.482-1.054c-1.614-.494-3.655.4-5.1,1.844a23.8,23.8,0,0,0-2.206,2.569h0c-.165.231-.329.461-.527.691a35.457,35.457,0,0,0-3.853,7.344h0c-.593,1.515-1.086,3.063-1.515,4.577a1.423,1.423,0,0,0,.494,1.581.453.453,0,0,0,.132.1c-.066,0-.1.033-.165.033-.231.066-.494.132-.725.2h-.033a1.312,1.312,0,0,0-.79.428,1.589,1.589,0,0,0,.033,2.009,2.242,2.242,0,0,0,.4.4,1.508,1.508,0,0,0,1.218.231C926.186,848.1,935.506,839.278,933.266,830.386Z" transform="translate(-886.663 -806.989)" fill="#201000"/></g><g transform="translate(0 192.788)"><path d="M802.25,1385.474a12.609,12.609,0,0,0-1.943-5.137,1.028,1.028,0,0,1-.165-.329l-.033-.033c-1.021-1.811-2.569-5.038-4.709-8.562a.1.1,0,0,1-.033-.066c-2.7-4.446-6.257-9.286-10.637-12.151l-.033-.033a16.4,16.4,0,0,0-1.647-.955c-.329-.428-.691-.856-1.021-1.251a16.073,16.073,0,0,0-8.3-4.94h0a23.484,23.484,0,0,0-5.071-.626h0c-5.631-.1-11.69,1.482-17.091,2.931a1.772,1.772,0,0,0-.329.1h-.066c-9.056,2.4-18.013,5.072-26.937,7.969-3.82,1.251-6.462,2.536-10.249,3.886l-.329.889-6.981,18.309h50.688a2.475,2.475,0,0,0,.132-.527v-.033c.1.2.2.4.3.56l.4.79a8.848,8.848,0,0,1,1.614,2.206,1.9,1.9,0,0,1,1.647,1.251c1.251,3.194,2.536,6.356,3.523,9.649,1.383,1.219,3.293,1.91,6.487,2.141h.1a.641.641,0,0,0,.263-.033,1.114,1.114,0,0,0,.4-.2l.1-.1a.725.725,0,0,0,.132-.165c.033-.033.066-.1.1-.132s.033-.1.066-.132.033-.1.066-.132.033-.1.066-.132c.033-.066.033-.1.066-.165s.033-.1.066-.165c.066-.165.132-.362.2-.527a1.607,1.607,0,0,1,.1-.231c0-.033,0-.033.033-.066a.115.115,0,0,1,.033-.066c.033-.066.033-.1.066-.132a1.62,1.62,0,0,0,.1-.231c0-.033,0-.033.033-.033a.032.032,0,0,1,.033-.033c.033-.033.033-.066.066-.1.066-.066.1-.132.165-.2l.066-.066c.033-.033.066-.033.066-.066.033-.033.066-.066.1-.066a1.633,1.633,0,0,1,.231-.1.2.2,0,0,1,.132-.033c.1-.033.2-.033.3-.066.066,0,.165-.033.231-.033h.955c.132,0,.231.033.362.033h.033c.132,0,.23.033.362.033h.132a.417.417,0,0,1,.2.033.644.644,0,0,1,.264.033h.461a.562.562,0,0,0,.231-.033.2.2,0,0,0,.132-.033c.066,0,.132-.033.2-.033.033,0,.066,0,.066-.033a5.121,5.121,0,0,0,.56-.165c.066-.033.165-.066.231-.1.1-.033.2-.1.3-.132a.721.721,0,0,1,.165-.1c.033-.033.1-.066.132-.1s.066-.033.132-.066.132-.1.2-.132a.582.582,0,0,0,.165-.132c.033-.033.1-.066.165-.132a.732.732,0,0,1,.165-.132c.23-.2.494-.428.757-.692l.263-.263c.1-.1.165-.2.263-.3a2.263,2.263,0,0,0,.362-.428c.066-.066.1-.132.165-.165.066-.066.132-.165.2-.23.132.033.3.033.428.066h.033a.56.56,0,0,1,.231.033.419.419,0,0,1,.2.033c.329.033.659.033.988.033h.263a4.049,4.049,0,0,0,.626-.066.121.121,0,0,0,.1-.033,1.419,1.419,0,0,0,.165-.033.121.121,0,0,0,.1-.033c.033,0,.1-.033.132-.033.066-.033.132-.033.2-.066s.1-.033.165-.066.165-.066.231-.1a251.435,251.435,0,0,1,.329-.2,16.829,16.829,0,0,0,.066-.066.115.115,0,0,1,.066-.033h0c.033-.033.066-.033.1-.066a.871.871,0,0,0,.2-.164.032.032,0,0,0,.033-.033h0a.869.869,0,0,1,.2-.165l.1-.1c.033-.033.033-.066.066-.066,0-.033.033-.033.033-.066a.032.032,0,0,0,.033-.033c.066-.066.1-.132.165-.2.033-.033.066-.066.066-.1.033-.066.066-.1.1-.165s.1-.165.132-.231c.033-.033.033-.066.066-.132s.033-.132.066-.2.033-.132.066-.2.033-.132.066-.2c0-.066.033-.132.033-.2s.033-.132.033-.23c0-.066.033-.165.033-.23a.643.643,0,0,1,.033-.23v-.988h0v-.1a.418.418,0,0,0-.033-.2,1.923,1.923,0,0,0-.066-.428h0v-.132c0-.1-.033-.165-.033-.264a.121.121,0,0,0-.033-.1c0-.066-.033-.132-.033-.2s-.033-.132-.033-.2v-.033c0-.066-.033-.1-.033-.165-.033-.132-.066-.3-.1-.428,0-.033-.033-.066-.033-.132a.121.121,0,0,0-.033-.1h0c-.033-.1-.033-.165-.066-.264v-.066h0c-.033-.1-.066-.231-.1-.362,0-.033-.033-.066-.033-.1-.165-.428-.329-.922-.527-1.383-.165-.4-.329-.79-.527-1.186-.362-.823-.757-1.646-1.153-2.437v-.033c-1.614-3.359-3.26-6.487-4.018-8.463v-.033a6.976,6.976,0,0,1-.461-1.614c-.033-.626.362-.691,1.35-.066h0a17.652,17.652,0,0,1,1.581,1.185c3.227,2.7,6.619,6.948,9.55,10.34a.032.032,0,0,0,.033.033c.724.823,1.383,1.581,2.042,2.272.066.066.1.132.165.165l.165.165.1.1c.033.033.033.066.066.066l.132.132a18.345,18.345,0,0,0,1.976,1.811c.066.033.1.066.165.1s.1.066.165.1h0c.066.033.1.066.165.1h0l.033.033c.066.033.1.066.165.066h.033c.033.033.066.033.1.066a.121.121,0,0,0,.1.033c.033,0,.066.033.1.033s.066.033.1.033h0c.033,0,.033,0,.066.033h.033c.033,0,.066.033.1.033h.329A2.878,2.878,0,0,0,802.25,1385.474Z" transform="translate(-705.5 -1351.156)" fill="#e7c1a0"/><path d="M931.164,1429.193a4.71,4.71,0,0,1-2.964-1.087,8.39,8.39,0,0,1-2.239-2.865,1.57,1.57,0,1,1,2.865-1.284h0a5.151,5.151,0,0,0,1.317,1.679c.56.428,1.219.724,2.4-.132,0,0,.4-.4.132-2.338v-.1a39.131,39.131,0,0,0-2.8-8.562c0-.033-.033-.033-.033-.066-1.383-3.227-2.9-6.257-3.952-8.266a.25.25,0,0,1-.066-.132c-.988-1.943-1.811-3.425-2.206-4.149a3.611,3.611,0,0,1-.263-.527,1.576,1.576,0,0,1,2.832-1.383l.2.4c.4.724,1.251,2.239,2.239,4.182.033.033.033.066.066.1h0c1.054,2.042,2.634,5.17,4.083,8.529,0,.033.033.033.033.066h0a42.229,42.229,0,0,1,3.063,9.451v.132c.132,1.054.461,3.853-1.416,5.236A5.994,5.994,0,0,1,931.164,1429.193Z" transform="translate(-851.504 -1383.151)" fill="#201000"/><path d="M811.031,1389.318a7.516,7.516,0,0,1-.856-.066.2.2,0,0,1-.132-.033,7.8,7.8,0,0,1-4.347-3.26c-.461-.626-.988-1.383-1.614-2.371h0c0-.033-.033-.033-.033-.066l-.659-1.087c-.823-1.317-1.646-2.667-2.568-3.919a33.636,33.636,0,0,0-10.6-8.891,2.749,2.749,0,0,1-.4-.263,1.571,1.571,0,0,1-.1-2.239,1.606,1.606,0,0,1,2.009-.3,36.339,36.339,0,0,1,11.625,9.78c1.021,1.35,1.877,2.766,2.733,4.149l.659,1.054h0c0,.033.033.033.033.066a23.454,23.454,0,0,0,1.449,2.141,5.2,5.2,0,0,0,2.437,2.074h.033a1.786,1.786,0,0,0,.922-.066c.033,0,.066,0,.1-.132.329-.691.3-2.635-.922-5.829,0-.033-.066-.165-.066-.2a43.911,43.911,0,0,0-4.446-8.068h0a.171.171,0,0,1-.066-.132,74.4,74.4,0,0,0-10.274-11.756.4.4,0,0,1-.165-.165l-.461-.461a14.6,14.6,0,0,0-1.976-1.548c-6.158-4.149-15.807-4.939-29.539-2.371-.066.033-.132.033-.2.066-11.888,2.239-24.665,6.553-37.771,11.131a1.476,1.476,0,0,1-.659.132,1.56,1.56,0,0,1-1.581-1.581,1.64,1.64,0,0,1,1.054-1.515c13.238-4.643,26.147-8.99,38.265-11.295.066-.033.132-.033.2-.066,14.621-2.766,25.06-1.844,31.976,2.832a17.683,17.683,0,0,1,2.371,1.844l.461.461a.258.258,0,0,1,.132.132,78.829,78.829,0,0,1,10.8,12.349.171.171,0,0,1,.066.132,45.172,45.172,0,0,1,4.808,8.76c1.054,2.667,1.976,6.224.856,8.5a3.225,3.225,0,0,1-2.075,1.745A3.454,3.454,0,0,1,811.031,1389.318Z" transform="translate(-717.639 -1350.686)" fill="#201000"/><path d="M907.139,1438.4a9.094,9.094,0,0,1-4.413-1.35,1.576,1.576,0,0,1,1.679-2.668c.527.329,2.239,1.153,3.425.757.2-.066.757-.264,1.185-1.317,1.35-3.326-4.907-16.729-10.373-23.875a1.574,1.574,0,0,1,2.5-1.91c3.886,5.1,13.139,21.174,10.8,26.97a5.116,5.116,0,0,1-3.161,3.161A5.839,5.839,0,0,1,907.139,1438.4Z" transform="translate(-834.823 -1388.737)" fill="#201000"/><path d="M801.107,1446.569a7.873,7.873,0,0,1-4.446-1.712c-2.075-1.712-2.766-4.017-3.425-6.224-.823-2.733-1.712-5.565-5.2-7.9-1.844-1.218-7.278.231-16.3,2.7-4.907,1.317-10.966,3-18.507,4.775a1.59,1.59,0,1,1-.724-3.1c7.475-1.778,13.534-3.425,18.408-4.742,10.867-2.964,15.84-4.314,18.9-2.272,4.446,2.964,5.565,6.652,6.455,9.616.626,2.009,1.087,3.589,2.4,4.709.527.4,1.91,1.219,2.8.955.165-.033.659-.165,1.087-1.251,1.35-3.326-4.907-16.729-10.373-23.875a1.574,1.574,0,1,1,2.5-1.91c3.886,5.1,13.139,21.175,10.8,26.97a4.822,4.822,0,0,1-3.194,3.128A8.168,8.168,0,0,1,801.107,1446.569Z" transform="translate(-736.2 -1394.304)" fill="#201000"/></g><g transform="translate(126.27 194.281)"><path d="M1180.337,1397.6h0a25.088,25.088,0,0,0-6.652-9.616h0a30.283,30.283,0,0,0-2.5-2.108,31.477,31.477,0,0,0-8.76-4.775,1.38,1.38,0,0,0-1.877,1.219c-10.5-3.952-22.063.428-28.781,9.352-.593.79-1.153,1.647-1.679,2.5a15.8,15.8,0,0,0-2.536,9.78h0a10.6,10.6,0,0,0,1.844,4.874,13.94,13.94,0,0,0,1.449,1.679,26.436,26.436,0,0,0,4.248-5.269h21.076a1.4,1.4,0,0,0,.132.23c9.451.066,19.594.1,24.8-.033A15.456,15.456,0,0,0,1180.337,1397.6Z" transform="translate(-1112.326 -1372.419)" fill="#fff"/><path d="M1163.947,1396.956c-.033,2.074-1.206,4.742-4.368,1.877-2.865.691-3,3.787-6.224,3.293a15.538,15.538,0,0,1-4.05-5.17,31.267,31.267,0,0,0-1.153-3.655,47.386,47.386,0,0,0-3.26-6.751,19.548,19.548,0,0,0-1.943-3.326,1.971,1.971,0,0,0-1.219-.791c-.626-1.087-1.152-2.042-1.547-2.766-1.186-2.174-4.511-.231-3.326,1.943.791,1.482,3.162,5.6,5.137,9.978a1.851,1.851,0,0,0-.2,1.416.966.966,0,0,0,.066.3,23.1,23.1,0,0,1-.2,11.229,9.339,9.339,0,0,1-5.137-3.721c-1.12-1.943-2.4-4.676-3.853-7.508-2.668-5.236-5.73-10.867-8.793-12.646-4.742-2.766-7.508,3.952-10.67,9.879-.494.955-1.054,1.877-1.614,2.766-3,4.742-6.784,8.4-9.319,6.915-2.305-1.35-2.173-2.107-.132-6.915.23-.527.494-1.12.757-1.745-.823.626-1.647,1.219-2.5,1.745h-7.9c.033-.033.066-.033.1-.066a4.923,4.923,0,0,1,.231-2.174c.955-3.227,4.446-6.52,6.191-8.792a63.616,63.616,0,0,1,12.81-12.942,36.617,36.617,0,0,1,5.7-3.392c8.233-3.886,16.828-3.227,25.554-1.581.428.066.856.165,1.317.231,2.931.527,5.18,1.58,8.243,2.371l.312,1.1Z" transform="translate(-1088.868 -1360.475)" fill="#e7c1a0"/><path d="M1153.548,1427.821a6.972,6.972,0,0,1-1.614-.2c-3.1-.757-4.874-5.1-6.948-10.143a40.668,40.668,0,0,0-3.392-6.981l-.56-.823c-1.679-2.437-3.557-5.17-5.5-5.17h0c-1.383,0-3.128,1.416-5.006,4.116-1.317,1.877-2.5,3.622-3.589,5.236-4.775,7.146-7.936,11.855-11.954,10.011a4.308,4.308,0,0,1-2.371-2.5c-1.021-3.03,1.317-7.475,5.565-15.576l1.614-3.063a1.584,1.584,0,1,1,2.8,1.482l-1.614,3.062c-3.326,6.356-5.961,11.361-5.368,13.107.066.2.2.428.692.626,1.548.691,4.676-3.952,8-8.891,1.087-1.647,2.305-3.425,3.622-5.3,2.569-3.688,5.071-5.466,7.607-5.466h.033c3.589,0,5.993,3.491,8.1,6.553l.56.79a43.122,43.122,0,0,1,3.721,7.607c1.383,3.326,3.26,7.9,4.808,8.266a2.261,2.261,0,0,0,2.272-.461c.988-1.054,1.087-3.293.231-6.026-1.811-5.895-8.463-17.486-8.529-17.585a1.545,1.545,0,0,1,.23-1.877,1.661,1.661,0,0,1,1.877-.329c.461.231,11.559,6.026,14.918,15.51,2.931,8.331,4.314,8.365,5.5,8.365a.752.752,0,0,0,.626-.4c.362-.494,1.383-2.6-.659-8.332-2.667-7.574-9.319-14.522-9.385-14.588a1.584,1.584,0,0,1,2.272-2.207c.3.3,7.179,7.508,10.11,15.741,2.239,6.389,1.383,9.616.263,11.2a3.881,3.881,0,0,1-3.161,1.745h0c-3.293,0-5.4-1.581-8.562-10.472-1.547-4.38-5.137-7.936-8.233-10.34a88.8,88.8,0,0,1,5.73,12.646c1.218,3.952.889,7.212-.955,9.122A5.119,5.119,0,0,1,1153.548,1427.821Z" transform="translate(-1102.2 -1382.679)" fill="#201000"/><path d="M1083.062,1390.81a1.843,1.843,0,0,1-.889-.263,1.59,1.59,0,0,1-.428-2.206c.494-.757,12.514-18.639,24.6-27.859,11.526-8.826,24.632-4.742,37.311-.79,1.35.428,2.7.856,4.051,1.251a1.583,1.583,0,1,1-.922,3.029c-1.383-.4-2.733-.823-4.083-1.251-12.481-3.853-24.237-7.508-34.446.3-11.69,8.924-23.776,26.937-23.908,27.135A1.561,1.561,0,0,1,1083.062,1390.81Z" transform="translate(-1081.472 -1355.218)" fill="#201000"/></g><g transform="translate(40.07 116.027)"><path d="M825.01,1127.942a1.56,1.56,0,0,1-1.548-1.317,1.594,1.594,0,0,1,1.317-1.811c8.1-1.284,19.791-1.416,39.089-.4a1.584,1.584,0,0,1-.2,3.162c-19.067-1.021-30.527-.889-38.4.362Z" transform="translate(-823.444 -1121.715)" fill="#201000"/><path d="M1042.989,1126.286a1.557,1.557,0,0,1-1.548-1.284,1.574,1.574,0,0,1,1.251-1.844c1.614-.329,3.359-.659,5.17-1.054,11.987-2.47,28.419-5.828,40.439-3.984a1.594,1.594,0,0,1,1.317,1.811,1.577,1.577,0,0,1-1.811,1.317c-11.46-1.745-27.563,1.548-39.319,3.952-1.844.362-3.589.725-5.2,1.054A.822.822,0,0,1,1042.989,1126.286Z" transform="translate(-969.634 -1117.588)" fill="#201000"/><path d="M1203.052,1313.382a1.584,1.584,0,0,1-1.581-1.482l-1.581-22.129a1.578,1.578,0,0,1,1.449-1.679,1.559,1.559,0,0,1,1.679,1.449l1.581,22.129a1.578,1.578,0,0,1-1.449,1.68A.121.121,0,0,1,1203.052,1313.382Z" transform="translate(-1075.921 -1231.94)" fill="#201000"/></g></g></g><g transform="translate(598.128 584.65)"><path d="M1387.58,1003.79a38.99,38.99,0,1,0-47.947,37.969v42.151a8.806,8.806,0,0,0,1.383,4.775,8.954,8.954,0,0,0,7.574,4.182h0a8.973,8.973,0,0,0,8.957-8.957v-42.151A39.024,39.024,0,0,0,1387.58,1003.79Z" transform="translate(-1305.615 -964.8)" fill="#0092d2"/><path d="M1352.33,1060.761h-53.249a1.581,1.581,0,1,1,0-3.161h53.249a1.561,1.561,0,0,1,1.581,1.581A1.581,1.581,0,0,1,1352.33,1060.761Z" transform="translate(-1297.5 -1027.04)" fill="#edf5f7"/><path d="M1384,1119.962h-41.624a1.581,1.581,0,0,1,0-3.162H1384a1.581,1.581,0,1,1,0,3.162Z" transform="translate(-1326.541 -1066.745)" fill="#edf5f7"/></g><g transform="translate(598.127 424.416)"><path d="M1258,546.555l-5.2,13.7h34.182l-8.99-23.644a14.456,14.456,0,0,0,6.356-11.954,13.643,13.643,0,0,0-.3-2.865,14.211,14.211,0,0,0-1.021-3.161,14.454,14.454,0,0,0-26.279,0,14.772,14.772,0,0,0-1.021,3.161,13.643,13.643,0,0,0-.3,2.865,14.375,14.375,0,0,0,6.356,11.954l-2.569,6.784Z" transform="translate(-1252.8 -510.2)" fill="#0092d2"/><path d="M1280.684,612.581a1.6,1.6,0,0,1-1.581,1.581h-10.6l1.186-3.161h9.385A1.588,1.588,0,0,1,1280.684,612.581Z" transform="translate(-1263.33 -577.806)" fill="#fff"/><path d="M1289.953,538.961H1261.6a14.2,14.2,0,0,1,1.021-3.161H1288.9A12.755,12.755,0,0,1,1289.953,538.961Z" transform="translate(-1258.702 -527.37)" fill="#fff"/></g><path d="M1.682,2.849A4.853,4.853,0,0,1,8.318,6.662c.233,1.572,2.707,1.31,2.474-.262A7.351,7.351,0,0,0,.78.52,1.249,1.249,0,0,0,1.682,2.849Z" transform="matrix(-0.819, 0.574, -0.574, -0.819, 543.24, 578.452)" fill="#201000"/></g></svg>