<svg xmlns="http://www.w3.org/2000/svg" width="62.025" height="59.67" viewBox="0 0 62.025 59.67"><g transform="translate(0 0)"><path d="M29.011,10.326c-11.444,7.347-17,14.929-17,27.6a6.522,6.522,0,0,1,2.072-.235c5.981,0,11.774,4.05,11.774,11.35C25.855,56.62,21,61.33,14.082,61.33,5.133,61.33,0,54.171,0,41.314,0,23.418,8.242,10.561,23.642,1.66Zm32.967,0c-11.444,7.347-17,14.929-17,27.6a6.522,6.522,0,0,1,2.072-.235c5.981,0,11.774,4.05,11.774,11.35,0,7.582-4.851,12.292-11.774,12.292-8.9,0-14.034-7.158-14.034-20.016,0-17.9,8.242-30.753,23.642-39.654l5.369,8.666Z" transform="translate(0 -1.66)" fill="#0092d2" fill-rule="evenodd"/></g></svg>