<svg xmlns="http://www.w3.org/2000/svg" width="217.34" height="144.412" viewBox="0 0 217.34 144.412"><path d="M454.24,1083.852v46.663H236.9V1079.37c12.462-4.139,26.4-.521,38.891,3.752,16.3,5.583,32.7,13.579,50.326,12.909h.03c8.829-.342,16.825-3.529,25.029-6.522.923-.342,1.861-.67,2.8-.968a60.884,60.884,0,0,1,24.076-3.082c8.934.715,17.644,2.993,26.518,4.184a84.489,84.489,0,0,0,24.508-.1C437.564,1088.214,445.887,1085.877,454.24,1083.852Z" transform="translate(-236.9 -986.103)" fill="#0092d2"/><g transform="translate(9.87 0)"><g transform="translate(67.585 70.054)"><path d="M757.815,1122.1H757.8a.724.724,0,0,1-.7-.729l1.429-51.473a.735.735,0,0,1,.73-.7.725.725,0,0,1,.7.73l-1.429,51.473A.732.732,0,0,1,757.815,1122.1Z" transform="translate(-757.1 -1049.055)" fill="#201000"/><path d="M1156.413,1115.963a.719.719,0,0,1-.715-.685l-2.5-52.545a.715.715,0,0,1,.685-.745.706.706,0,0,1,.745.685l2.5,52.545a.716.716,0,0,1-.685.745Z" transform="translate(-1094.22 -1042.916)" fill="#201000"/><path d="M976.725,1006.947a.712.712,0,0,1-.715-.7L974.7,934.63a.725.725,0,0,1,.7-.73h.015a.712.712,0,0,1,.715.7l1.31,71.618a.709.709,0,0,1-.715.73Z" transform="translate(-942.301 -933.9)" fill="#201000"/></g><path d="M178.369,93.264l4.547,1.646,6.119.471s5.8-.941,5.8-1.412V87.537h3.137l3.766-1.725,2.117-2.9.941-4.941-.549-6.039-4.941-19.139-8-5.178L176.8,53.73l-7.219,3.922h-5.1l-2.979,1.883-1.648,2.982v4.469l3.217,3.922,4.156,2.2,4,.705,1.334.393,2.117,5.57,2.98,3.137.707,1.1Z" transform="translate(-86.756 -25)" fill="#e7c1a0"/><g transform="translate(72.36)"><path d="M895.676,549.586a8.369,8.369,0,0,0,3.424-5.4,4.854,4.854,0,0,0-3.142-5.42c-3.2-.983-7.117,1.355-9.8,2.814a40.979,40.979,0,0,0-7.877,5.628,3.805,3.805,0,0,0-.491-2.68c-1.087-1.712-2.9-1.787-4.571-.923-5.375,2.814-9.351,9.857-11.733,15.172a.722.722,0,0,0,.7,1.012c0,.015,0,.03.015.03a3.292,3.292,0,0,0,.328.432,8.805,8.805,0,0,1,3.469,2.04s-.179-5.852,8.934-8.68c7.832-2.442,13.147-1.444,16.214,3.35.03-.015.074-.03.1-.045a.643.643,0,0,0,.372-.015c2.427-.715,6.73-2.65,5.167-6.06A2.8,2.8,0,0,0,895.676,549.586Z" transform="translate(-850.662 -527.342)" fill="#201000"/><path d="M824.91,678.115a.712.712,0,0,1-.715-.7l-.238-12.388a.72.72,0,0,1,.67-.73c4.214-.3,7.355-1.266,8.963-4.958,1.414-3.261.045-9.976-1.4-17.078-.238-1.191-.491-2.4-.73-3.6a18.954,18.954,0,0,0-2.4-6.536c-2.859-4.467-7.757-5.45-15.411-3.052-8.412,2.62-8.427,7.757-8.427,7.981a.743.743,0,0,1-.462.685.712.712,0,0,1-.789-.194A8.313,8.313,0,0,0,800.8,635.7a9.211,9.211,0,0,0-6.983.045,5.581,5.581,0,0,0-2.814,3.544,6.931,6.931,0,0,0,.789,6.328c1.876,2.68,6,4.482,10.765,4.72a.715.715,0,0,1,.655.536c.015.074,1.757,6.819,5.241,8.949a.709.709,0,0,1,.342.581c.223,5.137.4,9.8.521,13.832a.7.7,0,0,1-.7.73.725.725,0,0,1-.73-.7c-.119-3.931-.283-8.457-.506-13.445-3.216-2.219-4.943-7.43-5.42-9.1-5.048-.357-9.261-2.323-11.346-5.3a8.422,8.422,0,0,1-.983-7.564,6.974,6.974,0,0,1,3.544-4.407c3.082-1.563,6.7-.6,8.1-.119a11.787,11.787,0,0,1,2.71,1.34c.506-2.055,2.382-5.851,9.246-7.981,8.249-2.576,13.817-1.37,17.033,3.648a19.653,19.653,0,0,1,2.591,7.028c.238,1.191.477,2.4.715,3.588,1.489,7.34,2.9,14.264,1.31,17.927-1.891,4.363-5.628,5.42-9.5,5.762l.223,11.718a.705.705,0,0,1-.7.759Z" transform="translate(-789.171 -602.105)" fill="#201000"/><path d="M914.932,925.194h0a.718.718,0,0,1-.715-.73c0-.045.015-1.042-.223-7.534a.715.715,0,0,1,.372-.655.706.706,0,0,1,.745.03c3.514,2.4,9.187,2.754,15.142.983a.716.716,0,0,1,.417,1.37c-5.762,1.727-11.316,1.534-15.187-.476.179,5.435.179,6.268.179,6.3A.727.727,0,0,1,914.932,925.194Z" transform="translate(-895.408 -848.767)" fill="#201000"/><path d="M837.415,719.211a.723.723,0,0,1-.67-.462c-.491-1.28-3.38-4.288-5.9-4.05a.71.71,0,0,1-.134-1.414c3.246-.313,6.656,3.082,7.37,4.958a.716.716,0,0,1-.417.923A.755.755,0,0,1,837.415,719.211Z" transform="translate(-823.981 -676.061)" fill="#201000"/><path d="M917.661,679.241H898.87a6.669,6.669,0,0,1-6.67-6.67h0a6.669,6.669,0,0,1,6.67-6.67h18.775a6.669,6.669,0,0,1,6.67,6.67h0A6.656,6.656,0,0,1,917.661,679.241Z" transform="translate(-876.86 -635.749)" fill="#0092d2"/><path d="M913.576,675.87h-18.79a7.385,7.385,0,1,1,0-14.77h18.775a7.385,7.385,0,0,1,.015,14.77Zm-18.79-13.356a5.956,5.956,0,0,0,0,11.911h18.775a5.956,5.956,0,0,0,0-11.911Z" transform="translate(-872.774 -631.664)" fill="#201000"/><path d="M991.108,797.865h-6.626a2.381,2.381,0,0,1-2.382-2.382h0a2.355,2.355,0,0,1,.953-1.906,2.39,2.39,0,0,1,1.429-.476h6.626a2.388,2.388,0,0,1,1.861.893,2.35,2.35,0,0,1,.521,1.489h0a2.383,2.383,0,0,1-2.382,2.382Z" transform="translate(-953.374 -744.01)" fill="#201000"/><path d="M971.176,793.113a5.455,5.455,0,0,1-3.559-1.206c-.715-.581-1.727.432-1.012,1.013a6.985,6.985,0,0,0,4.571,1.623A.715.715,0,0,0,971.176,793.113Z" transform="translate(-939.978 -742.846)" fill="#201000"/><path d="M1030.431,516.064h-7.8a1.429,1.429,0,1,1,0-2.859h7.8a5.548,5.548,0,0,0,5.539-5.539V464.829a1.429,1.429,0,1,1,2.859,0v42.837A8.407,8.407,0,0,1,1030.431,516.064Z" transform="translate(-986.652 -463.4)" fill="#201000"/><path d="M1068.32,708c-.551.789-1.117,1.593-1.667,2.382-.536.759.715,1.474,1.236.715.551-.789,1.117-1.593,1.668-2.382C1070.092,707.972,1068.841,707.257,1068.32,708Z" transform="translate(-1025.226 -671.314)" fill="#fff"/><path d="M1005.789,703.607a.714.714,0,0,1-.61-1.087c1.831-3.037.849-6.343-3.782-12.626a.713.713,0,1,1,1.147-.849c4.318,5.881,6.343,10.095,3.856,14.219A.71.71,0,0,1,1005.789,703.607Z" transform="translate(-969.678 -655.202)" fill="#201000"/><circle cx="0.953" cy="0.953" r="0.953" transform="matrix(0.101, -0.995, 0.995, 0.101, 20.798, 37.903)" fill="#201000"/><circle cx="0.953" cy="0.953" r="0.953" transform="matrix(0.101, -0.995, 0.995, 0.101, 36.477, 36.422)" fill="#201000"/><path d="M926.215,675.919a.769.769,0,0,0-1.013-.372l-1.206.447a.763.763,0,0,0,.64,1.385l1.206-.447A.769.769,0,0,0,926.215,675.919Z" transform="translate(-903.549 -643.907)" fill="#201000"/><path d="M1034.89,671.86l-.953-.089a.763.763,0,0,0-.149,1.519l.953.089A.764.764,0,0,0,1034.89,671.86Z" transform="translate(-996.799 -640.741)" fill="#201000"/></g><path d="M107.9,95.039l7.922.625,6.746-1.332,5.334-3.373,2.432-2.51L126.807,78.1a24.07,24.07,0,0,0-7.059-6.824c-5.1-3.451-5.883-4.549-5.883-4.549l-6.354-3.609-1.279.119-.676,1.2.846,1.943,5.281,6.717L99.729,69.9l-4.57.322-1.891.82v.713l-1.893.715L90.59,74.43l.393,1.07-1.715.357-.285,1.428.285,1.145-1.723.8v2.105L90.367,83.2,102.4,86.641l3.426,2.393Z" transform="translate(-86.756 -25)" fill="#e7c1a0"/><path d="M109.025,96.225l-6.969-.561-6.969-1.852-4.705-3.137-2.838-2.227L91.076,78.1s1.4-3.605,6.5-7.057,6.637-3.518,6.637-3.518l8.123-2.951,1.279.119.676,1.2-.846,1.943-6.535,4.391,11.244-2.33,4.57.322,1.891.82v.713l1.893.715.785,1.963L126.9,75.5l1.715.357.285,1.428-.285,1.145,1.723.8v2.105L127.516,83.2l-12.031,3.445-3.426,2.393Z" transform="translate(76.244 -25)" fill="#e7c1a0"/><g transform="translate(107.542 38.878)"><path d="M1069.51,946.548a.715.715,0,0,1-.685-.521c-.03-.1-2.978-10.6-11.256-27.039-7.221-14.338-17.063-10.318-27.486-6.045-1.221.506-2.442,1-3.648,1.459a.716.716,0,0,1-.923-.417.7.7,0,0,1,.417-.923c1.191-.462,2.4-.953,3.618-1.444,10.08-4.124,21.5-8.785,29.317,6.73,8.353,16.587,11.331,27.2,11.36,27.307a.713.713,0,0,1-.491.878A1.286,1.286,0,0,1,1069.51,946.548Z" transform="translate(-1025.462 -880.338)" fill="#201000"/><path d="M1242.162,739.968a2.62,2.62,0,0,0-1.31-1.266,2.411,2.411,0,0,0,.015-1.593,3.421,3.421,0,0,0-1.653-1.757,2.608,2.608,0,0,0-.119-1.846,3.519,3.519,0,0,0-2.129-1.668c-2.278-3.32-9.261-2.293-14.234-1.027,2.025-1.474,3.886-3.261,3.693-4.705-.074-.536-.417-1.221-1.7-1.519-3.96-.923-19.624,7.206-22.751,12.641-3.037,5.286-18.478,62.357-19.133,64.784a.717.717,0,0,0,1.385.372c.164-.6,16.051-59.319,19-64.441,2.993-5.226,18.12-12.671,21.188-11.971.4.089.6.223.61.313.1.819-2.725,3.559-7.579,6.134a.708.708,0,0,0-.313.923.725.725,0,0,0,.893.387c4.243-1.534,15.708-4.675,17.867-.923a.715.715,0,0,0,.461.342,2.317,2.317,0,0,1,1.459.983,1.448,1.448,0,0,1-.134,1.281.694.694,0,0,0-.015.6.681.681,0,0,0,.432.4,2.62,2.62,0,0,1,1.444,1.176,1.3,1.3,0,0,1-.253,1.147.712.712,0,0,0-.059.67.682.682,0,0,0,.521.417,1.746,1.746,0,0,1,1.131.745,1.5,1.5,0,0,1-.283,1.325c-.506.864-3.588,1.519-6.3,2.1-4.333.923-9.246,1.98-11.494,4.631-2.651,3.142-8.919,26.86-13.951,45.919-2.278,8.591-4.229,16.021-5.39,19.773-2.025,6.536-5.926,10.482-11,11.137-5.718.73-11.956-2.933-15.9-9.321-8.278-13.43-12.82-22.2-12.864-22.289a.7.7,0,0,0-.6-.387v2.338c1.563,2.918,5.762,10.586,12.239,21.1,3.871,6.268,9.872,10.08,15.664,10.08a11.727,11.727,0,0,0,1.623-.1c5.673-.715,9.991-5.033,12.194-12.135,1.176-3.782,3.142-11.227,5.42-19.833,4.735-17.912,11.227-42.464,13.668-45.368,1.921-2.278,6.789-3.32,10.691-4.154,3.588-.759,6.4-1.37,7.236-2.784A2.76,2.76,0,0,0,1242.162,739.968Z" transform="translate(-1142.606 -724.515)" fill="#201000"/><path d="M1572.993,776.632a.713.713,0,0,1-.655-.432.7.7,0,0,1,.372-.938c2.606-1.146,11.569-2.263,11.956-2.308a.72.72,0,1,1,.179,1.429c-.089.015-9.142,1.147-11.554,2.2A1.034,1.034,0,0,1,1572.993,776.632Z" transform="translate(-1490.857 -765.736)" fill="#201000"/><path d="M1585.254,798.428a.69.69,0,0,1-.655-.447.724.724,0,0,1,.387-.938c2.234-.908,11.539-2.129,11.927-2.189a.717.717,0,0,1,.8.61.728.728,0,0,1-.61.8c-2.635.342-9.857,1.385-11.569,2.085A.538.538,0,0,1,1585.254,798.428Z" transform="translate(-1501.302 -784.375)" fill="#201000"/><path d="M1597.354,821.928a.69.69,0,0,1-.655-.447.724.724,0,0,1,.387-.938c2.233-.908,11.42-2.025,11.807-2.07a.708.708,0,0,1,.789.625.716.716,0,0,1-.625.789c-2.606.313-9.738,1.281-11.45,1.98A.49.49,0,0,1,1597.354,821.928Z" transform="translate(-1511.601 -804.48)" fill="#201000"/><path d="M1516.15,777.079c-.328-.849-1.593-.164-1.25.685a8,8,0,0,1-1.98,8.725.716.716,0,0,0,.983,1.042A9.488,9.488,0,0,0,1516.15,777.079Z" transform="translate(-1440.149 -768.922)" fill="#201000"/><path d="M1422.017,889.519a.706.706,0,0,0-.953-.342c-3.41,1.578-15.8-1.325-20.711-7.623a.689.689,0,0,0-.432-.253c-.179.447-.342.893-.521,1.355,4.258,5.211,13.534,8.353,19.088,8.353a7.849,7.849,0,0,0,3.172-.536A.717.717,0,0,0,1422.017,889.519Z" transform="translate(-1343.723 -857.956)" fill="#201000"/><path d="M1281.6,1321.137a.64.64,0,0,1-.447-.164.729.729,0,0,1-.119-1.013c6.938-8.666,17.465-11.926,22.959-9.529a.728.728,0,0,1,.372.938.715.715,0,0,1-.938.372c-5-2.189-14.74.953-21.262,9.112A.7.7,0,0,1,1281.6,1321.137Z" transform="translate(-1242.851 -1222.542)" fill="#201000"/></g><g transform="translate(0 37.33)"><path d="M651.654,940.095a.414.414,0,0,1-.134-.015c-.878-.134-.878-.134.923-15.1,1-8.323,3.5-13.415,7.862-15.991,5.971-3.529,15.306-2.412,30.285,3.618a.722.722,0,0,1-.536,1.34c-14.339-5.777-23.555-6.953-29.019-3.722-3.961,2.338-6.239,7.087-7.177,14.934-1.28,10.646-1.519,13.326-1.534,13.966l-.045.343C652.249,939.722,652.264,940.095,651.654,940.095Z" transform="translate(-599.167 -878.276)" fill="#201000"/><path d="M355.079,820.289c-7.757,0-14.443-5.39-16.661-13.445-1.057-3.827-2.784-11.316-4.794-20-4.169-18.061-9.887-42.792-12.239-45.77-1.846-2.338-6.67-3.529-10.557-4.482-3.559-.878-6.358-1.563-7.147-3.008a2.792,2.792,0,0,1-.268-2.65,2.591,2.591,0,0,1,1.355-1.221,2.438,2.438,0,0,1,.045-1.593,3.409,3.409,0,0,1,1.712-1.712,2.551,2.551,0,0,1,.179-1.846,3.58,3.58,0,0,1,2.189-1.608c2.963-4.02,12.954-1.132,17.391.417a33.031,33.031,0,0,0-2.144-2.531c-1.593-1.787-2.963-3.32-2.8-4.809a2.382,2.382,0,0,1,1.117-1.712c2.248-1.623,12.447,6.864,12.552,6.938.744.625,1.459,1.132,2.218,1.668a20.772,20.772,0,0,1,6.417,6.477c3.678,5.643,16.319,61.6,16.855,63.98a.71.71,0,0,1-1.385.313c-.134-.581-13.117-58.083-16.661-63.518a19.361,19.361,0,0,0-6.045-6.09,27.738,27.738,0,0,1-2.323-1.742c-4.869-4.095-9.678-6.849-10.78-6.849h-.06c-.387.3-.462.521-.476.685-.089.849,1.206,2.293,2.442,3.693a23.625,23.625,0,0,1,3.454,4.571.7.7,0,0,1-.1.8.724.724,0,0,1-.789.194c-4.184-1.668-15.559-5.167-17.837-1.474a.777.777,0,0,1-.476.328,2.357,2.357,0,0,0-1.489.938,1.428,1.428,0,0,0,.1,1.28.7.7,0,0,1,0,.6.683.683,0,0,1-.447.387,2.523,2.523,0,0,0-1.489,1.146,1.323,1.323,0,0,0,.223,1.146.718.718,0,0,1-.506,1.072,1.756,1.756,0,0,0-1.161.715,1.632,1.632,0,0,0,.238,1.34c.476.878,3.529,1.638,6.239,2.293,4.3,1.057,9.187,2.263,11.331,4.988,2.546,3.231,8.07,27.128,12.507,46.336,2,8.666,3.737,16.14,4.779,19.937,2.04,7.415,8.174,12.388,15.276,12.388h.089c5.762-.03,12.879-3.767,15.619-14.175a.717.717,0,1,1,1.385.372c-2.948,11.182-10.705,15.2-17,15.232ZM323.2,715.527Z" transform="translate(-303.188 -714.115)" fill="#201000"/><path d="M351.941,777.1a.8.8,0,0,1-.313-.074c-2.382-1.132-11.39-2.546-11.48-2.561a.721.721,0,0,1-.6-.819.713.713,0,0,1,.819-.6c.372.06,9.306,1.459,11.882,2.68a.719.719,0,0,1,.342.953A.73.73,0,0,1,351.941,777.1Z" transform="translate(-334.131 -764.27)" fill="#201000"/><path d="M339.226,798.583a.6.6,0,0,1-.283-.06c-1.682-.744-8.874-2.025-11.495-2.457a.716.716,0,0,1,.223-1.414c.387.06,9.648,1.578,11.852,2.561a.718.718,0,0,1-.3,1.37Z" transform="translate(-323.322 -782.654)" fill="#201000"/><path d="M327.107,821.749a.6.6,0,0,1-.283-.06c-1.682-.745-8.785-1.936-11.375-2.323a.713.713,0,0,1-.6-.819.721.721,0,0,1,.819-.6c.387.06,9.529,1.459,11.748,2.442a.708.708,0,0,1,.357.938A.762.762,0,0,1,327.107,821.749Z" transform="translate(-313.109 -802.485)" fill="#201000"/><path d="M459.789,780.938c.357-.849,1.593-.119,1.236.715a7.965,7.965,0,0,0,1.712,8.77c.64.655-.357,1.668-1.012,1.013A9.44,9.44,0,0,1,459.789,780.938Z" transform="translate(-435.785 -770.666)" fill="#201000"/><path d="M448.946,895.2a35.293,35.293,0,0,1-5.837-.506.71.71,0,1,1,.238-1.4c9.2,1.534,16.3-.551,21.143-6.194a.725.725,0,0,1,1.012-.074.712.712,0,0,1,.074,1.013C461.483,892.784,455.914,895.2,448.946,895.2Z" transform="translate(-421.771 -861.131)" fill="#201000"/><path d="M557.73,1312.49a.7.7,0,0,1-.685-.536c-1.31-4.928-11.718-16.617-22.5-15.917a.716.716,0,1,1-.089-1.429c11.718-.759,22.528,11.569,23.972,16.974a.711.711,0,0,1-.506.879A.879.879,0,0,1,557.73,1312.49Z" transform="translate(-499.452 -1208.148)" fill="#201000"/></g></g><g transform="translate(148.946 21.211)"><rect width="27.173" height="20.488" transform="translate(1.659 1.183)" fill="#6b553d"/><path d="M1252.509,618a.775.775,0,0,1-.432-.134l-14.532-10.72a.713.713,0,1,1,.849-1.146l14.1,10.408,13.162-9.931a.712.712,0,0,1,.864,1.132l-13.579,10.244A.692.692,0,0,1,1252.509,618Z" transform="translate(-1237.256 -605.856)" fill="#fff"/></g><g transform="translate(19.535 6.67)"><rect width="40.99" height="12.388" transform="translate(14.309 0)" fill="#0092d2"/><circle cx="4.765" cy="4.765" r="4.765" transform="translate(0 0)" fill="#0092d2"/><path d="M487.749,620.029H460.115a.715.715,0,1,1,0-1.429h27.649a.706.706,0,0,1,.715.715A.718.718,0,0,1,487.749,620.029Z" transform="translate(-445.806 -602.162)" fill="#201000"/><path d="M527.165,545H511.442a.715.715,0,0,0,0,1.429h15.723A.715.715,0,0,0,527.165,545Z" transform="translate(-489.51 -539.521)" fill="#fff"/></g><g transform="translate(71.737 14.056)"><path d="M1197.061,573.523a7.862,7.862,0,1,1,7.862-7.862A7.873,7.873,0,0,1,1197.061,573.523Zm0-14.294a6.432,6.432,0,1,0,6.432,6.432A6.443,6.443,0,0,0,1197.061,559.229Z" transform="translate(-1119.146 -557.8)" fill="#0092d2"/><path d="M722.75,831.6a4.05,4.05,0,1,1,4.05-4.05A4.054,4.054,0,0,1,722.75,831.6Zm0-6.67a2.621,2.621,0,1,0,2.621,2.621A2.624,2.624,0,0,0,722.75,824.929Z" transform="translate(-718.7 -783.939)" fill="#6b553d"/><path d="M844.511,1161.267a16.369,16.369,0,0,1-12.82-6.164.72.72,0,0,1,1.117-.908,15.012,15.012,0,0,0,26.563-7.147.716.716,0,1,1,1.414.223A16.552,16.552,0,0,1,844.511,1161.267Z" transform="translate(-814.732 -1058.799)" fill="#fff"/><path d="M1478.972,1207.6a38.413,38.413,0,0,0-38.072,33.605h1.444a37.008,37.008,0,0,1,36.628-32.176h0V1207.6Z" transform="translate(-1333.369 -1110.849)" fill="#fff"/></g></svg>