<svg xmlns="http://www.w3.org/2000/svg" width="530.364" height="409.611" viewBox="0 0 530.364 409.611"><g transform="translate(-221.4 -410.182)"><g transform="translate(314.32 743.995)"><path d="M1028.527,1328.787a222.957,222.957,0,0,0,26.312,6.881V1321.3H1011.2A116.555,116.555,0,0,0,1028.527,1328.787Z" transform="translate(-819.53 -1321.3)" fill="#201000"/><path d="M606.692,1338.763c-4.278.428-8.022,3.53-11.73,5.419a1.437,1.437,0,0,1-2.1-.856c-1.034-6.239,3.137-10.482,7.844-13.9,3.316-2.425,7.808-4.706,10.66-8.022H473.6v29.093H620.062C615.427,1346.785,611.184,1342.613,606.692,1338.763Z" transform="translate(-473.6 -1321.364)" fill="#201000"/><path d="M767.7,1349.3H754.008a1.712,1.712,0,0,0,0,3.423H767.7A1.712,1.712,0,0,0,767.7,1349.3Z" transform="translate(-652.968 -1339.317)" fill="#fff"/><path d="M694.683,1368.5h-6.275a1.712,1.712,0,0,0,0,3.423h6.275A1.712,1.712,0,0,0,694.683,1368.5Z" transform="translate(-610.756 -1351.672)" fill="#fff"/><path d="M557.3,1341.3h-19.4a1.712,1.712,0,0,0,0,3.423h19.4A1.712,1.712,0,0,0,557.3,1341.3Z" transform="translate(-513.914 -1334.169)" fill="#fff"/></g><g transform="translate(278.382 499.523)"><rect width="31.054" height="52.089" transform="translate(109.24 184.04)" fill="#fff"/><path d="M707.165,1202.612H676.111a1.689,1.689,0,0,1-1.711-1.711v-52.089a1.689,1.689,0,0,1,1.711-1.711h31.054a1.689,1.689,0,0,1,1.711,1.711V1200.9A1.735,1.735,0,0,1,707.165,1202.612Zm-29.342-3.423h27.631v-48.666H677.823Z" transform="translate(-566.871 -964.736)" fill="#201000"/><path d="M607.311,844.306H394a16.4,16.4,0,0,1-16.4-16.4V656.7A16.379,16.379,0,0,1,394,640.3H607.311a16.433,16.433,0,0,1,16.4,16.4V827.87a16.453,16.453,0,0,1-16.4,16.436Z" transform="translate(-375.889 -638.624)" fill="#fff"/><path d="M603.937,842.993H391.2a18.419,18.419,0,0,1-18.4-18.4V654a18.419,18.419,0,0,1,18.4-18.4H603.937a18.419,18.419,0,0,1,18.4,18.4V824.6A18.419,18.419,0,0,1,603.937,842.993ZM391.2,638.987a14.972,14.972,0,0,0-14.974,14.974v170.6A14.972,14.972,0,0,0,391.2,839.534H603.937a14.972,14.972,0,0,0,14.974-14.974V654a14.972,14.972,0,0,0-14.974-14.974H391.2Z" transform="translate(-372.8 -635.6)" fill="#201000"/><rect width="216" height="156" transform="translate(17.02 17.27)" fill="#65c8ff"/><path d="M417.715,754.121a1.312,1.312,0,0,1-.855-.295,1.4,1.4,0,0,1-.56-1.12V678.915a1.4,1.4,0,0,1,1.415-1.415h63.531a1.427,1.427,0,0,1,1.061.472,1.482,1.482,0,0,1,.354,1.091,88.776,88.776,0,0,1-64.563,75A1.729,1.729,0,0,1,417.715,754.121Zm1.415-73.791v70.489a86.006,86.006,0,0,0,60.495-70.489Z" transform="translate(-400.791 -662.561)" fill="#fff"/><path d="M633.105,837.225H418.011a1.689,1.689,0,0,1-1.711-1.711v-156.3a1.689,1.689,0,0,1,1.711-1.711H633.069a1.69,1.69,0,0,1,1.711,1.711v156.3A1.66,1.66,0,0,1,633.105,837.225ZM419.723,833.8H631.358V680.923H419.723Z" transform="translate(-400.791 -662.561)" fill="#201000"/><path d="M683.051,1286.183H584.4v-7.915a2.069,2.069,0,0,1,2.068-2.068h94.516a2.069,2.069,0,0,1,2.068,2.068Z" transform="translate(-508.959 -1047.808)" fill="#fff"/><path d="M679.963,1284.805H581.311a1.69,1.69,0,0,1-1.711-1.711,11.7,11.7,0,0,1,11.694-11.694h78.721a11.7,11.7,0,0,1,11.694,11.694A1.742,1.742,0,0,1,679.963,1284.805Zm-96.762-3.423h94.872a8.264,8.264,0,0,0-8.093-6.56H591.294A8.264,8.264,0,0,0,583.2,1281.383Z" transform="translate(-505.87 -1044.719)" fill="#201000"/><circle cx="3.847" cy="3.847" r="3.847" transform="translate(226.746 185.328)"/></g><g transform="translate(223.4 449.182)"><path d="M3-2H123.389a5.006,5.006,0,0,1,5,5V75.571a5.006,5.006,0,0,1-5,5H3a5.006,5.006,0,0,1-5-5V3A5.006,5.006,0,0,1,3-2ZM123.389,76.571a1,1,0,0,0,1-1V3a1,1,0,0,0-1-1H3A1,1,0,0,0,2,3V75.571a1,1,0,0,0,1,1Z" transform="translate(0 -37)" fill="#0092d2"/><text transform="translate(18.863 18)" fill="#0092d2" font-size="40" font-family="OpenSans-SemiBold, Open Sans" font-weight="600"><tspan x="0" y="0">$577</tspan></text></g><g transform="translate(254.927 687.302)"><path d="M323.507,1233.108c-2.282-3.031-4.564-6.1-6.845-9.127-1.319-1.747-4.278-.036-2.959,1.711,2.282,3.031,4.564,6.1,6.845,9.127C321.867,1236.566,324.826,1234.855,323.507,1233.108Z" transform="translate(-311.105 -1201.515)" fill="#edf5f7"/><path d="M315.994,1171.027c-1.89-2.674-3.815-5.312-5.7-7.986-1.284-1.783-4.243-.071-2.959,1.711,1.89,2.674,3.815,5.312,5.7,7.986C314.318,1174.556,317.277,1172.845,315.994,1171.027Z" transform="translate(-307.014 -1162.287)" fill="#edf5f7"/></g><g transform="translate(430.31 472.417)"><g transform="translate(160.212 0)"><path d="M1327.919,704.859c6.418-4.706,14.261-8.343,22.283-8.093l-10.874-39.076s18.29-12.015,16.258-46.206c-.856-14.546-7.879-28.451-18.825-36.794-17.969-13.691-58.471-17.292-60.788,12.835,1.283,26.312-4.635,54.513-2.282,71.341.784,5.633,3.03,11.766,6.275,14.261,9.7,7.416,21.392,2.852,21.392,2.852l14.511,40.5A61.952,61.952,0,0,1,1327.919,704.859Z" transform="translate(-1264.279 -562.737)" fill="#c69870"/><path d="M10.869,47.036,2.508,65.271v8.564L8.83,80.77Z" fill="#c69870"/><path d="M1314.124,711.748l-14.154-39.539a1.692,1.692,0,0,0-.891-.963,1.6,1.6,0,0,0-.713-.143,1.665,1.665,0,0,0-.606.107c-.107.036-10.91,4.136-19.752-2.6-2.531-1.925-4.813-7.238-5.633-13.156-1.177-8.378-.214-20.073.82-32.48,1-12.015,2.1-25.634,1.5-38.612.713-8.913,4.956-15.188,12.585-18.611,13.584-6.1,34.476-1.248,45.422,7.095,10.517,8.022,17.327,21.32,18.147,35.546,1.925,32.694-15.331,44.566-15.509,44.709a1.764,1.764,0,0,0-.713,1.89l10.767,38.648a30.592,30.592,0,0,1,3.6.107L1338.261,655.2c3.957-3.173,17.791-16.507,16.008-46.99-.891-15.224-8.2-29.449-19.5-38.077-11.694-8.913-33.728-14.3-48.916-7.487-8.771,3.922-13.833,11.373-14.618,21.57v.214c.606,12.764-.5,26.312-1.5,38.255-1.034,12.585-2.032,24.458-.784,33.228.749,5.455,2.995,12.372,6.952,15.4,8.236,6.275,17.613,4.671,21.392,3.637l14.368,40.038A31,31,0,0,1,1314.124,711.748Z" transform="translate(-1261.215 -559.572)" fill="#201000"/><path d="M1376.192,611.51c-.856-14.546-7.879-28.451-18.825-36.794-13.3-10.125-38.933-14.725-52.267-4.207,6.667.677,13.013,2.745,18.219,6.881q2.246,11.017,4.528,22.069c.784,3.851.82,12.443,5.455,14.012a4.174,4.174,0,0,0,4.528-.784c.143,1.284.428,1.105.535,2.389a50.616,50.616,0,0,1,2.781,6.239c3.708,10.161,3.53,27.2,13.12,34.227,2.424,1.747,3.744,3.672,6.524,3.922C1364.961,655.862,1377.867,640,1376.192,611.51Z" transform="translate(-1284.849 -562.762)" fill="#201000"/><path d="M1254.9,716.077a1.817,1.817,0,0,1-1.105-.392c-8.878-7.309-5.562-14.618-.071-26.7,1.355-2.959,2.888-6.311,4.421-10.09a1.718,1.718,0,0,1,3.173,1.319c-1.569,3.815-3.1,7.2-4.457,10.2-5.74,12.621-7.38,17.256-.891,22.64a1.737,1.737,0,0,1,.214,2.424A1.64,1.64,0,0,1,1254.9,716.077Z" transform="translate(-1248.3 -635.669)" fill="#201000"/><path d="M1391.6,685.15c15.4-12.407,28.843-5.811,31.66,2.995,4.706,14.546-6.417,25.242-28.665,25.242" transform="translate(-1340.509 -635.975)" fill="#c69870"/><path d="M1391.527,712.105a1.711,1.711,0,0,1,0-3.423c12.158,0,21.178-3.244,25.456-9.091,2.781-3.815,3.316-8.628,1.6-13.9a12.816,12.816,0,0,0-8.7-7.986c-6.168-1.818-13.334.25-20.287,5.811a1.7,1.7,0,0,1-2.139-2.638c10.553-8.521,19.217-7.7,23.424-6.417a16.034,16.034,0,0,1,10.945,10.232c2.068,6.382,1.355,12.265-2.1,17.006C1414.808,708.362,1404.79,712.105,1391.527,712.105Z" transform="translate(-1337.441 -632.981)" fill="#201000"/><path d="M1423.076,710.745a14.745,14.745,0,0,0-14.3,8.521c-.927,2,2.032,3.744,2.959,1.711a11.47,11.47,0,0,1,11.338-6.81C1425.287,714.31,1425.287,710.888,1423.076,710.745Z" transform="translate(-1351.45 -656.828)" fill="#201000"/><circle cx="2.139" cy="2.139" r="2.139" transform="translate(14.44 44.897)" fill="#201000"/><path d="M1295.445,652.037l-2.995-1.284a1.8,1.8,0,0,0-2.353.606,1.728,1.728,0,0,0,.606,2.353L1293.7,655a1.8,1.8,0,0,0,2.353-.606A1.735,1.735,0,0,0,1295.445,652.037Z" transform="translate(-1275.051 -618.121)" fill="#201000"/><path d="M1310.63,790.8a6.31,6.31,0,0,1-5.6,4.706c-2.175.143-2.21,3.565,0,3.423a9.735,9.735,0,0,0,8.913-7.238C1314.48,789.593,1311.2,788.666,1310.63,790.8Z" transform="translate(-1283.747 -707.581)" fill="#201000"/></g><path d="M-19546.678-19955.777l-21.842,54.459-36.111-10.775-29.123-8.736-24.463-15.727-4.66,2.039,2.039,4.66-6.924-1.7-10.588-4.158-10.668,1.2-1.1,4.055,2.2,2.434-6.668,2.979-7.068,6.359-13.678,10.818s1.67,5.979,2.453,5.979,8.748-3.137,8.748-3.137l3.5-2.113,12.713,8.762,49.359,20.727,48.635,17.475,27.666,8.154h15.58l13.834-5.826,15.727-24.17,23.3-52.494-21.551-4-18.93-6.408Z" transform="translate(19716.453 20196.875)" fill="#c69870"/><g transform="translate(0 219.404)"><path d="M1039.849,1322.852a2.087,2.087,0,0,1-.464-.071c-.357-.107-36.223-10.375-58.257-17.577-10.054-3.28-17.719-8.557-23.317-12.372-4.813-3.28-8.592-5.883-10.161-4.6-.214.178-.428.392-.428.606.036,1.141,3.066,3.458,4.884,4.849,2.353,1.783,4.421,3.351,5.063,5.063a1.715,1.715,0,1,1-3.209,1.212c-.285-.784-2.389-2.353-3.922-3.53-3.031-2.317-6.2-4.706-6.239-7.487a4.161,4.161,0,0,1,1.676-3.316c3.565-2.923,8.058.178,14.261,4.421,5.419,3.708,12.835,8.806,22.426,11.944,21.962,7.166,57.793,17.434,58.15,17.541a1.7,1.7,0,0,1,1.177,2.1A1.679,1.679,0,0,1,1039.849,1322.852Z" transform="translate(-892.151 -1245.436)" fill="#201000"/><path d="M892.25,1306.81a1.744,1.744,0,0,1-1.426-.749c-.036-.071-4.421-6.311-10.054-7.416a26.305,26.305,0,0,0-3.637-.392c-2.389-.143-4.849-.321-7.024-1.925-2.923-2.175-1.961-4.492-1.6-5.134,2.032-3.636,11.088-5.241,19.752-1.854,7.63,2.995,22.247,12.229,22.853,12.621a1.706,1.706,0,0,1-1.818,2.888c-.143-.107-14.974-9.448-22.283-12.3-5.7-2.246-11.623-1.925-14.475-.464-.784.392-1.034.749-1.07.856a1.963,1.963,0,0,0,.677.678c1.355,1,3.066,1.105,5.205,1.248a30.05,30.05,0,0,1,4.1.464c7.024,1.391,11.979,8.521,12.193,8.842a1.747,1.747,0,0,1-.428,2.389A2.271,2.271,0,0,1,892.25,1306.81Z" transform="translate(-843.418 -1247.364)" fill="#201000"/><path d="M872.763,1321.555a1.532,1.532,0,0,1-.891-.25c-.107-.071-10.91-6.774-18.5-7.452-4.635-.392-10.7,3.672-12.407,6.525a1.712,1.712,0,0,1-2.924-1.783c2.531-4.171,9.947-8.664,15.616-8.165,8.414.713,19.538,7.665,20.037,7.951a1.723,1.723,0,0,1,.535,2.353A1.745,1.745,0,0,1,872.763,1321.555Z" transform="translate(-823.931 -1262.108)" fill="#201000"/><path d="M815.5,1334.838h-.178a1.748,1.748,0,0,1-1.533-1.89c.57-5.419,8.7-10.7,15.545-10.125,8.414.713,19,7.095,19.431,7.38a1.712,1.712,0,0,1-1.783,2.924c-.107-.071-10.339-6.239-17.969-6.881-5.562-.5-11.516,4.136-11.837,7.095A1.643,1.643,0,0,1,815.5,1334.838Z" transform="translate(-808.491 -1270.079)" fill="#201000"/><path d="M961.535,1302.933c-8.343,0-17.078-2.888-28.843-6.774-2.246-.749-4.635-1.533-7.131-2.317-25.242-8.129-89.2-33.015-96.583-36.937a44.342,44.342,0,0,1-7.38-5.383c-4.777-4.029-7.237-5.7-9.02-3.922-3.066,3.066-7.523,5.918-10.839,4.742a4.342,4.342,0,0,1-2.781-4.064c-.5-5.562,7.059-14.618,12.692-15.117,5.063-.428,14.439,4.349,15.509,4.884a1.7,1.7,0,0,1,.713,2.318,1.673,1.673,0,0,1-2.317.713c-2.6-1.355-10.2-4.849-13.619-4.528-1.711.143-4.243,1.925-6.346,4.421s-3.387,5.312-3.244,6.988c.107,1,.428,1.141.535,1.177,1,.357,3.922-.606,7.238-3.922,4.207-4.207,9.234,0,13.655,3.708a42.872,42.872,0,0,0,6.774,4.991c7.309,3.851,70.878,28.594,96.013,36.687,2.5.82,4.884,1.6,7.131,2.353,20.393,6.738,30.626,10.09,45.386,1.248,13.12-7.879,42.783-80.718,56.617-118.118a1.715,1.715,0,0,1,3.209,1.212c-1.64,4.457-40.644,109.383-58.079,119.865C973.942,1301.258,967.845,1302.933,961.535,1302.933Z" transform="translate(-798.934 -1174.962)" fill="#201000"/><path d="M1321.15,1254.767c-13.227,0-43.924-9.555-50.092-21.392a1.714,1.714,0,1,1,3.031-1.6c6.6,12.657,44.423,21.641,50.306,19.181a1.718,1.718,0,0,1,1.319,3.173A12.158,12.158,0,0,1,1321.15,1254.767Z" transform="translate(-1102.61 -1210.936)" fill="#201000"/></g><g transform="translate(144.287 133.063)"><path d="M1379.069,1110.666a1.689,1.689,0,0,1-1.676-1.462c-.071-.5-7.309-48.773-21.927-104.534-13.976-53.158-37.97-72.375-55.547-67.812-28.843,7.451-37.257,27.774-52.481,64.71l-1.141,2.781c-16.08,38.933-39.147,95.3-39.361,95.871a1.718,1.718,0,1,1-3.173-1.319c.214-.57,23.281-56.938,39.361-95.87l1.141-2.781c15.652-37.935,24.28-58.827,54.8-66.706,17.826-4.6,44.174,11.052,59.719,70.272,14.689,55.939,21.926,104.427,22,104.891a1.726,1.726,0,0,1-1.426,1.961Z" transform="translate(-1203.633 -932.79)" fill="#201000"/><path d="M1369.7,1432.946a1.71,1.71,0,0,1-1.711-1.569l-2-22.533a1.717,1.717,0,1,1,3.423-.285l2,22.533a1.717,1.717,0,0,1-1.569,1.854Z" transform="translate(-1308.102 -1237.921)" fill="#201000"/></g><g transform="translate(110.575 212.21)"><path d="M1148.3,1169.754l29.093-4.706C1166.3,1157.311,1153.862,1156.883,1148.3,1169.754Z" transform="translate(-1134.316 -1157.876)" fill="#fff"/><path d="M1165.524,1217.348c-5.384-9.091-12.692-19.93-18.753-20.108-36.544-1.177-37.828,29.414-37.685,29.628h52.766C1163.171,1223.766,1164.418,1220.593,1165.524,1217.348Z" transform="translate(-1109.077 -1182.082)" fill="#201000"/><path d="M1189.253,1179.027c-13.166-4.58-26.224-9.853-37.13-8.9a20.832,20.832,0,0,0-13.39,6.757c-11.338,12.764-2.032,11.159,5.134,5.99,7.7-5.562,32.943,0,22.675,7.7-9.733,7.309-16.971,12.692-11.552,15.4,4.278,2.139,26.526-8.984,26.526-8.984" transform="translate(-1124.748 -1165.01)" fill="#c69870"/><path d="M1153.364,1204.768a4.59,4.59,0,0,1-2.139-.392,4.446,4.446,0,0,1-2.781-3.53c-.357-3.957,5.348-8.2,13.976-14.689,2.424-1.818,1.818-2.674,1.533-3.031-2.745-3.743-17.078-5.6-22.1-2-3.423,2.46-9.876,5.883-12.407,3.1-1.854-2.068-.321-5.669,4.991-11.623,11.231-12.657,33.086-5.027,52.338,1.676a1.714,1.714,0,0,1-1.105,3.245c-18.254-6.346-38.933-13.548-48.666-2.6-3.851,4.314-4.671,6.275-4.813,6.988h0c1.141,0,4.207-1.034,7.665-3.53,6.2-4.492,22.782-2.817,26.847,2.745.856,1.177,2.424,4.314-2.139,7.737-5.812,4.35-12.906,9.662-12.728,11.73.036.214.357.5.891.784,2.1,1.07,14.618-3.779,24.993-8.984a1.7,1.7,0,1,1,1.533,3.031C1174.506,1197.78,1159.924,1204.768,1153.364,1204.768Z" transform="translate(-1121.696 -1161.871)" fill="#201000"/><path d="M1159.7,1215.108c-.178,5.883-.357,11.8-.5,17.684-.071,2.21,3.351,2.21,3.423,0,.178-5.883.357-11.8.5-17.684C1163.191,1212.9,1159.769,1212.9,1159.7,1215.108Z" transform="translate(-1141.328 -1192.534)" fill="#fff"/></g></g><text transform="translate(401.719 571.87)" fill="#fff" font-size="36" font-family="Cutive-Regular, Cutive"><tspan x="-45.149" y="0">SAT</tspan></text><text transform="translate(401.933 644.038)" fill="#fff" font-size="36" font-family="Cutive-Regular, Cutive"><tspan x="-47.707" y="0">ACT</tspan></text><text transform="translate(403.4 602.793)" fill="#fff" font-size="24" font-family="Cutive-Regular, Cutive"><tspan x="-7.254" y="0">+</tspan></text></g></svg>