<svg id="Layer_1" data-name="Layer 1" xmlns="http://www.w3.org/2000/svg" viewBox="0 0 262 262"><defs><style>.cls-1{fill:#edf5f7;}.cls-2{fill:#b4def0;}.cls-3{fill:#fff;}.cls-4{fill:#595959;}.cls-5{fill:#0092d2;}.cls-6{fill:#e7c1a0;}.cls-7{fill:#ffe817;}</style></defs><rect class="cls-1" width="262" height="262" rx="5"/><path class="cls-2" d="M5,1A4,4,0,0,0,1,5V257a4,4,0,0,0,4,4H257a4,4,0,0,0,4-4V5a4,4,0,0,0-4-4H5M5,0H257a5,5,0,0,1,5,5V257a5,5,0,0,1-5,5H5a5,5,0,0,1-5-5V5A5,5,0,0,1,5,0Z"/><path class="cls-3" d="M88.63,122.39c.9,0,11.43-9.18,11.43-9.18l15.9-3.59,3.14,12.77,6,4v8.52l8.74,19,17,15.68,9.85,4,8.74,6.05,4.7,1.34h6.72v7.84l-57.13,32.71-4.69-3.81L122,210l1.79-4.48L122,197l1.79-7L116,160.25l-8.29-15.46-6.27,1.12-3.59-8.73,2.24-2.24Z"/><path class="cls-4" d="M123.33,223.73,118.18,219H.5v-3H119.35l4.58,4.21,9.82-4.21H261.5v3H134.37Z"/><path class="cls-5" d="M120.06,208.73a8.2,8.2,0,1,0,7.75,14.45c.15-.08.3-.16.44-.25l52.66-30.4a8.2,8.2,0,0,0-8.2-14.2l-.69.4a21.08,21.08,0,0,0-9.18-6.91l2.07-1.2a2.64,2.64,0,0,0-2.64-4.58l-6.65,3.84a96,96,0,0,1-28.71-34.4,8,8,0,0,0,1-9.42l-1-1.83a7.56,7.56,0,0,0-6.51-3.88l-2.12-11.59c-.13-.23-.17-.82-.66-1.15-2.11-3.66-10.66,0-16.06,2.86l-4.1-7.1,2.52-1.45A2.5,2.5,0,0,0,101,98.56a1.74,1.74,0,0,0-.15-.26,2.5,2.5,0,0,0-3.35-1.11,1.35,1.35,0,0,0-.26.15l-2.52,1.45-2.51-4.35a2.64,2.64,0,1,0-4.58,2.64h0l2.51,4.35-2.52,1.45a2.5,2.5,0,0,0-1.12,3.35,1.35,1.35,0,0,0,.15.26A2.49,2.49,0,0,0,90,107.62a1.35,1.35,0,0,0,.26-.15L92.8,106l4.1,7.1c-5.13,3.27-12.62,8.81-10.47,13.07l.66,1.14,9,7.63a8.11,8.11,0,0,0,.1,7.57l1,1.84a8,8,0,0,0,8.51,3.63c8,12.2,13.07,26.34,15.44,42.07l-6.41,3.7a2.64,2.64,0,1,0,2.64,4.58l2.06-1.19a22.25,22.25,0,0,0,1.4,11.41l-.68.39Zm59.41-24.52a2.93,2.93,0,0,1-1.08,4l-52.65,30.4a2.91,2.91,0,1,1-2.91-5l52.65-30.4C176.73,182.12,178.67,182.83,179.47,184.21ZM99.64,131.07l-8.23-6.85c1.21-1.61,4.47-4.41,10.2-7.72a43.83,43.83,0,0,1,11.78-5l2,10.42Zm1,8.59a2.5,2.5,0,0,1,.71-3.47l.25-.15,17.18-9.91a2.5,2.5,0,0,1,3.46.71l.15.26,1.05,1.83a2.49,2.49,0,0,1-.71,3.46,1.28,1.28,0,0,1-.25.15l-17.17,9.92a2.51,2.51,0,0,1-3.47-.71l-.15-.26Zm9.83,5.92,12.13-7a104.53,104.53,0,0,0,28,34.21l-24.5,14.14A114.79,114.79,0,0,0,110.46,145.58ZM126.21,193l30-17.32a16,16,0,0,1,11.24,5.72l-41.9,24.19A14.85,14.85,0,0,1,126.21,193Z"/><path class="cls-6" d="M143,82.71c-17.16,17.92,7.31,37.43,24.79,32.41s7.43-8.89,7.43-8.89-12.47-1-9-9.91,18.19-33.47-2.31-26.76S143,82.71,143,82.71Z"/><path d="M146.75,80.65c2.16-2.17,7-5.53,17.77-9.06,6.32-2.07,12.07-.38,17.12,4.93,7.34,7.72,10.27,20.36,8.55,24.75-2.67,6.86-14.2,3-14.33,2.89a2.13,2.13,0,0,0-2.73,1.27,2.19,2.19,0,0,0,1.24,2.77,4.18,4.18,0,0,1,1.43.92c-.32.44-1.91,2-8.68,3.91-9,2.6-20.81-2.13-25.74-10.3-3.65-6.07-2.57-12.68,3.12-18.56a2.17,2.17,0,0,0,.57-1.2A6.56,6.56,0,0,1,146.75,80.65ZM192,106.35a9.75,9.75,0,0,0,2.26-3.53c2.48-6.35-1.15-20.52-9.44-29.26-6.23-6.55-13.7-8.68-21.61-6C145.39,73.37,141.7,79.27,141,81.69c-6.68,7.24-7.85,15.73-3.28,23.35,6,9.85,19.7,15.32,30.64,12.21,7.88-2.29,11.56-4.64,11.82-7.7,4.12.39,8.76-.18,11.78-3.2Z"/><path class="cls-6" d="M168.14,120.08c4.6,0,17.78-3.06,31.83,0,22.52,4.9,60.22,20.43,60.78,20.68V81.49c-25-9-50.93-17.66-57.53-19.37-20.6-5.34-51.86,8.38-74.74,16-23.64,7.88-11.92,15.22-3.81,13.73C135,90,157.36,83.37,162.8,82.71c11.41-1.44,28.37,22.15,5.34,22.11-16.56,0-27.2-5.84-28.22,3.31C139.16,114.87,155.11,120.08,168.14,120.08Z"/><path d="M259,137.67c-10.46-4.1-39.69-14.57-45.12-16.57-15.13-5.6-26.38-4.64-36.29-3.75-3.31.32-6.42.57-9.47.57-10.23,0-21.52-3.27-25.14-7.28-1.08-1.2-1-2-.95-2.29.19-1.84.82-2.35,1-2.51,1.55-1.23,5.78-.69,10.64,0A115.67,115.67,0,0,0,168.13,107c6.58,0,10.87-1.78,12.72-5.33,1.71-3.24,1-7.63-2-12-3.53-5.12-10.29-9.92-16.27-9.15-2.83.35-9.53,2.09-17.28,4.13-7.44,1.91-15.86,4.1-21,5.08-3.59.67-7.27-.79-7.59-2.06-.23-.79,1.65-3.88,12.49-7.53,3.91-1.31,8-2.77,12.29-4.29,21-7.47,44.78-16,61.27-11.7,1.2.31,53.47,18.08,54.78,18.36,3.06.44,4.16-1.09,2.14-3.6-1.13-.4-53.94-18.4-55.84-18.89-17.76-4.61-42.2,4.13-63.77,11.79-4.26,1.53-8.36,3-12.21,4.26-11.34,3.78-16.49,8-15.28,12.68,1.08,4.26,7.5,6.16,12.55,5.24,5.27-1,13.41-3.11,21.29-5.15,7.28-1.87,14.17-3.68,16.72-4,3.65-.48,9,2.73,12.17,7.34,2,2.92,2.7,5.75,1.78,7.5-1,2-4.16,3-8.86,3a105,105,0,0,1-13.83-1.12c-6.32-.79-10.9-1.42-13.88.93a7.55,7.55,0,0,0-2.67,5.4,7.1,7.1,0,0,0,2,5.65c5.09,5.66,18.37,8.71,28.35,8.71,3.24,0,6.45-.28,9.85-.57,9.47-.83,20.21-1.78,34.44,3.49,5.37,2,34.64,12.45,45,16.55C260.59,142.28,261.43,140.09,259,137.67Z"/><path d="M160.42,82.3a11.32,11.32,0,0,1-10.2,8,2.25,2.25,0,0,0-2.17,2.17,15.18,15.18,0,0,0,6,12.86,11.19,11.19,0,0,1,7.43-1,2.07,2.07,0,0,0-.82-.39,11,11,0,0,1-8.26-9.59,15.75,15.75,0,0,0,12.17-10.9C165.4,80.74,161.24,79.63,160.42,82.3Z"/><path d="M173.35,88.62a14.9,14.9,0,0,1-3-3,5.89,5.89,0,0,0-1.62,2.64A8.7,8.7,0,0,1,163.12,95a2.18,2.18,0,0,0-1,3.59,27.91,27.91,0,0,0,7.82,6.86c2.38,1.43,4.51-2.29,2.13-3.78a23.34,23.34,0,0,1-5-4C169.89,96,172.52,92,173.35,88.62Z"/><circle class="cls-7" cx="43" cy="40" r="18"/><path d="M43,25a15,15,0,1,0,10.61,4.39A15,15,0,0,0,43,25m0-3A18,18,0,1,1,25,40,18,18,0,0,1,43,22Z"/></svg>