<svg xmlns="http://www.w3.org/2000/svg" width="194.072" height="163.407" viewBox="0 0 194.072 163.407"><path d="M1110,3799.039v3.059l.863,1.568-.863,1.883,2.039,2.98,2.039,1.02-.627,1.256a54.816,54.816,0,0,0,4.471,3.764c.785.393,20.549,9.039,20.549,9.039l36.553,13.492,12.746,2.449h6.744l5.961-2.449,4.863-6.883,3.609-13.373,2.9-25.021s1.119-25,1.119-25.316-1.119-7.451-1.119-7.451l-3.43-4.547-8-4.236-7.963-1.178h-13.883l-1.648-17.412,1.648-3.412.668-6.746,3.686-2.2,3.607-2.98,3.215-4.863-3.215-8.707s-6.664-2.428-7.293-1.488-8.316,5.883-8.316,5.883l-6.039-5.1-12.785.705-4.471,5.49-1.568,3.217v3.139l.629,6.9.939,10.158,2.451,7.119,3.061,2.9,3.529,1.412,5.176-.861,1.646,7.373h-8.607l-7.687.98-6.744,2.273-3.648,3.568-2.98,4.551-.705,6.822.705,27.1-2.863-3.531-3.686-3.137h-3.922l-12.49,3.137,1.176,5.256Z" transform="translate(-1075.887 -3677)" fill="#c69870"/><g transform="translate(29.265)"><path d="M668.749,484.989v25.756a8.467,8.467,0,0,0-1.709-4.656c-3.289-4.591-8.5-2.93-11.738-.44a9.125,9.125,0,0,0-2.719,3.11s-1.726-5.731-11.494-5.535c-8.417.179-13.252,2.865-14.669,8.547a20.094,20.094,0,0,0-.2,7.554H592.589a7.385,7.385,0,0,1-4.754-1.709,7.484,7.484,0,0,1-2.735-5.78V484.989a7.5,7.5,0,0,1,7.489-7.489H661.26a7.5,7.5,0,0,1,7.489,7.489Z" transform="translate(-585.1 -477.5)" fill="#6b553d"/><path d="M700.321,558.363H650.682a.781.781,0,1,1,0-1.563h49.639a.781.781,0,1,1,0,1.563Z" transform="translate(-639.35 -543.89)" fill="#fff"/><path d="M672.272,618.363h-21.49a.781.781,0,1,1,0-1.563h21.49a.771.771,0,0,1,.781.781A.782.782,0,0,1,672.272,618.363Z" transform="translate(-639.434 -594.121)" fill="#fff"/></g><g transform="translate(121.64 64.226)"><path d="M1224.932,872.016v51.072h-58.268c.7-8.677,1.091-17.729,1.042-26.114-.065-11.445-6.577-15.173-15.206-16.362V872h72.432Z" transform="translate(-1152.5 -872)" fill="#0092d2"/><circle cx="0.977" cy="0.977" r="0.977" transform="matrix(0.911, -0.412, 0.412, 0.911, 64.114, 30.531)" fill="#fff"/><circle cx="0.977" cy="0.977" r="0.977" transform="matrix(0.911, -0.412, 0.412, 0.911, 64.113, 36.784)" fill="#fff"/><path d="M1299.96,969.98c-.781,1.172-1.579,2.344-2.361,3.517-.57.83.8,1.628,1.351.781.781-1.172,1.579-2.344,2.361-3.5C1301.865,969.931,1300.514,969.15,1299.96,969.98Z" transform="translate(-1273.863 -953.732)" fill="#fff"/><path d="M1383.588,980.863h-27.107a.781.781,0,1,1,0-1.563h27.107a.782.782,0,0,1,.781.781A.772.772,0,0,1,1383.588,980.863Z" transform="translate(-1322.618 -961.831)" fill="#fff"/><path d="M1379.439,1057.663h-22.858a.781.781,0,1,1,0-1.563h22.858a.781.781,0,0,1,0,1.563Z" transform="translate(-1322.702 -1026.128)" fill="#fff"/><path d="M1458.226,872.1H1456.5a26.881,26.881,0,0,0,22.939,15.841v-1.563A25.318,25.318,0,0,1,1458.226,872.1Z" transform="translate(-1407.007 -872.084)" fill="#fff"/></g><g transform="translate(27.934 19.208)"><path d="M-14426.781-19516.154v26.266l36.875,11.619,5.557-35.7Z" transform="translate(14471.18 19596.791)" fill="#0092d2"/><g transform="translate(28.725 52.382)"><path d="M784.371,917.31c-8.922-.309-19.976.081-26.228,5.926a15.29,15.29,0,0,0-4.672,11.12c-.244,7.7-.016,19.178.293,29.028.554.619,1.107,1.254,1.628,1.9-.342-10.224-.619-22.695-.342-30.884a13.779,13.779,0,0,1,4.184-10.029c5.828-5.454,16.476-5.8,25.1-5.5h.033a.775.775,0,0,0,.781-.749A.833.833,0,0,0,784.371,917.31Z" transform="translate(-753.368 -917.234)" fill="#201000"/><path d="M845.572,974.383a.778.778,0,0,1-.781-.765l-.391-26.781a.764.764,0,0,1,.244-.57.794.794,0,0,1,.586-.212l41.5,2.67c-.619-6.529-2.3-28.849,3.517-29.451a.786.786,0,1,1,.163,1.563c-3.37.342-3.224,16.964-2.035,28.654a.784.784,0,0,1-.212.619.81.81,0,0,1-.619.244l-41.564-2.686.374,25.935a.782.782,0,0,1-.781.781Z" transform="translate(-829.58 -918.938)" fill="#201000"/><path d="M838.146,954.566a.784.784,0,0,1-.781-.733L836,928.419a.805.805,0,0,1,.733-.83.783.783,0,0,1,.83.733l1.368,25.414a.805.805,0,0,1-.733.83Z" transform="translate(-822.544 -925.901)" fill="#201000"/></g><g transform="translate(36.248 0)"><path d="M1030.121,619.549a12.932,12.932,0,0,0-3.614-4.347,35.538,35.538,0,0,1-7-7.8c-2.54-4.021-4.884-8.629-9.3-10.892-5.5-2.833-14.115.342-11.917,7.619.293.961,1.807.554,1.514-.407v-.016c.2.049.391.1.57.146.635.179,1.27.358,1.9.57a8.959,8.959,0,0,1,5.894-1.612,5.725,5.725,0,0,1,3.858,2.507,7.093,7.093,0,0,1,1.286,6.349,10,10,0,0,1-2.735,4.217c.1.619.2,1.237.309,1.84.016.065.016.13.033.179.847,4.314,2.621,8.677,6.724,10.892C1023.8,632.117,1033.475,627.266,1030.121,619.549Z" transform="translate(-965.646 -595.484)" fill="#201000"/><path d="M834.858,609.623a9.126,9.126,0,0,0-2.719,3.11S830.413,607,820.645,607.2c-8.417.179-13.252,2.865-14.669,8.547-7.7-3.158-8.873-12.894-1.221-13.757C812.391,601.125,829.6,601.743,834.858,609.623Z" transform="translate(-799.574 -600.682)" fill="#201000"/><path d="M1035.44,747.15c-.146.114-.293.228-.44.326a25,25,0,0,0,.733-7.684,20.128,20.128,0,0,0,3.549-1.791C1039.77,741.272,1038.875,744.4,1035.44,747.15Z" transform="translate(-996.672 -714.798)" fill="#201000"/><path d="M1098.9,682.2v0Z" transform="translate(-1050.168 -667.664)" fill="#fff"/><path d="M875.058,641.441a12.214,12.214,0,0,1-3.907,5.617,20.822,20.822,0,0,1-5.389,3.256c.065,1.823.081,7.456-2.361,10.647.179,1.514.944,8.124,1.823,17.078a.8.8,0,0,1-.7.863.786.786,0,0,1-.863-.7c-1.009-10.159-1.856-17.29-1.872-17.371a.744.744,0,0,1,.179-.6c2.7-3.191,2.182-10.289,2.182-10.371a.766.766,0,0,1,.488-.781,18.708,18.708,0,0,0,6.17-3.842,10,10,0,0,0,2.735-4.217,7.083,7.083,0,0,0-1.286-6.349,5.726,5.726,0,0,0-3.858-2.507,8.889,8.889,0,0,0-5.893,1.612c-.293.2-.586.407-.879.619a8.513,8.513,0,0,0-2.475,2.8.805.805,0,0,1-.765.472.785.785,0,0,1-.7-.554c-.065-.212-1.726-5.177-10.745-4.966-8.189.179-12.617,2.7-13.936,7.945a19.438,19.438,0,0,0-.2,7.115c.163,1.237.309,2.491.472,3.745.863,7.049,1.758,14.327,4.184,17.013,2.768,3.077,5.861,3.044,9.947,1.986a.851.851,0,0,1,.6.081.827.827,0,0,1,.358.488l2.931,12.7a.785.785,0,0,1-.586.944.667.667,0,0,1-.179.016.783.783,0,0,1-.765-.6l-2.751-11.934c-4.184.961-7.636.8-10.729-2.654-2.751-3.061-3.631-10.257-4.575-17.876-.146-1.237-.309-2.491-.472-3.728a20.786,20.786,0,0,1,.228-7.7c1.5-5.959,6.529-8.938,15.418-9.133,7.326-.146,10.387,2.865,11.592,4.705a12.122,12.122,0,0,1,2.1-2.084c.016-.016.049-.033.065-.049,1.221-.944,4.412-3.061,7.945-2.54a7.23,7.23,0,0,1,4.9,3.142A8.581,8.581,0,0,1,875.058,641.441Z" transform="translate(-825.886 -624.8)" fill="#201000"/><path d="M872.484,709.92a.83.83,0,0,1-.5-.179c-3.777-3.207-3.191-7.977-.9-15.125a.777.777,0,0,1,1.482.472c-2.442,7.6-2.328,11.12.423,13.448a.777.777,0,0,1,.081,1.107A.726.726,0,0,1,872.484,709.92Z" transform="translate(-857.909 -678.024)" fill="#201000"/><circle cx="0.977" cy="0.977" r="0.977" transform="matrix(0.911, -0.412, 0.412, 0.911, 22.843, 19.22)" fill="#201000"/><circle cx="0.977" cy="0.977" r="0.977" transform="matrix(0.911, -0.412, 0.412, 0.911, 7.767, 20.863)" fill="#201000"/><path d="M948.248,778.021a3.049,3.049,0,0,0,2.393-4.184c-.374-.928,1.058-1.579,1.433-.651a4.635,4.635,0,0,1-3.565,6.382A.785.785,0,0,1,948.248,778.021Z" transform="translate(-923.513 -743.878)" fill="#201000"/><path d="M932.875,684.5a.808.808,0,0,1,.863-.7c.44.016.879.033,1.3.033a.8.8,0,0,1,.7.863.808.808,0,0,1-.863.7c-.44-.016-.879-.033-1.3-.033A.8.8,0,0,1,932.875,684.5Z" transform="translate(-911.169 -669.418)" fill="#201000"/><path d="M846.885,687.433l.9-.407a.788.788,0,0,1,.651,1.433l-.9.407A.787.787,0,0,1,846.885,687.433Z" transform="translate(-838.806 -672.062)" fill="#201000"/><path d="M1021.878,673.386h-.033a.783.783,0,0,1-.749-.814c.081-2.068,2.328-6.512,5.584-7.277a.786.786,0,0,1,.358,1.53c-2.523.586-4.314,4.412-4.379,5.812A.775.775,0,0,1,1021.878,673.386Z" transform="translate(-985.032 -653.912)" fill="#201000"/><path d="M950.827,628.186a9.635,9.635,0,0,0-6.3-1.9.576.576,0,0,0-.179.049c-.081-.179-.179-.358-.26-.537-.407-.928-1.742-.114-1.351.8a12.545,12.545,0,0,0,5.031,5.8c1.384.83,3.793,1.823,4.835-.033C953.5,630.758,952.016,629.081,950.827,628.186Z" transform="translate(-919.369 -620.515)" fill="#201000"/></g><g transform="translate(0 52.338)"><path d="M602.352,1136.555l-3.012-.472a4.42,4.42,0,0,1-1.058-.7c-1.872-1.579-13.138-7.619-13.122-5.6.016,3.3,11.51,7.505,9.638,11.461l-7.049-3.044a9.176,9.176,0,0,1-4.005-1.188l-6.675-15.418a1.715,1.715,0,0,1,1.563-2.393h16.15a1.735,1.735,0,0,1,1.579,1.026l2.556,5.942a2.41,2.41,0,0,0-2.035.749c-1.091,1.335,2.3,1.954,4.152,4.151l1.091,2.524C602.206,1134.487,602.336,1136.474,602.352,1136.555Z" transform="translate(-576.926 -1086.274)" fill="#201000"/><path d="M709.086,1008.82c-8.808,0-22.386-4.217-44.446-12.845-28.849-11.3-31.079-13.024-33.766-16.8a.782.782,0,0,1,1.27-.912c2.426,3.419,4.721,5.161,33.066,16.264,42.752,16.736,51.739,15.727,57.047,4.2,2.751-6.007,5.356-20.578,6.805-38.047.733-9,1.091-18.006,1.042-26.049-.065-9.524-4.412-14.2-14.522-15.58a98.836,98.836,0,0,0-13.545-.521c-1.579.016-3.158.016-4.721,0a.782.782,0,0,1-.781-.781.771.771,0,0,1,.781-.781c1.563.016,3.126,0,4.705,0a102.577,102.577,0,0,1,13.773.537c6.773.928,15.792,3.728,15.873,17.127.049,8.075-.309,17.127-1.042,26.179-1.449,17.632-4.119,32.414-6.935,38.568C720.808,1005.613,716.754,1008.82,709.086,1008.82Z" transform="translate(-621.974 -916.959)" fill="#201000"/><path d="M623.613,1261.1a.963.963,0,0,1-.228-.033c-.944-.293-1.84-.57-2.686-.814-5.535-1.644-9.2-2.735-9.2-8.075a.781.781,0,0,1,1.563,0c0,4.168,2.523,4.917,8.075,6.577.847.244,1.742.521,2.7.83a.78.78,0,0,1,.5.977A.767.767,0,0,1,623.613,1261.1Z" transform="translate(-605.871 -1196.952)" fill="#201000"/><path d="M619.412,1230.606a.729.729,0,0,1-.326-.065c-.83-.375-1.612-.733-2.377-1.058-5.487-2.426-9.833-4.347-7.717-9.638a.778.778,0,1,1,1.449.57c-1.5,3.745.879,4.966,6.9,7.619.765.342,1.563.684,2.393,1.074a.793.793,0,0,1,.391,1.042A.781.781,0,0,1,619.412,1230.606Z" transform="translate(-603.315 -1170.118)" fill="#201000"/><path d="M691.542,1186.78a.957.957,0,0,1-.228-.033c-1.921-.6-46.969-14.88-51.3-17.078-3.224-1.644-4.852-4.3-6.17-6.447a16.773,16.773,0,0,0-1.53-2.247,6.923,6.923,0,0,0-4.575-2.312h-.033a1.468,1.468,0,0,0-1.221.472h0a6.5,6.5,0,0,0,1.254.879c1.514.928,3.6,2.214,4.119,4.705.521,2.442-.228,3.468-.944,3.907-1.221.733-2.963.065-4.135-.928-2.279-1.921-10.843-6.235-12.113-5.617-.212.212-.358.44-.342.57.065.5,1.579,1.351,2.914,2.116a25.165,25.165,0,0,1,6.887,5.079c.521.554,1.677,1.986,1.009,3-.57.879-1.954.83-4.721-.179-2.23-.8-3.777-1.2-4.9-1.5-2.182-.57-3.077-.8-3.907-2.865a.778.778,0,1,1,1.449-.57c.537,1.335.749,1.384,2.849,1.921a49,49,0,0,1,5.031,1.53,9.1,9.1,0,0,0,2.751.7,5.006,5.006,0,0,0-.716-.993,23.88,23.88,0,0,0-6.48-4.77c-2.051-1.156-3.533-1.986-3.7-3.272a2.3,2.3,0,0,1,.83-1.921c2.23-2.165,13.2,4.754,14.18,5.568.944.8,1.921,1.026,2.328.781.374-.228.456-1.091.228-2.23-.391-1.84-2.068-2.882-3.419-3.7-1.042-.635-1.872-1.156-2-1.986a1.449,1.449,0,0,1,.374-1.221,3.066,3.066,0,0,1,2.409-1.042h.065a8.391,8.391,0,0,1,5.763,2.849,18.993,18.993,0,0,1,1.677,2.458c1.27,2.068,2.7,4.412,5.535,5.861,4.217,2.149,50.6,16.834,51.056,16.98a.78.78,0,0,1,.5.977A.87.87,0,0,1,691.542,1186.78Z" transform="translate(-605.911 -1118.004)" fill="#201000"/><path d="M1073.254,1137.785a.275.275,0,0,1-.114-.016.8.8,0,0,1-.667-.9l5.275-35.768a.772.772,0,0,1,.879-.651.8.8,0,0,1,.667.9l-5.275,35.768A.771.771,0,0,1,1073.254,1137.785Z" transform="translate(-991.791 -1070.572)" fill="#201000"/></g></g><g transform="translate(0 56.354)"><path d="M606.7,964.9h38.351v43.238L634.9,995.323H606.7Z" transform="translate(-605.196 -963.396)" fill="#fff"/><path d="M641.755,1006.346a1.421,1.421,0,0,0,.5-.094,1.519,1.519,0,0,0,1-1.41V961.6a1.485,1.485,0,0,0-1.5-1.5H603.4a1.5,1.5,0,0,0-1.5,1.5v30.423a1.485,1.485,0,0,0,1.5,1.5h27.478l9.713,12.251A1.439,1.439,0,0,0,641.755,1006.346Zm-1.5-43.238v37.41l-7.457-9.431a1.455,1.455,0,0,0-1.191-.564h-26.7V963.108Z" transform="translate(-601.9 -960.1)" fill="#201000"/><path d="M642.906,992.188c1.316-3.979,6.2-2.632,8.272,2.256,2.068-4.888,6.924-6.235,8.272-2.256,2.036,6.141-8.084,13.41-8.272,13.535h0C651.021,1005.6,640.87,998.36,642.906,992.188Z" transform="translate(-631.125 -980.532)" fill="#f76567"/></g></svg>