<svg xmlns="http://www.w3.org/2000/svg" width="32.317" height="42" viewBox="0 0 32.317 42"><g transform="translate(-480.8 -407.427)"><path d="M485.6,427.863l.1,24.693s22.663.086,25.795-.1c4.423-.258,5.386-5.42,1.325-5.661,0,0,3.442-.138,3.424-2.719s-3.941-3.3-3.941-3.3,3.923-.138,3.8-2.6c-.138-2.581-3.579-2.925-3.579-2.925s3.562-.723,3.545-3.7c-.017-4.784-7.64-4.887-12.424-4.87,0,0,7.313-13.3,3.631-14.386s-8.432,11.822-10.635,13.68S485.6,427.863,485.6,427.863Z" transform="translate(-3.974 -3.972)" fill="#fff"/><path d="M492.209,449.427c-5.334,0-10.067-.017-10.48-.017a.826.826,0,0,1-.826-.826l-.1-24.693a.826.826,0,0,1,.826-.826c3.3-.017,9.086-.482,10.514-1.686A23.9,23.9,0,0,0,495,416.749c2.564-4.749,5.489-10.118,8.535-9.223a2.112,2.112,0,0,1,1.377,1.273c1.17,2.839-2.237,9.946-3.872,13.078a30.584,30.584,0,0,1,6.832.654c3.338.826,5.042,2.512,5.059,5.042a4.212,4.212,0,0,1-2.031,3.579,3.608,3.608,0,0,1,2.065,3.011,2.72,2.72,0,0,1-.706,2,3.64,3.64,0,0,1-1.153.826,3.684,3.684,0,0,1,2.013,3.115,3.186,3.186,0,0,1-1.755,2.874,2.956,2.956,0,0,1,.895,2.134c0,1.927-1.738,4.027-4.681,4.216C505.855,449.41,498.61,449.427,492.209,449.427Zm-9.654-1.669c4.1.017,22.181.052,24.917-.1,2.151-.138,3.132-1.566,3.115-2.564,0-.86-.654-1.394-1.79-1.445a.827.827,0,0,1,.017-1.652c.1,0,2.65-.138,2.633-1.893,0-1.824-3.235-2.478-3.269-2.5a.827.827,0,0,1-.671-.878.849.849,0,0,1,.792-.774,4.537,4.537,0,0,0,2.736-.946,1,1,0,0,0,.275-.792c-.1-1.841-2.8-2.151-2.839-2.151a.819.819,0,0,1-.086-1.618c.12-.017,2.891-.637,2.891-2.891,0-1.067-.4-2.6-3.8-3.442a34.108,34.108,0,0,0-7.8-.6.733.733,0,0,1-.706-.4.833.833,0,0,1-.017-.826c2.151-3.923,5.266-10.875,4.44-12.889a.445.445,0,0,0-.327-.31c-1.79-.533-4.8,5.076-6.625,8.415-1.325,2.426-2.358,4.354-3.252,5.094-2.031,1.7-8.363,2.013-10.755,2.065Z" fill="#6b553d"/><path d="M579.524,615.453a.294.294,0,0,1-.12-.017,4.592,4.592,0,0,1-3.046-1.893,3.18,3.18,0,0,1-.482-2.564c.74-2.994,5.2-2.943,9.12-2.874.895.017,1.721.017,2.444,0a.816.816,0,0,1,.86.792.838.838,0,0,1-.792.86c-.757.034-1.618.017-2.53,0-2.994-.034-7.073-.1-7.5,1.618a1.537,1.537,0,0,0,.241,1.239,3.011,3.011,0,0,0,1.91,1.17.824.824,0,0,1,.688.946A.776.776,0,0,1,579.524,615.453Z" transform="translate(-78.642 -166.129)" fill="#6b553d"/><path d="M576.71,581.119a.292.292,0,0,1-.12-.017,4.793,4.793,0,0,1-3.1-2.134,3.426,3.426,0,0,1-.533-2.822c.792-2.839,5.334-2.839,9.344-2.839.792,0,1.549,0,2.22-.017a.816.816,0,0,1,.86.792.838.838,0,0,1-.792.86c-.688.034-1.463.034-2.271.034-2.908,0-7.3,0-7.761,1.635a1.919,1.919,0,0,0,.327,1.48,3.089,3.089,0,0,0,1.962,1.394.824.824,0,0,1,.688.946A.847.847,0,0,1,576.71,581.119Z" transform="translate(-76.207 -137.319)" fill="#6b553d"/><path d="M576.325,548.578a1.162,1.162,0,0,1-.241-.034c-4.044-1.222-3.8-3.751-3.528-4.784.792-2.8,5.782-2.77,10.187-2.753.912,0,1.755.017,2.461-.017a.816.816,0,0,1,.86.792.838.838,0,0,1-.792.86c-.723.034-1.6.017-2.53.017-3.046-.017-8.139-.052-8.587,1.549-.138.465-.516,1.858,2.409,2.753a.834.834,0,0,1,.551,1.032A.811.811,0,0,1,576.325,548.578Z" transform="translate(-75.857 -110.577)" fill="#6b553d"/><path d="M572.678,517.128a.293.293,0,0,1-.12-.017,4.623,4.623,0,0,1-3.1-1.944,2.991,2.991,0,0,1-.413-2.512c.792-2.839,5.335-2.839,9.344-2.839.792,0,1.549,0,2.22-.017a.827.827,0,1,1,.069,1.652c-.688.017-1.463.034-2.272.034-2.908,0-7.3,0-7.761,1.635a1.439,1.439,0,0,0,.207,1.17,2.949,2.949,0,0,0,1.962,1.2.824.824,0,0,1,.688.946A.847.847,0,0,1,572.678,517.128Z" transform="translate(-72.966 -84.754)" fill="#6b553d"/></g></svg>