<svg xmlns="http://www.w3.org/2000/svg" width="30" height="30" viewBox="0 0 30 30"><path d="M15,0A15,15,0,1,1,0,15,15,15,0,0,1,15,0Z" fill="#34b7ff"/><g transform="translate(6.118 8.45)"><g transform="translate(0)"><path d="M10.624,19.726A1.125,1.125,0,0,1,9.8,19.36L4.305,13.449a1.154,1.154,0,0,1,.051-1.618,1.123,1.123,0,0,1,1.6.051L10.613,16.9,20.12,6.384a1.124,1.124,0,0,1,1.1-.406,1.135,1.135,0,0,1,.866.793,1.152,1.152,0,0,1-.291,1.145L11.461,19.348a1.125,1.125,0,0,1-.825.377Z" transform="translate(-3.999 -5.956)" fill="#fff"/></g></g></svg>