<svg xmlns="http://www.w3.org/2000/svg" width="500" height="343" viewBox="0 0 500 343"><g transform="translate(-661.7 -284.4)"><rect width="500" height="312" transform="translate(661.7 315.4)" fill="#faf7f5"/><g transform="translate(661.7 284.4)"><rect width="500" height="30.715" fill="#dadada"/><g transform="translate(426.002 8.621)"><path d="M1662.6,326.169a1.206,1.206,0,0,1-.83-.342l-10.545-10.545a1.174,1.174,0,0,1,1.66-1.66l10.545,10.545a1.164,1.164,0,0,1,0,1.66A1.251,1.251,0,0,1,1662.6,326.169Z" transform="translate(-1601.06 -312.695)" fill="#201000"/><path d="M1651.953,326.169a1.205,1.205,0,0,1-.83-.342,1.164,1.164,0,0,1,0-1.66l10.545-10.545a1.174,1.174,0,0,1,1.66,1.66l-10.545,10.545A1.162,1.162,0,0,1,1651.953,326.169Z" transform="translate(-1600.984 -312.695)" fill="#201000"/><path d="M1563.474,324.374h-12.3A1.157,1.157,0,0,1,1550,323.2V312.072a1.157,1.157,0,0,1,1.172-1.172h12.3a1.157,1.157,0,0,1,1.172,1.172V323.2A1.172,1.172,0,0,1,1563.474,324.374Zm-11.131-2.343h9.959v-8.787h-9.959Z" transform="translate(-1524.808 -310.9)" fill="#201000"/><path d="M1459.688,337.243h-11.717a1.172,1.172,0,0,1,0-2.343h11.717a1.157,1.157,0,0,1,1.172,1.172A1.188,1.188,0,0,1,1459.688,337.243Z" transform="translate(-1446.8 -329.041)" fill="#201000"/></g></g><g transform="translate(867.543 315.115)"><g transform="translate(0 61.943)"><path d="M-13216.18-10936.746l11.922-2.292,13.757,2.292,6.418,11v11.923l-6.418,7.795-13.757,3.208-16.508,2.294Z" transform="translate(13403.136 10939.038)" fill="#fff"/><path d="M-13330.729-10825.851v11l9.172,46.31,33.473-51.812-5.044-9.63Z" transform="translate(13457.157 10885.288)" fill="#fff"/><path d="M1042.529,795l79.6-145.26,12.284-12.473h14.332l17.881,4.585,11,51.355,32.1-51.355,44.936-9.629,19.258,5.044,14.215,18.8,38.975,98.583v21.8l-12.248,22.035-272.334,3.389Z" transform="translate(-1041.114 -576.335)" fill="#9f876d"/><line x1="52.568" y2="103.545" transform="translate(43.455 117.789)" fill="none" stroke="#201000" stroke-linecap="round" stroke-width="5"/><path d="M188.956,196.069,141.2,200.862l-14.945,6.847-9.3,10.682-2.572,17.8h90.406l-3.76-22.354Z" transform="translate(-24.918 -18.959)" fill="#fff"/><path d="M308.647,1027.211H494.071a2.536,2.536,0,0,0,1.542-.547c.3-.249.6-.547.9-.8,22.133-20.84,8.455-52.523-8.9-92.612-5.073-11.738-10.346-23.874-15.071-36.657-17.309-46.654-41.382-39.243-66.9-31.385a176.313,176.313,0,0,1-19.4,5.173,2.38,2.38,0,0,0,.9,4.675,179.479,179.479,0,0,0,19.9-5.322c25.267-7.759,45.262-13.927,60.979,28.5,4.775,12.882,10.047,25.068,15.17,36.856,16.612,38.348,29.743,68.688,10.146,87.141l-.149.149H310.687c-1.84-13.976,8.8-25.167,17.01-28.45,21.735-8.7,51.728-8.505,93.209-8.256,7.113.05,14.523.1,22.283.1a2.373,2.373,0,0,0,2.238-3.183L423.94,922.91a2.375,2.375,0,0,0-4.476,1.592L439.807,981c-6.516,0-12.783-.05-18.851-.1-42.029-.249-72.369-.448-95,8.6-10.4,4.128-23.327,18.005-19.6,35.762A2.3,2.3,0,0,0,308.647,1027.211Z" transform="translate(-219.095 -806.304)" fill="#201000"/><path d="M407.812,1103.4c4.526.2,9.1.348,13.628.547,3.034.1,3.432,4.874.348,4.775-4.526-.2-9.1-.348-13.628-.547C405.176,1108.022,404.778,1103.247,407.812,1103.4Z" transform="translate(-184.763 -928.84)" fill="#201000"/><path d="M565.783,1035.936a1.828,1.828,0,0,0,1.607-1.135c.206-.432,57.717-111.817,73.379-140.033,15.084-27.189,20.442-25.783,46.572-13.783,1.03.486,2.143-.216,2.514-1.568a2.835,2.835,0,0,0-1.2-3.3c-26.789-12.324-34.5-14.27-51.065,15.621-15.661,28.27-73.173,139.655-73.42,140.087a3.141,3.141,0,0,0,.495,3.621A1.621,1.621,0,0,0,565.783,1035.936Z" transform="translate(-563.821 -810.467)" fill="#201000"/><path d="M540.982,1150.157a2.388,2.388,0,0,0,2.388-2.387c.149-21.089-6.814-36.16-20.144-43.471a2.382,2.382,0,1,0-2.288,4.178c11.838,6.565,17.756,19.746,17.657,39.293a2.455,2.455,0,0,0,2.387,2.387Z" transform="translate(-360.907 -929.251)" fill="#201000"/></g><g transform="translate(101.043)"><path d="M44.586,59.408S9.807,90.7,15.767,126.463s65.569,0,65.569,0L97.431,74.6Z" transform="translate(-7.409 -29.186)" fill="#fff"/><path d="M486.6,632.372a14.407,14.407,0,0,1,1.542-5.272h24.023c2.487,1.89,4.775,3.929,6.764,5.62a97.247,97.247,0,0,1,16.016,17.508,9.355,9.355,0,0,1,2.537-6.217c3.482-3.531,7.859-2.835,11.44.149,11.44,9.5,17.408,28.4,20.393,42.327a1.746,1.746,0,0,1-2.188,2.039.049.049,0,0,1-.05.05c-.348.3-.647.6-.995.846-3.979.5-7.411,1.691-9.351,3.134,0,0,3.382-13.927-17.01-25.317-17.557-9.848-30.788-10.146-40.586-.2-.05-.05-.149-.1-.249-.2a1.637,1.637,0,0,1-.9-.249c-5.471-2.984-14.772-9.8-9.3-17.16A6.475,6.475,0,0,1,492.019,647C488.637,642.768,486,637.943,486.6,632.372Z" transform="translate(-471.429 -627.1)" fill="#201000"/><path d="M475.146,840.676a2.423,2.423,0,0,0,2.039-1.144L509.018,787.8a2.261,2.261,0,0,0,.3-1.79c-.448-1.99-1.094-5.173-1.393-7.212,8.306-3.979,14.673-14.573,16.861-18.552,12.285,1.592,23.427-1.045,29.992-7.162,4.825-4.526,7.063-10.793,6.416-18.154a17.9,17.9,0,0,0-6.466-12.783c-6.814-5.471-16.115-4.974-19.845-4.526a29.818,29.818,0,0,0-6.516,1.542c-.448-5.521-3.631-15.22-18.353-23.476-18.751-10.495-32.976-10.445-43.471.2-3.78,3.83-7.013,8.953-9.9,15.717-1.144,2.736-2.387,5.521-3.531,8.256-7.361,16.911-14.275,32.927-12.285,42.725h0c1.89,9.351,9.3,16.165,21.984,20.144l.5,8.7c0,.149.05.249.05.4,1.641,7.013,2.935,14.225,4.228,21.188,1.542,8.406,3.133,17.11,5.322,25.814a2.4,2.4,0,0,0,1.94,1.791C474.9,840.676,475.047,840.676,475.146,840.676Zm29.3-54.563-28.3,46.008c-1.492-6.715-2.736-13.38-3.929-19.9-1.293-6.963-2.586-14.175-4.228-21.238l-.6-10.146a2.331,2.331,0,0,0-1.741-2.139c-11.987-3.432-18.652-9-20.243-17.01h0c-1.691-8.306,5.272-24.372,11.987-39.84,1.194-2.736,2.387-5.521,3.581-8.256a46.317,46.317,0,0,1,8.9-14.275c8.9-9.052,20.89-8.853,37.751.6,18.4,10.3,15.966,22.233,15.866,22.73a2.421,2.421,0,0,0,1.045,2.537,2.4,2.4,0,0,0,2.736-.05c1.641-1.194,4.825-2.238,8.257-2.686,6.466-.8,12.534.5,16.264,3.482a13.046,13.046,0,0,1,4.725,9.5c.547,5.919-1.094,10.694-4.874,14.225-5.72,5.322-16.314,7.51-27.7,5.72a2.369,2.369,0,0,0-2.537,1.293c-.1.149-7.56,15.22-16.762,18.453a2.359,2.359,0,0,0-1.592,2.338C503,779.2,503.994,783.925,504.442,786.113ZM443.065,762.14Z" transform="translate(-440.481 -657.64)" fill="#201000"/><path d="M596.081,763.359a1.747,1.747,0,0,0,.995-.249,2.4,2.4,0,0,0,1.144-3.183c-3.034-6.416-.4-12.633,10.445-24.67a2.394,2.394,0,0,0-3.531-3.233c-10.544,11.688-15.767,20.343-11.241,29.942A2.385,2.385,0,0,0,596.081,763.359Z" transform="translate(-563.952 -679.451)" fill="#201000"/><ellipse cx="2.984" cy="2.984" rx="2.984" ry="2.984" transform="translate(59.535 65.803)" fill="#201000"/><ellipse cx="2.984" cy="2.984" rx="2.984" ry="2.984" transform="translate(26.509 54.662)" fill="#201000"/><path d="M543.531,741.044a2.465,2.465,0,0,1,3.382.05l2.984,2.686a2.392,2.392,0,1,1-3.432,3.333l-2.984-2.686A2.372,2.372,0,0,1,543.531,741.044Z" transform="translate(-480.615 -684.045)" fill="#201000"/><path d="M610.963,720.6h2.984c3.084,0,3.084,4.775,0,4.775h-2.984C607.879,725.375,607.879,720.6,610.963,720.6Z" transform="translate(-579.083 -674.095)" fill="#201000"/><path d="M470.406,786.53a2.352,2.352,0,0,0,2.139-1.343c1.243-2.487,7.56-7.66,12.236-6.764a2.409,2.409,0,0,0,.945-4.725c-7.212-1.442-15.419,5.222-17.458,9.3a2.364,2.364,0,0,0,1.044,3.183A1.594,1.594,0,0,0,470.406,786.53Z" transform="translate(-380.531 -700.682)" fill="#201000"/><path d="M588.812,725.714c-7.162,18.055-10.246,38.4-24.272,45.759-11.639,6.118-27.853-19.1-51.727-9.55,0,0-12.733,21.885,7.162,32.23s40.586,9.152,54.513-.8c6.317-4.476,12.484-9.649,15.518-17.508,3.681-9.55,3.581-22.681,3.581-38.6C593.587,708.207,588.812,725.714,588.812,725.714Z" transform="translate(-506.746 -674.037)" fill="#201000"/><path d="M564.9,837.849a5.257,5.257,0,0,0,8.008-3.432c.7-2.984,5.372-1.89,4.626,1.094a10.058,10.058,0,0,1-14.921,6.516C559.981,840.534,562.219,836.307,564.9,837.849Z" transform="translate(-516.959 -730.414)" fill="#fff"/></g></g><g transform="translate(661.7 597.965)"><rect width="500" height="29.435" transform="translate(0 0)" fill="#595959"/><rect width="449.8" height="5" rx="2.5" transform="translate(32.201 12.217)" fill="#fff"/><rect width="74" height="5" rx="2.5" transform="translate(32.201 12.217)" fill="#bbb"/></g><path d="M6.559,2.224a2,2,0,0,1,3.235,0l4.249,5.842a2,2,0,0,1-1.617,3.176h-8.5A2,2,0,0,1,2.31,8.066Z" transform="translate(686.076 604.506) rotate(90)" fill="#fff"/><g transform="translate(681.988 406.398)"><g transform="translate(0 36.999)" fill="none" stroke="#595959" stroke-width="4"><rect width="71" height="71" rx="10" stroke="none"/><rect x="2" y="2" width="67" height="67" rx="8" fill="none"/></g><g transform="translate(31.5 84.999)" fill="none" stroke="#0092d2" stroke-width="4"><circle cx="39.5" cy="39.5" r="39.5" stroke="none"/><circle cx="39.5" cy="39.5" r="37.5" fill="none"/></g><g transform="translate(-18.322 0.369)"><line x2="35.371" transform="translate(138.84 113.629)" fill="none" stroke="#595959" stroke-linecap="round" stroke-width="4"/><line x2="65.693" transform="translate(138.84 143.152)" fill="none" stroke="#595959" stroke-linecap="round" stroke-width="4"/><line x2="57.711" transform="translate(138.822 157.152)" fill="none" stroke="#595959" stroke-linecap="round" stroke-width="4"/></g><path d="M14.69,26.147a1.138,1.138,0,0,1,0,1.6,1.11,1.11,0,0,1-1.582,0L.328,14.837a1.138,1.138,0,0,1,0-1.6L13.108.331a1.11,1.11,0,0,1,1.582,0,1.138,1.138,0,0,1,0,1.6L3.034,14.039Z" transform="translate(115.218 76.629) rotate(180)" fill="#595959"/><path d="M14.69,26.147a1.138,1.138,0,0,1,0,1.6,1.11,1.11,0,0,1-1.582,0L.328,14.837a1.138,1.138,0,0,1,0-1.6L13.108.331a1.11,1.11,0,0,1,1.582,0,1.138,1.138,0,0,1,0,1.6L3.034,14.039Z" transform="translate(134.538 76.629) rotate(180)" fill="#f99"/><path d="M14.69,26.147a1.138,1.138,0,0,1,0,1.6,1.11,1.11,0,0,1-1.582,0L.328,14.837a1.138,1.138,0,0,1,0-1.6L13.108.331a1.11,1.11,0,0,1,1.582,0,1.138,1.138,0,0,1,0,1.6L3.034,14.039Z" transform="translate(153.857 76.629) rotate(180)" fill="#99ffb6"/></g><text transform="translate(681.988 377.027)" fill="#6b553d" font-size="33" font-family="Cutive-Regular, Cutive" letter-spacing="0.015em"><tspan x="0" y="0">Today&apos;s</tspan><tspan x="0" y="40">Lesson Plan</tspan></text></g></svg>