<svg xmlns="http://www.w3.org/2000/svg" width="12.349" height="11.773" viewBox="0 0 12.349 11.773"><path d="M14.339,7.173a.578.578,0,0,0-.494-.679L10.329,6l-1.6-3.208a.482.482,0,0,0-.247-.247.624.624,0,0,0-.864.247L6.072,6l-3.517.494a.373.373,0,0,0-.37.185.6.6,0,0,0,0,.864l2.53,2.468L4.1,13.528a.782.782,0,0,0,.062.37.624.624,0,0,0,.864.247L8.17,12.479l3.146,1.666a.462.462,0,0,0,.308.062h.123a.64.64,0,0,0,.494-.74l-.617-3.517,2.53-2.468A.339.339,0,0,0,14.339,7.173Z" transform="translate(-2 -2.459)" fill="#fd0"/></svg>