<svg width="86" height="86" viewBox="0 0 86 86" fill="none" xmlns="http://www.w3.org/2000/svg">
<g clip-path="url(#clip0_1112_24008)">
<path d="M31.6867 83.2031C32.8013 83.8609 34.072 84.208 35.3662 84.208H56.4007H63.3753C66.0127 84.208 68.2083 82.0739 68.1615 79.4368C68.1309 77.7039 67.1587 76.2016 65.7352 75.4168C65.6301 75.359 65.5624 75.2511 65.5624 75.131V75.122C65.5624 74.972 65.6654 74.8407 65.812 74.8085C67.9146 74.3466 69.4883 72.4735 69.4883 70.2322C69.4883 68.8602 68.8987 67.6263 67.9592 66.7691C69.8474 66.0406 71.1877 64.2098 71.1877 62.0646C71.1877 60.3739 70.3547 58.8788 69.0776 57.9641C70.8586 57.0736 72.0823 55.2338 72.0823 53.1071C72.0823 50.1093 69.652 47.679 66.6541 47.679H55.4597C54.6673 47.679 54.1405 46.8592 54.4696 46.1385L55.7983 43.2296C56.5691 41.542 56.9682 39.7083 56.9682 37.8529V31.8038C56.9682 30.9318 56.7975 30.0682 56.466 29.2618C55.6074 27.1736 53.5731 25.8104 51.3153 25.8104H51.3039C49.7677 25.8104 48.3798 26.7276 47.7774 28.1408L45.4405 33.6237L36.6408 38.7472L35.1982 39.3601C33.2148 40.203 31.6089 41.7433 30.6844 43.6898L20.291 65.1089V76.8586L31.6867 83.2031Z" fill="#FFE5C2"/>
<path d="M63.8078 77.5076H56.833H35.7985C34.5043 77.5076 33.2336 77.1607 32.119 76.5027L20.7233 70.1584V64.2181L20.291 65.1091V76.8588L31.6867 83.2031C32.8013 83.8609 34.072 84.208 35.3662 84.208H56.4007H63.3753C66.0127 84.208 68.2083 82.0739 68.1615 79.4368C68.1406 78.2512 67.6785 77.174 66.9332 76.3603C66.0898 77.0751 64.9939 77.5076 63.8078 77.5076Z" fill="#FED2A4"/>
<path d="M7.30582 86.0001H24.8372C26.9822 86.0001 28.7209 84.2612 28.7209 82.1164V46.4558C28.7209 44.3108 26.9821 42.5721 24.8372 42.5721H7.30582C6.00486 42.5721 4.9502 43.6268 4.9502 44.9278V83.6443C4.9502 84.9454 6.00486 86.0001 7.30582 86.0001Z" fill="#F37C7C"/>
<path d="M24.8374 42.5721H24.0739V71.6505C24.0739 74.9972 21.3608 77.7103 18.0141 77.7103H4.9502V83.6444C4.9502 84.9454 6.00486 86.0001 7.30582 86.0001H24.8372C26.9822 86.0001 28.7209 84.2612 28.7209 82.1164V46.4558C28.7211 44.311 26.9822 42.5721 24.8374 42.5721Z" fill="#EE6161"/>
<path d="M55.4983 18.7806L51.4424 16.6727C51.0519 16.4697 50.5866 16.4719 50.1979 16.6786L46.1622 18.8246C45.1836 19.3449 44.0331 18.5173 44.2153 17.424L44.9669 12.9153C45.0393 12.4812 44.8933 12.0392 44.5768 11.7335L41.2887 8.55839C40.4914 7.78848 40.923 6.43867 42.0191 6.27413L46.5393 5.5955C46.9745 5.5302 47.3497 5.2548 47.5427 4.85919L49.5462 0.751045C50.032 -0.245074 51.4492 -0.251829 51.9444 0.739786L53.9865 4.82905C54.1831 5.22275 54.5609 5.49452 54.9968 5.55583L59.5233 6.19185C60.6209 6.34601 61.0652 7.69183 60.2752 8.46919L57.0171 11.6751C56.7035 11.9838 56.5618 12.427 56.6382 12.8605L57.432 17.362C57.6244 18.4534 56.4818 19.2917 55.4983 18.7806Z" fill="#FEE45A"/>
<path d="M31.9611 25.8047L28.7235 24.122C28.4117 23.96 28.0402 23.9617 27.7302 24.1266L24.5085 25.8397C23.7273 26.255 22.809 25.5944 22.9545 24.7218L23.5543 21.1227C23.612 20.7761 23.4956 20.4234 23.2429 20.1794L20.6181 17.6448C19.9817 17.0303 20.3262 15.9528 21.2011 15.8213L24.8094 15.2797C25.1568 15.2276 25.4563 15.0078 25.6103 14.692L27.2097 11.4125C27.5975 10.6173 28.7287 10.6119 29.1241 11.4035L30.7544 14.6677C30.9113 14.9821 31.2129 15.199 31.5608 15.2478L35.1741 15.7555C36.0502 15.8786 36.4049 16.9529 35.7743 17.5735L33.1734 20.1326C32.9229 20.3791 32.8098 20.733 32.8708 21.0789L33.5046 24.6722C33.6582 25.5433 32.7461 26.2126 31.9611 25.8047Z" fill="#FEE45A"/>
<path d="M69.3802 25.8047L72.6178 24.122C72.9296 23.96 73.3011 23.9617 73.6111 24.1266L76.8328 25.8397C77.614 26.255 78.5323 25.5944 78.3868 24.7218L77.787 21.1227C77.7293 20.7761 77.8457 20.4234 78.0984 20.1794L80.7232 17.6448C81.3596 17.0303 81.0151 15.9528 80.1402 15.8213L76.532 15.2797C76.1845 15.2276 75.885 15.0078 75.731 14.692L74.1316 11.4125C73.7438 10.6173 72.6126 10.6119 72.2172 11.4035L70.5869 14.6677C70.43 14.9821 70.1285 15.199 69.7805 15.2478L66.1672 15.7555C65.2911 15.8786 64.9364 16.9529 65.567 17.5735L68.1679 20.1326C68.4184 20.3791 68.5315 20.733 68.4705 21.0789L67.8367 24.6722C67.6831 25.5433 68.5952 26.2126 69.3802 25.8047Z" fill="#FEE45A"/>
</g>
<defs>
<clipPath id="clip0_1112_24008">
<rect width="86" height="86" fill="white"/>
</clipPath>
</defs>
</svg>
