<svg width="86" height="86" viewBox="0 0 86 86" fill="none" xmlns="http://www.w3.org/2000/svg">
<path d="M60.916 80.625V77.0416H68.0827V80.625C68.0827 81.5753 67.7052 82.4868 67.0332 83.1588C66.3611 83.8308 65.4497 84.2083 64.4994 84.2083C63.549 84.2083 62.6376 83.8308 61.9655 83.1588C61.2935 82.4868 60.916 81.5753 60.916 80.625Z" fill="#A87E6B"/>
<path d="M76.0915 59.9492C73.6907 75.5725 74.049 73.2613 73.9236 73.9958C73.794 74.8503 73.36 75.6291 72.7015 76.1889C72.043 76.7486 71.2044 77.0514 70.3402 77.0417H15.6227C14.7586 77.0514 13.92 76.7486 13.2615 76.1889C12.603 75.6291 12.169 74.8503 12.0394 73.9958L9.90731 59.9492C9.78827 59.182 9.83683 58.3981 10.0497 57.6515C10.2625 56.9049 10.6346 56.2132 11.1402 55.6241C11.6459 55.035 12.2732 54.5624 12.979 54.2389C13.6847 53.9154 14.4522 53.7486 15.2286 53.75H70.7702C71.5466 53.7486 72.3141 53.9154 73.0198 54.2389C73.7256 54.5624 74.3529 55.035 74.8586 55.6241C75.3642 56.2132 75.7363 56.9049 75.9491 57.6515C76.162 58.3981 76.2105 59.182 76.0915 59.9492Z" fill="#DF8761"/>
<path d="M76.0924 59.9492L74.0141 73.4583H35.2245C21.0166 73.4583 13.7245 59.3042 15.5162 53.75H70.7712C71.5476 53.7486 72.315 53.9154 73.0208 54.2389C73.7265 54.5624 74.3538 55.035 74.8595 55.6241C75.3652 56.2132 75.7372 56.9049 75.9501 57.6515C76.1629 58.3981 76.2115 59.182 76.0924 59.9492Z" fill="#F29B75"/>
<path d="M25.0828 77.0416C25.0828 80.625 25.2261 81.3237 24.6169 82.4166C24.2258 83.1069 23.6166 83.6479 22.8848 83.9547C22.1531 84.2614 21.3403 84.3167 20.5738 84.1117C19.8072 83.9068 19.1304 83.4532 18.6495 82.8222C18.1685 82.1912 17.9106 81.4184 17.9161 80.625V77.0416H25.0828Z" fill="#A87E6B"/>
<path d="M25.0825 77.0416C25.0825 80.625 25.2258 81.3237 24.6167 82.4166C23.7491 82.3029 22.9532 81.8757 22.3789 81.2157C21.8047 80.5556 21.4917 79.7082 21.4992 78.8333V77.0416H25.0825Z" fill="#BE927C"/>
<path d="M68.0825 77.0416C68.0825 80.625 68.2258 81.3237 67.6167 82.4166C66.7491 82.3029 65.9532 81.8757 65.3789 81.2157C64.8047 80.5556 64.4917 79.7082 64.4992 78.8333V77.0416H68.0825Z" fill="#BE927C"/>
<path d="M77.0413 7.16663C77.0413 34.3641 77.1668 32.8591 76.7188 34.0416C76.3492 35.0872 75.6652 35.9928 74.7607 36.6343C73.8561 37.2758 72.7753 37.6218 71.6663 37.625H14.333C12.9075 37.625 11.5403 37.0587 10.5323 36.0507C9.5243 35.0427 8.95801 33.6755 8.95801 32.25V7.16663C8.95801 5.74109 9.5243 4.37394 10.5323 3.36593C11.5403 2.35792 12.9075 1.79163 14.333 1.79163H71.6663C73.0919 1.79163 74.459 2.35792 75.467 3.36593C76.475 4.37394 77.0413 5.74109 77.0413 7.16663Z" fill="#DB5669"/>
<path d="M77.0408 7.16663C77.0408 34.3641 77.1663 32.8591 76.7183 34.0416H44.7908C36.7128 34.0416 28.9656 30.8326 23.2535 25.1206C17.5415 19.4085 14.3325 11.6613 14.3325 3.58329C14.3239 2.9709 14.4334 2.36258 14.655 1.79163H71.6658C73.0914 1.79163 74.4585 2.35792 75.4665 3.36593C76.4745 4.37394 77.0408 5.74109 77.0408 7.16663Z" fill="#F26674"/>
<path d="M48.7513 21.3029L40.223 25.585C39.9489 25.7231 39.6439 25.7885 39.3372 25.7749C39.0306 25.7613 38.7326 25.6691 38.4718 25.5073C38.211 25.3454 37.9962 25.1192 37.8479 24.8505C37.6996 24.5817 37.6229 24.2794 37.625 23.9725V15.4441C37.6229 15.1372 37.6996 14.8349 37.8479 14.5661C37.9962 14.2974 38.211 14.0712 38.4718 13.9093C38.7326 13.7475 39.0306 13.6553 39.3372 13.6417C39.6439 13.6281 39.9489 13.6935 40.223 13.8316L48.7513 18.1137C49.0448 18.2641 49.2911 18.4925 49.4631 18.7738C49.635 19.0552 49.726 19.3786 49.726 19.7083C49.726 20.0381 49.635 20.3614 49.4631 20.6428C49.2911 20.9241 49.0448 21.1525 48.7513 21.3029Z" fill="#DAD7E5"/>
<path d="M48.3747 17.9166L40.2405 22.0016C39.9664 22.1398 39.6614 22.2052 39.3548 22.1915C39.0482 22.1779 38.7502 22.0858 38.4894 21.9239C38.2286 21.762 38.0138 21.5359 37.8655 21.2671C37.7172 20.9984 37.6405 20.6961 37.6426 20.3891V15.4441C37.6405 15.1372 37.7172 14.8349 37.8655 14.5661C38.0138 14.2974 38.2286 14.0712 38.4894 13.9093C38.7502 13.7475 39.0482 13.6553 39.3548 13.6417C39.6614 13.6281 39.9664 13.6935 40.2405 13.8316L48.3747 17.9166Z" fill="#EDEBF2"/>
<path d="M39.416 50.1666V53.75H17.916V50.1666C17.9164 49.0136 18.2876 47.8912 18.9748 46.9653C19.662 46.0393 20.6287 45.3589 21.7323 45.0246C22.8073 44.7021 22.1981 44.7916 34.041 44.7916C35.4666 44.7916 36.8337 45.3579 37.8417 46.3659C38.8497 47.3739 39.416 48.7411 39.416 50.1666Z" fill="#6FABE6"/>
<path d="M39.4157 50.1666H25.0824C24.4755 50.1596 23.8798 50.003 23.3479 49.7107C22.816 49.4184 22.3644 48.9994 22.0331 48.4909C21.7017 47.9824 21.5009 47.4001 21.4484 46.7954C21.3959 46.1908 21.4933 45.5826 21.732 45.0246C22.807 44.7021 22.1978 44.7916 34.0407 44.7916C35.4663 44.7916 36.8334 45.3579 37.8414 46.3659C38.8494 47.374 39.4157 48.7411 39.4157 50.1666Z" fill="#82BCF4"/>
<path d="M34.041 37.625C34.041 39.7929 34.2023 41.2083 32.6794 43C31.9542 43.814 30.9987 44.3882 29.9396 44.6465C28.8805 44.9048 27.7678 44.835 26.7494 44.4462C25.7309 44.0575 24.8547 43.3683 24.237 42.47C23.6193 41.5717 23.2894 40.5068 23.291 39.4167V37.625C23.291 36.1995 23.8573 34.8323 24.8653 33.8243C25.8733 32.8163 27.2405 32.25 28.666 32.25C30.0916 32.25 31.4587 32.8163 32.4667 33.8243C33.4747 34.8323 34.041 36.1995 34.041 37.625Z" fill="#F6CCAF"/>
<path d="M51.958 44.7916H62.708C64.1335 44.7916 65.5007 45.3579 66.5087 46.3659C67.5167 47.3739 68.083 48.7411 68.083 50.1666V53.75H46.583V50.1666C46.583 48.7411 47.1493 47.3739 48.1573 46.3659C49.1653 45.3579 50.5325 44.7916 51.958 44.7916Z" fill="#6FABE6"/>
<path d="M57.333 44.7917C55.9075 44.7917 54.5403 44.2254 53.5323 43.2174C52.5243 42.2094 51.958 40.8422 51.958 39.4167V37.625C51.958 36.1995 52.5243 34.8323 53.5323 33.8243C54.5403 32.8163 55.9075 32.25 57.333 32.25C58.7585 32.25 60.1257 32.8163 61.1337 33.8243C62.1417 34.8323 62.708 36.1995 62.708 37.625V39.4167C62.708 40.8422 62.1417 42.2094 61.1337 43.2174C60.1257 44.2254 58.7585 44.7917 57.333 44.7917Z" fill="#F6CCAF"/>
<path d="M34.0417 37.625C34.0417 39.7929 34.203 41.2083 32.68 43C31.9389 43.0595 31.1934 42.9646 30.4908 42.7212C29.7882 42.4779 29.1438 42.0914 28.5982 41.5862C28.0526 41.081 27.6178 40.4682 27.3212 39.7863C27.0246 39.1045 26.8727 38.3686 26.875 37.625C26.875 35.4571 26.7138 34.0417 28.2367 32.25C28.9779 32.1905 29.7233 32.2855 30.4259 32.5288C31.1285 32.7722 31.773 33.1587 32.3186 33.6638C32.8641 34.169 33.299 34.7819 33.5956 35.4637C33.8922 36.1455 34.0441 36.8815 34.0417 37.625Z" fill="#FFDEC7"/>
<path d="M62.7077 37.625C62.7077 39.7929 62.869 41.2083 61.3461 43C60.6049 43.0595 59.8594 42.9646 59.1569 42.7212C58.4543 42.4779 57.8098 42.0914 57.2642 41.5862C56.7186 41.081 56.2838 40.4682 55.9872 39.7863C55.6906 39.1045 55.5387 38.3686 55.5411 37.625C55.5411 35.4571 55.3798 34.0417 56.9027 32.25C57.6439 32.1905 58.3893 32.2855 59.0919 32.5288C59.7945 32.7722 60.439 33.1587 60.9846 33.6638C61.5301 34.169 61.965 34.7819 62.2616 35.4637C62.5582 36.1455 62.7101 36.8815 62.7077 37.625Z" fill="#FFDEC7"/>
<path d="M68.0827 50.1666H53.7494C53.1425 50.1596 52.5468 50.003 52.0149 49.7107C51.483 49.4184 51.0314 48.9994 50.7001 48.4909C50.3687 47.9824 50.1679 47.4001 50.1154 46.7954C50.0629 46.1908 50.1603 45.5826 50.399 45.0246C51.474 44.7021 50.8648 44.7916 62.7077 44.7916C64.1333 44.7916 65.5004 45.3579 66.5084 46.3659C67.5164 47.374 68.0827 48.7411 68.0827 50.1666Z" fill="#82BCF4"/>
</svg>
