<svg width="86" height="86" viewBox="0 0 86 86" fill="none" xmlns="http://www.w3.org/2000/svg">
<g clip-path="url(#clip0_1112_18314)">
<path d="M47.967 61.3859C47.0229 59.2742 46.5284 56.9777 46.5284 54.6439L46.4879 47.1614C46.4879 36.4363 37.7935 27.7421 27.0685 27.7421C24.6251 27.7421 22.2868 28.1926 20.1331 29.0163L13.7299 36.6172L13.6895 63.7442L27.0687 73.5161L46.5346 65.0152C47.9309 64.4054 48.589 62.7768 47.967 61.3859Z" fill="#A14410"/>
<path d="M20.1316 29.0161C12.8366 31.8106 7.64783 38.8833 7.64783 47.1613L7.60735 54.6438C7.60735 56.9775 7.11285 59.274 6.1687 61.3859C5.54671 62.7768 6.20481 64.4054 7.60114 65.0152L20.1316 70.4872V29.0161Z" fill="#78330C"/>
<path d="M39.4063 73.2157L36.403 71.8506C34.9175 71.1754 33.9638 69.6943 33.9638 68.0624V66.4594H20.0928V68.0624C20.0928 69.6943 19.139 71.1756 17.6533 71.8508L14.6501 73.2159L12.9336 81.6328H41.7402L39.4063 73.2157Z" fill="#FFCAAC"/>
<path d="M20.092 66.4202C22.2159 67.4035 24.5734 67.9677 27.0679 67.9677C29.5303 67.9677 31.86 67.4188 33.9628 66.4592V59.645H20.0918V66.4202H20.092Z" fill="#F3B693"/>
<path d="M39.365 47.1775C29.1944 48.4071 23.4673 44.3212 20.7378 41.3823C20.2063 40.8102 19.296 40.8171 18.7438 41.3693L14.375 45.7379C13.5946 46.5183 13.6045 47.5766 13.6045 48.6802V50.8473L20.0933 63.2797C21.8707 64.349 23.9075 65.0214 26.1037 65.1636C34.1825 65.6867 40.8981 59.2889 40.8981 51.3227V48.5681C40.8981 47.7427 40.1844 47.0784 39.365 47.1775Z" fill="#FFCAAC"/>
<path d="M57.1094 12.4839C57.1094 19.3786 61.7868 24.1316 68.6816 24.1316C72.6735 24.1316 76.2279 23.094 78.5131 20.1783C80.1748 18.058 81.1655 15.3866 81.1655 12.4839C81.1654 5.58916 75.5762 0 68.6816 0C65.7729 0 63.0966 0.994711 60.9742 2.66264C58.0658 4.94819 57.1094 8.49787 57.1094 12.4839Z" fill="#FFEE92"/>
<path d="M22.1719 23.5806C22.1719 32.0074 28.311 37.9609 36.7378 37.9609C41.4666 37.9609 45.6929 36.6876 48.4916 33.3104C50.6802 30.6694 51.9959 27.2786 51.9959 23.5806C51.9959 15.1538 45.1646 8.32251 36.7378 8.32251C33.051 8.32251 29.6697 9.62998 27.0322 11.8067C23.6413 14.6054 22.1719 18.8405 22.1719 23.5806Z" fill="#FFEE92"/>
<path d="M68.7794 16.5816C68.0126 16.5816 67.3923 15.9604 67.3923 15.1945V11.8885C67.3923 11.1226 68.0128 10.5014 68.7794 10.5014C69.2697 10.5014 69.7262 10.3051 70.0649 9.94814C70.4048 9.59188 70.5768 9.12391 70.5511 8.63009C70.5038 7.70827 69.741 6.97207 68.8172 6.95376C68.8049 6.95309 68.7928 6.95309 68.7792 6.95309C67.896 6.95309 67.1442 7.60262 67.0223 8.47707C67.0114 8.56038 67.0046 8.64302 67.0046 8.727C67.0046 9.49294 66.3842 10.1141 65.6176 10.1141C64.8508 10.1141 64.2305 9.49294 64.2305 8.727C64.2305 8.51167 64.2454 8.30036 64.2752 8.09242C64.5921 5.81476 66.6173 4.14045 68.8726 4.17975C71.2445 4.22712 73.1991 6.11879 73.3224 8.48731C73.3861 9.74842 72.9445 10.9459 72.0763 11.8596C71.548 12.4156 70.8869 12.8254 70.1663 13.0571V15.1945C70.1665 15.9604 69.546 16.5816 68.7794 16.5816Z" fill="#FF8086"/>
<path d="M68.7807 20.7089C69.5467 20.7089 70.1677 20.0878 70.1677 19.3218C70.1677 18.5557 69.5467 17.9347 68.7807 17.9347C68.0146 17.9347 67.3936 18.5557 67.3936 19.3218C67.3936 20.0878 68.0146 20.7089 68.7807 20.7089Z" fill="#FF8086"/>
<path d="M61.225 46.2598C60.4583 46.2598 59.838 45.6386 59.838 44.8727V40.5388C59.838 39.7728 60.4584 39.1517 61.225 39.1517C61.9876 39.1517 62.6988 38.8462 63.2257 38.2922C63.7513 37.7382 64.0195 37.0114 63.9789 36.2462C63.9043 34.8124 62.7205 33.6663 61.282 33.6379C61.2643 33.6373 61.2454 33.6373 61.2264 33.6373C59.8542 33.6373 58.6852 34.6478 58.4942 36.0092C58.4779 36.1318 58.4685 36.2618 58.4685 36.3945C58.4685 37.1604 57.848 37.7816 57.0814 37.7816C56.3148 37.7816 55.6943 37.1604 55.6943 36.3945C55.6943 36.1345 55.712 35.8797 55.7457 35.6299C56.129 32.8917 58.4739 30.8631 61.2264 30.8631C61.263 30.8631 61.301 30.8631 61.3388 30.8638C64.2226 30.9221 66.6 33.2227 66.7504 36.1019C66.829 37.6353 66.2911 39.0914 65.2373 40.2022C64.5208 40.956 63.605 41.4883 62.6121 41.7478V44.8729C62.6121 45.6388 61.9917 46.2598 61.225 46.2598Z" fill="#FF8086"/>
<path d="M49.2211 81.8388V81.25C49.2211 79.0743 47.9494 77.0993 45.9687 76.1989L39.4056 73.2156L28.8045 78.2217C27.6794 78.753 26.3756 78.753 25.2508 78.2217L14.6496 73.2156L8.08636 76.199C6.10568 77.0993 4.83398 79.0743 4.83398 81.2502V81.8389C4.83398 84.1371 6.69709 86.0002 8.99524 86.0002H45.0598C47.358 86 49.2211 84.1369 49.2211 81.8388Z" fill="#FFEE92"/>
<path d="M40.8981 48.5682V47.3857C40.8981 46.5603 40.1844 45.8959 39.3649 45.995C29.1941 47.2246 23.467 43.1386 20.7375 40.1998C20.2061 39.6277 19.2957 39.6347 18.7436 40.1868L14.375 44.5554C13.5946 45.3358 13.1562 46.3941 13.1562 47.4977V50.8475C13.1562 56.048 15.8864 60.7647 20.0934 63.2799V48.7235C20.0934 46.657 22.3305 45.2839 24.154 46.2566C27.0375 47.7948 30.8583 48.9923 35.7669 48.9923C37.3567 48.9919 39.0743 48.849 40.8981 48.5682Z" fill="#F3B693"/>
<path d="M36.6808 28.4037C35.9141 28.4037 35.2938 27.7825 35.2938 27.0166V23.3497C35.2938 22.5837 35.9142 21.9626 36.6808 21.9626C37.2674 21.9626 37.8133 21.7276 38.2183 21.3016C38.6232 20.8757 38.8292 20.3168 38.7981 19.7283C38.7411 18.6264 37.8309 17.7459 36.7255 17.7236C36.7119 17.7229 36.6971 17.7229 36.6822 17.7229C35.6283 17.7229 34.7289 18.4991 34.5826 19.5455C34.5676 19.6471 34.5623 19.7439 34.5623 19.8428C34.5623 20.6088 33.9418 21.2299 33.1752 21.2299C32.4084 21.2299 31.7881 20.6088 31.7881 19.8428C31.7881 19.6099 31.8044 19.3802 31.8355 19.156C32.1727 16.7441 34.248 14.9487 36.6822 14.9487C36.7161 14.9487 36.7485 14.9487 36.7811 14.9494C39.3346 15.0015 41.4369 17.0374 41.5696 19.5848C41.6386 20.9415 41.1632 22.2297 40.2298 23.2125C39.6352 23.8383 38.8848 24.292 38.0679 24.5345V27.0168C38.0679 27.7825 37.4474 28.4037 36.6808 28.4037Z" fill="#FF8086"/>
<path d="M36.6801 32.9572C37.4461 32.9572 38.0671 32.3361 38.0671 31.5701C38.0671 30.804 37.4461 30.183 36.6801 30.183C35.914 30.183 35.293 30.804 35.293 31.5701C35.293 32.3361 35.914 32.9572 36.6801 32.9572Z" fill="#FF8086"/>
<path d="M38.7605 36.8157C30.3336 36.8157 23.5023 29.9844 23.5023 21.5576C23.5023 17.8595 24.8432 14.4477 27.032 11.8067C23.6555 14.6054 21.4795 18.8523 21.4795 23.5806C21.4795 32.0075 28.3108 38.8388 36.7376 38.8388C41.4663 38.8388 45.6927 36.6876 48.4914 33.3106C45.8502 35.4997 42.459 36.8157 38.7605 36.8157Z" fill="#FFDD76"/>
<path d="M70.7618 22.8871C63.8672 22.8871 58.2779 17.2978 58.2779 10.4031C58.2779 7.48637 59.2976 4.78778 60.9738 2.66248C58.0757 4.94853 56.1973 8.50577 56.1973 12.4838C56.1973 19.3784 61.7864 24.9677 68.6812 24.9677C72.6589 24.9677 76.2267 23.0764 78.5127 20.1781C76.3874 21.8544 73.6786 22.8871 70.7618 22.8871Z" fill="#FFDD76"/>
<path d="M61.226 51.691C61.992 51.691 62.613 51.07 62.613 50.304C62.613 49.5379 61.992 48.9169 61.226 48.9169C60.4599 48.9169 59.8389 49.5379 59.8389 50.304C59.8389 51.07 60.4599 51.691 61.226 51.691Z" fill="#FF8086"/>
</g>
<defs>
<clipPath id="clip0_1112_18314">
<rect width="86" height="86" fill="white"/>
</clipPath>
</defs>
</svg>
