<svg width="50" height="50" viewBox="0 0 50 50" fill="none" xmlns="http://www.w3.org/2000/svg">
<path d="M43.1818 0H6.81818C3.0526 0 0 3.0526 0 6.81818V43.1818C0 46.9474 3.0526 50 6.81818 50H43.1818C46.9474 50 50 46.9474 50 43.1818V6.81818C50 3.0526 46.9474 0 43.1818 0Z" fill="#50ABF1"/>
<path d="M40.5654 15.5426C39.8237 16.6506 38.9208 17.6416 37.8864 18.483C37.7523 18.5897 37.644 18.7253 37.5697 18.8798C37.4954 19.0343 37.457 19.2036 37.4574 19.375V19.4801C37.4456 21.7128 37.0358 23.9254 36.2472 26.0142C35.4349 28.2035 34.2284 30.2255 32.6875 31.9801C30.6262 34.33 27.9711 36.0824 25 37.054C23.0424 37.6893 20.9957 38.0077 18.9375 37.9972C15.678 37.9938 12.4772 37.1294 9.65913 35.4915C9.55822 35.4341 9.47887 35.3453 9.43321 35.2386C9.38755 35.1319 9.3781 35.0132 9.40629 34.9006C9.43486 34.7892 9.49992 34.6907 9.59106 34.6206C9.68221 34.5506 9.79419 34.5131 9.90913 34.5142H10.6875C13.1651 34.5138 15.586 33.7728 17.6392 32.3864C16.4153 32.1863 15.27 31.6532 14.3289 30.8454C13.3878 30.0376 12.6873 28.9863 12.304 27.8068C12.2852 27.7487 12.2819 27.6866 12.2943 27.6268C12.3067 27.5669 12.3345 27.5114 12.3749 27.4655C12.4153 27.4197 12.467 27.3851 12.5248 27.3653C12.5826 27.3454 12.6445 27.3409 12.7046 27.3523C13.0792 27.4235 13.4596 27.4596 13.841 27.4602H13.983C12.7967 26.9151 11.7937 26.038 11.0954 24.9348C10.3971 23.8317 10.0334 22.5498 10.0483 21.2443C10.0491 21.1831 10.0658 21.1231 10.0966 21.0702C10.1275 21.0173 10.1715 20.9732 10.2244 20.9423C10.2773 20.9115 10.3373 20.8948 10.3985 20.8939C10.4598 20.8931 10.5202 20.9081 10.5739 20.9375C11.0552 21.2063 11.5715 21.4071 12.108 21.5341C11.0456 20.4838 10.3619 19.1107 10.164 17.63C9.96601 16.1493 10.2651 14.6447 11.0142 13.3523C11.043 13.3046 11.0826 13.2645 11.1298 13.2351C11.1771 13.2058 11.2306 13.188 11.286 13.1833C11.3415 13.1786 11.3972 13.187 11.4487 13.208C11.5002 13.229 11.5461 13.2619 11.5824 13.304C13.0703 15.1433 14.9126 16.6649 16.9998 17.7785C19.087 18.8922 21.3767 19.5752 23.733 19.7869H23.7586C23.7935 19.7858 23.8278 19.7777 23.8595 19.763C23.8912 19.7484 23.9197 19.7275 23.9432 19.7017C23.9658 19.6759 23.9828 19.6456 23.9931 19.6128C24.0034 19.58 24.0067 19.5455 24.0029 19.5114C23.9149 18.6863 23.9687 17.8523 24.162 17.0455C24.3313 16.3391 24.6195 15.6666 25.0143 15.0568C25.8426 13.7558 27.1046 12.7897 28.5767 12.3295C29.2673 12.113 29.9866 12.0019 30.7103 12C32.3514 11.9984 33.9366 12.5965 35.1677 13.6818C35.3245 13.8212 35.5261 13.8998 35.7358 13.9034C35.8049 13.9023 35.8736 13.8927 35.9404 13.875C37.0977 13.5822 38.2067 13.1239 39.233 12.5142C39.2948 12.4785 39.3659 12.4623 39.437 12.4676C39.5082 12.4729 39.5761 12.4995 39.6319 12.544C39.6877 12.5884 39.7288 12.6487 39.7499 12.7168C39.771 12.785 39.771 12.8579 39.75 12.9261C39.4057 14.0014 38.796 14.9725 37.9773 15.75C38.7158 15.5736 39.4366 15.3302 40.1307 15.0227C40.2007 14.9915 40.279 14.984 40.3536 15.0013C40.4282 15.0186 40.4952 15.0598 40.5444 15.1186C40.5935 15.1773 40.6221 15.2505 40.6259 15.3271C40.6297 15.4036 40.6085 15.4793 40.5654 15.5426Z" fill="white"/>
</svg>
