<?xml version="1.0" encoding="UTF-8" standalone="no"?>
<svg
   xmlns:dc="http://purl.org/dc/elements/1.1/"
   xmlns:cc="http://creativecommons.org/ns#"
   xmlns:rdf="http://www.w3.org/1999/02/22-rdf-syntax-ns#"
   xmlns:svg="http://www.w3.org/2000/svg"
   xmlns="http://www.w3.org/2000/svg"
   xmlns:sodipodi="http://sodipodi.sourceforge.net/DTD/sodipodi-0.dtd"
   xmlns:inkscape="http://www.inkscape.org/namespaces/inkscape"
   width="20"
   height="20"
   viewBox="0 0 20 20"
   fill="none"
   version="1.1"
   id="svg6"
   sodipodi:docname="check-square.svg"
   inkscape:version="1.0.2 (1.0.2+r75+1)">
  <metadata
     id="metadata12">
    <rdf:RDF>
      <cc:Work
         rdf:about="">
        <dc:format>image/svg+xml</dc:format>
        <dc:type
           rdf:resource="http://purl.org/dc/dcmitype/StillImage" />
      </cc:Work>
    </rdf:RDF>
  </metadata>
  <defs
     id="defs10" />
  <sodipodi:namedview
     pagecolor="#ffffff"
     bordercolor="#666666"
     borderopacity="1"
     objecttolerance="10"
     gridtolerance="10"
     guidetolerance="10"
     inkscape:pageopacity="0"
     inkscape:pageshadow="2"
     inkscape:window-width="1920"
     inkscape:window-height="980"
     id="namedview8"
     showgrid="false"
     inkscape:zoom="41.65"
     inkscape:cx="10"
     inkscape:cy="10"
     inkscape:window-x="0"
     inkscape:window-y="27"
     inkscape:window-maximized="1"
     inkscape:current-layer="svg6" />
  <path
     style="color:#000000;font-style:normal;font-variant:normal;font-weight:normal;font-stretch:normal;font-size:medium;line-height:normal;font-family:sans-serif;font-variant-ligatures:normal;font-variant-position:normal;font-variant-caps:normal;font-variant-numeric:normal;font-variant-alternates:normal;font-variant-east-asian:normal;font-feature-settings:normal;font-variation-settings:normal;text-indent:0;text-align:start;text-decoration:none;text-decoration-line:none;text-decoration-style:solid;text-decoration-color:#000000;letter-spacing:normal;word-spacing:normal;text-transform:none;writing-mode:lr-tb;direction:ltr;text-orientation:mixed;dominant-baseline:auto;baseline-shift:baseline;text-anchor:start;white-space:normal;shape-padding:0;shape-margin:0;inline-size:0;clip-rule:nonzero;display:inline;overflow:visible;visibility:visible;isolation:auto;mix-blend-mode:normal;color-interpolation:sRGB;color-interpolation-filters:linearRGB;solid-color:#000000;solid-opacity:1;vector-effect:none;fill:#000000;fill-opacity:1;fill-rule:nonzero;stroke:none;stroke-linecap:round;stroke-linejoin:round;stroke-miterlimit:4;stroke-dasharray:none;stroke-dashoffset:0;stroke-opacity:1;color-rendering:auto;image-rendering:auto;shape-rendering:auto;text-rendering:auto;enable-background:accumulate;stop-color:#000000;stop-opacity:1;opacity:1"
     d="M 18.339844 2.5839844 A 0.75 0.75 0 0 0 17.802734 2.8027344 L 10 10.605469 L 8.03125 8.6367188 A 0.75 0.75 0 0 0 6.96875 8.6367188 A 0.75 0.75 0 0 0 6.96875 9.6972656 L 9.46875 12.197266 A 0.750075 0.750075 0 0 0 10.53125 12.197266 L 18.863281 3.8632812 A 0.75 0.75 0 0 0 18.863281 2.8027344 A 0.75 0.75 0 0 0 18.339844 2.5839844 z "
     id="path2" />
  <path
     style="color:#000000;font-style:normal;font-variant:normal;font-weight:normal;font-stretch:normal;font-size:medium;line-height:normal;font-family:sans-serif;font-variant-ligatures:normal;font-variant-position:normal;font-variant-caps:normal;font-variant-numeric:normal;font-variant-alternates:normal;font-variant-east-asian:normal;font-feature-settings:normal;font-variation-settings:normal;text-indent:0;text-align:start;text-decoration:none;text-decoration-line:none;text-decoration-style:solid;text-decoration-color:#000000;letter-spacing:normal;word-spacing:normal;text-transform:none;writing-mode:lr-tb;direction:ltr;text-orientation:mixed;dominant-baseline:auto;baseline-shift:baseline;text-anchor:start;white-space:normal;shape-padding:0;shape-margin:0;inline-size:0;clip-rule:nonzero;display:inline;overflow:visible;visibility:visible;isolation:auto;mix-blend-mode:normal;color-interpolation:sRGB;color-interpolation-filters:linearRGB;solid-color:#000000;solid-opacity:1;vector-effect:none;fill:#000000;fill-opacity:1;fill-rule:nonzero;stroke:none;stroke-linecap:round;stroke-linejoin:round;stroke-miterlimit:4;stroke-dasharray:none;stroke-dashoffset:0;stroke-opacity:1;color-rendering:auto;image-rendering:auto;shape-rendering:auto;text-rendering:auto;enable-background:accumulate;stop-color:#000000;stop-opacity:1;opacity:1"
     d="M 4.1660156 1.75 C 3.5253679 1.75 2.9100419 2.0040061 2.4570312 2.4570312 C 2.0040061 2.9100419 1.75 3.5253679 1.75 4.1660156 L 1.75 15.833984 C 1.75 16.474671 2.0039579 17.089997 2.4570312 17.542969 C 2.910039 17.996034 3.5253566 18.25 4.1660156 18.25 L 15.833984 18.25 C 16.474682 18.25 17.09 17.996083 17.542969 17.542969 C 17.996083 17.09 18.25 16.474682 18.25 15.833984 L 18.25 10 A 0.75 0.75 0 0 0 17.5 9.25 A 0.75 0.75 0 0 0 16.75 10 L 16.75 15.833984 C 16.75 16.077487 16.654508 16.308438 16.482422 16.480469 A 0.750075 0.750075 0 0 0 16.480469 16.482422 C 16.308438 16.654508 16.077487 16.75 15.833984 16.75 L 4.1660156 16.75 C 3.9226147 16.75 3.6896904 16.654556 3.5175781 16.482422 A 0.750075 0.750075 0 0 0 3.5175781 16.480469 C 3.3455114 16.308441 3.25 16.077498 3.25 15.833984 L 3.25 4.1660156 C 3.25 3.9226034 3.3454632 3.6896875 3.5175781 3.5175781 C 3.6896875 3.3454632 3.9226034 3.25 4.1660156 3.25 L 13.333984 3.25 A 0.75 0.75 0 0 0 14.083984 2.5 A 0.75 0.75 0 0 0 13.333984 1.75 L 4.1660156 1.75 z "
     id="path4" />
</svg>
