<?xml version="1.0" encoding="UTF-8" standalone="no"?>
<svg
   xmlns:dc="http://purl.org/dc/elements/1.1/"
   xmlns:cc="http://creativecommons.org/ns#"
   xmlns:rdf="http://www.w3.org/1999/02/22-rdf-syntax-ns#"
   xmlns:svg="http://www.w3.org/2000/svg"
   xmlns="http://www.w3.org/2000/svg"
   xmlns:sodipodi="http://sodipodi.sourceforge.net/DTD/sodipodi-0.dtd"
   xmlns:inkscape="http://www.inkscape.org/namespaces/inkscape"
   width="22"
   height="22"
   viewBox="0 0 22 22"
   fill="none"
   version="1.1"
   id="svg4"
   sodipodi:docname="phone.svg"
   inkscape:version="1.0.2 (1.0.2+r75+1)">
  <metadata
     id="metadata10">
    <rdf:RDF>
      <cc:Work
         rdf:about="">
        <dc:format>image/svg+xml</dc:format>
        <dc:type
           rdf:resource="http://purl.org/dc/dcmitype/StillImage" />
      </cc:Work>
    </rdf:RDF>
  </metadata>
  <defs
     id="defs8" />
  <sodipodi:namedview
     pagecolor="#ffffff"
     bordercolor="#666666"
     borderopacity="1"
     objecttolerance="10"
     gridtolerance="10"
     guidetolerance="10"
     inkscape:pageopacity="0"
     inkscape:pageshadow="2"
     inkscape:window-width="1920"
     inkscape:window-height="980"
     id="namedview6"
     showgrid="false"
     inkscape:zoom="37.863636"
     inkscape:cx="11"
     inkscape:cy="11"
     inkscape:window-x="0"
     inkscape:window-y="27"
     inkscape:window-maximized="1"
     inkscape:current-layer="svg4" />
  <path
     style="color:#000000;font-style:normal;font-variant:normal;font-weight:normal;font-stretch:normal;font-size:medium;line-height:normal;font-family:sans-serif;font-variant-ligatures:normal;font-variant-position:normal;font-variant-caps:normal;font-variant-numeric:normal;font-variant-alternates:normal;font-variant-east-asian:normal;font-feature-settings:normal;font-variation-settings:normal;text-indent:0;text-align:start;text-decoration:none;text-decoration-line:none;text-decoration-style:solid;text-decoration-color:#000000;letter-spacing:normal;word-spacing:normal;text-transform:none;writing-mode:lr-tb;direction:ltr;text-orientation:mixed;dominant-baseline:auto;baseline-shift:baseline;text-anchor:start;white-space:normal;shape-padding:0;shape-margin:0;inline-size:0;clip-rule:nonzero;display:inline;overflow:visible;visibility:visible;isolation:auto;mix-blend-mode:normal;color-interpolation:sRGB;color-interpolation-filters:linearRGB;solid-color:#000000;solid-opacity:1;vector-effect:none;fill:#000000;fill-opacity:1;fill-rule:nonzero;stroke:none;stroke-linecap:round;stroke-linejoin:round;stroke-miterlimit:4;stroke-dasharray:none;stroke-dashoffset:0;stroke-opacity:1;color-rendering:auto;image-rendering:auto;shape-rendering:auto;text-rendering:auto;enable-background:accumulate;stop-color:#000000;stop-opacity:1;opacity:1"
     d="M 3.109375 0.25 C 2.7276078 0.25035749 2.3492259 0.33011831 2 0.484375 C 1.6508027 0.63862512 1.3374719 0.86450487 1.0800781 1.1464844 C 0.82268095 1.4284525 0.62771649 1.7612702 0.50585938 2.1230469 C 0.38401934 2.4848274 0.33868636 2.8678126 0.37304688 3.2480469 A 0.750075 0.750075 0 0 0 0.375 3.2597656 C 0.71544005 6.4655441 1.8048199 9.5457257 3.5566406 12.251953 C 3.5574083 12.253161 3.5578258 12.254651 3.5585938 12.255859 C 3.5590708 12.256596 3.5600698 12.257076 3.5605469 12.257812 C 5.1532477 14.762355 7.2767635 16.885851 9.78125 18.478516 C 9.7819864 18.478993 9.7824667 18.479991 9.7832031 18.480469 C 9.7844118 18.481237 9.7859005 18.481654 9.7871094 18.482422 C 12.48109 20.228103 15.54692 21.319198 18.738281 21.666016 A 0.750075 0.750075 0 0 0 18.751953 21.667969 C 19.133513 21.702493 19.518219 21.655824 19.880859 21.533203 C 20.243705 21.410512 20.577293 21.21379 20.859375 20.955078 C 21.141455 20.69623 21.366137 20.380384 21.519531 20.029297 C 21.67301 19.678469 21.751651 19.299159 21.75 18.916016 L 21.75 15.939453 C 21.766771 15.265306 21.535486 14.608253 21.099609 14.09375 A 0.750075 0.750075 0 0 0 21.099609 14.091797 C 20.663669 13.577382 20.052585 13.24065 19.384766 13.146484 A 0.750075 0.750075 0 0 0 19.378906 13.146484 C 18.475659 13.027369 17.588186 12.806673 16.734375 12.488281 L 16.732422 12.488281 C 16.240977 12.304 15.706982 12.263426 15.193359 12.373047 C 14.679099 12.482637 14.205866 12.737712 13.832031 13.107422 A 0.750075 0.750075 0 0 0 13.830078 13.109375 L 13.017578 13.919922 C 11.006612 12.676245 9.323724 10.99338 8.0800781 8.9824219 L 8.890625 8.1699219 A 0.750075 0.750075 0 0 0 8.8925781 8.1679688 C 9.2622426 7.7941522 9.5172982 7.320765 9.6269531 6.8066406 C 9.7364731 6.2931354 9.6961096 5.7591597 9.5117188 5.2675781 L 9.5117188 5.265625 C 9.1933012 4.411888 8.9726671 3.5244543 8.8535156 2.6210938 A 0.750075 0.750075 0 0 0 8.8535156 2.6152344 C 8.7601513 1.9546463 8.4276936 1.3490607 7.921875 0.9140625 C 7.4160643 0.47907103 6.7706334 0.24343068 6.1035156 0.25 L 3.109375 0.25 z M 3.109375 1.75 L 6.109375 1.75 A 0.750075 0.750075 0 0 0 6.1171875 1.75 C 6.4206897 1.7470113 6.7151832 1.8548258 6.9453125 2.0527344 C 7.1754339 2.2506361 7.3247118 2.5236868 7.3671875 2.8242188 L 7.3671875 2.8183594 C 7.5012132 3.8344905 7.7490967 4.8326932 8.1074219 5.7929688 A 0.750075 0.750075 0 0 0 8.1074219 5.7949219 C 8.191533 6.018668 8.2100181 6.2603539 8.1601562 6.4941406 C 8.1102912 6.7279363 7.9942474 6.9433178 7.8261719 7.1132812 L 6.5605469 8.3789062 A 0.750075 0.750075 0 0 0 6.4375 9.28125 C 7.9277683 11.902064 10.097944 14.072195 12.71875 15.5625 A 0.750075 0.750075 0 0 0 13.621094 15.441406 L 14.886719 14.173828 C 15.056684 14.005738 15.27212 13.889654 15.505859 13.839844 C 15.739388 13.790003 15.983188 13.808457 16.207031 13.892578 C 17.167272 14.25083 18.165517 14.498811 19.181641 14.632812 L 19.175781 14.632812 C 19.479562 14.675647 19.756619 14.828315 19.955078 15.0625 C 20.153401 15.296597 20.257629 15.595691 20.25 15.902344 A 0.750075 0.750075 0 0 0 20.25 15.919922 L 20.25 18.919922 A 0.750075 0.750075 0 0 0 20.25 18.923828 C 20.250749 19.097685 20.214253 19.270315 20.144531 19.429688 C 20.074926 19.589 19.974023 19.731858 19.845703 19.849609 C 19.717385 19.967297 19.565145 20.057572 19.400391 20.113281 C 19.238597 20.167989 19.066453 20.185879 18.896484 20.171875 C 15.937503 19.84964 13.095058 18.840215 10.597656 17.220703 A 0.750075 0.750075 0 0 0 10.591797 17.216797 C 8.2685781 15.740542 6.2985631 13.770549 4.8222656 11.447266 A 0.750075 0.750075 0 0 0 4.8203125 11.441406 C 3.1964935 8.9347974 2.1844303 6.082884 1.8671875 3.1132812 L 1.8671875 3.1113281 C 1.851898 2.9391233 1.8725429 2.7654428 1.9277344 2.6015625 C 1.9831373 2.4370791 2.0724503 2.286375 2.1894531 2.1582031 C 2.3064393 2.0300426 2.4486592 1.9275518 2.6074219 1.8574219 C 2.7655874 1.7875585 2.9364805 1.7504288 3.109375 1.75 z "
     id="path2" />
</svg>
