<svg width="52" height="53" viewBox="0 0 52 53" fill="none" xmlns="http://www.w3.org/2000/svg">
<path d="M25.9999 0.996094C11.6406 0.996094 0 12.6367 0 26.996C0 41.3554 11.6406 52.996 25.9999 52.996C40.3593 52.996 51.9999 41.3554 51.9999 26.996C51.9847 12.6431 40.353 1.01144 25.9999 0.996094ZM36.9495 27.8245C36.7696 28.1855 36.4769 28.4782 36.1158 28.6582V28.6675L21.2587 36.0961C20.3411 36.5545 19.2258 36.1825 18.7672 35.2649C18.6369 35.0041 18.5697 34.7162 18.5713 34.4246V19.5675C18.5709 18.5418 19.4019 17.71 20.4277 17.7095C20.7161 17.7094 21.0007 17.7764 21.2587 17.9054L36.1158 25.334C37.0338 25.7914 37.4071 26.9065 36.9495 27.8245Z" fill="#000000"/>
</svg>
