<svg width="18" height="16" viewBox="0 0 18 16" fill="none" xmlns="http://www.w3.org/2000/svg">
<path fill-rule="evenodd" clip-rule="evenodd" d="M17.9084 1.05884C17.8282 0.992801 17.7142 0.977481 17.6176 1.0196L0.155693 8.64316C0.0616842 8.68422 0.00114611 8.77235 1.60703e-05 8.86973C-0.00111397 8.96712 0.057433 9.05646 0.150527 9.09939L3.6 10.5622C3.69062 10.604 10.8 7.08362 10.8 7.08362L6.43749 11.6759C6.34922 11.7688 6.3 11.8921 6.3 12.0203V15.4264C6.3 15.8742 6.84325 16.0962 7.15685 15.7767L9.44099 13.4493L13.0421 15.1619C13.1125 15.1935 13.194 15.1948 13.2655 15.1656C13.337 15.1363 13.3915 15.0794 13.4148 15.0095L17.9876 1.32465C18.0196 1.22908 17.9884 1.12487 17.9084 1.05884Z" fill="#000000"/>
</svg>
