<svg width="572" height="418" viewBox="0 0 572 418" fill="none" xmlns="http://www.w3.org/2000/svg">
<path d="M142.322 355.91L141.106 355.201C139.807 354.445 139.329 352.709 140.041 351.332L145.629 340.492C146.341 339.112 147.975 338.605 149.272 339.361L151.013 340.373C151.267 340.521 151.362 340.859 151.222 341.132C151.083 341.401 150.764 341.502 150.508 341.354L148.766 340.341C147.975 339.881 146.983 340.191 146.55 341.031L140.961 351.871C140.529 352.709 140.82 353.766 141.611 354.226L142.827 354.934C143.619 355.394 144.611 355.085 145.044 354.245L148.754 347.05C148.893 346.78 149.212 346.68 149.468 346.828C149.722 346.976 149.816 347.314 149.677 347.586L145.967 354.781C145.253 356.158 143.621 356.666 142.322 355.91Z" fill="#AFCDFB"/>
<path d="M137.137 367.292L134.958 366.023C132.935 364.847 132.253 362.014 133.44 359.711L141.84 343.416C141.979 343.147 142.297 343.046 142.554 343.194C142.81 343.342 142.902 343.68 142.763 343.953L134.363 360.251C133.455 362.014 133.948 364.168 135.463 365.048L137.642 366.317C139.157 367.2 141.131 366.481 142.041 364.718L151.61 346.154C152.518 344.391 152.026 342.237 150.51 341.357C150.257 341.209 150.162 340.871 150.302 340.598C150.441 340.326 150.759 340.228 151.016 340.376C153.038 341.555 153.72 344.386 152.533 346.688L142.967 365.252C141.775 367.554 139.162 368.471 137.137 367.292Z" fill="#AFCDFB"/>
<path opacity="0.2" d="M347.141 295.624H79.5534C72.975 295.624 67.6431 289.959 67.6431 282.971V44.3741C67.6431 37.3854 72.975 31.7211 79.5534 31.7211H347.141C353.72 31.7211 359.052 37.3854 359.052 44.3741V282.971C359.054 289.959 353.72 295.624 347.141 295.624Z" fill="#89BCDE"/>
<path d="M359.054 61.0051H67.6431V41.1679C67.6431 35.9502 71.624 31.7211 76.5354 31.7211H350.162C355.073 31.7211 359.054 35.9502 359.054 41.1679V61.0051Z" fill="#33A8F8"/>
<path d="M79.4263 46.1873C79.4263 44.2525 80.9017 42.6851 82.7229 42.6851C84.5442 42.6851 86.0196 44.2525 86.0196 46.1873C86.0196 48.1221 84.5442 49.6895 82.7229 49.6895C80.9017 49.6869 79.4263 48.1195 79.4263 46.1873Z" fill="#DDE7FE"/>
<path d="M93.2598 46.1873C93.2598 44.2525 94.7352 42.6851 96.5564 42.6851C98.3752 42.6851 99.8531 44.2525 99.8531 46.1873C99.8531 48.1221 98.3777 49.6895 96.5564 49.6895C94.7352 49.6869 93.2598 48.1195 93.2598 46.1873Z" fill="#DDE7FE"/>
<path d="M107.091 46.1873C107.091 44.2525 108.566 42.6851 110.387 42.6851C112.209 42.6851 113.684 44.2525 113.684 46.1873C113.684 48.1221 112.209 49.6895 110.387 49.6895C108.566 49.6869 107.091 48.1195 107.091 46.1873Z" fill="#DDE7FE"/>
<path opacity="0.5" d="M173.343 84.2415H90.7373V171.998H173.343V84.2415Z" fill="#CDE0FB"/>
<path opacity="0.5" d="M261.51 90.7808H195.805C194.081 90.7808 192.683 89.2953 192.683 87.4636C192.683 85.6319 194.081 84.1464 195.805 84.1464H261.51C263.234 84.1464 264.632 85.6319 264.632 87.4636C264.63 89.298 263.234 90.7808 261.51 90.7808Z" fill="#33A8F8"/>
<path opacity="0.5" d="M340.08 86.3322H274.375C272.651 86.3322 271.253 84.8467 271.253 83.015C271.253 81.1832 272.651 79.6978 274.375 79.6978H340.08C341.804 79.6978 343.203 81.1832 343.203 83.015C343.203 84.8494 341.804 86.3322 340.08 86.3322Z" fill="#33A8F8"/>
<path opacity="0.3" d="M274.515 116.311H194.703C193.586 116.311 192.68 115.349 192.68 114.163C192.68 112.976 193.586 112.014 194.703 112.014H274.515C275.632 112.014 276.538 112.976 276.538 114.163C276.538 115.349 275.632 116.311 274.515 116.311Z" fill="#90D2FF"/>
<path opacity="0.3" d="M304.857 116.311H283.788C282.671 116.311 281.765 115.349 281.765 114.163C281.765 112.976 282.671 112.014 283.788 112.014H304.857C305.974 112.014 306.88 112.976 306.88 114.163C306.88 115.349 305.974 116.311 304.857 116.311Z" fill="#90D2FF"/>
<path opacity="0.3" d="M224.818 129.644H194.705C193.588 129.644 192.683 128.682 192.683 127.495C192.683 126.308 193.588 125.346 194.705 125.346H224.818C225.935 125.346 226.841 126.308 226.841 127.495C226.841 128.682 225.935 129.644 224.818 129.644Z" fill="#90D2FF"/>
<path opacity="0.3" d="M273.594 129.644H232.33C231.213 129.644 230.307 128.682 230.307 127.495C230.307 126.308 231.213 125.346 232.33 125.346H273.594C274.711 125.346 275.617 126.308 275.617 127.495C275.617 128.682 274.711 129.644 273.594 129.644Z" fill="#90D2FF"/>
<path opacity="0.3" d="M304.857 129.644H283.788C282.671 129.644 281.765 128.682 281.765 127.495C281.765 126.308 282.671 125.346 283.788 125.346H304.857C305.974 125.346 306.88 126.308 306.88 127.495C306.88 128.682 305.974 129.644 304.857 129.644Z" fill="#90D2FF"/>
<path opacity="0.3" d="M235.564 141.171H194.703C193.586 141.171 192.68 140.209 192.68 139.022C192.68 137.835 193.586 136.873 194.703 136.873H235.564C236.681 136.873 237.587 137.835 237.587 139.022C237.59 140.209 236.684 141.171 235.564 141.171Z" fill="#90D2FF"/>
<path opacity="0.3" d="M313.592 141.171H246.763C245.646 141.171 244.74 140.209 244.74 139.022C244.74 137.835 245.646 136.873 246.763 136.873H313.592C314.709 136.873 315.615 137.835 315.615 139.022C315.615 140.209 314.709 141.171 313.592 141.171Z" fill="#90D2FF"/>
<path opacity="0.3" d="M274.515 158.666H194.703C193.586 158.666 192.68 157.704 192.68 156.517C192.68 155.33 193.586 154.368 194.703 154.368H274.515C275.632 154.368 276.538 155.33 276.538 156.517C276.538 157.701 275.632 158.666 274.515 158.666Z" fill="#90D2FF"/>
<path opacity="0.3" d="M304.857 158.666H283.788C282.671 158.666 281.765 157.704 281.765 156.517C281.765 155.33 282.671 154.368 283.788 154.368H304.857C305.974 154.368 306.88 155.33 306.88 156.517C306.88 157.701 305.974 158.666 304.857 158.666Z" fill="#90D2FF"/>
<path opacity="0.3" d="M224.818 171.996H194.705C193.588 171.996 192.683 171.034 192.683 169.847C192.683 168.66 193.588 167.698 194.705 167.698H224.818C225.935 167.698 226.841 168.66 226.841 169.847C226.841 171.034 225.935 171.996 224.818 171.996Z" fill="#90D2FF"/>
<path opacity="0.3" d="M273.594 171.996H232.33C231.213 171.996 230.307 171.034 230.307 169.847C230.307 168.66 231.213 167.698 232.33 167.698H273.594C274.711 167.698 275.617 168.66 275.617 169.847C275.617 171.034 274.711 171.996 273.594 171.996Z" fill="#90D2FF"/>
<path d="M127.774 97.3227H136.306L159.355 153.369H149.627L144.315 139.934H119.546L114.157 153.369H104.728L127.774 97.3227ZM140.944 131.267L131.89 109.008L122.91 131.267H140.944Z" fill="#90D2FF"/>
<path d="M136.881 189.673H90.7373V199.136H136.881V189.673Z" fill="#F99746"/>
<path d="M136.881 199.139H90.7373V208.602H136.881V199.139Z" fill="#F66819"/>
<path d="M136.881 208.602H90.7373V218.064H136.881V208.602Z" fill="#0069AF"/>
<path d="M170.881 195.031H145.493C144.43 195.031 143.569 194.117 143.569 192.988C143.569 191.859 144.43 190.945 145.493 190.945H170.881C171.943 190.945 172.804 191.859 172.804 192.988C172.804 194.117 171.943 195.031 170.881 195.031Z" fill="#90D2FF"/>
<path d="M162.326 202.234H145.489C144.427 202.234 143.566 201.319 143.566 200.191C143.566 199.062 144.427 198.148 145.489 198.148H162.326C163.388 198.148 164.249 199.062 164.249 200.191C164.249 201.319 163.388 202.234 162.326 202.234Z" fill="#90D2FF"/>
<path d="M136.881 238.604H90.7373V257.942H136.881V238.604Z" fill="#F99746"/>
<path d="M136.881 253.169H90.7373V266.998H136.881V253.169Z" fill="#B75742"/>
<path d="M90.7373 238.604L107.29 253.377L90.7373 266.998V238.604Z" fill="#0069AF"/>
<path d="M170.881 243.962H145.493C144.43 243.962 143.569 243.048 143.569 241.919C143.569 240.79 144.43 239.876 145.493 239.876H170.881C171.943 239.876 172.804 240.79 172.804 241.919C172.804 243.048 171.943 243.962 170.881 243.962Z" fill="#90D2FF"/>
<path d="M162.326 251.168H145.489C144.427 251.168 143.566 250.253 143.566 249.124C143.566 247.996 144.427 247.081 145.489 247.081H162.326C163.388 247.081 164.249 247.996 164.249 249.124C164.249 250.253 163.388 251.168 162.326 251.168Z" fill="#90D2FF"/>
<path d="M361.995 55.6209C361.995 55.6209 363.197 70.8379 359.933 70.6079C356.671 70.3779 350.227 63.6801 337.224 64.7691C324.222 65.8581 308.313 68.8819 298.697 50.8024C289.08 32.7229 310.995 27.5211 310.995 27.5211L361.995 55.6209Z" fill="#233862"/>
<path d="M334.355 54.5055L399.873 60.228L401.234 57.1328L338.423 7.87674L274.973 0L273.756 2.77272L334.355 54.5055Z" fill="#2B478B"/>
<path d="M378.944 106.923C378.558 105.49 377.15 104.66 375.801 105.07C374.453 105.48 373.674 106.973 374.06 108.408C374.445 109.841 375.851 110.671 377.2 110.261C378.548 109.849 379.329 108.356 378.944 106.923Z" fill="#F99746"/>
<path d="M376.759 107.672C379.386 107.456 380.001 132.857 380.001 132.857C380.001 132.857 378.287 133.713 377.446 133.512C376.602 133.311 376.174 129.881 376.174 129.881L376.092 133.478C376.092 133.478 373.211 133.584 372.211 132.838C372.211 132.838 372.602 108.019 376.759 107.672Z" fill="#F99746"/>
<path d="M377.615 108.244L377.14 52.7478L376.802 52.4782L342.581 25.5862L341.352 27.3519L375.232 53.9795L375.998 108.149L377.615 108.244Z" fill="#F99746"/>
<path d="M421.768 370.067H277.839V311.972H422.249C433.92 311.972 443.382 322.024 443.382 334.423V347.105C443.382 359.787 433.706 370.067 421.768 370.067Z" fill="#FFF4E1"/>
<path d="M566.849 335.874V344.615C566.849 349.286 565.745 353.658 563.814 357.419C559.935 364.984 552.722 370.067 544.464 370.067H273.406C271.612 370.067 270.159 368.415 270.159 366.377V365.069C270.159 363.033 271.612 361.379 273.406 361.379H438.642C439.526 360.155 440.304 358.828 440.961 357.416C442.509 354.102 443.382 350.322 443.382 346.31V335.2C443.382 333.157 443.151 331.175 442.713 329.287C441.974 326.089 440.648 323.161 438.881 320.66H273.406C271.612 320.66 270.159 319.008 270.159 316.968V315.662C270.159 313.621 271.612 311.969 273.406 311.969H545.83C555.429 311.969 563.528 319.288 566.041 329.285C566.568 331.381 566.849 333.591 566.849 335.874Z" fill="#33A8F8"/>
<path d="M566.038 329.288H442.713C441.974 326.089 440.648 323.161 438.881 320.66H273.406C271.612 320.66 270.159 319.008 270.159 316.968V315.662C270.159 313.621 271.612 311.969 273.406 311.969H545.83C555.429 311.972 563.525 319.288 566.038 329.288Z" fill="#2496E2"/>
<path d="M277.839 341.018L297.908 341.997L277.839 342.584V341.018Z" fill="#F4D2B8"/>
<path d="M277.839 350.134L325.588 351.11L277.839 351.7V350.134Z" fill="#F4D2B8"/>
<path d="M256.808 415.132H398.097V369.944H255.562C244.975 369.944 236.394 379.06 236.394 390.307V393.447C236.396 405.423 245.535 415.132 256.808 415.132Z" fill="#F87F3B"/>
<path d="M391.29 415.131H552.32V369.943H390.847C380.084 369.943 371.358 379.212 371.358 390.647V393.959C371.361 405.652 380.283 415.131 391.29 415.131Z" fill="#FFF4E1"/>
<path d="M360.722 415.131H557.756C559.39 415.131 560.716 413.722 560.716 411.985V411.515C560.716 409.778 559.39 408.369 557.756 408.369H360.722C359.087 408.369 357.761 409.778 357.761 411.515V411.985C357.761 413.725 359.087 415.131 360.722 415.131Z" fill="#F87F3B"/>
<path d="M360.722 376.701H557.756C559.39 376.701 560.716 375.292 560.716 373.556V373.085C560.716 371.349 559.39 369.94 557.756 369.94H360.722C359.087 369.94 357.761 371.349 357.761 373.085V373.556C357.761 375.295 359.087 376.701 360.722 376.701Z" fill="#F87F3B"/>
<path d="M552.32 392.539L530.38 393.298L552.32 393.756V392.539Z" fill="#F4D2B8"/>
<path d="M552.319 382.138L500.125 382.9L552.319 383.357V382.138Z" fill="#F4D2B8"/>
<path d="M500.663 382.746C500.663 382.746 502.899 384.689 503.641 387.879C503.773 388.437 503.855 389.034 503.872 389.663C503.997 393.903 503.872 403.501 503.872 403.501L510.475 398.703L517.061 403.501V390.493C517.061 388.035 516.497 385.641 515.447 384.076C514.939 383.317 514.322 382.746 513.623 382.746H500.663Z" fill="#699DEE"/>
<path d="M500.663 382.746C500.663 382.746 502.899 384.689 503.641 387.879L516.875 388.07C516.875 388.07 516.355 383.5 513.625 382.746H500.663Z" fill="#568CDB"/>
<path d="M380.583 312.093H241.521V245.704H381.091C393.432 245.704 403.436 256.332 403.436 269.443V287.821C403.434 301.225 393.203 312.093 380.583 312.093Z" fill="#FFF4E1"/>
<path d="M403.514 271.462V285.752C403.479 291.855 400.816 297.149 396.905 299.98C394.979 301.368 392.753 302.163 390.389 302.163H237.262C235.468 302.163 234.012 304.008 234.012 306.287V307.973C234.012 310.249 235.468 312.096 237.262 312.096H501.792C509.383 312.096 516.091 307.31 520.141 299.983C522.696 295.365 524.197 289.743 524.197 283.671V272.398C524.197 268.238 523.448 264.299 522.107 260.792C518.705 251.866 511.5 245.71 503.16 245.71H237.262C235.468 245.71 234.012 247.552 234.012 249.828V251.514C234.012 253.79 235.468 255.638 237.262 255.638H390.857C394.527 255.638 397.851 257.62 400.172 260.792C402.225 263.599 403.494 267.342 403.514 271.462Z" fill="#AFCDFB"/>
<path d="M234.01 306.286V307.973C234.01 310.249 235.465 312.096 237.259 312.096H501.789C509.38 312.096 516.088 307.309 520.139 299.982H396.905C394.979 301.37 392.753 302.166 390.389 302.166H237.262C235.465 302.163 234.01 304.008 234.01 306.286Z" fill="#A4C4F4"/>
<path d="M241.521 278.898L261.152 280.014L241.521 280.688V278.898Z" fill="#F4D2B8"/>
<path d="M241.521 263.62L288.222 264.736L241.521 265.408V263.62Z" fill="#F4D2B8"/>
<path d="M287.742 264.513C287.742 264.513 284.659 266.617 283.639 270.08C283.46 270.685 283.343 271.333 283.318 272.015C283.149 276.611 283.318 287.017 283.318 287.017L274.219 281.816L265.143 287.017V272.916C265.143 270.249 265.921 267.656 267.367 265.956C268.069 265.134 268.919 264.513 269.88 264.513H287.742Z" fill="#F87F3B"/>
<path d="M287.742 264.513C287.742 264.513 284.659 266.617 283.639 270.08L265.404 270.286C265.404 270.286 266.12 265.33 269.882 264.513H287.742Z" fill="#F66819"/>
<path d="M55.2929 306.22C55.2929 306.22 83.7986 319.415 88.9713 319.175C94.1464 318.934 126.028 308.858 126.028 308.858L125.217 314.684C125.217 314.684 100.613 329.718 92.0092 330.569C83.5399 331.41 54.5814 322.494 51.7848 320.612C48.9907 318.733 47.167 308.126 55.2929 306.22Z" fill="#ED985F"/>
<path d="M51.0108 257.686C51.0108 257.686 40.4938 255.563 35.2589 259.626C25.772 266.987 25.2619 292.362 21.7065 296.142C18.1511 299.922 9.57972 298.309 8.81588 317.869C8.05205 337.429 12.227 339.062 7.25587 347.793C2.28224 356.523 9.36077 365.261 9.36077 365.261C9.36077 365.261 6.46217 360.443 7.70371 356.962C7.70371 356.962 8.91043 364.64 13.5009 366.44C18.0914 368.24 18.7706 369.559 19.5046 372.2C19.5046 372.2 58.674 350.877 58.7163 335.755C58.7586 320.634 66.4243 305.652 62.6599 299.097C62.6599 299.097 64.3368 301.901 64.5409 305.02C64.5409 305.02 66.8 300.424 62.8838 296.144C58.9701 291.865 67.4768 283.008 66.2153 272.752C65.352 265.708 60.7018 257.992 51.0108 257.686Z" fill="#2A2C33"/>
<path d="M58.756 320.631C56.253 322.476 53.1131 323.998 49.172 324.963C34.4004 328.59 28.7401 315.326 26.6128 306.22C28.6281 304.996 30.5215 304.727 31.6163 304.587C32.6837 304.452 33.8058 304.365 34.7363 304.314C36.3958 302.964 38.8665 297.442 39.4138 288.865L40.108 289.063L51.7496 292.449C51.7496 292.449 51.2172 296.38 50.9559 300.096C50.7544 303.003 50.7221 305.781 51.2396 306.463C52.1477 306.672 52.6926 306.81 52.6926 306.81C52.6926 306.81 52.6926 306.815 52.6976 306.82C52.8593 307.092 56.2356 312.995 58.756 320.631Z" fill="#FFCAAC"/>
<path d="M51.7549 292.452C51.7549 292.452 51.22 296.38 50.9612 300.099C44.3654 299.398 41.3051 292.727 40.1133 289.066L51.7549 292.452Z" fill="#EEAE8A"/>
<path d="M53.7225 296.142C53.7225 296.142 38.0677 295.224 38.7544 284.876C39.4436 274.528 37.886 267.439 47.9104 267.59C57.9348 267.738 59.6117 271.832 60.174 275.345C60.7363 278.858 57.8129 296.113 53.7225 296.142Z" fill="#FFCAAC"/>
<path d="M60.0972 269.556C57.8903 266.26 56.0168 266.805 54.932 267.661C46.7214 262.018 40.7178 268.977 40.7178 268.977C39.1702 276.323 33.8433 280.193 33.8433 280.193C33.8433 280.193 36.5677 282.281 43.2581 280.986C45.3033 280.589 47.1967 279.212 48.8438 277.489C45.8656 282.022 42.0165 285.157 42.0165 285.157C50.1251 281.9 54.0587 270.545 54.4568 269.342C55.35 270.326 57.0991 272.448 57.5395 274.43C58.1416 277.124 60.7367 281.337 62.237 281.266C62.237 281.266 63.4088 274.499 60.0972 269.556Z" fill="#2A2C33"/>
<path d="M22.1568 354.445C20.7436 346.767 16.1332 316.093 20.7436 306.223C22.3982 302.676 28.8945 302.356 36.0227 302.668C38.2396 304.188 46.6915 309.937 50.1624 309.22C50.1997 309.212 50.2669 309.196 50.3565 309.173C51.9911 308.739 52.6081 307.518 51.2447 306.466C51.2422 306.463 54.7752 306.104 59.1592 306.981C61.6348 307.476 68.3128 311.147 68.3128 311.147C68.3128 311.147 64.9489 317.602 59.9902 319.83C60.8337 327.844 59.5797 331.378 51.7547 349.889C45.1415 365.534 52.6479 379.619 52.6479 379.619C52.6479 379.619 13.7198 412.868 13.5033 395.938C13.3391 383.193 23.9631 364.257 22.1568 354.445Z" fill="#50BFA5"/>
<path d="M54.5763 415.773C56.6936 415.519 58.5994 414.288 59.7838 412.406C59.9704 412.107 60.1719 411.787 60.3859 411.443C64.8171 404.317 66.5413 382.495 76.5085 359.245C78.9368 353.586 87.65 352.569 90.0261 346.17C90.0261 346.17 95.8755 325.431 78.8323 324.818C61.7891 324.207 33.1889 382.521 32.7386 388.638C32.2982 394.561 21.4677 419.74 54.5763 415.773Z" fill="#F66819"/>
<path d="M122.311 415.295H98.0548C98.0548 415.295 97.1467 411.184 98.7415 408.388C100.152 405.914 99.6099 404.502 98.5674 402.457C99.6671 402.935 101.088 403.368 102.653 403.273C103.862 403.199 105.138 402.618 106.26 401.925C107.305 403.189 111.774 408.573 113.172 409.638C114.755 410.849 121.823 410.418 122.311 415.295Z" fill="#004F84"/>
<path d="M90.5784 330.813C92.0389 342.445 97.744 379.162 107.806 397.075C111.05 402.85 99.6325 406.088 99.5703 406.07C98.0401 405.644 95.4874 403.051 94.313 401.925C86.1447 394.104 69.5618 371.959 69.5618 354.205C69.5618 345.548 69.4175 329.015 75.3441 324.813C78.9916 322.225 89.9987 326.19 90.5784 330.813Z" fill="#F66819"/>
<path d="M40.1106 415.295C40.1106 415.295 41.0088 413.965 42.5762 411.441C44.4423 408.438 46.5049 402.533 49.0103 394.96C51.6427 387.012 54.7627 377.233 58.664 367.056C59.8682 363.916 61.1471 360.736 62.5056 357.562C64.9339 351.903 71.6118 352.685 73.9879 346.286C73.9879 346.286 83.2584 324.104 66.2177 323.494C49.1746 322.883 16.79 382.831 14.9289 388.638C12.8912 394.992 2.95143 421.385 40.1106 415.295Z" fill="#F87F3B"/>
<path d="M104.507 415.295H80.2506C80.2506 415.295 79.345 411.184 80.9373 408.388C82.3481 405.914 81.8057 404.502 80.7632 402.457C81.8629 402.935 83.2836 403.368 84.8485 403.273C86.0577 403.199 87.3341 402.618 88.4562 401.925C89.5012 403.189 93.9698 408.573 95.3681 409.638C96.948 410.849 104.017 410.418 104.507 415.295Z" fill="#0069AF"/>
<path d="M49.0103 394.96C51.6426 387.012 54.7627 377.232 58.6639 367.056C57.6463 359.346 55.4469 352.603 51.7521 349.883C51.7521 349.886 42.7901 379.387 49.0103 394.96Z" fill="#F66819"/>
<path d="M76.419 329.988C77.8795 341.621 79.9371 379.162 89.9988 397.075C93.2432 402.85 81.8255 406.088 81.7633 406.07C80.2332 405.644 77.6804 403.051 76.5061 401.925C68.3378 394.104 51.7549 371.959 51.7549 354.205C51.7549 345.548 61.319 329.708 67.243 325.505C70.893 322.917 75.8393 325.365 76.419 329.988Z" fill="#F87F3B"/>
<path d="M129.071 296.668L124.043 287.028L113.165 319.28L119.582 326.599L129.071 296.668Z" fill="#163560"/>
<path d="M102.815 302.314L92.7007 333.006L119.582 326.599L129.071 296.668L102.815 302.314Z" fill="#1C468A"/>
<path d="M93.2379 331.458L92.7651 330.583L102.334 301.536L102.814 302.314L93.2379 331.458Z" fill="#EFDECE"/>
<path d="M102.334 301.536L127.82 296.269L129.071 296.668L102.815 302.314L102.334 301.536Z" fill="#FCECDB"/>
<path d="M129.071 296.668L123.635 287.499L120.167 297.852L127.82 296.269L129.071 296.668Z" fill="#EFDECE"/>
<path d="M110.575 306.759C109.702 306.58 107.826 305.829 105.927 305.274C106.494 304.806 107.124 304.233 107.301 303.643C107.639 302.507 107.865 302.142 106.736 302.501C105.606 302.861 101.655 304.788 101.655 304.788C101.655 304.788 101.663 304.793 101.665 304.793C99.4209 305.491 97.3508 308.861 97.3508 308.861C97.3508 308.861 69.5592 319.241 66.2153 319.418C61.0426 319.693 26.6129 306.223 26.6129 306.223C18.4869 308.129 20.3106 318.733 23.1072 320.615C25.9038 322.497 50.6774 332.071 65.3594 332.251C72.7962 332.343 99.8463 313.872 99.8463 313.872C99.8463 313.872 103.009 312.337 105.492 312.818C107.975 313.299 113.735 312.818 114.976 310.658C116.22 308.499 112.043 307.058 110.575 306.759Z" fill="#FFCAAC"/>
<path d="M44.3526 312.863C44.3526 312.863 41.2724 323.219 30.6982 325.574C30.6982 325.574 13.2345 319.859 21.9303 307.219C21.9303 307.222 30.5265 300.434 44.3526 312.863Z" fill="#50BFA5"/>
<path d="M128.62 307.539C128.625 307.254 128.598 306.971 128.526 306.699C128.526 306.699 126.035 302.512 125.219 302.343C122.734 301.822 122.734 305.298 123.261 307.539C123.629 309.101 124.562 310.6 125.319 311.409L125.219 314.684C129.417 312.234 128.62 307.539 128.62 307.539Z" fill="#FFCAAC"/>
<path d="M398.505 300.445C403.074 309.03 408.868 312.376 408.868 312.376L433.067 312.559C433.07 312.556 395.02 293.895 398.505 300.445Z" fill="#004F84"/>
<path d="M416.653 366.747C417.278 367.519 417.352 368.378 417.036 369.292C417.036 369.295 417.034 369.303 417.029 369.306C416.439 370.995 414.521 372.874 412.294 374.745C412.011 374.986 411.757 375.205 411.535 375.409C411.478 375.462 411.418 375.515 411.366 375.57C411.321 375.612 411.279 375.655 411.234 375.694C409.154 377.701 409.931 378.171 406.191 382.247C401.929 386.891 399.015 386.954 398.189 386.521C397.49 386.153 398.931 383.682 400.528 380.907C400.605 380.772 400.682 380.637 400.76 380.502C400.971 380.132 401.183 379.76 401.394 379.387C403.265 376.046 402.802 374.468 402.397 369.47C402.068 365.41 396.604 346.754 396.604 346.754L404.723 345.332C404.723 345.332 407.067 360.171 409.741 362.473C411.172 363.699 412.782 363.729 414.16 364.64C414.257 364.704 414.354 364.77 414.446 364.836C415.228 365.396 416.026 365.973 416.653 366.747Z" fill="#FFCAAC"/>
<path d="M416.653 366.747C417.277 367.519 417.352 368.378 417.036 369.292C417.036 369.295 417.034 369.303 417.029 369.306C416.309 370.992 414.438 372.861 412.286 374.73C412.005 374.975 411.756 375.2 411.535 375.409C411.478 375.462 411.418 375.515 411.366 375.57C411.321 375.612 411.279 375.655 411.234 375.694C409.154 377.7 409.93 378.171 406.191 382.247C401.928 386.891 399.015 386.954 398.189 386.521C397.49 386.153 398.93 383.682 400.528 380.907C401.354 380.592 405.19 378.969 408.109 375.06C410.679 371.624 412.408 367.199 414.16 364.643C414.257 364.706 414.354 364.773 414.446 364.839C415.227 365.396 416.026 365.973 416.653 366.747Z" fill="#004F84"/>
<path d="M351.304 360.876C350.787 363.533 347.221 363.062 343.243 361.997C339.265 360.932 340.203 362.169 334.535 361.461C328.867 360.752 327.163 358.492 326.996 357.594C326.847 356.798 329.651 356.539 332.661 356.193C333.039 356.15 333.42 356.103 333.801 356.058C337.199 355.63 339.7 353.322 342.795 351.435C345.729 349.646 350.135 342.303 350.135 342.303L357.91 343.016C357.91 343.016 353.785 349.574 352.185 352.426C351.245 354.105 351.279 356.333 351.384 358.054C351.439 358.987 351.488 359.941 351.304 360.876Z" fill="#FFCAAC"/>
<path d="M343.243 361.997C339.265 360.932 340.203 362.169 334.535 361.461C328.867 360.752 327.163 358.492 326.996 357.594C326.847 356.798 329.651 356.539 332.661 356.193L332.689 356.254C332.689 356.254 336.075 358.841 340.795 358.997C344.644 359.127 348.727 357.985 351.384 358.051C351.439 358.987 351.488 359.943 351.304 360.877C350.787 363.533 347.221 363.062 343.243 361.997Z" fill="#004F84"/>
<path d="M381.472 308.253L388.607 329.097L397.923 356.314C397.923 356.314 400.498 356.597 402.971 355.862C405.248 355.183 407.868 353.375 407.868 353.375C407.868 353.375 405.424 324.207 400.617 307.439C399.386 303.136 397.995 299.649 396.45 297.683C388.884 288.056 381.472 308.253 381.472 308.253Z" fill="#004F84"/>
<path d="M389.085 275.29C393.86 273.693 407.437 275.89 421.069 278.831L423.96 273.844L453.461 271.618C453.461 271.618 463.038 294.614 457.616 309.181C456.82 311.322 454.875 312.212 452.222 312.239C452.222 312.242 452.22 312.242 452.22 312.244C452.22 312.244 434.622 312.569 428.924 312.527C414.259 312.416 397.963 301.587 395.848 301.119C392.387 300.358 390.951 307.711 387.433 315.416C383.915 323.124 354.623 349.416 354.623 349.416C354.623 349.416 350.147 349.429 348.304 348.678C346.321 347.872 345.602 346.838 345.602 346.838C345.602 346.838 378.315 278.892 389.085 275.29Z" fill="#0069AF"/>
<path d="M424.418 230.709C434.878 236.929 456.094 249.822 456.206 249.74C456.206 249.74 464.013 252.933 468.477 249.833C475.914 244.665 479.977 230.638 466.519 218.44C459.806 212.355 455.019 210.851 454.355 201.214C453.994 195.986 447.383 178.686 436.199 180.198C435.264 180.325 434.323 180.412 433.383 180.372C432.079 180.317 429.922 180.504 427.703 181.884C421.353 185.836 408.694 228.214 424.418 230.709Z" fill="#2A2C33"/>
<path d="M433.253 225.547C433.206 225.579 438.406 227.508 441.902 225.893C445.191 224.379 447.714 218.667 447.664 218.664C446.174 218.58 444.544 217.181 443.345 208.084L442.708 208.321L432.002 212.323C432.002 212.323 432.751 215.968 433.229 219.439C433.632 222.349 433.841 225.14 433.253 225.547Z" fill="#FFCAAC"/>
<path d="M432.004 212.321C432.004 212.321 432.46 214.877 433.094 218.527C439.235 217.401 441.822 211.834 442.711 208.319L432.004 212.321Z" fill="#EEAE8A"/>
<path d="M430.39 215.923C430.39 215.923 445.015 213.949 443.716 204.293C442.42 194.638 443.432 187.879 434.04 188.73C424.647 189.581 423.331 193.541 423.028 196.876C422.724 200.212 426.551 216.188 430.39 215.923Z" fill="#FFCAAC"/>
<path d="M423.597 191.593C423.597 191.593 432.893 200.225 439.249 200.963C445.606 201.7 448.03 199.549 448.03 199.549C448.03 199.549 444.303 196.213 442.081 190.858C441.427 189.28 440.028 188.188 438.411 188.03C433.87 187.58 425.262 187.324 423.597 191.593Z" fill="#2A2C33"/>
<path d="M429.449 190.868C429.449 190.868 426.299 194.059 425.297 196.435C424.331 198.729 424.008 204.227 424.752 206.418C424.752 206.418 419.942 196.311 422.736 191.439C425.697 186.274 429.449 190.868 429.449 190.868Z" fill="#2A2C33"/>
<path d="M420.801 248.318C421.034 279.741 420.756 273.172 423.973 276.18C424.747 276.905 426.936 277.349 429.82 277.573C438.884 278.282 454.837 276.812 455.454 275.036C457.587 268.89 456.124 266.966 457.93 257.548C458.119 256.547 458.35 255.463 458.624 254.281C460.122 247.814 461.552 245.622 456.459 235.174C451.839 225.711 447.027 218.025 446.589 218.297C434.186 225.994 433.233 219.439 433.233 219.439C433.233 219.439 420.684 232.993 420.801 248.318Z" fill="#FFF4E1"/>
<path d="M388.605 329.097L397.921 356.314C397.921 356.314 400.496 356.597 402.969 355.862C405.246 355.183 407.866 353.375 407.866 353.375C407.866 353.375 405.422 324.207 400.615 307.439L388.605 329.097Z" fill="#0069AF"/>
<path d="M433.231 219.436C433.231 219.436 420.507 221.63 418.974 227.432C417.444 233.234 408.435 267.344 408.435 267.344C408.435 267.344 414.889 268.626 417.895 265.478C420.9 262.33 428.476 236.138 428.476 236.138L433.231 219.436Z" fill="#FFF4E1"/>
<path d="M429.817 277.571C438.881 278.279 454.835 276.809 455.452 275.033C457.584 268.888 456.121 266.964 457.927 257.546L453.641 244.428C453.641 244.428 454.267 259.005 450.197 262.806C446.132 266.607 433.587 270.08 431.599 273.268C430.641 274.798 430.006 276.336 429.817 277.571Z" fill="#FEE5CF"/>
<path d="M440.25 271.52C440.25 271.52 431.318 269.337 429.867 270.17C428.419 271.002 424.869 274.047 424.421 275.112C423.973 276.178 427.641 274.325 428.832 273.994C429.604 273.78 431.626 274.544 432.627 274.906C436.839 276.434 439.431 275.683 439.431 275.683L440.25 271.52Z" fill="#FFCAAC"/>
<path d="M446.594 218.289C446.594 218.289 458.602 219.167 462.719 225.36C468.516 234.077 479.884 271.132 473.194 276.014C465.663 281.509 439.07 277.211 439.07 277.211C439.07 277.211 438.214 272.805 439.461 270.688C440.707 268.571 460.759 265.282 461.689 264.307C462.62 263.332 450.262 245.073 450.281 242.125C450.304 239.178 446.594 218.289 446.594 218.289Z" fill="#FFF4E1"/>
<path d="M429.417 272.813C429.417 272.813 427.526 275.37 426.909 275.672C426.292 275.973 425.896 275.894 425.896 275.894L427.175 273.487L429.417 272.813Z" fill="#FFCAAC"/>
<path d="M429.867 270.17L424.398 272.94C424.398 272.94 424.627 273.344 425.299 273.318C425.971 273.291 427.668 272.646 427.668 272.646L429.867 270.17Z" fill="#FFCAAC"/>
<path d="M428.073 279.815L384.96 279.492L372.219 245.133L415.265 245.456L428.073 279.815Z" fill="#F87F3B"/>
<path d="M384.462 278.155L441.397 278.581L441.387 279.916L384.96 279.493L384.462 278.155Z" fill="#F66819"/>
<path d="M395.957 262.444C395.641 261.236 396.303 260.266 397.435 260.274C398.57 260.282 399.744 261.267 400.063 262.475C400.379 263.683 399.717 264.653 398.585 264.646C397.453 264.638 396.273 263.649 395.957 262.444Z" fill="white"/>
<path d="M166.056 387.934L166.051 415.6L297.047 415.627L297.053 387.961L166.056 387.934Z" fill="#B75742"/>
<path d="M166.051 415.604L146.798 406.855L135.6 401.767L147.062 396.562L166.058 387.938C166.058 387.938 168.594 394.675 168.631 401.008C168.691 410.949 166.051 415.604 166.051 415.604Z" fill="#FCECDB"/>
<path d="M312.279 397.141L312.276 405.888C312.276 411.267 308.168 415.628 303.105 415.628H297.047L297.052 387.961H303.643C308.415 387.964 312.281 392.074 312.279 397.141Z" fill="#FCECDB"/>
<path d="M147.062 396.56C147.54 399.356 147.953 403.638 146.798 406.852L135.6 401.764L147.062 396.56Z" fill="#004F84"/>
<path d="M194.215 243.891C194.215 243.891 196.562 254.707 203.401 254.707C209.263 254.707 217.307 240.629 217.307 240.629L194.215 243.891Z" fill="#F99746"/>
<path d="M272.741 403.643L268.347 406.852C268.347 406.852 247.213 382.921 242.11 359.983C241.2 355.886 240.832 351.847 241.222 348.015C241.222 348.015 240.914 346.976 240.374 345.139C240.349 345.059 240.327 344.975 240.302 344.893C240.065 344.087 239.782 343.138 239.468 342.065C238.443 338.599 237.035 333.855 235.433 328.455C231.738 316.026 223.291 287.998 219.681 276.341L245.626 266.369C245.626 266.369 248.572 273.508 252.807 292.912C253.459 295.444 254.113 298.246 254.722 301.296C255.414 304.753 256.061 308.53 256.598 312.614C257.509 319.531 258.116 327.313 258.153 335.848C258.168 339.321 258.089 342.921 257.895 346.635C257.753 349.36 258.134 352.989 258.848 357.118C262.117 376.001 272.741 403.643 272.741 403.643Z" fill="#0069AF"/>
<path d="M286.565 415.176H265.588C265.588 415.176 264.804 411.621 266.18 409.202C267.399 407.061 266.932 405.842 266.028 404.072C266.979 404.484 268.208 404.862 269.561 404.777C270.606 404.714 271.711 404.209 272.681 403.612C273.585 404.706 277.451 409.361 278.658 410.28C280.031 411.332 286.142 410.96 286.565 415.176Z" fill="#004F84"/>
<path d="M256.598 312.619L240.302 344.896C240.065 344.089 239.782 343.14 239.468 342.067C238.443 338.602 237.035 333.858 235.433 328.457C231.738 316.029 223.291 288.001 219.681 276.344L245.626 266.371C245.626 266.371 248.572 273.511 252.807 292.914C253.459 295.447 254.113 298.248 254.722 301.299C255.417 304.756 256.061 308.536 256.598 312.619Z" fill="#004F84"/>
<path d="M219.258 408.2C219.258 408.2 217.805 411.985 219.173 415.176H230.583C230.583 415.176 230.82 412.297 226.679 408.962C223.544 406.435 219.258 408.2 219.258 408.2Z" fill="#004F84"/>
<path d="M231.676 161.811C231.683 161.209 231.974 154.701 241.28 154.125C241.28 154.125 236.714 154.823 235.97 156.982C235.97 156.982 239.028 154.26 241.588 155.045C244.146 155.83 245.746 160.519 245.796 162.073C245.845 163.627 244.549 168.676 242.947 169.141C242.34 169.318 241.636 169.292 240.996 169.194C241.441 169.894 241.879 170.669 242.3 171.533C246.199 179.542 242.835 188.976 239.67 188.18C237.64 187.67 236.406 191.407 236.406 191.407L216.879 173.568C216.877 173.568 223.719 157.559 231.676 161.811Z" fill="#2A2C33"/>
<path d="M219.402 216.013C221.567 217.61 224.281 218.923 227.69 219.758C240.464 222.893 245.36 211.424 247.199 203.55C245.457 202.49 243.818 202.258 242.872 202.139C241.949 202.023 240.979 201.946 240.173 201.904C238.737 200.735 236.6 195.959 236.13 188.542L235.527 188.714L225.461 191.64C225.461 191.64 225.921 195.039 226.147 198.253C226.322 200.767 226.349 203.172 225.901 203.759C225.115 203.939 224.645 204.058 224.645 204.058C224.645 204.058 224.645 204.06 224.64 204.068C224.5 204.309 221.582 209.41 219.402 216.013Z" fill="#FFCAAC"/>
<path d="M225.458 191.645C225.458 191.645 225.921 195.042 226.145 198.259C231.847 197.653 234.495 191.883 235.525 188.719L225.458 191.645Z" fill="#EEAE8A"/>
<path d="M225.341 196.749C225.341 196.749 238.473 193.165 236.246 184.511C234.02 175.857 234.214 169.567 225.734 171.491C217.255 173.413 216.484 177.187 216.566 180.266C216.648 183.346 221.868 197.458 225.341 196.749Z" fill="#FFCAAC"/>
<path d="M215.71 175.342C217.059 172.149 218.733 172.276 219.79 172.81C225.856 166.551 232.057 171.38 232.057 171.38C234.535 177.332 239.667 179.658 239.667 179.658C239.667 179.658 237.69 181.918 231.808 182.019C230.011 182.05 228.185 181.22 226.516 180.055C229.763 183.364 233.525 185.333 233.525 185.333C226.13 184.025 220.99 175.099 220.462 174.15C219.86 175.144 218.716 177.256 218.656 179.019C218.574 181.411 219.452 186.031 218.168 186.24C218.168 186.24 213.69 180.129 215.71 175.342Z" fill="#2A2C33"/>
<path d="M221.564 203.342C221.564 203.342 243.618 197.653 253.207 206.056L248.415 277.06L205.282 265.991C205.282 265.991 206.496 261.497 214.767 249.55C223.037 237.603 219.439 220.078 221.564 203.342Z" fill="#FFCAAC"/>
<path d="M234.42 269.157C234.42 269.157 234.395 269.398 234.351 269.858C234.331 270.056 234.306 270.294 234.278 270.571C234.092 272.411 233.741 275.942 233.288 280.534C232.104 292.576 230.248 311.916 228.981 327.183C227.991 339.12 227.362 348.567 227.702 350.084C228.723 354.649 227.702 409.215 227.702 409.215C224.038 411.084 218.479 409.215 218.479 409.215C218.479 409.215 208.714 360.041 210.082 353.208C211.448 346.373 209.169 340.54 209.169 340.54C201.588 303.03 202.416 282.238 203.924 272.287C204.362 269.392 204.857 267.415 205.22 266.21C205.526 265.184 205.74 264.717 205.74 264.717C222.46 259.935 234.42 269.157 234.42 269.157Z" fill="#0069AF"/>
<path d="M256.181 226.308C255.116 234.851 250.856 245.302 249.336 250.93C249.336 250.93 251.879 270.463 249.45 275.829C249.174 276.442 248.833 276.867 248.415 277.06C239.421 281.223 204.397 277.182 202.919 265.177C202.381 260.815 216.26 245.474 217.068 243.613C217.404 242.844 217.763 240.346 216.135 235.176C213.829 242.73 201.1 240.558 201.1 240.558C202.593 237.841 206.318 219.053 210.473 210.571C213.598 204.195 221.94 203.27 221.94 203.27C221.94 203.27 225.413 209.122 233.811 208.292C242.208 207.462 243.745 202.001 243.745 202.001C243.745 202.001 251.195 203.053 253.489 205.02C253.884 205.361 257.576 215.117 256.181 226.308Z" fill="#F87F3B"/>
<path d="M249.336 250.93C249.336 250.93 251.879 270.463 249.45 275.829C242.897 272.334 237.734 262.882 238.926 252.354C239.807 244.57 241.118 242.797 245.037 238.343C247.918 235.07 254.576 234.885 254.053 236.442C252.501 241.076 250.14 247.959 249.336 250.93Z" fill="#F66819"/>
<path d="M221.982 227.831L237 253.425H211.448L197.139 228.383L221.982 227.831Z" fill="#0069AF"/>
<path d="M236.219 252.14L236.478 251.247L222.269 227.025L221.982 227.831L236.219 252.14Z" fill="#EFDECE"/>
<path d="M222.269 227.025L198.197 227.752L197.139 228.384L221.982 227.831L222.269 227.025Z" fill="#FCECDB"/>
<path d="M197.139 228.383L183.634 220.617L199.376 246.88L211.448 253.425L197.139 228.383Z" fill="#004F84"/>
<path d="M268.601 246.32C267.155 247.023 263.441 251.667 262.117 252.14C256.158 254.257 230.8 248.622 230.8 248.622L231.586 243.904C231.586 243.904 256.477 244.607 259.211 243.827C259.726 243.679 262.416 239.21 263.451 238.57L268.601 246.32Z" fill="#FFCAAC"/>
<path d="M231.586 243.901C231.586 243.901 228.585 241.306 226.558 241.893C224.53 242.479 221.544 245.204 220.437 245.849C219.33 246.494 216.319 248.802 217.844 250.197C219.37 251.593 224.122 250.396 226.003 249.325C227.884 248.255 230.802 248.619 230.802 248.619L231.586 243.901Z" fill="#FFCAAC"/>
<path d="M227.132 241.811C227.132 241.811 223.485 241.348 222.487 241.369C221.492 241.39 221.761 241.623 222.31 242.446C222.86 243.268 224.759 243.58 224.846 243.868C224.933 244.157 227.132 241.811 227.132 241.811Z" fill="#FFCAAC"/>
<path d="M243.743 202.001C243.743 202.001 254.561 203.365 257.539 208.292C261.306 214.522 270.193 239.339 269.907 245.593C269.907 245.593 263.408 257.342 241.128 255.46C241.128 255.46 238.809 246.761 243.496 243.888C243.496 243.888 254.941 241.726 256.26 240.492L246.93 222.476L243.743 202.001Z" fill="#F87F3B"/>
<path d="M200.6 237.74C200.264 236.292 197.293 237.196 196.29 238.031C196.047 238.234 195.785 238.578 195.529 238.982C195.497 238.739 195.472 238.509 195.457 238.327C195.4 237.648 194.656 236.429 194.469 237.341C194.285 238.253 193.979 242.086 193.979 242.086C193.942 245.173 195.81 246.447 197.01 245.442C198.209 244.438 200.933 239.189 200.6 237.74Z" fill="#FFCAAC"/>
<path d="M571.267 418H0.735448C0.331264 418 0 417.414 0 416.699V415.848C0 415.133 0.331264 414.547 0.735448 414.547H571.264C571.669 414.547 572 415.133 572 415.848V416.699C572.002 417.418 571.671 418 571.267 418Z" fill="#2E3552"/>
</svg>
