<svg width="20" height="22" viewBox="0 0 20 22" fill="none" xmlns="http://www.w3.org/2000/svg">
<g opacity="0.5" clip-path="url(#clip0_1241_20857)">
<path d="M19.3613 19.2498L14.6012 14.2801C15.8251 12.8196 16.4957 10.982 16.4957 9.06894C16.4957 4.59932 12.8732 0.96286 8.42069 0.96286C3.96821 0.96286 0.345703 4.59932 0.345703 9.06894C0.345703 13.5386 3.96821 17.175 8.42069 17.175C10.0922 17.175 11.6851 16.6689 13.047 15.7082L17.8432 20.7156C18.0436 20.9246 18.3133 21.0399 18.6022 21.0399C18.8757 21.0399 19.1352 20.9352 19.3321 20.7449C19.7506 20.3406 19.764 19.6703 19.3613 19.2498ZM8.42069 3.07749C11.7118 3.07749 14.3892 5.76518 14.3892 9.06894C14.3892 12.3727 11.7118 15.0604 8.42069 15.0604C5.12961 15.0604 2.45222 12.3727 2.45222 9.06894C2.45222 5.76518 5.12961 3.07749 8.42069 3.07749Z" fill="#999EA5"/>
</g>
<defs>
<clipPath id="clip0_1241_20857">
<rect width="20" height="20.077" fill="white" transform="translate(0 0.96286)"/>
</clipPath>
</defs>
</svg>
