<svg width="760" height="516" viewBox="0 0 760 516" fill="none" xmlns="http://www.w3.org/2000/svg">
<path d="M447.2 164.041L456.299 154.704C453.453 137.818 438.517 129.693 428.683 128.584C402.198 125.602 388.701 144.916 383.019 175.887C372.649 232.42 385.706 469.815 385.706 469.815C386.682 463.508 458.609 225.116 456.766 159.62L447.2 164.041Z" fill="#96D9C9"/>
<path d="M100.186 350.457L99.0581 359.313L96.3556 349.067C88.7612 346.531 82.1623 345.661 76.9322 346.923C30.2032 358.187 110.953 426.351 110.953 426.351C110.953 426.351 85.2187 409.214 60.293 398.367L59.978 407.346L56.7894 397.2C37.4243 389.157 19.4552 385.441 15.8661 397.051C12.4869 407.981 19.288 418.329 30.9926 427.539L44.4471 428.038L36.5144 431.565C63.5438 449.931 108.258 463.063 123.696 466.053C108.931 463.595 72.8336 458.613 51.4426 463.508L54.7984 469.435L46.3525 464.956C38.867 467.517 34.2162 471.757 34.714 478.435C35.6706 491.204 87.9057 495.803 87.9057 495.803L278.718 493.926L279.779 494.491C279.779 494.487 161.699 374.359 100.186 350.457Z" fill="#3C8F7C"/>
<path d="M683.749 468.577C680.067 450.45 642.702 445.126 595.07 455.061C612.032 448.916 635.333 434.922 647.399 428.529L639.147 422.957L655.724 423.773C669.284 415.355 676.062 407.086 671.633 399.604C668.323 394.016 661.067 391.694 651.229 391.718L646.05 401.551L647.127 391.854C622.314 393.372 616.687 389.079 583.214 403.428C604.131 391.912 607.152 388.34 608.525 383.713L597.198 378.458H610.473C621.202 366.213 638.226 341.994 631.168 330.829C625.343 321.619 599.76 334.405 583.436 341.045L576.491 357.618L577.899 343.458C525.986 367.442 543.582 348.201 543.582 348.201C543.582 348.201 597.773 229.302 565.848 231.975C553.245 233.031 539.693 241.086 526.383 253.995L526.045 265.816L522.086 258.318C512.392 268.398 502.791 280.606 493.63 293.709C506.053 266.03 515.479 238.842 516.416 218.599L506.932 217.378L516.292 210.474C515.409 200.245 511.591 192.512 503.852 188.425C491.985 182.152 479.526 191.642 467.265 210.499L470.294 227.52L462.688 217.985C418.775 293.895 378.621 480.781 378.621 480.781L375.437 490.919L504.447 497.675C504.436 497.671 691.184 505.19 683.749 468.577Z" fill="#50BFA5"/>
<path opacity="0.5" d="M609.201 181.349L600.251 177.96L576.282 210.167C574.211 212.948 575.337 217.078 578.488 218.274C580.476 219.027 582.689 218.342 583.98 216.578L589.556 208.948L598.949 212.504L598.836 222.246C598.808 224.466 600.119 226.463 602.091 227.209L602.261 227.274C605.417 228.471 608.737 226.022 608.774 222.464L609.201 181.349ZM595.023 201.098L599.423 195.174L599.339 202.731L595.023 201.098Z" fill="#F66819"/>
<path d="M758.885 499.07H56.1116C54.9419 499.07 53.998 497.884 53.998 496.418C53.998 494.953 54.9456 493.767 56.1116 493.767H758.885C760.054 493.767 760.998 494.953 760.998 496.418C760.998 497.884 760.051 499.07 758.885 499.07Z" fill="#184655"/>
<path d="M494.025 418.049H191.452C179.895 418.049 170.527 409.033 170.527 397.913V385.94C170.527 374.82 179.895 365.804 191.452 365.804H494.025C480.186 380.364 479.945 402.611 493.469 417.442L494.025 418.049Z" fill="#86B1F2"/>
<path d="M489.789 371.789H337.528C327.044 371.789 318.544 380.805 318.544 391.925C318.544 403.044 327.044 412.06 337.528 412.06H489.8C482.688 399.712 482.7 384.113 489.789 371.789Z" fill="#FFF4E1"/>
<path d="M480.401 308.689C481.065 307.481 480.058 306.083 478.526 306.083H237.559C218.673 306.083 203.363 319.483 203.363 336.018C203.363 352.549 218.673 365.949 237.559 365.949H478.592C480.132 365.949 481.139 364.543 480.471 363.33C470.928 346.028 470.951 325.913 480.401 308.689Z" fill="#355389"/>
<path d="M478.48 312.525H316.805C304.863 312.525 295.181 322.795 295.181 335.461V337.181C295.181 349.847 304.863 360.117 316.805 360.117H478.826C471.582 344.865 471.5 327.769 478.48 312.525Z" fill="#FFF4E1"/>
<path d="M187.141 303.423H342.648C356.437 303.423 367.617 290.637 367.617 274.865C367.617 259.093 356.437 246.307 342.648 246.307H187.141C199.028 262.141 199.491 285.366 188.249 301.802L187.141 303.423Z" fill="#FFF4E1"/>
<path d="M365.571 274.865C365.571 259.093 354.263 246.307 340.315 246.307H184.313C183.586 246.307 182.999 245.635 183.003 244.814C183.011 244.002 183.594 243.35 184.313 243.35H431.79C447.185 243.35 459.663 257.46 459.663 274.869C459.663 292.278 447.185 306.388 431.79 306.388H184.313C183.594 306.388 183.011 305.732 183.003 304.924C182.995 304.103 183.582 303.431 184.313 303.431H340.315C354.263 303.423 365.571 290.637 365.571 274.865Z" fill="#0069AF"/>
<path d="M374 336.789H358.884C355.635 336.789 353 337.659 353 338.737V338.911H374V336.789Z" fill="#FF4C16"/>
<path d="M381.981 343.351C381.981 339.728 378.904 336.79 375.113 336.79H360C362.878 336.79 365.209 339.018 365.209 341.767L365.137 412.096L373.489 403.052L382 412.096L381.981 343.351Z" fill="#F56819"/>
<path d="M618.432 417.946H168.836C154.876 417.946 143.557 429.952 143.557 444.759V467.311C143.557 482.118 154.876 494.124 168.836 494.124H618.432L618.195 493.864C598.962 472.627 599.067 439.042 618.432 417.946Z" fill="#B75742"/>
<path d="M610.473 429.222H370.128C356.168 429.222 344.849 441.228 344.849 456.035C344.849 470.842 356.168 482.848 370.128 482.848H610.469C601.634 466.243 601.65 445.81 610.473 429.222Z" fill="#FFF4E1"/>
<path d="M485.998 456.644H470.884C467.634 456.644 464.998 459.259 464.998 462.484V463.008H485.998V456.644Z" fill="#13375B"/>
<path d="M471.998 456.653C475.613 456.65 481.011 459.874 484.055 463.855L519.928 510.737L540.998 510.724L506.881 466.138C502.868 460.891 495.75 456.64 490.983 456.644L471.998 456.653Z" fill="#355389"/>
<path d="M66.929 487.447L76.4015 485.1C76.4015 485.1 84.0853 485.615 91.2558 484.073C91.2558 484.073 91.9752 486.094 92.2863 490.264C92.3408 490.981 91.3647 494.565 90.692 494.677C88.2539 495.073 83.9609 494.623 76.3471 494.809C76.3471 494.809 64.3586 496.31 57.9464 494.066C51.5341 491.818 66.929 487.447 66.929 487.447Z" fill="#B75742"/>
<path d="M171.593 322.976C172.118 328.808 176.734 330.867 181.038 334.558C183.928 337.037 183.43 343.726 181.221 347.884C175.629 358.414 180.393 359.713 184.9 367.442C195.757 386.064 162.117 390.18 158.123 391.57C154.13 392.956 151.423 394.639 149.063 394.358C141.947 393.521 135.433 382.793 131.821 372.87C128.208 362.946 136.981 362.423 137.428 356.723C137.875 351.023 127.61 349.798 130.654 339.033C133.948 327.385 138.595 317.516 144.77 313.973C154.985 308.116 167.401 314.241 170.224 318.947C171.064 320.349 171.476 321.702 171.593 322.976Z" fill="#2A2C33"/>
<path d="M172.384 450.475C173.266 452.81 178.135 461.071 178.135 461.071L109.824 461.793L108.759 446.928C127.513 446.767 146.054 437.97 163.335 431.68C163.774 432.798 171.956 449.341 172.384 450.475Z" fill="#FAE0B2"/>
<path d="M123.958 393.463C123.958 393.463 127.625 365.998 133.524 363.148C139.423 360.294 171.375 364.25 176.158 367.347C180.941 370.445 172.973 402.698 171.752 411.722C171.678 412.262 171.601 412.803 171.519 413.339C169.501 426.364 170.667 439.69 174.999 452.014C157.516 457.643 152.982 460.741 134.232 460.188L127.232 416.75C127.236 416.746 121.668 395.723 123.958 393.463Z" fill="#50BFA5"/>
<path d="M158.901 345.071C158.901 345.071 160.371 360.191 161.631 363.899C162.891 367.607 158.256 375.155 150.7 377.242C143.145 379.329 148.643 369.187 148.464 365.264C148.286 361.346 147.555 342.786 147.555 342.786L158.901 345.071Z" fill="#FFCAAC"/>
<path d="M159.08 346.807C158.139 347.942 157.004 348.969 155.627 349.831C152.773 351.617 150.156 352.008 147.901 351.46C147.714 346.787 147.559 342.79 147.559 342.79L158.905 345.075C158.902 345.071 158.968 345.735 159.08 346.807Z" fill="#EEAE8A"/>
<path d="M156.258 317.454C156.258 317.454 160.718 318.703 163.343 323.319C165.968 327.934 167.422 341.285 158.066 347.133C148.71 352.981 141.894 343.945 142.065 335.391C142.236 326.837 144.343 315.49 156.258 317.454Z" fill="#FFCAAC"/>
<path d="M139.226 331.807C139.327 334.03 140.4 335.774 141.617 335.708C142.834 335.642 143.736 333.787 143.635 331.568C143.534 329.345 142.465 327.6 141.244 327.666C140.027 327.728 139.124 329.584 139.226 331.807Z" fill="#FFCAAC"/>
<path d="M163.083 335.21C162.344 337.408 162.877 339.619 164.273 340.151C165.669 340.683 167.399 339.33 168.138 337.132C168.877 334.933 168.344 332.723 166.948 332.191C165.552 331.663 163.822 333.011 163.083 335.21Z" fill="#FFCAAC"/>
<path d="M176.159 367.343C176.159 367.343 170.711 370.374 167.371 378.834C164.03 387.293 175.408 430.451 177.835 433.214C180.261 435.978 186.973 436.411 188.116 429.651C189.263 422.895 185.402 369.479 176.159 367.343Z" fill="#3C8F7C"/>
<path d="M143.578 361.565L152.972 421.398L116.408 427.65L104.801 371.682C104.797 371.682 134.879 358.764 143.578 361.565Z" fill="#90D2FF"/>
<path d="M73.0039 363.412C76.4958 361.952 80.3066 361.585 83.993 362.348C90.8369 363.767 101.713 366.708 106.08 371.686C112.667 379.197 118.765 428.875 118.765 428.875L90.3391 422.115L73.0039 363.412Z" fill="#90D2FF"/>
<path d="M170.789 465.764C166.01 451.684 111.846 400.429 97.5088 404.372L105.208 435.631C105.208 435.631 121.299 486.514 137.067 493.081C152.835 499.643 167.6 492.235 167.6 492.235C167.6 492.235 175.568 479.845 170.789 465.764Z" fill="#FFE3B1"/>
<path d="M151.341 383.531C150.669 384.963 154.973 387.516 156.225 388.481C157.478 389.446 162.669 388.452 162.669 388.452C162.669 388.452 152.092 381.939 151.341 383.531Z" fill="#FFCAAC"/>
<path d="M105.069 450.52C105.069 450.52 91.303 480.856 91.2602 484.015C91.1941 488.564 71.3586 487.319 75.6671 485.372C76.6587 484.922 79.7773 483.248 80.0184 483.029C81.2977 481.858 92.7223 444.185 92.7223 444.185L105.069 450.52Z" fill="#EEAE8A"/>
<path d="M109.457 414.23C108.793 413.45 101.816 410.513 96.4464 417.608C91.0763 424.706 80.7832 479.936 80.7832 479.936L93.4405 481.252C93.4405 481.252 124.942 432.344 109.457 414.23Z" fill="#FFE3B1"/>
<path d="M68.5157 372.812L84.7971 423.159C85.4504 425.18 87.0758 426.632 89.0085 426.92C104.271 429.21 112.239 430.377 112.239 430.377C112.239 430.377 115.217 430.542 118.375 430.583L153.318 426.628C156.358 426.285 158.478 423.159 157.91 419.864L149.406 370.428C148.881 367.376 146.233 365.338 143.441 365.833L109.824 371.826C106.853 371.74 103.96 371.657 100.989 371.575L74.543 365.293C70.5416 364.345 67.1469 368.58 68.5157 372.812Z" fill="#F56819"/>
<path d="M139.634 397.303C139.634 397.303 149.013 399.147 152.214 399.044C155.418 398.941 159.571 400.013 159.571 400.013C159.571 400.013 170.039 426.121 171.54 429.032C176.023 437.727 188.451 436.7 188.245 429.449C188.082 423.687 166.85 387.561 161.204 387.743C155.562 387.924 137.888 384.014 137.359 386.394C137.076 387.677 153.633 388.275 151.02 389.364C149.398 390.04 136.438 388.493 136.485 390.11C136.531 391.727 148.193 391.88 149.449 393.137C150.705 394.391 137.037 391.599 137.114 394.346C137.153 395.728 149.153 394.729 150.468 396.829C151.02 397.703 138.643 394.581 139.634 397.303Z" fill="#FFCAAC"/>
<path d="M76.3943 393.038C75.6594 392.7 74.8039 393.141 74.6212 393.966C74.4345 394.812 74.3956 395.834 74.9906 396.511C76.1649 397.851 84.3698 399.134 84.4126 397.843C84.4476 396.849 78.9452 394.209 76.3943 393.038Z" fill="#FFCAAC"/>
<path d="M74.7987 396.42C74.7987 396.42 73.9743 399.682 74.6859 399.707C75.3976 399.736 84.2752 400.668 84.6679 399.546C85.0645 398.429 75.942 395.76 74.7987 396.42Z" fill="#FFCAAC"/>
<path d="M74.418 399.786C74.418 399.786 74.1652 401.234 74.9001 402.071C75.6351 402.908 83.8983 402.359 84.2016 400.97C84.5049 399.58 74.7096 398.718 74.418 399.786Z" fill="#FFCAAC"/>
<path d="M75.6778 402.846C75.6778 402.846 75.6661 403.951 76.0822 404.426C76.4982 404.9 82.6033 404.244 83.2099 402.863C83.8166 401.485 76.3894 401.415 75.6778 402.846Z" fill="#FFCAAC"/>
<path d="M96.3803 479.42C96.3803 479.42 93.4639 490.606 90.5397 498.005C88.6226 502.847 88.1288 507.677 86.8611 510.094C83.653 516.206 78.4112 516.45 74.2427 512.779C70.078 509.108 75.6659 493.621 75.6659 493.621L88.8132 474.001L96.3803 479.42Z" fill="#FFCAAC"/>
<path d="M86.863 510.094C87.9907 507.945 88.5117 503.895 89.9544 499.622C87.944 500.859 84.5687 501.791 82.7333 501.272C76.0061 499.366 75.6678 493.617 75.6678 493.617C75.6678 493.617 68.6567 509.492 72.8213 513.162C76.986 516.837 83.6549 516.206 86.863 510.094Z" fill="#F47458"/>
<path d="M109.828 371.826L120.592 430.929L114.113 430.517L112.239 430.377L100.993 371.579L109.828 371.826Z" fill="#B75742"/>
<path d="M147.332 489.624C151.018 496.817 158.364 497.935 164.978 497.345C172.293 496.694 180.346 492.45 182.508 483.541C184.818 474.03 181.777 462.255 176.454 454.789C149.195 416.585 148.985 412.819 138.132 407.746C126.415 402.265 82.9062 481.107 82.9062 481.107L94.8558 487.583C94.8558 487.583 112.778 471.695 124.23 457.763C125.576 456.126 129.406 447.65 129.406 447.65C129.406 447.65 144.894 484.869 147.332 489.624Z" fill="#FFF4E1"/>
<path d="M147.733 259.852C136.211 261.7 132.602 277.657 142.071 284.945C143.77 286.252 144.937 288.203 145.415 290.377L147.064 297.846C147.519 299.904 149.385 301.249 151.357 300.931L155.72 300.23C157.691 299.912 159.103 298.044 158.963 295.936C158.454 288.244 157.738 285.444 160.137 282.05C167.152 272.114 159.259 258.004 147.733 259.852Z" fill="#FEDB76"/>
<path d="M150.25 295.095C150.246 295.095 150.243 295.095 150.239 295.095C149.659 295.181 149.123 294.753 149.041 294.138L146.894 277.855L143.298 274.588C142.854 274.184 142.8 273.475 143.181 273.004C143.562 272.534 144.231 272.476 144.674 272.881L148.878 276.704L151.137 293.833C151.222 294.435 150.826 295 150.25 295.095Z" fill="#F2C16A"/>
<path d="M155.592 294.934C155.596 294.934 155.6 294.934 155.604 294.934C156.183 294.835 156.576 294.258 156.479 293.643L153.99 277.414L156.514 273.165C156.825 272.642 156.677 271.945 156.183 271.615C155.689 271.285 155.032 271.441 154.721 271.965L151.77 276.935L154.387 294.006C154.48 294.608 155.02 295.025 155.592 294.934Z" fill="#F2C16A"/>
<path d="M145.366 290.191C145.382 290.253 145.401 290.315 145.413 290.377L147.062 297.846C147.517 299.904 149.383 301.249 151.355 300.931L155.718 300.23C157.689 299.912 159.101 298.044 158.961 295.936C158.735 292.513 158.467 290.059 158.451 288.092L145.366 290.191Z" fill="#96D9C9"/>
<path opacity="0.5" d="M130.847 220.397L113.007 229.03L109.05 223.581L118.248 189.065L125.029 185.783L135.472 209.713L140.376 207.34L143.419 214.312L138.516 216.685L142.192 225.108L134.525 228.819L130.847 220.397ZM127.804 213.424L122.497 201.265L118.101 218.12L127.804 213.424Z" fill="#F56819"/>
<path d="M366.858 26.3594C356.262 26.3594 350.969 40.1886 358.548 48.1075C359.909 49.5305 360.706 51.4524 360.858 53.4734L361.383 60.4272C361.527 62.3451 363.036 63.8216 364.848 63.8216H368.861C370.673 63.8216 372.181 62.3451 372.325 60.4272C372.854 53.4363 372.57 50.8173 375.16 48.1075C382.747 40.1886 377.458 26.3594 366.858 26.3594Z" fill="#FEDB76"/>
<path d="M364.602 58.4145C364.598 58.4145 364.595 58.4145 364.591 58.4145C364.058 58.4062 363.63 57.9443 363.638 57.3792L363.794 42.424L360.978 38.9678C360.628 38.5388 360.675 37.8954 361.079 37.5242C361.484 37.153 362.09 37.2025 362.44 37.6314L365.734 41.6734L365.571 57.3999C365.563 57.9649 365.131 58.4145 364.602 58.4145Z" fill="#F2C16A"/>
<path d="M369.427 59.0412C369.431 59.0412 369.435 59.0412 369.439 59.0412C369.972 59.033 370.4 58.571 370.392 58.006L370.236 43.0508L373.052 39.5945C373.398 39.1655 373.355 38.5221 372.951 38.1509C372.546 37.7797 371.939 37.8292 371.59 38.2582L368.296 42.3001L368.459 58.0266C368.467 58.5875 368.899 59.0412 369.427 59.0412Z" fill="#F2C16A"/>
<path d="M360.841 53.3C360.845 53.3578 360.856 53.4156 360.86 53.4733L361.385 60.4271C361.529 62.3449 363.038 63.8215 364.85 63.8215H368.863C370.675 63.8215 372.184 62.3449 372.328 60.4271C372.561 57.3173 372.639 55.0736 372.876 53.3H360.841Z" fill="#96D9C9"/>
<path d="M387.248 7.32104L378.087 23.794L393.618 11.5445L387.248 7.32104Z" fill="#FCE7AD"/>
<path d="M350.009 3.07694L359.372 19.9912L357.778 0.561035L350.009 3.07694Z" fill="#FCE7AD"/>
<path d="M333.723 27.2957L348.62 33.507L333.412 34.4763L333.723 27.2957Z" fill="#FCE7AD"/>
<path d="M379.683 49.5591L385.655 57.5852L390.038 52.0956L379.683 49.5591Z" fill="#FCE7AD"/>
<path d="M385.655 34.7775L399.195 28.863L399.596 35.1982L385.655 34.7775Z" fill="#FCE7AD"/>
<path d="M350.212 50.8254L337.469 57.1647L341.451 62.2336L350.212 50.8254Z" fill="#FCE7AD"/>
<path d="M483.504 126.774C483.504 126.774 484.836 113.276 497.899 112.879C510.961 112.48 535.559 115.847 535.559 115.847L534.943 123.641C534.943 123.641 506.955 120.652 497.602 120.009C493.713 119.741 488.986 119.659 483.504 126.774Z" fill="#F7CC7F"/>
<path d="M505.123 119.327C505.123 119.327 500.845 159.979 494.724 162.759C488.604 165.538 481.117 160.682 486.169 153.299C491.222 145.915 493.914 145.803 496.23 136.84C498.547 127.876 499.266 118.757 499.266 118.757L505.123 119.329L505.123 119.327Z" fill="#F7CC7F"/>
<path d="M516.566 120.324C516.566 120.324 510.289 147.836 511.106 155.602C511.923 163.37 518.177 167.917 525.061 164.463C531.945 161.01 530.463 154.865 530.463 154.865C530.463 154.865 524.764 158.809 520.785 155.046C516.808 151.283 521.472 119.302 521.472 119.302L516.566 120.324Z" fill="#F7CC7F"/>
<path d="M95.9914 332.383C95.0776 329.508 96.6019 326.279 99.32 325.326C102.147 324.336 104.725 325.809 105.798 328.795C106.821 331.801 105.678 334.788 102.734 335.914C99.74 337.052 96.9714 335.48 95.9914 332.383ZM95.0659 323.68L86.2544 301.355C85.5273 299.507 86.4022 297.391 88.1793 296.711L90.3258 295.89C92.0989 295.214 94.0471 296.245 94.5993 298.158L101.284 321.305L95.0659 323.68Z" fill="#0069AF"/>
<path d="M496.545 309.49C496.545 309.49 519.254 319.986 521.257 320.452C522.513 320.745 536.947 304.878 544.814 298.679C545.179 298.391 546.575 296.283 546.968 296.073C551.65 293.578 543.736 307.947 543.736 307.947C543.736 307.947 526.992 330.528 523.205 332.467C518.445 334.896 494.935 322.568 495.075 321.855L496.545 309.49Z" fill="#EEAE8A"/>
<path d="M492.945 286.945C493.921 279.847 498.568 264.739 494.283 258.697C488.255 250.201 475.524 250.568 469.509 258.734C466.752 262.475 465.258 267.065 463.804 271.553C462.867 274.452 461.918 277.368 460.596 280.103C459.414 282.544 458.061 285.597 455.813 287.081C445.816 293.685 434.62 297.941 433.897 312.818C433.042 330.462 451.267 352.54 473.646 341.854C482.213 337.762 493.435 324.535 497.098 315.383C498.751 311.259 497.957 311.692 497.047 305.402C496.231 299.772 492.156 292.662 492.945 286.945Z" fill="#2A2C33"/>
<path d="M480.77 297.5L511.171 315.243L504 326.787C504 326.787 481.112 317.536 476.484 316.212C471.857 314.888 475.501 297.017 480.77 297.5Z" fill="#355389"/>
<path d="M480.25 282.107C480.25 282.107 479.461 294.386 478.87 297.83C478.259 301.385 477.89 316.196 484.862 318.006C491.838 319.813 489.217 299.76 489.334 296.163C489.451 292.567 490.131 280.886 490.131 280.886L480.25 282.107Z" fill="#FFCAAC"/>
<path d="M480.146 283.58C480.671 284.405 481.301 285.201 482.048 285.947C484.618 288.517 487.263 289.354 489.673 289.02C489.891 284.949 490.128 280.886 490.128 280.886L480.248 282.107C480.248 282.107 480.209 282.664 480.146 283.58Z" fill="#EEAE8A"/>
<path d="M487.455 258.606C487.455 258.606 483.212 258.751 479.969 262.306C476.726 265.857 472.842 277.467 480.102 284.73C487.362 291.994 494.536 285.753 496.033 278.069C497.534 270.39 498.514 259.443 487.455 258.606Z" fill="#FFCAAC"/>
<path d="M491.432 258.965C491.432 258.965 487.007 271.074 476.559 270.052C471.826 269.59 470.753 276.444 470.753 276.444C470.753 276.444 474.626 260.165 479.487 257.744C484.347 255.327 491.432 258.965 491.432 258.965Z" fill="#2A2C33"/>
<path d="M477.904 272.98C478.142 275.104 477.239 276.964 475.882 277.133C474.529 277.302 473.238 275.719 473.001 273.595C472.764 271.47 473.666 269.61 475.023 269.441C476.376 269.276 477.667 270.86 477.904 272.98Z" fill="#FFCAAC"/>
<path d="M555.577 276.96L529.842 332.735C529.228 334.067 529.418 335.61 530.262 336.133L549.063 347.814L572.566 298.387C572.566 298.387 562.327 282.136 558.485 276.044C557.77 274.918 556.308 275.38 555.577 276.96Z" fill="#B75742"/>
<path d="M533.144 330.903L555.538 282.371C556.269 280.787 557.731 280.326 558.443 281.451C561.562 286.401 566.278 293.887 569.669 299.265L548.574 343.627L533.564 334.302C532.72 333.782 532.529 332.236 533.144 330.903Z" fill="#FFF4E1"/>
<path d="M545.377 295.008C545.642 294.522 546.863 293.458 547.376 293.313C548.465 293.008 549.775 293.053 549.993 293.796C550.308 294.876 547.096 296.068 547.096 296.068L545.35 298.753C545.35 298.753 544.534 296.563 545.377 295.008Z" fill="#F48C7F"/>
<path d="M479.366 294.518C479.366 294.518 487.291 301.459 489.566 303.872C491.821 306.264 495.772 309.188 495.772 309.188L489.368 299.789L485.308 295.772L479.366 294.518Z" fill="#FFCAAC"/>
<path d="M577.725 405.779C576.496 404.694 575.372 401.596 574.921 400.235C572.257 385.614 559.666 346.077 545.951 346.077C534.002 346.077 497.099 376.771 479.842 394.515C474.856 399.637 475.195 395.29 478.247 396.486C480.071 397.2 492.394 418.94 494.365 419.035C500.393 419.327 505.965 415.046 510.993 412.068C518.661 407.527 523.992 402.351 528.449 395.294C539.737 377.423 543.968 366.906 547.367 360.063C547.367 360.063 550.575 374.132 552.146 377.522C555.696 385.181 566.312 404.055 570.465 411.408L586.75 410.938C586.75 410.942 579.319 407.189 577.725 405.779Z" fill="#EEAE8A"/>
<path d="M547.011 354.244C547.011 354.244 492.318 381.279 488.865 390.572C485.412 399.864 488.068 413.664 496.036 416.481C504 419.298 553.384 374.519 553.384 374.519C553.384 374.519 559.758 386.909 568.783 395.36C573.597 399.864 581.732 403.539 586.375 406.834C590.443 409.725 591.352 412.538 591.352 412.538L602.769 413.103C602.769 413.103 600.844 412.406 597.391 407.469C585.733 390.807 558.688 352.07 547.011 354.244Z" fill="#FFCAAC"/>
<path d="M525.905 350.866C525.905 350.866 543.474 370.956 546.923 397.426C546.923 397.426 519.4 410.006 505.856 417.607C492.316 425.213 477.181 417.327 472.402 408.876C467.623 400.429 472.402 376.631 472.402 376.631L500.548 371.983L525.905 350.866Z" fill="#13375B"/>
<path d="M567.592 406.389C566.192 405.824 565.702 413.334 565.473 415.009C565.212 416.894 566.064 418.172 566.278 418.329C566.857 418.754 589.411 419.228 593.727 417.999C594.019 417.917 594.629 417.529 594.734 417.43C597.904 414.498 583.247 406.727 580.292 407.379C577.664 407.956 573.888 408.934 567.592 406.389Z" fill="#355389"/>
<path d="M478.912 297.78C478.912 297.78 474.623 297.739 470.035 308.223C464.396 321.108 472.442 370.28 471.858 377.295C471.858 377.295 473.845 379.72 485.426 381.494C495.684 383.065 501.485 375.295 501.485 375.295C501.485 375.295 498.876 356.31 502.831 338.451C504.973 328.775 506.105 319.392 497.636 310.69C489.166 301.987 478.912 297.78 478.912 297.78Z" fill="#0069AF"/>
<path d="M586.524 406.855C585.124 406.29 583.919 413.524 584.024 415.294C584.137 417.195 584.592 418.577 584.806 418.734C585.385 419.158 607.962 419.509 612.274 418.28C612.566 418.197 613.177 417.81 613.282 417.707C616.451 414.774 600.154 407.441 597.198 408.092C594.574 408.678 592.82 409.4 586.524 406.855Z" fill="#0069AF"/>
<path d="M571.428 274.65L528.771 340.534C527.787 342.052 528.02 343.9 529.257 344.39L558.106 355.795L592.228 303.917L575.204 273.999C574.434 272.646 572.509 272.98 571.428 274.65Z" fill="#F56819"/>
<path d="M561.287 324.601C560.739 323.479 556.309 325.971 556.309 325.971C556.309 325.971 552.366 326.697 552.086 326.54C551.771 326.362 554.735 326.103 554.735 326.103C554.735 326.103 559.58 324.346 559.525 323.772C559.304 321.401 556.271 324.354 553.891 324.461C552.075 324.544 550.103 324.457 548.353 324.197C547.657 323.781 549.431 322.848 549.431 322.848C549.431 322.848 551.76 321.739 551.39 321.087C550.484 319.508 545.037 322.51 543.889 323.624C543.119 324.37 542.163 325.818 540.825 326.622C535.004 330.116 528.028 336.104 519.796 340.311C517.07 337.882 490.764 312.838 490.103 312.232L475.734 324.234C475.754 324.251 516.949 357.527 519.24 357.448C522.117 357.349 539.274 338.142 543.917 333.568C544.62 332.875 549.03 332.355 550.243 332.533C552.938 332.933 557.993 330.689 557.993 330.689C559.549 328.944 552.254 330.705 552.946 330.252C553.253 330.05 555.034 329.86 556.811 329.588C558.619 329.311 560.256 328.214 560.478 327.691C560.91 326.664 556.414 328.136 556.414 328.136L552.666 328.379L556.251 327.604C556.251 327.604 561.824 325.694 561.287 324.601Z" fill="#FFCAAC"/>
<path d="M486.066 304.61C481.419 299.57 472.491 300.3 469.882 307.497C469.159 309.498 469.19 315.243 470.014 317.355C473.32 325.801 492.583 339.602 492.583 339.602L503.203 324.255L486.066 304.61Z" fill="#86B1F2"/>
<path d="M212.036 143.367L198.607 147.031L196 136.062L209.429 132.397L206.027 118.088L216.562 115.212L219.964 129.522L233.393 125.857L236 136.827L222.571 140.491L225.973 154.801L215.438 157.676L212.036 143.367Z" fill="#96D9C9"/>
<path d="M295.173 157.817C295.173 157.17 295.923 152.996 295.923 152.996C295.923 152.996 294.173 147.077 293.995 147.065C290.39 146.788 287.672 149.387 288.282 152.88L288.317 152.996C290.184 159.31 295.204 164.004 301.348 165.171C302.748 165.439 304.229 165.716 305.75 166C305.034 163.464 304.595 160.873 304.618 158.209C299.349 158.168 295.173 158.056 295.173 157.817Z" fill="#B46E3F"/>
<path d="M356.113 131.701C356.012 131.384 324.429 153.173 324.429 153.173C324.429 153.173 310.947 153.313 300.988 153.223C300.961 156.411 301.447 159.516 302.241 162.556C312.079 164.532 323.293 166.619 325.844 166.408C330.596 166.021 354.429 153.408 354.429 153.408C354.429 153.408 356.187 131.936 356.113 131.701Z" fill="#355389"/>
<path d="M356.468 213.064C356.402 212.516 349.729 188.243 349.033 166.503C348.493 149.643 353.416 134.531 355.936 131.772C356.869 130.74 365.536 128.534 365.536 128.534L362.379 134.094C359.171 140.52 358.3 146.207 356.908 153.458C352.867 174.48 371.015 216.549 370.094 216.822C369.067 217.123 356.725 215.217 356.468 213.064Z" fill="#0069AF"/>
<path d="M287.248 128.216L281.707 132.052L298.28 161.641L303.491 137.616L287.248 128.216Z" fill="#90D2FF"/>
<path d="M290.678 123.56L297.642 148.117L303.222 137.509L290.678 123.56Z" fill="#90D2FF"/>
<path d="M336.682 120.727L342.04 141.349L302.56 137.546L336.682 120.727Z" fill="#90D2FF"/>
<path d="M314.163 207.966C314.163 207.966 297.384 229.71 297.338 232.87C297.271 237.419 277.44 236.169 281.744 234.227C282.736 233.777 285.855 232.102 286.096 231.884C287.375 230.713 300.596 203.269 300.596 203.269L314.163 207.966Z" fill="#B46E3F"/>
<path d="M273.007 236.297L285.762 232.086C285.762 232.086 290.164 234.466 297.334 232.919C297.334 232.919 299.205 236.108 299.516 240.277C299.57 240.999 299.905 243.131 299.232 243.239C296.794 243.635 290.043 243.47 282.429 243.651C282.429 243.651 272.171 243.779 265.755 241.531C259.343 239.296 273.007 236.297 273.007 236.297Z" fill="#004F84"/>
<path d="M395.407 213.159C395.407 213.159 380.312 209.501 366.2 198.798C349.876 186.412 331.507 173.531 324.251 174.579C318.41 175.424 284.424 224.988 284.424 224.988L300.884 232.593L330.62 200.208C330.62 200.208 360.998 233.422 370.976 235.691C393.712 240.85 400.976 223.074 395.407 213.159Z" fill="#B34C12"/>
<path d="M280.928 132.06L303.82 183.5C303.925 183.735 304.123 183.904 304.36 183.962L319.65 188.47L300.11 137.508L281.904 130.897C281.239 130.658 280.628 131.384 280.928 132.06Z" fill="#EDC553"/>
<path d="M358.841 83.458C358.841 83.458 363.071 77.3414 367.792 83.4538C367.792 83.4538 370.6 81.2473 373.108 84.1674C373.108 84.1674 378.365 81.6886 380.729 90.1767C380.729 90.1767 383.475 89.2363 384.272 92.7297C385.065 96.2272 383.65 98.8174 383.65 98.8174C383.65 98.8174 385.38 99.8608 385.053 103.218C384.773 106.072 382.662 106.786 382.662 106.786C382.662 106.786 382.639 111.537 380.897 113.199C379.154 114.861 376.471 114.536 376.471 114.536C376.471 114.536 376.082 117.163 373.827 117.237C371.572 117.311 368.543 115.431 366.171 116.779C363.799 118.128 357.196 117.93 357.196 117.93C357.196 117.93 349.516 115.476 350.748 107.301C350.748 107.301 346.49 104.158 349.31 99.3164C349.31 99.3164 346.047 92.7792 350.391 88.0773C354.734 83.3837 358.841 83.458 358.841 83.458Z" fill="#2A2C33"/>
<path d="M335.536 277.084C335.536 277.084 336.465 303.839 337.041 308.368C337.613 312.876 326.336 326.466 327.778 321.739C328.109 320.65 328.964 317.054 328.964 316.72C328.972 314.925 324.784 284.409 324.784 284.409L335.536 277.084Z" fill="#B46E3F"/>
<path d="M323.525 330.095L328.895 317.119C328.895 317.119 333.475 315.156 337.08 308.405C337.08 308.405 340.576 308.998 343.749 311.485C344.297 311.914 346.036 313.045 345.67 313.655C344.356 315.866 339.806 321.161 334.941 327.381C334.941 327.381 328.304 335.675 322.498 339.338C316.696 343 323.525 330.095 323.525 330.095Z" fill="#004F84"/>
<path d="M324.52 304.961C325.698 303.69 312.586 235.249 318.944 228.642C325.306 222.035 367.796 212.309 367.796 212.309L373.372 191.469C373.372 191.469 391.139 196.995 398.329 208.366C402.261 214.586 398.24 228.766 397.532 230.333C391.462 243.738 376.468 244.414 365.56 244.294C355.524 244.183 337.706 244.039 337.706 244.039L337.664 304.54C337.664 304.54 333.281 305.666 329.832 305.526C325.107 305.332 324.52 304.961 324.52 304.961Z" fill="#F56819"/>
<path d="M363.91 129.998L375.416 125.614C375.416 125.614 375.762 125.634 375.867 125.618C377.104 125.453 390.683 172.579 395.112 190.405C399.541 208.23 393.739 204.848 393.739 204.848C393.739 204.848 383.586 211.559 371.776 212.029C359.496 212.52 361.954 196.822 361.954 196.822C361.954 196.822 355.487 164.045 356.245 152.893C357.004 141.736 363.91 129.998 363.91 129.998Z" fill="white"/>
<path d="M364.092 120.413L364.046 126.418L364.038 127.482C364.038 127.482 363.256 137.769 366.033 139.356C368.809 140.944 375.408 125.61 375.408 125.61L372.422 108.163L364.092 120.413Z" fill="#B46E3F"/>
<path d="M373.39 113.839C372.006 120.132 367.437 124.5 364.05 126.41L364.093 120.413L372.422 108.163L373.39 113.839Z" fill="#8F532A"/>
<path d="M364.327 90.4446C358.934 89.2527 353.859 93.6369 353.746 99.3905C353.696 101.894 353.754 105.024 354.1 108.407C354.932 116.548 359.84 123.919 363.32 123.452C366.796 122.986 375.779 116.433 374.748 104.855C374.111 97.7119 369.989 91.6943 364.327 90.4446Z" fill="#B46E3F"/>
<path d="M372.296 106.117C372.51 107.907 373.805 109.211 375.185 109.025C376.565 108.84 377.514 107.235 377.297 105.445C377.083 103.655 375.788 102.352 374.407 102.537C373.027 102.719 372.082 104.323 372.296 106.117Z" fill="#B46E3F"/>
<path d="M348.776 88.4278C345.544 91.9295 344.833 96.6849 347.189 99.0482C349.546 101.412 354.072 100.492 357.303 96.9902C360.535 93.4885 361.246 88.733 358.89 86.3697C356.537 84.0064 352.007 84.9262 348.776 88.4278Z" fill="#2A2C33"/>
<path d="M358.462 89.6403C358.618 90.9519 360.239 91.8139 362.083 91.5664C363.926 91.319 365.291 90.0528 365.135 88.7412C364.98 87.4296 363.358 86.5676 361.515 86.8151C359.672 87.0625 358.307 88.3288 358.462 89.6403Z" fill="#2A2C33"/>
<path d="M349.747 101.069C349.95 102.756 351.388 103.952 352.959 103.742C354.53 103.531 355.642 101.993 355.44 100.306C355.238 98.6191 353.799 97.423 352.228 97.6334C350.657 97.8437 349.545 99.3821 349.747 101.069Z" fill="#2A2C33"/>
<path d="M375.41 125.614C375.41 125.614 386.671 123.675 390.458 125.383C392.865 126.467 395.93 148.133 395.93 148.133C395.93 148.133 396.054 170.042 397.462 176.221C402.233 197.164 408.902 215.506 408.151 216.537C403.252 220.81 382.759 224.769 381.204 222.732C364.008 200.258 375.41 125.614 375.41 125.614Z" fill="#0069AF"/>
<path d="M394.215 147.824C394.215 147.824 382.934 184.804 377.999 188.681C373.065 192.558 350.869 156.271 350.869 156.271C350.869 156.271 341.046 150.356 340.346 150.295C337.558 150.047 346.156 148.525 346.156 148.525L347.217 139.093C347.217 139.093 347.637 139.163 350.204 142.227C353.673 146.372 356.686 152.798 358.102 153.879L372.972 165.848L380.539 140.223L394.215 147.824Z" fill="#B46E3F"/>
<path d="M300.115 137.513L304.782 137.03L324.796 189.852L319.651 188.47L300.115 137.513Z" fill="#FAE0B2"/>
<path d="M344.619 124.64L356.662 186.833C356.86 187.86 356.14 188.829 355.149 188.862L324.795 189.856L304.784 137.034L342.546 123.383C343.452 123.053 344.424 123.642 344.619 124.64Z" fill="#EDC553"/>
<path d="M356.846 151.627L352.996 160.568C352.996 160.568 371.914 193.589 377.755 191.757C383.595 189.926 394.615 154.163 396.338 144.306C398.064 134.448 394.479 126.282 389.7 125.016C384.921 123.749 381.204 132.337 379.742 135.999C378.283 139.662 372.972 165.852 372.972 165.852L356.846 151.627Z" fill="#86B1F2"/>
<path d="M289.589 152.117C289.589 152.117 288.881 150.798 288.651 149.989C288.426 149.185 293.081 146.38 294.924 147.659C296.767 148.937 291.844 150.884 289.589 152.117Z" fill="#B46E3F"/>
<path d="M289.784 155.351C289.784 155.351 288.613 154.048 288.388 153.243C288.162 152.439 294.357 149.131 296.2 150.406C298.043 151.684 292.039 154.114 289.784 155.351Z" fill="#B46E3F"/>
<path d="M291.906 157.603C291.906 157.603 290.736 156.299 290.51 155.495C290.281 154.687 294.939 151.886 296.782 153.165C298.626 154.439 294.161 156.365 291.906 157.603Z" fill="#B46E3F"/>
<path d="M348.216 142.755H347.247C346.788 142.755 346.333 142.705 345.882 142.598C344.098 142.186 339.21 141.155 338.832 142.19C338.37 143.456 345.867 144.937 345.867 144.937C345.867 144.937 337.635 143.811 337.635 145.287C337.635 146.764 345.999 147.539 345.999 147.539C345.999 147.539 338.696 147.259 338.564 148.104C338.432 148.95 347.523 151.342 347.523 151.342C347.523 151.342 340.155 149.651 339.423 150.637C338.692 151.622 350.973 156.374 350.973 156.374L348.216 142.755Z" fill="#B46E3F"/>
<path d="M291.907 157.603C291.907 157.603 295.931 155.194 296.997 155.945C298.058 156.695 293.544 160.308 293.544 160.308L294.084 161.628C294.084 161.628 291.199 159.261 291.907 157.603Z" fill="#B46E3F"/>
</svg>
