<svg width="525" height="443" viewBox="0 0 525 443" fill="none" xmlns="http://www.w3.org/2000/svg">
<path d="M230.203 380.963C233.57 362.675 239.842 344.901 249.127 328.425C251.759 323.758 254.619 319.203 257.692 314.771C259.143 312.68 255.529 310.751 254.087 312.83C243.076 328.724 234.818 346.258 229.741 364.522C228.322 369.62 227.174 374.769 226.291 379.967C226.123 380.963 226.568 381.976 227.707 382.264C228.681 382.513 230.02 381.961 230.203 380.963Z" fill="#13375B"/>
<path d="M272.028 319.82C274.889 322.255 276.322 325.661 277.532 328.989C278.995 333.009 280.151 337.124 281.079 341.277C282.9 349.453 283.775 357.77 284.316 366.09C284.631 370.916 284.831 375.744 285.028 380.575C285.131 383.08 289.375 383.092 289.272 380.575C288.551 363.165 287.81 345.38 281.838 328.692C280.346 324.519 278.597 320.143 274.886 317.191C274.062 316.534 272.841 316.445 272.028 317.191C271.278 317.879 271.225 319.136 272.028 319.82Z" fill="#13375B"/>
<path d="M278.338 305.039H221.785C217.744 305.039 214.468 308.046 214.468 311.755C214.468 315.465 217.732 318.792 221.773 318.792L287.559 321.177C291.309 321.177 295.491 316.128 296.398 312.789L313.365 250.178C314.41 246.325 311.814 242.433 307.602 241.532C303.497 240.653 299.382 242.95 298.337 246.698L283.003 301.717C282.456 303.67 280.537 305.039 278.338 305.039Z" fill="#13375B"/>
<path d="M259.629 154.107L254.493 153.925L254.01 158.679L248.939 158.726L247.918 163.214L244.13 163.866L244.46 165.781L249.525 164.908L250.496 160.653L255.77 160.606L256.244 155.93L260.9 156.092L259.629 154.107Z" fill="#466EB6"/>
<path d="M197.539 241.488L196.753 244.225L201.029 245.972L200.376 250.119L203.363 251.949L202.433 253.455L198.439 251.009L199.06 247.082L194.61 245.264L195.794 241.144L197.539 241.488Z" fill="#F7CC7F"/>
<path d="M314.587 227.69L310.667 228.548L308.186 225.299L303.859 226.568L302.285 222.295L297.329 223.517L295.392 219.761L290.433 220.157L290.583 222.031L294.291 221.734L296.334 225.699L301.099 224.524L302.7 228.871L307.474 227.467L309.896 230.639L313.531 229.846L314.685 232.263L316.386 231.452L314.587 227.69Z" fill="#F7CC7F"/>
<path d="M210.426 239.705L212.831 238.136L211.804 236.562L207.919 239.094L210.362 243.42L207.807 246.489L209.399 249.846L207.301 251.511L208.472 252.982L211.742 250.389L210.026 246.768L212.64 243.626L210.426 239.705Z" fill="#F7CC7F"/>
<path d="M155.935 297.945H230.869V273.307H155.935V297.945Z" fill="#D0ECFF"/>
<path d="M124.885 368.021H180.93V271.9H124.885L124.885 368.021Z" fill="#FAE0B2"/>
<path d="M227.496 380.347H235.419V268.473H227.496V380.347Z" fill="#2A2C33"/>
<path d="M148.156 380.35H153.842V367.783H148.156V380.35Z" fill="#184655"/>
<path d="M116.63 380.343H122.316V367.979H116.63V380.343Z" fill="#184655"/>
<path d="M164.469 266.342C164.604 266.342 164.74 266.328 164.875 266.295C166.044 266.034 166.812 264.709 166.588 263.341C166.588 263.341 157.302 209.84 156.575 209.567C156.346 209.479 155.798 208.383 155.778 208.383C155.666 208.386 155.554 208.401 155.439 208.427C154.271 208.689 153.503 210.013 153.726 211.382L162.353 264.29C162.55 265.499 163.454 266.342 164.469 266.342Z" fill="#004F84"/>
<path d="M183.353 213.396L191.944 264.968L165.294 265.338L155.77 208.383L180.01 209.728C181.84 209.81 183.124 211.984 183.353 213.396Z" fill="#0069AF"/>
<path d="M229.307 263.855C229.307 263.884 229.31 263.914 229.31 263.943C229.313 265.588 228.351 266.944 227.15 266.947L193.303 267.032C192.105 267.035 191.131 265.705 191.128 264.06C191.128 263.99 191.131 263.922 191.134 263.855H229.307Z" fill="#355389"/>
<path d="M219.514 263.855C219.514 263.884 219.516 263.914 219.516 263.946C219.519 265.614 218.065 266.968 216.27 266.974L165.571 267.08C163.775 267.082 162.315 265.734 162.312 264.066C162.312 263.996 162.315 263.925 162.321 263.858H219.514V263.855Z" fill="#355389"/>
<path d="M209.046 357.2C206.986 361.024 201.95 373.626 201.758 374.581C201.703 374.857 200.99 375.776 200.752 375.949C194.25 376.598 189.491 373.115 185.88 369.679C189.291 369.917 194.503 369.039 195.263 368.91C197.241 368.572 197.029 362.569 198.159 355.823C199.913 356.628 206.491 354.892 209.046 357.2Z" fill="#FFCAAC"/>
<path d="M201.783 374.499C201.244 376.607 199.005 380.499 198.572 380.387C198.057 380.255 178.862 373.377 177.21 370.634C176.192 368.942 181.44 368.86 185.663 369.074C189.275 372.507 200.673 375.045 201.783 374.499Z" fill="#355389"/>
<path d="M271.066 303.291L226.412 305.858L210.13 362.111L197.191 359.585C197.191 359.585 204.452 301.385 208.682 296.516C220.216 283.232 260.52 284.804 260.52 284.804L271.066 303.291Z" fill="#3C8F7C"/>
<path d="M236.609 360.226C236.444 362.819 235.849 365.955 235.964 368.98C236.043 371.01 236.797 373.48 236.888 373.861C236.953 374.135 236.688 375.268 236.544 375.524C230.905 378.819 225.124 377.632 220.406 376.014C223.606 374.813 225.833 372.419 226.637 371.55C227.997 370.076 227.028 365.659 225.236 359.06C227.17 359.057 233.324 359.192 236.609 360.226Z" fill="#FFCAAC"/>
<path d="M266.442 280.853C266.442 280.853 224.796 281.635 214.33 296.918C206.498 308.354 225.999 364.763 225.999 364.763L237.734 362.607C237.734 362.607 235.032 324.384 233.075 311.773C232.742 309.635 231.218 303.323 231.218 303.323C231.218 303.323 236.424 304.871 246.096 305.488C259.384 306.334 278.724 306.11 282.897 303.943C290.111 300.199 293.137 290.049 289.961 283.426C286.788 276.8 266.442 280.853 266.442 280.853Z" fill="#50BFA5"/>
<path d="M236.878 373.776C237.611 375.112 237.979 380.296 237.54 380.372C237.016 380.466 214.957 381.7 212.308 379.891C210.675 378.775 216.482 377.574 220.411 376.011C225.132 377.632 236.643 375.209 236.878 373.776Z" fill="#355389"/>
<path d="M234.453 253.185C234.453 253.185 222.324 256.21 216.261 258.137C210.198 260.063 202.478 260.613 202.478 260.613L195.956 264.052L209.922 264.463L242.447 261.576L245.205 254.013L234.453 253.185Z" fill="#EEAE8A"/>
<path d="M243.547 228.706L237.758 229.532C237.758 229.532 235.692 229.943 234.038 239.021C232.384 248.098 230.041 252.912 230.041 252.912L244.236 258.551C254.611 244.254 261.725 227.314 243.547 228.706Z" fill="#D25914"/>
<path d="M243.2 220.477C239.503 221.123 239.277 224.101 239.277 224.101L235.492 239.849C235.492 239.849 235.144 246.518 235.91 249.071C237.402 254.037 240.419 255.993 245.363 257.681C251.915 259.919 254.505 265.555 257.33 268.845C262.234 274.551 258.243 281.379 258.243 281.379L292.507 286.178C292.507 286.178 292.972 279.505 285.211 260.753C278.468 244.468 262.313 217.138 243.2 220.477Z" fill="#F66819"/>
<path d="M255.4 222.38C251.197 217.772 240.516 223.482 243.824 238.745C243.845 238.844 245.054 254.871 244.033 256.909C243.412 258.146 228.528 257.529 219.519 259.42C219.519 259.42 209.777 255.814 206.357 255.57C203.823 255.391 197.79 257.311 197.79 257.311C197.79 257.311 190.017 263.035 191.106 263.981C192.592 265.276 196.25 259.626 199.329 259.626C199.329 259.626 193.716 263.955 195.447 264.049C197.177 264.146 199.57 262.85 200.821 262.469C202.072 262.084 206.678 264.392 210.746 264.874C211.417 264.953 214.074 264.809 217.153 265.218C220.279 265.632 223.81 266.768 227.949 266.959C239.074 267.476 251.665 268.701 254.782 265.573C257.107 263.241 262.472 230.131 255.4 222.38Z" fill="#FFCAAC"/>
<path d="M257.28 256.128C250.487 255.25 243.673 252.683 243.673 252.683C243.673 252.683 243.114 239.255 243.064 238.747C242.629 231.734 242.891 226.089 245.834 222.451C247.314 220.618 248.898 220.183 250.781 220.183C252.544 220.183 255.002 220.874 256.294 222.521C261.032 228.556 259.219 246.125 257.739 255.784L257.677 256.184L257.28 256.128Z" fill="#D25914"/>
<path d="M240.125 194.506C240.646 189.984 240.64 172.791 251.112 173.146C261.584 173.502 261.646 185 270.125 171.143C277.981 158.306 292.491 166.603 291.143 177.226C292.641 177.378 294.109 177.881 295.434 178.759C300.013 181.796 301.117 188.171 297.903 193C297.391 193.766 297.435 194.633 296.788 195.226C297.111 200.025 295.292 205.097 290.745 209.737C278.322 222.41 271.535 205.305 264.845 204.882C258.155 204.456 261.446 210.363 255.027 213.267C248.61 216.172 244.252 214.269 237.103 201.669L235.398 198.248C235.393 198.245 239.601 199.029 240.125 194.506Z" fill="#A24410"/>
<path d="M234.086 191.393C241.453 196.524 243.08 209.587 236.299 215.825C231.893 219.878 223.211 220.586 218.39 216.562C210.573 210.039 209.699 202.659 212.471 196.865C216.05 189.384 228.008 187.161 234.086 191.393Z" fill="#A24410"/>
<path d="M236.388 209.091C236.388 209.091 238.657 216.122 246.651 220.18C247.634 220.68 235.499 240.157 235.493 239.925C235.458 238.421 237.592 229.649 237.074 228.568C235.655 225.617 227.414 212.163 227.414 212.163L236.388 209.091Z" fill="#FFCAAC"/>
<path d="M231.799 210.659L227.408 212.163C227.417 212.177 231.028 218.075 233.88 222.915C234.89 222.086 235.787 220.888 236.5 219.244C237.645 216.612 237.815 213.872 237.377 211.27C236.662 209.963 236.382 209.091 236.382 209.091L231.799 210.659Z" fill="#EEAE8A"/>
<path d="M220.033 195.895C220.033 195.895 223.965 194.236 228.242 195.834C232.518 197.431 240.203 207.807 236.242 216.909C232.28 226.01 222.815 221.487 218.612 215.714C214.412 209.943 210.227 201.238 220.033 195.895Z" fill="#FFCAAC"/>
<path d="M237.071 201.05C233.684 195.179 229.963 191.734 224.739 193.07C219.515 194.407 214.83 195.299 214.476 201.42L214.1 202.465C214.1 202.465 221.667 198.777 224.804 201.664C227.941 204.55 234.514 205.493 235.388 207.493C236.262 209.493 238.422 213.117 238.422 213.117L238.814 210.868C238.814 210.865 240.459 206.921 237.071 201.05Z" fill="#A24410"/>
<path d="M229.092 204.647C229.798 206.468 231.397 207.52 232.662 206.997C233.928 206.474 234.378 204.571 233.672 202.75C232.965 200.929 231.367 199.878 230.102 200.401C228.836 200.923 228.383 202.824 229.092 204.647Z" fill="#FFCAAC"/>
<path d="M94.1256 368.021H185.265V271.9H94.1256L94.1256 368.021Z" fill="#D0ECFF"/>
<path d="M183.997 380.394H191.525V269.768H183.997V380.394Z" fill="#2A2C33"/>
<path d="M92.1397 381.226H96.3926L96.3926 270.6H92.1397L92.1397 381.226Z" fill="#184655"/>
<path d="M77.3063 273.764H241.446C243.053 273.764 244.356 272.463 244.356 270.859V269.858C244.356 268.254 243.053 266.953 241.446 266.953H77.3063C75.6993 266.953 74.3955 268.254 74.3955 269.858V270.859C74.3955 272.463 75.6993 273.764 77.3063 273.764Z" fill="#2A2C33"/>
<path d="M524.999 381.92C524.999 380.676 524.527 379.666 523.945 379.666H50.954C50.2483 379.666 49.6768 380.676 49.6768 381.92C49.6768 383.166 50.2483 384.173 50.954 384.173H523.945C524.527 384.173 524.999 383.163 524.999 381.92Z" fill="#86B1F2"/>
<path d="M405.911 54.3528H484.795C492.315 54.3528 498.413 48.2705 498.413 40.7638V13.5889C498.413 6.0852 492.318 0 484.795 0H405.911C398.391 0 392.293 6.08227 392.293 13.5889V40.7638C392.293 48.2705 398.388 54.3528 405.911 54.3528Z" fill="#EDA67E"/>
<path d="M470.114 47.7566L472.115 86.2649L444.882 46.8579L470.114 47.7566Z" fill="#EDA67E"/>
<path d="M363.759 166.186L365.51 158.239C365.51 158.239 371.24 161.866 374.584 167.05C377.927 172.233 379.52 186.054 380.473 186.571C381.427 187.088 392.005 170.829 393.853 168.268C396.14 165.099 396.993 161.461 398.427 158.697C399.86 155.933 404.902 154.991 406.812 155.337C408.722 155.684 404.189 163.769 404.189 163.769C404.189 163.769 392.729 183.637 388.908 194.521C385.088 205.405 373.151 210.589 371.24 209.032C369.33 207.476 363.759 166.186 363.759 166.186Z" fill="#F3BB9B"/>
<path d="M398.549 160.218C398.549 160.218 399.026 158.127 400.312 157.698C401.598 157.27 403.838 157.651 403.982 157.698C404.123 157.745 406.601 156.415 406.601 156.415L404.553 160.218C404.553 160.218 400.55 164.926 399.217 163.167C397.884 161.408 398.549 160.218 398.549 160.218Z" fill="#F7B28C"/>
<path d="M407.317 156.588C407.317 156.588 408.762 163.925 408.397 165.464C408.029 167.005 407.108 166.18 406.937 165.845C406.225 164.465 405.73 159.76 405.73 159.76L407.317 156.588Z" fill="#FFCAAC"/>
<path d="M404.204 162.691C404.204 162.691 404.893 167.243 405.602 167.778C406.061 168.127 406.65 167.922 406.841 167.002C407.032 166.083 405.92 160.474 405.92 160.474L404.204 162.691Z" fill="#FFCAAC"/>
<path d="M399.992 175.605L397.594 174.439L407.78 153.584C409.105 154.227 409.655 155.822 409.01 157.143L399.992 175.605Z" fill="#184655"/>
<path d="M374.392 133.507C375.831 126.985 377.238 120.421 373.447 113.258C370.38 107.46 365.077 104.124 358.94 103.396C341.552 101.337 345.266 117.537 320.961 121.043C313.409 122.133 306.392 123.181 300.088 126.929C288.701 133.695 284.404 144.553 291.956 162.239C310.445 205.546 355.829 168.782 361.436 160.254C365.604 153.907 373.468 137.704 374.392 133.507Z" fill="#2A2C33"/>
<path d="M304.847 407.066C304.847 407.066 303.608 419.612 300.427 421.915C297.242 424.217 292.998 432.74 295.12 437.348C295.782 438.787 297.11 439.621 298.619 440.085C303.093 441.459 307.849 439.145 309.754 434.881C310.816 432.499 311.752 429.318 311.937 425.315C312.414 415.122 315.599 409.938 315.599 409.938L304.847 407.066Z" fill="#FFCAAC"/>
<path d="M353.764 412.2C353.764 412.2 354.768 424.857 353.952 428.972C353.517 431.175 351.086 435.709 352.201 437.783C353.317 439.856 354.588 440.373 354.588 440.373L383.464 440.837C385.036 440.863 383.997 439.853 382.728 438.925C380.653 437.404 378.978 436.399 372.347 433.207C371.915 432.998 370.34 432.003 369.772 431.656C368.333 430.781 366.888 429.404 365.64 428.023C363.568 425.724 363.385 414.575 363.385 414.575L353.764 412.2Z" fill="#FFCAAC"/>
<path d="M376.333 243.928C376.333 243.928 379.968 264.483 377.581 277.958C375.194 291.432 363.733 416.334 363.733 416.334L350.998 417.051C350.998 417.051 348.328 364.877 348.805 357.62C349.282 350.363 353.061 338.222 353.061 338.222L351.792 296.099L367.862 240.759L376.333 243.928Z" fill="#3C8F7C"/>
<path d="M338.906 239.608C338.906 239.608 328.878 254.639 326.491 267.077C324.104 279.514 328.243 317.741 323.651 334.04C321.164 342.863 311.743 356.49 310.31 367.891C308.876 379.292 303.258 409.16 303.258 409.16L315.987 411.674L345.569 337.086L368.773 269.67L374.719 234.947L338.906 239.608Z" fill="#50BFA5"/>
<path d="M347.023 154.095C347.023 154.095 338.244 155.091 332.99 160.791C327.736 166.492 341.478 212.319 342.435 219.573C343.391 226.83 334.609 243.755 334.609 243.755C334.609 243.755 367.419 249.805 376.331 243.931C376.331 243.931 377.285 191.757 376.331 186.574C375.375 181.39 367.419 160.312 365.509 158.242C363.599 156.165 347.023 154.095 347.023 154.095Z" fill="#FEDB76"/>
<path d="M334.607 165.091C335.455 162.538 338.354 161.308 340.829 162.374C344.22 163.837 348.899 166.612 351.186 171.37C355.007 179.317 368.378 206.612 372.516 207.649C376.654 208.686 393.524 179.317 393.524 179.317C393.524 179.317 393.048 174.133 394.481 171.196C395.914 168.26 400.211 165.149 400.847 166.186C401.483 167.223 398.46 169.813 398.46 170.333C398.46 170.85 399.734 171.196 401.486 170.16C403.237 169.123 404.185 167.026 404.185 167.026C404.185 167.026 407.057 172.233 404.032 176.897C401.006 181.561 399.735 183.461 399.735 183.461C399.735 183.461 380.156 226.824 372.995 227.344C366.32 227.828 327.903 185.311 334.607 165.091Z" fill="#FFCAAC"/>
<path d="M351.441 136.427C351.441 136.427 351.374 136.817 351.25 137.478C350.658 140.656 348.38 151.202 346.838 154.101C344.978 157.604 353.21 168.776 361.133 167.414C363.491 167.008 359.141 157.149 359.35 156.104C359.75 154.104 360.294 151.378 360.848 148.579C361.163 147.002 361.478 145.402 361.778 143.898C362.625 139.625 363.317 136.13 363.317 136.13L351.441 136.427Z" fill="#FFCAAC"/>
<path d="M351.251 137.478C351.374 136.814 351.442 136.427 351.442 136.427L363.315 136.133C363.315 136.133 362.623 139.628 361.776 143.901C361.478 145.396 361.163 146.985 360.851 148.556C359.018 148.286 357.102 147.399 355.183 145.725C353.09 143.901 351.716 141.707 350.889 139.367C351.036 138.618 351.159 137.972 351.251 137.478Z" fill="#EEAE8A"/>
<path d="M358.586 108.271C358.586 108.271 353.744 108.94 350.236 113.46C346.727 117.98 342.948 131.951 351.66 139.546C360.375 147.14 368.984 138.544 370.261 129.428C371.539 120.309 371.28 107.942 358.586 108.271Z" fill="#FFCAAC"/>
<path d="M373.047 126.309C372.008 128.324 370.263 129.437 369.147 128.8C368.035 128.162 367.973 126.013 369.015 123.998C370.054 121.983 371.802 120.87 372.915 121.507C374.03 122.148 374.089 124.297 373.047 126.309Z" fill="#FFCAAC"/>
<path d="M360.058 108.059C360.058 108.059 352.583 121.346 347.235 121.96C341.887 122.573 341.184 129.634 341.184 129.634C341.184 129.634 343.097 113.366 348.391 110.23C353.686 107.09 360.058 108.059 360.058 108.059Z" fill="#13375B"/>
<path d="M348.984 125.126C349.419 127.484 348.542 129.648 347.029 129.96C345.517 130.268 343.936 128.609 343.501 126.248C343.065 123.889 343.939 121.725 345.455 121.413C346.968 121.105 348.548 122.764 348.984 125.126Z" fill="#FFCAAC"/>
<path d="M310.622 432.634C303.685 433.894 299.07 429.853 296.668 426.828C294.905 430.255 293.825 434.531 295.12 437.348C296.262 439.827 299.373 440.505 302.001 440.602C304.779 440.705 307.378 439.254 308.759 436.846C309.4 435.721 310.065 434.32 310.622 432.634Z" fill="#3C8F7C"/>
<path d="M369.768 431.656C362.131 433.606 356.486 432.282 353.328 431.013C352.512 433.313 351.432 436.194 352.006 437.856C352.706 439.891 353.704 440.352 354.587 440.376C361.563 440.558 380.137 440.807 385.456 440.875C386.197 440.884 386.609 440.02 386.129 439.454C384.814 437.885 370.339 432.003 369.768 431.656Z" fill="#3C8F7C"/>
<path d="M54.4086 135.775C66.4993 118.773 93.4089 126.635 94.1947 147.469C94.2036 147.713 94.2124 147.96 94.2153 148.204C94.751 172.838 75.9675 179.264 81.8716 196.935C87.7756 214.606 105.711 201.429 112.69 230.345C119.665 259.265 95.8282 275.294 97.9738 292.431C100.119 309.567 110.318 320.989 109.782 343.303C109.382 359.9 79.1933 411.315 79.1933 411.315C79.1933 411.315 38.9421 367.403 37.8708 337.949C36.8524 310.014 56.8868 312.631 57.9581 286.39C59.0324 260.149 19.8407 256.648 38.9421 223.711C42.9684 216.768 53.3078 209.998 53.3078 195.006C53.3078 180.013 39.7132 157.167 50.447 141.461C51.745 139.554 53.0783 137.648 54.4086 135.775Z" fill="#50BFA5"/>
<path d="M97.9736 292.434C95.828 275.297 119.665 259.265 112.69 230.348C105.714 201.432 87.7755 214.609 81.8714 196.938C75.9673 179.267 94.7508 172.841 94.2152 148.207C94.2093 147.96 94.2034 147.716 94.1946 147.472C93.7119 134.679 83.3783 126.776 72.6739 126.521L72.6239 127.184C72.6239 127.184 57.5988 187.869 67.6145 218.571C77.6302 249.27 85.5004 251.414 80.494 292.821C75.4847 334.231 79.1931 411.321 79.1931 411.321C79.1931 411.321 109.384 359.905 109.782 343.309C110.32 320.992 100.122 309.57 97.9736 292.434Z" fill="#3C8F7C"/>
<path d="M104.746 431.086H39.3625C31.0362 423.254 25.9621 412.467 26.1475 400.634C26.2417 394.657 27.4366 389.447 29.9266 384.334L114.226 385.309C116.557 390.508 117.805 396.214 117.713 402.19C117.537 413.465 112.619 423.627 104.746 431.086Z" fill="#F47458"/>
<path d="M420.414 79.419H356.776C350.71 79.419 345.792 74.5115 345.792 68.4586V46.5348C345.792 40.4819 350.71 35.5744 356.776 35.5744H420.414C426.48 35.5744 431.398 40.4819 431.398 46.5348V68.4586C431.401 74.5115 426.483 79.419 420.414 79.419Z" fill="#FEDB76"/>
<path d="M373.068 73.372L364.732 98.3207L388.976 73.372H373.068Z" fill="#FEDB76"/>
<path d="M370.921 59.1663C370.921 61.3719 369.002 63.1605 366.633 63.1605C364.267 63.1605 362.345 61.3719 362.345 59.1663C362.345 56.9607 364.264 55.1722 366.633 55.1722C369.002 55.1722 370.921 56.9607 370.921 59.1663Z" fill="white"/>
<path d="M392.837 59.1663C392.837 61.3719 390.918 63.1605 388.549 63.1605C386.18 63.1605 384.261 61.3719 384.261 59.1663C384.261 56.9607 386.18 55.1722 388.549 55.1722C390.915 55.1722 392.837 56.9607 392.837 59.1663Z" fill="white"/>
<path d="M414.753 59.1663C414.753 61.3719 412.834 63.1605 410.465 63.1605C408.096 63.1605 406.177 61.3719 406.177 59.1663C406.177 56.9607 408.096 55.1722 410.465 55.1722C412.834 55.1722 414.753 56.9607 414.753 59.1663Z" fill="white"/>
<path d="M96.4029 299.814C96.4029 299.814 131.977 289.162 133.411 289.429C134.818 289.691 129.228 301.529 129.929 305.353C130.153 306.581 99.4815 324.081 92.6651 322.792C85.2335 321.385 56.6639 296.862 53.6147 291.544C50.2094 285.599 44.2465 270.777 48.2169 265.194C50.027 262.651 54.4123 259.262 57.4556 259.978C69.558 262.827 82.6258 284.216 96.4029 299.814Z" fill="#004F84"/>
<path d="M98.3588 340.51C98.1263 339.456 90.7448 322.325 90.368 320.578C85.4647 297.746 66.5929 264.36 57.8545 260.063C56.4418 259.358 46.3555 259.294 46.3555 259.294L51.5679 261.867C57.5072 267.279 64.1559 273.544 68.3941 280.53C80.6908 300.795 89.0671 347.474 90.1856 347.394C91.4364 347.303 98.8768 342.848 98.3588 340.51Z" fill="#0069AF"/>
<path d="M86.6765 341.145C69.4029 331.121 66.6863 307.453 59.3842 294.742C50.4428 279.177 37.2543 277.482 14.5564 305.697C-13.2715 340.284 0.888187 409.868 39.3146 432.167L131.457 431.97C150.441 425.151 158.879 415.148 165.698 398.49C196.025 324.404 125.103 363.441 86.6765 341.145Z" fill="#FEDB76"/>
<path d="M127.546 417.982C127.546 417.982 126.905 429.313 126.899 429.336C126.663 430.775 125.733 434.329 125.733 435.636C125.733 440.549 147.64 431.465 142.73 429.289C142.286 429.092 139.269 426.49 139.122 424.816C138.895 422.24 139.016 418.141 139.016 418.141L127.546 417.982Z" fill="#B46E3F"/>
<path d="M142.412 429.075C142.412 429.075 137.27 430.578 134.636 430.954C132.002 431.33 128.529 428.167 126.666 429.022C125.144 429.721 124.55 434.784 124.346 437.348C124.282 438.161 124.903 438.866 125.718 438.907C131.775 439.222 154.809 440.282 160.783 438.555C163.882 437.659 152.928 432.575 142.412 429.075Z" fill="#07345A"/>
<path d="M189.103 406.622C189.103 406.622 183.961 408.126 181.327 408.502C178.693 408.878 175.22 405.715 173.357 406.569C171.835 407.268 171.24 412.332 171.037 414.895C170.973 415.709 171.688 416.628 172.5 416.707C179.219 417.368 201.496 417.829 207.474 416.102C210.573 415.207 199.616 410.12 189.103 406.622Z" fill="#07345A"/>
<path d="M167.518 397.439C167.518 397.439 173.678 406.085 174.255 407.994C174.831 409.903 189.106 411.301 189.106 406.622C189.106 406.561 184.679 402.969 183.429 401.333C181.339 398.596 176.462 389.45 176.462 389.45L167.518 397.439Z" fill="#B46E3F"/>
<path d="M34.8725 209.106C34.8725 209.106 27.9206 204.415 24.9804 212.633C24.9804 212.633 21.0542 211.446 19.3736 215.473C19.3736 215.473 12.6396 214.968 13.1929 224.727C13.1929 224.727 9.80821 224.833 10.232 228.78C10.6559 232.727 13.187 234.865 13.187 234.865C13.187 234.865 11.6654 236.633 13.2782 239.993C14.6498 242.85 17.2486 242.759 17.2486 242.759C17.2486 242.759 19.0469 247.687 21.5928 248.73C24.1386 249.773 26.9788 248.377 26.9788 248.377C26.9788 248.377 28.3857 250.953 30.9051 250.143C33.4244 249.332 36.0704 246.181 39.196 246.648C42.3217 247.115 49.5414 244.304 49.5414 244.304C49.5414 244.304 57.1142 238.721 52.7053 230.712C52.7053 230.712 56.2401 225.764 51.322 221.843C51.322 221.843 52.4905 213.758 45.936 210.583C39.3815 207.408 34.8725 209.106 34.8725 209.106Z" fill="#2A2C33"/>
<path d="M145.09 331.576C139.31 328.739 78.6684 338.164 78.6684 338.164L71.3987 326.598L47.7265 331.958C47.7265 331.958 41.0278 339.656 40.7511 343.101C39.8535 354.255 44.9776 373.01 50.7551 374.834C71.3339 381.327 115.576 368.055 121.769 366.637C121.769 366.637 121.545 376.64 123.42 397.06C124.161 405.127 125.133 414.02 126.033 421.8C131.449 421.788 136.864 421.685 142.28 420.975C142.283 420.972 150.871 334.413 145.09 331.576Z" fill="#F66819"/>
<path d="M183.529 396.217C173.154 370.07 150.642 318.757 142.483 317.315C131.788 315.423 78.6572 338.181 78.6572 338.181L132.562 337.059C132.562 337.059 132.859 337.591 135.205 348.866C137.036 357.653 157.311 388.599 168.872 405.741C174.208 403.336 179.491 401.113 183.529 396.217Z" fill="#D25914"/>
<path d="M46.6113 259.488C46.6113 259.488 33.1903 259.335 31.7628 259.649C30.3354 259.964 32.8901 314.31 34.6354 334.59C36.3807 354.869 39.1797 357.911 39.1797 357.911C39.1797 357.911 58.3222 357.985 71.549 353.82C85.3025 349.488 88.5724 333.544 88.5724 333.544C88.5724 333.544 76.1139 297.083 71.1192 285.785C67.9259 278.557 61.5421 270.425 55.0788 263.799C51.4381 260.069 46.6113 259.488 46.6113 259.488Z" fill="white"/>
<path d="M42.8367 249.599L45.5297 256.933C45.5297 256.933 50.227 267.317 47.7489 270.063C45.2707 272.812 32.2941 259.523 32.2941 259.523L29.0654 240.151L42.8367 249.599Z" fill="#B46E3F"/>
<path d="M30.1132 246.427C33.9894 252.425 40.6646 255.162 45.1206 255.814L42.8366 249.596L29.0684 240.148L30.1132 246.427Z" fill="#8F532A"/>
<path d="M31.4117 218.53C36.9272 215.164 44.1675 217.719 46.4396 223.658C47.4256 226.239 48.5293 229.517 49.4064 233.173C51.5196 241.966 48.8413 251.564 44.8268 252.451C40.8093 253.335 28.4449 250.069 25.2692 237.626C23.3091 229.946 25.6224 222.063 31.4117 218.53Z" fill="#B46E3F"/>
<path d="M28.4488 237.966C28.8785 239.913 27.9367 241.778 26.3385 242.128C24.7433 242.48 23.101 241.185 22.6684 239.238C22.2387 237.291 23.1805 235.426 24.7786 235.076C26.3738 234.724 28.0161 236.019 28.4488 237.966Z" fill="#B46E3F"/>
<path d="M32.2687 259.464C32.2687 259.464 16.6844 258.847 13.1379 262.116C10.8834 264.196 15.4512 285.003 15.4512 285.003C15.4512 285.003 28.1629 309.285 30.0112 323.488C33.081 347.08 35.88 361.574 37.0926 362.355C44.0974 364.863 67.2515 360.09 68.214 357.362C78.8418 327.218 32.2687 259.464 32.2687 259.464Z" fill="#0069AF"/>
<path d="M107.637 309.429L117.983 265.837C118.25 264.71 119.26 263.911 120.422 263.911H139.209C140.854 263.911 142.055 265.467 141.634 267.056L130.223 309.952C129.941 311.015 128.999 311.767 127.898 311.811L110.177 312.507C108.517 312.572 107.255 311.039 107.637 309.429Z" fill="#2A2C33"/>
<path d="M124.779 308.302C123.985 308.454 122.669 308.739 121.76 309.071C120.777 309.429 119.761 309.453 118.89 309.632C117.159 309.987 115.903 310.269 115.929 310.193C115.962 310.093 115.573 309.929 116.474 309.585C117.56 309.174 120.056 308.792 121.604 308.07C122.484 307.658 124.37 306.91 124.37 306.91C124.37 306.91 127.016 305.259 126.972 305.08C126.734 304.099 124.609 304.733 123.487 305.441C122.543 305.538 120.577 306.384 120.577 306.384C120.577 306.384 116.226 307.23 116.106 306.633C116.056 306.381 118.666 305.553 121.1 304.351C123.361 303.235 125.468 301.752 125.318 301.288C125.062 300.498 122.422 301.479 122.422 301.479C122.422 301.479 120.606 302.26 119.985 302.478C119.255 302.73 117.015 303.324 117.015 303.324C117.015 303.324 109.122 305.039 109.06 304.463C108.995 303.89 109.437 302.34 109.89 302.07C110.343 301.799 111.435 301.723 111.891 301.453C112.344 301.183 112.706 300.454 112.418 299.89C112.13 299.327 109.437 299.826 109.437 299.826C109.437 299.826 107.25 300.246 106.069 301.233C101.987 304.651 102.72 305.168 102.184 305.594C101.552 306.096 90.7766 307.274 90.7766 307.274C90.7766 307.274 59.0401 310.951 57.3213 311.092L58.4338 321.635C60.3234 321.829 96.9515 315.459 100.71 314.713C100.71 314.713 105.501 315.426 108.527 315.776C111.553 316.128 114.608 315.145 115.479 315.115C115.608 315.112 118.502 314.851 121.995 313.606C125.006 312.534 121.671 312.216 121.671 312.216C121.671 312.216 115.747 313.236 115.753 312.769C115.758 312.407 119.022 312.037 122.366 310.886C123.225 310.589 124.073 310.293 124.85 310.017C126.884 309.285 127.031 307.87 124.779 308.302Z" fill="#B46E3F"/>
<path d="M52.5733 305.929C52.5733 305.929 89.5928 305.664 91.0261 305.929C92.433 306.19 92.8303 315.667 93.5279 319.494C93.7515 320.722 54.5069 325.106 47.6905 323.817C40.2589 322.41 21.5402 301.89 17.2048 294.968C13.567 289.159 5.80584 274.381 7.73363 267.911C8.89914 264.002 14.9562 259.588 18.2644 260.613C31.4529 264.692 52.5733 305.929 52.5733 305.929Z" fill="#33A8F8"/>
<path d="M136.443 288.533C137.155 288.257 137.956 288.68 138.103 289.429C138.253 290.196 138.256 291.112 137.67 291.696C136.505 292.859 128.646 293.729 128.646 292.569C128.644 291.676 133.977 289.494 136.443 288.533Z" fill="#B46E3F"/>
<path d="M138.175 291.94C138.175 291.94 139.078 294.833 138.401 294.886C137.724 294.939 129.301 296.116 128.883 295.13C128.465 294.14 137.062 291.394 138.175 291.94Z" fill="#B46E3F"/>
<path d="M138.518 295.185C138.518 295.185 138.842 296.466 138.191 297.262C137.541 298.058 129.644 298.075 129.276 296.845C128.908 295.617 138.179 294.246 138.518 295.185Z" fill="#B46E3F"/>
<path d="M136.717 298.137C136.717 298.137 136.882 299.115 136.555 299.597C136.228 300.078 130.383 300.387 129.621 299.253C128.856 298.116 135.849 296.974 136.717 298.137Z" fill="#B46E3F"/>
<path d="M209.658 142.902C217.591 141.398 223.416 150.399 218.807 157.06C217.978 158.256 217.641 159.723 217.798 161.169L218.341 166.147C218.491 167.517 217.56 168.775 216.203 169.031L213.196 169.601C211.838 169.857 210.512 169.03 210.145 167.701C208.808 162.845 208.667 160.958 206.365 159.418C199.623 154.906 201.722 144.406 209.658 142.902Z" fill="#FEDB76"/>
<path d="M215.793 163.227C214.86 159.269 213.982 154.879 213.708 153.226C212.258 153.606 210.741 153.714 209.251 153.548C210.187 156.789 211.043 160.082 211.809 163.357L211.385 163.454C210.61 160.124 209.734 156.777 208.783 153.485C207.877 153.35 206.817 153.139 206.238 152.448C205.967 152.125 205.834 151.662 205.891 151.243C206.045 150.123 207.361 149.941 208.134 150.749C208.647 151.283 208.823 152.075 209.122 153.094C210.631 153.287 212.172 153.185 213.645 152.793C213.536 151.951 213.541 151.144 213.912 150.413C215.218 147.853 218.506 151.777 214.131 153.105C214.342 154.399 215.225 158.91 216.219 163.127L215.793 163.227ZM214.298 150.612C213.987 151.221 213.974 151.926 214.065 152.672C215.013 152.376 215.584 151.963 215.813 151.411C216.201 150.489 214.998 149.233 214.298 150.612ZM206.606 150.799C206.193 151.082 206.244 151.78 206.569 152.17C207.035 152.725 207.907 152.901 208.647 153.026C208.412 152.218 208.248 151.499 207.817 151.049C207.514 150.733 206.65 150.77 206.606 150.799Z" fill="white"/>
<path d="M217.784 161.039C217.786 161.081 217.789 161.122 217.791 161.163L218.335 166.142C218.485 167.515 217.553 168.77 216.195 169.026L213.188 169.597C211.83 169.853 210.503 169.025 210.136 167.695C209.541 165.536 209.183 163.965 208.766 162.748L217.784 161.039Z" fill="#3C8F7C"/>
<path d="M213.962 137.472L214.701 132.574C214.771 132.1 214.445 131.657 213.97 131.586C213.495 131.515 213.052 131.84 212.982 132.315L212.242 137.212C212.172 137.687 212.498 138.13 212.973 138.201C213.451 138.274 213.891 137.944 213.962 137.472Z" fill="#FAE0B2"/>
<path d="M222.478 145.549L227.2 143.341C227.636 143.139 227.822 142.622 227.616 142.187C227.413 141.751 226.895 141.564 226.459 141.769L221.737 143.977C221.304 144.179 221.115 144.696 221.321 145.132C221.524 145.565 222.042 145.752 222.478 145.549Z" fill="#FAE0B2"/>
<path d="M232.795 158.717C232.996 158.282 232.802 157.765 232.366 157.567C230.733 156.821 229.018 156.228 227.273 155.803C226.807 155.689 226.338 155.976 226.224 156.442C226.111 156.907 226.399 157.376 226.866 157.49C228.503 157.888 230.112 158.444 231.644 159.144C232.077 159.342 232.595 159.153 232.795 158.717Z" fill="#FAE0B2"/>
<path d="M201.824 141.659C202.218 141.385 202.312 140.843 202.034 140.449C200.724 138.586 199.603 136.579 198.704 134.486C198.515 134.046 198.004 133.841 197.564 134.029C197.123 134.217 196.918 134.727 197.107 135.168C198.053 137.372 199.233 139.484 200.612 141.445C200.89 141.841 201.433 141.933 201.824 141.659Z" fill="#FAE0B2"/>
<path d="M199.093 149.758C199.065 149.278 198.654 148.913 198.174 148.941L192.542 149.267C192.062 149.295 191.698 149.705 191.726 150.184C191.754 150.664 192.165 151.028 192.645 151.001L198.277 150.675C198.754 150.648 199.121 150.237 199.093 149.758Z" fill="#FAE0B2"/>
<path d="M195.705 166.272C195.778 166.245 195.848 166.209 195.915 166.161C197.491 165.026 198.949 163.717 200.247 162.275C200.567 161.918 200.536 161.368 200.179 161.047C199.821 160.727 199.27 160.758 198.95 161.114C197.735 162.465 196.37 163.691 194.894 164.754C194.504 165.034 194.416 165.576 194.699 165.966C194.935 166.287 195.348 166.402 195.705 166.272Z" fill="#FAE0B2"/>
<path d="M400.531 252.915C405.902 251.37 406.046 252.328 406.726 252.11C407.533 251.855 414.028 243.073 414.028 243.073C414.028 243.073 433.365 217.335 434.357 215.904L440.455 182.6L458.777 182.456C458.777 182.456 451.124 218.424 450.374 220.204C449.623 221.984 418.982 253.423 416.386 256.284C416.386 256.284 414.708 260.93 413.552 263.805C412.395 266.68 409.92 268.78 409.461 269.529C409.393 269.64 407.701 272.031 404.751 274.36C402.209 276.369 403.554 273.241 403.554 273.241C403.554 273.241 407.489 268.633 407.027 268.36C406.67 268.148 404.69 270.803 401.902 273.053C401.187 273.632 400.478 274.201 399.819 274.718C398.094 276.075 396.634 275.353 398.176 273.632C398.721 273.024 399.651 272.037 400.428 271.435C401.267 270.786 401.794 269.905 402.4 269.244C403.607 267.934 404.504 266.997 404.416 266.971C404.301 266.939 404.334 266.498 403.551 267.088C402.609 267.799 400.999 269.767 399.521 270.698C398.683 271.226 397.011 272.439 397.011 272.439C397.011 272.439 394.082 273.781 393.926 273.632C393.085 272.833 394.759 271.344 396.01 270.78C396.575 270.008 398.376 268.783 398.376 268.783C398.376 268.783 401.361 265.458 400.837 264.994C400.613 264.798 398.509 266.598 396.125 268.022C393.912 269.344 391.416 270.307 391.036 269.896C390.392 269.197 392.661 267.461 392.661 267.461C392.661 267.461 394.327 266.333 394.845 265.914C395.454 265.423 397.146 263.805 397.146 263.805C397.146 263.805 402.738 257.884 402.209 257.485C401.679 257.082 399.945 256.542 399.454 256.78C398.962 257.018 398.35 257.934 397.858 258.172C397.367 258.41 396.475 258.292 396.066 257.699C395.657 257.109 397.482 255.032 397.482 255.032C397.482 255.032 398.983 253.361 400.531 252.915Z" fill="#F3BB9B"/>
<path d="M430.948 419.997C430.948 419.997 431.598 431.489 431.604 431.512C431.843 432.972 432.787 436.576 432.787 437.903C432.787 442.884 410.572 433.674 415.549 431.465C415.999 431.266 418.36 429.753 418.51 428.059C418.739 425.445 419.316 420.161 419.316 420.161L430.948 419.997Z" fill="#F7A491"/>
<path d="M415.606 431.415C415.606 431.415 420.821 432.94 423.494 433.321C426.166 433.703 429.686 430.493 431.576 431.36C433.656 432.314 433.445 441.706 433.445 441.706C433.445 441.706 405.602 443.345 397.738 440.816C394.624 439.815 404.943 434.966 415.606 431.415Z" fill="#184655"/>
<path d="M479.893 421.098C479.893 421.098 480.544 432.59 480.549 432.614C480.788 434.073 481.733 437.677 481.733 439.004C481.733 443.988 459.517 434.775 464.494 432.567C464.945 432.367 468.006 429.727 468.156 428.032C468.385 425.418 468.265 421.263 468.265 421.263L479.893 421.098Z" fill="#FFCAAC"/>
<path d="M464.551 432.52C464.551 432.52 469.766 434.044 472.439 434.426C475.111 434.808 478.631 431.598 480.521 432.464C482.602 433.418 482.684 442.003 482.684 442.003C482.684 442.003 452.919 444.156 445.92 442.135C442.777 441.228 453.888 436.07 464.551 432.52Z" fill="#184655"/>
<path d="M444.689 255.223L435.298 259.267L415.54 353.418L416.341 424L432.178 424.367C432.178 424.367 439.545 362.628 439.545 357.844C439.545 353.059 473.665 274.113 473.665 274.113L444.689 255.223Z" fill="#004F84"/>
<path d="M451.939 260.404C451.939 260.404 458.859 332.945 458.859 345.171C458.859 357.4 464.469 425.835 464.469 425.835L480.344 425.744C480.344 425.744 481.489 404.884 483.19 374.196C483.458 369.389 482.846 359.691 483.19 354.716C485.66 318.93 490.545 285.241 488.211 271.887C487.835 269.737 487.131 264.116 485.757 262.698C475.361 251.963 451.939 260.404 451.939 260.404Z" fill="#0069AF"/>
<path d="M432.573 203.155L451.784 201.872C451.784 201.872 452.731 184.738 452.731 176.562C452.731 166.644 455.76 152.024 454.577 152.301C451.254 153.073 445.515 156.124 442.851 159.828C433.633 172.641 432.573 203.155 432.573 203.155Z" fill="#3C8F7C"/>
<path d="M478.089 151.922C478.089 151.922 489.043 153.443 491.928 155.555C495.174 157.933 498.779 163.258 498.779 163.258C498.779 163.258 485.329 226.7 485.305 237.376C485.288 245.634 488.216 265.914 488.216 265.914C488.216 265.914 447.571 268.475 432.178 262.41C432.178 262.41 437.04 238.292 437.04 231.957C437.04 225.623 442.856 168.033 444.177 164.013C445.378 160.362 447.574 153.807 454.999 152.189C462.425 150.574 478.089 151.922 478.089 151.922Z" fill="#50BFA5"/>
<path d="M475.098 134.841L477.808 152.556C477.808 152.556 467.904 173.649 461.995 171.819C457.035 170.283 460.087 151.619 460.087 151.619C460.087 151.619 462.792 141.596 461.98 136.579C461.167 131.566 475.098 134.841 475.098 134.841Z" fill="#FFCAAC"/>
<path d="M461.976 136.582C461.167 131.566 475.094 134.841 475.094 134.841L475.318 136.309C474.911 137.293 474.411 138.133 473.808 138.779C470.697 142.098 465.832 144.092 461.629 144.242C462.053 141.537 462.309 138.641 461.976 136.582Z" fill="#F3BB9B"/>
<path d="M477.38 109.778C477.775 109.637 480.536 129.954 475.294 135.546C470.052 141.137 459.839 142.967 456.178 138.562C452.125 133.692 452.331 111.854 460.478 106.103C468.63 100.353 477.38 109.778 477.38 109.778Z" fill="#FFCAAC"/>
<path d="M463.582 95.2341C469.881 96.5058 473.96 100.324 475.461 101.948C478.322 102.283 482.21 103.848 486.221 110.438C491.157 118.538 487.51 127.513 481.765 131.916C476.02 136.318 476.085 141.431 476.085 141.431L475.19 138.776C474.519 136.782 474.245 134.67 474.469 132.579C474.604 131.325 474.875 129.969 475.399 128.853C476.782 125.913 472.429 123.957 471.211 121.51C470.272 119.628 470.225 115.316 468.745 112.203L466.979 109.827C466.979 109.827 462.902 106.682 458.911 107.569C454.926 108.459 455.5 93.6012 463.582 95.2341Z" fill="#2A2C33"/>
<path d="M471.482 125.129C471.44 127.607 472.576 129.637 474.022 129.66C475.467 129.684 476.67 127.695 476.712 125.217C476.753 122.738 475.617 120.709 474.172 120.685C472.727 120.659 471.523 122.65 471.482 125.129Z" fill="#FFCAAC"/>
<path d="M450.15 216.454L449.888 217.966C449.753 218.744 449.011 219.267 448.231 219.132L416.816 213.702C416.036 213.567 415.512 212.827 415.647 212.048L415.909 210.536C416.045 209.758 416.786 209.235 417.566 209.37L448.982 214.8C449.765 214.935 450.286 215.675 450.15 216.454Z" fill="#13375B"/>
<path d="M494.687 160.092C491.002 159.986 487.741 184.245 490.078 186.639C492.415 189.032 492.859 218.912 492.859 218.912L458.088 218.048L458.082 218.06C457.405 217.608 450.121 212.724 449.079 211.658C447.987 210.539 442.677 211.097 441.274 212.636C439.87 214.175 444.396 212.915 445.644 213.755C446.892 214.595 444.708 216.692 444.708 216.692C444.708 216.692 435.896 217.966 434.178 216.148C432.459 214.33 427.87 211.25 427.246 213.07C426.926 214.01 429.292 216.853 430.625 218.045C428.962 216.803 426.97 215.482 426.287 215.714C425.039 216.134 425.557 217.719 426.234 218.186C426.911 218.653 433.907 223.984 434.999 224.357C436.067 224.721 452.337 225.123 455.148 225.743C455.148 225.743 501.003 236.163 503.611 235.511C505.897 234.941 508.184 220.295 508.184 209.076C508.184 197.86 506.206 160.424 494.687 160.092Z" fill="#FFCAAC"/>
<path d="M489.908 154.556C489.908 154.556 496.321 156.03 502.949 163.461C508.974 170.218 512.77 208.054 512.77 208.054L491.965 211.411L490.302 193.108L484.742 184.735L489.908 154.556Z" fill="#50BFA5"/>
<path d="M138.03 231.429H87.7274C82.9329 231.429 79.0449 227.549 79.0449 222.765V205.437C79.0449 200.653 82.9329 196.774 87.7274 196.774H138.03C142.824 196.774 146.712 200.653 146.712 205.437V222.765C146.712 227.549 142.824 231.429 138.03 231.429Z" fill="#FEDB76"/>
<path d="M100.601 226.648L122.024 260.539L113.177 226.648H100.601Z" fill="#FEDB76"/>
<path d="M181.925 266.889L164.473 266.939C163.111 266.943 162.004 265.845 162 264.484L184.386 264.419C184.39 265.78 183.287 266.885 181.925 266.889Z" fill="#EDA67E"/>
<path d="M182.51 255.798C180.557 255.804 178.971 257.059 178.976 258.597C178.98 260.136 180.574 261.382 182.527 261.376C184.48 261.37 186.065 260.115 186.061 258.576C186.057 257.038 184.463 255.792 182.51 255.798ZM182.522 260.119C181.286 260.123 180.237 259.425 180.235 258.593C180.233 257.761 181.275 257.059 182.514 257.055C183.751 257.051 184.799 257.749 184.801 258.581C184.803 259.41 183.759 260.115 182.522 260.119Z" fill="#EDA67E"/>
<path d="M181.834 253.324C181.855 260.332 177.819 266.024 172.816 266.038C167.816 266.053 163.746 260.386 163.726 253.378C163.723 252.488 167.774 251.757 172.774 251.742C177.775 251.725 181.832 252.436 181.834 253.324Z" fill="#EDA67E"/>
<path d="M181.834 253.324C181.836 254.214 177.785 254.946 172.785 254.96C167.784 254.975 163.73 254.266 163.726 253.376C163.723 252.486 167.774 251.754 172.774 251.74C177.775 251.725 181.832 252.436 181.834 253.324Z" fill="#D17039"/>
</svg>
