<svg width="80" height="81" viewBox="0 0 80 81" fill="none" xmlns="http://www.w3.org/2000/svg">
<g clip-path="url(#clip0)">
<path d="M41.6162 18.6322L40.0531 10.285C40.0531 9.39514 39.3292 8.67432 38.4357 8.67432H30.1221C29.8401 8.67432 29.6118 8.45337 29.5935 8.17322C29.3347 4.16626 25.99 0.996094 21.9019 0.996094C17.8137 0.996094 14.4684 4.16626 14.2096 8.17322C14.1913 8.45337 13.963 8.67432 13.6816 8.67432H5.36743C4.47388 8.67432 3.75 9.39514 3.75 10.285V43.2239C3.75 44.1138 4.47388 44.8352 5.36743 44.8352L24.4824 46.3977L40.0555 44.8352C40.0555 44.8352 40.0531 44.1138 40.0531 43.2245L41.6162 34.8773C41.6162 34.6332 41.6162 18.8763 41.6162 18.6322V18.6322Z" fill="#FFEE92"/>
<path d="M50.0547 8.67432H41.6752C40.7816 8.67432 40.0577 9.39514 40.0577 10.285V18.5663C40.0577 18.847 39.8362 19.0747 39.5548 19.0924C35.532 19.3506 32.3496 22.6825 32.3496 26.7548C32.3496 30.8264 35.532 34.1583 39.5548 34.4165C39.8362 34.4342 40.0577 34.6619 40.0577 34.9426V43.2239V44.8352L58.3366 46.554L74.7434 44.8352C75.637 44.8352 76.3608 44.1138 76.3608 43.2239V10.285C76.3608 9.39514 75.637 8.67432 74.7434 8.67432H66.3639C66.1185 8.67432 65.9189 8.86597 65.9055 9.1095C65.6791 13.147 62.3197 16.3519 58.2096 16.3519C54.0989 16.3519 50.7401 13.147 50.5137 9.1095C50.4996 8.86536 50.3001 8.67432 50.0547 8.67432V8.67432Z" fill="#FF9C65"/>
<path d="M36.9331 54.7931L40.0581 44.8352H49.9897C50.2711 44.8352 50.4994 44.6143 50.5177 44.3341C50.7765 40.3271 54.1218 37.157 58.21 37.157C62.2981 37.157 65.6428 40.3271 65.9016 44.3341C65.9199 44.6143 66.1482 44.8352 66.4302 44.8352H74.7438C75.6373 44.8352 76.3612 45.556 76.3612 46.4459V79.3848C76.3612 80.2747 75.6373 80.9961 74.7438 80.9961H41.6755C40.782 80.9961 40.0581 80.2747 40.0581 79.3848L36.9331 71.0382C36.9331 70.7941 36.9331 55.0372 36.9331 54.7931V54.7931Z" fill="#F56819"/>
<path d="M30.0562 80.9961H38.4357C39.3292 80.9961 40.0531 80.2747 40.0531 79.3854V71.1035C40.0531 70.8228 40.2747 70.5957 40.556 70.5774C44.5789 70.3198 47.7612 66.9879 47.7612 62.9156C47.7612 58.8434 44.5789 55.5115 40.556 55.2539C40.2747 55.2356 40.0531 55.0085 40.0531 54.7278V46.4459C40.0531 45.5566 40.0555 44.8352 40.0555 44.8352H5.36743C4.47388 44.8352 3.75 45.5566 3.75 46.4459V79.3854C3.75 80.2747 4.47388 80.9961 5.36743 80.9961H13.7469C13.9923 80.9961 14.1919 80.8044 14.2053 80.5609C14.4324 76.5228 17.7911 73.3185 21.9019 73.3185C26.012 73.3185 29.3707 76.5228 29.5978 80.5609C29.6112 80.8044 29.8108 80.9961 30.0562 80.9961Z" fill="#FFDD76"/>
<path d="M57.551 71.7534C57.5272 71.7534 57.504 71.7528 57.4802 71.7516L57.4277 71.7479C56.7636 71.6893 56.2729 71.1034 56.3309 70.4393C56.3895 69.7765 56.9748 69.2894 57.6352 69.3419C58.2932 69.3889 58.7931 69.9559 58.7552 70.6163C58.718 71.2578 58.1858 71.7534 57.551 71.7534V71.7534ZM57.5498 70.3661L57.5339 70.5449L57.5498 70.3661ZM52.8446 70.6597C52.7054 70.6597 52.5644 70.6352 52.4265 70.5846C51.796 70.3679 51.4658 69.6825 51.6825 69.052C51.8991 68.4215 52.5919 68.0882 53.2218 68.3049C53.2303 68.308 53.2541 68.3159 53.2627 68.319C53.8883 68.5503 54.2081 69.2443 53.9774 69.8699C53.7973 70.3575 53.3353 70.6597 52.8446 70.6597ZM61.9797 70.3179C61.6666 70.3179 61.3535 70.197 61.1173 69.9559C60.6504 69.4798 60.6583 68.7151 61.1344 68.2488C61.1368 68.2463 61.1453 68.2378 61.146 68.2372C61.6226 67.7709 62.3868 67.7782 62.8537 68.2549C63.32 68.7309 63.3121 69.4957 62.836 69.962L62.8244 69.973C62.5894 70.2037 62.2843 70.3179 61.9797 70.3179V70.3179ZM48.4085 68.7285C48.2193 68.7285 48.0277 68.6839 47.8488 68.59L47.8275 68.579C47.2391 68.2652 47.0163 67.534 47.33 66.9457C47.6438 66.3567 48.375 66.1345 48.9633 66.4482L48.3951 67.5139L48.9707 66.4519C49.5609 66.762 49.7885 67.4913 49.4785 68.0821C49.263 68.4935 48.8431 68.7285 48.4085 68.7285V68.7285ZM23.1742 66.1339C22.5546 66.1339 22.0206 65.6615 21.965 65.0334C21.9065 64.3694 22.3892 63.784 23.0533 63.7255L23.0692 63.7242C23.7326 63.6638 24.3198 64.1564 24.3784 64.8204C24.437 65.4845 23.9456 66.0704 23.2816 66.129C23.2456 66.1327 23.2096 66.1339 23.1742 66.1339V66.1339ZM44.3674 66.0777C44.0988 66.0777 43.8297 65.9892 43.6051 65.8068C43.0826 65.3923 42.9953 64.6337 43.4091 64.1106C43.823 63.5887 44.5822 63.5002 45.1053 63.9147L45.1303 63.9348C45.6473 64.3559 45.7248 65.1164 45.3037 65.6334C45.065 65.9264 44.7177 66.0777 44.3674 66.0777V66.0777ZM64.1751 66.068C64.0805 66.068 63.9853 66.057 63.8895 66.0338C63.2419 65.8763 62.844 65.2239 63.0008 64.5757L63.198 64.6239L64.1776 64.8448L65.3531 65.1213C65.3525 65.1238 65.3482 65.1421 65.3476 65.1445C65.2133 65.6969 64.719 66.068 64.1751 66.068V66.068ZM18.5221 65.0493C18.3335 65.0493 18.1412 65.0041 17.9624 64.9108L17.941 64.8992C17.3526 64.5854 17.1298 63.8542 17.4436 63.2659C17.7573 62.6775 18.4885 62.4553 19.0769 62.769L18.5092 63.8341L19.0842 62.7727C19.6744 63.0821 19.9021 63.8121 19.592 64.4023C19.3765 64.8137 18.9566 65.0493 18.5221 65.0493ZM27.5809 64.2967C27.1903 64.2967 26.8076 64.1081 26.575 63.759C26.2052 63.2042 26.3553 62.4547 26.9101 62.0848L27.5797 63.0895L26.9156 62.0812C27.468 61.7089 28.2187 61.8529 28.5916 62.4047C28.9646 62.9564 28.8217 63.7053 28.2706 64.0795C28.2681 64.0813 28.2517 64.0923 28.2492 64.0941C28.0435 64.2308 27.811 64.2967 27.5809 64.2967V64.2967ZM40.7205 62.8929C40.4495 62.8929 40.1773 62.802 39.9521 62.6152L39.9307 62.5975C39.4217 62.1666 39.3588 61.4049 39.7891 60.8959C40.2201 60.3868 40.9818 60.3234 41.4908 60.7543L40.7108 61.6759L41.4951 60.7579C42.0053 61.1852 42.0749 61.9469 41.6483 62.4578C41.4096 62.7446 41.066 62.8929 40.7205 62.8929ZM14.7946 62.0006C14.4443 62.0006 14.0964 61.8486 13.8577 61.5557C13.4378 61.0399 13.5086 60.2757 14.0225 59.854C14.5371 59.4322 15.2902 59.4994 15.7138 60.0115C15.7157 60.0139 15.7279 60.0286 15.7297 60.031C16.1508 60.548 16.0733 61.3078 15.5564 61.729C15.3324 61.9115 15.0626 62.0006 14.7946 62.0006ZM31.6849 61.7345C31.2247 61.7345 30.7852 61.4702 30.5838 61.024C30.3098 60.4173 30.5789 59.7032 31.185 59.428C31.7832 59.1466 32.4973 59.3987 32.7854 59.995C33.0759 60.595 32.825 61.317 32.2244 61.6069L32.1811 61.6277C32.02 61.7003 31.8509 61.7345 31.6849 61.7345V61.7345ZM31.5842 60.3063L31.6843 60.5272L31.5842 60.3063ZM64.2984 61.267C63.7393 61.267 63.2364 60.8745 63.1162 60.3063C63.1143 60.2983 63.1095 60.2745 63.1082 60.2666C62.9831 59.6117 63.4122 58.9794 64.0671 58.8542C64.722 58.7291 65.3543 59.1582 65.4795 59.8131C65.618 60.4656 65.2005 61.1022 64.5481 61.2407C64.4644 61.2584 64.3808 61.267 64.2984 61.267V61.267ZM64.1617 66.068C63.6026 66.068 63.1003 65.6755 62.9795 65.1073C62.9776 65.0994 62.9734 65.0755 62.9715 65.0676C62.8464 64.4127 63.2761 63.7804 63.9304 63.6553C64.5859 63.5301 65.2176 63.9592 65.3433 64.6141C65.4813 65.266 65.0638 65.9032 64.412 66.0417C64.3277 66.0594 64.2441 66.068 64.1617 66.068V66.068ZM36.4096 60.9038C36.3675 60.9038 36.3242 60.9014 36.2808 60.8971C35.6211 60.8342 35.1328 60.2495 35.192 59.5879C35.2506 58.9244 35.8353 58.4313 36.4987 58.4923L36.5494 58.4978C37.2116 58.5753 37.6853 59.1753 37.6071 59.8375C37.5351 60.4521 37.0133 60.9038 36.4096 60.9038ZM12.6438 57.7129C12.0719 57.7129 11.5634 57.3046 11.4572 56.7217C11.3321 56.0668 11.7612 55.4314 12.4161 55.3063C13.0704 55.1799 13.7027 55.6084 13.8284 56.2633L13.8333 56.2895C13.9523 56.9457 13.5172 57.5737 12.8617 57.6933C12.7884 57.7068 12.7158 57.7129 12.6438 57.7129ZM62.2177 56.9365C61.854 56.9365 61.4945 56.7723 61.257 56.4604C61.2503 56.4507 61.2338 56.4287 61.2265 56.4189C60.839 55.8763 60.9647 55.1225 61.5073 54.735C62.0462 54.3498 62.7933 54.4713 63.1827 55.0035C63.5807 55.5351 63.4763 56.2895 62.9465 56.6905C62.7286 56.8566 62.4716 56.9365 62.2177 56.9365V56.9365ZM13.6246 53.1157C13.3853 53.1157 13.1436 53.0449 12.9337 52.8978C12.3898 52.5151 12.255 51.7681 12.6346 51.2224L12.6523 51.1974C13.0399 50.6554 13.7943 50.5297 14.3363 50.9172C14.8789 51.3048 15.0046 52.0586 14.617 52.6012L13.635 51.8993L14.6146 52.6048C14.379 52.9375 14.0042 53.1157 13.6246 53.1157ZM59.2984 53.0791C58.8889 53.0791 58.4891 52.8704 58.2627 52.495L58.245 52.4657C57.9087 51.8895 58.1034 51.1504 58.6795 50.8147C59.2557 50.4784 59.9948 50.6731 60.3305 51.2486C60.6748 51.8199 60.4911 52.5609 59.9204 52.9058C59.7251 53.0229 59.5102 53.0791 59.2984 53.0791V53.0791ZM17.1506 49.8198C16.7911 49.8198 16.4346 49.6599 16.1966 49.3541C15.7877 48.8274 15.8823 48.0693 16.4084 47.6598L16.4212 47.65C16.9473 47.2405 17.706 47.3351 18.1156 47.8618C18.5245 48.3879 18.4299 49.1466 17.9038 49.5555L17.8909 49.5659C17.6706 49.7368 17.4094 49.8198 17.1506 49.8198V49.8198ZM58.2212 48.4545C58.1803 48.4545 58.1381 48.4526 58.096 48.4484C57.4332 48.38 56.951 47.7867 57.0194 47.1239L57.0206 47.1074C57.089 46.4446 57.681 45.9624 58.3451 46.0301C59.0085 46.0985 59.4907 46.6912 59.4223 47.3546L59.4211 47.3711C59.357 47.9918 58.8327 48.4545 58.2212 48.4545V48.4545ZM20.6662 46.5111C20.4318 46.5111 20.195 46.4433 19.9869 46.3011C19.4388 45.9252 19.2948 45.1799 19.6683 44.63C19.6707 44.6257 19.6829 44.6086 19.6854 44.605C20.0669 44.0575 20.8194 43.9226 21.3663 44.3041C21.9132 44.6849 22.0481 45.4375 21.6672 45.9844L20.6766 45.2947L21.6648 45.988C21.4298 46.328 21.0507 46.5111 20.6662 46.5111ZM60.3446 44.2027C60.0736 44.2027 59.8014 44.1124 59.5761 43.9263C59.0622 43.5008 58.9902 42.7397 59.415 42.2264L60.3452 42.9955L59.4193 42.2209C59.841 41.704 60.6015 41.6265 61.1179 42.0476C61.6349 42.4687 61.7124 43.2286 61.2912 43.7456C61.2894 43.748 61.2772 43.7627 61.2754 43.7651C61.0367 44.0538 60.6919 44.2027 60.3446 44.2027V44.2027ZM21.4517 41.9121C20.9342 41.9121 20.4569 41.5776 20.2988 41.057C20.2976 41.0527 20.2921 41.0338 20.2909 41.0301C20.1035 40.3899 20.4709 39.7197 21.1106 39.5329C21.7502 39.3456 22.421 39.7124 22.6084 40.3526L21.4493 40.6914L22.6096 40.3575C22.7994 40.9953 22.4375 41.6692 21.8002 41.8608C21.6843 41.8956 21.5671 41.9121 21.4517 41.9121V41.9121ZM62.8232 40.0829C62.695 40.0829 62.5644 40.0627 62.4362 40.0188C61.8045 39.8052 61.4658 39.1197 61.6794 38.4886L62.8226 38.8756L61.6812 38.4831C61.8918 37.8514 62.5742 37.5078 63.2065 37.7165C63.8382 37.9253 64.1825 38.604 63.9749 39.2369C63.9737 39.2406 63.9676 39.2589 63.9664 39.2626C63.7961 39.7661 63.3267 40.0829 62.8232 40.0829V40.0829ZM18.779 37.9344C18.458 37.9344 18.1369 37.8069 17.8995 37.5536C17.4326 37.0775 17.4436 36.3164 17.9202 35.8495C18.3963 35.3832 19.1635 35.3942 19.6304 35.8702L19.6585 35.9001C20.1157 36.386 20.0919 37.1501 19.606 37.6067C19.3729 37.8258 19.0756 37.9344 18.779 37.9344ZM63.4635 35.2995C62.8134 35.2995 62.2776 34.7899 62.258 34.1356V34.1197C62.2379 33.4532 62.7628 32.8972 63.4287 32.8777C64.1007 32.8569 64.6518 33.3824 64.6713 34.0483C64.6909 34.7154 64.1666 35.2794 63.5001 35.2989C63.4879 35.2995 63.4757 35.2995 63.4635 35.2995V35.2995ZM15.5185 34.3541C15.1322 34.3541 14.7531 34.1692 14.52 33.8255C14.5181 33.8225 14.5072 33.8066 14.5053 33.8042C14.1355 33.2494 14.2856 32.4993 14.8404 32.13C15.3952 31.7601 16.1447 31.9103 16.5146 32.4645L15.51 33.1346L16.5183 32.47C16.8906 33.0223 16.7459 33.7731 16.1942 34.1466C15.9873 34.287 15.7517 34.3541 15.5185 34.3541ZM62.5894 30.5565C62.0957 30.5565 61.6342 30.2526 61.4578 29.7612L61.4505 29.7405C61.2277 29.1118 61.5573 28.4221 62.1854 28.1999C62.814 27.9765 63.5044 28.3067 63.7265 28.9348C63.9517 29.5622 63.6276 30.2587 63.0002 30.4845C62.8647 30.5333 62.7255 30.5565 62.5894 30.5565V30.5565ZM14.8911 29.7692C14.7379 29.7692 14.5816 29.7399 14.4309 29.6776C13.815 29.4231 13.5214 28.7175 13.776 28.1011C14.0219 27.4816 14.7232 27.1788 15.3433 27.4242C15.9628 27.6702 16.2656 28.3727 16.0196 28.9922C16.0178 28.9971 16.0098 29.0172 16.0074 29.0221C15.8158 29.4878 15.3653 29.7692 14.8911 29.7692ZM60.1346 26.4269C59.8136 26.4269 59.4925 26.2993 59.2551 26.046C59.2526 26.0442 59.2447 26.0356 59.2441 26.0344C58.7869 25.5486 58.8108 24.7844 59.2966 24.3279C59.7824 23.8713 60.5466 23.8951 61.0031 24.381L61.0141 24.3926C61.4713 24.8784 61.4475 25.6426 60.9616 26.0991C60.7285 26.3182 60.4312 26.4269 60.1346 26.4269ZM55.9476 24.2125C55.6259 24.2125 55.3049 24.0849 55.0675 23.8323C55.0656 23.8298 55.0571 23.8213 55.0565 23.8201C54.5999 23.3348 54.6237 22.5707 55.1096 22.1135C55.5954 21.657 56.359 21.6808 56.8161 22.1666L56.8271 22.1782C57.2837 22.664 57.2599 23.4282 56.774 23.8848C56.5409 24.1039 56.2442 24.2125 55.9476 24.2125V24.2125ZM18.0759 26.2071C17.6853 26.2071 17.3026 26.0185 17.07 25.6694C16.7002 25.1146 16.8503 24.3651 17.4051 23.9952C17.9581 23.626 18.7119 23.77 19.083 24.3212C19.4534 24.8729 19.3155 25.6157 18.7668 25.9892C18.7631 25.9917 18.7479 26.0015 18.7442 26.0045C18.5385 26.1412 18.3054 26.2071 18.0759 26.2071ZM55.9561 24.2015C55.8969 24.2015 55.8371 24.1973 55.7773 24.1881L55.9555 22.9936L55.7706 24.1869L55.9397 22.9918L56.1179 21.7973C56.7771 21.8962 57.2397 22.5115 57.1414 23.1713C57.0517 23.77 56.5433 24.2015 55.9561 24.2015V24.2015ZM51.1246 23.9678C51.1185 23.9678 51.1124 23.9678 51.1063 23.9678L51.0904 23.9671C50.4239 23.9574 49.8911 23.4093 49.9008 22.7428C49.9106 22.0818 50.4489 21.5526 51.1075 21.5526C51.1136 21.5526 51.1197 21.5532 51.1258 21.5532H51.1423C51.8088 21.563 52.341 22.1111 52.3313 22.7782C52.3215 23.4386 51.7832 23.9678 51.1246 23.9678V23.9678ZM22.3477 23.9446C21.8888 23.9446 21.4505 23.6797 21.2491 23.2323C20.9744 22.625 21.2491 21.9078 21.857 21.6332L21.893 21.6173C22.5058 21.3555 23.2157 21.6387 23.4781 22.2515C23.7406 22.8649 23.4567 23.5741 22.844 23.8365L22.3685 22.7269L22.8415 23.8378C22.681 23.9104 22.5131 23.9446 22.3477 23.9446ZM46.3541 23.8689C46.3425 23.8689 46.3303 23.8683 46.3181 23.8683L46.2851 23.8671C45.6192 23.8378 45.1023 23.2744 45.1316 22.6085C45.1602 21.942 45.7236 21.4269 46.3901 21.4543C47.0566 21.4745 47.5803 22.0305 47.5608 22.697C47.5418 23.3513 47.0047 23.8689 46.3541 23.8689ZM41.517 23.6382C41.4926 23.6382 41.4688 23.6376 41.4444 23.6363C41.4389 23.6357 41.417 23.6345 41.4108 23.6339C40.7462 23.5851 40.2469 23.0065 40.2957 22.3412C40.3446 21.6765 40.9262 21.1785 41.5878 21.2261C42.2537 21.2651 42.7609 21.8364 42.7219 22.5023C42.684 23.1432 42.1512 23.6382 41.517 23.6382ZM36.6886 23.2622C36.6525 23.2622 36.6171 23.2604 36.5811 23.2573L36.5476 23.2536C35.8841 23.1859 35.4019 22.5926 35.4703 21.9292C35.5387 21.2663 36.1307 20.7842 36.7948 20.8519C37.4588 20.9105 37.9489 21.4964 37.8903 22.1605C37.8348 22.7886 37.3075 23.2622 36.6886 23.2622ZM31.8668 22.805C31.8314 22.805 31.7954 22.8038 31.7594 22.8008L31.8656 21.5978L31.7557 22.8002C31.0941 22.744 30.5979 22.1636 30.6503 21.5013C30.7028 20.8391 31.276 20.3441 31.9382 20.3923C31.9437 20.3929 31.9657 20.3948 31.9718 20.3954C32.6358 20.454 33.1265 21.0399 33.068 21.704C33.013 22.332 32.4857 22.805 31.8668 22.805ZM27.0127 22.7043C26.3931 22.7043 25.8658 22.2301 25.8109 21.6014C25.7535 20.9374 26.2448 20.352 26.9095 20.2941C27.5742 20.2355 28.1668 20.7262 28.2254 21.3902C28.284 22.0543 27.8006 22.6396 27.1359 22.6982L27.1182 22.6994C27.0828 22.7031 27.0474 22.7043 27.0127 22.7043Z" fill="white"/>
</g>
<defs>
<clipPath id="clip0">
<rect width="80" height="80" fill="white" transform="translate(0 0.996094)"/>
</clipPath>
</defs>
</svg>
