<svg width="80" height="81" viewBox="0 0 80 81" fill="none" xmlns="http://www.w3.org/2000/svg">
<g clip-path="url(#clip0)">
<path d="M30.5847 72.2935L25.7519 75.2677L16.6675 80.8585C15.9271 81.3138 15.0342 80.5607 15.3601 79.7538L18.6279 71.6514L20.2887 67.5315L30.5847 72.2935Z" fill="#F56819"/>
<path d="M63.8147 80.8585L54.7986 75.3086L49.8999 72.2935L60.1953 67.5315L61.8921 71.7393L65.1239 79.7538C65.448 80.5607 64.5551 81.3138 63.8147 80.8585V80.8585Z" fill="#F56819"/>
<path d="M76.302 37.6564C76.302 57.5233 60.1967 73.6287 40.3297 73.6287C20.4628 73.6287 4.35742 57.5233 4.35742 37.6564C4.35742 17.7894 20.4628 1.68408 40.3297 1.68408C60.1967 1.68408 76.302 17.7894 76.302 37.6564V37.6564Z" fill="#FF9C65"/>
<path opacity="0.5" d="M20.2887 67.5315L30.5847 72.2935L25.752 75.2677C23.2452 74.296 20.8624 73.0808 18.6279 71.652L20.2887 67.5315Z" fill="#2A2C33"/>
<path opacity="0.5" d="M61.8921 71.7393C59.6655 73.1522 57.2925 74.351 54.7986 75.308L49.8999 72.2935L60.1953 67.5315L61.8921 71.7393Z" fill="#2A2C33"/>
<path d="M76.3023 37.6565C76.3023 57.5241 60.1969 73.6282 40.3294 73.6282C27.0219 73.6282 15.4038 66.4022 9.18066 55.6594C12.0438 57.3165 15.1542 58.5916 18.4446 59.4113C24.0342 65.0351 31.7753 68.5147 40.3294 68.5147C57.3716 68.5147 71.1881 54.6987 71.1881 37.6565C71.1881 29.1036 67.7079 21.3632 62.086 15.7754C61.2663 12.4832 59.9912 9.37097 58.3323 6.50781C69.0751 12.7291 76.3023 24.349 76.3023 37.6565V37.6565Z" fill="#F56819"/>
<path d="M71.1884 37.6561C71.1884 54.6984 57.3718 68.5143 40.3296 68.5143C31.7755 68.5143 24.0344 65.0347 18.4448 59.4109C21.2427 60.111 24.1705 60.4821 27.1838 60.4821C30.4645 60.4821 33.6432 60.0432 36.6632 59.2199C38.0273 59.486 39.4366 59.6251 40.8789 59.6251C53.0121 59.6251 62.8479 49.7893 62.8479 37.6561C62.8479 35.9014 62.6422 34.1942 62.2534 32.5573C62.8449 29.97 63.1574 27.2777 63.1574 24.5104C63.1574 21.4983 62.7863 18.571 62.0862 15.7744C67.7081 21.3628 71.1884 29.1033 71.1884 37.6561V37.6561Z" fill="#F8F9FB"/>
<path d="M63.1566 24.5103C63.1566 44.3778 47.0513 60.4819 27.1837 60.4819C24.1704 60.4819 21.2426 60.1109 18.4447 59.4108C12.899 53.8316 9.4707 46.1454 9.4707 37.656C9.4707 20.6138 23.2872 6.79785 40.3295 6.79785C48.8189 6.79785 56.5062 10.2256 62.0861 15.7749C62.7861 18.5709 63.1566 21.4988 63.1566 24.5103V24.5103Z" fill="white"/>
<path d="M62.8478 37.6564C62.8478 49.7896 53.012 59.6254 40.8788 59.6254C39.4365 59.6254 38.0272 59.4862 36.6631 59.2201C49.384 55.7545 59.2992 45.4835 62.2527 32.5581C62.6415 34.1945 62.8478 35.9016 62.8478 37.6564V37.6564Z" fill="#F56819"/>
<path d="M62.2526 32.5574C59.2997 45.4828 49.3845 55.7544 36.663 59.22C26.547 57.2547 18.9097 48.3472 18.9097 37.6563C18.9097 25.5231 28.7455 15.6873 40.8787 15.6873C51.2571 15.6873 59.954 22.8821 62.2526 32.5574Z" fill="#FF9C65"/>
<path d="M53.4751 37.6563C53.4751 44.9164 47.5895 50.802 40.3294 50.802C33.0692 50.802 27.1836 44.9164 27.1836 37.6563C27.1836 30.3961 33.0692 24.5105 40.3294 24.5105C47.5895 24.5105 53.4751 30.3961 53.4751 37.6563Z" fill="white"/>
<path d="M44.1329 37.6561C44.1329 39.7564 42.4301 41.4592 40.3298 41.4592C38.2296 41.4592 36.5273 39.7564 36.5273 37.6561C36.5273 35.5559 38.2296 33.853 40.3298 33.853C42.4301 33.853 44.1329 35.5559 44.1329 37.6561V37.6561Z" fill="#FF9C65"/>
<path d="M40.3295 38.8716C40.0182 38.8716 39.7075 38.7525 39.4701 38.5157L4.10568 3.15073C3.63144 2.67648 3.63144 1.90683 4.10568 1.43259C4.58054 0.958343 5.34958 0.958343 5.82443 1.43259L41.1888 36.797C41.6631 37.2718 41.6631 38.0409 41.1888 38.5157C40.9514 38.7525 40.6401 38.8716 40.3295 38.8716Z" fill="#FFEE92"/>
<path d="M9.45716 7.90039H4.98328C4.31189 7.90039 3.76807 7.35657 3.76807 6.68518C3.76807 6.01441 4.31189 5.47058 4.98328 5.47058H8.24256V2.2113C8.24256 1.53992 8.78638 0.996094 9.45716 0.996094C10.1285 0.996094 10.6724 1.53992 10.6724 2.2113V6.68579C10.6724 7.35657 10.1285 7.90039 9.45716 7.90039Z" fill="#FFEE92"/>
<path d="M13.2443 11.688H8.22351C7.55273 11.688 7.0083 11.1436 7.0083 10.4728C7.0083 9.80139 7.55212 9.25757 8.22351 9.25757H12.0297V5.45203C12.0297 4.78064 12.5735 4.23682 13.2449 4.23682C13.9157 4.23682 14.4595 4.78064 14.4595 5.45203V10.4728C14.4595 11.1436 13.9157 11.688 13.2443 11.688Z" fill="#FFEE92"/>
</g>
<defs>
<clipPath id="clip0">
<rect width="80" height="80" fill="white" transform="translate(0 0.996094)"/>
</clipPath>
</defs>
</svg>
