<svg width="248" height="161" viewBox="0 0 248 161" fill="none" xmlns="http://www.w3.org/2000/svg">
<path opacity="0.5" d="M15.5525 108.785L6.81004 112.568L9.77618 151.716C10.0317 155.098 13.4977 157.225 16.5774 155.895C18.5191 155.056 19.707 153.049 19.5294 150.92L18.7514 141.716L27.9251 137.745L34.0661 144.671C35.4647 146.25 37.7037 146.751 39.6289 145.918L39.7961 145.846C42.8802 144.513 43.7546 140.505 41.5079 137.979L15.5525 108.785ZM17.7529 132.432L17.2009 125.238L21.9674 130.607L17.7529 132.432Z" fill="#F66819"/>
<path d="M226.321 0.0649414C228.405 0.234206 232.477 1.09233 236.221 2.17484C240.802 3.5014 243.481 4.76105 245.488 6.90638C247.451 8.82339 248.478 11.6025 247.619 14.6414C246.775 17.633 244.263 19.9279 240.125 20.2389L240.098 20.3373C243.594 22.4826 245.585 26.1868 244.36 30.5247C243.501 33.5675 241.447 35.5593 238.9 36.6576C235.937 37.9054 231.59 37.8306 224.987 35.9215C221.293 34.8508 218.606 33.8037 217 33.0715L226.321 0.0649414ZM230.128 15.0823L232.589 15.7947C236.528 16.9363 239.114 15.901 239.818 13.4093C240.538 10.8664 238.994 8.9651 235.595 7.981C233.97 7.50864 233.005 7.33938 232.337 7.25278L230.128 15.0823ZM225.92 29.9893C226.632 30.3042 227.519 30.5601 228.798 30.9301C232.197 31.9142 235.568 31.4852 236.567 27.9463C237.524 24.5571 234.899 22.3409 231.158 21.2584L228.596 20.5184L225.92 29.9893Z" fill="#96D9C9"/>
<path d="M158.768 117.591C159.826 119.181 159.445 121.348 157.887 122.441C156.433 123.459 154.513 124.567 152.198 125.569C140.155 130.773 130.758 125.871 126.528 115.825C121.46 103.791 127.115 93.4321 137.658 88.8758C139.752 87.9698 141.677 87.3997 143.287 87.0719C145.225 86.6782 147.091 88.0142 147.389 89.9913L147.407 90.1151C147.686 91.9685 146.487 93.7395 144.668 94.0986C143.474 94.3351 142.174 94.7189 140.795 95.3109C134.543 98.0139 131.293 103.933 134.598 111.78C137.574 118.843 143.582 121.5 150.611 118.463C151.781 117.957 152.959 117.296 154.008 116.605C155.587 115.555 157.711 116.005 158.768 117.591Z" fill="#0268AD" fill-opacity="0.46"/>
</svg>
