<svg width="1425" height="227" viewBox="0 0 1425 227" fill="none" xmlns="http://www.w3.org/2000/svg">
<g opacity="0.9">
<path d="M137.137 50.5625C137.137 35.263 130.431 26.3112 117.02 23.707C103.608 21.1029 90.0664 19.8008 76.3945 19.8008H56.1797V83.1797H82.3516C96.349 83.1797 108.979 81.6497 120.242 78.5898C131.505 75.4648 137.137 66.1224 137.137 50.5625ZM160.184 52.0273C160.184 74.5534 151.525 88.0625 134.207 92.5547C116.954 96.9818 97.944 99.1953 77.1758 99.1953H56.1797V152.809H85.9648C88.4388 152.809 90.2292 153.72 91.3359 155.543C92.4427 157.301 92.9961 159.384 92.9961 161.793C92.9961 163.941 92.3451 165.862 91.043 167.555C89.806 169.182 88.0482 169.996 85.7695 169.996H7.74219C5.46354 169.996 3.67318 169.182 2.37109 167.555C1.13411 165.862 0.515625 163.941 0.515625 161.793C0.515625 159.384 1.06901 157.301 2.17578 155.543C3.28255 153.72 5.07292 152.809 7.54688 152.809H33.3281V19.8008H9.59766C7.1237 19.8008 5.33333 18.9219 4.22656 17.1641C3.11979 15.3411 2.56641 13.2253 2.56641 10.8164C2.56641 8.66797 3.1849 6.77995 4.42188 5.15234C5.72396 3.45964 7.51432 2.61328 9.79297 2.61328H73.5625C95.3073 2.61328 115.164 5.02214 133.133 9.83984C151.167 14.6576 160.184 28.7201 160.184 52.0273Z" fill="#F8F9FB"/>
<path d="M253.25 71.7539C245.438 71.7539 238.471 73.4792 232.352 76.9297C226.232 80.3802 221.577 84.4818 218.387 89.2344V152.809H244.559C247.033 152.809 248.823 153.72 249.93 155.543C251.036 157.301 251.59 159.384 251.59 161.793C251.59 163.941 250.939 165.862 249.637 167.555C248.4 169.182 246.642 169.996 244.363 169.996H179.812C177.078 169.996 175.06 169.215 173.758 167.652C172.456 166.09 171.805 164.072 171.805 161.598C171.805 159.189 172.391 157.138 173.562 155.445C174.799 153.688 176.688 152.809 179.227 152.809H198.367V74.3906L184.402 77.8086C184.272 77.8737 184.077 77.9388 183.816 78.0039C183.621 78.0039 183.361 78.0039 183.035 78.0039C181.082 78.0039 179.259 77.2227 177.566 75.6602C175.874 74.0326 175.027 72.2096 175.027 70.1914C175.027 67.9779 175.483 66.2201 176.395 64.918C177.371 63.5508 178.771 62.5742 180.594 61.9883L207.84 54.1758C208.1 54.1758 208.263 54.1432 208.328 54.0781C208.393 54.013 208.556 53.9805 208.816 53.9805H209.402C210.77 53.9805 211.941 54.4036 212.918 55.25C213.895 56.0312 214.383 57.138 214.383 58.5703L216.434 77.0273C220.926 70.1914 226.818 64.6576 234.109 60.4258C241.466 56.1289 250.841 53.9805 262.234 53.9805C264.383 53.9805 266.271 54.6315 267.898 55.9336C269.591 57.1706 270.438 58.9284 270.438 61.207V82.0078C270.438 84.7422 269.656 86.7604 268.094 88.0625C266.531 89.3646 264.513 90.0156 262.039 90.0156C259.63 90.0156 257.547 89.4297 255.789 88.2578C254.096 87.0208 253.25 85.1328 253.25 82.5938V71.7539Z" fill="#F8F9FB"/>
<path d="M303.348 115.406C303.348 128.167 307.319 137.9 315.262 144.605C323.27 151.246 333.1 154.566 344.754 154.566C353.022 154.566 359.5 153.036 364.188 149.977C368.94 146.852 373.465 143.303 377.762 139.332C378.738 138.486 379.78 137.867 380.887 137.477C381.993 137.021 383.1 136.793 384.207 136.793C386.811 136.793 389.025 137.607 390.848 139.234C392.671 140.797 393.582 142.913 393.582 145.582C393.582 153.915 387.527 160.491 375.418 165.309C363.374 170.061 352.892 172.438 343.973 172.438C326.134 172.438 311.421 167.164 299.832 156.617C288.309 146.005 282.547 131.747 282.547 113.844C282.547 96.1354 287.853 81.7474 298.465 70.6797C309.077 59.5469 323.465 53.9805 341.629 53.9805C354.65 53.9805 366.531 58.5052 377.273 67.5547C388.016 76.5391 393.387 88.1602 393.387 102.418C393.387 107.301 391.857 110.23 388.797 111.207C385.802 112.184 381.993 112.9 377.371 113.355L303.348 115.406ZM368.875 96.168C368.875 86.8581 366.01 80.2826 360.281 76.4414C354.617 72.5352 348.4 70.582 341.629 70.582C330.171 70.582 321.056 73.4141 314.285 79.0781C307.579 84.7422 303.803 92.2617 302.957 101.637L361.648 100.367C363.471 100.302 365.132 99.9766 366.629 99.3906C368.126 98.7396 368.875 97.6654 368.875 96.168Z" fill="#F8F9FB"/>
<path d="M518.875 113.16C518.875 101.637 515.978 91.6758 510.184 83.2773C504.454 74.8138 495.958 70.582 484.695 70.582C476.102 70.582 468.68 72.2096 462.43 75.4648C456.245 78.7201 451.199 82.8867 447.293 87.9648V142.359C451.395 146.461 456.505 149.749 462.625 152.223C468.81 154.632 475.971 155.836 484.109 155.836C495.503 155.836 504.129 151.604 509.988 143.141C515.913 134.612 518.875 124.618 518.875 113.16ZM540.457 113.16C540.457 130.478 535.346 144.703 525.125 155.836C514.904 166.904 501.232 172.438 484.109 172.438C476.102 172.438 469.103 171.233 463.113 168.824C457.189 166.415 451.915 163.258 447.293 159.352V208.961H467.02C469.493 208.961 471.284 209.872 472.391 211.695C473.497 213.518 474.051 215.634 474.051 218.043C474.051 220.191 473.4 222.079 472.098 223.707C470.861 225.335 469.103 226.148 466.824 226.148H415.652C412.918 226.148 410.9 225.367 409.598 223.805C408.296 222.242 407.645 220.224 407.645 217.75C407.645 215.341 408.23 213.258 409.402 211.5C410.639 209.807 412.527 208.961 415.066 208.961H427.273V74.3906L413.309 77.8086C413.178 77.8737 412.983 77.9388 412.723 78.0039C412.462 78.0039 412.169 78.0039 411.844 78.0039C409.891 78.0039 408.068 77.2227 406.375 75.6602C404.682 74.0326 403.836 72.2096 403.836 70.1914C403.836 67.9779 404.324 66.2201 405.301 64.918C406.277 63.5508 407.677 62.5742 409.5 61.9883L436.648 54.1758C436.909 54.1758 437.072 54.1432 437.137 54.0781C437.202 54.013 437.365 53.9805 437.625 53.9805H438.309C439.676 53.9805 440.848 54.4036 441.824 55.25C442.801 56.0312 443.289 57.138 443.289 58.5703L445.242 77.0273C448.367 70.3867 453.576 64.8854 460.867 60.5234C468.159 56.1615 476.557 53.9805 486.062 53.9805C503.12 53.9805 516.434 59.5794 526.004 70.7773C535.639 81.9102 540.457 96.0378 540.457 113.16Z" fill="#F8F9FB"/>
<path d="M626.004 15.6016C610.379 15.6016 600.027 18.5638 594.949 24.4883C589.871 30.3477 587.332 36.9557 587.332 44.3125C587.332 50.6276 589.513 55.7383 593.875 59.6445C598.302 63.4857 604.878 66.4805 613.602 68.6289L641.629 75.5625C654.454 78.7526 664.904 83.9935 672.977 91.2852C681.049 98.5117 685.086 109.84 685.086 125.27C685.086 142.132 678.413 154.241 665.066 161.598C651.72 168.954 636.518 172.633 619.461 172.633C612.56 172.633 605.496 171.721 598.27 169.898C591.043 168.076 584.305 165.016 578.055 160.719C577.794 162.932 577.111 165.439 576.004 168.238C574.897 171.038 573.237 172.438 571.023 172.438C568.68 172.438 566.792 171.949 565.359 170.973C563.927 169.996 563.081 168.401 562.82 166.188L557.254 117.75C557.254 115.146 558.035 113.225 559.598 111.988C561.16 110.686 563.504 110.035 566.629 110.035C568.582 110.035 570.307 110.621 571.805 111.793C573.302 112.9 574.181 114.43 574.441 116.383L576.004 129.957C576.655 136.012 581.147 141.773 589.48 147.242C597.814 152.646 606.993 155.348 617.02 155.348C628.152 155.348 638.927 153.362 649.344 149.391C659.826 145.419 665.066 137.346 665.066 125.172C665.066 116.383 662.397 110.263 657.059 106.812C651.785 103.362 645.503 100.595 638.211 98.5117L606.18 89.4297C594.526 86.8255 584.858 82.2031 577.176 75.5625C569.559 68.8568 565.75 58.9609 565.75 45.875C565.75 31.6172 571.316 20.4518 582.449 12.3789C593.647 4.24089 607.091 0.171875 622.781 0.171875C629.552 0.171875 636.486 1.01823 643.582 2.71094C650.743 4.40365 656.668 7.20312 661.355 11.1094C661.355 8.375 662.202 5.90104 663.895 3.6875C665.652 1.40885 667.866 0.269531 670.535 0.269531C672.488 0.269531 674.214 0.855469 675.711 2.02734C677.208 3.19922 678.087 4.76172 678.348 6.71484L679.031 45.4844C679.031 48.2839 678.185 50.3346 676.492 51.6367C674.799 52.8737 672.651 53.4922 670.047 53.4922C667.768 53.4922 665.88 53.0039 664.383 52.0273C662.951 51.0508 662.104 49.4883 661.844 47.3398L661.453 36.0117C660.607 28.6549 656.57 23.4141 649.344 20.2891C642.117 17.1641 634.337 15.6016 626.004 15.6016Z" fill="#F8F9FB"/>
<path d="M767.117 53.9805C776.948 53.9805 786.388 55.9987 795.438 60.0352C804.552 64.0065 809.109 72.0794 809.109 84.2539C809.109 88.0951 808.361 91.3503 806.863 94.0195C805.366 96.6237 802.957 97.9258 799.637 97.9258C794.754 97.9258 791.629 95.0938 790.262 89.4297C788.895 83.7005 787.592 78.2318 786.355 73.0234C783.165 72.1771 780.008 71.5586 776.883 71.168C773.823 70.7773 770.796 70.582 767.801 70.582C755.236 70.582 744.721 74.2604 736.258 81.6172C727.794 88.9089 723.562 98.9674 723.562 111.793C723.562 125.66 727.697 136.012 735.965 142.848C744.298 149.618 753.771 153.004 764.383 153.004C769.917 153.004 775.483 151.962 781.082 149.879C786.681 147.73 791.792 144.605 796.414 140.504C797.326 139.723 798.302 139.104 799.344 138.648C800.385 138.193 801.46 137.965 802.566 137.965C805.236 137.965 807.449 138.648 809.207 140.016C811.03 141.318 811.941 143.173 811.941 145.582C811.941 153.915 806.342 160.491 795.145 165.309C783.947 170.061 774.083 172.438 765.555 172.438C746.87 172.438 731.57 167.066 719.656 156.324C707.807 145.517 701.883 130.673 701.883 111.793C701.883 93.3034 708.361 79.0456 721.316 69.0195C734.337 58.9935 749.604 53.9805 767.117 53.9805Z" fill="#F8F9FB"/>
<path d="M899.441 70.582C892.02 70.582 885.411 72.8281 879.617 77.3203C873.888 81.7474 869.363 86.6302 866.043 91.9688V152.809H882.059C884.598 152.809 886.225 153.688 886.941 155.445C887.658 157.138 888.016 159.189 888.016 161.598C888.016 163.551 887.495 165.439 886.453 167.262C885.411 169.085 883.882 169.996 881.863 169.996H834.109C831.31 169.996 829.357 169.28 828.25 167.848C827.208 166.35 826.688 164.332 826.688 161.793C826.688 159.384 827.176 157.301 828.152 155.543C829.129 153.72 830.887 152.809 833.426 152.809H846.023V21.168L823.074 27.2227C822.814 27.2227 822.651 27.2552 822.586 27.3203C822.521 27.3854 822.358 27.418 822.098 27.418C820.079 27.418 818.289 26.5391 816.727 24.7812C815.099 22.9583 814.285 21.0378 814.285 19.0195C814.285 16.2201 815.034 14.3971 816.531 13.5508C817.964 12.6393 819.754 11.8581 821.902 11.207L859.5 0.367188C859.63 0.302083 859.793 0.269531 859.988 0.269531C860.249 0.204427 860.542 0.171875 860.867 0.171875C862.234 0.171875 863.439 0.627604 864.48 1.53906C865.522 2.38542 866.043 3.52474 866.043 4.95703V71.9492C869.819 67.457 874.93 63.3555 881.375 59.6445C887.82 55.8685 895.047 53.9805 903.055 53.9805C915.229 53.9805 924.897 57.5612 932.059 64.7227C939.285 71.8841 942.898 81.5846 942.898 93.8242V152.809H958.816C961.355 152.809 962.983 153.688 963.699 155.445C964.48 157.138 964.871 159.189 964.871 161.598C964.871 163.551 964.318 165.439 963.211 167.262C962.169 169.085 960.639 169.996 958.621 169.996H910.867C908.068 169.996 906.115 169.28 905.008 167.848C903.966 166.35 903.445 164.332 903.445 161.793C903.445 159.384 903.934 157.301 904.91 155.543C905.952 153.72 907.742 152.809 910.281 152.809H923.074V95.582C923.074 87.8346 921.089 81.7474 917.117 77.3203C913.211 72.8281 907.319 70.582 899.441 70.582Z" fill="#F8F9FB"/>
<path d="M1035.57 70.582C1023.2 70.582 1013.6 74.5859 1006.77 82.5938C999.995 90.6016 996.609 100.79 996.609 113.16C996.609 125.595 999.995 135.816 1006.77 143.824C1013.6 151.832 1023.2 155.836 1035.57 155.836C1047.62 155.836 1056.93 151.767 1063.5 143.629C1070.08 135.491 1073.37 125.335 1073.37 113.16C1073.37 100.986 1070.08 90.862 1063.5 82.7891C1056.93 74.651 1047.62 70.582 1035.57 70.582ZM1035.57 172.438C1017.54 172.438 1002.92 167.066 991.727 156.324C980.529 145.582 974.93 131.194 974.93 113.16C974.93 95.0612 980.529 80.6732 991.727 69.9961C1002.99 59.319 1017.61 53.9805 1035.57 53.9805C1053.28 53.9805 1067.61 59.4167 1078.54 70.2891C1089.48 81.0964 1094.95 95.3867 1094.95 113.16C1094.95 130.934 1089.48 145.257 1078.54 156.129C1067.61 167.001 1053.28 172.438 1035.57 172.438Z" fill="#F8F9FB"/>
<path d="M1152.37 0.5625C1153.74 0.5625 1154.94 1.01823 1155.98 1.92969C1157.03 2.77604 1157.55 3.91536 1157.55 5.34766V152.809H1181.38C1183.85 152.809 1185.64 153.72 1186.75 155.543C1187.85 157.301 1188.41 159.384 1188.41 161.793C1188.41 163.941 1187.76 165.862 1186.45 167.555C1185.22 169.182 1183.46 169.996 1181.18 169.996H1115.95C1113.21 169.996 1111.19 169.215 1109.89 167.652C1108.59 166.09 1107.94 164.072 1107.94 161.598C1107.94 159.189 1108.52 157.138 1109.7 155.445C1110.93 153.688 1112.82 152.809 1115.36 152.809H1137.53V21.5586L1114.58 27.6133C1114.32 27.6133 1114.15 27.6458 1114.09 27.7109C1114.02 27.776 1113.86 27.8086 1113.6 27.8086C1111.58 27.8086 1109.76 26.9297 1108.13 25.1719C1106.57 23.349 1105.79 21.4284 1105.79 19.4102C1105.79 16.6107 1106.51 14.7878 1107.94 13.9414C1109.43 13.0299 1111.26 12.2487 1113.41 11.5977L1151 0.757812C1151.13 0.692708 1151.3 0.660156 1151.49 0.660156C1151.75 0.595052 1152.05 0.5625 1152.37 0.5625Z" fill="#F8F9FB"/>
<path d="M1322.29 153.59C1322.29 158.798 1318.84 163.258 1311.94 166.969C1305.04 170.615 1299.38 172.438 1294.95 172.438C1289.61 172.438 1285.31 171.135 1282.06 168.531C1278.8 165.927 1276.59 161.956 1275.42 156.617C1270.67 162.086 1264.45 166.155 1256.77 168.824C1249.08 171.428 1240.88 172.73 1232.16 172.73C1222.2 172.73 1213.86 169.703 1207.16 163.648C1200.52 157.594 1197.2 149.716 1197.2 140.016C1197.2 122.568 1205.72 111.891 1222.78 107.984C1239.84 104.078 1256.51 101.409 1272.78 99.9766V84.1562C1272.78 79.0781 1270.6 75.5625 1266.24 73.6094C1261.88 71.5911 1257.19 70.582 1252.18 70.582C1243.06 70.582 1236.13 71.5586 1231.38 73.5117C1226.69 75.4648 1221.22 78.4271 1214.97 82.3984C1214.38 82.724 1213.8 82.9844 1213.21 83.1797C1212.69 83.375 1212.14 83.4727 1211.55 83.4727C1209.34 83.4727 1207.35 82.431 1205.59 80.3477C1203.84 78.2643 1202.96 76.0833 1202.96 73.8047C1202.96 65.9922 1208.65 60.7513 1220.05 58.082C1231.51 55.3477 1241.27 53.9805 1249.34 53.9805C1265.82 53.9805 1277.08 57.4961 1283.13 64.5273C1289.19 71.4935 1292.21 83.1146 1292.21 99.3906V148.609C1292.21 150.628 1292.54 152.32 1293.19 153.688C1293.91 154.99 1295.01 155.641 1296.51 155.641C1299.44 155.641 1302.73 153.883 1306.38 150.367C1310.02 146.852 1313.02 145.094 1315.36 145.094C1316.79 145.094 1318.29 146.07 1319.85 148.023C1321.48 149.911 1322.29 151.767 1322.29 153.59ZM1272.78 114.625C1262.49 115.732 1250.81 117.424 1237.72 119.703C1224.7 121.917 1218.19 128.492 1218.19 139.43C1218.19 144.964 1220.24 149.098 1224.34 151.832C1228.45 154.501 1233.33 155.836 1238.99 155.836C1245.76 155.836 1251.95 154.599 1257.55 152.125C1263.21 149.586 1268.29 146.559 1272.78 143.043V114.625Z" fill="#F8F9FB"/>
<path d="M1407.16 71.7539C1399.34 71.7539 1392.38 73.4792 1386.26 76.9297C1380.14 80.3802 1375.48 84.4818 1372.29 89.2344V152.809H1398.46C1400.94 152.809 1402.73 153.72 1403.84 155.543C1404.94 157.301 1405.5 159.384 1405.5 161.793C1405.5 163.941 1404.85 165.862 1403.54 167.555C1402.31 169.182 1400.55 169.996 1398.27 169.996H1333.72C1330.98 169.996 1328.97 169.215 1327.66 167.652C1326.36 166.09 1325.71 164.072 1325.71 161.598C1325.71 159.189 1326.3 157.138 1327.47 155.445C1328.71 153.688 1330.59 152.809 1333.13 152.809H1352.27V74.3906L1338.31 77.8086C1338.18 77.8737 1337.98 77.9388 1337.72 78.0039C1337.53 78.0039 1337.27 78.0039 1336.94 78.0039C1334.99 78.0039 1333.17 77.2227 1331.47 75.6602C1329.78 74.0326 1328.93 72.2096 1328.93 70.1914C1328.93 67.9779 1329.39 66.2201 1330.3 64.918C1331.28 63.5508 1332.68 62.5742 1334.5 61.9883L1361.75 54.1758C1362.01 54.1758 1362.17 54.1432 1362.23 54.0781C1362.3 54.013 1362.46 53.9805 1362.72 53.9805H1363.31C1364.68 53.9805 1365.85 54.4036 1366.82 55.25C1367.8 56.0312 1368.29 57.138 1368.29 58.5703L1370.34 77.0273C1374.83 70.1914 1380.72 64.6576 1388.02 60.4258C1395.37 56.1289 1404.75 53.9805 1416.14 53.9805C1418.29 53.9805 1420.18 54.6315 1421.8 55.9336C1423.5 57.1706 1424.34 58.9284 1424.34 61.207V82.0078C1424.34 84.7422 1423.56 86.7604 1422 88.0625C1420.44 89.3646 1418.42 90.0156 1415.95 90.0156C1413.54 90.0156 1411.45 89.4297 1409.7 88.2578C1408 87.0208 1407.16 85.1328 1407.16 82.5938V71.7539Z" fill="#F8F9FB"/>
</g>
</svg>
