<svg width="409" height="427" viewBox="0 0 409 427" fill="none" xmlns="http://www.w3.org/2000/svg">
<path opacity="0.2" d="M225.641 366.67C207.061 342.334 211.728 307.544 236.065 288.965L569.203 34.6348C593.539 16.0556 628.329 20.7226 646.908 45.0589C665.487 69.3952 660.82 104.185 636.484 122.764L303.346 377.094C279.01 395.673 244.22 391.006 225.641 366.67Z" fill="#FFCAAC"/>
<path opacity="0.2" d="M42.6661 398.602C19.4183 368.15 25.2581 324.619 55.7095 301.371L389.886 46.248C420.337 23.0003 463.869 28.84 487.117 59.2915C510.365 89.7429 504.525 133.275 474.074 156.522L139.897 411.645C109.446 434.893 65.9138 429.053 42.6661 398.602Z" fill="#B6F1FF"/>
</svg>
