<svg width="334" height="316" viewBox="0 0 334 316" fill="none" xmlns="http://www.w3.org/2000/svg">
<path opacity="0.2" d="M18.0771 26.1289C17.895 25.1368 16.0183 22.3313 18.2848 17.1279C19.2248 15.0012 19.9745 13.2227 19.5265 11.6882C18.759 9.04378 15.7252 9.414 13.3761 10.8743C12.162 11.6319 10.5606 11.259 9.76875 10.0592C8.9638 8.83687 9.28052 7.204 10.4819 6.3806C11.7925 5.48037 13.4652 4.63544 15.4225 4.07208C21.3485 2.37194 25.0005 4.88861 26.0851 8.63144C27.0802 12.0604 25.6228 14.9206 24.468 17.3023C22.5239 21.3218 23.9301 23.6012 24.0515 24.409L18.0771 26.1289ZM18.7181 32.6861C18.0259 30.2949 19.1906 28.1056 21.5222 27.4353C23.9467 26.7409 26.0168 28.0029 26.7561 30.3795C27.4385 32.7247 26.3326 34.9485 23.9049 35.6448C21.5243 36.3265 19.3973 35.0331 18.7181 32.6861Z" fill="#F56819"/>
<path opacity="0.2" d="M15.3171 302.604C15.1038 301.442 12.9057 298.156 15.5604 292.062C16.6614 289.571 17.5395 287.488 17.0148 285.69C16.1158 282.593 12.5623 283.026 9.81086 284.737C8.38875 285.624 6.51303 285.188 5.5856 283.782C4.64277 282.351 5.01373 280.438 6.42087 279.473C7.95596 278.419 9.91516 277.429 12.2077 276.77C19.1488 274.778 23.4264 277.726 24.6967 282.11C25.8624 286.126 24.1553 289.476 22.8026 292.266C20.5256 296.974 22.1727 299.644 22.3149 300.59L15.3171 302.604ZM16.0679 310.285C15.2572 307.484 16.6213 304.92 19.3523 304.135C22.1921 303.321 24.6168 304.799 25.4827 307.583C26.282 310.33 24.9867 312.935 22.1431 313.75C19.3548 314.549 16.8635 313.034 16.0679 310.285Z" fill="#466EB6"/>
<path opacity="0.2" d="M304.685 255.038C304.694 254.029 303.385 250.918 306.6 246.241C307.927 244.331 309.001 242.728 308.853 241.136C308.602 238.394 305.553 238.181 302.97 239.168C301.634 239.681 300.132 239.01 299.583 237.682C299.025 236.329 299.647 234.786 300.983 234.206C302.44 233.571 304.243 233.06 306.272 232.879C312.413 232.336 315.52 235.501 315.873 239.382C316.198 242.938 314.224 245.469 312.637 247.587C309.964 251.164 310.911 253.669 310.877 254.485L304.685 255.038ZM304.067 261.597C303.842 259.118 305.402 257.19 307.818 256.976C310.331 256.755 312.123 258.387 312.397 260.861C312.621 263.293 311.113 265.266 308.597 265.488C306.13 265.705 304.288 264.031 304.067 261.597Z" fill="#F56819"/>
<path opacity="0.2" d="M314.127 56.2239C314.113 55.2154 312.73 52.1361 315.833 47.3837C317.115 45.4435 318.15 43.815 317.965 42.2273C317.649 39.4919 314.596 39.3509 312.036 40.3989C310.713 40.9435 309.196 40.3086 308.615 38.9935C308.026 37.6541 308.61 36.0969 309.932 35.4854C311.374 34.8164 313.165 34.2623 315.188 34.0333C321.315 33.3454 324.496 36.436 324.941 40.3073C325.351 43.8541 323.436 46.4312 321.901 48.5869C319.313 52.2258 320.32 54.7079 320.305 55.5247L314.127 56.2239ZM313.665 62.7962C313.382 60.323 314.895 58.3587 317.306 58.0867C319.812 57.8063 321.643 59.396 321.975 61.8626C322.257 64.2888 320.796 66.2969 318.286 66.5786C315.825 66.8537 313.944 65.2237 313.665 62.7962Z" fill="#52B7A0"/>
</svg>
