<svg width="1091" height="236" viewBox="0 0 1091 236" fill="none" xmlns="http://www.w3.org/2000/svg">
<path opacity="0.2" d="M971.222 154.75C972.253 153.256 973.435 147.298 982.94 143.56C986.842 142.05 990.059 140.741 991.442 138.218C993.83 133.877 989.498 130.487 984.651 129.356C982.142 128.776 980.579 126.263 981.098 123.729C981.629 121.149 984.11 119.474 986.686 119.955C989.499 120.477 992.703 121.531 995.911 123.304C1005.61 128.681 1007.06 136.531 1003.68 142.674C1000.58 148.304 995.087 150.089 990.586 151.65C982.998 154.291 981.887 158.981 981.013 160.164L971.222 154.75ZM963.694 163.91C965.856 159.986 970.124 158.682 973.944 160.796C977.913 162.998 978.941 167.238 976.858 171.203C974.742 175.055 970.505 176.478 966.53 174.275C962.633 172.113 961.572 167.761 963.694 163.91Z" fill="#466EB6"/>
<path opacity="0.2" d="M184.533 160.021C184.205 158.236 180.828 153.187 184.907 143.823C186.599 139.996 187.948 136.795 187.142 134.034C185.76 129.275 180.301 129.941 176.073 132.569C173.888 133.933 171.007 133.262 169.582 131.102C168.133 128.903 168.703 125.964 170.865 124.483C173.224 122.863 176.234 121.342 179.756 120.328C190.42 117.269 196.992 121.798 198.944 128.533C200.735 134.704 198.112 139.851 196.034 144.137C192.536 151.37 195.066 155.472 195.285 156.926L184.533 160.021ZM185.687 171.821C184.441 167.518 186.537 163.578 190.733 162.372C195.096 161.122 198.821 163.393 200.152 167.67C201.38 171.891 199.39 175.892 195.021 177.146C190.737 178.372 186.909 176.045 185.687 171.821Z" fill="#466EB6"/>
<path opacity="0.2" d="M13.0771 36.129C12.895 35.1369 11.0183 32.3314 13.2848 27.128C14.2248 25.0013 14.9745 23.2228 14.5265 21.6883C13.759 19.0439 10.7252 19.4141 8.37611 20.8744C7.16197 21.6321 5.56056 21.2591 4.76875 20.0593C3.9638 18.837 4.28052 17.2041 5.48188 16.3807C6.79247 15.4805 8.46516 14.6356 10.4225 14.0722C16.3485 12.3721 20.0005 14.8887 21.0851 18.6316C22.0802 22.0605 20.6228 24.9207 19.468 27.3024C17.5239 31.3219 18.9301 33.6013 19.0515 34.4092L13.0771 36.129ZM13.7181 42.6862C13.0259 40.295 14.1906 38.1057 16.5222 37.4355C18.9467 36.741 21.0168 38.003 21.7561 40.3796C22.4385 42.7248 21.3326 44.9486 18.9049 45.6449C16.5243 46.3266 14.3973 45.0333 13.7181 42.6862Z" fill="#F56819"/>
<path opacity="0.2" d="M670.685 201.038C670.694 200.029 669.385 196.918 672.6 192.241C673.927 190.332 675.001 188.728 674.853 187.136C674.602 184.394 671.553 184.181 668.97 185.168C667.634 185.681 666.132 185.01 665.583 183.682C665.025 182.329 665.647 180.786 666.983 180.206C668.44 179.571 670.243 179.06 672.272 178.879C678.413 178.336 681.52 181.502 681.873 185.382C682.198 188.938 680.224 191.469 678.637 193.587C675.964 197.164 676.911 199.669 676.877 200.485L670.685 201.038ZM670.067 207.598C669.842 205.118 671.402 203.19 673.818 202.976C676.331 202.755 678.123 204.387 678.397 206.861C678.621 209.293 677.113 211.266 674.597 211.488C672.13 211.705 670.288 210.031 670.067 207.598Z" fill="#F56819"/>
<path opacity="0.2" d="M1071.13 25.2239C1071.11 24.2154 1069.73 21.1361 1072.83 16.3837C1074.11 14.4435 1075.15 12.815 1074.96 11.2273C1074.65 8.49189 1071.6 8.3509 1069.04 9.39895C1067.71 9.94345 1066.2 9.30863 1065.62 7.99354C1065.03 6.6541 1065.61 5.09692 1066.93 4.48544C1068.37 3.81642 1070.16 3.26232 1072.19 3.03332C1078.32 2.34541 1081.5 5.43596 1081.94 9.30726C1082.35 12.8541 1080.44 15.4312 1078.9 17.5869C1076.31 21.2258 1077.32 23.7079 1077.3 24.5247L1071.13 25.2239ZM1070.67 31.7962C1070.38 29.323 1071.9 27.3587 1074.31 27.0867C1076.81 26.8063 1078.64 28.396 1078.98 30.8626C1079.26 33.2888 1077.8 35.2969 1075.29 35.5786C1072.82 35.8537 1070.94 34.2237 1070.67 31.7962Z" fill="#52B7A0"/>
<path opacity="0.2" d="M14.127 224.224C14.1129 223.215 12.7304 220.136 15.8331 215.384C17.1146 213.444 18.1505 211.815 17.9647 210.227C17.649 207.492 14.5959 207.351 12.0362 208.399C10.7127 208.944 9.19591 208.309 8.61532 206.994C8.02552 205.654 8.61015 204.097 9.93202 203.486C11.3744 202.817 13.1646 202.262 15.1885 202.033C21.315 201.346 24.4961 204.436 24.9412 208.307C25.3505 211.854 23.4365 214.431 21.9005 216.587C19.3133 220.226 20.3196 222.708 20.3046 223.525L14.127 224.224ZM13.6653 230.796C13.3817 228.323 14.8952 226.359 17.3059 226.087C19.8123 225.806 21.6429 227.396 21.9754 229.863C22.2571 232.289 20.7958 234.297 18.2859 234.579C15.825 234.854 13.9435 233.224 13.6653 230.796Z" fill="#3891B0"/>
</svg>
