<svg width="483" height="197" viewBox="0 0 483 197" fill="none" xmlns="http://www.w3.org/2000/svg">
<path opacity="0.2" d="M49.8453 130.915C22.3165 94.8561 29.2316 43.308 65.2906 15.7792L285.262 -152.155C321.321 -179.684 372.869 -172.768 400.398 -136.709C427.926 -100.65 421.011 -49.1023 384.952 -21.5735L164.981 146.36C128.922 173.889 77.3741 166.974 49.8453 130.915Z" fill="#B6F1FF"/>
<path opacity="0.2" d="M199.394 113.43C178.189 85.655 183.516 45.9498 211.29 24.7456L380.724 -104.606C408.499 -125.811 448.204 -120.484 469.408 -92.7095C490.612 -64.9349 485.286 -25.2297 457.511 -4.02554L288.078 125.326C260.303 146.531 220.598 141.204 199.394 113.43Z" fill="#FFEE92"/>
</svg>
