<svg width="569" height="403" viewBox="0 0 569 403" fill="none" xmlns="http://www.w3.org/2000/svg">
<path d="M216.468 390.382C216.468 390.382 217.26 399.566 215.322 400.523L190.531 400.471C190.531 400.471 190.531 397.604 194.513 396.967C198.494 396.329 205.49 393.992 206.675 388.788C207.859 383.585 216.468 390.382 216.468 390.382Z" fill="#004F84"/>
<path d="M287.606 386.827C287.606 386.827 288.353 399.566 286.414 400.52L261.621 400.469C261.621 400.469 261.621 397.602 265.602 396.964C269.584 396.327 276.58 393.99 277.764 388.786C278.951 383.585 287.606 386.827 287.606 386.827Z" fill="#004F84"/>
<path d="M288.451 388.394C288.451 388.394 283.53 390.934 281.423 391.398C279.081 391.915 274.686 391.587 274.686 391.587C266.253 368.932 240.102 276.842 240.102 276.842C238.966 302.306 234.378 327.702 229.613 348.117C229.486 348.664 229.356 349.209 229.232 349.746V349.753C229.117 350.244 228.999 350.732 228.884 351.212C228.879 351.234 228.872 351.254 228.87 351.276C223.085 375.367 217.285 391.773 217.285 391.773C217.285 391.773 215.788 393.671 211.618 392.803C206.839 391.81 205.246 389.703 205.246 389.703C208.339 291.58 210.064 236.247 210.064 236.247C210.064 236.247 251.456 213.838 262.7 232.993C273.944 252.153 288.451 388.394 288.451 388.394Z" fill="#2A4E96"/>
<path d="M271.771 246.23C266.405 227.005 265.521 208.75 265.566 193.636C265.622 172.125 267.55 156.977 261.09 154.422C261.09 154.422 241.132 148.608 227.394 146.045C225.206 144.839 222.776 143.573 220.934 142.823C216.597 141.06 199.686 116.424 196.818 110.526C193.95 104.629 189.205 78.9312 189.205 78.9312L182.615 81.0352C182.615 81.0352 180.635 109.879 181.585 117.398C182.534 124.916 203.474 157.245 205.211 160.072C212.665 187.378 205.211 231.813 208.618 241.721C210.37 246.816 242.869 256.155 260.657 254.98C261.543 254.921 262.394 254.835 263.202 254.723C263.204 254.723 263.207 254.72 263.209 254.72C267.418 254.134 270.479 252.788 271.6 250.424C272.148 249.279 272.236 247.888 271.771 246.23Z" fill="#D0ECFF"/>
<path d="M189.205 78.9311C189.205 78.9311 192.929 68.0896 190.206 67.7733C187.482 67.4594 180.648 67.4913 179.806 69.3231C178.962 71.155 182.617 81.0352 182.617 81.0352L189.205 78.9311Z" fill="#FFCAAC"/>
<path d="M118.314 105.943L96.3318 92.6222C97.3082 91.0061 98.8449 89.937 100.541 89.5201C102.239 89.1032 104.094 89.3312 105.709 90.3097C107.131 91.1704 108.981 90.7119 109.84 89.2896L115.788 79.4314L120.935 82.5507L114.986 92.4088C114.555 93.12 114.455 93.9415 114.638 94.6919C114.822 95.4423 115.292 96.1216 116.004 96.5507C117.616 97.5267 118.681 99.0692 119.099 100.769C119.518 102.468 119.288 104.327 118.314 105.943Z" fill="#ED7D2B"/>
<path d="M118.314 105.943L103.7 97.0879C100.316 94.2556 101.97 91.8327 103.668 91.4134C105.366 90.9965 107.221 91.2246 108.836 92.203C110.258 93.0638 112.108 92.6052 112.967 91.1829L118.916 81.3247L120.934 82.5484L114.986 92.4065C114.555 93.1177 114.455 93.9392 114.638 94.6896C114.822 95.44 115.292 96.1193 116.004 96.5484C117.616 97.5244 118.681 99.0669 119.099 100.766C119.518 102.468 119.288 104.327 118.314 105.943Z" fill="#F99746"/>
<path d="M182.615 41.7251L164.825 64.1978C158.641 74.4459 147.947 79.3602 137.702 79.7722C137.699 79.7722 137.699 79.7722 137.697 79.7722C134.205 79.912 130.769 79.5319 127.578 78.6589C124.943 77.9379 121.908 79.3602 120.242 82.119L119.894 82.6953C118.862 84.4021 117.995 85.8367 117.995 85.8367L114.249 83.5659C114.249 83.5659 115.123 82.1166 116.16 80.3951C117.988 77.3592 117.888 73.6538 115.884 71.4075C107.321 61.8093 104.111 45.9308 112.299 32.3624L124.346 6.40991L182.615 41.7251Z" fill="#F99746"/>
<path d="M108.2 50.6025C109.653 42.1814 105.589 37.5956 101.289 32.7377C97.8489 28.8532 94.2933 24.8389 93.5274 18.8627C92.6782 12.2342 95.7591 5.46588 101.192 2.02534C105.322 -0.591239 109.886 -0.674617 113.72 1.78747C119.163 5.29177 121.186 12.0723 119.571 21.3959C118.414 28.0734 115.825 33.7137 115.715 33.9515L112.299 32.3649C112.394 32.1565 121.796 11.474 111.685 4.96317C108.197 2.71443 104.872 4.15637 103.203 5.21575C99.0504 7.84704 96.6058 13.2617 97.2616 18.3845C97.8782 23.2081 100.903 26.6217 104.104 30.2363C108.589 35.3003 113.672 41.0386 111.91 51.2474L108.2 50.6025Z" fill="#ED7D2B"/>
<path d="M150.61 76.3048C157.376 71.1035 163.318 72.5798 169.607 74.1419C174.635 75.3901 179.838 76.6825 185.473 74.5858C191.726 72.2586 196.275 66.3829 196.793 59.9653C197.187 55.0828 195.142 50.9949 191.185 48.7363C185.561 45.5337 178.629 46.8873 171.138 52.6502C165.774 56.7773 161.994 61.6966 161.835 61.9026L164.823 64.1955C164.962 64.014 178.874 46.0633 189.323 52.0126C192.929 54.0627 193.199 57.6847 193.04 59.6588C192.643 64.5658 188.992 69.2496 184.162 71.0471C179.613 72.7392 175.191 71.6406 170.51 70.4782C163.951 68.8499 156.52 67.0033 148.315 73.3081L150.61 76.3048Z" fill="#F99746"/>
<path d="M137.697 79.7725C134.205 79.9122 130.769 79.5321 127.578 78.6591C124.943 77.9381 121.909 79.3605 120.242 82.1193L119.895 82.6956C118.585 83.3724 117.597 84.2282 117.129 85.3121L114.252 83.5686C114.252 83.5686 115.125 82.1193 116.163 80.3978C117.991 77.3619 117.89 73.6565 115.886 71.4102C107.324 61.812 104.113 45.9335 112.301 32.365L124.348 6.4126L133.982 12.2515C133.977 12.249 94.8661 65.3604 137.697 79.7725Z" fill="#ED7D2B"/>
<path d="M120.359 88.1224L110.762 82.3056C109.46 81.5159 109.037 79.8018 109.825 78.4972C110.613 77.1926 112.323 76.7683 113.625 77.558L123.225 83.3748C124.527 84.1644 124.95 85.8785 124.162 87.1831C123.372 88.4902 121.664 88.912 120.359 88.1224Z" fill="#F99746"/>
<path d="M123.296 55.8014L124.326 54.0946C129.206 56.7381 129.834 56.4242 131.839 53.1039L141.916 36.4038C143.335 34.0521 142.618 33.3655 140.871 31.9897L139.63 30.923L140.548 29.4001C144.343 31.1339 148.858 32.6102 152.159 33.287L137.961 56.8141C135.901 60.2277 135.928 60.8114 140.484 63.8865L139.454 65.5933L123.296 55.8014Z" fill="white"/>
<path d="M179.806 69.3232C179.806 69.3232 179.453 73.0555 180.65 73.7593C181.844 74.4631 182.265 69.3232 182.265 69.3232C182.265 69.3232 182.336 73.5411 183.249 73.8256C184.162 74.1125 184.724 68.97 184.724 68.97C184.724 68.97 184.822 73.0555 185.441 72.9133C186.06 72.7735 186.481 68.97 186.481 68.97C186.481 68.97 186.763 71.9348 187.605 71.4027C188.449 70.8706 189.249 67.6875 189.249 67.6875L179.806 69.3232Z" fill="#FFB27D"/>
<path d="M189.205 78.9311C189.205 78.9311 191.75 76.93 192.313 75.0982C192.876 73.2663 194.527 70.1887 193.649 69.816C192.77 69.4432 190.206 73.4086 190.206 73.4086L189.205 78.9311Z" fill="#FFCAAC"/>
<path d="M233.345 143.095L233.024 144.762C233.024 144.762 231.544 149.885 237.796 151.916C244.048 153.949 249.322 154.888 249.941 150.832C249.978 147.605 249.899 142.565 250.364 139.981C250.538 139.019 250.802 138.016 251.209 136.905L238.849 134.198L235.075 134.073L233.345 143.095Z" fill="#FFCAAC"/>
<path d="M235.078 134.071L233.927 140.152C245.671 143.269 250.807 138.016 251.211 136.905L238.851 134.198L235.078 134.071Z" fill="#EEAE8A"/>
<path d="M253.022 134.382C249.381 141.8 239.375 138.71 235.158 136.994C233.971 136.513 233.245 136.138 233.245 136.138C231.967 135.38 231.806 132.982 232.249 130.024C233.12 124.171 236.343 116.125 237.889 114.268C240.219 111.478 243.887 108.783 253.335 114.129C262.788 119.477 257.691 124.879 253.022 134.382Z" fill="#FFCAAC"/>
<path d="M236.861 105.943C236.861 105.943 241.425 106.855 247.335 106.041C252.131 105.381 256.952 108.949 258.445 110.367C258.476 110.07 258.471 109.653 258.312 109.192C258.312 109.192 258.941 109.972 258.839 110.786C258.902 110.869 258.927 110.921 258.902 110.928C258.902 110.928 259.839 111.017 260.339 111.436C260.339 111.436 259.954 111.267 259.739 111.483C259.717 111.505 259.688 111.522 259.656 111.537C265.421 116.642 263.079 127.378 260.248 129.22C256.842 131.434 250.993 137.531 250.993 137.531C250.993 137.531 251.201 135.306 252.395 132.849C253.59 130.395 251.36 129.767 248.872 127.798C246.383 125.828 249.655 123.195 247.748 120.502C245.842 117.809 236.475 116.444 237.021 114.948C234.011 112.775 236.766 106.289 236.861 105.943Z" fill="#6D543F"/>
<path d="M235.618 156.722C235.618 156.722 229.98 194.21 187.815 220.244L183.88 231.698H199.098C199.098 231.698 236.864 199.961 239.397 157.799L235.618 156.722Z" fill="#ED7D2B"/>
<path d="M235.618 156.722V151.04L242.568 153.012L239.399 157.801L235.618 156.722Z" fill="#DB6516"/>
<path d="M233.345 143.095L229.278 146.58C229.278 146.58 228.152 151.445 230.893 156.725L239.091 152.029C239.093 152.026 234.25 149.682 233.345 143.095Z" fill="#A8D2EE"/>
<path d="M239.093 152.026C239.093 152.026 239.906 156.438 242.042 158.623C242.042 158.623 251.277 157.002 253.842 152.566L249.973 146.511C249.973 146.509 249.048 150.641 239.093 152.026Z" fill="#90D2FF"/>
<path d="M294.431 249.19C294.431 249.19 294.448 257.582 293.677 259.252C292.907 260.922 289.451 266.359 287.858 267.521C286.265 268.683 288.201 260.799 287.702 259.357C287.203 257.915 286.588 262.202 285.852 262.379C285.115 262.555 284.915 258.776 284.743 257.41C284.572 256.044 287.883 252.283 288.871 249.234C289.855 246.189 294.431 249.19 294.431 249.19Z" fill="#FFCAAC"/>
<path d="M260.96 154.42C260.96 154.42 269.082 156.637 274.585 168.773C280.356 181.498 295.801 209.765 296.376 213.667C296.949 217.568 295.354 254.004 295.354 254.004C295.354 254.004 288.595 254.267 286.507 251.054C286.507 251.054 284.153 219.069 283.113 217.33C282.073 215.592 255.474 183.803 257.713 175.737C259.952 167.669 260.96 154.42 260.96 154.42Z" fill="#D0ECFF"/>
<path d="M271.6 250.426C269.588 252.155 266.87 253.663 263.209 254.723C263.206 254.723 263.204 254.725 263.202 254.725C262.301 254.985 261.457 255.064 260.657 254.983C245.793 253.447 248.076 195.576 255.278 191.299C262.869 186.792 265.563 193.636 265.563 193.636C265.521 208.75 266.405 227.005 271.769 246.23C272.236 247.888 272.148 249.279 271.6 250.426Z" fill="#A8D2EE"/>
<path d="M228.884 351.212C228.982 350.761 229.097 350.273 229.231 349.753C229.116 350.244 228.999 350.732 228.884 351.212Z" fill="#004F84"/>
<path d="M229.613 348.117C234.162 326.545 229.258 268.737 231.449 267.639C233.697 266.513 240.101 276.842 240.101 276.842C238.966 302.307 234.378 327.702 229.613 348.117Z" fill="#004F84"/>
<path d="M118.402 392.178L117.09 382.714L122.598 378.104L124.331 390.63L118.402 392.178Z" fill="#FFCAAC"/>
<path d="M136.689 400.63H114.237C114.237 400.63 113.699 397.202 114.871 394.6C115.994 392.104 117.744 390.564 117.903 388.651C119.329 390.122 121.084 391.069 124.331 390.633C124.727 391.278 126.898 394.738 128.227 395.692C129.695 396.749 136.236 396.371 136.689 400.63Z" fill="#004F84"/>
<path d="M132.179 264.404C130.71 276.241 129.509 287.399 128.533 297.799C123.308 353.211 124.333 387.082 124.333 387.082C124.333 387.082 123.956 388.085 120.717 388.099C118.886 388.109 117.092 387.71 117.092 387.71C117.092 387.71 105.393 351.524 106.296 330.932C106.404 328.455 106.692 326.204 107.209 324.267C110.016 313.732 96.8235 273.441 111.163 258.438C125.501 243.435 132.854 258.972 132.179 264.404Z" fill="#F66819"/>
<path d="M132.179 264.404C130.71 276.241 129.509 287.399 128.533 297.799L106.296 330.932C106.404 328.455 106.692 326.204 107.209 324.267C110.016 313.732 96.8235 273.441 111.163 258.438C125.501 243.435 132.854 258.972 132.179 264.404Z" fill="#F66819"/>
<path d="M149.847 151.506C149.847 151.506 149.306 148.801 148.696 146.739C148.427 145.827 150.307 139.828 151.606 139.09C152.905 138.352 156.295 142.391 155.335 145.493C154.843 147.087 154.033 152.271 154.033 152.271L149.847 151.506Z" fill="#FFCAAC"/>
<path d="M149.846 151.506C149.846 151.506 149.139 149.939 148.501 149.684C147.862 149.429 147.177 146.866 146.709 145.849C146.709 145.849 147.162 145.184 147.955 146.04C148.439 146.562 149.516 148.093 149.516 148.093L149.846 151.506Z" fill="#FFCAAC"/>
<path d="M57.1665 160.604C57.0294 160.889 56.8386 161.399 56.6673 161.877C56.6648 161.747 56.6624 161.617 56.6599 161.489C56.6501 160.538 53.1019 155.354 51.6435 155.028C50.185 154.704 48.1246 159.559 49.9476 162.245C50.8849 163.623 53.1704 168.343 53.1704 168.343L56.9511 166.387C56.9511 166.387 57.1689 164.68 57.7048 164.251C58.2407 163.821 58.1477 161.168 58.297 160.06C58.3019 160.057 57.6755 159.552 57.1665 160.604Z" fill="#FFCAAC"/>
<path d="M80.7487 389.34C80.4306 386.307 80.3523 378.327 80.3523 378.327C80.3523 378.327 88.4667 375.728 88.1682 377.513C86.7 386.285 87.0988 390.63 87.0988 390.63L83.8173 392.594L80.7487 389.34Z" fill="#FFCAAC"/>
<path d="M125.403 263.84C125.403 263.84 94.0582 349.94 87.8892 387.288C87.8892 387.288 86.4601 388.271 83.7928 387.945C80.7682 387.575 79.9411 385.471 79.9411 385.471C79.9411 385.471 74.2786 340.707 85.5327 325.167C93.2654 314.49 82.1973 267.6 100.208 263.84C118.216 260.081 125.403 263.84 125.403 263.84Z" fill="#F99746"/>
<path d="M119.836 181.017C119.836 181.014 119.836 181.014 119.836 181.014C119.831 180.978 119.821 180.938 119.809 180.904C119.625 180.146 119.425 179.401 119.209 178.66C119.209 178.658 119.209 178.658 119.209 178.658C118.553 176.394 117.773 174.239 116.931 172.336C116.447 171.245 115.945 170.234 115.431 169.332C115.353 169.192 115.277 169.065 115.201 168.93L115.199 168.927C113.987 166.887 112.742 165.477 111.619 165.04C109.568 164.246 107.29 164.466 105.721 164.795C106.066 164.314 106.847 164.04 106.847 164.04C105.843 164.04 103.798 165.339 103.798 165.339C89.3625 162.105 90.2043 182.569 91.188 187.206C92.1668 191.846 87.5199 194.1 80.9642 198.845C68.4548 207.901 68.6653 217.499 68.6653 217.499C68.7778 217.546 68.9002 217.602 69.0299 217.666C69.534 216.425 70.6009 214.074 71.7192 213.576C71.6874 213.686 70.7771 216.732 70.5177 218.436C72.4239 219.488 75.0594 221.119 77.9225 222.956C77.9225 222.956 77.9225 222.956 77.9249 222.958C81.757 225.415 85.9856 228.243 89.3723 230.538C89.2108 229.604 89.0517 228.272 89.2891 227.519L90.3682 230.872L90.5102 231.308C92.6734 232.777 94.379 233.952 95.2452 234.555C95.3333 234.616 95.4116 234.67 95.4826 234.719C95.7346 234.893 95.8717 234.989 95.8717 234.989C95.5829 233.805 96.8456 230.717 98.9648 226.823C99.1091 226.551 99.2633 226.276 99.4199 225.997C100.105 224.766 100.869 223.471 101.688 222.132C101.984 221.649 102.283 221.166 102.594 220.673C102.594 220.67 102.596 220.67 102.596 220.67C102.843 220.273 103.095 219.881 103.357 219.481L103.36 219.478C103.974 218.527 104.608 217.571 105.256 216.612C106.935 214.128 108.711 211.661 110.466 209.4C113.016 206.106 115.517 203.244 117.611 201.371C117.68 201.229 117.746 201.084 117.802 200.939C118.13 200.177 118.382 199.328 118.576 198.465C118.637 198.205 118.691 197.945 118.737 197.685C119.258 194.931 119.268 192.199 119.263 191.549C119.432 194.21 119.363 196.216 119.187 197.734C119.148 198.068 119.104 198.374 119.053 198.661V198.663C118.94 199.311 118.813 199.845 118.673 200.289C119.016 199.863 119.317 199.394 119.584 198.884C119.757 198.551 119.917 198.2 120.058 197.832C121.754 193.511 121.299 187.064 119.836 181.017Z" fill="#2A2C33"/>
<path d="M117.122 201.748C117.171 201.763 113.079 204.728 109.612 204.314C106.35 203.924 103.695 200.154 103.737 200.14C105.026 199.676 105.136 197.79 103.942 189.936L104.561 189.965L114.954 190.463C114.954 190.463 115.196 193.68 115.634 196.682C116.001 199.201 116.508 201.564 117.122 201.748Z" fill="#FFCAAC"/>
<path d="M114.951 190.463C114.951 190.463 115.194 193.681 115.632 196.682C109.959 197.364 106.205 192.646 104.559 189.965L114.951 190.463Z" fill="#EEAE8A"/>
<path d="M103.355 189.019C103.355 189.019 99.6989 184.771 98.3922 180.87C97.4599 178.084 97.34 167.259 108.202 167.203C108.202 167.203 111.337 167.049 114.533 168.581C117.075 169.8 120.908 172.677 118.556 182.488L118.052 185.759L103.355 189.019Z" fill="#2A2C33"/>
<path d="M133.488 262.187C133.488 262.187 119.965 270.241 102.985 266.101C102.785 266.052 89.0051 263.847 89.0051 263.847C89.2425 263.198 91.024 252.53 91.2564 251.934C94.2688 244.143 99.7746 201.866 104.373 199.782C105.547 201.064 108.905 201.94 111.777 201.685C115.086 201.393 116.192 199.961 115.918 198.418C119.579 200.152 122.39 201.766 122.39 201.766C125.736 206.79 133.488 262.187 133.488 262.187Z" fill="white"/>
<path d="M117.259 193.021C117.259 193.021 103.927 195.233 102.679 186.893C101.431 178.55 98.8717 173.219 107.331 171.453C115.791 169.687 117.925 172.62 119.016 175.303C120.11 177.988 120.697 192.231 117.259 193.021Z" fill="#FFCAAC"/>
<path d="M113.388 170.342C113.388 170.342 111.181 180.676 105.78 182.959C100.379 185.245 97.7192 184.1 97.7192 184.1C97.7192 184.1 101.517 180.029 101.524 173.908C101.524 173.908 109.937 166.095 113.388 170.342Z" fill="#2A2C33"/>
<path d="M112.6 171.271C112.6 171.271 115.656 173.049 116.637 175.075C117.619 177.1 118.568 181.429 119.818 181.09C119.818 181.09 121.588 174.028 117.932 170.725C114.053 167.223 112.6 171.271 112.6 171.271Z" fill="#2A2C33"/>
<path d="M154.126 151.7C153.583 151.509 152.785 151.055 151.743 150.962C150.816 150.878 149.648 151.18 149.648 151.18C149.648 151.18 145.887 174.612 145.608 175.855C145.329 177.096 129.475 194.995 125.2 194.924C121.341 194.86 116.767 197.844 115.918 198.418C115.918 198.418 124.906 217.468 125.356 221.045C125.843 224.94 130.498 284.895 130.498 284.895C130.498 284.895 130.221 287.684 135.421 286.185C140.621 284.684 141.923 283.444 141.923 283.444C141.923 283.444 137.146 236.242 136.143 221.563C136.008 219.591 135.688 217.769 135.23 216.087C134.79 214.464 135.137 212.73 136.126 211.371C142.701 202.327 153.084 187.672 153.661 184.558C154.511 179.98 154.126 151.7 154.126 151.7Z" fill="#0069AF"/>
<path d="M99.4565 400.63H77.0048C77.0048 400.63 76.4664 397.202 77.6385 394.6C78.7617 392.104 80.5114 390.564 80.6704 388.651C82.0971 390.122 83.8516 391.069 87.0989 390.633C87.4953 391.278 89.6658 394.738 90.9946 395.692C92.4604 396.749 99.0038 396.371 99.4565 400.63Z" fill="#004F84"/>
<path d="M114.878 222.895C114.122 218.228 104.461 199.492 104.461 199.492C104.461 199.492 98.3529 197.663 94.3349 199.122C90.3143 200.581 69.5192 188.815 68.8512 187.731C68.1856 186.647 57.0466 165.847 57.0466 165.847C57.0466 165.847 56.124 165.31 54.6435 166.085C53.1802 166.85 53.1729 168.344 53.1729 168.344C53.1729 168.344 61.7694 194.532 64.0574 198.583C65.4375 201.025 77.0317 209.532 86.0222 215.901C87.7376 217.117 88.6406 219.187 88.3591 221.276C87.1503 230.232 86.842 235.274 85.452 250.642C84.2995 263.389 83.8565 288.069 83.8565 288.069C83.8565 288.069 93.9164 291.558 100.859 292.019C107.801 292.483 109.316 285.148 109.316 285.148C109.316 285.148 115.656 227.694 114.878 222.895Z" fill="#0069AF"/>
<path d="M372.595 187.15C372.595 187.15 376.736 193.989 368.949 198.296C368.949 198.296 374.934 200.459 377.019 199.642C377.019 199.642 376.503 200.181 376.109 200.378C376.109 200.378 381.735 202.168 384.539 201.189C387.344 200.213 393.38 172.917 376.777 171.478C376.777 171.478 363.68 166.779 360.913 181.424C358.145 196.069 353.099 194.649 353.099 194.649C353.099 194.649 354.323 195.684 355.001 195.875C355.001 195.875 356.09 195.804 356.425 195.355C356.425 195.355 356.006 196.096 355.681 196.277C355.681 196.277 360.991 198.288 364.243 197.155C367.495 196.022 372.544 190.316 372.595 187.15Z" fill="#2A2C33"/>
<path d="M355.928 402.624H377.11C377.11 402.624 377.619 399.39 376.51 396.935C375.451 394.581 373.802 393.127 373.65 391.322C372.304 392.71 370.647 393.605 367.586 393.19C367.212 393.801 365.163 397.063 363.911 397.965C362.528 398.961 356.354 398.607 355.928 402.624Z" fill="#004F84"/>
<path d="M373.432 394.517C373.432 394.517 371.624 395.103 369.739 395.272C366.402 395.569 365.917 394.576 365.917 394.576C365.917 394.576 362.601 364.999 351.869 308.459C350.32 300.293 349.71 295.774 349.15 288.515C348.983 286.342 348.819 283.924 348.641 281.089C348.154 273.47 349.309 260.645 355.015 257.275C357.609 255.74 361.143 256.162 365.897 259.912C366.269 260.208 366.656 260.525 367.045 260.863C380.952 272.918 375.25 307.542 375.813 323.82C375.908 326.518 376.173 328.713 376.728 330.218C377.445 332.163 378.987 334.858 379.337 337.399C382.251 358.505 373.432 394.517 373.432 394.517Z" fill="#004F84"/>
<path d="M375.808 323.818L349.147 288.515C348.981 286.342 348.817 283.924 348.638 281.089C348.151 273.47 349.306 260.645 355.013 257.275L365.895 259.912C366.267 260.208 366.654 260.525 367.043 260.863C380.947 272.918 375.245 307.54 375.808 323.818Z" fill="#004F84"/>
<path d="M451.165 357.951L442.349 338.649C442.349 338.649 439.202 339.532 437.435 341.563C435.739 343.51 434.511 343.164 430.649 340.476C432.103 342.728 432.301 344.054 433.199 347.017C433.909 347.105 437.946 351.021 442.084 352.1C443.734 352.529 447.341 359.234 451.165 357.951Z" fill="#004F84"/>
<path d="M358.732 265.746C358.732 265.746 377.714 331.871 384.669 336.128C391.623 340.385 428.19 346.239 435.622 349.432C435.622 349.432 436.527 348.132 435.996 345.351C435.878 344.733 434.829 342.514 434.829 342.514C434.829 342.514 412.122 325.407 397.176 323.681C393.466 323.251 404.727 266.491 379.665 264.225C356.77 262.153 358.732 265.746 358.732 265.746Z" fill="#0069AF"/>
<path d="M331.653 157.257C331.653 157.257 332.165 154.707 332.74 152.759C332.994 151.899 331.22 146.239 329.994 145.542C328.768 144.846 325.57 148.657 326.475 151.582C326.94 153.086 327.704 157.975 327.704 157.975L331.653 157.257Z" fill="#FFCAAC"/>
<path d="M331.653 157.257C331.653 157.257 332.321 155.778 332.923 155.538C333.525 155.297 334.171 152.879 334.614 151.921C334.614 151.921 334.186 151.293 333.44 152.1C332.985 152.593 331.967 154.035 331.967 154.035L331.653 157.257Z" fill="#FFCAAC"/>
<path d="M419.097 165.837C419.226 166.107 419.408 166.585 419.567 167.036C419.569 166.914 419.571 166.791 419.571 166.671C419.579 165.774 422.929 160.881 424.304 160.575C425.679 160.268 427.625 164.849 425.904 167.382C425.021 168.684 422.863 173.135 422.863 173.135L419.295 171.289C419.295 171.289 419.089 169.678 418.583 169.273C418.076 168.866 418.167 166.365 418.022 165.317C418.025 165.322 418.617 164.847 419.097 165.837Z" fill="#FFCAAC"/>
<path d="M362.528 204.657C362.482 204.669 366.341 207.47 369.615 207.075C372.693 206.707 375.196 203.151 375.157 203.136C373.941 202.7 373.836 200.922 374.964 193.511L374.382 193.538L364.576 194.009C364.576 194.009 364.346 197.045 363.933 199.875C363.588 202.254 363.11 204.485 362.528 204.657Z" fill="#FFCAAC"/>
<path d="M364.576 194.009C364.576 194.009 364.346 197.045 363.933 199.875C369.284 200.52 372.825 196.067 374.379 193.538L364.576 194.009Z" fill="#EEAE8A"/>
<path d="M375.519 192.648C375.519 192.648 378.97 188.641 380.201 184.96C381.079 182.331 381.194 172.12 370.943 172.066C370.943 172.066 367.985 171.919 364.97 173.366C362.572 174.516 358.955 177.231 361.175 186.488L361.649 189.573L375.519 192.648Z" fill="#2A2C33"/>
<path d="M350.231 263.198C350.231 263.198 359.848 269.279 375.867 265.373C376.055 265.326 384.975 263.902 384.975 263.902C384.752 263.288 375.38 247.77 375.16 247.206C372.319 239.857 378.899 204.77 374.56 202.801C373.452 204.01 370.285 204.838 367.576 204.596C364.456 204.319 363.409 202.967 363.668 201.516C360.215 203.151 357.56 204.674 357.56 204.674C354.401 209.414 350.231 263.198 350.231 263.198Z" fill="#FFCAAC"/>
<path d="M362.398 196.425C362.398 196.425 374.976 198.514 376.153 190.642C377.33 182.773 379.746 177.741 371.766 176.076C363.783 174.41 361.772 177.177 360.742 179.71C359.711 182.238 359.158 195.677 362.398 196.425Z" fill="#FFCAAC"/>
<path d="M366.052 175.026C366.052 175.026 368.134 184.776 373.229 186.932C378.324 189.087 380.834 188.006 380.834 188.006C380.834 188.006 377.25 184.166 377.245 178.391C377.247 178.391 369.309 171.019 366.052 175.026Z" fill="#2A2C33"/>
<path d="M366.796 175.904C366.796 175.904 363.911 177.581 362.986 179.492C362.058 181.402 361.165 185.488 359.986 185.169C359.986 185.169 358.317 178.503 361.767 175.389C365.425 172.083 366.796 175.904 366.796 175.904Z" fill="#2A2C33"/>
<path d="M422.048 173.14C422.048 173.14 413.936 197.849 411.778 201.67C410.478 203.975 395.864 213.093 387.383 219.101C387.29 219.165 387.182 219.297 387.057 219.491C387.055 219.496 387.053 219.498 387.048 219.503C384.931 222.784 378.351 243.089 379.924 246.733C386.539 262.05 391.073 267.975 392.722 272.271C393.547 274.414 392.446 276.815 390.288 277.585C387.569 278.554 383.565 279.775 378.843 280.587C377.942 280.744 377.015 280.884 376.065 281.004C363.03 282.661 354.203 279.596 349.723 277.33C347.603 276.259 346.324 274.029 346.456 271.656C346.725 266.81 349.143 262.013 350.234 250.36C351.061 241.517 343.446 228.062 343.769 223.356C343.896 221.494 345.357 219.268 346.147 217.823C346.147 217.823 346.147 217.821 346.15 217.818C347.55 215.263 348.318 212.955 347.386 211.675C341.182 203.144 327.787 191.378 327.239 188.44C326.439 184.122 326.801 157.438 326.801 157.438C327.312 157.259 328.066 156.83 329.05 156.742C329.926 156.663 331.025 156.948 331.025 156.948C331.025 156.948 334.573 179.058 334.837 180.227C335.101 181.397 350.058 198.286 354.091 198.217C357.732 198.156 362.868 200.974 363.666 201.516C363.666 201.516 360.397 207.32 359.582 215.16C359.014 220.643 362.668 218.206 364.965 214.451C368.073 209.368 374.33 202.129 374.33 202.129C374.33 202.129 379.42 200.802 383.213 202.18C387.006 203.556 406.626 192.452 407.255 191.432C407.887 190.409 418.394 170.786 418.394 170.786C418.394 170.786 419.266 170.281 420.663 171.009C422.041 171.73 422.048 173.14 422.048 173.14Z" fill="#F99746"/>
<path d="M390.285 277.585C387.566 278.554 383.563 279.775 378.84 280.587C374.342 274.373 366.729 266.552 368.69 252.172C370.713 237.306 385.298 221.661 387.047 219.503C384.931 222.784 378.351 243.089 379.924 246.733C386.538 262.05 391.073 267.975 392.722 272.271C393.544 274.414 392.446 276.815 390.285 277.585Z" fill="#F66819"/>
<path d="M346.147 217.818C347.547 215.263 348.315 212.955 347.383 211.675C341.18 203.144 327.784 191.378 327.236 188.44C328.565 191.633 344.787 201.17 349.348 205.27C353.858 209.319 346.331 217.62 346.147 217.818Z" fill="#ED7D2B"/>
<path d="M73.8529 100.151C73.8529 100.151 76.8921 104.325 76.5667 109.084C76.3244 112.618 73.1824 116.191 72.9695 116.333L77.9297 118.984C77.9297 118.984 81.6076 112.439 80.3694 106.971C79.9901 105.296 78.2307 102.615 76.9386 101.421C75.5144 100.107 73.8529 100.151 73.8529 100.151Z" fill="#6BB7BF"/>
<path d="M63.7123 100.595L60.5703 93.635C60.5703 93.635 75.2306 94.1328 80.0881 106.102C80.0881 106.102 69.83 98.7701 63.7123 100.595Z" fill="#86D1CD"/>
<path d="M8.33539 277.637C8.33539 277.637 4.84099 274.993 3.94047 271.042C3.26997 268.11 4.95111 264.431 5.08814 264.264L0.406913 263.33C0.406913 263.33 -0.980572 269.556 1.36861 273.696C2.08804 274.964 4.17538 276.712 5.51882 277.364C6.9944 278.083 8.33539 277.637 8.33539 277.637Z" fill="#6BB7BF"/>
<path d="M16.4719 274.782L20.7322 279.667C20.7322 279.667 8.69266 282.872 1.80908 274.336C1.80908 274.333 11.9448 277.769 16.4719 274.782Z" fill="#86D1CD"/>
<path d="M544.18 300.379C544.18 300.379 543.874 295.791 552.471 293.569C556.323 292.574 564.902 294.344 559.465 302.802C553.807 311.601 548.766 308.423 548.766 308.423C548.766 308.423 560.563 299.168 555.843 294.938C550.633 290.268 548.632 299.521 548.632 299.521C548.632 299.521 546.529 299.411 544.18 300.379Z" fill="#F1A34F"/>
<path d="M547.232 308.952C547.232 308.952 544.016 307.206 545.291 303.337L549.911 304.141C549.911 304.141 548.135 308.332 552.481 308.84C552.481 308.84 548.299 309.835 547.232 308.952Z" fill="#DB7714"/>
<path d="M245.774 62.8344C245.774 62.8344 250.577 55.9018 257.943 60.8113L262.428 56.5124C262.428 56.5124 258.236 53.3245 248.57 59.0432C242.245 62.7829 245.774 62.8344 245.774 62.8344Z" fill="#5685D8"/>
<path d="M241.034 69.6295C241.034 69.6295 240.084 61.6719 253.374 56.7085C253.374 56.7085 248.571 59.0406 247.088 66.9737L241.034 69.6295Z" fill="#739AF0"/>
<path d="M294.431 27.4284C294.431 27.4284 298.358 24.9418 298.772 21.9377C298.772 21.9377 302.597 22.1437 303.424 23.387C303.424 23.387 301.667 28.3578 299.599 29.2921C299.599 29.2921 294.947 29.6036 294.431 27.4284Z" fill="#F99746"/>
<path d="M168.033 311.069C168.033 311.069 163.844 308.418 163.401 305.213C163.401 305.213 159.321 305.433 158.438 306.76C158.438 306.76 160.312 312.064 162.517 313.057C162.52 313.057 167.482 313.389 168.033 311.069Z" fill="#F99746"/>
<path d="M340.025 105.752C340.025 105.752 344.234 103.088 344.677 99.8687C344.677 99.8687 348.775 100.092 349.661 101.423C349.661 101.423 347.779 106.75 345.562 107.75C345.562 107.748 340.578 108.081 340.025 105.752Z" fill="#86D1CD"/>
<path d="M421.93 227.87C421.93 227.87 419.498 224.91 418.189 224.496C416.879 224.081 414.349 222.117 414.019 222.926C413.689 223.736 415.72 224.984 415.614 225.908C415.507 226.833 409.154 228.319 409.193 229.297C409.232 230.276 410.688 232.642 413.111 232.37C415.534 232.098 421.681 230.636 422.943 231.269C424.204 231.902 421.93 227.87 421.93 227.87Z" fill="#FFCAAC"/>
<path d="M487.458 213.478C483.87 218.306 479.669 222.122 475.354 225.128C461.639 234.692 446.758 236.117 446.758 236.117C443.193 234.974 432.237 233.778 425.765 232.733H425.762C422.941 232.279 420.971 231.85 420.839 231.473L421.003 225.822C421.003 225.822 444.761 224.564 448.696 222.735C454.9 217.379 460.381 210.425 463.951 204.99C466.968 200.402 470.343 197.013 475.91 195.024C483.958 192.145 498.594 198.482 487.458 213.478Z" fill="#A8D2EE"/>
<path d="M476.563 221.573L475.352 225.128C461.636 234.692 446.756 236.117 446.756 236.117C443.89 236.117 432.235 233.778 425.762 232.733C426.019 232.755 443.386 234.114 447.226 233.716C451.092 233.317 469.095 217.678 469.095 217.678L476.563 221.573Z" fill="#A8D2EE"/>
<path d="M461.054 400.631H487.308C489.19 399.353 486.802 386.854 486.802 386.854C486.802 386.854 479.637 384.129 478.399 389.669C477.158 395.206 469.271 396.967 465.099 397.641C462.243 398.107 461.34 399.679 461.054 400.631Z" fill="#004F84"/>
<path d="M499.994 400.631H526.251C528.133 399.353 525.744 386.854 525.744 386.854C525.744 386.854 518.579 384.129 517.341 389.669C516.1 395.206 508.214 396.967 504.041 397.641C501.181 398.107 500.28 399.679 499.994 400.631Z" fill="#004F84"/>
<path d="M468.118 273.12C468.118 273.12 469.298 287.875 470.685 305.612C472.57 329.706 477.655 389.443 477.655 389.443C477.655 389.443 480.988 392.293 488.373 390.733C488.373 390.733 494.657 370.124 496.536 346.605C496.566 346.22 496.595 345.83 496.624 345.442C498.371 321.498 501.09 271.077 501.09 271.077L468.118 273.12Z" fill="#004F84"/>
<path d="M467.715 268.019C467.715 268.019 469.298 287.872 470.686 305.61L496.536 346.602C496.566 346.217 496.595 345.827 496.624 345.44C498.372 321.496 501.09 271.074 501.09 271.074L467.715 268.019Z" fill="#004F84"/>
<path d="M475.249 268.019C475.249 268.019 493.999 314.789 499.991 332.519C504.262 345.148 516.301 389.448 516.301 389.448C516.301 389.448 521.538 391.045 525.938 387.957C525.938 387.957 530.418 342.695 521.369 329.934C516.568 323.163 520.175 259.549 500.711 259.002C481.249 258.46 475.249 268.019 475.249 268.019Z" fill="#0069AF"/>
<path d="M483.626 199.073C486.489 200.584 489.281 200.679 491.703 200.162C493.918 199.696 495.822 198.715 497.175 197.847C498.565 196.957 499.382 196.179 499.382 196.179C499.382 196.179 499.284 196.04 499.123 195.762C498.276 194.313 495.714 189.102 496.854 180.73C496.869 180.62 496.042 180.777 494.792 181.071C491.072 181.954 483.591 184.08 483.261 184.173C483.254 184.173 483.249 184.173 483.249 184.173C483.249 184.173 483.158 185.934 482.85 189.09C482.825 189.367 482.796 189.659 482.767 189.96C482.728 190.331 482.691 190.723 482.644 191.128C482.297 194.411 483.626 199.073 483.626 199.073Z" fill="#FFCAAC"/>
<path d="M482.85 189.095C488.405 190.37 496.693 182.152 496.693 182.152C496.086 181.701 495.45 181.343 494.794 181.073C491.074 181.956 483.594 184.082 483.263 184.175C483.256 184.175 483.251 184.175 483.251 184.175C483.251 184.175 483.156 185.936 482.85 189.095Z" fill="#EEAE8A"/>
<path d="M480.961 183.732C480.961 183.732 483.244 184.553 486.156 184.945C490.414 185.522 496.013 185.181 497.772 180.019C500.735 171.33 504.518 166.119 495.8 162.571C491.133 160.67 488.148 160.57 486.119 161.296C484.357 161.921 483.32 163.172 482.532 164.408C480.841 167.066 477.434 182.211 480.961 183.732Z" fill="#FFCAAC"/>
<path d="M475.673 165.094C480.721 168.731 487.705 165.156 489.875 166.124C492.043 167.09 492.432 170.735 492.472 171.892C492.511 173.052 492.663 174.028 495.606 173.334C496.088 173.221 496.436 173.253 496.676 173.398C497.897 174.124 496.336 177.645 495.866 178.405C495.866 178.405 495.188 180.926 496.693 182.155C496.874 182.302 499.828 183.594 506.946 172.679C508.064 170.965 509.134 167.105 507.406 163.39C505.681 159.672 498.467 156.082 492.349 154.177C490.056 153.463 488.358 153.49 487.027 153.978C484.81 154.79 483.626 156.891 482.453 159C480.484 162.544 475.673 165.094 475.673 165.094Z" fill="#6D543F"/>
<path d="M508.15 271.29C508.15 271.29 505.708 271.82 502.617 272.342C499.595 272.85 495.951 273.35 493.38 273.33C480.214 273.227 469.198 269.343 469.198 269.343C466.724 269.343 465.591 265.503 465.187 260.142C464.913 256.513 464.972 252.184 465.167 247.883C465.231 246.488 465.312 245.092 465.397 243.726C465.571 241.017 465.774 238.415 465.958 236.115C466.132 233.954 466.288 232.063 466.381 230.594C466.381 230.592 466.029 220.324 466.168 211.293C466.266 204.809 469.898 198.906 470.805 197.945C473.441 195.152 481.076 193.386 482.605 193.141C482.723 193.124 482.784 193.114 482.784 193.114C489.063 196.648 497.518 191.873 497.518 191.873C497.708 191.905 497.897 191.952 498.083 191.991C498.704 191.858 505.05 192.8 506.528 193.607C510.179 195.601 512.3 217.725 512.3 217.725C512.91 232.755 512.144 256.822 513.33 266.008C513.72 269.039 510.798 270.677 508.15 271.29Z" fill="#D0ECFF"/>
<path d="M498.039 192.003C498.039 192.003 488.684 201.673 481.996 199.691C481.996 199.691 481.105 198.386 484.117 197.967C487.13 197.548 490.382 197.719 498.039 192.003Z" fill="#A8D2EE"/>
<path d="M503.168 228.584C503.168 228.584 489.582 251.356 481.874 255.365C476.661 258.075 469.364 259.502 465.185 260.145C464.91 256.515 464.969 252.187 465.165 247.886C470.686 247.214 479.096 246.144 479.096 246.144L503.168 228.584Z" fill="#A8D2EE"/>
<path d="M485.272 217.141L478.032 243.337C478.032 243.337 469.511 243.876 465.397 243.726C465.571 241.017 465.576 240.926 465.76 238.626C465.76 238.626 475.543 233.515 485.272 217.141Z" fill="#A8D2EE"/>
<path d="M441.668 245.276C441.668 245.276 439.236 242.317 437.927 241.902C436.618 241.488 434.085 239.523 433.757 240.333C433.427 241.142 435.458 242.39 435.352 243.315C435.245 244.239 428.892 245.725 428.931 246.704C428.97 247.682 430.426 250.049 432.849 249.776C435.272 249.504 441.419 248.043 442.681 248.675C443.939 249.308 441.668 245.276 441.668 245.276Z" fill="#FFCAAC"/>
<path d="M513.054 208.934C513.054 208.934 513.482 222.809 481.925 250.644L475.587 239.268C474.42 238.587 495.973 192.131 502.167 192.503C514.17 193.222 513.054 208.934 513.054 208.934Z" fill="#D0ECFF"/>
<path d="M479.363 237.915C479.363 237.915 443.477 242.027 442.148 242.741C440.819 243.454 437.968 246.238 438.918 249.727C438.918 249.727 457.496 252.067 467.715 252.025C476.531 251.988 482.236 250.571 482.236 250.571L479.363 237.915Z" fill="#D0ECFF"/>
<path d="M568.329 403H21.5911C21.2221 403 20.9185 402.711 20.9185 402.358V402.017C20.9185 401.664 21.2201 401.375 21.5911 401.375H568.329C568.699 401.375 569 401.664 569 402.017V402.358C569 402.711 568.699 403 568.329 403Z" fill="#2E3552"/>
</svg>
