<svg width="569" height="290" viewBox="0 0 569 290" fill="none" xmlns="http://www.w3.org/2000/svg">
<path d="M0.650634 286.301H568.349C568.707 286.301 569 286.016 569 285.667V285.438C569 285.089 568.707 284.803 568.349 284.803H0.650634C0.292591 284.803 0 285.089 0 285.438V285.667C0 286.016 0.292591 286.301 0.650634 286.301Z" fill="#2E3552"/>
<path d="M195.079 160.655C199.742 154.498 210.121 157.345 210.424 164.891C210.427 164.979 210.431 165.068 210.432 165.157C210.638 174.078 203.394 176.405 205.671 182.805C207.948 189.205 214.866 184.432 217.557 194.905C220.248 205.378 211.054 211.183 211.881 217.39C212.709 223.596 216.642 227.732 216.436 235.814C216.281 241.824 204.638 260.445 204.638 260.445C204.638 260.445 189.113 244.542 188.7 233.875C188.307 223.758 196.034 224.705 196.448 215.202C196.862 205.698 181.746 204.431 189.113 192.502C190.666 189.988 194.654 187.536 194.654 182.106C194.654 176.677 189.411 168.403 193.551 162.714C194.051 162.024 194.565 161.334 195.079 160.655Z" fill="#50BFA5"/>
<path d="M221.466 189.944C224.963 185.439 232.748 187.522 232.975 193.043C232.977 193.107 232.98 193.173 232.981 193.237C233.136 199.765 227.702 201.468 229.41 206.151C231.118 210.834 236.306 207.342 238.325 215.004C240.343 222.668 233.447 226.916 234.068 231.457C234.689 235.998 237.639 239.025 237.484 244.938C237.368 249.336 228.635 262.961 228.635 262.961C228.635 262.961 216.992 251.324 216.682 243.519C216.387 236.116 222.183 236.81 222.493 229.856C222.803 222.902 211.467 221.975 216.992 213.246C218.157 211.407 221.148 209.613 221.148 205.64C221.148 201.667 217.215 195.613 220.32 191.451C220.695 190.945 221.081 190.44 221.466 189.944Z" fill="#50BFA5"/>
<path d="M258.465 172.866C254.19 167.384 244.677 169.919 244.399 176.636C244.396 176.715 244.392 176.794 244.391 176.873C244.202 184.815 250.843 186.887 248.756 192.584C246.668 198.282 240.327 194.033 237.86 203.356C235.394 212.68 243.821 217.848 243.063 223.373C242.304 228.898 238.698 232.581 238.888 239.775C239.029 245.126 249.702 261.703 249.702 261.703C249.702 261.703 263.933 247.545 264.312 238.049C264.672 229.042 257.589 229.886 257.21 221.425C256.83 212.965 270.687 211.836 263.933 201.217C262.51 198.979 258.854 196.796 258.854 191.962C258.854 187.128 263.661 179.763 259.866 174.699C259.407 174.084 258.936 173.47 258.465 172.866Z" fill="#50BFA5"/>
<path d="M211.42 217.388C210.531 211.182 220.412 205.375 217.52 194.903C214.629 184.43 207.193 189.203 204.745 182.803C202.298 176.403 210.084 174.076 209.862 165.154C209.86 165.065 209.857 164.976 209.854 164.888C209.653 160.255 205.37 157.393 200.933 157.3L200.912 157.54C200.912 157.54 194.683 179.518 198.835 190.638C202.987 201.756 206.25 202.532 204.174 217.528C202.098 232.526 203.635 260.445 203.635 260.445C203.635 260.445 216.15 241.824 216.315 235.813C216.538 227.731 212.311 223.594 211.42 217.388Z" fill="#3C8F7C"/>
<path d="M233.722 231.456C233.055 226.914 240.466 222.666 238.297 215.003C236.129 207.34 230.551 210.832 228.716 206.149C226.88 201.466 232.72 199.764 232.554 193.236C232.552 193.17 232.55 193.106 232.547 193.041C232.397 189.651 229.184 187.556 225.856 187.489L225.841 187.665C225.841 187.665 221.17 203.746 224.283 211.882C227.397 220.017 229.844 220.585 228.288 231.558C226.73 242.532 227.883 262.961 227.883 262.961C227.883 262.961 237.27 249.335 237.393 244.937C237.561 239.023 234.39 235.997 233.722 231.456Z" fill="#3C8F7C"/>
<path d="M243.624 223.372C244.457 217.846 235.194 212.677 237.905 203.354C240.615 194.031 247.587 198.28 249.881 192.582C252.176 186.885 244.876 184.813 245.084 176.871C245.087 176.791 245.089 176.712 245.092 176.634C245.28 172.509 249.296 169.961 253.456 169.879L253.475 170.093C253.475 170.093 259.314 189.658 255.422 199.557C251.53 209.455 248.471 210.146 250.417 223.497C252.363 236.848 250.922 261.703 250.922 261.703C250.922 261.703 239.189 245.125 239.035 239.775C238.825 232.579 242.789 228.897 243.624 223.372Z" fill="#3C8F7C"/>
<path d="M225.898 283.672C243.858 283.672 258.418 269.477 258.418 251.968H193.377C193.377 269.477 207.938 283.672 225.898 283.672Z" fill="#F99746"/>
<path d="M216.294 283.428C217.616 283.589 218.966 283.67 220.334 283.67C238.294 283.67 252.853 269.475 252.853 251.966H244.774C244.774 268.143 232.348 281.489 216.294 283.428Z" fill="#FFAC6E"/>
<path d="M258.866 285.284H192.929C192.929 283.124 194.725 281.373 196.941 281.373H254.855C257.07 281.373 258.866 283.124 258.866 285.284Z" fill="#ED7D2B"/>
<path d="M259.159 251.966H192.309V252.938H259.159V251.966Z" fill="#ED7D2B"/>
<path opacity="0.6" d="M370.513 141.694L370.495 0L165.337 0.0242911L165.354 141.718L370.513 141.694Z" fill="#369EE4"/>
<path d="M168.049 139.092L367.817 139.068L367.8 2.62886L168.032 2.65251L168.049 139.092Z" fill="#D0ECFF"/>
<path d="M289.556 112.798L219.486 112.806C218.098 112.806 216.974 111.71 216.974 110.357C216.974 109.004 218.098 107.908 219.486 107.908L289.556 107.9C290.944 107.9 292.068 108.996 292.068 110.349C292.066 111.7 290.942 112.796 289.556 112.798Z" fill="#8EB2DD"/>
<path d="M289.558 127.194L219.486 127.201C218.098 127.201 216.974 126.105 216.974 124.752C216.974 123.399 218.098 122.303 219.486 122.303L289.556 122.296C290.944 122.296 292.068 123.392 292.068 124.745C292.068 126.096 290.944 127.192 289.558 127.194Z" fill="#8EB2DD"/>
<path d="M344.949 98.1548H182.763V99.4196H344.949V98.1548Z" fill="#8EB2DD"/>
<path d="M343.133 101.362V96.1936L350.404 98.7777L343.133 101.362Z" fill="#8EB2DD"/>
<path d="M190.317 23.2246L190.328 107.287L191.685 107.287L191.675 23.2245L190.317 23.2246Z" fill="#8EB2DD"/>
<path d="M188.224 25.6226H193.768L190.996 19.1895L188.224 25.6226Z" fill="#8EB2DD"/>
<path d="M207.466 115.392H207.047C204.531 115.392 202.49 113.402 202.49 110.95C202.49 108.497 204.529 106.508 207.047 106.508H207.466C209.982 106.508 212.023 108.495 212.023 110.95C212.023 113.402 209.984 115.392 207.466 115.392Z" fill="#2A4E96"/>
<path d="M207.468 128.149H207.049C204.533 128.149 202.492 126.16 202.492 123.707C202.492 121.254 204.531 119.265 207.049 119.265H207.468C209.984 119.265 212.025 121.252 212.025 123.707C212.025 126.16 209.986 128.149 207.468 128.149Z" fill="#F66819"/>
<path d="M336.315 27.062L327 27.8202L328.224 30.1735L298.988 43.5933L271.677 88.3475L239.443 61.4083L213.441 73.7022L213.366 73.7359L196.79 88.7885L197.547 89.5147L214.005 74.5673L239.272 62.6243L271.954 89.937L299.766 44.3628L328.698 31.0837L329.907 33.4069L336.315 27.062Z" fill="#699FF0"/>
<path d="M213.632 77.7744H213.322C211.46 77.7744 209.951 76.3031 209.951 74.4884C209.951 72.6737 211.46 71.2024 213.322 71.2024H213.632C215.493 71.2024 217.002 72.6737 217.002 74.4884C217 76.3031 215.493 77.7744 213.632 77.7744Z" fill="#2A4E96"/>
<path d="M299.379 47.9377H299.069C297.208 47.9377 295.698 46.4664 295.698 44.6517C295.698 42.837 297.208 41.3657 299.069 41.3657H299.379C301.24 41.3657 302.75 42.837 302.75 44.6517C302.75 46.4664 301.24 47.9377 299.379 47.9377Z" fill="#2A4E96"/>
<path d="M239.357 66.1411H239.047C237.186 66.1411 235.677 64.6698 235.677 62.8551C235.677 61.0404 237.186 59.5691 239.047 59.5691H239.357C241.218 59.5691 242.728 61.0404 242.728 62.8551C242.728 64.6698 241.218 66.1411 239.357 66.1411Z" fill="#2A4E96"/>
<path d="M271.816 91.5002H271.506C269.644 91.5002 268.135 90.0289 268.135 88.2142C268.135 86.3995 269.644 84.9282 271.506 84.9282H271.816C273.677 84.9282 275.186 86.3995 275.186 88.2142C275.186 90.0271 273.677 91.4983 271.816 91.5002Z" fill="#F66819"/>
<path d="M91.0083 65.1129C91.0083 65.1129 98.2712 73.5146 107.523 69.9997C107.523 69.9997 109.513 65.3081 109.54 61.8494C109.544 61.4234 109.548 61.0106 109.555 60.6184C109.605 56.7225 109.74 54.538 109.74 54.538C109.74 54.538 109.738 54.538 109.73 54.5362C109.309 54.3654 95.5897 48.8743 95.6012 49.3304C95.8361 59.8639 91.0083 65.1129 91.0083 65.1129Z" fill="#FFCAAC"/>
<path d="M96.9776 51.8413C98.3001 54.2321 102.841 58.9087 109.555 60.6183C109.605 56.7224 109.74 54.538 109.74 54.538C109.74 54.538 109.738 54.538 109.73 54.5362C109.351 54.4367 96.5849 51.1376 96.9776 51.8413Z" fill="#EEAE8A"/>
<path d="M112.614 54.1345C112.614 54.1345 97.1836 57.6701 95.0739 48.27C92.9622 38.868 89.5492 32.9923 99.3126 30.3387C109.074 27.6833 111.802 30.8604 113.288 33.8311C114.774 36.8 116.572 52.971 112.614 54.1345Z" fill="#FFCAAC"/>
<path d="M95.6013 50.8297C95.3915 50.9611 92.0709 51.9557 85.784 39.7444C84.7965 37.8284 84.1247 33.681 86.4251 30.0159C88.7254 26.3527 96.8833 23.4702 103.661 22.2166C110.439 20.963 112.065 24.6806 113.663 28.417C115.338 32.3392 120.177 35.5689 120.177 35.5689C114.333 38.7517 107.294 34.1989 104.855 34.9477C102.416 35.6965 101.555 39.4442 101.37 40.6452C101.188 41.8463 100.907 42.8446 97.84 41.7712C94.7736 40.6977 96.4541 46.0086 96.9449 47.0239C96.943 47.0277 97.3588 49.7319 95.6013 50.8297Z" fill="#2A2C33"/>
<path d="M55.8528 285.284H46.509C44.5513 285.284 42.3742 283.372 41.8295 279.872C41.2847 276.37 37.2577 274.46 36.3876 271.594C35.5156 268.728 39.9796 264.695 39.9796 264.695L40.7264 263.761L41.5022 262.787L48.9037 264.483C48.9037 264.483 49.0865 266.202 49.2001 268.391C49.279 269.971 49.3233 271.797 49.2309 273.399C49.0134 277.22 50.3281 281.334 53.8104 282.077C57.2946 282.82 55.8528 285.284 55.8528 285.284Z" fill="#FFCAAC"/>
<path d="M120.893 285.284H96.1288C95.892 285.239 95.711 285.188 95.6032 285.136C93.9497 284.329 94.4675 278.157 94.6658 276.25C94.7043 275.897 94.7312 275.689 94.7312 275.689C94.7312 275.689 103.44 268.899 104.637 274.097C104.676 274.259 104.718 274.418 104.766 274.576V274.578C106.277 279.442 113.036 281.653 116.939 282.268C119.921 282.743 120.695 284.438 120.893 285.284Z" fill="#FFCAAC"/>
<path d="M107.736 278.684C107.736 278.684 102.72 280.522 100.689 280.788C98.6586 281.054 95.979 278.81 94.5427 279.417C92.9607 280.084 92.8982 285.165 92.8982 286.089C94.3981 286.089 101.812 286.089 120.852 286.181C121.929 283.086 115.843 281.166 107.736 278.684Z" fill="#F66819"/>
<path d="M49.2881 273.065C49.2881 273.065 44.028 272.064 42.1562 271.252C40.2845 270.44 39.2106 267.16 37.6612 266.942C35.9556 266.7 35.4819 269.25 35.4819 269.879C35.302 270.164 34.9751 274.707 38.7075 275.539C38.9402 275.539 41.288 276.797 41.9332 279.942C42.2096 283.446 44.5137 284.973 46.3681 285.602C49.2881 285.602 53.5454 285.602 56.1259 285.602C56.771 282.458 54.8356 281.829 50.9649 279.942C49.8021 278.55 50.7963 274.761 49.2881 273.065Z" fill="#F66819"/>
<path d="M115.902 146.054C115.902 146.054 114.579 162.141 113.024 181.478C110.91 207.745 108.371 240.012 108.119 246.124C107.684 256.738 105.94 273.716 105.94 273.716C105.94 273.716 101.805 277.749 93.5319 276.051C93.5319 276.051 86.1574 251.814 84.0515 226.17C84.0188 225.75 83.9861 225.325 83.9534 224.903C81.9937 198.797 78.9465 143.827 78.9465 143.827L115.902 146.054Z" fill="#004F84"/>
<path d="M109.863 147.965C109.863 147.965 86.0245 206.225 70.3495 233.603C54.6746 260.982 49.7756 268.623 49.7756 268.623C49.7756 268.623 40.7957 265.121 39.9795 262.734C39.9795 262.734 45.9738 209.879 56.4706 196.994C62.4014 189.712 69.3697 167.865 69.697 160.223C70.0242 152.583 71.8202 137.459 71.8202 137.459L109.863 147.965Z" fill="#0069AF"/>
<path d="M55.4986 137.378L55.2464 141.126C55.2464 141.126 57.7816 147.783 50.6785 151.196C50.6785 151.196 47.639 152.392 47.5158 150.085C47.3926 147.779 47.7814 148.646 47.535 145.397C47.2886 142.149 48.5976 139.079 50.8017 138.043L52.6111 136.009L55.4986 137.378Z" fill="#FFCAAC"/>
<path d="M52.7247 140.107C55.3638 140.933 55.7853 140.747 55.7853 140.747C55.7853 140.747 68.6286 117.951 69.928 115.866C71.2293 113.78 97.195 90.3047 97.195 90.3047L90.5212 66.0454C90.5212 66.0454 60.9885 103.331 57.7988 108.681C52.5283 117.522 49.4407 138.054 49.4407 138.054C49.4407 138.054 50.6515 139.458 52.7247 140.107Z" fill="#F1CC61"/>
<path d="M72.5844 147.447C79.11 151.206 85.2699 153.994 92.423 155.466C100.899 157.265 111.253 156.496 114.726 156.922C115.097 156.963 115.44 156.866 115.74 156.669C115.994 156.513 117.359 146.319 118.66 133.419C118.695 133.122 118.73 132.809 118.755 132.497C118.772 132.289 118.785 132.079 118.789 131.878L118.812 131.696C118.955 130.356 119.091 128.99 119.218 127.609C119.538 124.167 119.815 120.633 120.071 117.109C120.096 116.773 120.121 116.435 120.144 116.098C120.547 110.411 120.843 104.81 120.936 99.827C120.937 99.7069 120.941 99.5887 120.941 99.4705C121.011 95.2987 120.939 91.5698 120.668 88.6085C120.612 87.9836 120.549 87.3981 120.472 86.8463C119.459 79.3679 115.746 74.1077 112.26 70.1555L108.851 66.3834C105.578 66.663 102.747 66.7775 99.5512 64.7789C96.0901 62.6151 93.8533 60.5771 93.1526 60.9599C87.7954 64.0151 81.9936 71.5311 79.087 81.7325C77.5239 87.2254 76.3593 93.407 75.6297 99.9152C75.3525 102.415 75.1389 104.956 74.9906 107.531C74.2322 121.345 72.0127 133.149 70.7269 140.01C70.3573 141.984 70.0666 143.553 69.9068 144.639C69.7451 145.625 71.7201 146.948 72.5844 147.447Z" fill="#FEDB76"/>
<path d="M159.35 145.671L194.038 46.275C194.197 45.8228 194.411 45.3893 193.949 45.226L193.528 45.0759C193.054 44.9088 192.915 45.2053 192.744 45.667L155.77 143.635C155.421 144.572 155.874 145.611 156.807 146.015L157.664 146.386C158.332 146.677 159.111 146.347 159.35 145.671Z" fill="#2A4E96"/>
<path d="M168.667 102.959C168.684 101.505 172.621 98.1397 172.883 98.5469C173.071 98.8397 172.663 100.367 172.444 101.009C174.08 99.9413 174.451 96.1711 177.214 94.4878C177.978 94.0205 180.704 101.309 178.12 103.955C175.537 106.6 174.297 106.305 169.995 108.752L166.879 108.957L165.339 104.235C165.339 104.235 167 103.642 168.667 102.959Z" fill="#FFCAAC"/>
<path d="M170.278 106.778C170.482 103.912 166.605 102.253 166.605 102.253C166.605 102.253 137.07 105.254 134.529 104.475C131.989 103.696 113.007 77.142 113.007 77.142C113.007 77.142 104.679 67.9859 97.861 70.0089C91.936 71.7655 89.6202 76.2713 88.831 80.5631C87.8916 85.6789 90.3094 90.8246 94.8542 93.542C105.053 99.6411 122.893 116.45 127.702 117.824C138.404 120.883 168.975 110.884 168.975 110.884C168.975 110.884 170.118 109.03 170.278 106.778Z" fill="#FEDB76"/>
<path d="M499.678 195.496C500.215 182.634 501.37 171.445 502.754 163.642C504.96 151.204 506.947 144.048 506.97 143.973C507.261 142.879 511.459 138.454 520.795 138.591C530.129 138.728 529.246 144.532 529.246 144.532C529.246 144.729 529.221 144.911 529.178 145.048C529.088 145.347 520.52 175.638 520.89 214.749C520.895 215.298 520.957 216.246 520.918 216.879C520.918 216.882 499.286 217.423 499.28 216.879C498.525 213.457 498.893 203.986 499.678 195.496Z" fill="#B7D3F3"/>
<path d="M496.957 214.553C496.962 215.098 497.259 215.535 497.619 215.535H497.626C497.986 215.527 498.273 215.09 498.277 214.553H516.816C516.822 215.098 517.119 215.535 517.478 215.535H517.486C517.852 215.527 518.143 215.077 518.139 214.525C518.031 203.329 518.685 192.876 519.677 183.649C522.141 160.639 526.697 145.26 526.763 145.048C526.803 144.911 526.83 144.729 526.83 144.532C526.83 144.532 527.715 138.728 518.381 138.591C509.045 138.454 504.847 142.881 504.556 143.975C504.539 144.033 503.415 148.085 501.919 155.37C501.424 157.783 500.889 160.551 500.341 163.644C498.957 171.447 497.802 182.636 497.265 195.498C496.479 203.986 496.204 211.136 496.957 214.553Z" fill="#D2E3FC"/>
<path d="M519.511 215.535H446.827C446.827 215.535 448.519 208.858 490.614 209.852C520.402 210.556 519.511 215.535 519.511 215.535Z" fill="#C5DCF8"/>
<path d="M525.427 285.284C516.999 243.692 519.167 218.17 519.176 217.847C519.197 217.207 517.987 216.625 517.336 216.605C516.676 216.593 513.767 216.415 513.432 216.963C512.991 217.682 511.293 249.127 523.854 285.282H525.427V285.284Z" fill="#B7D3F3"/>
<path d="M457.562 285.284C465.99 243.692 463.822 218.17 463.813 217.847C463.791 217.207 465.002 216.625 465.653 216.605C466.313 216.593 469.222 216.415 469.557 216.963C469.998 217.682 471.695 249.127 459.135 285.282H457.562V285.284Z" fill="#B7D3F3"/>
<path d="M444.113 285.284C452.54 243.692 450.373 218.17 450.363 217.847C450.342 217.207 451.553 216.625 452.203 216.605C452.863 216.593 455.772 216.415 456.107 216.963C456.548 217.682 458.246 249.127 445.685 285.282H444.113V285.284Z" fill="#B7D3F3"/>
<path d="M511.886 285.284C503.459 243.692 505.627 218.17 505.636 217.847C505.657 217.207 504.447 216.625 503.796 216.605C503.136 216.593 500.227 216.415 499.892 216.963C499.451 217.682 497.753 249.127 510.314 285.282H511.886V285.284Z" fill="#B7D3F3"/>
<path d="M446.782 217.667H519.467C520.285 217.667 520.957 217.014 520.957 216.214V215.261C520.957 214.463 520.287 213.81 519.469 213.81H446.784C445.966 213.81 445.294 214.463 445.294 215.263V216.216C445.294 217.014 445.964 217.667 446.782 217.667Z" fill="#B7D3F3"/>
<path d="M449.337 153.673L425.177 148.571L423.754 151.953C423.754 151.953 450.413 167.418 452.911 166.66C455.406 165.903 449.337 153.673 449.337 153.673Z" fill="#FFB27D"/>
<path d="M471.303 260.201C471.907 260.876 471.984 261.633 471.686 262.44C471.686 262.443 471.684 262.447 471.68 262.451C471.126 263.943 469.297 265.609 467.172 267.274C466.9 267.488 466.658 267.683 466.448 267.861C466.392 267.908 466.338 267.955 466.286 268.004C466.244 268.039 466.201 268.079 466.161 268.115C464.178 269.895 464.925 270.305 461.364 273.919C457.304 278.036 454.509 278.111 453.714 277.736C453.041 277.417 454.409 275.233 455.922 272.778C455.995 272.66 456.069 272.54 456.144 272.42C456.346 272.093 456.546 271.761 456.746 271.434C458.521 268.48 458.065 267.094 457.645 262.697C457.302 259.124 451.943 242.735 451.943 242.735L459.724 241.429C459.724 241.429 462.067 254.479 464.648 256.489C466.028 257.56 467.574 257.573 468.9 258.367C468.995 258.422 469.087 258.48 469.176 258.538C469.926 259.02 470.694 259.523 471.303 260.201Z" fill="#FFCAAC"/>
<path d="M471.302 260.201C471.907 260.876 471.984 261.633 471.686 262.44C471.686 262.443 471.684 262.447 471.68 262.451C471.002 263.941 469.218 265.6 467.164 267.257C466.896 267.475 466.66 267.674 466.448 267.859C466.392 267.906 466.338 267.953 466.286 268.002C466.244 268.038 466.201 268.077 466.161 268.113C464.178 269.894 464.925 270.303 461.364 273.917C457.304 278.035 454.509 278.11 453.714 277.734C453.04 277.415 454.409 275.231 455.922 272.776C456.713 272.495 460.384 271.04 463.16 267.578C465.605 264.536 467.235 260.629 468.9 258.365C468.994 258.42 469.087 258.478 469.175 258.536C469.926 259.02 470.694 259.523 471.302 260.201Z" fill="#F66819"/>
<path d="M408.564 255.464C408.083 257.806 404.661 257.416 400.836 256.504C397.011 255.592 397.919 256.676 392.478 256.089C387.034 255.502 385.386 253.524 385.219 252.734C385.07 252.034 387.759 251.786 390.645 251.463C391.007 251.424 391.373 251.381 391.736 251.336C394.993 250.938 397.378 248.888 400.337 247.205C403.14 245.612 407.323 239.117 407.323 239.117L414.788 239.693C414.788 239.693 410.871 245.494 409.356 248.016C408.464 249.498 408.512 251.461 408.622 252.976C408.68 253.798 408.736 254.638 408.564 255.464Z" fill="#FFCAAC"/>
<path d="M400.836 256.504C397.011 255.592 397.919 256.676 392.478 256.089C387.034 255.502 385.386 253.524 385.219 252.734C385.07 252.034 387.759 251.786 390.645 251.463L390.672 251.518C390.672 251.518 393.937 253.773 398.468 253.88C402.16 253.968 406.074 252.936 408.622 252.976C408.68 253.8 408.736 254.64 408.564 255.466C408.085 257.804 404.661 257.414 400.836 256.504Z" fill="#F66819"/>
<path d="M425.175 148.571C425.175 148.571 423.396 144.322 421.44 144.149C419.485 143.977 413.259 143.021 412.815 143.888C412.37 144.755 412.815 147.876 414.149 149.004C415.483 150.132 423.754 151.952 423.754 151.952L425.175 148.571Z" fill="#FFB27D"/>
<path d="M437.173 208.927L453.262 251.139C453.262 251.139 455.734 251.371 458.103 250.707C460.284 250.095 462.783 248.485 462.783 248.485C462.783 248.485 458.792 207.955 451.476 199.525C444.157 191.094 437.173 208.927 437.173 208.927Z" fill="#004F84"/>
<path d="M500.808 191.852C500.808 191.852 454.578 176.612 444.268 179.854C433.958 183.097 403.001 243.14 403.001 243.14C403.001 243.14 403.7 244.047 405.608 244.743C407.382 245.392 411.675 245.349 411.675 245.349C411.675 245.349 439.612 222.004 442.938 215.195C446.265 208.387 447.595 201.901 450.921 202.55C454.247 203.2 493.825 218.438 502.804 209.359C511.784 200.28 509.436 188.485 509.436 188.485L500.808 191.852Z" fill="#0069AF"/>
<path d="M472.558 120.956C471.82 119.47 470.995 116.831 470.59 112.126C470.652 112.594 471.485 118.528 473.824 121.887C483.439 128.04 501.867 148.588 501.501 152.482C501.501 152.482 507.992 141.749 508.104 141.685C508.104 141.685 520.077 126.841 505.886 118.338C498.674 114.016 498.71 108.471 499.012 103.653C499.316 98.8341 497.045 78.0953 482.596 83.5226C482.596 83.5226 480.279 82.5186 479.239 82.6687C479.239 82.6687 480.088 82.8263 480.519 83.2617C478.845 83.166 476.45 83.2861 474.452 84.3933C469.156 87.3247 464.415 113.65 472.558 120.956Z" fill="#2A2C33"/>
<path d="M474.394 122.193C474.346 122.213 479.037 124.587 482.564 123.647C485.882 122.765 488.05 118.571 488.005 118.561C486.6 118.289 486.194 116.407 486.225 108.317L485.59 108.439L474.906 110.499C474.906 110.499 475.149 113.776 475.156 116.865C475.164 119.456 475.002 121.915 474.394 122.193Z" fill="#FFCAAC"/>
<path d="M474.906 110.499C474.906 110.499 475.149 113.776 475.156 116.865C481.133 116.7 484.294 111.385 485.588 108.437L474.906 110.499Z" fill="#EEAE8A"/>
<path d="M486.693 107.303C486.693 107.303 489.824 102.479 490.577 98.3518C491.114 95.4055 489.574 84.4872 478.319 86.0598C478.319 86.0598 475.05 86.3732 471.976 88.3962C469.533 90.0045 466.005 93.48 469.949 103.008L470.973 106.226L486.693 107.303Z" fill="#2A2C33"/>
<path d="M472.91 113.423C472.91 113.423 487.053 113.65 487.062 105.063C487.072 96.4732 488.904 90.7194 479.874 90.2108C470.844 89.7023 469.087 92.977 468.369 95.8445C467.649 98.7082 469.231 113.141 472.91 113.423Z" fill="#FFCAAC"/>
<path d="M473.434 89.999C473.434 89.999 477.307 100.075 483.249 101.565C489.191 103.055 491.769 101.503 491.769 101.503C491.769 101.503 489.594 96.3195 488.648 90.1566C488.648 90.1566 476.354 85.2023 473.434 89.999Z" fill="#2A2C33"/>
<path d="M474.392 90.817C474.392 90.817 471.501 93.0671 470.794 95.2534C470.09 97.4397 469.772 101.944 468.427 101.79C468.427 101.79 465.509 94.94 468.789 91.0666C472.265 86.9587 474.392 90.817 474.392 90.817Z" fill="#2A2C33"/>
<path d="M505.888 159.286C507.284 153.583 502.537 142.519 497.584 133.357C493.089 125.053 488.423 118.317 488.005 118.56C476.151 125.419 475.079 119.716 475.079 119.716V119.717C475.075 119.717 464.311 121.11 461.262 126.228C457.479 132.576 453.395 150.316 449.335 153.673C449.959 155.533 449.691 156.524 449.031 158.827C448.888 159.32 448.732 159.789 448.561 160.234C447.949 161.856 447.185 163.171 446.524 164.312C448.588 165.534 452.571 167.859 455.506 166.187C459.98 163.635 463.472 155.862 465.437 152.767C465.445 152.756 465.453 152.744 465.458 152.731C469.73 176.298 463.922 181.665 466.862 184.152C469.967 186.775 474.402 182.902 484.157 187.025C490.556 189.731 499.438 193.644 505.415 194.325C508.55 194.684 510.889 194.153 511.652 192.088C513.869 186.09 503.226 170.158 505.888 159.286Z" fill="#50BFA5"/>
<path d="M511.653 192.088C510.891 194.152 508.55 194.683 505.417 194.325C501.28 192.567 483.405 185.816 483.605 181.243C483.901 174.47 487.041 174.254 484.825 165.894C483.045 159.181 499.561 146.701 502.194 143.988C507.147 153.15 507.284 153.583 505.89 159.284C503.226 170.158 513.869 186.09 511.653 192.088Z" fill="#3C8F7C"/>
<path d="M513.673 167.662C510.502 163.323 507.201 161.028 505.028 159.874C505.528 158.618 491.696 142.085 491.696 139.522C491.696 136.928 488.005 118.558 488.005 118.558C488.005 118.558 499.532 119.252 503.522 124.677C508.512 131.465 518.878 157.579 513.673 167.662Z" fill="#50BFA5"/>
<path d="M505.028 159.874L481.994 165.733L484.156 169.516C484.156 169.516 512.187 169.325 513.671 167.662C515.159 165.999 505.028 159.874 505.028 159.874Z" fill="#FFCAAC"/>
<path d="M465.437 152.769C463.472 155.863 459.982 163.636 455.506 166.189C452.571 167.859 448.588 165.536 446.524 164.314C447.185 163.171 447.951 161.856 448.561 160.236C450.207 160.604 452.217 161.073 453.512 161.454C456.034 162.195 465.437 152.769 465.437 152.769Z" fill="#82B378"/>
<path d="M481.996 165.733C481.996 165.733 474.762 163.738 473.039 164.203C471.316 164.67 465.412 168.48 466.244 169.514C467.074 170.548 472.275 168.895 474.667 169.208C477.06 169.522 478.91 170.672 480.635 170.424C482.358 170.175 484.159 169.516 484.159 169.516L481.996 165.733Z" fill="#FFCAAC"/>
<path d="M481.996 165.732C481.996 165.732 478.458 163.961 477.451 162.951C477.324 162.824 477.108 162.85 477.012 163C476.743 163.415 476.49 164.216 477.732 165.012C479.516 166.158 481.996 165.732 481.996 165.732Z" fill="#FFCAAC"/>
<path d="M448.569 175.654H482.315C482.315 174.206 481.11 173.033 479.626 173.033H448.571V175.654H448.569Z" fill="#ED7D2B"/>
<path d="M448.665 139.824H396.491L409.005 175.654H461.518L448.665 139.824Z" fill="#ED7D2B"/>
<path d="M395.721 139.824L408.239 175.653H460.75L447.897 139.824H395.721Z" fill="#F66819"/>
<path d="M423.853 157.408C424.176 158.778 425.577 159.887 426.982 159.887C428.388 159.887 429.262 158.778 428.938 157.408C428.615 156.04 427.214 154.929 425.808 154.929C424.403 154.929 423.527 156.038 423.853 157.408Z" fill="#F9DDBF"/>
<path d="M395.721 139.824L408.237 175.653H443.014C419.978 167.986 413.845 144.615 412.817 139.824H395.721Z" fill="#DD611B"/>
<path d="M547.19 285.284C546.53 285.284 545.966 284.832 545.852 284.214L539.3 248.005L529.873 195.926L527.238 181.363L533.952 181.176L535.117 189.63L543.296 249.039L548.145 284.252C548.22 284.8 547.772 285.284 547.19 285.284Z" fill="#86C5EF"/>
<path d="M535.12 189.633C530.772 191.504 529.876 195.929 529.876 195.929L527.241 181.366L533.955 181.179L535.12 189.633Z" fill="#78ACEA"/>
<path d="M380.208 285.284C380.868 285.284 381.432 284.832 381.544 284.214L388.096 248.005L397.523 195.926L400.158 181.363L393.444 181.176L392.279 189.63L384.1 249.039L379.251 284.252C379.178 284.8 379.626 285.284 380.208 285.284Z" fill="#86C5EF"/>
<path d="M392.279 189.632C396.628 191.503 397.521 195.928 397.521 195.928L400.156 181.365L393.442 181.177L392.279 189.632Z" fill="#78ACEA"/>
<path d="M551.669 187.081H379.75C377.497 187.081 375.655 185.285 375.655 183.09V179.639C375.655 177.443 377.497 175.647 379.75 175.647H551.669C553.922 175.647 555.764 177.443 555.764 179.639V183.09C555.764 185.285 553.922 187.081 551.669 187.081Z" fill="#86C5EF"/>
</svg>
