<svg width="60" height="60" viewBox="0 0 60 60" fill="none" xmlns="http://www.w3.org/2000/svg">
<path d="M46.3128 39.7123C46.4826 41.0773 47.0245 42.3693 47.8792 43.447C48.734 44.5247 49.8686 45.3466 51.1591 45.8227C52.4495 46.2989 53.8461 46.411 55.196 46.1469C56.5458 45.8827 57.7971 45.2523 58.8128 44.3248V58.7498H39.3253C40.2951 57.6722 40.9317 56.3366 41.1582 54.9046C41.3847 53.4727 41.1913 52.0057 40.6015 50.6814C40.0116 49.3571 39.0506 48.2321 37.8347 47.4426C36.6187 46.6531 35.2001 46.2329 33.7503 46.2329C32.3006 46.2329 30.8819 46.6531 29.666 47.4426C28.45 48.2321 27.489 49.3571 26.8991 50.6814C26.3093 52.0057 26.1159 53.4727 26.3424 54.9046C26.5689 56.3366 27.2055 57.6722 28.1753 58.7498H13.7503V44.3248C12.6727 45.2946 11.337 45.9312 9.90509 46.1577C8.47314 46.3842 7.00624 46.1908 5.68191 45.601C4.35758 45.0111 3.23259 44.0501 2.44308 42.8342C1.65358 41.6182 1.2334 40.1996 1.2334 38.7498C1.2334 37.3001 1.65358 35.8814 2.44308 34.6655C3.23259 33.4496 4.35758 32.4885 5.68191 31.8987C7.00624 31.3088 8.47314 31.1154 9.90509 31.3419C11.337 31.5684 12.6727 32.2051 13.7503 33.1748V13.7498H28.1753C27.2055 12.6722 26.5689 11.3366 26.3424 9.9046C26.1159 8.47265 26.3093 7.00575 26.8991 5.68142C27.489 4.35709 28.45 3.2321 29.666 2.44259C30.8819 1.65309 32.3006 1.23291 33.7503 1.23291C35.2001 1.23291 36.6187 1.65309 37.8347 2.44259C39.0506 3.2321 40.0116 4.35709 40.6015 5.68142C41.1913 7.00575 41.3847 8.47265 41.1582 9.9046C40.9317 11.3366 40.2951 12.6722 39.3253 13.7498H58.7503V33.1748C57.6108 32.1566 56.1873 31.5107 54.6706 31.3238C53.1539 31.1368 51.6162 31.4176 50.2635 32.1287C48.9108 32.8397 47.8076 33.947 47.1015 35.3023C46.3955 36.6576 46.1203 38.1963 46.3128 39.7123Z" fill="#F56819"/>
<path d="M46.3135 39.7123C46.4833 41.0773 47.0252 42.3693 47.8799 43.447C48.7346 44.5247 49.8693 45.3466 51.1597 45.8227C52.4502 46.2989 53.8467 46.411 55.1966 46.1469C56.5465 45.8827 57.7977 45.2523 58.8135 44.3248V56.2498C52.7138 56.2607 46.6884 54.9113 41.176 52.2998C40.9809 51.3124 40.589 50.3743 40.0238 49.5415C39.4585 48.7087 38.7314 47.9982 37.8857 47.4523C37.0401 46.9064 36.0932 46.5364 35.1015 46.3641C34.1099 46.1919 33.0937 46.221 32.1135 46.4498C23.026 38.8623 17.501 27.7873 17.501 13.7498H28.176C27.2062 12.6722 26.5696 11.3366 26.3431 9.9046C26.1166 8.47265 26.31 7.00575 26.8998 5.68142C27.4897 4.35709 28.4507 3.2321 29.6666 2.44259C30.8825 1.65309 32.3012 1.23291 33.751 1.23291C35.2007 1.23291 36.6194 1.65309 37.8353 2.44259C39.0512 3.2321 40.0123 4.35709 40.6021 5.68142C41.192 7.00575 41.3854 8.47265 41.1589 9.9046C40.9324 11.3366 40.2957 12.6722 39.326 13.7498H58.751V33.1748C57.6114 32.1566 56.188 31.5107 54.6713 31.3238C53.1546 31.1368 51.6169 31.4176 50.2642 32.1287C48.9115 32.8397 47.8082 33.947 47.1022 35.3023C46.3961 36.6576 46.1209 38.1963 46.3135 39.7123Z" fill="#FF9C65"/>
</svg>
