<svg width="80" height="81" fill="none" xmlns="http://www.w3.org/2000/svg"><g clip-path="url(#clip0)"><path d="M30.585 72.293l-4.833 2.975-9.084 5.59c-.74.456-1.634-.297-1.308-1.104l3.268-8.103 1.66-4.12 10.297 4.762zm33.23 8.566l-9.016-5.55-4.9-3.016 10.296-4.762 1.697 4.208 3.232 8.015c.324.807-.569 1.56-1.31 1.105z" fill="#F56819"/><path d="M76.302 37.656c0 19.867-16.105 35.973-35.972 35.973S4.357 57.523 4.357 37.656c0-19.867 16.106-35.972 35.973-35.972 19.867 0 35.972 16.105 35.972 35.972z" fill="#FF9C65"/><path opacity=".5" d="M20.289 67.531l10.296 4.762-4.833 2.975a40.177 40.177 0 01-7.124-3.616l1.66-4.12zm41.603 4.209a39.95 39.95 0 01-7.093 3.568l-4.9-3.015 10.296-4.762 1.697 4.208z" fill="#2A2C33"/><path d="M76.302 37.657c0 19.867-16.105 35.971-35.973 35.971-13.307 0-24.925-7.226-31.148-17.969a35.73 35.73 0 009.264 3.752c5.59 5.624 13.33 9.104 21.884 9.104 17.043 0 30.86-13.816 30.86-30.858 0-8.553-3.481-16.294-9.103-21.882a35.67 35.67 0 00-3.754-9.267c10.743 6.221 17.97 17.841 17.97 31.149z" fill="#F56819"/><path d="M71.188 37.656c0 17.042-13.816 30.858-30.858 30.858-8.554 0-16.296-3.48-21.885-9.103 2.798.7 5.726 1.071 8.739 1.071 3.28 0 6.46-.439 9.48-1.262a22 22 0 004.215.405c12.133 0 21.969-9.836 21.969-21.969 0-1.755-.206-3.462-.595-5.099.592-2.587.904-5.28.904-8.047 0-3.012-.37-5.939-1.07-8.736 5.621 5.589 9.101 13.33 9.101 21.882z" fill="#F8F9FB"/><path d="M63.157 24.51c0 19.868-16.106 35.972-35.973 35.972a35.98 35.98 0 01-8.74-1.071c-5.545-5.58-8.973-13.266-8.973-21.755 0-17.042 13.816-30.858 30.859-30.858 8.489 0 16.176 3.428 21.756 8.977.7 2.796 1.07 5.724 1.07 8.735z" fill="#fff"/><path d="M62.848 37.656c0 12.134-9.836 21.97-21.97 21.97a22 22 0 01-4.215-.406c12.721-3.465 22.636-13.736 25.59-26.662.389 1.636.595 3.344.595 5.098z" fill="#F56819"/><path d="M62.253 32.557C59.3 45.483 49.385 55.754 36.663 59.22 26.547 57.255 18.91 48.347 18.91 37.656c0-12.133 9.835-21.969 21.969-21.969 10.378 0 19.075 7.195 21.374 16.87z" fill="#FF9C65"/><path d="M53.475 37.656c0 7.26-5.886 13.146-13.146 13.146-7.26 0-13.145-5.886-13.145-13.146 0-7.26 5.885-13.145 13.145-13.145s13.146 5.885 13.146 13.145z" fill="#fff"/><path d="M44.133 37.656a3.803 3.803 0 11-7.607 0 3.803 3.803 0 017.607 0z" fill="#FF9C65"/><path d="M40.33 38.872c-.312 0-.622-.12-.86-.356L4.106 3.15a1.215 1.215 0 011.718-1.718L41.19 36.797a1.216 1.216 0 01-.86 2.075z" fill="#FFEE92"/><path d="M9.457 7.9H4.983a1.215 1.215 0 110-2.43h3.26V2.212a1.215 1.215 0 112.43 0v4.475c0 .67-.544 1.214-1.216 1.214z" fill="#FFEE92"/><path d="M13.244 11.688h-5.02a1.216 1.216 0 010-2.43h3.806V5.452a1.215 1.215 0 112.43 0v5.02c0 .672-.544 1.216-1.216 1.216z" fill="#FFEE92"/></g><defs><clipPath id="clip0"><path fill="#fff" transform="translate(0 .996)" d="M0 0h80v80H0z"/></clipPath></defs></svg>