<svg width="80" height="81" fill="none" xmlns="http://www.w3.org/2000/svg"><g clip-path="url(#clip0)"><path d="M41.616 18.632l-1.563-8.347c0-.89-.724-1.61-1.617-1.61h-8.314a.532.532 0 01-.529-.502C29.335 4.166 25.99.996 21.902.996c-4.088 0-7.434 3.17-7.692 7.177a.532.532 0 01-.528.501H5.367c-.893 0-1.617.721-1.617 1.611v32.939c0 .89.724 1.611 1.617 1.611l19.115 1.563 15.574-1.563s-.003-.721-.003-1.61l1.563-8.348V18.632z" fill="#FFEE92"/><path d="M50.055 8.674h-8.38c-.893 0-1.617.721-1.617 1.611v8.281a.53.53 0 01-.503.526c-4.023.259-7.205 3.59-7.205 7.663 0 4.071 3.182 7.403 7.205 7.662a.53.53 0 01.503.526v9.892l18.279 1.719 16.406-1.719c.894 0 1.618-.721 1.618-1.611V10.285c0-.89-.724-1.61-1.618-1.61h-8.38a.459.459 0 00-.457.434c-.227 4.038-3.586 7.243-7.696 7.243-4.111 0-7.47-3.205-7.696-7.242a.46.46 0 00-.46-.436z" fill="#FF9C65"/><path d="M36.933 54.793l3.125-9.958h9.932a.53.53 0 00.528-.5c.258-4.008 3.604-7.178 7.692-7.178s7.433 3.17 7.692 7.177c.018.28.246.501.528.501h8.314c.893 0 1.617.721 1.617 1.61v32.94c0 .89-.724 1.611-1.617 1.611H41.675a1.614 1.614 0 01-1.617-1.611l-3.125-8.347V54.793z" fill="#F56819"/><path d="M30.056 80.996h8.38c.893 0 1.617-.721 1.617-1.61v-8.282c0-.281.222-.508.503-.527 4.023-.257 7.205-3.59 7.205-7.661 0-4.073-3.182-7.404-7.205-7.662a.531.531 0 01-.503-.526v-8.282c0-.89.003-1.61.003-1.61H5.367c-.893 0-1.617.72-1.617 1.61v32.94c0 .889.724 1.61 1.617 1.61h8.38a.459.459 0 00.458-.435c.227-4.038 3.586-7.243 7.697-7.243 4.11 0 7.469 3.205 7.696 7.243a.459.459 0 00.458.435z" fill="#FFDD76"/><path d="M57.551 71.753l-.07-.001-.053-.004a1.208 1.208 0 01.207-2.406 1.208 1.208 0 01-.084 2.411zm-.001-1.387l-.016.179.016-.179zm-4.705.294c-.14 0-.28-.025-.419-.075a1.203 1.203 0 01-.744-1.533c.217-.63.91-.964 1.54-.747.008.003.032.01.04.014a1.208 1.208 0 01-.417 2.34zm9.135-.342a1.207 1.207 0 01-.834-2.08 1.208 1.208 0 011.69 1.724l-.012.011c-.235.23-.54.345-.844.345zm-13.572-1.59a1.2 1.2 0 01-.56-.138l-.02-.011a1.207 1.207 0 011.135-2.13l-.568 1.065.576-1.062a1.207 1.207 0 01-.563 2.276zm-25.234-2.594c-.62 0-1.153-.472-1.209-1.1a1.2 1.2 0 011.088-1.309h.016a1.207 1.207 0 11.105 2.409zm21.193-.056c-.268 0-.537-.089-.762-.271a1.208 1.208 0 011.5-1.892l.025.02a1.207 1.207 0 01-.763 2.143zm19.808-.01a1.209 1.209 0 01-1.174-1.492l.197.048.98.22 1.175.277-.005.023a1.209 1.209 0 01-1.173.924zm-45.653-1.019a1.21 1.21 0 01-.56-.138l-.021-.012a1.207 1.207 0 111.136-2.13l-.568 1.065.575-1.061a1.207 1.207 0 01-.562 2.276zm9.059-.752a1.207 1.207 0 01-.67-2.212l.669 1.005-.664-1.009a1.208 1.208 0 011.355 1.998l-.022.015a1.204 1.204 0 01-.668.203zm13.14-1.404a1.2 1.2 0 01-.769-.278l-.021-.018a1.208 1.208 0 011.56-1.843l-.78.922.784-.918a1.209 1.209 0 01-.774 2.135zM14.795 62a1.214 1.214 0 01-.772-2.147 1.2 1.2 0 011.69.157l.017.02a1.207 1.207 0 01-.935 1.97zm16.89-.267a1.207 1.207 0 01-.5-2.306 1.207 1.207 0 011.04 2.179l-.044.02c-.161.073-.33.107-.496.107zm-.1-1.428l.1.221-.1-.22zm32.713.961a1.212 1.212 0 01-1.19-1 1.207 1.207 0 112.372-.454 1.204 1.204 0 01-1.182 1.454zm-.136 4.801c-.56 0-1.062-.392-1.183-.96l-.008-.04a1.207 1.207 0 012.372-.454 1.205 1.205 0 01-1.181 1.454zM36.41 60.904a1.208 1.208 0 11.09-2.411l.05.005a1.206 1.206 0 01-.14 2.406zm-23.766-3.191c-.572 0-1.08-.408-1.187-.991a1.21 1.21 0 01.96-1.416 1.205 1.205 0 011.411.957l.005.026a1.208 1.208 0 01-1.19 1.424zm49.574-.776c-.364 0-.724-.165-.961-.477l-.03-.041a1.207 1.207 0 011.956-1.415 1.208 1.208 0 01-.965 1.933zm-48.593-3.821a1.205 1.205 0 01-.99-1.893l.017-.026a1.208 1.208 0 011.965 1.404l-.982-.702.98.706a1.21 1.21 0 01-.99.51zm45.673-.037c-.41 0-.809-.209-1.035-.584l-.018-.03a1.207 1.207 0 112.086-1.216 1.207 1.207 0 01-1.033 1.83zm-42.147-3.26a1.206 1.206 0 01-.743-2.16l.013-.009a1.207 1.207 0 111.483 1.906l-.013.01a1.21 1.21 0 01-.74.254zm41.07-1.364a1.207 1.207 0 01-1.202-1.33l.002-.018a1.208 1.208 0 012.401.248v.016a1.208 1.208 0 01-1.2 1.084zM20.666 46.51a1.204 1.204 0 01-.998-1.881l.017-.025a1.207 1.207 0 111.982 1.38l-.99-.69.988.693c-.235.34-.614.523-.999.523zm39.679-2.308a1.208 1.208 0 01-.93-1.976l.93.768-.926-.774a1.208 1.208 0 011.872 1.525l-.016.02a1.204 1.204 0 01-.93.437zm-38.893-2.29a1.205 1.205 0 01-1.161-.883 1.206 1.206 0 112.317-.677l-1.159.338 1.16-.334a1.21 1.21 0 01-1.157 1.555zm41.371-1.83a1.207 1.207 0 01-1.144-1.594l1.144.387-1.142-.393a1.21 1.21 0 011.526-.766c.631.208.976.887.768 1.52l-.009.026c-.17.503-.64.82-1.143.82zM18.78 37.934c-.321 0-.642-.127-.88-.38a1.203 1.203 0 01.021-1.705 1.211 1.211 0 011.71.021l.029.03a1.207 1.207 0 01-.88 2.034zM63.463 35.3a1.2 1.2 0 01-1.205-1.164v-.016a1.207 1.207 0 112.413-.072 1.214 1.214 0 01-1.17 1.25c-.013.002-.025.002-.037.002zm-47.945-.946a1.203 1.203 0 01-1.013-.55 1.207 1.207 0 012.01-1.34l-1.005.67 1.008-.664a1.21 1.21 0 01-1 1.884zm47.071-3.797a1.2 1.2 0 01-1.131-.796l-.008-.02a1.207 1.207 0 112.276-.806 1.213 1.213 0 01-1.137 1.622zm-47.698-.788a1.207 1.207 0 01-1.115-1.668 1.208 1.208 0 112.231.921 1.207 1.207 0 01-1.116.747zm45.244-3.342a1.202 1.202 0 01-.89-.393 1.207 1.207 0 111.758-1.653l.011.012a1.207 1.207 0 01-.88 2.034zm-4.187-2.215c-.322 0-.643-.127-.88-.38l-.011-.012a1.207 1.207 0 011.76-1.653l.01.011a1.207 1.207 0 01-.88 2.034zm-37.872 1.995a1.207 1.207 0 01-.67-2.212 1.214 1.214 0 011.677.326c.37.552.233 1.295-.316 1.668l-.023.015a1.206 1.206 0 01-.668.203zm37.88-2.006c-.06 0-.119-.004-.179-.013l.178-1.194-.184 1.193.169-1.195.178-1.195c.66.1 1.122.715 1.023 1.374a1.202 1.202 0 01-1.185 1.03zm-4.831-.233h-.035a1.207 1.207 0 01.017-2.415h.035a1.207 1.207 0 01-.017 2.415zm-28.777-.023c-.46 0-.897-.265-1.099-.713a1.21 1.21 0 01.608-1.599l.036-.016a1.208 1.208 0 01.951 2.22l-.476-1.11.474 1.11a1.194 1.194 0 01-.494.108zm24.006-.076h-.036l-.033-.002a1.207 1.207 0 01.105-2.413 1.208 1.208 0 01-.036 2.415zm-4.837-.23l-.073-.003-.033-.002a1.207 1.207 0 01.177-2.408 1.207 1.207 0 01-.071 2.412zm-4.828-.377a1.3 1.3 0 01-.108-.005l-.033-.003a1.206 1.206 0 11.247-2.402 1.207 1.207 0 01-.106 2.41zm-4.822-.457a1.3 1.3 0 01-.108-.004l.107-1.203-.11 1.202a1.211 1.211 0 01-1.106-1.299 1.204 1.204 0 011.288-1.109l.034.003a1.207 1.207 0 01-.105 2.41zm-4.854-.1a1.208 1.208 0 01-.104-2.41 1.213 1.213 0 011.316 1.095 1.2 1.2 0 01-1.09 1.308l-.017.001a.923.923 0 01-.105.005z" fill="#fff"/></g><defs><clipPath id="clip0"><path fill="#fff" transform="translate(0 .996)" d="M0 0h80v80H0z"/></clipPath></defs></svg>