<svg width="52" height="52" fill="none" xmlns="http://www.w3.org/2000/svg"><path d="M.387 8.191A8.191 8.191 0 018.699.001c4.435.064 8.042 3.701 8.07 8.138a8.171 8.171 0 01-2.807 6.226.356.356 0 00.052.574l1.543.913c.25.148.145.53-.145.53l-6.99-.001A8.191 8.191 0 01.388 8.19z" fill="#FFEE92"/><path d="M15.557 15.852l-1.543-.913a.355.355 0 01-.055-.572 8.172 8.172 0 002.81-6.308C16.698 3.705 13.174.13 8.821.004a8.255 8.255 0 00-1.8.144c3.762.721 6.63 4.037 6.655 7.99a8.155 8.155 0 01-1.722 5.078c-.658.846-.444 2.072.478 2.617l.032.02c.247.145.147.52-.136.529h3.083c.29 0 .395-.382.145-.53z" fill="#FFDD76"/><path d="M40.3 29.733H21.716c-4.642 0-7.181-5.409-4.217-8.98l.165-.199a8.765 8.765 0 002.02-5.598v-3.584C19.685 5.092 24.777 0 31.058 0c6.28 0 11.372 5.092 11.372 11.372v3.705a8.77 8.77 0 002.06 5.646c3.002 3.564.469 9.01-4.19 9.01z" fill="#7C6D61"/><path d="M50.067 38.942v12.285H11.95V39.035a6.86 6.86 0 014.197-6.323l6.154-2.675 2.072-.9a4.306 4.306 0 002.589-3.95v-.795h8.093v.755a4.306 4.306 0 002.61 3.957l8.323 3.568a6.858 6.858 0 014.08 6.27z" fill="#fff"/><path d="M22.3 32.966a29.499 29.499 0 0017.417-.163l1.003-2.39-3.056-1.31a4.306 4.306 0 01-2.61-3.957v-.754h-8.093v.796a4.306 4.306 0 01-2.588 3.948l-2.475 1.076.402 2.754z" fill="#FFCAAC"/><path d="M45.987 32.671l-6.27-2.687v21.243h10.35V38.942a6.86 6.86 0 00-4.08-6.27zM22.3 30.037v21.19H11.95V39.035a6.86 6.86 0 014.197-6.323l6.154-2.675z" fill="#F56819"/><path opacity=".15" d="M33.813 28.835c.932 0 1.819-.187 2.628-.524a4.305 4.305 0 01-1.386-3.164v-.754H26.96v.794c0 .62-.133 1.217-.377 1.76a6.805 6.805 0 004.71 1.888h2.52z" fill="#2A2C33"/><path d="M39.097 12.217v6.696a6.83 6.83 0 01-6.83 6.83h-2.519a6.83 6.83 0 01-6.83-6.83v-6.696a4.443 4.443 0 014.444-4.443h7.292a4.443 4.443 0 014.443 4.443z" fill="#FFCAAC"/><path d="M39.097 15.7l-.01.029c-.247.852-.894 2.463-2.46 3.67a6.879 6.879 0 01-2.472 1.208.773.773 0 00.392 1.495 8.423 8.423 0 003.024-1.478 8.28 8.28 0 001.522-1.531c.001-.06.004-.12.004-.18v-3.212z" fill="#B59F8E"/><path d="M33.307 22.744h-1.811a1.493 1.493 0 010-2.986h1.811a1.493 1.493 0 110 2.986z" fill="#7C6D61"/><path d="M32.622 6.002c.173-2.188 2.268-3.64 4.272-4.391a11.366 11.366 0 015.536 9.761v.782a9.203 9.203 0 01-3.233.1c-4.14-.552-6.785-3.61-6.575-6.252z" fill="#6D543F"/><path d="M31.058 0c2.568 0 4.937.852 6.841 2.288-.95 1.652-3.13 4.92-7.22 7.338a20.126 20.126 0 01-7.66 2.627h-3.333v-.88C19.686 5.091 24.777 0 31.058 0z" fill="#7C6D61"/><path d="M43.77 51.227H19.024L17.66 38.35a1.546 1.546 0 011.537-1.709h24.401c.918 0 1.634.796 1.538 1.71L43.77 51.226z" fill="#F8F9FB"/><path d="M43.598 36.642h-3.092c.918 0 1.634.796 1.537 1.71l-1.365 12.875h3.092l1.365-12.876a1.546 1.546 0 00-1.537-1.709z" fill="#DFE2E6"/><path d="M51.238 52H.762a.762.762 0 110-1.523h50.476a.762.762 0 110 1.523zm-19.841-5.9a2.165 2.165 0 100-4.33 2.165 2.165 0 000 4.33z" fill="#C1C5CB"/><path d="M5.486 8.964a.773.773 0 100-1.546.773.773 0 000 1.546zm3.092 0a.773.773 0 100-1.546.773.773 0 000 1.546zm3.092 0a.773.773 0 100-1.546.773.773 0 000 1.546z" fill="#F56819"/></svg>