<svg width="52" height="52" fill="none" xmlns="http://www.w3.org/2000/svg"><path d="M22.028 51.024a3.332 3.332 0 01-4.712 0L.976 34.684a3.332 3.332 0 010-4.712L27.922 3.025a3.332 3.332 0 013.264-.85L43.92 5.782a3.332 3.332 0 012.298 2.298l3.605 12.735a3.331 3.331 0 01-.85 3.264L22.028 51.024z" fill="#FF9C65"/><path d="M49.824 20.814L46.22 8.08a3.332 3.332 0 00-2.299-2.298L31.186 2.176a3.332 3.332 0 00-3.264.85l-.689.688c7.098 5.603 9.76 18.298 5.869 31.276a42.378 42.378 0 01-3.628 8.589l19.5-19.501a3.332 3.332 0 00.85-3.264z" fill="#FF9C65"/><path d="M46.187 22.154L20.114 48.226a.625.625 0 01-.884 0L3.774 32.77a.625.625 0 010-.883L29.846 5.813a1.041 1.041 0 011.02-.265l11.587 3.28c.348.099.62.37.718.719l3.281 11.587c.103.363.001.753-.265 1.02z" fill="#F56819"/><path d="M29.782 33.143l-2.673-.17c.603-.988.5-2.272-.324-3.096a2.428 2.428 0 00-1.813-.704 2.632 2.632 0 00-1.783.773l-1.252 1.252a.762.762 0 000 1.077l4.71 4.714a.759.759 0 001.077 0 .762.762 0 000-1.077l-1.467-1.467 3.428.218a.762.762 0 00.097-1.52zm-5.516-2.12c.2-.2.475-.32.754-.328a.918.918 0 01.688.26c.371.371.34 1.031-.07 1.44l-.712.718-1.373-1.376.713-.713zm-4.235 4.235l.768-.767a.762.762 0 10-1.077-1.077l-2.602 2.602a.762.762 0 101.077 1.077l.757-.757 4.173 4.173a.76.76 0 001.078 0 .762.762 0 000-1.077l-4.174-4.174zm7.738-8.814a.762.762 0 10-1.077 1.077l4.712 4.712a.76.76 0 001.077 0 .762.762 0 000-1.077l-4.712-4.712zm10.416-1.373l-6.4-2.892a.91.91 0 00-1.018.189.91.91 0 00-.195.998l.008.017 2.876 6.414a.762.762 0 101.39-.623l-.502-1.118 2.1-2.1 1.113.504a.761.761 0 10.628-1.389zm-4.508 1.497l-1.047-2.336 2.33 1.053-1.282 1.283zm8.587-5.204a.762.762 0 00-1.077 0l-1.111 1.111-4.17-4.169a.762.762 0 10-1.077 1.077l4.708 4.708a.76.76 0 001.078 0l1.65-1.65a.762.762 0 000-1.077zM11.432 34.639l1.22-1.22a.762.762 0 00-1.077-1.077l-1.22 1.22-1.234-1.234 1.371-1.371a.762.762 0 10-1.077-1.078l-1.91 1.91a.762.762 0 000 1.077l4.712 4.712a.76.76 0 001.077 0 .762.762 0 000-1.077l-1.862-1.862zm7.418-8.407h.001l2.356 2.356a.76.76 0 001.077 0l1.986-1.985a.762.762 0 10-1.078-1.077l-1.446 1.447-1.28-1.28 1.301-1.3a.762.762 0 10-1.077-1.077l-1.3 1.3-1.28-1.278 1.448-1.447a.762.762 0 10-1.077-1.077l-1.986 1.985a.761.761 0 000 1.078l2.356 2.355zm4.195-4.194l2.356 2.356a.76.76 0 001.077 0l1.985-1.985a.762.762 0 10-1.077-1.077l-1.446 1.447-1.28-1.28 1.301-1.3a.762.762 0 10-1.077-1.077l-1.3 1.3-1.28-1.278 1.448-1.447a.762.762 0 10-1.078-1.077l-1.985 1.985a.761.761 0 000 1.077l2.356 2.356zm-5.517 11.307a.762.762 0 000-1.078L16.06 30.8l3.428.219a.762.762 0 00.097-1.52l-2.673-.17c.234-.386.366-.826.38-1.284a2.426 2.426 0 00-.704-1.812 2.428 2.428 0 00-1.812-.705 2.63 2.63 0 00-1.784.774l-1.252 1.252a.762.762 0 000 1.077l4.71 4.714a.76.76 0 001.078 0zm-3.459-5.966c.2-.2.475-.32.754-.328a.917.917 0 01.688.259.92.92 0 01.259.688 1.127 1.127 0 01-.329.753l-.712.717-1.373-1.375.713-.714z" fill="#FFEE92"/><path d="M52 5.771a5.73 5.73 0 01-1.69 4.08c-.718.717-1.705 1.358-2.937 1.904l-.101.045c-3.542 1.546-7.965 1.897-8.154 1.912l-.06.002A.774.774 0 0139 12.17c.045-.003 4.436-.355 7.745-1.828l.101-.045c1.01-.458 1.807-.975 2.37-1.54a4.193 4.193 0 001.238-2.986c0-1.129-.44-2.19-1.238-2.987a4.193 4.193 0 00-2.987-1.238 4.19 4.19 0 00-2.987 1.238c-.564.563-1.081 1.36-1.54 2.37L40.2 4.727l.047-.106c.545-1.227 1.186-2.214 1.902-2.932A5.73 5.73 0 0146.23 0c1.542 0 2.991.6 4.08 1.69A5.73 5.73 0 0152 5.771z" fill="#3891B0"/><path d="M39.06 16.86a3.894 3.894 0 01-2.772-1.148 3.894 3.894 0 01-1.148-2.771.762.762 0 011.523 0c0 .639.25 1.24.703 1.693a2.38 2.38 0 001.693.703.762.762 0 010 1.523z" fill="#FFCAAC"/></svg>